<svg width="13" height="14" viewBox="0 0 13 14" fill="none" xmlns="http://www.w3.org/2000/svg">
<path id="add" d="M5.75 7.75H0.75C0.5375 7.75 0.359417 7.67808 0.21575 7.53425C0.0719168 7.39042 0 7.21225 0 6.99975C0 6.78708 0.0719168 6.609 0.21575 6.4655C0.359417 6.32183 0.5375 6.25 0.75 6.25H5.75V1.25C5.75 1.0375 5.82192 0.859417 5.96575 0.71575C6.10958 0.571917 6.28775 0.5 6.50025 0.5C6.71292 0.5 6.891 0.571917 7.0345 0.71575C7.17817 0.859417 7.25 1.0375 7.25 1.25V6.25H12.25C12.4625 6.25 12.6406 6.32192 12.7843 6.46575C12.9281 6.60958 13 6.78775 13 7.00025C13 7.21292 12.9281 7.391 12.7843 7.5345C12.6406 7.67817 12.4625 7.75 12.25 7.75H7.25V12.75C7.25 12.9625 7.17808 13.1406 7.03425 13.2843C6.89042 13.4281 6.71225 13.5 6.49975 13.5C6.28708 13.5 6.109 13.4281 5.9655 13.2843C5.82183 13.1406 5.75 12.9625 5.75 12.75V7.75Z" fill="white"/>
</svg>
