<svg width="244" height="161" viewBox="0 0 244 161" fill="none" xmlns="http://www.w3.org/2000/svg">
<g clip-path="url(#clip0_40001744_6624)">
<rect width="244" height="161" fill="white"/>
<g filter="url(#filter0_d_40001744_6624)">
<rect x="113.938" y="-0.691406" width="149" height="123" rx="4.33043" transform="rotate(-1 113.938 -0.691406)" fill="white"/>
</g>
<path d="M167.601 79.6071C166.368 78.5664 165.19 77.463 164.071 76.3019C163.602 75.8151 163.143 75.3182 162.696 74.811C155.684 66.8656 151.358 56.4981 151.159 45.095C150.713 19.5384 171.167 -1.54303 196.844 -1.99122C222.522 -2.43942 243.699 17.9153 244.145 43.4719C244.344 54.8752 240.383 65.3872 233.652 73.5725C233.223 74.0949 232.782 74.6075 232.331 75.1104C231.253 76.3099 230.114 77.4538 228.917 78.5369L198.398 86.9952L167.601 79.6071Z" fill="#DCDCE0" fill-opacity="0.5"/>
<path d="M229.739 77.7418C221.459 85.1753 210.514 89.7859 198.448 89.9965C186.383 90.2071 175.284 85.9814 166.749 78.8413C173.628 67.634 184.974 60.2271 197.925 60.001C210.876 59.775 222.474 66.7816 229.739 77.7418Z" fill="#AAAAB2"/>
<path d="M197.785 52.0015C208.553 51.8136 217.134 43.1559 216.951 32.6641C216.768 22.1723 207.89 13.8194 197.122 14.0073C186.354 14.1953 177.773 22.853 177.957 33.3448C178.14 43.8366 187.017 52.1895 197.785 52.0015Z" fill="#AAAAB2"/>
<rect x="139.152" y="56.4219" width="43.2" height="43.2" rx="21.6" transform="rotate(-1 139.152 56.4219)" fill="#FDFDFD"/>
<rect x="139.885" y="57.1292" width="41.76" height="41.76" rx="20.88" transform="rotate(-1 139.885 57.1292)" stroke="black" stroke-opacity="0.05" stroke-width="1.44"/>
<mask id="mask0_40001744_6624" style="mask-type:alpha" maskUnits="userSpaceOnUse" x="146" y="62" width="30" height="31">
<rect x="146.359" y="63.3828" width="29.0304" height="29.0304" transform="rotate(-1 146.359 63.3828)" fill="#D9D9D9"/>
</mask>
<g mask="url(#mask0_40001744_6624)">
<path d="M150.794 88.1087C150.183 88.1194 149.663 87.9168 149.232 87.5008C148.801 87.0849 148.581 86.5715 148.57 85.9605L148.33 72.192C148.319 71.581 148.522 71.0602 148.937 70.6295C149.353 70.1988 149.867 69.9781 150.478 69.9675L154.171 69.903L155.723 68.1614C155.919 67.941 156.157 67.7651 156.437 67.6338C156.716 67.5023 157.011 67.4339 157.32 67.4285L162.227 67.3428C162.484 67.3383 162.701 67.4215 162.878 67.5925C163.055 67.7634 163.146 67.9773 163.15 68.2343C163.155 68.4915 163.072 68.7084 162.901 68.885C162.73 69.0618 162.516 69.1524 162.259 69.1569L157.189 69.2454L155.012 71.703L150.509 71.7816C150.401 71.7835 150.312 71.8199 150.244 71.8909C150.175 71.9618 150.142 72.0516 150.144 72.1603L150.384 85.9289C150.386 86.0375 150.422 86.1261 150.493 86.1946C150.564 86.2632 150.654 86.2965 150.763 86.2946L169.369 85.9698C169.478 85.9679 169.566 85.9315 169.635 85.8605C169.703 85.7896 169.737 85.6998 169.735 85.5911L169.571 76.2181C169.567 75.9611 169.65 75.7442 169.821 75.5675C169.992 75.3905 170.206 75.2997 170.463 75.2952C170.72 75.2908 170.937 75.374 171.113 75.5449C171.29 75.7156 171.381 75.9295 171.385 76.1865L171.549 85.5595C171.56 86.1704 171.357 86.6912 170.941 87.1219C170.525 87.5526 170.012 87.7733 169.401 87.7839L150.794 88.1087ZM169.446 69.0315L167.934 69.0579C167.677 69.0624 167.46 68.9791 167.283 68.8082C167.106 68.6373 167.016 68.4233 167.011 68.1663C167.007 67.9091 167.09 67.6923 167.26 67.5157C167.431 67.3389 167.645 67.2482 167.902 67.2438L169.414 67.2174L169.388 65.7056C169.383 65.4486 169.466 65.2317 169.637 65.0549C169.808 64.8779 170.022 64.7872 170.279 64.7827C170.536 64.7782 170.753 64.8614 170.93 65.0324C171.107 65.2031 171.197 65.4169 171.202 65.6739L171.228 67.1857L172.74 67.1593C172.997 67.1548 173.214 67.238 173.391 67.409C173.568 67.5799 173.658 67.7938 173.663 68.0508C173.667 68.308 173.584 68.5249 173.413 68.7015C173.242 68.8783 173.029 68.969 172.772 68.9734L171.26 68.9998L171.286 70.5116C171.291 70.7686 171.207 70.9856 171.037 71.1626C170.866 71.3394 170.652 71.43 170.395 71.4345C170.137 71.439 169.921 71.3559 169.744 71.1851C169.567 71.0142 169.477 70.8003 169.472 70.5433L169.446 69.0315ZM160.026 83.8527C161.414 83.8285 162.582 83.3254 163.53 82.3435C164.479 81.3615 164.941 80.1766 164.916 78.7888C164.892 77.401 164.389 76.233 163.407 75.2847C162.425 74.3365 161.24 73.8744 159.852 73.8987C158.465 73.9229 157.297 74.426 156.348 75.4079C155.4 76.3899 154.938 77.5748 154.962 78.9626C154.986 80.3504 155.49 81.5184 156.471 82.4667C157.453 83.415 158.638 83.877 160.026 83.8527ZM159.994 82.0389C159.101 82.0545 158.346 81.7637 157.727 81.1663C157.109 80.5692 156.792 79.8241 156.776 78.9309C156.76 78.0378 157.051 77.282 157.649 76.6637C158.246 76.0451 158.991 75.7281 159.884 75.7125C160.777 75.6969 161.533 75.9878 162.151 76.5851C162.77 77.1822 163.087 77.9273 163.102 78.8205C163.118 79.7136 162.827 80.4694 162.23 81.0877C161.633 81.7063 160.888 82.0233 159.994 82.0389Z" fill="#03963F"/>
</g>
</g>
<defs>
<filter id="filter0_d_40001744_6624" x="67.2117" y="-36.0187" width="244.577" height="219.034" filterUnits="userSpaceOnUse" color-interpolation-filters="sRGB">
<feFlood flood-opacity="0" result="BackgroundImageFix"/>
<feColorMatrix in="SourceAlpha" type="matrix" values="0 0 0 0 0 0 0 0 0 0 0 0 0 0 0 0 0 0 127 0" result="hardAlpha"/>
<feOffset dy="14"/>
<feGaussianBlur stdDeviation="23.4"/>
<feComposite in2="hardAlpha" operator="out"/>
<feColorMatrix type="matrix" values="0 0 0 0 0.101961 0 0 0 0 0.101961 0 0 0 0 0.101961 0 0 0 0.1 0"/>
<feBlend mode="normal" in2="BackgroundImageFix" result="effect1_dropShadow_40001744_6624"/>
<feBlend mode="normal" in="SourceGraphic" in2="effect1_dropShadow_40001744_6624" result="shape"/>
</filter>
<clipPath id="clip0_40001744_6624">
<rect width="244" height="161" fill="white"/>
</clipPath>
</defs>
</svg>
