<svg width="244" height="161" viewBox="0 0 244 161" fill="none" xmlns="http://www.w3.org/2000/svg">
<g clip-path="url(#clip0_3_64)">
<rect width="244" height="161" fill="white"/>
<g filter="url(#filter0_d_3_64)">
<rect x="63" y="-72.3297" width="496.8" height="198.877" rx="4.33043" transform="rotate(-1 63 -72.3297)" fill="white"/>
<rect x="86.7313" y="-15.4404" width="28.08" height="28.08" rx="14.04" transform="rotate(-1 86.7313 -15.4404)" fill="#FAFAFA" fill-opacity="0.980392"/>
<rect x="87.0288" y="-15.153" width="27.495" height="27.495" rx="13.7475" transform="rotate(-1 87.0288 -15.153)" stroke="black" stroke-opacity="0.05" stroke-width="0.585"/>
<path d="M95.9159 2.19749L98.6976 2.14893L98.67 0.569315L95.8884 0.617869L95.8667 -0.623559L98.9438 -0.677269L97.8927 -2.38973L93.5295 -2.31357L93.6608 5.20933L99.8146 5.10191L99.7844 3.37164L95.9376 3.43878L95.9159 2.19749Z" fill="#141820"/>
<path d="M103.779 -2.49247L102.515 -0.0146517L101.169 -2.44691L98.618 -2.40239L101.385 2.10202L101.437 5.07359L103.737 5.03345L103.685 2.06187L106.297 -2.53643L103.779 -2.49247Z" fill="#141820"/>
<path d="M108.47 -10.2615L93.357 -4.56793L108.519 -7.46061L108.47 -10.2615Z" fill="#FEE502"/>
<path d="M127.137 7.33447L127.149 8.01781L123.378 8.08363L123.272 1.9969L127.043 1.93108L127.055 2.61441L124.043 2.66698L124.077 4.61996L126.933 4.57012L126.945 5.24501L124.089 5.29486L124.125 7.38704L127.137 7.33447ZM128.169 8.00001L128.092 3.61318L128.784 3.6011L128.796 4.31818L128.813 4.31789C128.948 3.8303 129.348 3.51531 129.862 3.50633C129.989 3.50412 130.099 3.52329 130.158 3.5307L130.171 4.24356C130.111 4.2235 129.955 4.20513 129.778 4.20823C129.208 4.21817 128.844 4.6338 128.855 5.25386L128.903 7.9872L128.169 8.00001ZM130.964 7.95121L130.887 3.56438L131.579 3.55231L131.591 4.25251L131.608 4.25222C131.845 3.77552 132.308 3.46364 132.987 3.45179C133.948 3.435 134.516 4.04535 134.533 5.04082L134.583 7.88804L133.849 7.90085L133.802 5.18439C133.789 4.47575 133.449 4.0935 132.775 4.10528C132.083 4.11736 131.64 4.61453 131.653 5.35692L131.698 7.9384L130.964 7.95121ZM135.518 4.69452C135.505 3.9437 136.166 3.3963 137.132 3.37943C138.039 3.3636 138.715 3.89189 138.761 4.63369L138.061 4.64591C138.003 4.22498 137.657 3.96942 137.117 3.97885C136.581 3.9882 136.232 4.26012 136.238 4.64397C136.244 4.94768 136.479 5.14609 136.979 5.26395L137.661 5.4166C138.551 5.6247 138.877 5.93968 138.888 6.58505C138.902 7.34853 138.19 7.90104 137.165 7.91893C136.203 7.93572 135.523 7.42438 135.434 6.64957L136.168 6.63676C136.256 7.09092 136.606 7.32953 137.201 7.31915C137.796 7.30877 138.158 7.04927 138.151 6.65277C138.146 6.34063 137.961 6.17507 137.466 6.05293L136.69 5.86815C135.915 5.68337 135.528 5.2935 135.518 4.69452ZM139.944 2.34723L140.678 2.33442L140.696 3.39317L141.548 3.37829L141.559 3.98148L140.707 3.99636L140.752 6.60315C140.759 7.00387 140.931 7.1823 141.307 7.17575C141.391 7.17427 141.56 7.15867 141.61 7.14936L141.621 7.7652C141.533 7.78784 141.33 7.80402 141.157 7.80704C140.352 7.82111 140.034 7.49754 140.019 6.65392L139.973 4.00917L139.319 4.02058L139.309 3.41739L139.962 3.40598L139.944 2.34723ZM145.878 7.14238C146.569 7.1303 147.092 6.63594 147.081 6.00322L147.075 5.64469L145.904 5.73686C145.314 5.78513 144.981 6.05255 144.988 6.46592C144.995 6.88351 145.35 7.15158 145.878 7.14238ZM145.724 7.76953C144.851 7.78477 144.255 7.26774 144.242 6.47895C144.228 5.72813 144.798 5.24561 145.809 5.16889L147.065 5.07524L147.059 4.70827C147.049 4.17257 146.69 3.85817 146.082 3.86878C145.517 3.87864 145.167 4.15057 145.082 4.58244L144.373 4.5948C144.411 3.83466 145.05 3.24122 146.088 3.22311C147.117 3.20515 147.776 3.7506 147.791 4.62375L147.844 7.65657L147.148 7.66871L147.135 6.91367L147.118 6.91397C146.866 7.42049 146.315 7.75922 145.724 7.76953ZM148.906 7.63803L148.83 3.2512L149.521 3.23913L149.534 3.93933L149.55 3.93904C149.787 3.46234 150.25 3.15046 150.929 3.13861C151.891 3.12182 152.458 3.73216 152.476 4.72764L152.525 7.57486L151.791 7.58767L151.744 4.87121C151.732 4.16257 151.392 3.78032 150.717 3.7921C150.025 3.80417 149.582 4.30135 149.595 5.04374L149.64 7.62522L148.906 7.63803ZM155.255 7.60317C154.137 7.62268 153.362 6.7417 153.338 5.36659C153.314 3.99149 154.053 3.08407 155.158 3.06478C155.787 3.05381 156.299 3.3529 156.568 3.8292L156.585 3.8289L156.543 1.41614L157.277 1.40333L157.383 7.49006L156.683 7.50228L156.67 6.7599L156.658 6.76012C156.384 7.27122 155.887 7.59213 155.255 7.60317ZM155.326 3.70743C154.55 3.72097 154.071 4.36223 154.089 5.35349C154.106 6.34896 154.606 6.96892 155.383 6.95537C156.138 6.94219 156.633 6.2922 156.615 5.30938C156.598 4.33078 156.081 3.69425 155.326 3.70743ZM162.953 7.39284L162.194 7.40609L162.148 4.78665L159.928 1.35706L160.793 1.34197L162.502 4.04629L162.528 4.04585L164.142 1.28351L165.007 1.26842L162.907 4.7734L162.953 7.39284ZM166.842 7.4009C165.628 7.42211 164.794 6.56324 164.77 5.16705C164.745 3.76664 165.548 2.88342 166.763 2.86222C167.974 2.84109 168.807 3.69574 168.832 5.09615C168.856 6.49234 168.053 7.37977 166.842 7.4009ZM166.831 6.75553C167.607 6.74199 168.103 6.14262 168.085 5.10918C168.067 4.07574 167.551 3.49404 166.774 3.50759C165.998 3.52114 165.498 4.12058 165.516 5.15402C165.534 6.18745 166.055 6.76908 166.831 6.75553ZM173.268 2.82463L173.344 7.21147L172.648 7.22361L172.636 6.51075L172.619 6.51105C172.366 7.02179 171.916 7.31235 171.241 7.32413C170.283 7.34084 169.711 6.73058 169.694 5.7351L169.644 2.88788L170.378 2.87507L170.426 5.59153C170.438 6.30439 170.778 6.68242 171.457 6.67057C172.17 6.65812 172.592 6.16131 172.579 5.41471L172.534 2.83744L173.268 2.82463ZM174.427 7.19256L174.351 2.80573L175.042 2.79366L175.055 3.49386L175.071 3.49357C175.308 3.01687 175.771 2.70499 176.45 2.69314C177.412 2.67635 177.979 3.2867 177.997 4.28217L178.046 7.12939L177.312 7.1422L177.265 4.42574C177.252 3.7171 176.912 3.33485 176.238 3.34663C175.546 3.35871 175.103 3.85588 175.116 4.59827L175.161 7.17975L174.427 7.19256ZM180.886 6.46801C181.649 6.45469 182.149 5.81306 182.132 4.84712C182.115 3.88117 181.593 3.24893 180.83 3.26225C180.075 3.27543 179.592 3.90833 179.609 4.89115C179.627 5.87396 180.131 6.48119 180.886 6.46801ZM180.951 8.7327C179.985 8.74956 179.212 8.21875 179.076 7.47428L179.831 7.4611C179.982 7.85932 180.421 8.11747 180.969 8.1079C181.729 8.09465 182.181 7.64794 182.169 6.99413L182.157 6.30236L182.14 6.30266C181.879 6.78402 181.365 7.10521 180.749 7.11596C179.632 7.13547 178.882 6.2667 178.859 4.90425C178.835 3.52915 179.553 2.63897 180.688 2.61916C181.308 2.60834 181.828 2.90306 182.128 3.40837L182.14 3.40815L182.128 2.66998L182.828 2.65776L182.903 6.95601C182.921 8.0021 182.161 8.71157 180.951 8.7327ZM189.382 5.85558C188.678 5.86787 188.09 5.30008 188.077 4.59566C188.065 3.89123 188.633 3.30326 189.337 3.29097C190.042 3.27867 190.63 3.84647 190.642 4.55089C190.654 5.25531 190.087 5.84328 189.382 5.85558ZM196.766 6.80263L196.007 6.81588L195.901 0.729154L199.596 0.664656L199.608 1.34799L196.672 1.39923L196.709 3.49142L199.404 3.44437L199.416 4.11927L196.72 4.16631L196.766 6.80263ZM204.112 2.28623L204.189 6.67307L203.493 6.68522L203.481 5.97236L203.464 5.97265C203.211 6.48339 202.76 6.77395 202.086 6.78573C201.128 6.80245 200.556 6.19218 200.539 5.1967L200.489 2.34948L201.223 2.33667L201.27 5.05313C201.283 5.76599 201.623 6.14402 202.302 6.13217C203.015 6.11973 203.437 5.62291 203.424 4.87631L203.379 2.29905L204.112 2.28623ZM205.31 6.6535L205.204 0.566773L205.938 0.553962L206.044 6.64069L205.31 6.6535ZM207.203 6.62046L207.096 0.533735L207.83 0.520924L207.937 6.60765L207.203 6.62046ZM211.1 1.1052L211.834 1.09239L211.852 2.15114L212.704 2.13626L212.715 2.73945L211.863 2.75433L211.908 5.36112C211.915 5.76184 212.087 5.94027 212.463 5.93372C212.547 5.93225 212.715 5.91665 212.766 5.90733L212.777 6.52317C212.688 6.54581 212.486 6.562 212.313 6.56501C211.508 6.57908 211.19 6.25551 211.175 5.41189L211.129 2.76714L210.475 2.77855L210.464 2.17536L211.118 2.16395L211.1 1.1052ZM213.733 6.50648L213.656 2.11965L214.39 2.10683L214.467 6.49367L213.733 6.50648ZM214.01 1.37507C213.762 1.37942 213.551 1.17634 213.547 0.927467C213.543 0.674381 213.746 0.468304 213.995 0.46396C214.248 0.459542 214.458 0.658404 214.462 0.91149C214.467 1.16036 214.264 1.37065 214.01 1.37507ZM215.588 6.4741L215.511 2.08727L216.203 2.0752L216.215 2.7754L216.232 2.77511C216.431 2.30751 216.872 1.98756 217.463 1.97725C218.062 1.9668 218.51 2.26277 218.709 2.79094L218.726 2.79065C218.961 2.26333 219.471 1.94221 220.086 1.93146C220.955 1.91629 221.526 2.47173 221.541 3.34066L221.594 6.36926L220.86 6.38207L220.81 3.52219C220.8 2.92322 220.461 2.57472 219.883 2.5848C219.301 2.59496 218.899 3.03235 218.909 3.6271L218.958 6.41527L218.224 6.42809L218.173 3.48806C218.164 2.9608 217.803 2.6211 217.259 2.6306C216.677 2.64076 216.263 3.10368 216.274 3.71108L216.322 6.46129L215.588 6.4741ZM224.352 2.49412C223.665 2.50612 223.193 3.04178 223.16 3.77232L225.543 3.73072C225.513 2.99707 225.044 2.48205 224.352 2.49412ZM225.549 5.04285L226.27 5.03026C226.157 5.80017 225.424 6.37835 224.467 6.39506C223.21 6.417 222.431 5.55718 222.407 4.17786C222.383 2.81541 223.143 1.8781 224.354 1.85697C225.539 1.83628 226.284 2.68404 226.307 4.01274L226.312 4.29113L223.165 4.34606L223.166 4.38824C223.181 5.22765 223.684 5.7716 224.473 5.75783C225.03 5.74812 225.434 5.45836 225.549 5.04285Z" fill="#414447"/>
<path d="M125.563 22.2076L123.551 22.2428L123.458 16.9169L125.477 16.8816C126.389 16.8657 127.015 17.3864 127.028 18.1837C127.038 18.7373 126.641 19.2611 126.13 19.3623L126.13 19.3918C126.855 19.4715 127.329 19.9727 127.342 20.6813C127.358 21.6188 126.696 22.1879 125.563 22.2076ZM124.133 17.4921L124.163 19.201L125.159 19.1836C125.945 19.1699 126.368 18.8487 126.358 18.2729C126.349 17.7451 125.982 17.4598 125.336 17.4711L124.133 17.4921ZM124.205 21.6443L125.453 21.6225C126.254 21.6086 126.669 21.2764 126.658 20.66C126.647 20.0437 126.206 19.7376 125.358 19.7524L124.173 19.7731L124.205 21.6443ZM129.392 21.6608C129.997 21.6503 130.455 21.2177 130.445 20.6641L130.44 20.3504L129.415 20.431C128.899 20.4733 128.607 20.7072 128.614 21.069C128.62 21.4343 128.931 21.6689 129.392 21.6608ZM129.258 22.2096C128.494 22.2229 127.972 21.7705 127.96 21.0804C127.949 20.4234 128.447 20.0012 129.332 19.934L130.431 19.8521L130.425 19.531C130.417 19.0623 130.102 18.7872 129.571 18.7965C129.076 18.8051 128.77 19.043 128.696 19.4209L128.076 19.4317C128.108 18.7666 128.668 18.2473 129.576 18.2315C130.476 18.2158 131.053 18.693 131.067 19.457L131.113 22.1108L130.504 22.1214L130.492 21.4607L130.478 21.461C130.256 21.9042 129.774 22.2006 129.258 22.2096ZM132.042 22.0945L131.975 18.2561L132.58 18.2455L132.591 18.8582L132.606 18.8579C132.813 18.4408 133.218 18.1679 133.812 18.1576C134.653 18.1429 135.15 18.6769 135.165 19.548L135.209 22.0393L134.566 22.0505L134.525 19.6736C134.514 19.0535 134.217 18.7191 133.626 18.7294C133.021 18.7399 132.633 19.175 132.645 19.8245L132.684 22.0833L132.042 22.0945ZM137.693 21.4606C138.361 21.4489 138.798 20.8875 138.784 20.0423C138.769 19.1971 138.312 18.6439 137.644 18.6555C136.984 18.6671 136.561 19.2208 136.576 20.0808C136.591 20.9408 137.033 21.4721 137.693 21.4606ZM137.75 23.4422C136.905 23.4569 136.228 22.9925 136.11 22.341L136.771 22.3295C136.902 22.678 137.287 22.9038 137.766 22.8955C138.431 22.8839 138.826 22.493 138.816 21.9209L138.806 21.3156L138.791 21.3159C138.562 21.7371 138.113 22.0181 137.574 22.0275C136.596 22.0446 135.94 21.2844 135.919 20.0923C135.898 18.8891 136.527 18.1102 137.52 18.0928C138.063 18.0834 138.518 18.3412 138.78 18.7834L138.791 18.7832L138.78 18.1373L139.392 18.1266L139.458 21.8876C139.474 22.8029 138.809 23.4237 137.75 23.4422ZM141.668 21.4466C142.274 21.436 142.731 21.0034 142.722 20.4498L142.716 20.1361L141.691 20.2167C141.175 20.259 140.884 20.493 140.89 20.8547C140.896 21.2201 141.207 21.4546 141.668 21.4466ZM141.534 21.9953C140.77 22.0087 140.249 21.5563 140.237 20.8661C140.225 20.2091 140.724 19.7869 141.609 19.7198L142.707 19.6378L142.702 19.3167C142.694 18.848 142.379 18.5729 141.847 18.5822C141.353 18.5908 141.047 18.8287 140.972 19.2066L140.352 19.2174C140.385 18.5523 140.944 18.0331 141.852 18.0172C142.753 18.0015 143.33 18.4788 143.343 19.2428L143.389 21.8965L142.78 21.9071L142.769 21.2465L142.754 21.2467C142.533 21.6899 142.051 21.9863 141.534 21.9953ZM144.351 21.8797L144.259 16.5538L144.901 16.5426L144.994 21.8685L144.351 21.8797ZM147.566 21.89C146.503 21.9086 145.774 21.1571 145.753 19.9354C145.731 18.71 146.434 17.9372 147.497 17.9187C148.556 17.9002 149.286 18.648 149.307 19.8734C149.328 21.095 148.626 21.8715 147.566 21.89ZM147.556 21.3253C148.236 21.3135 148.669 20.789 148.654 19.8848C148.638 18.9805 148.186 18.4715 147.507 18.4834C146.828 18.4952 146.39 19.0197 146.406 19.924C146.422 20.8283 146.877 21.3372 147.556 21.3253ZM150.103 21.7793L150.036 17.9408L150.642 17.9302L150.653 18.5577L150.667 18.5574C150.786 18.1308 151.135 17.8552 151.585 17.8473C151.696 17.8454 151.792 17.8622 151.844 17.8686L151.855 18.4924C151.803 18.4748 151.666 18.4588 151.511 18.4615C151.013 18.4702 150.694 18.8339 150.704 19.3764L150.746 21.7681L150.103 21.7793ZM153.846 18.3654C153.244 18.3759 152.831 18.8446 152.802 19.4838L154.887 19.4474C154.861 18.8054 154.451 18.3548 153.846 18.3654ZM154.892 20.5955L155.524 20.5845C155.425 21.2581 154.784 21.764 153.946 21.7787C152.846 21.7979 152.164 21.0455 152.143 19.8386C152.123 18.6465 152.788 17.8263 153.847 17.8078C154.884 17.7897 155.536 18.5315 155.556 19.6941L155.56 19.9377L152.807 19.9858L152.807 20.0227C152.82 20.7572 153.261 21.2331 153.951 21.2211C154.438 21.2126 154.792 20.9591 154.892 20.5955ZM158.688 16.3019L158.748 19.716C158.762 20.5206 159.3 21.0945 160.223 21.0784C161.145 21.0623 161.663 20.4699 161.649 19.6653L161.589 16.2513L162.254 16.2397L162.314 19.698C162.334 20.8348 161.555 21.668 160.233 21.6911C158.912 21.7141 158.104 20.9086 158.084 19.7718L158.024 16.3135L158.688 16.3019ZM163.394 21.5473L163.327 17.7088L163.932 17.6983L163.943 18.3257L163.958 18.3254C164.076 17.8988 164.425 17.6232 164.876 17.6153C164.986 17.6134 165.083 17.6302 165.135 17.6367L165.145 18.2604C165.093 18.2429 164.957 18.2268 164.802 18.2295C164.303 18.2382 163.985 18.6019 163.994 19.1444L164.036 21.5361L163.394 21.5473ZM167.749 21.5377C167.188 21.5475 166.744 21.2821 166.489 20.8435L166.474 20.8437L166.486 21.4933L165.873 21.504L165.78 16.1781L166.422 16.1669L166.459 18.2965L166.474 18.2963C166.706 17.8529 167.148 17.5757 167.691 17.5662C168.658 17.5493 169.325 18.3204 169.346 19.5236C169.367 20.7305 168.731 21.5206 167.749 21.5377ZM167.564 18.1333C166.915 18.1446 166.463 18.7211 166.478 19.5736C166.493 20.4299 166.964 20.9866 167.614 20.9752C168.293 20.9634 168.704 20.4135 168.689 19.5351C168.674 18.664 168.243 18.1214 167.564 18.1333ZM171.403 20.9275C172.009 20.917 172.466 20.4844 172.457 19.9308L172.451 19.6171L171.426 19.6977C170.91 19.7399 170.619 19.9739 170.625 20.3356C170.632 20.701 170.942 20.9356 171.403 20.9275ZM171.269 21.4763C170.505 21.4896 169.984 21.0372 169.972 20.347C169.96 19.6901 170.459 19.2679 171.344 19.2007L172.443 19.1188L172.437 18.7977C172.429 18.329 172.114 18.0539 171.582 18.0631C171.088 18.0718 170.782 18.3097 170.707 18.6876L170.087 18.6984C170.12 18.0333 170.679 17.514 171.587 17.4982C172.488 17.4825 173.065 17.9597 173.078 18.7237L173.124 21.3775L172.515 21.3881L172.504 20.7274L172.489 20.7277C172.268 21.1709 171.786 21.4673 171.269 21.4763ZM174.053 21.3612L173.986 17.5228L174.592 17.5122L174.602 18.1249L174.617 18.1246C174.824 17.7075 175.229 17.4346 175.823 17.4242C176.665 17.4096 177.162 17.9436 177.177 18.8146L177.22 21.306L176.578 21.3172L176.537 18.9403C176.526 18.3202 176.228 17.9857 175.638 17.996C175.032 18.0066 174.645 18.4416 174.656 19.0912L174.696 21.35L174.053 21.3612ZM178.611 22.3413L178.075 22.3506L178.401 20.4657L179.084 20.4538L178.611 22.3413ZM182.244 21.2183L181.58 21.2299L181.487 15.904L182.151 15.8924L182.196 18.4907L182.233 18.4901L184.539 15.8507L185.377 15.8361L183.229 18.2327L185.665 21.1585L184.817 21.1734L182.776 18.7132L182.212 19.3581L182.244 21.2183ZM187.391 20.6485C187.996 20.6379 188.454 20.2053 188.444 19.6517L188.439 19.338L187.414 19.4187C186.897 19.4609 186.606 19.6949 186.612 20.0566C186.619 20.422 186.929 20.6565 187.391 20.6485ZM187.256 21.1972C186.492 21.2106 185.971 20.7582 185.959 20.068C185.948 19.411 186.446 18.9888 187.331 18.9217L188.43 18.8397L188.424 18.5186C188.416 18.0499 188.101 17.7748 187.57 17.7841C187.075 17.7927 186.769 18.0306 186.694 18.4085L186.074 18.4194C186.107 17.7542 186.667 17.235 187.575 17.2191C188.475 17.2034 189.052 17.6807 189.065 18.4447L189.112 21.0984L188.503 21.109L188.491 20.4484L188.476 20.4486C188.255 20.8918 187.773 21.1882 187.256 21.1972ZM190.041 21.0822L189.974 17.2437L190.579 17.2331L190.59 17.8606L190.605 17.8603C190.723 17.4337 191.072 17.1581 191.523 17.1502C191.633 17.1483 191.73 17.1651 191.782 17.1715L191.792 17.7953C191.74 17.7777 191.604 17.7617 191.449 17.7644C190.95 17.7731 190.632 18.1367 190.641 18.6793L190.683 21.071L190.041 21.0822ZM192.487 21.0395L192.42 17.201L193.025 17.1904L193.036 17.8031L193.05 17.8029C193.257 17.3857 193.662 17.1129 194.257 17.1025C195.098 17.0878 195.595 17.6218 195.61 18.4929L195.653 20.9842L195.011 20.9954L194.97 18.6185C194.959 17.9985 194.661 17.664 194.071 17.6743C193.466 17.6849 193.078 18.1199 193.09 18.7695L193.129 21.0283L192.487 21.0395ZM197.844 20.466C198.449 20.4555 198.907 20.0229 198.897 19.4693L198.892 19.1555L197.867 19.2362C197.351 19.2784 197.059 19.5124 197.066 19.8741C197.072 20.2395 197.382 20.4741 197.844 20.466ZM197.709 21.0148C196.945 21.0281 196.424 20.5757 196.412 19.8855C196.401 19.2286 196.899 18.8064 197.784 18.7392L198.883 18.6573L198.877 18.3362C198.869 17.8674 198.554 17.5923 198.023 17.6016C197.528 17.6103 197.222 17.8482 197.148 18.2261L196.527 18.2369C196.56 17.5718 197.12 17.0525 198.028 17.0367C198.928 17.0209 199.505 17.4982 199.518 18.2622L199.565 20.9159L198.956 20.9266L198.944 20.2659L198.929 20.2662C198.708 20.7094 198.226 21.0058 197.709 21.0148ZM200.617 16.1312L201.26 16.12L201.276 17.0464L202.021 17.0334L202.03 17.5612L201.285 17.5742L201.325 19.8552C201.331 20.2058 201.481 20.3619 201.81 20.3562C201.884 20.3549 202.031 20.3412 202.075 20.3331L202.085 20.872C202.007 20.8918 201.83 20.9059 201.679 20.9086C200.974 20.9209 200.696 20.6378 200.683 19.8996L200.643 17.5854L200.071 17.5954L200.061 17.0676L200.633 17.0576L200.617 16.1312ZM204.072 20.3573C204.677 20.3467 205.135 19.9142 205.125 19.3605L205.12 19.0468L204.095 19.1275C203.579 19.1697 203.287 19.4037 203.294 19.7654C203.3 20.1308 203.611 20.3654 204.072 20.3573ZM203.937 20.9061C203.173 20.9194 202.652 20.467 202.64 19.7768C202.629 19.1198 203.127 18.6976 204.012 18.6305L205.111 18.5486L205.105 18.2275C205.097 17.7587 204.782 17.4836 204.251 17.4929C203.756 17.5015 203.45 17.7395 203.376 18.1174L202.756 18.1282C202.788 17.4631 203.348 16.9438 204.256 16.928C205.156 16.9122 205.733 17.3895 205.746 18.1535L205.793 20.8072L205.184 20.8179L205.172 20.1572L205.158 20.1574C204.936 20.6007 204.454 20.897 203.937 20.9061ZM207.36 18.6459L209.028 16.9111L209.807 16.8975L208.171 18.5838L209.926 20.7351L209.18 20.7481L207.724 18.9866L207.372 19.3324L207.397 20.7792L206.755 20.7904L206.662 15.4645L207.304 15.4533L207.36 18.6459ZM211.762 20.2231C212.367 20.2125 212.824 19.78 212.815 19.2263L212.809 18.9126L211.784 18.9933C211.268 19.0355 210.977 19.2695 210.983 19.6312C210.99 19.9966 211.3 20.2311 211.762 20.2231ZM211.627 20.7718C210.863 20.7852 210.342 20.3328 210.33 19.6426C210.319 18.9856 210.817 18.5634 211.702 18.4963L212.801 18.4143L212.795 18.0932C212.787 17.6245 212.472 17.3494 211.94 17.3587C211.446 17.3673 211.14 17.6053 211.065 17.9831L210.445 17.994C210.478 17.3288 211.037 16.8096 211.945 16.7937C212.846 16.778 213.423 17.2553 213.436 18.0193L213.482 20.673L212.873 20.6836L212.862 20.023L212.847 20.0232C212.626 20.4664 212.144 20.7628 211.627 20.7718ZM214.869 21.7084L214.334 21.7177L214.659 19.8328L215.342 19.8209L214.869 21.7084ZM218.503 20.5854L217.838 20.597L217.745 15.2711L218.41 15.2595L218.503 20.5854ZM219.55 20.5671L219.483 16.7286L220.088 16.7181L220.099 17.3307L220.114 17.3305C220.32 16.9134 220.725 16.6405 221.32 16.6301C222.161 16.6154 222.658 17.1495 222.673 18.0205L222.717 20.5118L222.074 20.523L222.033 18.1461C222.022 17.5261 221.724 17.1916 221.134 17.2019C220.529 17.2125 220.141 17.6475 220.153 18.2971L220.192 20.5559L219.55 20.5671ZM225.105 20.5366C224.127 20.5537 223.449 19.7828 223.428 18.5796C223.407 17.3764 224.054 16.5824 225.021 16.5655C225.57 16.5559 226.018 16.8176 226.254 17.2344L226.269 17.2341L226.232 15.1229L226.874 15.1117L226.967 20.4376L226.355 20.4483L226.343 19.7987L226.332 19.7989C226.093 20.2461 225.658 20.5269 225.105 20.5366ZM225.167 17.1278C224.488 17.1397 224.069 17.7008 224.085 18.5681C224.1 19.4392 224.537 19.9816 225.217 19.9698C225.877 19.9582 226.31 19.3895 226.295 18.5295C226.28 17.6733 225.828 17.1163 225.167 17.1278ZM227.981 20.4199L227.914 16.5814L228.556 16.5702L228.623 20.4087L227.981 20.4199ZM228.224 15.9299C228.006 15.9337 227.822 15.756 227.819 15.5383C227.815 15.3168 227.992 15.1365 228.21 15.1327C228.432 15.1289 228.616 15.3029 228.619 15.5243C228.623 15.7421 228.446 15.9261 228.224 15.9299ZM230.862 19.8897C231.467 19.8791 231.925 19.4466 231.915 18.8929L231.91 18.5792L230.885 18.6599C230.369 18.7021 230.077 18.9361 230.084 19.2978C230.09 19.6632 230.4 19.8977 230.862 19.8897ZM230.727 20.4384C229.963 20.4518 229.442 19.9994 229.43 19.3092C229.419 18.6522 229.917 18.23 230.802 18.1629L231.901 18.0809L231.895 17.7598C231.887 17.2911 231.572 17.016 231.041 17.0253C230.546 17.0339 230.24 17.2719 230.166 17.6497L229.545 17.6606C229.578 16.9954 230.138 16.4762 231.046 16.4603C231.946 16.4446 232.523 16.9219 232.536 17.6859L232.583 20.3396L231.974 20.3502L231.962 19.6896L231.947 19.6898C231.726 20.133 231.244 20.4294 230.727 20.4384Z" fill="#68696B"/>
<path d="M127.261 36.3402L126.699 34.8252L124.58 34.8622L124.072 36.3959L123.374 36.408L125.245 31.0479L125.902 31.0364L127.958 36.328L127.261 36.3402ZM125.576 31.8506L124.766 34.2941L126.493 34.2639L125.598 31.8502L125.576 31.8506ZM130.377 32.3797C131.355 32.3626 132.033 33.1335 132.054 34.3367C132.075 35.5399 131.428 36.3339 130.461 36.3508C129.911 36.3604 129.463 36.0987 129.227 35.6819L129.212 35.6822L129.245 37.5867L128.603 37.5979L128.514 32.4787L129.123 32.468L129.134 33.1176L129.149 33.1174C129.378 32.6814 129.819 32.3894 130.377 32.3797ZM130.31 35.7885C130.993 35.7766 131.412 35.2192 131.397 34.3482C131.381 33.4808 130.944 32.9347 130.261 32.9466C129.604 32.9581 129.171 33.5342 129.186 34.3868C129.201 35.243 129.654 35.8 130.31 35.7885ZM132.85 36.2426L132.783 32.4041L133.388 32.3936L133.399 33.021L133.414 33.0208C133.532 32.5941 133.882 32.3185 134.332 32.3107C134.443 32.3087 134.539 32.3255 134.591 32.332L134.602 32.9557C134.55 32.9382 134.413 32.9221 134.258 32.9248C133.76 32.9335 133.441 33.2972 133.451 33.8397L133.492 36.2314L132.85 36.2426ZM136.875 32.3807C136.859 31.4506 137.6 30.7436 138.603 30.7261C139.556 30.7095 140.316 31.3423 140.33 32.158C140.341 32.7522 140.079 33.1998 139.206 34.1343L137.883 35.5493L137.883 35.5641L140.478 35.5188L140.488 36.1093L136.974 36.1706L136.966 35.713L138.807 33.7056C139.51 32.9402 139.675 32.6531 139.667 32.2102C139.658 31.6971 139.182 31.2956 138.595 31.3059C137.971 31.3168 137.507 31.7753 137.517 32.3695L137.517 32.3732L136.875 32.3844L136.875 32.3807ZM143.235 36.15C141.991 36.1717 141.252 35.1139 141.223 33.4309C141.194 31.7626 141.902 30.6685 143.138 30.6469C144.375 30.6253 145.113 31.6868 145.143 33.3588C145.172 35.0418 144.475 36.1283 143.235 36.15ZM143.224 35.5705C144.055 35.556 144.498 34.7028 144.475 33.3741C144.452 32.0639 143.972 31.2157 143.149 31.2301C142.326 31.2444 141.868 32.1163 141.891 33.4155C141.914 34.7442 142.39 35.5851 143.224 35.5705ZM145.893 32.2233C145.877 31.2932 146.618 30.5862 147.622 30.5687C148.574 30.552 149.335 31.1849 149.349 32.0005C149.359 32.5948 149.097 33.0424 148.224 33.9769L146.901 35.3919L146.901 35.4066L149.496 35.3614L149.506 35.9519L145.993 36.0132L145.985 35.5556L147.825 33.5482C148.528 32.7828 148.693 32.4956 148.685 32.0527C148.676 31.5397 148.2 31.1382 147.613 31.1484C146.99 31.1593 146.525 31.6179 146.536 32.2121L146.536 32.2158L145.893 32.227L145.893 32.2233ZM150.288 32.1466C150.272 31.2165 151.013 30.5095 152.017 30.492C152.969 30.4753 153.729 31.1082 153.744 31.9238C153.754 32.5181 153.492 32.9657 152.619 33.9002L151.296 35.3152L151.296 35.3299L153.891 35.2846L153.901 35.8752L150.387 35.9365L150.379 35.4788L152.22 33.4715C152.923 32.7061 153.088 32.4189 153.08 31.976C153.071 31.463 152.595 31.0615 152.008 31.0717C151.385 31.0826 150.92 31.5412 150.93 32.1354L150.93 32.1391L150.288 32.1503L150.288 32.1466ZM158.812 33.9287L156.391 33.971L156.381 33.373L158.802 33.3308L158.812 33.9287ZM161.455 30.4158L163.356 30.3826C164.356 30.3652 165.073 31.0541 165.091 32.0617C165.109 33.073 164.409 33.7904 163.408 33.8079L162.179 33.8293L162.212 35.7301L161.548 35.7417L161.455 30.4158ZM162.13 30.9947L162.169 33.2388L163.232 33.2202C163.992 33.207 164.421 32.7823 164.408 32.0736C164.396 31.3687 163.957 30.9629 163.193 30.9762L162.13 30.9947ZM165.932 35.6652L165.865 31.8267L166.47 31.8161L166.481 32.4436L166.496 32.4433C166.614 32.0167 166.964 31.7411 167.414 31.7332C167.525 31.7313 167.621 31.7481 167.673 31.7545L167.684 32.3783C167.632 32.3607 167.495 32.3447 167.34 32.3474C166.841 32.3561 166.523 32.7197 166.532 33.2623L166.574 35.654L165.932 35.6652ZM169.674 32.2512C169.072 32.2617 168.66 32.7304 168.63 33.3697L170.716 33.3333C170.69 32.6913 170.279 32.2407 169.674 32.2512ZM170.721 34.4814L171.352 34.4704C171.253 35.144 170.612 35.6499 169.774 35.6646C168.674 35.6838 167.993 34.9314 167.972 33.7245C167.951 32.5324 168.616 31.7122 169.675 31.6937C170.712 31.6756 171.364 32.4174 171.384 33.58L171.389 33.8236L168.635 33.8717L168.636 33.9086C168.649 34.6431 169.089 35.119 169.779 35.107C170.266 35.0985 170.62 34.845 170.721 34.4814ZM172.067 32.778C172.056 32.1211 172.634 31.6421 173.48 31.6273C174.273 31.6135 174.864 32.0757 174.905 32.7248L174.293 32.7355C174.242 32.3672 173.939 32.1436 173.467 32.1518C172.998 32.16 172.692 32.3979 172.698 32.7338C172.702 32.9995 172.908 33.1732 173.346 33.2763L173.943 33.4099C174.721 33.5919 175.006 33.8675 175.016 34.4322C175.028 35.1003 174.405 35.5837 173.508 35.5994C172.667 35.6141 172.072 35.1667 171.994 34.4887L172.636 34.4775C172.713 34.8749 173.019 35.0837 173.54 35.0746C174.06 35.0655 174.377 34.8384 174.371 34.4915C174.367 34.2184 174.205 34.0735 173.771 33.9666L173.093 33.805C172.414 33.6433 172.076 33.3021 172.067 32.778ZM177.297 32.1182C176.696 32.1287 176.283 32.5974 176.253 33.2366L178.339 33.2002C178.313 32.5583 177.902 32.1076 177.297 32.1182ZM178.344 34.3483L178.975 34.3373C178.876 35.011 178.235 35.5169 177.397 35.5315C176.297 35.5507 175.616 34.7984 175.595 33.5915C175.574 32.3993 176.239 31.5792 177.299 31.5607C178.336 31.5426 178.987 32.2844 179.008 33.447L179.012 33.6906L176.258 33.7386L176.259 33.7755C176.272 34.51 176.712 34.986 177.402 34.9739C177.89 34.9654 178.243 34.7119 178.344 34.3483ZM179.805 35.423L179.738 31.5845L180.344 31.574L180.354 32.1867L180.369 32.1864C180.576 31.7693 180.981 31.4964 181.575 31.486C182.417 31.4713 182.913 32.0054 182.929 32.8764L182.972 35.3677L182.33 35.379L182.288 33.002C182.278 32.382 181.98 32.0475 181.389 32.0578C180.784 32.0684 180.397 32.5034 180.408 33.153L180.447 35.4118L179.805 35.423ZM184.028 30.583L184.67 30.5718L184.687 31.4982L185.432 31.4852L185.441 32.0129L184.696 32.026L184.736 34.3069C184.742 34.6575 184.892 34.8137 185.221 34.8079C185.295 34.8066 185.442 34.793 185.486 34.7848L185.496 35.3237C185.418 35.3435 185.241 35.3577 185.09 35.3603C184.385 35.3726 184.107 35.0895 184.094 34.3513L184.054 32.0372L183.482 32.0472L183.472 31.5194L184.044 31.5094L184.028 30.583Z" fill="#414447"/>
<rect x="87.9257" y="52.9892" width="451.33" height="0.54" transform="rotate(-1 87.9257 52.9892)" fill="black" fill-opacity="0.1"/>
<rect x="88.1613" y="66.4872" width="28.08" height="28.08" rx="14.04" transform="rotate(-1 88.1613 66.4872)" fill="#FAFAFA" fill-opacity="0.980392"/>
<rect x="88.4589" y="66.7745" width="27.495" height="27.495" rx="13.7475" transform="rotate(-1 88.4589 66.7745)" stroke="black" stroke-opacity="0.05" stroke-width="0.585"/>
<path d="M97.346 84.125L100.128 84.0765L100.1 82.4968L97.3184 82.5454L97.2968 81.304L100.374 81.2503L99.3227 79.5378L94.9595 79.614L95.0908 87.1368L101.245 87.0294L101.214 85.2992L97.3677 85.3663L97.346 84.125Z" fill="#141820"/>
<path d="M105.209 79.435L103.945 81.9129L102.599 79.4806L100.048 79.5251L102.815 84.0295L102.867 87.0011L105.167 86.961L105.115 83.9894L107.727 79.3911L105.209 79.435Z" fill="#141820"/>
<path d="M109.9 71.666L94.7871 77.3596L109.949 74.4669L109.9 71.666Z" fill="#FEE502"/>
<path d="M127.676 72.8286C127.682 73.1223 127.655 73.3964 127.596 73.6509C127.537 73.9054 127.428 74.1291 127.27 74.322C127.118 74.5147 126.908 74.6682 126.639 74.7823C126.376 74.8964 126.04 74.957 125.631 74.9641C125.251 74.9707 124.919 74.9247 124.635 74.8259C124.357 74.7213 124.142 74.6099 123.99 74.4916L124.363 73.6295C124.509 73.7249 124.686 73.8169 124.895 73.9054C125.11 73.9881 125.327 74.0275 125.546 74.0237C125.914 74.0173 126.18 73.9204 126.344 73.7332C126.508 73.546 126.586 73.2278 126.578 72.7786L126.509 68.8307L127.606 68.8116L127.676 72.8286ZM131.559 71.1535C131.472 71.1262 131.351 71.0995 131.195 71.0734C131.044 71.0415 130.868 71.0273 130.667 71.0308C130.552 71.0328 130.428 71.0465 130.296 71.0719C130.17 71.0971 130.081 71.1188 130.029 71.137L130.092 74.7566L129.047 74.7749L128.972 70.4728C129.172 70.3944 129.422 70.3209 129.72 70.2523C130.024 70.1779 130.36 70.1375 130.729 70.131C130.798 70.1298 130.879 70.1342 130.971 70.1441C131.063 70.1482 131.156 70.1582 131.248 70.1738C131.341 70.1837 131.43 70.1994 131.517 70.221C131.604 70.2367 131.673 70.2528 131.725 70.2692L131.559 71.1535ZM133.274 74.1307C133.278 74.3323 133.212 74.4976 133.076 74.6268C132.945 74.7558 132.785 74.8219 132.595 74.8253C132.399 74.8287 132.234 74.7682 132.1 74.6438C131.965 74.5194 131.896 74.3564 131.892 74.1549C131.889 73.9533 131.952 73.788 132.082 73.659C132.212 73.5242 132.375 73.4551 132.571 73.4517C132.761 73.4484 132.924 73.5118 133.058 73.642C133.199 73.7662 133.271 73.9292 133.274 74.1307ZM136.472 74.6452L136.368 68.6586L140.151 68.5926L140.168 69.5169L137.472 69.564L137.499 71.093L139.892 71.0513L139.908 71.9756L137.515 72.0174L137.561 74.6262L136.472 74.6452ZM144.688 74.3636C144.487 74.4189 144.226 74.4753 143.905 74.5328C143.583 74.596 143.229 74.631 142.844 74.6377C142.481 74.6441 142.175 74.5976 141.925 74.4982C141.681 74.3988 141.483 74.2582 141.33 74.0765C141.183 73.8948 141.075 73.6777 141.008 73.4254C140.94 73.1674 140.903 72.8857 140.898 72.5805L140.854 70.0494L141.899 70.0311L141.94 72.3981C141.949 72.8819 142.024 73.2262 142.166 73.4311C142.313 73.636 142.563 73.7353 142.914 73.7292C143.041 73.727 143.173 73.7189 143.311 73.7049C143.455 73.6909 143.561 73.6747 143.63 73.6562L143.566 70.002L144.612 69.9838L144.688 74.3636ZM147.595 74.5375C147.283 74.5372 147.024 74.5072 146.815 74.4474C146.613 74.3876 146.45 74.3011 146.327 74.1881C146.204 74.0692 146.115 73.9239 146.06 73.752C146.011 73.5743 145.984 73.3731 145.98 73.1485L145.89 67.948L146.932 67.757L147.022 72.9316C147.024 73.0583 147.035 73.1647 147.054 73.2508C147.078 73.3367 147.117 73.411 147.17 73.4734C147.223 73.5301 147.293 73.575 147.38 73.608C147.472 73.6352 147.588 73.6562 147.726 73.6711L147.595 74.5375ZM150.159 74.4928C149.848 74.4924 149.588 74.4624 149.38 74.4027C149.177 74.3428 149.014 74.2564 148.891 74.1433C148.768 74.0245 148.679 73.8791 148.625 73.7073C148.575 73.5295 148.549 73.3284 148.545 73.1038L148.454 67.9033L149.496 67.7122L149.587 72.8868C149.589 73.0135 149.599 73.1199 149.618 73.206C149.643 73.292 149.682 73.3662 149.734 73.4286C149.787 73.4853 149.857 73.5302 149.944 73.5632C150.037 73.5904 150.152 73.6115 150.291 73.6263L150.159 74.4928ZM150.632 71.4514L152.956 71.4108L152.973 72.3697L150.649 72.4103L150.632 71.4514ZM154.993 73.5702C155.27 73.5653 155.471 73.5301 155.597 73.4646C155.722 73.3933 155.783 73.277 155.781 73.1157C155.778 72.966 155.707 72.8434 155.567 72.7479C155.433 72.6523 155.209 72.5496 154.896 72.4399C154.705 72.3741 154.528 72.3051 154.365 72.2331C154.208 72.1552 154.071 72.0654 153.954 71.9637C153.837 71.8621 153.743 71.7399 153.671 71.5971C153.606 71.4485 153.571 71.2676 153.567 71.0545C153.56 70.6399 153.707 70.3118 154.008 70.0704C154.309 69.8231 154.721 69.695 155.245 69.6858C155.51 69.6812 155.764 69.7027 156.007 69.7503C156.25 69.7921 156.432 69.8351 156.554 69.879L156.378 70.7289C156.262 70.6791 156.115 70.6356 155.935 70.5984C155.756 70.5554 155.548 70.536 155.312 70.5401C155.099 70.5439 154.927 70.5843 154.796 70.6615C154.665 70.7329 154.6 70.8435 154.603 70.9932C154.604 71.0681 154.617 71.1341 154.641 71.1913C154.671 71.2484 154.718 71.3023 154.782 71.353C154.846 71.398 154.93 71.4455 155.035 71.4955C155.14 71.5398 155.267 71.5865 155.418 71.6357C155.667 71.7236 155.879 71.812 156.053 71.9012C156.227 71.9845 156.37 72.0829 156.482 72.1961C156.599 72.3036 156.685 72.4288 156.739 72.5719C156.793 72.7149 156.822 72.8873 156.826 73.0888C156.833 73.5208 156.678 73.8519 156.359 74.0821C156.046 74.3065 155.593 74.4238 155 74.4342C154.603 74.4411 154.282 74.4121 154.039 74.3473C153.796 74.2881 153.625 74.2393 153.527 74.2007L153.693 73.325C153.85 73.3856 154.035 73.4429 154.249 73.4967C154.469 73.5505 154.717 73.575 154.993 73.5702ZM157.672 68.5633L158.714 68.3723L158.738 69.7372L160.344 69.7091L160.36 70.5817L158.753 70.6097L158.785 72.4497C158.791 72.8126 158.853 73.0707 158.971 73.2242C159.089 73.3777 159.286 73.452 159.563 73.4472C159.753 73.4439 159.92 73.4208 160.063 73.378C160.212 73.3351 160.329 73.2956 160.415 73.2595L160.602 74.0858C160.482 74.1397 160.325 74.1943 160.13 74.2496C159.935 74.3106 159.705 74.3434 159.44 74.348C159.118 74.3537 158.846 74.3152 158.626 74.2326C158.411 74.15 158.239 74.0291 158.11 73.8701C157.98 73.7053 157.888 73.5081 157.832 73.2787C157.776 73.0434 157.745 72.7761 157.74 72.4766L157.672 68.5633ZM163.01 73.4475C163.333 73.4419 163.577 73.4203 163.744 73.3829L163.724 72.2253C163.666 72.209 163.582 72.1932 163.472 72.1778C163.363 72.1624 163.241 72.1559 163.109 72.1582C162.994 72.1602 162.876 72.1709 162.755 72.1903C162.64 72.2096 162.534 72.2432 162.437 72.2909C162.346 72.3386 162.272 72.4062 162.216 72.4935C162.16 72.5752 162.133 72.6793 162.135 72.806C162.139 73.0537 162.22 73.2251 162.377 73.3203C162.535 73.4097 162.746 73.4521 163.01 73.4475ZM162.856 69.553C163.202 69.5469 163.493 69.5851 163.731 69.6673C163.969 69.7496 164.158 69.8673 164.299 70.0203C164.445 70.1733 164.55 70.3616 164.611 70.5852C164.678 70.803 164.714 71.0443 164.719 71.3092L164.767 74.0477C164.606 74.085 164.362 74.1296 164.034 74.1814C163.713 74.2389 163.347 74.2712 162.939 74.2783C162.668 74.2831 162.42 74.2615 162.194 74.2136C161.969 74.1656 161.774 74.0855 161.611 73.9731C161.454 73.8607 161.327 73.7131 161.232 73.5304C161.142 73.3476 161.095 73.1209 161.09 72.8502C161.086 72.591 161.131 72.3713 161.226 72.1911C161.326 72.0108 161.462 71.8644 161.633 71.7519C161.804 71.6337 162.001 71.5496 162.225 71.4996C162.454 71.4438 162.693 71.4137 162.94 71.4094C163.056 71.4074 163.177 71.4139 163.304 71.429C163.431 71.4383 163.566 71.4589 163.711 71.491L163.708 71.3182C163.706 71.1973 163.689 71.0823 163.659 70.9734C163.628 70.8645 163.574 70.7704 163.498 70.6911C163.428 70.6059 163.331 70.5413 163.21 70.4973C163.094 70.4533 162.946 70.4328 162.768 70.4359C162.526 70.4401 162.305 70.4613 162.104 70.4994C161.903 70.5374 161.739 70.5806 161.613 70.6289L161.469 69.7846C161.601 69.7362 161.793 69.6867 162.045 69.6363C162.298 69.5858 162.568 69.558 162.856 69.553ZM165.759 71.8787C165.753 71.5446 165.799 71.2327 165.898 70.943C165.996 70.6475 166.139 70.3915 166.325 70.1751C166.517 69.9586 166.75 69.7874 167.025 69.6617C167.299 69.5359 167.609 69.47 167.954 69.464C168.381 69.4565 168.785 69.5272 169.168 69.6761L168.958 70.5353C168.836 70.4855 168.697 70.4448 168.541 70.4129C168.391 70.381 168.229 70.3665 168.057 70.3695C167.648 70.3767 167.339 70.5117 167.131 70.7746C166.922 71.0317 166.822 71.3935 166.83 71.86C166.838 72.3092 166.945 72.6645 167.151 72.9259C167.357 73.1815 167.699 73.3052 168.177 73.2968C168.355 73.2937 168.531 73.2734 168.703 73.2358C168.875 73.1982 169.024 73.1524 169.15 73.0984L169.312 73.9597C169.198 74.0193 169.023 74.0742 168.788 74.1244C168.558 74.1745 168.319 74.2017 168.072 74.206C167.686 74.2127 167.348 74.161 167.058 74.0509C166.774 73.9349 166.535 73.7749 166.341 73.5708C166.153 73.361 166.011 73.1129 165.913 72.8265C165.816 72.5344 165.764 72.2185 165.759 71.8787ZM171.12 71.2839C171.25 71.1434 171.389 70.994 171.536 70.8359C171.683 70.6721 171.827 70.5111 171.968 70.3531C172.109 70.1893 172.242 70.0344 172.366 69.8882C172.496 69.7361 172.606 69.6046 172.696 69.4935L173.932 69.472C173.649 69.7995 173.35 70.1389 173.033 70.4901C172.723 70.8411 172.409 71.1836 172.092 71.5175C172.267 71.6585 172.452 71.831 172.646 72.035C172.839 72.2332 173.027 72.446 173.21 72.6732C173.392 72.9005 173.563 73.1279 173.723 73.3556C173.882 73.5832 174.016 73.7941 174.123 73.9881L172.913 74.0092C172.807 73.8324 172.682 73.6474 172.541 73.454C172.405 73.2605 172.258 73.0729 172.099 72.8914C171.94 72.7098 171.779 72.5398 171.615 72.3813C171.451 72.2171 171.29 72.0788 171.132 71.9663L171.168 74.0396L170.123 74.0579L170.009 67.527L171.051 67.336L171.12 71.2839ZM176.949 73.9387L176.845 67.9521L180.689 67.885L180.705 68.8093L177.949 68.8575L177.975 70.3347L180.428 70.2918L180.444 71.1989L177.991 71.2417L178.022 72.9954L180.985 72.9437L181.001 73.868L176.949 73.9387ZM181.883 69.4801C182.083 69.419 182.344 69.3597 182.666 69.3022C182.988 69.2448 183.344 69.2126 183.736 69.2058C184.104 69.1994 184.414 69.2458 184.663 69.3452C184.912 69.4387 185.111 69.5764 185.258 69.7582C185.411 69.9341 185.518 70.1512 185.58 70.4093C185.648 70.6616 185.685 70.9404 185.69 71.2456L185.734 73.7854L184.689 73.8036L184.647 71.428C184.643 71.1861 184.622 70.982 184.585 70.8155C184.553 70.6433 184.499 70.506 184.422 70.4036C184.351 70.2954 184.252 70.2193 184.124 70.1755C184.003 70.1258 183.852 70.1025 183.674 70.1056C183.541 70.1079 183.403 70.1189 183.26 70.1387C183.116 70.1585 183.01 70.1748 182.941 70.1875L183.004 73.833L181.959 73.8513L181.883 69.4801ZM187.792 71.3731C187.799 71.8166 187.9 72.1403 188.094 72.3443C188.293 72.5424 188.545 72.6389 188.851 72.6335C189.018 72.6306 189.173 72.6049 189.316 72.5563C189.465 72.5076 189.585 72.4508 189.676 72.3858L189.635 70.0447C189.56 70.0288 189.467 70.016 189.358 70.0064C189.248 69.991 189.11 69.9848 188.943 69.9877C188.563 69.9943 188.274 70.1261 188.077 70.383C187.88 70.6342 187.784 70.9642 187.792 71.3731ZM190.736 73.2401C190.749 73.96 190.574 74.4901 190.211 74.8306C189.854 75.171 189.298 75.3477 188.544 75.3609C188.267 75.3657 187.996 75.3474 187.731 75.306C187.471 75.2644 187.233 75.2081 187.019 75.1369L187.194 74.2438C187.373 74.3156 187.576 74.3725 187.801 74.4147C188.033 74.4567 188.281 74.4754 188.546 74.4708C188.966 74.4635 189.264 74.3719 189.44 74.196C189.615 74.0201 189.7 73.7622 189.694 73.4225L189.691 73.2497C189.588 73.3033 189.451 73.3576 189.279 73.4124C189.113 73.4672 188.92 73.4964 188.702 73.5003C188.414 73.5053 188.148 73.4638 187.904 73.3759C187.667 73.2879 187.46 73.1561 187.284 72.9806C187.114 72.805 186.977 72.5856 186.875 72.3224C186.778 72.0533 186.727 71.7431 186.72 71.3918C186.715 71.0635 186.758 70.7603 186.851 70.4822C186.95 70.2039 187.093 69.9652 187.28 69.7661C187.472 69.5669 187.705 69.4101 187.98 69.2959C188.255 69.1816 188.567 69.1215 188.919 69.1153C189.259 69.1094 189.582 69.1297 189.888 69.1762C190.194 69.2227 190.454 69.2729 190.668 69.3268L190.736 73.2401ZM193.128 73.6563L192.083 73.6746L192.004 69.1565L193.049 69.1383L193.128 73.6563ZM193.138 67.8146C193.142 68.0104 193.081 68.167 192.957 68.2844C192.832 68.4018 192.683 68.462 192.51 68.465C192.332 68.4681 192.178 68.4132 192.049 68.3002C191.921 68.1873 191.855 68.0329 191.851 67.8371C191.848 67.6355 191.908 67.476 192.033 67.3586C192.158 67.2412 192.309 67.181 192.488 67.1779C192.661 67.1748 192.811 67.2298 192.94 67.3428C193.069 67.4558 193.135 67.613 193.138 67.8146ZM194.385 69.2619C194.586 69.2008 194.847 69.1415 195.169 69.084C195.49 69.0265 195.847 68.9944 196.238 68.9876C196.607 68.9811 196.916 69.0276 197.165 69.1269C197.415 69.2205 197.613 69.3582 197.76 69.54C197.913 69.7159 198.021 69.9329 198.083 70.1911C198.15 70.4434 198.187 70.7221 198.192 71.0274L198.237 73.5671L197.191 73.5854L197.15 71.2098C197.146 70.9679 197.125 70.7637 197.087 70.5973C197.056 70.425 197.001 70.2877 196.925 70.1854C196.854 70.0772 196.754 70.0011 196.627 69.9572C196.505 69.9075 196.355 69.8842 196.176 69.8873C196.044 69.8897 195.906 69.9007 195.762 69.9205C195.618 69.9403 195.512 69.9565 195.443 69.9693L195.507 73.6148L194.462 73.633L194.385 69.2619ZM199.225 71.3118C199.218 70.9144 199.27 70.565 199.38 70.2635C199.496 69.9619 199.65 69.7115 199.842 69.5123C200.034 69.3073 200.256 69.1536 200.508 69.0513C200.76 68.9432 201.018 68.8869 201.283 68.8822C201.905 68.8714 202.392 69.0559 202.744 69.4357C203.102 69.8154 203.288 70.3883 203.301 71.1542C203.302 71.2118 203.301 71.2781 203.296 71.3531C203.297 71.4222 203.296 71.4856 203.291 71.5433L200.31 71.5953C200.346 71.9576 200.477 72.2376 200.705 72.4352C200.939 72.627 201.272 72.7192 201.704 72.7116C201.957 72.7072 202.187 72.6801 202.394 72.6305C202.606 72.5807 202.772 72.5288 202.892 72.4748L203.045 73.3277C202.988 73.3575 202.908 73.3905 202.805 73.4269C202.708 73.4574 202.593 73.4853 202.461 73.5107C202.335 73.5417 202.197 73.5671 202.048 73.587C201.898 73.6069 201.746 73.6182 201.59 73.6209C201.193 73.6279 200.846 73.5763 200.55 73.4663C200.255 73.3505 200.01 73.1905 199.816 72.9865C199.622 72.7768 199.477 72.5316 199.38 72.251C199.283 71.9646 199.231 71.6516 199.225 71.3118ZM202.249 70.7924C202.247 70.6484 202.224 70.5134 202.182 70.3874C202.139 70.2557 202.077 70.1444 201.994 70.0537C201.918 69.9571 201.822 69.8839 201.705 69.834C201.595 69.7784 201.462 69.7519 201.307 69.7546C201.145 69.7574 201.005 69.7915 200.885 69.857C200.765 69.9167 200.663 69.9963 200.578 70.0957C200.499 70.195 200.438 70.3084 200.394 70.4359C200.35 70.5634 200.321 70.6935 200.306 70.8263L202.249 70.7924ZM204.16 71.2256C204.154 70.8283 204.205 70.4788 204.315 70.1773C204.431 69.8758 204.585 69.6254 204.777 69.4261C204.969 69.2211 205.191 69.0675 205.443 68.9652C205.695 68.8571 205.953 68.8007 206.218 68.7961C206.84 68.7852 207.327 68.9697 207.679 69.3495C208.037 69.7293 208.223 70.3021 208.236 71.0681C208.237 71.1257 208.236 71.192 208.231 71.2669C208.232 71.336 208.231 71.3994 208.226 71.4571L205.246 71.5091C205.281 71.8715 205.412 72.1515 205.64 72.3491C205.874 72.5409 206.207 72.633 206.639 72.6255C206.892 72.6211 207.122 72.594 207.329 72.5443C207.541 72.4945 207.707 72.4426 207.827 72.3887L207.981 73.2415C207.923 73.2713 207.843 73.3044 207.74 73.3408C207.643 73.3713 207.528 73.3992 207.396 73.4245C207.27 73.4556 207.132 73.481 206.983 73.5009C206.833 73.5208 206.681 73.5321 206.525 73.5348C206.128 73.5417 205.781 73.4902 205.486 73.3801C205.19 73.2643 204.945 73.1044 204.751 72.9004C204.558 72.6906 204.412 72.4454 204.315 72.1648C204.218 71.8785 204.166 71.5654 204.16 71.2256ZM207.185 70.7062C207.182 70.5622 207.159 70.4273 207.117 70.3013C207.074 70.1695 207.012 70.0583 206.93 69.9675C206.853 69.8709 206.757 69.7977 206.641 69.7479C206.53 69.6922 206.397 69.6657 206.242 69.6684C206.081 69.6713 205.94 69.7054 205.82 69.7709C205.7 69.8306 205.598 69.9101 205.513 70.0095C205.434 70.1088 205.373 70.2223 205.329 70.3498C205.285 70.4773 205.256 70.6074 205.241 70.7402L207.185 70.7062ZM211.897 69.7512C211.81 69.7239 211.689 69.6972 211.533 69.6711C211.382 69.6392 211.207 69.625 211.005 69.6285C210.89 69.6305 210.766 69.6442 210.634 69.6695C210.508 69.6948 210.419 69.7165 210.367 69.7347L210.431 73.3543L209.385 73.3725L209.31 69.0705C209.51 68.9921 209.76 68.9186 210.058 68.85C210.362 68.7756 210.698 68.7352 211.067 68.7287C211.136 68.7275 211.217 68.7319 211.309 68.7418C211.401 68.7459 211.494 68.7558 211.586 68.7715C211.679 68.7814 211.768 68.7971 211.855 68.8187C211.942 68.8344 212.011 68.8505 212.063 68.8669L211.897 69.7512Z" fill="black"/>
<path d="M128.567 89.262L128.579 89.9453L124.808 90.0111L124.702 83.9244L128.473 83.8586L128.485 84.5419L125.473 84.5945L125.507 86.5475L128.363 86.4976L128.375 87.1725L125.519 87.2224L125.555 89.3146L128.567 89.262ZM129.599 89.9275L129.522 85.5407L130.214 85.5286L130.226 86.2457L130.243 86.2454C130.378 85.7578 130.778 85.4428 131.292 85.4338C131.419 85.4316 131.529 85.4508 131.588 85.4582L131.601 86.1711C131.541 86.151 131.385 86.1327 131.208 86.1357C130.638 86.1457 130.274 86.5613 130.285 87.1814L130.333 89.9147L129.599 89.9275ZM132.394 89.8787L132.318 85.4919L133.009 85.4798L133.022 86.18L133.038 86.1797C133.275 85.703 133.738 85.3912 134.417 85.3793C135.379 85.3625 135.946 85.9729 135.964 86.9683L136.013 89.8156L135.279 89.8284L135.232 87.1119C135.22 86.4033 134.879 86.021 134.205 86.0328C133.513 86.0449 133.07 86.5421 133.083 87.2844L133.128 89.8659L132.394 89.8787ZM136.948 86.622C136.935 85.8712 137.596 85.3238 138.562 85.307C139.469 85.2911 140.145 85.8194 140.192 86.5612L139.491 86.5734C139.433 86.1525 139.087 85.8969 138.547 85.9064C138.011 85.9157 137.662 86.1876 137.669 86.5715C137.674 86.8752 137.909 87.0736 138.409 87.1915L139.091 87.3441C139.981 87.5522 140.307 87.8672 140.318 88.5126C140.332 89.276 139.62 89.8286 138.595 89.8464C137.633 89.8632 136.953 89.3519 136.864 88.5771L137.598 88.5643C137.686 89.0184 138.036 89.257 138.631 89.2467C139.226 89.2363 139.588 88.9768 139.581 88.5803C139.576 88.2682 139.391 88.1026 138.896 87.9804L138.12 87.7957C137.345 87.6109 136.958 87.221 136.948 86.622ZM141.374 84.2748L142.108 84.2619L142.126 85.3207L142.979 85.3058L142.989 85.909L142.137 85.9239L142.183 88.5307C142.19 88.9314 142.361 89.1098 142.737 89.1033C142.821 89.1018 142.99 89.0862 143.04 89.0769L143.051 89.6927C142.963 89.7154 142.76 89.7315 142.587 89.7346C141.782 89.7486 141.464 89.4251 141.449 88.5814L141.403 85.9367L140.749 85.9481L140.739 85.3449L141.393 85.3335L141.374 84.2748ZM147.308 89.0699C147.999 89.0578 148.522 88.5635 148.511 87.9307L148.505 87.5722L147.334 87.6644C146.744 87.7127 146.411 87.9801 146.418 88.3934C146.426 88.811 146.78 89.0791 147.308 89.0699ZM147.154 89.697C146.281 89.7123 145.685 89.1953 145.672 88.4065C145.659 87.6556 146.228 87.1731 147.239 87.0964L148.495 87.0028L148.489 86.6358C148.479 86.1001 148.12 85.7857 147.512 85.7963C146.947 85.8062 146.597 86.0781 146.512 86.51L145.803 86.5223C145.841 85.7622 146.48 85.1687 147.518 85.1506C148.547 85.1327 149.206 85.6781 149.222 86.5513L149.274 89.5841L148.578 89.5962L148.565 88.8412L148.548 88.8415C148.296 89.348 147.745 89.6867 147.154 89.697ZM150.336 89.5656L150.26 85.1787L150.951 85.1666L150.964 85.8669L150.981 85.8666C151.217 85.3899 151.68 85.078 152.359 85.0661C153.321 85.0493 153.888 85.6597 153.906 86.6552L153.955 89.5024L153.221 89.5152L153.174 86.7987C153.162 86.0901 152.822 85.7078 152.147 85.7196C151.455 85.7317 151.012 86.2289 151.025 86.9713L151.07 89.5527L150.336 89.5656ZM156.685 89.5307C155.567 89.5502 154.792 88.6692 154.768 87.2941C154.744 85.919 155.483 85.0116 156.589 84.9923C157.217 84.9813 157.729 85.2804 157.999 85.7567L158.015 85.7564L157.973 83.3437L158.707 83.3309L158.813 89.4176L158.113 89.4298L158.1 88.6874L158.088 88.6876C157.814 89.1987 157.317 89.5196 156.685 89.5307ZM156.756 85.6349C155.98 85.6485 155.501 86.2898 155.519 87.281C155.536 88.2765 156.036 88.8964 156.813 88.8829C157.568 88.8697 158.063 88.2197 158.045 87.2369C158.028 86.2583 157.511 85.6218 156.756 85.6349ZM164.383 89.3204L163.624 89.3336L163.578 86.7142L161.358 83.2846L162.223 83.2695L163.932 85.9738L163.958 85.9734L165.572 83.211L166.437 83.1959L164.337 86.7009L164.383 89.3204ZM168.272 89.3284C167.058 89.3496 166.224 88.4908 166.2 87.0946C166.175 85.6942 166.978 84.8109 168.193 84.7897C169.404 84.7686 170.237 85.6233 170.262 87.0237C170.286 88.4199 169.483 89.3073 168.272 89.3284ZM168.261 88.6831C169.037 88.6695 169.533 88.0701 169.515 87.0367C169.497 86.0033 168.981 85.4216 168.205 85.4351C167.428 85.4487 166.928 86.0481 166.946 87.0815C166.964 88.115 167.485 88.6966 168.261 88.6831ZM174.698 84.7522L174.774 89.139L174.078 89.1511L174.066 88.4383L174.049 88.4386C173.796 88.9493 173.346 89.2399 172.671 89.2517C171.713 89.2684 171.141 88.6581 171.124 87.6626L171.074 84.8154L171.808 84.8026L171.856 87.5191C171.868 88.2319 172.208 88.6099 172.887 88.5981C173.6 88.5856 174.022 88.0888 174.009 87.3422L173.964 84.765L174.698 84.7522ZM175.857 89.1201L175.781 84.7333L176.472 84.7212L176.485 85.4214L176.501 85.4211C176.738 84.9444 177.201 84.6325 177.88 84.6207C178.842 84.6039 179.409 85.2142 179.427 86.2097L179.476 89.0569L178.742 89.0697L178.695 86.3533C178.683 85.6446 178.343 85.2624 177.668 85.2742C176.976 85.2862 176.533 85.7834 176.546 86.5258L176.591 89.1073L175.857 89.1201ZM182.316 88.3955C183.079 88.3822 183.579 87.7406 183.562 86.7746C183.545 85.8087 183.023 85.1764 182.26 85.1898C181.505 85.203 181.022 85.8358 181.039 86.8187C181.057 87.8015 181.561 88.4087 182.316 88.3955ZM182.381 90.6602C181.415 90.6771 180.642 90.1463 180.506 89.4018L181.261 89.3886C181.412 89.7868 181.851 90.045 182.399 90.0354C183.159 90.0222 183.611 89.5755 183.599 88.9217L183.587 88.2299L183.57 88.2302C183.309 88.7115 182.795 89.0327 182.179 89.0435C181.062 89.063 180.312 88.1942 180.289 86.8318C180.265 85.4567 180.983 84.5665 182.118 84.5467C182.738 84.5359 183.258 84.8306 183.558 85.3359L183.57 85.3357L183.558 84.5975L184.258 84.5853L184.333 88.8835C184.351 89.9296 183.591 90.6391 182.381 90.6602ZM190.812 87.7831C190.108 87.7954 189.52 87.2276 189.507 86.5232C189.495 85.8188 190.063 85.2308 190.767 85.2185C191.472 85.2062 192.06 85.774 192.072 86.4784C192.084 87.1828 191.517 87.7708 190.812 87.7831ZM198.196 88.7302L197.437 88.7434L197.331 82.6567L201.026 82.5922L201.038 83.2755L198.102 83.3268L198.139 85.4189L200.834 85.3719L200.846 86.0468L198.15 86.0938L198.196 88.7302ZM205.543 84.2138L205.619 88.6006L204.923 88.6127L204.911 87.8999L204.894 87.9002C204.641 88.4109 204.19 88.7015 203.516 88.7133C202.558 88.73 201.986 88.1197 201.969 87.1242L201.919 84.277L202.653 84.2642L202.701 86.9807C202.713 87.6935 203.053 88.0715 203.732 88.0597C204.445 88.0472 204.867 87.5504 204.854 86.8038L204.809 84.2266L205.543 84.2138ZM206.74 88.581L206.634 82.4943L207.368 82.4815L207.474 88.5682L206.74 88.581ZM208.633 88.548L208.526 82.4613L209.26 82.4484L209.367 88.5352L208.633 88.548ZM212.53 83.0327L213.264 83.0199L213.282 84.0787L214.134 84.0638L214.145 84.667L213.293 84.6818L213.338 87.2886C213.345 87.6894 213.517 87.8678 213.893 87.8612C213.977 87.8598 214.145 87.8442 214.196 87.8348L214.207 88.4507C214.118 88.4733 213.916 88.4895 213.743 88.4925C212.938 88.5066 212.62 88.183 212.605 87.3394L212.559 84.6947L211.905 84.7061L211.894 84.1029L212.548 84.0915L212.53 83.0327ZM215.163 88.434L215.086 84.0472L215.82 84.0344L215.897 88.4212L215.163 88.434ZM215.441 83.3026C215.192 83.3069 214.981 83.1039 214.977 82.855C214.973 82.6019 215.176 82.3958 215.425 82.3915C215.678 82.3871 215.888 82.5859 215.892 82.839C215.897 83.0879 215.694 83.2982 215.441 83.3026ZM217.018 88.4016L216.941 84.0148L217.633 84.0027L217.645 84.7029L217.662 84.7026C217.861 84.235 218.302 83.9151 218.893 83.9048C219.492 83.8943 219.94 84.1903 220.139 84.7185L220.156 84.7182C220.392 84.1909 220.901 83.8697 221.517 83.859C222.385 83.8438 222.956 84.3992 222.971 85.2682L223.024 88.2968L222.29 88.3096L222.24 85.4497C222.23 84.8507 221.891 84.5022 221.313 84.5123C220.731 84.5225 220.329 84.9599 220.339 85.5546L220.388 88.3428L219.654 88.3556L219.603 85.4156C219.594 84.8883 219.233 84.5486 218.689 84.5581C218.107 84.5683 217.693 85.0312 217.704 85.6386L217.752 88.3888L217.018 88.4016ZM225.783 84.4216C225.095 84.4336 224.623 84.9693 224.59 85.6998L226.973 85.6582C226.943 84.9246 226.474 84.4096 225.783 84.4216ZM226.979 86.9704L227.7 86.9578C227.587 87.7277 226.855 88.3059 225.897 88.3226C224.64 88.3445 223.861 87.4847 223.837 86.1054C223.813 84.7429 224.573 83.8056 225.784 83.7845C226.969 83.7638 227.714 84.6116 227.737 85.9403L227.742 86.2187L224.595 86.2736L224.596 86.3158C224.611 87.1552 225.114 87.6991 225.903 87.6854C226.46 87.6756 226.864 87.3859 226.979 86.9704Z" fill="#414447"/>
<path d="M126.993 104.135L124.981 104.17L124.888 98.8444L126.907 98.8091C127.819 98.7932 128.445 99.314 128.459 100.111C128.468 100.665 128.071 101.189 127.56 101.29L127.56 101.319C128.285 101.399 128.759 101.9 128.772 102.609C128.788 103.546 128.126 104.115 126.993 104.135ZM125.563 99.4196L125.593 101.128L126.589 101.111C127.376 101.097 127.798 100.776 127.788 100.2C127.779 99.6726 127.412 99.3874 126.766 99.3986L125.563 99.4196ZM125.636 103.572L126.883 103.55C127.684 103.536 128.099 103.204 128.088 102.588C128.078 101.971 127.637 101.665 126.788 101.68L125.603 101.701L125.636 103.572ZM130.822 103.588C131.427 103.578 131.885 103.145 131.875 102.592L131.87 102.278L130.845 102.359C130.329 102.401 130.037 102.635 130.044 102.996C130.05 103.362 130.361 103.596 130.822 103.588ZM130.688 104.137C129.924 104.15 129.402 103.698 129.39 103.008C129.379 102.351 129.877 101.929 130.762 101.862L131.861 101.78L131.855 101.459C131.847 100.99 131.532 100.715 131.001 100.724C130.506 100.733 130.2 100.971 130.126 101.348L129.506 101.359C129.538 100.694 130.098 100.175 131.006 100.159C131.906 100.143 132.483 100.621 132.497 101.385L132.543 104.038L131.934 104.049L131.922 103.388L131.908 103.389C131.686 103.832 131.204 104.128 130.688 104.137ZM133.472 104.022L133.405 100.184L134.01 100.173L134.021 100.786L134.036 100.785C134.243 100.368 134.648 100.095 135.242 100.085C136.083 100.07 136.58 100.604 136.595 101.475L136.639 103.967L135.997 103.978L135.955 101.601C135.944 100.981 135.647 100.647 135.056 100.657C134.451 100.667 134.063 101.102 134.075 101.752L134.114 104.011L133.472 104.022ZM139.123 103.388C139.791 103.376 140.228 102.815 140.214 101.97C140.199 101.125 139.742 100.571 139.074 100.583C138.414 100.595 137.991 101.148 138.006 102.008C138.021 102.868 138.463 103.4 139.123 103.388ZM139.18 105.37C138.335 105.384 137.659 104.92 137.54 104.269L138.201 104.257C138.332 104.605 138.717 104.831 139.196 104.823C139.861 104.811 140.256 104.421 140.246 103.848L140.236 103.243L140.221 103.243C139.992 103.665 139.543 103.946 139.004 103.955C138.026 103.972 137.37 103.212 137.349 102.02C137.328 100.817 137.957 100.038 138.95 100.02C139.493 100.011 139.948 100.269 140.21 100.711L140.221 100.711L140.21 100.065L140.823 100.054L140.888 103.815C140.904 104.73 140.239 105.351 139.18 105.37ZM143.098 103.374C143.704 103.364 144.161 102.931 144.152 102.377L144.146 102.064L143.121 102.144C142.605 102.186 142.314 102.42 142.32 102.782C142.326 103.148 142.637 103.382 143.098 103.374ZM142.964 103.923C142.2 103.936 141.679 103.484 141.667 102.794C141.655 102.137 142.154 101.714 143.039 101.647L144.137 101.565L144.132 101.244C144.124 100.776 143.809 100.5 143.277 100.51C142.783 100.518 142.477 100.756 142.402 101.134L141.782 101.145C141.815 100.48 142.374 99.9606 143.282 99.9447C144.183 99.929 144.76 100.406 144.773 101.17L144.819 103.824L144.21 103.835L144.199 103.174L144.184 103.174C143.963 103.617 143.481 103.914 142.964 103.923ZM145.782 103.807L145.689 98.4813L146.331 98.4701L146.424 103.796L145.782 103.807ZM148.996 103.818C147.933 103.836 147.204 103.085 147.183 101.863C147.161 100.638 147.864 99.8648 148.927 99.8462C149.986 99.8277 150.716 100.576 150.737 101.801C150.758 103.023 150.056 103.799 148.996 103.818ZM148.987 103.253C149.666 103.241 150.1 102.717 150.084 101.812C150.068 100.908 149.616 100.399 148.937 100.411C148.258 100.423 147.82 100.947 147.836 101.852C147.852 102.756 148.307 103.265 148.987 103.253ZM151.533 103.707L151.466 99.8683L152.072 99.8578L152.083 100.485L152.098 100.485C152.216 100.058 152.565 99.7827 153.015 99.7748C153.126 99.7729 153.222 99.7897 153.274 99.7962L153.285 100.42C153.233 100.402 153.096 100.386 152.941 100.389C152.443 100.398 152.124 100.761 152.134 101.304L152.176 103.696L151.533 103.707ZM155.276 100.293C154.674 100.303 154.261 100.772 154.232 101.411L156.317 101.375C156.291 100.733 155.881 100.282 155.276 100.293ZM156.322 102.523L156.954 102.512C156.855 103.186 156.214 103.692 155.376 103.706C154.276 103.725 153.595 102.973 153.573 101.766C153.553 100.574 154.218 99.7539 155.277 99.7354C156.314 99.7173 156.966 100.459 156.986 101.622L156.99 101.865L154.237 101.913L154.238 101.95C154.25 102.685 154.691 103.161 155.381 103.149C155.868 103.14 156.222 102.887 156.322 102.523ZM160.118 98.2294L160.178 101.643C160.192 102.448 160.73 103.022 161.653 103.006C162.575 102.99 163.093 102.397 163.079 101.593L163.019 98.1788L163.684 98.1672L163.744 101.626C163.764 102.762 162.985 103.596 161.663 103.619C160.342 103.642 159.534 102.836 159.514 101.699L159.454 98.241L160.118 98.2294ZM164.824 103.475L164.757 99.6363L165.362 99.6258L165.373 100.253L165.388 100.253C165.506 99.8263 165.855 99.5507 166.306 99.5429C166.416 99.5409 166.513 99.5577 166.565 99.5642L166.575 100.188C166.523 100.17 166.387 100.154 166.232 100.157C165.733 100.166 165.415 100.529 165.424 101.072L165.466 103.464L164.824 103.475ZM169.179 103.465C168.618 103.475 168.174 103.21 167.919 102.771L167.904 102.771L167.916 103.421L167.303 103.432L167.21 98.1057L167.852 98.0945L167.889 100.224L167.904 100.224C168.136 99.7804 168.578 99.5032 169.121 99.4937C170.088 99.4768 170.755 100.248 170.776 101.451C170.797 102.658 170.161 103.448 169.179 103.465ZM168.994 100.061C168.345 100.072 167.893 100.649 167.908 101.501C167.923 102.357 168.394 102.914 169.044 102.903C169.723 102.891 170.134 102.341 170.119 101.463C170.104 100.592 169.673 100.049 168.994 100.061ZM172.834 102.855C173.439 102.844 173.896 102.412 173.887 101.858L173.881 101.545L172.856 101.625C172.34 101.667 172.049 101.901 172.055 102.263C172.062 102.629 172.372 102.863 172.834 102.855ZM172.699 103.404C171.935 103.417 171.414 102.965 171.402 102.275C171.391 101.618 171.889 101.195 172.774 101.128L173.873 101.046L173.867 100.725C173.859 100.256 173.544 99.9814 173.012 99.9907C172.518 99.9993 172.212 100.237 172.137 100.615L171.517 100.626C171.55 99.9608 172.109 99.4415 173.017 99.4257C173.918 99.41 174.495 99.8873 174.508 100.651L174.554 103.305L173.945 103.316L173.934 102.655L173.919 102.655C173.698 103.098 173.216 103.395 172.699 103.404ZM175.484 103.289L175.417 99.4503L176.022 99.4397L176.033 100.052L176.047 100.052C176.254 99.635 176.659 99.3621 177.253 99.3518C178.095 99.3371 178.592 99.8711 178.607 100.742L178.65 103.233L178.008 103.245L177.967 100.868C177.956 100.248 177.658 99.9133 177.068 99.9236C176.462 99.9341 176.075 100.369 176.086 101.019L176.126 103.278L175.484 103.289ZM180.041 104.269L179.506 104.278L179.831 102.393L180.514 102.381L180.041 104.269ZM183.674 103.146L183.01 103.157L182.917 97.8315L183.581 97.8199L183.626 100.418L183.663 100.418L185.969 97.7782L186.807 97.7636L184.659 100.16L187.096 103.086L186.247 103.101L184.206 100.641L183.642 101.286L183.674 103.146ZM188.821 102.576C189.426 102.565 189.884 102.133 189.874 101.579L189.869 101.266L188.844 101.346C188.327 101.388 188.036 101.622 188.043 101.984C188.049 102.349 188.359 102.584 188.821 102.576ZM188.686 103.125C187.922 103.138 187.401 102.686 187.389 101.996C187.378 101.339 187.876 100.916 188.761 100.849L189.86 100.767L189.854 100.446C189.846 99.9774 189.531 99.7023 189 99.7116C188.505 99.7202 188.199 99.9582 188.125 100.336L187.504 100.347C187.537 99.6817 188.097 99.1625 189.005 99.1466C189.905 99.1309 190.482 99.6082 190.495 100.372L190.542 103.026L189.933 103.037L189.921 102.376L189.906 102.376C189.685 102.819 189.203 103.116 188.686 103.125ZM191.471 103.01L191.404 99.1712L192.009 99.1607L192.02 99.7881L192.035 99.7878C192.153 99.3612 192.502 99.0856 192.953 99.0777C193.064 99.0758 193.16 99.0926 193.212 99.0991L193.222 99.7228C193.17 99.7053 193.034 99.6892 192.879 99.6919C192.38 99.7006 192.062 100.064 192.071 100.607L192.113 102.998L191.471 103.01ZM193.917 102.967L193.85 99.1285L194.455 99.118L194.466 99.7306L194.481 99.7304C194.687 99.3133 195.092 99.0404 195.687 99.03C196.528 99.0153 197.025 99.5494 197.04 100.42L197.084 102.912L196.441 102.923L196.4 100.546C196.389 99.926 196.092 99.5915 195.501 99.6018C194.896 99.6124 194.508 100.047 194.52 100.697L194.559 102.956L193.917 102.967ZM199.274 102.394C199.879 102.383 200.337 101.95 200.327 101.397L200.322 101.083L199.297 101.164C198.781 101.206 198.489 101.44 198.496 101.802C198.502 102.167 198.813 102.402 199.274 102.394ZM199.139 102.942C198.375 102.956 197.854 102.503 197.842 101.813C197.831 101.156 198.329 100.734 199.214 100.667L200.313 100.585L200.307 100.264C200.299 99.795 199.984 99.5199 199.453 99.5291C198.958 99.5378 198.652 99.7757 198.578 100.154L197.958 100.164C197.99 99.4993 198.55 98.98 199.458 98.9642C200.358 98.9485 200.935 99.4257 200.948 100.19L200.995 102.843L200.386 102.854L200.374 102.193L200.36 102.194C200.138 102.637 199.656 102.933 199.139 102.942ZM202.047 98.0588L202.69 98.0475L202.706 98.9739L203.451 98.9609L203.461 99.4887L202.715 99.5017L202.755 101.783C202.761 102.133 202.911 102.289 203.24 102.284C203.314 102.282 203.461 102.269 203.505 102.261L203.515 102.799C203.437 102.819 203.26 102.833 203.109 102.836C202.404 102.848 202.126 102.565 202.113 101.827L202.073 99.5129L201.501 99.5229L201.491 98.9951L202.064 98.9852L202.047 98.0588ZM205.502 102.285C206.107 102.274 206.565 101.842 206.555 101.288L206.55 100.974L205.525 101.055C205.009 101.097 204.717 101.331 204.724 101.693C204.73 102.058 205.041 102.293 205.502 102.285ZM205.368 102.834C204.604 102.847 204.082 102.395 204.07 101.704C204.059 101.047 204.557 100.625 205.442 100.558L206.541 100.476L206.535 100.155C206.527 99.6862 206.212 99.4112 205.681 99.4204C205.186 99.4291 204.88 99.667 204.806 100.045L204.186 100.056C204.218 99.3906 204.778 98.8713 205.686 98.8555C206.586 98.8398 207.163 99.317 207.177 100.081L207.223 102.735L206.614 102.745L206.602 102.085L206.588 102.085C206.366 102.528 205.884 102.825 205.368 102.834ZM208.79 100.573L210.458 98.8386L211.237 98.825L209.601 100.511L211.356 102.663L210.61 102.676L209.154 100.914L208.802 101.26L208.827 102.707L208.185 102.718L208.092 97.3921L208.734 97.3808L208.79 100.573ZM213.192 102.151C213.797 102.14 214.255 101.707 214.245 101.154L214.239 100.84L213.214 100.921C212.698 100.963 212.407 101.197 212.413 101.559C212.42 101.924 212.73 102.159 213.192 102.151ZM213.057 102.699C212.293 102.713 211.772 102.26 211.76 101.57C211.749 100.913 212.247 100.491 213.132 100.424L214.231 100.342L214.225 100.021C214.217 99.552 213.902 99.2769 213.37 99.2862C212.876 99.2948 212.57 99.5328 212.495 99.9107L211.875 99.9215C211.908 99.2564 212.467 98.7371 213.375 98.7212C214.276 98.7055 214.853 99.1828 214.866 99.9468L214.913 102.601L214.304 102.611L214.292 101.95L214.277 101.951C214.056 102.394 213.574 102.69 213.057 102.699ZM216.299 103.636L215.764 103.645L216.089 101.76L216.772 101.748L216.299 103.636ZM219.933 102.513L219.268 102.524L219.175 97.1986L219.84 97.187L219.933 102.513ZM220.98 102.495L220.913 98.6561L221.518 98.6456L221.529 99.2583L221.544 99.258C221.75 98.8409 222.155 98.568 222.75 98.5576C223.591 98.5429 224.088 99.077 224.103 99.948L224.147 102.439L223.504 102.451L223.463 100.074C223.452 99.4536 223.155 99.1191 222.564 99.1294C221.959 99.14 221.571 99.575 221.583 100.225L221.622 102.483L220.98 102.495ZM226.535 102.464C225.557 102.481 224.879 101.71 224.858 100.507C224.837 99.3039 225.484 98.5099 226.451 98.493C227.001 98.4834 227.448 98.7451 227.684 99.1619L227.699 99.1616L227.662 97.0505L228.304 97.0393L228.397 102.365L227.785 102.376L227.773 101.726L227.762 101.726C227.523 102.174 227.088 102.454 226.535 102.464ZM226.597 99.0553C225.918 99.0672 225.499 99.6283 225.515 100.496C225.53 101.367 225.968 101.909 226.647 101.897C227.307 101.886 227.74 101.317 227.725 100.457C227.71 99.6008 227.258 99.0438 226.597 99.0553ZM229.411 102.347L229.344 98.509L229.987 98.4978L230.054 102.336L229.411 102.347ZM229.654 97.8575C229.436 97.8613 229.252 97.6836 229.249 97.4658C229.245 97.2444 229.422 97.064 229.64 97.0602C229.862 97.0564 230.046 97.2304 230.05 97.4518C230.053 97.6696 229.876 97.8536 229.654 97.8575ZM232.292 101.817C232.897 101.807 233.355 101.374 233.345 100.82L233.34 100.507L232.315 100.587C231.799 100.63 231.507 100.864 231.514 101.225C231.52 101.591 231.831 101.825 232.292 101.817ZM232.157 102.366C231.393 102.379 230.872 101.927 230.86 101.237C230.849 100.58 231.347 100.158 232.232 100.09L233.331 100.008L233.325 99.6874C233.317 99.2186 233.002 98.9435 232.471 98.9528C231.976 98.9614 231.67 99.1994 231.596 99.5773L230.976 99.5881C231.008 98.923 231.568 98.4037 232.476 98.3879C233.376 98.3721 233.953 98.8494 233.966 99.6134L234.013 102.267L233.404 102.278L233.392 101.617L233.377 101.617C233.156 102.061 232.674 102.357 232.157 102.366Z" fill="#68696B"/>
</g>
</g>
<defs>
<filter id="filter0_d_3_64" x="16.2" y="-113.8" width="593.795" height="301.117" filterUnits="userSpaceOnUse" color-interpolation-filters="sRGB">
<feFlood flood-opacity="0" result="BackgroundImageFix"/>
<feColorMatrix in="SourceAlpha" type="matrix" values="0 0 0 0 0 0 0 0 0 0 0 0 0 0 0 0 0 0 127 0" result="hardAlpha"/>
<feOffset dy="14"/>
<feGaussianBlur stdDeviation="23.4"/>
<feComposite in2="hardAlpha" operator="out"/>
<feColorMatrix type="matrix" values="0 0 0 0 0.101961 0 0 0 0 0.101961 0 0 0 0 0.101961 0 0 0 0.1 0"/>
<feBlend mode="normal" in2="BackgroundImageFix" result="effect1_dropShadow_3_64"/>
<feBlend mode="normal" in="SourceGraphic" in2="effect1_dropShadow_3_64" result="shape"/>
</filter>
<clipPath id="clip0_3_64">
<rect width="244" height="161" fill="white"/>
</clipPath>
</defs>
</svg>
