<?xml version="1.0" encoding="UTF-8"?>
<svg version="1.1" xmlns="http://www.w3.org/2000/svg" width="678" height="410">
<path d="M0 0 C223.74 0 447.48 0 678 0 C678 135.3 678 270.6 678 410 C454.26 410 230.52 410 0 410 C0 274.7 0 139.4 0 0 Z " fill="#FBFBFB" transform="translate(0,0)"/>
<path d="M0 0 C9.2018831 5.79625148 15.15229343 13.4557892 18 24 C18.92750838 34.91440091 18.89284541 44.72875971 11.90625 53.68359375 C4.50086852 62.18744015 -2.72884806 68.09642878 -14.25390625 69.35546875 C-27.04836841 69.67268682 -36.43406289 66.04638778 -45.8203125 57.3046875 C-51.00987792 51.69787059 -54.37604864 44.64340411 -55 37 C-55.06316406 36.28457031 -55.12632812 35.56914062 -55.19140625 34.83203125 C-55.6908209 24.698747 -52.48054415 15.66735364 -45.90625 7.96484375 C-33.73530964 -4.58020338 -15.78823078 -8.40456195 0 0 Z " fill="#F7F7F7" transform="translate(260,177)"/>
<path d="M0 0 C90.75 0 181.5 0 275 0 C270.61049544 14.26588981 266.37828256 22.09321152 253.796875 29.25390625 C244.8645453 33.49824172 234.45830766 33.4613346 225.125 30.4375 C215.9489499 26.55165412 207.95273741 19.87853601 203.96875 10.59765625 C202.79678358 7.24995588 202 4.56602444 202 1 C135.34 1 68.68 1 0 1 C0 0.67 0 0.34 0 0 Z " fill="#F7F7F7" transform="translate(0,0)"/>
<path d="M0 0 C23.41726347 -0.04667687 46.83451998 -0.08196766 70.25182056 -0.10362434 C81.12435776 -0.11394624 91.99686609 -0.12802398 102.86938477 -0.15087891 C112.34352423 -0.17078487 121.81764279 -0.18370979 131.29180259 -0.18817699 C136.31040928 -0.19078911 141.32895616 -0.19694763 146.34754372 -0.21146011 C151.06785721 -0.22499992 155.78808606 -0.22922996 160.50841713 -0.22621536 C162.2438859 -0.22676714 163.9793574 -0.23076598 165.71480942 -0.23841095 C168.07855821 -0.24831592 170.44198458 -0.24598529 172.80574036 -0.24050903 C173.84318861 -0.24924756 173.84318861 -0.24924756 174.90159541 -0.25816262 C178.50777389 -0.23547619 179.90357513 -0.06428325 183 2 C138.78 1.67 94.56 1.34 49 1 C49 1.66 49 2.32 49 3 C48.01 3 47.02 3 46 3 C46 2.34 46 1.68 46 1 C45.01 1 44.02 1 43 1 C43.185625 1.825 43.37125 2.65 43.5625 3.5 C44.0774084 7.61926719 43.63492928 10.90823355 43 15 C43.66 15 44.32 15 45 15 C45 15.66 45 16.32 45 17 C43.68 17 42.36 17 41 17 C38.51936219 6.62642369 38.51936219 6.62642369 40 1 C37.36 1 34.72 1 32 1 C32 6.28 32 11.56 32 17 C31.34 17 30.68 17 30 17 C29.67 11.72 29.34 6.44 29 1 C28.34 1 27.68 1 27 1 C27 6.28 27 11.56 27 17 C26.34 17 25.68 17 25 17 C25 11.72 25 6.44 25 1 C20.38 1 15.76 1 11 1 C11 1.99 11 2.98 11 4 C8.36 4 5.72 4 3 4 C3 5.65 3 7.3 3 9 C5.31 9 7.62 9 10 9 C10 9.66 10 10.32 10 11 C7.69 11 5.38 11 3 11 C3 13.31 3 15.62 3 18 C2.34 18 1.68 18 1 18 C-0.59412284 14.81175432 -0.10174735 11.37103338 -0.0625 7.875 C-0.05798828 7.12089844 -0.05347656 6.36679688 -0.04882812 5.58984375 C-0.03703499 3.72652873 -0.01909942 1.86325445 0 0 Z " fill="#ECECEC" transform="translate(485,0)"/>
<path d="M0 0 C28.54451577 -0.02281787 57.0890304 -0.04051241 85.63355351 -0.05106533 C89.00431889 -0.05231602 92.37508425 -0.05361034 95.74584961 -0.05493164 C96.75242784 -0.05532511 96.75242784 -0.05532511 97.77934097 -0.05572652 C108.64161254 -0.06007655 119.50387881 -0.06796044 130.36614723 -0.0771528 C141.51375264 -0.08650787 152.66135624 -0.0919847 163.80896562 -0.09408849 C170.06958469 -0.09539281 176.33019174 -0.09846109 182.59080696 -0.10573006 C188.48318293 -0.11251607 194.37554194 -0.11461168 200.26792145 -0.11310768 C202.43064656 -0.11338284 204.59337224 -0.11537266 206.75609398 -0.11920547 C209.70953291 -0.12418299 212.66290784 -0.12298327 215.61634827 -0.12025452 C216.47142174 -0.12316736 217.32649522 -0.1260802 218.20748001 -0.12908131 C222.91070271 -0.11734215 227.3608022 0.21581807 232 1 C232 2.65 232 4.3 232 6 C229.69 6 227.38 6 225 6 C225 6.99 225 7.98 225 9 C228.3 9 231.6 9 235 9 C235 10.32 235 11.64 235 13 C229.72 13 224.44 13 219 13 C218 8 218 8 218 1 C213.38 1 208.76 1 204 1 C204 2.98 204 4.96 204 7 C202 4 202 4 202 1 C135.34 1 68.68 1 0 1 C0 0.67 0 0.34 0 0 Z " fill="#EDEDED" transform="translate(0,0)"/>
<path d="M0 0 C12.87 0 25.74 0 39 0 C34.61049544 14.26588981 30.37828256 22.09321152 17.796875 29.25390625 C8.8645453 33.49824172 -1.54169234 33.4613346 -10.875 30.4375 C-19.22684806 26.90784993 -25.18772198 21.60650397 -30 14 C-29.01 14 -28.02 14 -27 14 C-25.67578125 15.57421875 -25.67578125 15.57421875 -24.3125 17.6875 C-18.70388027 25.46808522 -11.2364412 28.24779277 -2 30 C7.23161398 31.25729071 16.5801014 28.12720771 24.00390625 22.71484375 C30.86981275 16.81634482 33.81755704 9.29793715 37 1 C33.06191772 1.1097257 29.12480411 1.24039131 25.1875 1.375 C24.06794922 1.4059375 22.94839844 1.436875 21.79492188 1.46875 C20.18520508 1.52675781 20.18520508 1.52675781 18.54296875 1.5859375 C17.0583313 1.63306885 17.0583313 1.63306885 15.54370117 1.68115234 C12.75924906 1.83773433 12.75924906 1.83773433 10 4 C9.42006301 6.19454681 9.42006301 6.19454681 9.3125 8.625 C9.24675781 9.44226562 9.18101562 10.25953125 9.11328125 11.1015625 C9.07589844 11.72804688 9.03851563 12.35453125 9 13 C7.02 13 5.04 13 3 13 C2.95101562 12.39671875 2.90203125 11.7934375 2.8515625 11.171875 C2.77679688 10.37265625 2.70203125 9.5734375 2.625 8.75 C2.52058594 7.56664062 2.52058594 7.56664062 2.4140625 6.359375 C2.04970652 3.62295367 2.04970652 3.62295367 0 0 Z " fill="#EEEEEE" transform="translate(236,0)"/>
<path d="M0 0 C3.63 0 7.26 0 11 0 C11.66 1.32 12.32 2.64 13 4 C10.36 4 7.72 4 5 4 C5 4.99 5 5.98 5 7 C7.64 7 10.28 7 13 7 C13 8.65 13 10.3 13 12 C10.69 12 8.38 12 6 12 C6 12.66 6 13.32 6 14 C9.3 14 12.6 14 16 14 C16 15.65 16 17.3 16 19 C10.72 19 5.44 19 0 19 C0 12.73 0 6.46 0 0 Z " fill="#252830" transform="translate(223,208)"/>
<path d="M0 0 C2.31 0.33 4.62 0.66 7 1 C7 1.66 7 2.32 7 3 C7.66 3 8.32 3 9 3 C9.66 2.01 10.32 1.02 11 0 C14 -0.3125 14 -0.3125 17 0 C17.66 0.66 18.32 1.32 19 2 C18.82194873 5.38297413 18.21162756 6.76272061 15.9375 9.3125 C15.298125 9.869375 14.65875 10.42625 14 11 C16.475 11.495 16.475 11.495 19 12 C19 12.66 19 13.32 19 14 C12.4 14 5.8 14 -1 14 C1 9 1 9 2.625 7.4375 C4.4608151 5.8497769 4.4608151 5.8497769 4 2 C3.01 2 2.02 2 1 2 C0.67 2.66 0.34 3.32 0 4 C-0.66 4 -1.32 4 -2 4 C-1.34 2.68 -0.68 1.36 0 0 Z " fill="#F6F7F7" transform="translate(357,80)"/>
<path d="M0 0 C4.2358357 -0.02469321 8.47163342 -0.04285671 12.70751953 -0.05493164 C14.1489332 -0.05996474 15.59034176 -0.06679173 17.03173828 -0.07543945 C19.10190085 -0.08754983 21.17199601 -0.09323847 23.2421875 -0.09765625 C24.4885498 -0.10289307 25.73491211 -0.10812988 27.01904297 -0.11352539 C30 0 30 0 32 1 C32 6.28 32 11.56 32 17 C31.34 17 30.68 17 30 17 C29.67 11.72 29.34 6.44 29 1 C28.34 1 27.68 1 27 1 C27 6.28 27 11.56 27 17 C26.34 17 25.68 17 25 17 C25 11.72 25 6.44 25 1 C20.38 1 15.76 1 11 1 C11 1.99 11 2.98 11 4 C8.36 4 5.72 4 3 4 C3 5.65 3 7.3 3 9 C5.31 9 7.62 9 10 9 C10 9.66 10 10.32 10 11 C7.69 11 5.38 11 3 11 C3 13.31 3 15.62 3 18 C2.34 18 1.68 18 1 18 C-0.59412284 14.81175432 -0.10174735 11.37103338 -0.0625 7.875 C-0.05798828 7.12089844 -0.05347656 6.36679688 -0.04882812 5.58984375 C-0.03703499 3.72652873 -0.01909942 1.86325445 0 0 Z " fill="#98999B" transform="translate(485,0)"/>
<path d="M0 0 C2.75 -0.3125 2.75 -0.3125 6 0 C8.375 2.5 8.375 2.5 10 5 C10.37125 4.175 10.7425 3.35 11.125 2.5 C11.74375 1.675 12.3625 0.85 13 0 C16.1875 -0.3125 16.1875 -0.3125 19 0 C17.96105858 2.71723142 16.87753671 5.21553539 15.4375 7.75 C13.63453584 11.82626679 13.28427402 15.5888514 13 20 C11.02 20 9.04 20 7 20 C6.938125 18.0509375 6.938125 18.0509375 6.875 16.0625 C6.35452132 11.00184579 4.28454194 7.85961242 1.27734375 3.84765625 C0 2 0 2 0 0 Z " fill="#1F232B" transform="translate(236,207)"/>
<path d="M0 0 C7.11595949 4.48233152 12.87557571 10.04049378 16 18 C15.505 19.485 15.505 19.485 15 21 C14.64808594 20.35933594 14.29617188 19.71867187 13.93359375 19.05859375 C8.18826729 8.9930218 2.30855481 2.55955805 -9 -1 C-19.23660531 -3.17718844 -28.48884848 -1.68997792 -37.60546875 3.4765625 C-45.06758607 8.751292 -49.60653917 16.24525217 -52 25 C-52.35101687 27.78781109 -52.50321395 30.5688464 -52.625 33.375 C-52.66367188 34.11105469 -52.70234375 34.84710938 -52.7421875 35.60546875 C-52.83557998 37.40327406 -52.9188371 39.20160108 -53 41 C-56.12397886 35.50179721 -55.66257695 30.05102798 -54.34765625 23.99609375 C-51.25692384 13.60964105 -45.44082719 5.4876893 -36 0 C-24.52390294 -5.84734469 -11.43544614 -6.0874405 0 0 Z " fill="#EFEFEF" transform="translate(260,177)"/>
<path d="M0 0 C4.29 0.33 8.58 0.66 13 1 C13 2.65 13 4.3 13 6 C10.69 6 8.38 6 6 6 C6 6.99 6 7.98 6 9 C9.3 9 12.6 9 16 9 C16 10.32 16 11.64 16 13 C10.72 13 5.44 13 0 13 C0 8.71 0 4.42 0 0 Z " fill="#1E2229" transform="translate(219,0)"/>
<path d="M0 0 C0 2.31 0 4.62 0 7 C-4.31148419 7.81795169 -8.62435285 8.62836697 -12.9375 9.4375 C-14.14986328 9.66759766 -15.36222656 9.89769531 -16.61132812 10.13476562 C-23.06811814 11.34213286 -29.45926576 12.38614468 -36 13 C-31.27313606 9.84875737 -25.89451438 8.1525777 -20.60327148 6.14941406 C-18.57042306 5.37800657 -16.54203597 4.59561038 -14.51367188 3.8125 C-13.2190077 3.31963504 -11.92409379 2.82742548 -10.62890625 2.3359375 C-9.45400635 1.88782715 -8.27910645 1.4397168 -7.06860352 0.97802734 C-4 0 -4 0 0 0 Z " fill="#FDE611" transform="translate(261,188)"/>
<path d="M0 0 C2.5 0.25 2.5 0.25 4.5 2.25 C5.16 1.59 5.82 0.93 6.5 0.25 C9.625 0.125 9.625 0.125 12.5 0.25 C12.83 0.91 13.16 1.57 13.5 2.25 C11.85 2.25 10.2 2.25 8.5 2.25 C9.139375 2.476875 9.77875 2.70375 10.4375 2.9375 C12.5 4.25 12.5 4.25 13.25 6.875 C13.37375 8.050625 13.37375 8.050625 13.5 9.25 C10.6875 9.875 10.6875 9.875 7.5 10.25 C6.51 9.59 5.52 8.93 4.5 8.25 C3.84 8.91 3.18 9.57 2.5 10.25 C0 10.5 0 10.5 -2.5 10.25 C-4.5 8.25 -4.5 8.25 -4.75 5.25 C-4.43608753 1.48305032 -3.83691092 0.38369109 0 0 Z " fill="#E6E6E7" transform="translate(417.5,82.75)"/>
<path d="M0 0 C0.05402274 2.10388569 0.09280256 4.20816714 0.125 6.3125 C0.14820313 7.48425781 0.17140625 8.65601563 0.1953125 9.86328125 C0 13 0 13 -2 16 C-5.625 16.1875 -5.625 16.1875 -9 16 C-9.33 15.01 -9.66 14.02 -10 13 C-7.03 13.495 -7.03 13.495 -4 14 C-3.67 13.34 -3.34 12.68 -3 12 C-4.423125 12.0928125 -4.423125 12.0928125 -5.875 12.1875 C-6.90625 12.125625 -7.9375 12.06375 -9 12 C-11.30163882 8.54754176 -11.34490322 7.05261287 -11 3 C-7.97062848 -0.02937152 -4.18236037 0 0 0 Z " fill="#97989A" transform="translate(456,220)"/>
<path d="M0 0 C0.33 0 0.66 0 1 0 C1.33 2.31 1.66 4.62 2 7 C2.99 6.01 3.98 5.02 5 4 C5.66 4.33 6.32 4.66 7 5 C6.67 5.66 6.34 6.32 6 7 C6.721875 6.505 7.44375 6.01 8.1875 5.5 C11.15792654 3.91577251 12.6987658 3.6331962 16 4 C17 5 17 5 17.09765625 7.06640625 C17.08605469 7.89011719 17.07445312 8.71382813 17.0625 9.5625 C17.05347656 10.38878906 17.04445313 11.21507812 17.03515625 12.06640625 C17.02355469 12.70449219 17.01195312 13.34257812 17 14 C7.00437637 14.63019694 7.00437637 14.63019694 2.8125 12 C2.214375 11.34 1.61625 10.68 1 10 C0.67 11.32 0.34 12.64 0 14 C0 9.38 0 4.76 0 0 Z " fill="#F5F5F5" transform="translate(518,254)"/>
<path d="M0 0 C1.23556641 0.01740234 1.23556641 0.01740234 2.49609375 0.03515625 C3.32238281 0.04417969 4.14867187 0.05320312 5 0.0625 C5.63808594 0.07410156 6.27617187 0.08570313 6.93359375 0.09765625 C7.01461435 2.2011912 7.07279282 4.30561577 7.12109375 6.41015625 C7.15589844 7.58191406 7.19070313 8.75367188 7.2265625 9.9609375 C6.93359375 13.09765625 6.93359375 13.09765625 5.58984375 15.00390625 C3.31961863 16.50311152 1.59291023 16.31327651 -1.06640625 16.09765625 C-1.72640625 14.77765625 -2.38640625 13.45765625 -3.06640625 12.09765625 C-0.75640625 12.42765625 1.55359375 12.75765625 3.93359375 13.09765625 C3.93359375 12.43765625 3.93359375 11.77765625 3.93359375 11.09765625 C2.51046875 11.19046875 2.51046875 11.19046875 1.05859375 11.28515625 C0.02734375 11.22328125 -1.00390625 11.16140625 -2.06640625 11.09765625 C-4.06640625 8.09765625 -4.06640625 8.09765625 -3.75390625 4.47265625 C-2.87044287 0.1356542 -2.87044287 0.1356542 0 0 Z " fill="#5E6163" transform="translate(445.06640625,6.90234375)"/>
<path d="M0 0 C6.0546875 -0.1953125 6.0546875 -0.1953125 8 0 C10 2 10 2 10.265625 4.3125 C10.26046875 5.199375 10.2553125 6.08625 10.25 7 C10.25515625 7.886875 10.2603125 8.77375 10.265625 9.6875 C10 12 10 12 8 14 C5.31160615 14.26991906 2.70858064 14.08737357 0 14 C0 9.38 0 4.76 0 0 Z " fill="#858688" transform="translate(300,258)"/>
<path d="M0 0 C0.05384521 2.29141286 0.09272087 4.58318188 0.125 6.875 C0.14820313 8.15117187 0.17140625 9.42734375 0.1953125 10.7421875 C0 14 0 14 -2 16 C-5.625 16.125 -5.625 16.125 -9 16 C-9 15.34 -9 14.68 -9 14 C-7.02 14 -5.04 14 -3 14 C-3 13.34 -3 12.68 -3 12 C-3.969375 11.87625 -4.93875 11.7525 -5.9375 11.625 C-6.948125 11.41875 -7.95875 11.2125 -9 11 C-10.39935013 8.20129973 -10.25265405 6.09501208 -10 3 C-7.69525388 -1.06719904 -4.23357365 -0.08809749 0 0 Z " fill="#262626" transform="translate(472,180)"/>
<path d="M0 0 C0.33 0.66 0.66 1.32 1 2 C3.47608101 2.74524194 3.47608101 2.74524194 6 3 C6.33 2.67 6.66 2.34 7 2 C9.5 1.875 9.5 1.875 12 2 C13 3 13 3 13.09765625 5.06640625 C13.08605469 5.89011719 13.07445312 6.71382813 13.0625 7.5625 C13.05347656 8.38878906 13.04445313 9.21507812 13.03515625 10.06640625 C13.02355469 10.70449219 13.01195312 11.34257812 13 12 C11.02090602 12.02686553 9.04171029 12.04633375 7.0625 12.0625 C5.96035156 12.07410156 4.85820312 12.08570313 3.72265625 12.09765625 C1 12 1 12 0 11 C-0.04092937 8.66702567 -0.04241723 6.33294775 0 4 C-0.66 4 -1.32 4 -2 4 C-2 3.34 -2 2.68 -2 2 C-1.34 2 -0.68 2 0 2 C0 1.34 0 0.68 0 0 Z " fill="#F8F9F9" transform="translate(502,256)"/>
<path d="M0 0 C2.31 0 4.62 0 7 0 C9 2 9 2 9.0625 4.3125 C9.041875 5.199375 9.02125 6.08625 9 7 C9.29749946 8.67343448 9.62127066 10.34305915 10 12 C7 14 7 14 0 14 C0 9.38 0 4.76 0 0 Z " fill="#979899" transform="translate(297,44)"/>
<path d="M0 0 C1.99825961 2.99738941 2.27550398 3.63347508 2.25 7 C2.25515625 7.680625 2.2603125 8.36125 2.265625 9.0625 C2 11 2 11 0 14 C-2.76589638 14.42552252 -4.35051898 14.35833436 -6.8125 13 C-8.71020228 9.80386985 -8.55003751 6.616685 -8 3 C-6.00280668 -0.36369402 -3.74717861 -0.57648902 0 0 Z " fill="#5A5C5F" transform="translate(351,80)"/>
<path d="M0 0 C0.66 0 1.32 0 2 0 C2 5.28 2 10.56 2 16 C-4.8359375 16.29296875 -4.8359375 16.29296875 -7 16 C-9.15502531 12.76746204 -9.46856135 11.74849077 -9 8 C-7.8125 6.1875 -7.8125 6.1875 -6 5 C-3.3125 4.8125 -3.3125 4.8125 -1 5 C-0.67 3.35 -0.34 1.7 0 0 Z " fill="#585B5D" transform="translate(387,217)"/>
<path d="M0 0 C0.66 0 1.32 0 2 0 C2 5.28 2 10.56 2 16 C-0.64 16 -3.28 16 -6 16 C-8.44897847 12.32653229 -8.31537716 10.33643601 -8 6 C-6 4 -6 4 -3.375 3.875 C-2.59125 3.91625 -1.8075 3.9575 -1 4 C-0.67 2.68 -0.34 1.36 0 0 Z " fill="#585A5D" transform="translate(383,4)"/>
<path d="M0 0 C2.4375 0.8125 2.4375 0.8125 4.4375 2.8125 C4.78240322 6.86511287 4.73913882 8.36004176 2.4375 11.8125 C1.1175 11.8125 -0.2025 11.8125 -1.5625 11.8125 C-1.5625 13.1325 -1.5625 14.4525 -1.5625 15.8125 C-2.8825 15.8125 -4.2025 15.8125 -5.5625 15.8125 C-5.376875 15.008125 -5.19125 14.20375 -5 13.375 C-4.855625 12.529375 -4.71125 11.68375 -4.5625 10.8125 C-4.8925 10.4825 -5.2225 10.1525 -5.5625 9.8125 C-6.0235052 3.58892981 -6.0235052 3.58892981 -4.375 0.8125 C-2.5625 -0.1875 -2.5625 -0.1875 0 0 Z " fill="#626567" transform="translate(410.5625,7.1875)"/>
<path d="M0 0 C3.3 0 6.6 0 10 0 C10 0.99 10 1.98 10 3 C7.69 3 5.38 3 3 3 C3 3.99 3 4.98 3 6 C4.98 6 6.96 6 9 6 C9 6.99 9 7.98 9 9 C7.02 9 5.04 9 3 9 C3 10.32 3 11.64 3 13 C5.64 13 8.28 13 11 13 C11 13.99 11 14.98 11 16 C7.37 16 3.74 16 0 16 C0 10.72 0 5.44 0 0 Z " fill="#333333" transform="translate(436,177)"/>
<path d="M0 0 C0.66 0 1.32 0 2 0 C2 0.66 2 1.32 2 2 C3.32 2 4.64 2 6 2 C6.99 2 7.98 2 9 2 C9 5.96 9 9.92 9 14 C7.68 13.67 6.36 13.34 5 13 C3.66018514 13.3062434 2.32488113 13.63451555 1 14 C0 13 0 13 -0.09765625 10.93359375 C-0.08025391 9.69802734 -0.08025391 9.69802734 -0.0625 8.4375 C-0.05347656 7.61121094 -0.04445313 6.78492188 -0.03515625 5.93359375 C-0.02355469 5.29550781 -0.01195312 4.65742188 0 4 C-0.66 4 -1.32 4 -2 4 C-2 3.34 -2 2.68 -2 2 C-1.34 2 -0.68 2 0 2 C0 1.34 0 0.68 0 0 Z " fill="#BEBFC0" transform="translate(529,217)"/>
<path d="M0 0 C2.9375 0.875 2.9375 0.875 4.9375 3.875 C4.49305556 9.31944444 4.49305556 9.31944444 1.9375 11.875 C-0.87234248 12.23523622 -2.44491919 12.25832602 -4.875 10.75 C-6.61448782 8.00344028 -6.46019128 6.05653026 -6.0625 2.875 C-4.31924047 -0.1272803 -3.48919154 -0.14241598 0 0 Z " fill="#5C5E61" transform="translate(414.0625,221.125)"/>
<path d="M0 0 C1.134375 0.020625 2.26875 0.04125 3.4375 0.0625 C3.46435938 2.20826637 3.48383088 4.35412645 3.5 6.5 C3.51160156 7.69496094 3.52320313 8.88992187 3.53515625 10.12109375 C3.4375 13.0625 3.4375 13.0625 2.4375 14.0625 C0.43791636 14.10330783 -1.56295254 14.10504356 -3.5625 14.0625 C-3.8925 13.0725 -4.2225 12.0825 -4.5625 11.0625 C-1.5925 11.5575 -1.5925 11.5575 1.4375 12.0625 C1.4375 11.4025 1.4375 10.7425 1.4375 10.0625 C0.65375 10.10375 -0.13 10.145 -0.9375 10.1875 C-3.5625 10.0625 -3.5625 10.0625 -5.5625 8.0625 C-4.86274661 0.08531134 -4.86274661 0.08531134 0 0 Z " fill="#7D7E80" transform="translate(334.5625,46.9375)"/>
<path d="M0 0 C1.670625 0.061875 1.670625 0.061875 3.375 0.125 C3.42889087 2.08303507 3.46774217 4.04148909 3.5 6 C3.52320313 7.09054687 3.54640625 8.18109375 3.5703125 9.3046875 C3.375 12.125 3.375 12.125 1.375 14.125 C-1.75 13.75 -1.75 13.75 -4.625 13.125 C-4.625 12.465 -4.625 11.805 -4.625 11.125 C-1.655 11.62 -1.655 11.62 1.375 12.125 C1.375 11.465 1.375 10.805 1.375 10.125 C0.59125 10.16625 -0.1925 10.2075 -1 10.25 C-3.625 10.125 -3.625 10.125 -5.625 8.125 C-5.875 5.125 -5.875 5.125 -5.625 2.125 C-3.625 0.125 -3.625 0.125 0 0 Z " fill="#7F8082" transform="translate(338.625,260.875)"/>
<path d="M0 0 C2 2 2 2 2.125 4.625 C2.08375 5.40875 2.0425 6.1925 2 7 C-0.31 7.33 -2.62 7.66 -5 8 C-2.03 8.495 -2.03 8.495 1 9 C0.67 9.99 0.34 10.98 0 12 C-3.375 11.6875 -3.375 11.6875 -7 11 C-9.15502531 7.76746204 -9.46856135 6.74849077 -9 3 C-6.73157826 -0.65467947 -4.03373275 -0.4291205 0 0 Z " fill="#181818" transform="translate(516,180)"/>
<path d="M0 0 C3.96 0 7.92 0 12 0 C11.34 1.32 10.68 2.64 10 4 C9.55188863 6.35564596 9.55188863 6.35564596 9.375 8.75 C9.30023438 9.54921875 9.22546875 10.3484375 9.1484375 11.171875 C9.09945312 11.77515625 9.05046875 12.3784375 9 13 C7.02 13 5.04 13 3 13 C2.92652344 12.09507813 2.92652344 12.09507813 2.8515625 11.171875 C2.77679688 10.37265625 2.70203125 9.5734375 2.625 8.75 C2.55539063 7.96109375 2.48578125 7.1721875 2.4140625 6.359375 C2.04970652 3.62295367 2.04970652 3.62295367 0 0 Z " fill="#181C24" transform="translate(236,0)"/>
<path d="M0 0 C2.375 -0.125 2.375 -0.125 5 0 C7 2 7 2 7.1953125 4.6015625 C7.17210937 5.59929687 7.14890625 6.59703125 7.125 7.625 C7.10695313 8.62789062 7.08890625 9.63078125 7.0703125 10.6640625 C7.03550781 11.82035156 7.03550781 11.82035156 7 13 C3.625 13.125 3.625 13.125 0 13 C-0.66 12.34 -1.32 11.68 -2 11 C-1.625 8.375 -1.625 8.375 -1 6 C0.65 5.67 2.3 5.34 4 5 C4 4.34 4 3.68 4 3 C2.35 3 0.7 3 -1 3 C-0.67 2.01 -0.34 1.02 0 0 Z " fill="#3C3C3C" transform="translate(397,181)"/>
<path d="M0 0 C0.99 0 1.98 0 3 0 C3.33 2.64 3.66 5.28 4 8 C4.99 7.01 5.98 6.02 7 5 C7.99 5.33 8.98 5.66 10 6 C8.515 8.475 8.515 8.475 7 11 C8.98 13.97 8.98 13.97 11 17 C9.68 17 8.36 17 7 17 C5.25 15 5.25 15 4 13 C3.67 14.32 3.34 15.64 3 17 C2.01 17 1.02 17 0 17 C0 11.39 0 5.78 0 0 Z " fill="#1E1E1E" transform="translate(418,176)"/>
<path d="M0 0 C0.66 0 1.32 0 2 0 C2 1.32 2 2.64 2 4 C2.78375 3.95875 3.5675 3.9175 4.375 3.875 C7 4 7 4 9 6 C9.25 9 9.25 9 9 12 C8.34 12.66 7.68 13.32 7 14 C4.69 14 2.38 14 0 14 C0 9.38 0 4.76 0 0 Z " fill="#808182" transform="translate(411,256)"/>
<path d="M0 0 C0.66 0 1.32 0 2 0 C2 4.62 2 9.24 2 14 C-4.15234375 14.09765625 -4.15234375 14.09765625 -6 14 C-7 13 -7 13 -7.1875 9.5625 C-7 6 -7 6 -5 4 C-2.375 4.375 -2.375 4.375 0 5 C0 3.35 0 1.7 0 0 Z " fill="#808183" transform="translate(565,39)"/>
<path d="M0 0 C0.66 0 1.32 0 2 0 C2.33 1.32 2.66 2.64 3 4 C3.804375 4.144375 4.60875 4.28875 5.4375 4.4375 C8 5 8 5 9 6 C9.1875 8.9375 9.1875 8.9375 9 12 C8.34 12.66 7.68 13.32 7 14 C4.69 14 2.38 14 0 14 C0 9.38 0 4.76 0 0 Z " fill="#7D7E80" transform="translate(407,42)"/>
<path d="M0 0 C3 0.25 3 0.25 5 2.25 C5.125 4.875 5.125 4.875 5 7.25 C2.69 7.58 0.38 7.91 -2 8.25 C-0.35 8.58 1.3 8.91 3 9.25 C3.33 10.24 3.66 11.23 4 12.25 C0.625 12.375 0.625 12.375 -3 12.25 C-5 10.25 -5 10.25 -5.265625 8.375 C-5.26046875 7.67375 -5.2553125 6.9725 -5.25 6.25 C-5.25515625 5.54875 -5.2603125 4.8475 -5.265625 4.125 C-4.77431879 0.65695617 -3.28862917 0.27405243 0 0 Z " fill="#171717" transform="translate(500,179.75)"/>
<path d="M0 0 C3.375 -0.125 3.375 -0.125 7 0 C7.66 0.66 8.32 1.32 9 2 C8.625 5.625 8.625 5.625 8 9 C6.35 9.33 4.7 9.66 3 10 C2.67 10.99 2.34 11.98 2 13 C1.34 13 0.68 13 0 13 C0 8.71 0 4.42 0 0 Z " fill="#5B5D60" transform="translate(310,85)"/>
<path d="M0 0 C10.77777778 0 10.77777778 0 15 1 C16 2 16 2 16.09765625 4.28515625 C16.08605469 5.20167969 16.07445312 6.11820313 16.0625 7.0625 C16.05347656 7.98160156 16.04445313 8.90070312 16.03515625 9.84765625 C16.02355469 10.55792969 16.01195312 11.26820312 16 12 C15.34 12 14.68 12 14 12 C13.67 9.03 13.34 6.06 13 3 C12.01 3 11.02 3 10 3 C9.67 5.97 9.34 8.94 9 12 C8.34 12 7.68 12 7 12 C6.67 9.03 6.34 6.06 6 3 C5.01 3 4.02 3 3 3 C2.67 5.97 2.34 8.94 2 12 C1.34 12 0.68 12 0 12 C0 8.04 0 4.08 0 0 Z " fill="#595B5E" transform="translate(537,5)"/>
<path d="M0 0 C2.31 0 4.62 0 7 0 C9 2 9 2 9.25 4.5 C9 7 9 7 7 9 C4.375 9.125 4.375 9.125 2 9 C2 10.65 2 12.3 2 14 C1.34 14 0.68 14 0 14 C0 9.38 0 4.76 0 0 Z " fill="#626467" transform="translate(396,79)"/>
<path d="M0 0 C0.33 0 0.66 0 1 0 C1 4.62 1 9.24 1 14 C-1.31 14 -3.62 14 -6 14 C-8.14915785 10.77626323 -8.38286803 9.73296326 -8 6 C-7.34 5.34 -6.68 4.68 -6 4 C-2.875 4.375 -2.875 4.375 0 5 C0 3.35 0 1.7 0 0 Z " fill="#7B7C7E" transform="translate(569,253)"/>
<path d="M0 0 C2.375 -0.125 2.375 -0.125 5 0 C7 2 7 2 7.1953125 4.3828125 C7.17210937 5.28773438 7.14890625 6.19265625 7.125 7.125 C7.10695313 8.03507813 7.08890625 8.94515625 7.0703125 9.8828125 C7.04710937 10.58148438 7.02390625 11.28015625 7 12 C4.36 12 1.72 12 -1 12 C-1.625 9.625 -1.625 9.625 -2 7 C0 5 0 5 2.625 4.875 C3.40875 4.91625 4.1925 4.9575 5 5 C4.67 4.34 4.34 3.68 4 3 C2.02 3.33 0.04 3.66 -2 4 C-1.34 2.68 -0.68 1.36 0 0 Z " fill="#989A9C" transform="translate(357,222)"/>
<path d="M0 0 C3.3 0 6.6 0 10 0 C10 0.66 10 1.32 10 2 C7.36 2 4.72 2 2 2 C2 3.65 2 5.3 2 7 C4.64 7 7.28 7 10 7 C10 7.66 10 8.32 10 9 C7.36 9 4.72 9 2 9 C2 10.65 2 12.3 2 14 C4.64 14 7.28 14 10 14 C10 14.66 10 15.32 10 16 C6.7 16 3.4 16 0 16 C0 10.72 0 5.44 0 0 Z " fill="#5C5F61" transform="translate(296,5)"/>
<path d="M0 0 C3.0625 0.1875 3.0625 0.1875 5.0625 2.1875 C4.6875 5.8125 4.6875 5.8125 4.0625 9.1875 C1.1875 9.8125 1.1875 9.8125 -1.9375 10.1875 C-3.9375 8.1875 -3.9375 8.1875 -4.125 4.625 C-3.88625776 0.24805901 -3.88625776 0.24805901 0 0 Z " fill="#808082" transform="translate(362.9375,260.8125)"/>
<path d="M0 0 C0.99 0 1.98 0 3 0 C3.33 2.64 3.66 5.28 4 8 C4.99 8.33 5.98 8.66 7 9 C7 6.03 7 3.06 7 0 C7.99 0 8.98 0 10 0 C10 3.63 10 7.26 10 11 C6.6875 11.6875 6.6875 11.6875 3 12 C1.28125 10.8125 1.28125 10.8125 0 9 C-0.29296875 6.73828125 -0.29296875 6.73828125 -0.1875 4.3125 C-0.16042969 3.50425781 -0.13335937 2.69601563 -0.10546875 1.86328125 C-0.07066406 1.24839844 -0.03585937 0.63351563 0 0 Z " fill="#252525" transform="translate(342,183)"/>
<path d="M0 0 C2.5 0.25 2.5 0.25 4.5 2.25 C4.75 5.25 4.75 5.25 4.5 8.25 C2.5 10.25 2.5 10.25 0 10.5 C-2.5 10.25 -2.5 10.25 -4.5 8.25 C-4.75 5.25 -4.75 5.25 -4.5 2.25 C-2.5 0.25 -2.5 0.25 0 0 Z " fill="#7F8082" transform="translate(359.5,46.75)"/>
<path d="M0 0 C2.375 0.6875 2.375 0.6875 3.375 1.6875 C3.44705511 3.37358966 3.45886068 5.06250659 3.4375 6.75 C3.42847656 7.66910156 3.41945313 8.58820312 3.41015625 9.53515625 C3.39855469 10.24542969 3.38695312 10.95570312 3.375 11.6875 C0.735 11.6875 -1.905 11.6875 -4.625 11.6875 C-4.955 10.0375 -5.285 8.3875 -5.625 6.6875 C-2.625 4.6875 -2.625 4.6875 1.375 4.6875 C1.375 3.6975 1.375 2.7075 1.375 1.6875 C-0.935 2.3475 -3.245 3.0075 -5.625 3.6875 C-5.625 3.0275 -5.625 2.3675 -5.625 1.6875 C-2.625 -0.3125 -2.625 -0.3125 0 0 Z " fill="#5B5D60" transform="translate(356.625,8.3125)"/>
<path d="M0 0 C6.0546875 -0.1953125 6.0546875 -0.1953125 8 0 C10 2 10 2 10.1953125 4.3828125 C10.17210937 5.28773438 10.14890625 6.19265625 10.125 7.125 C10.10695313 8.03507813 10.08890625 8.94515625 10.0703125 9.8828125 C10.04710937 10.58148438 10.02390625 11.28015625 10 12 C9.01 12 8.02 12 7 12 C7 8.7 7 5.4 7 2 C5.68 2 4.36 2 3 2 C3 5.3 3 8.6 3 12 C2.01 12 1.02 12 0 12 C0 8.04 0 4.08 0 0 Z " fill="#1D1D1D" transform="translate(449,181)"/>
<path d="M0 0 C6.625 -0.25 6.625 -0.25 10 2 C10.29296875 4.3828125 10.29296875 4.3828125 10.1875 7.125 C10.16042969 8.03507813 10.13335937 8.94515625 10.10546875 9.8828125 C10.07066406 10.58148438 10.03585937 11.28015625 10 12 C9.01 12 8.02 12 7 12 C6.67 9.03 6.34 6.06 6 3 C5.01 2.67 4.02 2.34 3 2 C3 5.3 3 8.6 3 12 C2.01 12 1.02 12 0 12 C0 8.04 0 4.08 0 0 Z " fill="#1C1C1C" transform="translate(482,180)"/>
<path d="M0 0 C3 -0.3125 3 -0.3125 6 0 C8 2 8 2 8 6 C5.36 6 2.72 6 0 6 C0.33 6.99 0.66 7.98 1 9 C4.465 8.505 4.465 8.505 8 8 C7.01 9.32 6.02 10.64 5 12 C0.25 11.25 0.25 11.25 -2 9 C-2.34490322 4.94738713 -2.30163882 3.45245824 0 0 Z " fill="#54575A" transform="translate(557,5)"/>
<path d="M0 0 C2.31243792 -0.02685412 4.6249627 -0.04632841 6.9375 -0.0625 C8.22527344 -0.07410156 9.51304687 -0.08570313 10.83984375 -0.09765625 C14 0 14 0 15 1 C15.07205511 2.68608966 15.08386068 4.37500659 15.0625 6.0625 C15.05347656 6.98160156 15.04445313 7.90070313 15.03515625 8.84765625 C15.02355469 9.55792969 15.01195312 10.26820313 15 11 C14.34 11 13.68 11 13 11 C13 8.03 13 5.06 13 2 C11.68 2.33 10.36 2.66 9 3 C8.67 5.64 8.34 8.28 8 11 C7.67 11 7.34 11 7 11 C6.67 8.36 6.34 5.72 6 3 C4.68 2.67 3.36 2.34 2 2 C2 5.3 2 8.6 2 12 C1.34 12 0.68 12 0 12 C0 8.04 0 4.08 0 0 Z " fill="#5F6164" transform="translate(541,219)"/>
<path d="M0 0 C3.3 0 6.6 0 10 0 C10 0.66 10 1.32 10 2 C7.36 2 4.72 2 2 2 C2 3.65 2 5.3 2 7 C4.31 7 6.62 7 9 7 C9 7.33 9 7.66 9 8 C6.69 8 4.38 8 2 8 C2 9.98 2 11.96 2 14 C4.64 14 7.28 14 10 14 C10 14.66 10 15.32 10 16 C6.7 16 3.4 16 0 16 C0 10.72 0 5.44 0 0 Z " fill="#55585A" transform="translate(300,219)"/>
<path d="M0 0 C0.99 0.103125 1.98 0.20625 3 0.3125 C5 3.3125 5 3.3125 5 6.3125 C2.36 6.3125 -0.28 6.3125 -3 6.3125 C-3 7.3025 -3 8.2925 -3 9.3125 C0.62885324 9.46399298 0.62885324 9.46399298 4 8.3125 C3.67 9.3025 3.34 10.2925 3 11.3125 C0.125 11.4375 0.125 11.4375 -3 11.3125 C-5 9.3125 -5 9.3125 -5.25 5.8125 C-4.93382655 1.38607168 -4.44897929 0.46343534 0 0 Z " fill="#76787A" transform="translate(564,218.6875)"/>
<path d="M0 0 C3 1 3 1 4.16796875 3.1796875 C4.50441406 4.06914063 4.84085937 4.95859375 5.1875 5.875 C5.53167969 6.75929688 5.87585938 7.64359375 6.23046875 8.5546875 C7 11 7 11 7 14 C6.34 14 5.68 14 5 14 C5 12.68 5 11.36 5 10 C2.69 10 0.38 10 -2 10 C-2.33 11.32 -2.66 12.64 -3 14 C-4.37095624 10.30962722 -3.60010967 8.29116165 -2.0625 4.75 C-1.68222656 3.85796875 -1.30195313 2.9659375 -0.91015625 2.046875 C-0.60980469 1.37140625 -0.30945313 0.6959375 0 0 Z " fill="#7B7D80" transform="translate(301,81)"/>
<path d="M0 0 C0.66 0 1.32 0 2 0 C2.33 2.97 2.66 5.94 3 9 C3.99 9 4.98 9 6 9 C6.33 6.03 6.66 3.06 7 0 C7.99 0 8.98 0 10 0 C10 3.96 10 7.92 10 12 C3.9453125 12.1953125 3.9453125 12.1953125 2 12 C0 10 0 10 -0.1953125 7.6171875 C-0.17210937 6.71226562 -0.14890625 5.80734375 -0.125 4.875 C-0.10695313 3.96492187 -0.08890625 3.05484375 -0.0703125 2.1171875 C-0.04710937 1.41851562 -0.02390625 0.71984375 0 0 Z " fill="#828486" transform="translate(421,221)"/>
<path d="M0 0 C3.29714793 0.32971479 4.6226839 0.6226839 7 3 C7 3.99 7 4.98 7 6 C4.69 6 2.38 6 0 6 C0.33 6.66 0.66 7.32 1 8 C2.98 7.67 4.96 7.34 7 7 C6.67 7.99 6.34 8.98 6 10 C4.02 10.33 2.04 10.66 0 11 C-2.30163882 7.54754176 -2.34490322 6.05261287 -2 2 C-1.34 1.34 -0.68 0.68 0 0 Z " fill="#858789" transform="translate(435,82)"/>
<path d="M0 0 C6.0546875 -0.1953125 6.0546875 -0.1953125 8 0 C10 2 10 2 10.1953125 4.3828125 C10.17210937 5.28773437 10.14890625 6.19265625 10.125 7.125 C10.10695313 8.03507813 10.08890625 8.94515625 10.0703125 9.8828125 C10.04710937 10.58148438 10.02390625 11.28015625 10 12 C9.34 12 8.68 12 8 12 C7.67 9.03 7.34 6.06 7 3 C5.68 2.67 4.36 2.34 3 2 C3 5.3 3 8.6 3 12 C2.01 12 1.02 12 0 12 C0 8.04 0 4.08 0 0 Z " fill="#6F7174" transform="translate(429,7)"/>
<path d="M0 0 C0.99 0 1.98 0 3 0 C3 1.32 3 2.64 3 4 C4.32 4 5.64 4 7 4 C7 4.66 7 5.32 7 6 C5.68 6 4.36 6 3 6 C3 8.31 3 10.62 3 13 C4.32 13 5.64 13 7 13 C7 13.99 7 14.98 7 16 C4.625 16.125 4.625 16.125 2 16 C0 14 0 14 -0.1953125 10.7421875 C-0.17210937 9.46601563 -0.14890625 8.18984375 -0.125 6.875 C-0.10695313 5.59367188 -0.08890625 4.31234375 -0.0703125 2.9921875 C-0.04710937 2.00476563 -0.02390625 1.01734375 0 0 Z " fill="#1D1D1D" transform="translate(386,178)"/>
<path d="M0 0 C2.375 -0.125 2.375 -0.125 5 0 C7 2 7 2 7.1953125 3.9453125 C7.13020833 5.96354167 7.06510417 7.98177083 7 10 C4.36 10 1.72 10 -1 10 C-1 8.35 -1 6.7 -1 5 C0.98 4.67 2.96 4.34 5 4 C5 3.34 5 2.68 5 2 C3.02 2.33 1.04 2.66 -1 3 C-0.67 2.01 -0.34 1.02 0 0 Z " fill="#9B9C9D" transform="translate(342,47)"/>
<path d="M0 0 C4.875 0.875 4.875 0.875 6 2 C6.07179964 3.51928038 6.08392007 5.04167482 6.0625 6.5625 C6.05347656 7.38878906 6.04445313 8.21507812 6.03515625 9.06640625 C6.02355469 9.70449219 6.01195312 10.34257812 6 11 C0.25 11.125 0.25 11.125 -2 10 C-1.67 8.35 -1.34 6.7 -1 5 C0.65 5 2.3 5 4 5 C4 4.01 4 3.02 4 2 C2.02 2.33 0.04 2.66 -2 3 C-1.34 2.01 -0.68 1.02 0 0 Z " fill="#999A9B" transform="translate(424,259)"/>
<path d="M0 0 C2.5625 -0.25 2.5625 -0.25 5 0 C6 1 6 1 6.09765625 3.06640625 C6.08605469 3.89011719 6.07445312 4.71382813 6.0625 5.5625 C6.05347656 6.38878906 6.04445313 7.21507812 6.03515625 8.06640625 C6.02355469 8.70449219 6.01195312 9.34257812 6 10 C3.69 10 1.38 10 -1 10 C-1.625 8.125 -1.625 8.125 -2 6 C-1.34 5.34 -0.68 4.68 0 4 C1.32 4 2.64 4 4 4 C4 3.34 4 2.68 4 2 C2.02 2.33 0.04 2.66 -2 3 C-1.34 2.01 -0.68 1.02 0 0 Z " fill="#AAABAC" transform="translate(509,258)"/>
<path d="M0 0 C2.97 0.495 2.97 0.495 6 1 C6 3.97 6 6.94 6 10 C3.125 10.625 3.125 10.625 0 11 C-0.66 10.34 -1.32 9.68 -2 9 C-1.625 6.875 -1.625 6.875 -1 5 C0.65 4.67 2.3 4.34 4 4 C4 3.34 4 2.68 4 2 C2.35 2.33 0.7 2.66 -1 3 C-0.67 2.01 -0.34 1.02 0 0 Z " fill="#8A8B8C" transform="translate(314,261)"/>
<path d="M0 0 C0.66 0 1.32 0 2 0 C2.33 1.65 2.66 3.3 3 5 C4.32 3.35 5.64 1.7 7 0 C7.99 0.33 8.98 0.66 10 1 C9.319375 1.5775 8.63875 2.155 7.9375 2.75 C5.7892894 4.74982228 5.7892894 4.74982228 6 6.9375 C7.30557632 9.63025116 9.05337483 11.73940302 11 14 C6.75177626 13.52797514 4.80010291 11.03344482 2 8 C2 9.98 2 11.96 2 14 C1.34 14 0.68 14 0 14 C0 9.38 0 4.76 0 0 Z " fill="#808183" transform="translate(452,255)"/>
<path d="M0 0 C1 1 1 1 1.09765625 3.06640625 C1.08605469 3.89011719 1.07445312 4.71382812 1.0625 5.5625 C1.05347656 6.38878906 1.04445313 7.21507812 1.03515625 8.06640625 C1.02355469 8.70449219 1.01195312 9.34257813 1 10 C-1.31 10 -3.62 10 -6 10 C-6.33 8.35 -6.66 6.7 -7 5 C-5.02 4.67 -3.04 4.34 -1 4 C-1.33 3.34 -1.66 2.68 -2 2 C-3.65 2.33 -5.3 2.66 -7 3 C-7 2.34 -7 1.68 -7 1 C-4.51588385 -0.24205807 -2.74800896 -0.14092354 0 0 Z " fill="#9E9FA0" transform="translate(467,45)"/>
<path d="M0 0 C1.98 0 3.96 0 6 0 C7.60725635 3.21451269 7.05748185 6.43612536 7 10 C4.69 10 2.38 10 0 10 C-0.66 8.68 -1.32 7.36 -2 6 C0 4 0 4 2.625 3.875 C3.40875 3.91625 4.1925 3.9575 5 4 C4.67 3.34 4.34 2.68 4 2 C2.35 2.33 0.7 2.66 -1 3 C-0.67 2.01 -0.34 1.02 0 0 Z " fill="#828384" transform="translate(310,48)"/>
<path d="M0 0 C1 1 1 1 1.09765625 2.84765625 C1.04882812 5.92382812 1.04882812 5.92382812 1 9 C-1.31 9.33 -3.62 9.66 -6 10 C-6.38218767 8.34385343 -6.71395102 6.67542976 -7 5 C-6 4 -6 4 -3.4375 3.9375 C-2.2309375 3.9684375 -2.2309375 3.9684375 -1 4 C-1 3.01 -1 2.02 -1 1 C-2.98 1.66 -4.96 2.32 -7 3 C-6.67 2.01 -6.34 1.02 -6 0 C-3.49749232 -1.25125384 -2.59701335 -0.83774624 0 0 Z " fill="#838486" transform="translate(494,45)"/>
<path d="M0 0 C4.29 0 8.58 0 13 0 C13 3.3 13 6.6 13 10 C10.98177083 8.47005208 8.96354167 6.94010417 6.9453125 5.41015625 C5.05642921 3.96035376 5.05642921 3.96035376 3 3 C3 2.34 3 1.68 3 1 C2.01 0.67 1.02 0.34 0 0 Z " fill="#EDEDED" transform="translate(665,0)"/>
<path d="M0 0 C0.66 0 1.32 0 2 0 C2.33 1.98 2.66 3.96 3 6 C4.65 4.02 6.3 2.04 8 0 C8.66 0.33 9.32 0.66 10 1 C8.68 2.65 7.36 4.3 6 6 C7.37154504 8.95409701 8.98863724 11.44008376 11 14 C7.20411134 13.45773019 5.52788007 11.79872437 3 9 C2.67 10.65 2.34 12.3 2 14 C1.34 14 0.68 14 0 14 C0 9.38 0 4.76 0 0 Z " fill="#7F8082" transform="translate(448,41)"/>
<path d="M0 0 C1.99954746 -0.04254356 4.00041636 -0.04080783 6 0 C7 1 7 1 7.09765625 3.06640625 C7.08605469 3.89011719 7.07445312 4.71382813 7.0625 5.5625 C7.05347656 6.38878906 7.04445313 7.21507812 7.03515625 8.06640625 C7.02355469 8.70449219 7.01195312 9.34257812 7 10 C4.69 10 2.38 10 0 10 C-0.33 8.35 -0.66 6.7 -1 5 C0.98 4.67 2.96 4.34 5 4 C5 3.01 5 2.02 5 1 C3.02 1.66 1.04 2.32 -1 3 C-0.67 2.01 -0.34 1.02 0 0 Z " fill="#7D7E80" transform="translate(578,257)"/>
<path d="M0 0 C1 1 1 1 1.09765625 3.06640625 C1.08605469 3.89011719 1.07445312 4.71382812 1.0625 5.5625 C1.05347656 6.38878906 1.04445313 7.21507812 1.03515625 8.06640625 C1.02355469 8.70449219 1.01195312 9.34257813 1 10 C-1.31 10 -3.62 10 -6 10 C-6.38218767 8.34385343 -6.71395102 6.67542976 -7 5 C-6 4 -6 4 -3.4375 3.9375 C-2.2309375 3.9684375 -2.2309375 3.9684375 -1 4 C-1 3.01 -1 2.02 -1 1 C-2.98 1.66 -4.96 2.32 -7 3 C-7 2.34 -7 1.68 -7 1 C-4.51588385 -0.24205807 -2.74800896 -0.14092354 0 0 Z " fill="#98999A" transform="translate(425,46)"/>
<path d="M0 0 C1.66611905 -0.042721 3.33382885 -0.04063832 5 0 C6 1 6 1 6.09765625 3.06640625 C6.08605469 3.89011719 6.07445312 4.71382812 6.0625 5.5625 C6.05347656 6.38878906 6.04445313 7.21507812 6.03515625 8.06640625 C6.02355469 8.70449219 6.01195312 9.34257813 6 10 C3.69 10 1.38 10 -1 10 C-1.33 8.68 -1.66 7.36 -2 6 C1 4 1 4 4 4 C4 3.34 4 2.68 4 2 C2.35 2.33 0.7 2.66 -1 3 C-0.67 2.01 -0.34 1.02 0 0 Z " fill="#9A9B9D" transform="translate(505,44)"/>
<path d="M0 0 C4.875 0.875 4.875 0.875 6 2 C6.14115161 4.67058851 6.04247107 7.32432238 6 10 C3.125 10.625 3.125 10.625 0 11 C-0.66 10.34 -1.32 9.68 -2 9 C-1.625 6.875 -1.625 6.875 -1 5 C0.65 5 2.3 5 4 5 C4 4.01 4 3.02 4 2 C2.02 2.33 0.04 2.66 -2 3 C-1.34 2.01 -0.68 1.02 0 0 Z " fill="#979899" transform="translate(493,258)"/>
<path d="M0 0 C0 0.66 0 1.32 0 2 C-1.65 2 -3.3 2 -5 2 C-3.62308038 4.75383923 -1.63279958 5.51483101 1 7 C0.125 10.875 0.125 10.875 -1 12 C-2.99958364 12.04080783 -5.00045254 12.04254356 -7 12 C-7 11.34 -7 10.68 -7 10 C-5.35 10 -3.7 10 -2 10 C-3.93254772 7.9754262 -5.63158688 6.57894208 -8 5 C-8 3.68 -8 2.36 -8 1 C-5.29120665 -0.35439668 -2.99066732 -0.06501451 0 0 Z " fill="#141414" transform="translate(383,182)"/>
<path d="M0 0 C0.99 0 1.98 0 3 0 C3.05386629 2.12472576 3.09273071 4.24983652 3.125 6.375 C3.14820313 7.55835938 3.17140625 8.74171875 3.1953125 9.9609375 C3 13 3 13 1 15 C-1.68839385 15.26991906 -4.29141936 15.08737357 -7 15 C-6.67 14.01 -6.34 13.02 -6 12 C-4.35 12 -2.7 12 -1 12 C-0.67 8.04 -0.34 4.08 0 0 Z " fill="#202020" transform="translate(305,180)"/>
<path d="M0 0 C2.97 0 5.94 0 9 0 C9 0.66 9 1.32 9 2 C6.69 2 4.38 2 2 2 C2 3.65 2 5.3 2 7 C4.31 7 6.62 7 9 7 C9 7.66 9 8.32 9 9 C6.69 9 4.38 9 2 9 C2 10.98 2 12.96 2 15 C1.34 15 0.68 15 0 15 C0 10.05 0 5.1 0 0 Z " fill="#090909" transform="translate(331,179)"/>
<path d="M0 0 C2.5 0.25 2.5 0.25 4.5 2.25 C4.5 3.24 4.5 4.23 4.5 5.25 C2.19 5.25 -0.12 5.25 -2.5 5.25 C-2.5 6.24 -2.5 7.23 -2.5 8.25 C-0.52 7.92 1.46 7.59 3.5 7.25 C3.17 8.24 2.84 9.23 2.5 10.25 C0.125 10.375 0.125 10.375 -2.5 10.25 C-4.5 8.25 -4.5 8.25 -4.75 5.25 C-4.43608753 1.48305032 -3.83691092 0.38369109 0 0 Z " fill="#797B7E" transform="translate(417.5,82.75)"/>
<path d="M0 0 C0.66 0 1.32 0 2 0 C2.33 2.97 2.66 5.94 3 9 C4.32 9 5.64 9 7 9 C7.33 6.03 7.66 3.06 8 0 C8.66 0 9.32 0 10 0 C10 3.96 10 7.92 10 12 C3.9453125 12.1953125 3.9453125 12.1953125 2 12 C0 10 0 10 -0.1953125 7.6171875 C-0.17210937 6.71226563 -0.14890625 5.80734375 -0.125 4.875 C-0.10695313 3.96492187 -0.08890625 3.05484375 -0.0703125 2.1171875 C-0.04710937 1.41851562 -0.02390625 0.71984375 0 0 Z " fill="#636568" transform="translate(417,7)"/>
<path d="M0 0 C2.64 0 5.28 0 8 0 C9.26237731 2.52475462 9.09856404 4.31200466 9.0625 7.125 C9.05347656 8.03507813 9.04445313 8.94515625 9.03515625 9.8828125 C9.02355469 10.58148438 9.01195312 11.28015625 9 12 C8.34 12 7.68 12 7 12 C7 8.7 7 5.4 7 2 C5.68 2.33 4.36 2.66 3 3 C2.67 5.97 2.34 8.94 2 12 C1.34 12 0.68 12 0 12 C0 8.04 0 4.08 0 0 Z " fill="#65686A" transform="translate(367,222)"/>
<path d="M0 0 C1.98 0 3.96 0 6 0 C6.05386629 2.12472576 6.09273071 4.24983652 6.125 6.375 C6.14820313 7.55835938 6.17140625 8.74171875 6.1953125 9.9609375 C6 13 6 13 4 15 C0.375 15.125 0.375 15.125 -3 15 C-3 14.34 -3 13.68 -3 13 C-1.5459375 12.814375 -1.5459375 12.814375 -0.0625 12.625 C0.948125 12.41875 1.95875 12.2125 3 12 C3.33 11.34 3.66 10.68 4 10 C3.01 9.67 2.02 9.34 1 9 C1.66 9 2.32 9 3 9 C3 6.36 3 3.72 3 1 C2.01 0.67 1.02 0.34 0 0 Z " fill="#0E0E0E" transform="translate(466,181)"/>
<path d="M0 0 C1.67542976 0.28604898 3.34385343 0.61781233 5 1 C5 3.97 5 6.94 5 10 C3.33388095 10.042721 1.66617115 10.04063832 0 10 C-1 9 -1 9 -1.1328125 7.1875 C-1.13023437 6.465625 -1.12765625 5.74375 -1.125 5 C-1.12757813 4.278125 -1.13015625 3.55625 -1.1328125 2.8125 C-1 1 -1 1 0 0 Z " fill="#F8F8F9" transform="translate(346,82)"/>
<path d="M0 0 C1.27875 -0.061875 2.5575 -0.12375 3.875 -0.1875 C4.95394531 -0.23970703 4.95394531 -0.23970703 6.0546875 -0.29296875 C6.69664062 -0.19628906 7.33859375 -0.09960938 8 0 C10.13586678 3.20380017 10.23132175 4.01939967 10.125 7.6875 C10.10695313 8.49574219 10.08890625 9.30398437 10.0703125 10.13671875 C10.03550781 11.05904297 10.03550781 11.05904297 10 12 C9.34 12 8.68 12 8 12 C7.67 9.03 7.34 6.06 7 3 C5.68 3 4.36 3 3 3 C2.67 5.97 2.34 8.94 2 12 C1.34 12 0.68 12 0 12 C0 8.04 0 4.08 0 0 Z " fill="#626467" transform="translate(316,9)"/>
<path d="M0 0 C1.66611905 -0.042721 3.33382885 -0.04063832 5 0 C6 1 6 1 6.09765625 3.06640625 C6.08605469 3.89011719 6.07445312 4.71382813 6.0625 5.5625 C6.05347656 6.38878906 6.04445313 7.21507812 6.03515625 8.06640625 C6.02355469 8.70449219 6.01195312 9.34257812 6 10 C3.125 10.125 3.125 10.125 0 10 C-0.66 9.34 -1.32 8.68 -2 8 C-1.625 5.875 -1.625 5.875 -1 4 C0.65 4 2.3 4 4 4 C4 3.01 4 2.02 4 1 C2.35 1.66 0.7 2.32 -1 3 C-0.67 2.01 -0.34 1.02 0 0 Z " fill="#969798" transform="translate(529,258)"/>
<path d="M0 0 C0.78375 0.04125 1.5675 0.0825 2.375 0.125 C2.705 1.115 3.035 2.105 3.375 3.125 C1.725 3.455 0.075 3.785 -1.625 4.125 C-1.625 5.775 -1.625 7.425 -1.625 9.125 C0.025 9.455 1.675 9.785 3.375 10.125 C3.375 10.785 3.375 11.445 3.375 12.125 C0 12.3125 0 12.3125 -3.625 12.125 C-5.625 9.125 -5.625 9.125 -5.375 5.5625 C-4.51302662 1.6117887 -4.17745687 0.19892652 0 0 Z " fill="#292929" transform="translate(412.625,180.875)"/>
<path d="M0 0 C6.0546875 -0.1953125 6.0546875 -0.1953125 8 0 C10 2 10 2 10.1953125 4.1640625 C10.17210937 4.97617188 10.14890625 5.78828125 10.125 6.625 C10.10695313 7.44226563 10.08890625 8.25953125 10.0703125 9.1015625 C10.03550781 10.04128906 10.03550781 10.04128906 10 11 C9.34 11 8.68 11 8 11 C8 8.03 8 5.06 8 2 C6.35 2.33 4.7 2.66 3 3 C2.67 5.97 2.34 8.94 2 12 C1.34 12 0.68 12 0 12 C0 8.04 0 4.08 0 0 Z " fill="#606365" transform="translate(433,221)"/>
<path d="M0 0 C1.66611905 -0.042721 3.33382885 -0.04063832 5 0 C6 1 6 1 6.09765625 3.06640625 C6.08605469 3.89011719 6.07445312 4.71382812 6.0625 5.5625 C6.05347656 6.38878906 6.04445313 7.21507812 6.03515625 8.06640625 C6.02355469 8.70449219 6.01195312 9.34257813 6 10 C3.69 10 1.38 10 -1 10 C-1.625 8.125 -1.625 8.125 -2 6 C0 4 0 4 2.625 3.875 C3.40875 3.91625 4.1925 3.9575 5 4 C4.67 3.34 4.34 2.68 4 2 C2.35 2.33 0.7 2.66 -1 3 C-0.67 2.01 -0.34 1.02 0 0 Z " fill="#98989A" transform="translate(525,44)"/>
<path d="M0 0 C1.66611905 -0.042721 3.33382885 -0.04063832 5 0 C6 1 6 1 6.09765625 3.06640625 C6.08605469 3.89011719 6.07445312 4.71382812 6.0625 5.5625 C6.05347656 6.38878906 6.04445313 7.21507812 6.03515625 8.06640625 C6.02355469 8.70449219 6.01195312 9.34257813 6 10 C3.69 10 1.38 10 -1 10 C-1.625 8.125 -1.625 8.125 -2 6 C0 4 0 4 2.625 3.875 C3.40875 3.91625 4.1925 3.9575 5 4 C4.67 3.34 4.34 2.68 4 2 C2.35 2.33 0.7 2.66 -1 3 C-0.67 2.01 -0.34 1.02 0 0 Z " fill="#969798" transform="translate(575,43)"/>
<path d="M0 0 C3.68802044 1.22934015 4.72356973 2.93859378 7 6 C7.928125 4.515 7.928125 4.515 8.875 3 C9.57625 2.01 10.2775 1.02 11 0 C11.66 0 12.32 0 13 0 C11.87548273 2.9719385 10.77706209 5.33440687 9 8 C8.54860541 10.0492094 8.54860541 10.0492094 8.375 12.1875 C8.25125 13.445625 8.1275 14.70375 8 16 C7.34 16 6.68 16 6 16 C5.938125 14.989375 5.87625 13.97875 5.8125 12.9375 C5.27944207 8.96379542 3.54026615 6.55268076 1.05859375 3.48046875 C0 2 0 2 0 0 Z " fill="#626567" transform="translate(392,3)"/>
<path d="M0 0 C3.73639216 1.24546405 4.18756513 2.63404953 6 6 C7.32 4.02 8.64 2.04 10 0 C10.99 0.33 11.98 0.66 13 1 C11.7934375 2.485 11.7934375 2.485 10.5625 4 C7.67317108 7.99119164 7.25616233 11.13291572 7 16 C6.34 16 5.68 16 5 16 C4.87625 14.205625 4.87625 14.205625 4.75 12.375 C4.24098391 8.09014813 2.56708979 5.47799261 0 2 C0 1.34 0 0.68 0 0 Z " fill="#626467" transform="translate(396,217)"/>
<path d="M0 0 C6.15234375 -0.09765625 6.15234375 -0.09765625 8 0 C9 1 9 1 9.09765625 3.28515625 C9.08605469 4.20167969 9.07445312 5.11820313 9.0625 6.0625 C9.05347656 6.98160156 9.04445313 7.90070313 9.03515625 8.84765625 C9.02355469 9.55792969 9.01195312 10.26820313 9 11 C8.34 11 7.68 11 7 11 C7 8.03 7 5.06 7 2 C5.68 2.33 4.36 2.66 3 3 C2.67 5.64 2.34 8.28 2 11 C1.34 11 0.68 11 0 11 C0 7.37 0 3.74 0 0 Z " fill="#5F6264" transform="translate(320,223)"/>
<path d="M0 0 C0.66 0 1.32 0 2 0 C2.33 2.64 2.66 5.28 3 8 C4.32 8 5.64 8 7 8 C7.33 5.36 7.66 2.72 8 0 C8.66 0 9.32 0 10 0 C10 3.63 10 7.26 10 11 C3.9453125 11.1953125 3.9453125 11.1953125 2 11 C0 9 0 9 -0.1953125 6.8359375 C-0.17210937 6.02382812 -0.14890625 5.21171875 -0.125 4.375 C-0.10695313 3.55773437 -0.08890625 2.74046875 -0.0703125 1.8984375 C-0.04710937 1.27195313 -0.02390625 0.64546875 0 0 Z " fill="#5E6163" transform="translate(501,220)"/>
<path d="M0 0 C0.99 0 1.98 0 3 0 C3.06058594 0.97582031 3.12117188 1.95164063 3.18359375 2.95703125 C3.26738281 4.22933594 3.35117187 5.50164062 3.4375 6.8125 C3.51871094 8.07707031 3.59992188 9.34164062 3.68359375 10.64453125 C3.87184547 13.99181893 3.87184547 13.99181893 5 17 C3.68 17 2.36 17 1 17 C-0.53266582 13.93466836 -0.10276471 10.73245728 -0.0625 7.375 C-0.05798828 6.66859375 -0.05347656 5.9621875 -0.04882812 5.234375 C-0.03703875 3.48954725 -0.01910324 1.744763 0 0 Z " fill="#1E1E1E" transform="translate(355,177)"/>
<path d="M0 0 C2.31 0.33 4.62 0.66 7 1 C7.41176754 4.60296594 7.1535853 5.78402067 5 8.8125 C4.34 9.534375 3.68 10.25625 3 11 C4.65 11.33 6.3 11.66 8 12 C8 12.66 8 13.32 8 14 C5.03 14 2.06 14 -1 14 C0.63265306 9.35321821 0.63265306 9.35321821 2.625 7.4375 C4.4608151 5.8497769 4.4608151 5.8497769 4 2 C3.01 2 2.02 2 1 2 C0.67 2.66 0.34 3.32 0 4 C-0.66 4 -1.32 4 -2 4 C-1.34 2.68 -0.68 1.36 0 0 Z " fill="#66696B" transform="translate(357,80)"/>
<path d="M0 0 C1.4540625 0.0309375 1.4540625 0.0309375 2.9375 0.0625 C3.2675 1.7125 3.5975 3.3625 3.9375 5.0625 C1.6275 5.0625 -0.6825 5.0625 -3.0625 5.0625 C-2.7325 5.7225 -2.4025 6.3825 -2.0625 7.0625 C-0.0825 7.0625 1.8975 7.0625 3.9375 7.0625 C2.9475 8.5475 2.9475 8.5475 1.9375 10.0625 C-2.9375 9.1875 -2.9375 9.1875 -4.0625 8.0625 C-4.1875 4.5625 -4.1875 4.5625 -4.0625 1.0625 C-3.0625 0.0625 -3.0625 0.0625 0 0 Z " fill="#939496" transform="translate(376.0625,46.9375)"/>
<path d="M0 0 C2.875 -0.125 2.875 -0.125 6 0 C6.66 0.66 7.32 1.32 8 2 C7.82194873 5.38297413 7.21162756 6.76272061 4.9375 9.3125 C3.9784375 10.1478125 3.9784375 10.1478125 3 11 C4.65 11.33 6.3 11.66 8 12 C8 12.66 8 13.32 8 14 C5.03 14 2.06 14 -1 14 C1 10 1 10 3.125 7.4375 C5.30485538 5.11622611 5.30485538 5.11622611 5 2 C2.83125748 2.50603992 1.00032373 2.99983813 -1 4 C-0.67 2.68 -0.34 1.36 0 0 Z " fill="#65676A" transform="translate(368,80)"/>
<path d="M0 0 C1.98 0 3.96 0 6 0 C6 0.33 6 0.66 6 1 C4.35 1 2.7 1 1 1 C1 2.65 1 4.3 1 6 C2.98 6 4.96 6 7 6 C7 6.33 7 6.66 7 7 C5.35 7 3.7 7 2 7 C2 8.65 2 10.3 2 12 C3.65 11.67 5.3 11.34 7 11 C7.33 10.01 7.66 9.02 8 8 C8.66 8 9.32 8 10 8 C9.625 10.4375 9.625 10.4375 9 13 C7 14 7 14 0 14 C0 9.38 0 4.76 0 0 Z " fill="#7A7B7D" transform="translate(297,44)"/>
<path d="M0 0 C2.97 0 5.94 0 9 0 C9 0.33 9 0.66 9 1 C6.69 1 4.38 1 2 1 C2 2.98 2 4.96 2 7 C4.31 7 6.62 7 9 7 C9 7.66 9 8.32 9 9 C6.69 9 4.38 9 2 9 C2 11.31 2 13.62 2 16 C1.34 16 0.68 16 0 16 C0 10.72 0 5.44 0 0 Z " fill="#525457" transform="translate(486,2)"/>
<path d="M0 0 C0.66 0 1.32 0 2 0 C2.33 2.97 2.66 5.94 3 9 C3.99 9 4.98 9 6 9 C6.33 6.03 6.66 3.06 7 0 C7.66 0 8.32 0 9 0 C9 3.63 9 7.26 9 11 C5.625 11.625 5.625 11.625 2 12 C0 10 0 10 -0.1953125 7.6171875 C-0.17210937 6.71226563 -0.14890625 5.80734375 -0.125 4.875 C-0.10695313 3.96492187 -0.08890625 3.05484375 -0.0703125 2.1171875 C-0.04710937 1.41851562 -0.02390625 0.71984375 0 0 Z " fill="#5E6063" transform="translate(498,6)"/>
<path d="M0 0 C0.99 0 1.98 0 3 0 C3.33 5.61 3.66 11.22 4 17 C2.68 16.67 1.36 16.34 0 16 C0 10.72 0 5.44 0 0 Z " fill="#191919" transform="translate(362,177)"/>
<path d="M0 0 C1.2684375 0.12375 1.2684375 0.12375 2.5625 0.25 C3.2225 1.24 3.8825 2.23 4.5625 3.25 C2.2525 2.92 -0.0575 2.59 -2.4375 2.25 C-1.59183261 4.52173092 -1.59183261 4.52173092 1.0625 5.125 C3.5625 6.25 3.5625 6.25 4.375 8.375 C4.436875 8.99375 4.49875 9.6125 4.5625 10.25 C1.5625 12.25 1.5625 12.25 -1.125 11.875 C-1.888125 11.66875 -2.65125 11.4625 -3.4375 11.25 C-3.7675 10.26 -4.0975 9.27 -4.4375 8.25 C-3.7775 8.25 -3.1175 8.25 -2.4375 8.25 C-2.4375 8.91 -2.4375 9.57 -2.4375 10.25 C-0.46213255 9.90213292 -0.46213255 9.90213292 1.5625 9.25 C1.8925 8.59 2.2225 7.93 2.5625 7.25 C0.2525 6.59 -2.0575 5.93 -4.4375 5.25 C-3.32911727 0.34144793 -3.32911727 0.34144793 0 0 Z " fill="#616366" transform="translate(332.4375,8.75)"/>
<path d="M0 0 C1.4540625 0.0309375 1.4540625 0.0309375 2.9375 0.0625 C3.2675 1.0525 3.5975 2.0425 3.9375 3.0625 C3.2775 3.0625 2.6175 3.0625 1.9375 3.0625 C1.9375 2.4025 1.9375 1.7425 1.9375 1.0625 C-1.18035113 1.70894661 -1.18035113 1.70894661 -2.0625 4.0625 C-1.27875 4.206875 -0.495 4.35125 0.3125 4.5 C2.9375 5.0625 2.9375 5.0625 4.9375 6.0625 C4.0625 9.9375 4.0625 9.9375 2.9375 11.0625 C0.93791636 11.10330783 -1.06295254 11.10504356 -3.0625 11.0625 C-3.3925 10.0725 -3.7225 9.0825 -4.0625 8.0625 C-1.0925 8.5575 -1.0925 8.5575 1.9375 9.0625 C2.2675 8.4025 2.5975 7.7425 2.9375 7.0625 C-0.0325 6.5675 -0.0325 6.5675 -3.0625 6.0625 C-3.44468767 4.40635343 -3.77645102 2.73792976 -4.0625 1.0625 C-3.0625 0.0625 -3.0625 0.0625 0 0 Z " fill="#626568" transform="translate(336.0625,222.9375)"/>
<path d="M0 0 C0.66 0 1.32 0 2 0 C2 2.31 2 4.62 2 7 C3.32 6.01 4.64 5.02 6 4 C6.66 4.33 7.32 4.66 8 5 C7.01 6.32 6.02 7.64 5 9 C5.99 10.65 6.98 12.3 8 14 C4.125 12.125 4.125 12.125 3 11 C2.67 11.99 2.34 12.98 2 14 C1.34 14 0.68 14 0 14 C0 9.38 0 4.76 0 0 Z " fill="#878889" transform="translate(514,40)"/>
<path d="M0 0 C0.33 0 0.66 0 1 0 C1.33 3.63 1.66 7.26 2 11 C3.65 11.33 5.3 11.66 7 12 C8.73956658 10.26043342 8.37190386 7.8063378 8.5625 5.4375 C8.64628906 4.42558594 8.73007812 3.41367187 8.81640625 2.37109375 C8.87699219 1.58863281 8.93757813 0.80617188 9 0 C9.66 0 10.32 0 11 0 C11.05410687 1.77049689 11.09284119 3.54146849 11.125 5.3125 C11.14820313 6.29863281 11.17140625 7.28476562 11.1953125 8.30078125 C11 11 11 11 9 14 C5.5 14.3125 5.5 14.3125 2 14 C0 12 0 12 -0.1953125 9.1796875 C-0.17210937 8.08914063 -0.14890625 6.99859375 -0.125 5.875 C-0.10695313 4.77929688 -0.08890625 3.68359375 -0.0703125 2.5546875 C-0.04710937 1.71164062 -0.02390625 0.86859375 0 0 Z " fill="#797A7C" transform="translate(391,256)"/>
<path d="M0 0 C0.99 0 1.98 0 3 0 C3 0.66 3 1.32 3 2 C3.66 2 4.32 2 5 2 C5 2.66 5 3.32 5 4 C4.34 4 3.68 4 3 4 C3 6.64 3 9.28 3 12 C3.66 12 4.32 12 5 12 C5 12.66 5 13.32 5 14 C1.125 13.125 1.125 13.125 0 12 C-0.26007212 10.36154566 -0.45922323 8.71316296 -0.625 7.0625 C-0.72039062 6.16660156 -0.81578125 5.27070313 -0.9140625 4.34765625 C-1 2 -1 2 0 0 Z " fill="#67696C" transform="translate(343,220)"/>
<path d="M0 0 C1.2065625 0.0309375 1.2065625 0.0309375 2.4375 0.0625 C2.7675 1.0525 3.0975 2.0425 3.4375 3.0625 C2.1175 3.0625 0.7975 3.0625 -0.5625 3.0625 C-0.5625 6.3625 -0.5625 9.6625 -0.5625 13.0625 C-1.5525 13.0625 -2.5425 13.0625 -3.5625 13.0625 C-3.58936553 11.08340602 -3.60883375 9.10421029 -3.625 7.125 C-3.63660156 6.02285156 -3.64820313 4.92070312 -3.66015625 3.78515625 C-3.52747618 0.086036 -3.52747618 0.086036 0 0 Z " fill="#333333" transform="translate(524.5625,178.9375)"/>
<path d="M0 0 C1.60725635 3.21451269 1.05748185 6.43612536 1 10 C0.34 10 -0.32 10 -1 10 C-1.33 7.36 -1.66 4.72 -2 2 C-2.99 2 -3.98 2 -5 2 C-5.33 4.64 -5.66 7.28 -6 10 C-6.66 10 -7.32 10 -8 10 C-8 6.7 -8 3.4 -8 0 C-4.69693408 -1.10102197 -3.28414305 -0.95067299 0 0 Z " fill="#8E8F90" transform="translate(555,44)"/>
<path d="M0 0 C3.375 -0.125 3.375 -0.125 7 0 C9 2 9 2 9.1953125 3.9453125 C9.13020833 5.96354167 9.06510417 7.98177083 9 10 C8.34 10 7.68 10 7 10 C6.67 7.69 6.34 5.38 6 3 C5.01 3 4.02 3 3 3 C2.67 5.31 2.34 7.62 2 10 C1.34 10 0.68 10 0 10 C0 6.7 0 3.4 0 0 Z " fill="#88898A" transform="translate(432,259)"/>
<path d="M0 0 C0 2.97 0 5.94 0 9 C-0.66 9 -1.32 9 -2 9 C-2.33 6.36 -2.66 3.72 -3 1 C-3.99 1 -4.98 1 -6 1 C-6.33 3.64 -6.66 6.28 -7 9 C-7.66 9 -8.32 9 -9 9 C-9 5.7 -9 2.4 -9 -1 C-4.70600835 -2.07349791 -3.80504787 -1.79682816 0 0 Z " fill="#8B8B8D" transform="translate(489,260)"/>
<path d="M0 0 C3.375 -0.125 3.375 -0.125 7 0 C9 2 9 2 9.1953125 4.3828125 C9.17210937 5.28773437 9.14890625 6.19265625 9.125 7.125 C9.10695313 8.03507812 9.08890625 8.94515625 9.0703125 9.8828125 C9.04710937 10.58148438 9.02390625 11.28015625 9 12 C8.67 12 8.34 12 8 12 C7.67 8.7 7.34 5.4 7 2 C5.68 2.33 4.36 2.66 3 3 C2.67 5.97 2.34 8.94 2 12 C1.34 12 0.68 12 0 12 C0 8.04 0 4.08 0 0 Z " fill="#525457" transform="translate(363,8)"/>
<path d="M0 0 C2.125 0.375 2.125 0.375 4 1 C5.125 5.75 5.125 5.75 4 8 C2.35 8 0.7 8 -1 8 C-1.625 5.125 -1.625 5.125 -2 2 C-1.34 1.34 -0.68 0.68 0 0 Z " fill="#F3F3F3" transform="translate(412,223)"/>
<path d="M0 0 C2.97 0.495 2.97 0.495 6 1 C6.875 3.0625 6.875 3.0625 7 6 C5.26080867 8.59005725 3.19602066 10.79124879 1 13 C2.98 13 4.96 13 7 13 C7 13.33 7 13.66 7 14 C4.03 14 1.06 14 -2 14 C0.64238411 9.34437086 0.64238411 9.34437086 2.6875 7.375 C4.34523787 5.95513278 4.34523787 5.95513278 4 3 C2.02 3.33 0.04 3.66 -2 4 C-1.34 2.68 -0.68 1.36 0 0 Z " fill="#5C5E61" transform="translate(334,80)"/>
<path d="M0 0 C3.69230769 0.69230769 3.69230769 0.69230769 5 2 C5.04063832 3.66617115 5.042721 5.33388095 5 7 C2.625 7.625 2.625 7.625 0 8 C-0.66 7.34 -1.32 6.68 -2 6 C-1.44444444 1.44444444 -1.44444444 1.44444444 0 0 Z " fill="#F2F2F2" transform="translate(408,9)"/>
<path d="M0 0 C1.65 0 3.3 0 5 0 C5.625 2.875 5.625 2.875 6 6 C5.34 6.66 4.68 7.32 4 8 C1.875 7.625 1.875 7.625 0 7 C-1.125 2.25 -1.125 2.25 0 0 Z " fill="#EDEDED" transform="translate(444,9)"/>
<path d="M0 0 C2.01822917 0.06510417 4.03645833 0.13020833 6.0546875 0.1953125 C6.0546875 2.5053125 6.0546875 4.8153125 6.0546875 7.1953125 C5.3946875 5.8753125 4.7346875 4.5553125 4.0546875 3.1953125 C2.4046875 3.1953125 0.7546875 3.1953125 -0.9453125 3.1953125 C-1.29431808 6.91267891 -1.29431808 6.91267891 0.5546875 10.0078125 C1.0496875 10.3996875 1.5446875 10.7915625 2.0546875 11.1953125 C-0.3828125 10.8203125 -0.3828125 10.8203125 -2.9453125 10.1953125 C-4.32656268 7.43281214 -4.13610556 5.24800151 -3.9453125 2.1953125 C-1.9453125 0.1953125 -1.9453125 0.1953125 0 0 Z " fill="#5F6264" transform="translate(448.9453125,220.8046875)"/>
<path d="M0 0 C2.31 0 4.62 0 7 0 C7 0.66 7 1.32 7 2 C5.68 2 4.36 2 3 2 C3 5.3 3 8.6 3 12 C2.01 12 1.02 12 0 12 C0 8.04 0 4.08 0 0 Z " fill="#161616" transform="translate(311,183)"/>
<path d="M0 0 C1.67542976 0.28604898 3.34385343 0.61781233 5 1 C5 2.98 5 4.96 5 7 C3.34385343 7.38218767 1.67542976 7.71395102 0 8 C-1 7 -1 7 -1.125 4 C-1 1 -1 1 0 0 Z " fill="#F6F6F6" transform="translate(378,10)"/>
<path d="M0 0 C1.66611905 -0.042721 3.33382885 -0.04063832 5 0 C6 1 6 1 6.1875 3.4375 C6 6 6 6 4 8 C1.875 7.625 1.875 7.625 0 7 C0 4.69 0 2.38 0 0 Z " fill="#F3F3F3" transform="translate(381,224)"/>
<path d="M0 0 C0.66 0 1.32 0 2 0 C2 0.99 2 1.98 2 3 C2.66 3.33 3.32 3.66 4 4 C3.67 6.64 3.34 9.28 3 12 C3.66 12 4.32 12 5 12 C5 12.66 5 13.32 5 14 C3.68 14 2.36 14 1 14 C0.63495397 12.41913952 0.28339494 10.83516093 -0.0625 9.25 C-0.25972656 8.36828125 -0.45695313 7.4865625 -0.66015625 6.578125 C-0.99825872 4.01320972 -0.81158635 2.42908361 0 0 Z " fill="#717376" transform="translate(525,3)"/>
<path d="M0 0 C2.31 0 4.62 0 7 0 C8.60725635 3.21451269 8.05748185 6.43612536 8 10 C7.67 10 7.34 10 7 10 C6.67 7.69 6.34 5.38 6 3 C5.01 3 4.02 3 3 3 C2.67 5.64 2.34 8.28 2 11 C1.34 11 0.68 11 0 11 C0 7.37 0 3.74 0 0 Z " fill="#838486" transform="translate(319,47)"/>
<path d="M0 0 C2.33294775 -0.04241723 4.66702567 -0.04092937 7 0 C8 1 8 1 8.09765625 3.06640625 C8.08605469 3.89011719 8.07445312 4.71382813 8.0625 5.5625 C8.05347656 6.38878906 8.04445313 7.21507812 8.03515625 8.06640625 C8.02355469 8.70449219 8.01195312 9.34257812 8 10 C7.67 10 7.34 10 7 10 C6.67 7.69 6.34 5.38 6 3 C5.01 3 4.02 3 3 3 C2.67 5.31 2.34 7.62 2 10 C1.34 10 0.68 10 0 10 C0 6.7 0 3.4 0 0 Z " fill="#808182" transform="translate(551,257)"/>
<path d="M0 0 C1.98 0 3.96 0 6 0 C6 0.66 6 1.32 6 2 C5.01 2 4.02 2 3 2 C3 5.3 3 8.6 3 12 C2.01 11.67 1.02 11.34 0 11 C0 7.37 0 3.74 0 0 Z " fill="#7E7F82" transform="translate(312,223)"/>
<path d="M0 0 C2.375 -0.125 2.375 -0.125 5 0 C7 2 7 2 7.1953125 4.1640625 C7.17210937 4.97617188 7.14890625 5.78828125 7.125 6.625 C7.10695313 7.44226563 7.08890625 8.25953125 7.0703125 9.1015625 C7.03550781 10.04128906 7.03550781 10.04128906 7 11 C6.01 10.34 5.02 9.68 4 9 C4.33 8.01 4.66 7.02 5 6 C4.01 5.67 3.02 5.34 2 5 C2.99 5 3.98 5 5 5 C4.67 4.34 4.34 3.68 4 3 C2.02 3.33 0.04 3.66 -2 4 C-1.34 2.68 -0.68 1.36 0 0 Z " fill="#4A4D50" transform="translate(357,222)"/>
<path d="M0 0 C1.2065625 0.0309375 1.2065625 0.0309375 2.4375 0.0625 C2.4375 2.0425 2.4375 4.0225 2.4375 6.0625 C0.78135343 6.44468767 -0.88707024 6.77645102 -2.5625 7.0625 C-3.5625 6.0625 -3.5625 6.0625 -3.6875 3.5625 C-3.51717518 0.15600356 -3.41884482 0.08338646 0 0 Z " fill="#FAFAFA" transform="translate(450.5625,222.9375)"/>
<path d="M0 0 C0.66 0 1.32 0 2 0 C2 0.66 2 1.32 2 2 C2.66 2 3.32 2 4 2 C4 2.66 4 3.32 4 4 C3.34 4 2.68 4 2 4 C2 6.64 2 9.28 2 12 C2.66 12 3.32 12 4 12 C4 12.66 4 13.32 4 14 C2.68 13.67 1.36 13.34 0 13 C0 10.03 0 7.06 0 4 C-0.66 4 -1.32 4 -2 4 C-2 3.34 -2 2.68 -2 2 C-1.34 2 -0.68 2 0 2 C0 1.34 0 0.68 0 0 Z " fill="#5E6163" transform="translate(529,217)"/>
<path d="M0 0 C0.53625 0.28875 1.0725 0.5775 1.625 0.875 C4.35280484 2.16711808 7.12612718 3.08558592 10 4 C9.67 4.99 9.34 5.98 9 7 C7.88625 6.79375 6.7725 6.5875 5.625 6.375 C4.42875 6.25125 3.2325 6.1275 2 6 C1.34 6.66 0.68 7.32 0 8 C0 5.36 0 2.72 0 0 Z " fill="#E6E7E7" transform="translate(329,226)"/>
<path d="M0 0 C2.125 0.9375 2.125 0.9375 4 2 C4 3.65 4 5.3 4 7 C1.36 7 -1.28 7 -4 7 C-4 6.67 -4 6.34 -4 6 C-1.69 6 0.62 6 3 6 C1.87465895 4.64381501 1.87465895 4.64381501 -1.0625 4.9375 C-2.031875 4.958125 -3.00125 4.97875 -4 5 C-2.25 1.125 -2.25 1.125 0 0 Z " fill="#707070" transform="translate(514,180)"/>
<path d="M0 0 C1.98 0 3.96 0 6 0 C6.33 0.66 6.66 1.32 7 2 C5.35 2 3.7 2 2 2 C2.9590625 2.3403125 2.9590625 2.3403125 3.9375 2.6875 C6 4 6 4 6.75 6.625 C6.8325 7.40875 6.915 8.1925 7 9 C5.02 9.33 3.04 9.66 1 10 C0.34 9.01 -0.32 8.02 -1 7 C1.97 7.495 1.97 7.495 5 8 C3.74458443 5.48916886 2.49936512 5.12874554 0 4 C0 2.68 0 1.36 0 0 Z " fill="#626467" transform="translate(424,83)"/>
<path d="M0 0 C0.78375 0.2475 1.5675 0.495 2.375 0.75 C2.705 1.41 3.035 2.07 3.375 2.75 C2.43921005 5.10981813 1.44152192 7.44631264 0.375 9.75 C-0.945 9.75 -2.265 9.75 -3.625 9.75 C-3.295 8.1 -2.965 6.45 -2.625 4.75 C-1.305 4.75 0.015 4.75 1.375 4.75 C1.375 3.76 1.375 2.77 1.375 1.75 C-0.935 2.41 -3.245 3.07 -5.625 3.75 C-5.625 3.09 -5.625 2.43 -5.625 1.75 C-2.625 -0.25 -2.625 -0.25 0 0 Z " fill="#9C9E9F" transform="translate(356.625,8.25)"/>
<path d="M0 0 C0.33 0 0.66 0 1 0 C1.33 2.31 1.66 4.62 2 7 C2.99 6.01 3.98 5.02 5 4 C5.66 4.33 6.32 4.66 7 5 C6.608125 5.556875 6.21625 6.11375 5.8125 6.6875 C5.4103125 7.8321875 5.4103125 7.8321875 5 9 C6.28184562 11.74832154 6.28184562 11.74832154 8 14 C5.50638429 12.79618552 3.31856917 11.54571278 1 10 C0.67 11.32 0.34 12.64 0 14 C0 9.38 0 4.76 0 0 Z " fill="#78797B" transform="translate(518,254)"/>
<path d="M0 0 C2.125 0.375 2.125 0.375 4 1 C4.625 2.875 4.625 2.875 5 5 C4.34 5.66 3.68 6.32 3 7 C0.875 6.625 0.875 6.625 -1 6 C-1.625 4.125 -1.625 4.125 -2 2 C-1.34 1.34 -0.68 0.68 0 0 Z " fill="#525558" transform="translate(471,222)"/>
<path d="M0 0 C2.125 0.375 2.125 0.375 4 1 C4 2.65 4 4.3 4 6 C2.35 6.33 0.7 6.66 -1 7 C-1.625 4.625 -1.625 4.625 -2 2 C-1.34 1.34 -0.68 0.68 0 0 Z " fill="#F4F4F4" transform="translate(362,262)"/>
<path d="M0 0 C1.32 0.66 2.64 1.32 4 2 C3.67 3.65 3.34 5.3 3 7 C1.68 7 0.36 7 -1 7 C-1.625 4.625 -1.625 4.625 -2 2 C-1.34 1.34 -0.68 0.68 0 0 Z " fill="#F1F1F1" transform="translate(565,258)"/>
<path d="M0 0 C2.64 0.33 5.28 0.66 8 1 C8 1.66 8 2.32 8 3 C6.02 3 4.04 3 2 3 C2 4.65 2 6.3 2 8 C4.31 8 6.62 8 9 8 C9 8.33 9 8.66 9 9 C6.03 9 3.06 9 0 9 C0 6.03 0 3.06 0 0 Z " fill="#0A0A0A" transform="translate(437,183)"/>
<path d="M0 0 C2.0625 0.4375 2.0625 0.4375 4 1 C4.33 2.65 4.66 4.3 5 6 C3.34385343 6.38218767 1.67542976 6.71395102 0 7 C-1 6 -1 6 -1.125 3.5 C-1 1 -1 1 0 0 Z " fill="#EEEEEF" transform="translate(410,47)"/>
<path d="M0 0 C1.65 0.33 3.3 0.66 5 1 C5 2.65 5 4.3 5 6 C3.35 6.33 1.7 6.66 0 7 C-1.125 2.25 -1.125 2.25 0 0 Z " fill="#F2F2F3" transform="translate(560,45)"/>
<path d="M0 0 C2.33294775 -0.04241723 4.66702567 -0.04092937 7 0 C8 1 8 1 8.09765625 3.06640625 C8.08605469 3.89011719 8.07445312 4.71382812 8.0625 5.5625 C8.05347656 6.38878906 8.04445313 7.21507812 8.03515625 8.06640625 C8.02355469 8.70449219 8.01195312 9.34257813 8 10 C7.34 10 6.68 10 6 10 C5.67 7.36 5.34 4.72 5 2 C3.68 2 2.36 2 1 2 C1 4.64 1 7.28 1 10 C0.67 10 0.34 10 0 10 C0 6.7 0 3.4 0 0 Z " fill="#7B7C7E" transform="translate(477,45)"/>
<path d="M0 0 C1.65 0 3.3 0 5 0 C5.38218767 1.65614657 5.71395102 3.32457024 6 5 C5 6 5 6 2.4375 6.0625 C1.2309375 6.0315625 1.2309375 6.0315625 0 6 C-1.125 2.25 -1.125 2.25 0 0 Z " fill="#515457" transform="translate(466,9)"/>
<path d="M0 0 C3.125 -0.1875 3.125 -0.1875 6 0 C6.33 0.66 6.66 1.32 7 2 C6.67 2.99 6.34 3.98 6 5 C3.69 5 1.38 5 -1 5 C-1.33 4.34 -1.66 3.68 -2 3 C-1.34 2.01 -0.68 1.02 0 0 Z " fill="#9C9E9F" transform="translate(557,5)"/>
<path d="M0 0 C0.33 0.66 0.66 1.32 1 2 C-0.98 2 -2.96 2 -5 2 C-4.67 4.64 -4.34 7.28 -4 10 C-4.99 10 -5.98 10 -7 10 C-8.33359073 3.57451737 -8.33359073 3.57451737 -6.875 1.0625 C-4.46420662 -0.30361625 -2.72705554 -0.22111261 0 0 Z " fill="#6E7073" transform="translate(386,222)"/>
<path d="M0 0 C0.99 0 1.98 0 3 0 C3 3.63 3 7.26 3 11 C1.35 11 -0.3 11 -2 11 C-1.34 10.67 -0.68 10.34 0 10 C0 6.7 0 3.4 0 0 Z " fill="#121212" transform="translate(349,183)"/>
<path d="M0 0 C1.32 0 2.64 0 4 0 C4.625 2.375 4.625 2.375 5 5 C4.34 5.66 3.68 6.32 3 7 C2.01 7 1.02 7 0 7 C-0.38133299 5.0085944 -0.71325582 3.00720923 -1 1 C-0.67 0.67 -0.34 0.34 0 0 Z " fill="#F3F3F3" transform="translate(332,49)"/>
<path d="M0 0 C1.44197868 2.88395737 1.58833581 5.82430479 2 9 C2.99 9.33 3.98 9.66 5 10 C4.34 10 3.68 10 3 10 C3 11.32 3 12.64 3 14 C1.68 14 0.36 14 -1 14 C-0.814375 13.195625 -0.62875 12.39125 -0.4375 11.5625 C-0.293125 10.716875 -0.14875 9.87125 0 9 C-0.33 8.67 -0.66 8.34 -1 8 C-1.125 4.5 -1.125 4.5 -1 1 C-0.67 0.67 -0.34 0.34 0 0 Z " fill="#973D3F" transform="translate(406,9)"/>
<path d="M0 0 C1.65 0 3.3 0 5 0 C5 1.98 5 3.96 5 6 C3.0625 6.5625 3.0625 6.5625 1 7 C0 6 0 6 -0.0625 2.9375 C-0.041875 1.968125 -0.02125 0.99875 0 0 Z " fill="#F2F2F2" transform="translate(335,263)"/>
<path d="M0 0 C0.66 0.66 1.32 1.32 2 2 C5.58343976 2.16677282 5.58343976 2.16677282 9 2 C9 2.66 9 3.32 9 4 C8.05125 4.226875 7.1025 4.45375 6.125 4.6875 C2.80676612 5.69083714 2.80676612 5.69083714 1.625 8.625 C1.41875 9.40875 1.2125 10.1925 1 11 C0.67 11 0.34 11 0 11 C0 7.37 0 3.74 0 0 Z " fill="#EBEBEC" transform="translate(338,47)"/>
<path d="M0 0 C2.0625 0.4375 2.0625 0.4375 4 1 C4 2.98 4 4.96 4 7 C2.35 7 0.7 7 -1 7 C-1.04254356 5.00045254 -1.04080783 2.99958364 -1 1 C-0.67 0.67 -0.34 0.34 0 0 Z " fill="#F6F6F6" transform="translate(358,48)"/>
<path d="M0 0 C0.66 0 1.32 0 2 0 C2 0.99 2 1.98 2 3 C2.66 3.33 3.32 3.66 4 4 C3.34 4 2.68 4 2 4 C2 6.97 2 9.94 2 13 C2.66 13.33 3.32 13.66 4 14 C2.68 13.67 1.36 13.34 0 13 C0 10.03 0 7.06 0 4 C-0.66 3.67 -1.32 3.34 -2 3 C-1.34 3 -0.68 3 0 3 C0 2.01 0 1.02 0 0 Z " fill="#535659" transform="translate(340,6)"/>
<path d="M0 0 C2.0625 0.4375 2.0625 0.4375 4 1 C4 2.98 4 4.96 4 7 C2.35 6.67 0.7 6.34 -1 6 C-1.042721 4.33388095 -1.04063832 2.66617115 -1 1 C-0.67 0.67 -0.34 0.34 0 0 Z " fill="#F9F9F9" transform="translate(414,261)"/>
<path d="M0 0 C0.99 0.33 1.98 0.66 3 1 C3 4.3 3 7.6 3 11 C2.01 11 1.02 11 0 11 C0 7.37 0 3.74 0 0 Z " fill="#222222" transform="translate(489,181)"/>
<path d="M0 0 C2.0625 0.4375 2.0625 0.4375 4 1 C4 2.98 4 4.96 4 7 C2.35 6.67 0.7 6.34 -1 6 C-1.042721 4.33388095 -1.04063832 2.66617115 -1 1 C-0.67 0.67 -0.34 0.34 0 0 Z " fill="#F9F9F9" transform="translate(313,86)"/>
<path d="M0 0 C4.875 0.875 4.875 0.875 6 2 C6.07205511 3.68608966 6.08386068 5.37500659 6.0625 7.0625 C6.05347656 7.98160156 6.04445313 8.90070312 6.03515625 9.84765625 C6.02355469 10.55792969 6.01195312 11.26820312 6 12 C5.34 12 4.68 12 4 12 C3.67 9.03 3.34 6.06 3 3 C1.68 3 0.36 3 -1 3 C-0.67 2.01 -0.34 1.02 0 0 Z " fill="#66686B" transform="translate(547,5)"/>
<path d="M0 0 C1.65 0 3.3 0 5 0 C5.66 1.32 6.32 2.64 7 4 C6 5 6 5 2.9375 5.0625 C1.4834375 5.0315625 1.4834375 5.0315625 0 5 C0 3.35 0 1.7 0 0 Z " fill="#EDEDED" transform="translate(302,265)"/>
<path d="M0 0 C1.67542976 0.28604898 3.34385343 0.61781233 5 1 C5.33 2.32 5.66 3.64 6 5 C4.02 5.33 2.04 5.66 0 6 C-0.38218767 4.34385343 -0.71395102 2.67542976 -1 1 C-0.67 0.67 -0.34 0.34 0 0 Z " fill="#B3B3B4" transform="translate(488,49)"/>
<path d="M0 0 C1.65 0 3.3 0 5 0 C5 0.66 5 1.32 5 2 C4.01 2.495 4.01 2.495 3 3 C2.53348793 5.12576782 2.53348793 5.12576782 2.375 7.5625 C2.30023438 8.38878906 2.22546875 9.21507812 2.1484375 10.06640625 C2.09945313 10.70449219 2.05046875 11.34257812 2 12 C1.34 12 0.68 12 0 12 C0 8.04 0 4.08 0 0 Z " fill="#5C5F62" transform="translate(309,9)"/>
<path d="M0 0 C0.33 0 0.66 0 1 0 C1 2.64 1 5.28 1 8 C-1.97 7.505 -1.97 7.505 -5 7 C-5 5.68 -5 4.36 -5 3 C-3.68 3 -2.36 3 -1 3 C-0.67 2.01 -0.34 1.02 0 0 Z " fill="#C0C0C1" transform="translate(471,261)"/>
<path d="M0 0 C-0.33 1.65 -0.66 3.3 -1 5 C-2.65 4.67 -4.3 4.34 -6 4 C-6 2.68 -6 1.36 -6 0 C-3.50907189 -1.24546405 -2.58919267 -0.7767578 0 0 Z " fill="#B0B0B1" transform="translate(583,262)"/>
<path d="M0 0 C0.598125 0.226875 1.19625 0.45375 1.8125 0.6875 C0.4925 1.6775 -0.8275 2.6675 -2.1875 3.6875 C-1.8575 5.9975 -1.5275 8.3075 -1.1875 10.6875 C-2.5075 10.0275 -3.8275 9.3675 -5.1875 8.6875 C-5.55003776 3.24943353 -5.55003776 3.24943353 -3.9375 0.75 C-2.1875 -0.3125 -2.1875 -0.3125 0 0 Z " fill="#636568" transform="translate(413.1875,221.3125)"/>
<path d="M0 0 C1.65 0.33 3.3 0.66 5 1 C5.33 1.99 5.66 2.98 6 4 C3.29120665 5.35439668 0.99066732 5.06501451 -2 5 C-1.34 3.35 -0.68 1.7 0 0 Z " fill="#6B6B6B" transform="translate(499,180)"/>
<path d="M0 0 C1.98 0 3.96 0 6 0 C5.67 1.65 5.34 3.3 5 5 C3.35 4.67 1.7 4.34 0 4 C0 2.68 0 1.36 0 0 Z " fill="#B7B7B8" transform="translate(309,53)"/>
<path d="M0 0 C0.99 0.33 1.98 0.66 3 1 C3 3.97 3 6.94 3 10 C2.01 10 1.02 10 0 10 C0 6.7 0 3.4 0 0 Z " fill="#A6A7A9" transform="translate(428,46)"/>
<path d="M0 0 C1.65 0 3.3 0 5 0 C5.5625 1.9375 5.5625 1.9375 6 4 C5 5 5 5 2.4375 5.0625 C1.2309375 5.0315625 1.2309375 5.0315625 0 5 C0 3.35 0 1.7 0 0 Z " fill="#E5E5E5" transform="translate(302,259)"/>
<path d="M0 0 C0.66 0 1.32 0 2 0 C3.37432457 3.81756824 2.67975039 7.07255329 2 11 C2.66 11.33 3.32 11.66 4 12 C2.68 11.67 1.36 11.34 0 11 C-1.125 3.375 -1.125 3.375 0 0 Z " fill="#7D7E7F" transform="translate(498,42)"/>
<path d="M0 0 C2.5625 -0.25 2.5625 -0.25 5 0 C6 1 6 1 6.09765625 3.06640625 C6.08605469 3.89011719 6.07445312 4.71382813 6.0625 5.5625 C6.05347656 6.38878906 6.04445313 7.21507812 6.03515625 8.06640625 C6.02355469 8.70449219 6.01195312 9.34257812 6 10 C5.67 10 5.34 10 5 10 C5 8.35 5 6.7 5 5 C4.01 4.67 3.02 4.34 2 4 C2.66 4 3.32 4 4 4 C4 3.34 4 2.68 4 2 C2.02 2.33 0.04 2.66 -2 3 C-1.34 2.01 -0.68 1.02 0 0 Z " fill="#7F8082" transform="translate(509,258)"/>
<path d="M0 0 C0.33 0.66 0.66 1.32 1 2 C1.66 2.33 2.32 2.66 3 3 C3 5.97 3 8.94 3 12 C2.01 11.67 1.02 11.34 0 11 C0 8.69 0 6.38 0 4 C-0.66 4 -1.32 4 -2 4 C-2 3.34 -2 2.68 -2 2 C-1.34 2 -0.68 2 0 2 C0 1.34 0 0.68 0 0 Z " fill="#828385" transform="translate(502,256)"/>
<path d="M0 0 C1.65 0 3.3 0 5 0 C5 0.66 5 1.32 5 2 C4.01 2.495 4.01 2.495 3 3 C2.59270772 5.32156597 2.25561323 7.6568787 2 10 C1.34 10 0.68 10 0 10 C0 6.7 0 3.4 0 0 Z " fill="#6C6E70" transform="translate(321,84)"/>
<path d="M0 0 C2.31 0 4.62 0 7 0 C7.33 1.32 7.66 2.64 8 4 C5.16032769 4 2.76264289 3.59732819 0 3 C0 2.01 0 1.02 0 0 Z " fill="#EAEAEA" transform="translate(561,225)"/>
<path d="M0 0 C0.81210938 0.55300781 0.81210938 0.55300781 1.640625 1.1171875 C1.640625 1.4471875 1.640625 1.7771875 1.640625 2.1171875 C-0.10722329 2.48182482 -1.85778002 2.8334953 -3.609375 3.1796875 C-5.07117188 3.47552734 -5.07117188 3.47552734 -6.5625 3.77734375 C-9.227494 4.10116285 -10.84809223 3.97221949 -13.359375 3.1171875 C-11.61703675 2.39021189 -9.86510155 1.68620506 -8.109375 0.9921875 C-7.13484375 0.59773437 -6.1603125 0.20328125 -5.15625 -0.203125 C-2.359375 -0.8828125 -2.359375 -0.8828125 0 0 Z " fill="#FDE831" transform="translate(238.359375,196.8828125)"/>
<path d="M0 0 C0 0.66 0 1.32 0 2 C-0.99 2.495 -0.99 2.495 -2 3 C-2.46523063 4.89533342 -2.46523063 4.89533342 -2.625 7.0625 C-2.74875 8.361875 -2.8725 9.66125 -3 11 C-3.66 11 -4.32 11 -5 11 C-5 7.7 -5 4.4 -5 1 C-2 0 -2 0 0 0 Z " fill="#868789" transform="translate(371,46)"/>
<path d="M0 0 C1.98 0 3.96 0 6 0 C5.67 1.65 5.34 3.3 5 5 C3.68 4.67 2.36 4.34 1 4 C0.67 2.68 0.34 1.36 0 0 Z " fill="#B7B8B9" transform="translate(312,267)"/>
<path d="M0 0 C0.33 0.66 0.66 1.32 1 2 C1.66 2.33 2.32 2.66 3 3 C3 5.97 3 8.94 3 12 C2.01 11.67 1.02 11.34 0 11 C0 8.36 0 5.72 0 3 C-0.66 2.67 -1.32 2.34 -2 2 C-1.34 2 -0.68 2 0 2 C0 1.34 0 0.68 0 0 Z " fill="#5E6164" transform="translate(455,80)"/>
<path d="M0 0 C1.65 0 3.3 0 5 0 C5 1.65 5 3.3 5 5 C3.35 5 1.7 5 0 5 C0 3.35 0 1.7 0 0 Z " fill="#FAFAFA" transform="translate(398,81)"/>
<path d="M0 0 C2.64 0 5.28 0 8 0 C6.515 1.98 6.515 1.98 5 4 C3.35 3.67 1.7 3.34 0 3 C0 2.01 0 1.02 0 0 Z " fill="#E7E7E8" transform="translate(557,11)"/>
<path d="M0 0 C2.64 0 5.28 0 8 0 C8 1.98 8 3.96 8 6 C6.66402348 5.19185349 5.331275 4.37836819 4 3.5625 C3.2575 3.11003906 2.515 2.65757812 1.75 2.19140625 C1.1725 1.79824219 0.595 1.40507812 0 1 C0 0.67 0 0.34 0 0 Z " fill="#F4F4F4" transform="translate(670,0)"/>
<path d="M0 0 C1.65 0 3.3 0 5 0 C4.34 0.66 3.68 1.32 3 2 C2.54188325 3.97235333 2.54188325 3.97235333 2.375 6.125 C2.25125 7.40375 2.1275 8.6825 2 10 C1.34 10 0.68 10 0 10 C0 6.7 0 3.4 0 0 Z " fill="#828284" transform="translate(474,259)"/>
<path d="M0 0 C0.66 0 1.32 0 2 0 C2.06058594 0.62648437 2.12117188 1.25296875 2.18359375 1.8984375 C2.26738281 2.71570313 2.35117187 3.53296875 2.4375 4.375 C2.51871094 5.18710938 2.59992188 5.99921875 2.68359375 6.8359375 C2.89090114 9.04272805 2.89090114 9.04272805 4 11 C2.68 10.67 1.36 10.34 0 10 C0 6.7 0 3.4 0 0 Z " fill="#515457" transform="translate(421,221)"/>
<path d="M0 0 C1.32 0 2.64 0 4 0 C4 1.98 4 3.96 4 6 C2.68 6 1.36 6 0 6 C0 4.02 0 2.04 0 0 Z " fill="#F8F8F8" transform="translate(465,183)"/>
<path d="M0 0 C1.65 0 3.3 0 5 0 C4.34 0.66 3.68 1.32 3 2 C2.54188325 3.97235333 2.54188325 3.97235333 2.375 6.125 C2.25125 7.40375 2.1275 8.6825 2 10 C1.34 10 0.68 10 0 10 C0 6.7 0 3.4 0 0 Z " fill="#67696C" transform="translate(407,83)"/>
<path d="M0 0 C1.66611905 -0.042721 3.33382885 -0.04063832 5 0 C6 1 6 1 6.09765625 3.06640625 C6.08605469 3.89011719 6.07445312 4.71382812 6.0625 5.5625 C6.05347656 6.38878906 6.04445313 7.21507812 6.03515625 8.06640625 C6.01775391 9.02353516 6.01775391 9.02353516 6 10 C5.34 10 4.68 10 4 10 C3.83723958 7.98177083 3.67447917 5.96354167 3.51171875 3.9453125 C3.12606964 1.60480784 3.12606964 1.60480784 0 0 Z " fill="#858587" transform="translate(431,46)"/>
<path d="M0 0 C1.65 0 3.3 0 5 0 C4.34 0.66 3.68 1.32 3 2 C2.54188325 3.97235333 2.54188325 3.97235333 2.375 6.125 C2.25125 7.40375 2.1275 8.6825 2 10 C1.34 10 0.68 10 0 10 C0 6.7 0 3.4 0 0 Z " fill="#828284" transform="translate(470,45)"/>
<path d="M0 0 C1.32 0 2.64 0 4 0 C4 1.32 4 2.64 4 4 C2.02 4.33 0.04 4.66 -2 5 C-1.34 3.35 -0.68 1.7 0 0 Z " fill="#BEBEBF" transform="translate(347,266)"/>
<path d="M0 0 C0.99 0 1.98 0 3 0 C3 0.66 3 1.32 3 2 C3.66 2 4.32 2 5 2 C4.67 2.66 4.34 3.32 4 4 C3.01 3.67 2.02 3.34 1 3 C1 5.97 1 8.94 1 12 C0.67 12 0.34 12 0 12 C-0.19477739 10.37585622 -0.38059458 8.75063577 -0.5625 7.125 C-0.66691406 6.22007812 -0.77132813 5.31515625 -0.87890625 4.3828125 C-1 2 -1 2 0 0 Z " fill="#8E8F92" transform="translate(343,220)"/>
<path d="M0 0 C0.391875 0.474375 0.78375 0.94875 1.1875 1.4375 C3.40808374 3.35179633 5.13375709 3.61266988 8 4 C8 4.66 8 5.32 8 6 C5.66705225 6.04241723 3.33297433 6.04092937 1 6 C0 5 0 5 -0.0625 2.4375 C-0.041875 1.633125 -0.02125 0.82875 0 0 Z " fill="#0C0C0C" transform="translate(408,187)"/>
<path d="M0 0 C1.134375 0.020625 2.26875 0.04125 3.4375 0.0625 C2.1875 1.5625 2.1875 1.5625 0.4375 3.0625 C-0.8825 3.0625 -2.2025 3.0625 -3.5625 3.0625 C-3.5625 4.7125 -3.5625 6.3625 -3.5625 8.0625 C-4.5525 7.0725 -5.5425 6.0825 -6.5625 5.0625 C-4.14811644 0.07277397 -4.14811644 0.07277397 0 0 Z " fill="#404040" transform="translate(468.5625,179.9375)"/>
<path d="M0 0 C1.65 0 3.3 0 5 0 C5 1.32 5 2.64 5 4 C3.35 4 1.7 4 0 4 C0 2.68 0 1.36 0 0 Z " fill="#FEFEFE" transform="translate(299,52)"/>
<path d="M0 0 C0.99 0 1.98 0 3 0 C2.67 3.3 2.34 6.6 2 10 C1.34 10 0.68 10 0 10 C0 6.7 0 3.4 0 0 Z " fill="#868789" transform="translate(547,44)"/>
<path d="M0 0 C0.33 0 0.66 0 1 0 C1.04254356 1.99954746 1.04080783 4.00041636 1 6 C0 7 0 7 -3.5625 7.0625 C-4.696875 7.041875 -5.83125 7.02125 -7 7 C-7.33 6.01 -7.66 5.02 -8 4 C-5.03 4.495 -5.03 4.495 -2 5 C-1.34 3.35 -0.68 1.7 0 0 Z " fill="#535659" transform="translate(454,229)"/>
<path d="M0 0 C0.66 0 1.32 0 2 0 C2.28875 1.11375 2.5775 2.2275 2.875 3.375 C3.69241329 7.00291092 3.69241329 7.00291092 6 9 C3.5625 8.625 3.5625 8.625 1 8 C-0.35439668 5.29120665 -0.06501451 2.99066732 0 0 Z " fill="#515456" transform="translate(445,223)"/>
<path d="M0 0 C2.31 0 4.62 0 7 0 C7 0.99 7 1.98 7 3 C5.02 3 3.04 3 1 3 C0.67 2.01 0.34 1.02 0 0 Z " fill="#F1F1F2" transform="translate(373,52)"/>
<path d="M0 0 C1.32 0 2.64 0 4 0 C4 1.32 4 2.64 4 4 C2.35 4 0.7 4 -1 4 C-0.67 2.68 -0.34 1.36 0 0 Z " fill="#C6C6C7" transform="translate(378,262)"/>
<path d="M0 0 C1.98 0 3.96 0 6 0 C6.33 0.99 6.66 1.98 7 3 C6.34 3 5.68 3 5 3 C5 2.34 5 1.68 5 1 C4.01 1.33 3.02 1.66 2 2 C1.67 2.99 1.34 3.98 1 5 C0.34 5 -0.32 5 -1 5 C-0.67 3.35 -0.34 1.7 0 0 Z " fill="#595C5E" transform="translate(333,223)"/>
<path d="M0 0 C2.97 0.495 2.97 0.495 6 1 C6 1.99 6 2.98 6 4 C4.35 4 2.7 4 1 4 C0.67 2.68 0.34 1.36 0 0 Z " fill="#252525" transform="translate(387,190)"/>
<path d="M0 0 C0.66 0.66 1.32 1.32 2 2 C5.09926819 1.67801034 5.09926819 1.67801034 8 1 C7.67 1.99 7.34 2.98 7 4 C5.02 4.33 3.04 4.66 1 5 C0.67 3.35 0.34 1.7 0 0 Z " fill="#7A7D7F" transform="translate(434,88)"/>
<path d="M0 0 C0.66 1.32 1.32 2.64 2 4 C1 5 1 5 -2.0625 5.0625 C-3.031875 5.041875 -4.00125 5.02125 -5 5 C-5.33 4.01 -5.66 3.02 -6 2 C-3.03 2.495 -3.03 2.495 0 3 C0 2.01 0 1.02 0 0 Z " fill="#9A9A9C" transform="translate(336,56)"/>
<path d="M0 0 C1.65 0 3.3 0 5 0 C4.67 1.32 4.34 2.64 4 4 C2.68 4 1.36 4 0 4 C0 2.68 0 1.36 0 0 Z " fill="#FBFBFB" transform="translate(299,46)"/>
<path d="M0 0 C1.65 0 3.3 0 5 0 C5 0.99 5 1.98 5 3 C2.69 3.33 0.38 3.66 -2 4 C-1.34 2.68 -0.68 1.36 0 0 Z " fill="#696C6E" transform="translate(357,222)"/>
<path d="M0 0 C1.98 0 3.96 0 6 0 C6 0.99 6 1.98 6 3 C4.02 3 2.04 3 0 3 C0 2.01 0 1.02 0 0 Z " fill="#383838" transform="translate(368,186)"/>
<path d="M0 0 C2.64 0.33 5.28 0.66 8 1 C7.67 1.99 7.34 2.98 7 4 C5.35 4 3.7 4 2 4 C1.34 2.68 0.68 1.36 0 0 Z " fill="#6B6E70" transform="translate(442,19)"/>
<path d="M0 0 C0.99 0.33 1.98 0.66 3 1 C3.8125 2.8125 3.8125 2.8125 4 5 C3.0625 7.25 3.0625 7.25 2 9 C1.896875 8.05125 1.79375 7.1025 1.6875 6.125 C1.31460705 2.70892499 1.31460705 2.70892499 -2 1 C-1.34 0.67 -0.68 0.34 0 0 Z " fill="#77797B" transform="translate(349,80)"/>
<path d="M0 0 C0.33 1.32 0.66 2.64 1 4 C0.34 4 -0.32 4 -1 4 C-1.33 3.34 -1.66 2.68 -2 2 C-3.65 2.33 -5.3 2.66 -7 3 C-7 2.34 -7 1.68 -7 1 C-4.53721199 -0.231394 -2.7204945 -0.07159196 0 0 Z " fill="#838486" transform="translate(467,45)"/>
<path d="M0 0 C0.33 0.99 0.66 1.98 1 3 C-0.65 3.33 -2.3 3.66 -4 4 C-4.33 3.01 -4.66 2.02 -5 1 C-3.35 0.67 -1.7 0.34 0 0 Z " fill="#E0E0E1" transform="translate(449,17)"/>
</svg>
