<svg width="24" height="25" viewBox="0 0 24 25" fill="none" xmlns="http://www.w3.org/2000/svg">
<g id="chalkboard-user 1" clip-path="url(#clip0_40000599_3418)">
<path id="Vector" d="M7 14.375C9.206 14.375 11 12.581 11 10.375C11 8.169 9.206 6.375 7 6.375C4.794 6.375 3 8.169 3 10.375C3 12.581 4.794 14.375 7 14.375ZM7 8.375C8.103 8.375 9 9.272 9 10.375C9 11.478 8.103 12.375 7 12.375C5.897 12.375 5 11.478 5 10.375C5 9.272 5.897 8.375 7 8.375ZM14 23.375C14 23.928 13.552 24.375 13 24.375C12.448 24.375 12 23.928 12 23.375C12 20.618 9.757 18.375 7 18.375C4.243 18.375 2 20.618 2 23.375C2 23.928 1.552 24.375 1 24.375C0.448 24.375 0 23.928 0 23.375C0 19.516 3.14 16.375 7 16.375C10.86 16.375 14 19.516 14 23.375ZM24 5.375V13.375C24 16.132 21.757 18.375 19 18.375H15C14.448 18.375 14 17.928 14 17.375V15.375C14 14.822 14.448 14.375 15 14.375H18C18.552 14.375 19 14.822 19 15.375V16.375C20.654 16.375 22 15.029 22 13.375V5.375C22 3.721 20.654 2.375 19 2.375H9.465C8.397 2.375 7.401 2.95 6.866 3.876C6.589 4.354 5.978 4.519 5.5 4.24C5.021 3.964 4.858 3.352 5.135 2.874C6.027 1.333 7.686 0.375 9.466 0.375H19.001C21.758 0.375 24 2.618 24 5.375Z" fill="black"/>
</g>
<defs>
<clipPath id="clip0_40000599_3418">
<rect width="24" height="24" fill="white" transform="translate(0 0.375)"/>
</clipPath>
</defs>
</svg>
