<svg width="24" height="25" viewBox="0 0 24 25" fill="none" xmlns="http://www.w3.org/2000/svg">
<g id="checklist_rtl">
<mask id="mask0_40000499_6608" style="mask-type:alpha" maskUnits="userSpaceOnUse" x="0" y="0" width="24" height="25">
<rect id="Bounding box" y="0.375" width="24" height="24" fill="#D9D9D9"/>
</mask>
<g mask="url(#mask0_40000499_6608)">
<path id="checklist_rtl_2" d="M16.35 16.5489L19.9 12.9989C20.1 12.7989 20.3333 12.7031 20.6 12.7114C20.8667 12.7198 21.1 12.8239 21.3 13.0239C21.4833 13.2239 21.575 13.4573 21.575 13.7239C21.575 13.9906 21.4833 14.2239 21.3 14.4239L17.075 18.6739C16.875 18.8739 16.6417 18.9739 16.375 18.9739C16.1083 18.9739 15.875 18.8739 15.675 18.6739L13.525 16.5239C13.3417 16.3406 13.25 16.1073 13.25 15.8239C13.25 15.5406 13.3417 15.3073 13.525 15.1239C13.7083 14.9406 13.9417 14.8489 14.225 14.8489C14.5083 14.8489 14.7417 14.9406 14.925 15.1239L16.35 16.5489ZM16.35 8.54894L19.9 4.99894C20.1 4.79894 20.3333 4.7031 20.6 4.71144C20.8667 4.71977 21.1 4.82394 21.3 5.02394C21.4833 5.22394 21.575 5.45727 21.575 5.72394C21.575 5.9906 21.4833 6.22394 21.3 6.42394L17.075 10.6739C16.875 10.8739 16.6417 10.9739 16.375 10.9739C16.1083 10.9739 15.875 10.8739 15.675 10.6739L13.525 8.52394C13.3417 8.3406 13.25 8.10727 13.25 7.82394C13.25 7.5406 13.3417 7.30727 13.525 7.12394C13.7083 6.9406 13.9417 6.84894 14.225 6.84894C14.5083 6.84894 14.7417 6.9406 14.925 7.12394L16.35 8.54894ZM3 17.3739C2.71667 17.3739 2.47917 17.2781 2.2875 17.0864C2.09583 16.8948 2 16.6573 2 16.3739C2 16.0906 2.09583 15.8531 2.2875 15.6614C2.47917 15.4698 2.71667 15.3739 3 15.3739H10C10.2833 15.3739 10.5208 15.4698 10.7125 15.6614C10.9042 15.8531 11 16.0906 11 16.3739C11 16.6573 10.9042 16.8948 10.7125 17.0864C10.5208 17.2781 10.2833 17.3739 10 17.3739H3ZM3 9.37394C2.71667 9.37394 2.47917 9.2781 2.2875 9.08644C2.09583 8.89477 2 8.65727 2 8.37394C2 8.0906 2.09583 7.8531 2.2875 7.66144C2.47917 7.46977 2.71667 7.37394 3 7.37394H10C10.2833 7.37394 10.5208 7.46977 10.7125 7.66144C10.9042 7.8531 11 8.0906 11 8.37394C11 8.65727 10.9042 8.89477 10.7125 9.08644C10.5208 9.2781 10.2833 9.37394 10 9.37394H3Z" fill="#414447"/>
</g>
</g>
</svg>
