<svg width="10" height="10" viewBox="0 0 10 10" fill="none" xmlns="http://www.w3.org/2000/svg">
<path id="close" d="M5.84116 5L5.75277 5.08839L8.86303 8.19849C8.95024 8.28581 8.9949 8.39557 8.997 8.52776C8.999 8.65985 8.95434 8.7716 8.86303 8.86303C8.7716 8.95434 8.66085 9 8.53076 9C8.40066 9 8.28991 8.95434 8.19849 8.86303L5.08839 5.75277L5 5.84116M5.84116 5L8.95141 8.1101L8.95147 8.11015C9.06335 8.22216 9.11941 8.36369 9.12199 8.52577L9.12199 8.52587C9.12449 8.69089 9.06725 8.83544 8.95147 8.95136L8.95136 8.95147C8.83633 9.06637 8.69372 9.125 8.53076 9.125C8.36779 9.125 8.22519 9.06637 8.11015 8.95146L8.1101 8.95141L5 5.84116M5.84116 5L8.95141 1.8899L8.95146 1.88985C9.06637 1.77481 9.125 1.63221 9.125 1.46924C9.125 1.30628 9.06637 1.16367 8.95147 1.04864L8.95136 1.04854C8.83544 0.932751 8.69089 0.875515 8.52587 0.878009L8.52577 0.878011C8.36369 0.880588 8.22216 0.936654 8.11015 1.04853L8.1101 1.04859L5 4.15884L1.8899 1.04859L1.88985 1.04854C1.77481 0.93363 1.63221 0.875 1.46924 0.875C1.30628 0.875 1.16367 0.93363 1.04864 1.04854L1.04854 1.04864C0.932751 1.16455 0.875515 1.30911 0.878009 1.47413L0.878011 1.47423C0.880588 1.63631 0.936654 1.77784 1.04853 1.88985L1.04859 1.8899L4.15884 5L1.04859 8.1101L1.04854 8.11015C0.93363 8.22519 0.875 8.36779 0.875 8.53076C0.875 8.69372 0.93363 8.83633 1.04854 8.95136L1.04864 8.95146C1.16455 9.06725 1.30911 9.12449 1.47413 9.12199L1.47423 9.12199C1.63631 9.11941 1.77783 9.06335 1.88985 8.95147L1.8899 8.95141L5 5.84116M5.84116 5L5.75277 4.91161L8.86303 1.80151C8.95434 1.71009 9 1.59934 9 1.46924C9 1.33915 8.95434 1.2284 8.86303 1.13697C8.7716 1.04566 8.65985 1.001 8.52776 1.00299C8.39557 1.0051 8.28581 1.04976 8.19849 1.13697L5.08839 4.24723L4.91161 5.75277M5 5.84116L4.91161 5.75277M4.91161 5.75277L1.80151 8.86303C1.71419 8.95024 1.60443 8.9949 1.47224 8.997C1.34015 8.999 1.2284 8.95434 1.13697 8.86303L4.91161 5.75277Z" fill="#414447" stroke="black" stroke-width="0.25"/>
</svg>
