<svg width="54" height="48" viewBox="0 0 54 48" fill="none" xmlns="http://www.w3.org/2000/svg">
<rect width="48" height="48" rx="24" fill="#FAFAFA" fill-opacity="0.980392"/>
<rect x="0.5" y="0.5" width="47" height="47" rx="23.5" stroke="black" stroke-opacity="0.05"/>
<g clip-path="url(#clip0_40003513_5378)">
<path d="M21 24C24.309 24 27 21.309 27 18C27 14.691 24.309 12 21 12C17.691 12 15 14.691 15 18C15 21.309 17.691 24 21 24ZM21 14C23.206 14 25 15.794 25 18C25 20.206 23.206 22 21 22C18.794 22 17 20.206 17 18C17 15.794 18.794 14 21 14ZM22.75 28.22C22.182 28.074 21.593 28 21 28C17.14 28 14 31.14 14 35C14 35.552 13.552 36 13 36C12.448 36 12 35.552 12 35C12 30.038 16.038 26 21 26C21.762 26 22.519 26.095 23.25 26.284C23.785 26.422 24.106 26.967 23.969 27.502C23.832 28.037 23.289 28.358 22.751 28.221L22.75 28.22ZM35.121 23.879C33.987 22.745 32.011 22.745 30.878 23.879L24.171 30.586C23.416 31.341 22.999 32.346 22.999 33.415V35.001C22.999 35.553 23.447 36.001 23.999 36.001H25.585C26.654 36.001 27.658 35.584 28.413 34.829L35.12 28.122C35.687 27.555 35.999 26.802 35.999 26C35.999 25.198 35.687 24.445 35.121 23.879ZM33.706 26.707L26.998 33.414C26.621 33.792 26.119 34 25.584 34H24.998V33.414C24.998 32.88 25.206 32.378 25.584 32L32.292 25.293C32.669 24.915 33.328 24.915 33.706 25.293C33.895 25.481 33.999 25.732 33.999 26C33.999 26.268 33.895 26.518 33.706 26.707Z" fill="black"/>
</g>
<path d="M44.7679 34.7742L43.6364 33.606C43.5398 33.5053 43.4203 33.4539 43.2777 33.4516C43.1351 33.4493 43.0097 33.5044 42.9016 33.6171C42.8006 33.7224 42.7501 33.8501 42.7501 34C42.7501 34.1499 42.8006 34.2776 42.9016 34.3829L44.3268 35.8684C44.4529 35.9997 44.5999 36.0653 44.7679 36.0653C44.936 36.0653 45.083 35.9997 45.2091 35.8684L48.0984 32.857C48.2021 32.7488 48.2532 32.6223 48.2518 32.4775C48.2505 32.3326 48.1994 32.2038 48.0984 32.0911C47.9903 31.9785 47.866 31.9203 47.7256 31.9165C47.5854 31.9128 47.4611 31.9673 47.353 32.08L44.7679 34.7742ZM42.9969 40.6726L42.0329 38.9832L40.2093 38.575C40.0529 38.5434 39.928 38.4577 39.8346 38.3179C39.7412 38.1782 39.7039 38.0268 39.7227 37.8638L39.901 35.9089L38.6609 34.4304C38.5536 34.3112 38.5 34.1677 38.5 34C38.5 33.8323 38.5536 33.6888 38.6609 33.5696L39.901 32.0911L39.7227 30.1362C39.7039 29.9732 39.7412 29.8218 39.8346 29.6821C39.928 29.5423 40.0529 29.4566 40.2093 29.425L42.0329 29.0168L42.9969 27.3274C43.0809 27.184 43.1953 27.0862 43.3401 27.034C43.4849 26.9818 43.6319 26.9897 43.7812 27.0578L45.5 27.8151L47.2188 27.0578C47.3681 26.9897 47.5151 26.9818 47.6599 27.034C47.8047 27.0862 47.9191 27.184 48.0031 27.3274L48.9671 29.0168L50.7907 29.425C50.9471 29.4566 51.072 29.5423 51.1654 29.6821C51.2588 29.8218 51.2961 29.9732 51.2773 30.1362L51.099 32.0911L52.3391 33.5696C52.4464 33.6888 52.5 33.8323 52.5 34C52.5 34.1677 52.4464 34.3112 52.3391 34.4304L51.099 35.9089L51.2773 37.8638C51.2961 38.0268 51.2588 38.1782 51.1654 38.3179C51.072 38.4577 50.9471 38.5434 50.7907 38.575L48.9671 38.9832L48.0031 40.6726C47.9191 40.816 47.8047 40.9138 47.6599 40.966C47.5151 41.0182 47.3681 41.0103 47.2188 40.9422L45.5 40.1849L43.7812 40.9422C43.6319 41.0103 43.4849 41.0182 43.3401 40.966C43.1953 40.9138 43.0809 40.816 42.9969 40.6726Z" fill="#10B754"/>
<path d="M44.7679 34.7742L43.6364 33.606C43.5398 33.5053 43.4203 33.4539 43.2777 33.4516C43.1351 33.4493 43.0097 33.5044 42.9016 33.6171C42.8006 33.7224 42.7501 33.8501 42.7501 34C42.7501 34.1499 42.8006 34.2776 42.9016 34.3829L44.3268 35.8684C44.4529 35.9997 44.5999 36.0653 44.7679 36.0653C44.936 36.0653 45.083 35.9997 45.2091 35.8684L48.0984 32.857C48.2021 32.7488 48.2532 32.6223 48.2518 32.4775C48.2505 32.3326 48.1994 32.2038 48.0984 32.0911C47.9903 31.9785 47.866 31.9203 47.7256 31.9165C47.5854 31.9128 47.4611 31.9673 47.353 32.08L44.7679 34.7742Z" fill="white"/>
<path d="M42.5626 40.9204L42.5626 40.9205L42.5655 40.9254C42.7036 41.161 42.9066 41.3412 43.1705 41.4364C43.4457 41.5356 43.7268 41.5156 43.9854 41.3987L45.5 40.7313L47.0146 41.3987C47.2732 41.5156 47.5543 41.5356 47.8295 41.4364C48.0934 41.3412 48.2964 41.161 48.4345 40.9254L48.4345 40.9254L48.4374 40.9204L49.2919 39.4228L50.8955 39.0639C51.1861 39.0036 51.4197 38.8372 51.5811 38.5958C51.7374 38.3619 51.8057 38.0946 51.7747 37.8131L51.6158 36.0708L52.7174 34.7574C52.9069 34.5433 53 34.2817 53 34C53 33.7183 52.9069 33.4567 52.7174 33.2426L51.6158 31.9292L51.7747 30.1869C51.8057 29.9054 51.7374 29.6381 51.5811 29.4042C51.4197 29.1628 51.1861 28.9964 50.8955 28.9361L49.2919 28.5772L48.4374 27.0796L48.4374 27.0795L48.4345 27.0746C48.2964 26.839 48.0934 26.6588 47.8295 26.5636C47.5543 26.4644 47.2732 26.4844 47.0146 26.6013L45.5 27.2687L43.9854 26.6013C43.7268 26.4844 43.4457 26.4644 43.1705 26.5636C42.9066 26.6588 42.7036 26.839 42.5655 27.0746L42.5655 27.0746L42.5626 27.0796L41.7081 28.5772L40.1045 28.9361C39.8139 28.9964 39.5803 29.1628 39.4189 29.4042C39.2626 29.6381 39.1943 29.9054 39.2252 30.1869L39.3842 31.9292L38.2826 33.2426C38.0931 33.4567 38 33.7183 38 34C38 34.2817 38.0931 34.5433 38.2826 34.7575L39.3842 36.0708L39.2252 37.8131C39.1943 38.0946 39.2626 38.3619 39.4189 38.5958C39.5803 38.8372 39.8139 39.0036 40.1045 39.0639L41.7081 39.4228L42.5626 40.9204Z" stroke="#FAFAFA"/>
<defs>
<clipPath id="clip0_40003513_5378">
<rect width="24" height="24" fill="white" transform="translate(12 12)"/>
</clipPath>
</defs>
</svg>
