<svg width="17" height="11" viewBox="0 0 17 11" fill="none" xmlns="http://www.w3.org/2000/svg">
<path id="Vector" d="M14.8744 0.640625H10.6246C10.2329 0.640625 9.91633 1.0027 9.91633 1.45063C9.91633 1.89856 10.2329 2.26063 10.6246 2.26063H14.5812L9.93333 7.57585C9.53385 8.03269 8.88363 8.03269 8.48344 7.57585L6.68508 5.51925C5.73313 4.43061 4.18408 4.43061 3.23213 5.51925L0.207708 8.97795C-0.069236 9.29466 -0.069236 9.80659 0.207708 10.1233C0.345826 10.2812 0.52715 10.3606 0.708474 10.3606C0.889797 10.3606 1.07112 10.2812 1.20924 10.1233L4.23366 6.6646C4.6211 6.22153 5.29611 6.22153 5.68355 6.6646L7.48191 8.72118C8.43386 9.80982 9.98291 9.80982 10.9349 8.72118L15.5834 3.40596V7.93062C15.5834 8.37855 15.9 8.74063 16.2917 8.74063C16.6834 8.74063 17 8.37855 17 7.93062V3.07063C17 1.73088 16.0459 0.640625 14.8744 0.640625Z" fill="#D48A0C"/>
</svg>
