<svg width="19" height="17" viewBox="0 0 19 17" fill="none" xmlns="http://www.w3.org/2000/svg">
<path id="Vector" d="M18.2499 9.46186C18.2525 10.609 18.0279 11.7452 17.5889 12.805C17.15 13.8648 16.5055 14.8272 15.6926 15.6365C15.2998 16.0317 14.7724 16.2643 14.2157 16.2878C13.6589 16.3113 13.1138 16.124 12.6891 15.7633L11.9411 15.1167C11.8687 15.0541 11.8092 14.9778 11.7662 14.8923C11.7232 14.8067 11.6975 14.7135 11.6906 14.618C11.6765 14.4251 11.7396 14.2345 11.866 14.0881C11.9287 14.0156 12.0049 13.9562 12.0905 13.9132C12.1761 13.8702 12.2693 13.8445 12.3648 13.8375C12.5577 13.8234 12.7483 13.8866 12.8947 14.013L13.6434 14.6604C13.7876 14.7834 13.9735 14.8463 14.1627 14.8361C14.352 14.8259 14.5301 14.7434 14.6603 14.6057C15.3554 13.902 15.9008 13.0647 16.2634 12.1444C16.6261 11.2242 16.7985 10.24 16.7703 9.2512C16.7421 8.26245 16.5139 7.28967 16.0993 6.39156C15.6848 5.49345 15.0926 4.68864 14.3585 4.02571C13.5923 3.33437 12.6868 2.81539 11.703 2.50376C10.7192 2.19214 9.68001 2.09512 8.65553 2.21925C7.29214 2.37724 6.00113 2.91722 4.93124 3.77696C3.86136 4.6367 3.05615 5.78122 2.60839 7.07864C2.16062 8.37607 2.08853 9.7736 2.40041 11.1102C2.7123 12.4468 3.39546 13.6681 4.3712 14.6334C4.50237 14.7616 4.67705 14.8357 4.86041 14.8408C5.04377 14.846 5.22232 14.7818 5.36045 14.6611L6.10914 14.013C6.2555 13.8866 6.44609 13.8234 6.639 13.8375C6.8319 13.8516 7.01131 13.9417 7.13776 14.0881C7.2642 14.2345 7.32733 14.4251 7.31325 14.618C7.29917 14.8109 7.20903 14.9903 7.06267 15.1167L6.31472 15.7641C5.8977 16.1226 5.36148 16.3118 4.81182 16.2944C4.26217 16.2769 3.73899 16.0542 3.3455 15.67C2.32199 14.6562 1.56471 13.4052 1.14094 12.0283C0.71716 10.6514 0.640003 9.1911 0.916317 7.77719C1.19263 6.36328 1.81386 5.03949 2.72483 3.92342C3.63581 2.80734 4.80831 1.93352 6.13822 1.37957C7.46812 0.825624 8.91425 0.608698 10.3481 0.74806C11.782 0.887423 13.1593 1.37876 14.3577 2.17843C15.556 2.9781 16.5383 4.06135 17.2173 5.33196C17.8963 6.60257 18.251 8.0212 18.2499 9.46186ZM13.6623 6.33227C13.7951 6.19478 13.8686 6.01063 13.8669 5.81949C13.8653 5.62835 13.7886 5.4455 13.6534 5.31034C13.5183 5.17518 13.3354 5.09851 13.1443 5.09685C12.9531 5.09519 12.769 5.16867 12.6315 5.30146L9.87953 8.05343C9.5695 7.97034 9.24072 7.99186 8.94418 8.11467C8.64764 8.23748 8.39991 8.45471 8.23941 8.73267C8.07892 9.01062 8.01463 9.33378 8.05651 9.652C8.0984 9.97022 8.24412 10.2657 8.47108 10.4927C8.69804 10.7196 8.99355 10.8654 9.31177 10.9073C9.62999 10.9491 9.95314 10.8849 10.2311 10.7244C10.5091 10.5639 10.7263 10.3161 10.8491 10.0196C10.9719 9.72304 10.9934 9.39426 10.9103 9.08424L13.6623 6.33227Z" fill="#3888FF"/>
</svg>
