<svg width="32" height="32" viewBox="0 0 32 32" fill="none" xmlns="http://www.w3.org/2000/svg">
<g id="&#240;&#159;&#166;&#134; emoji &#34;waving hand sign&#34;">
<path id="Vector" d="M7.69945 24.028C7.42642 23.9751 7.20799 23.9222 6.93496 23.8163C6.66193 23.7105 6.44351 23.6576 6.22509 23.5517C5.73363 23.34 5.29678 23.0754 4.85994 22.7578C3.98624 22.1757 3.27636 21.3818 2.7303 20.4291C2.18424 19.5294 1.8566 18.4709 1.802 17.4653C1.74739 16.9361 1.802 16.4597 1.8566 15.9305C1.91121 15.6659 1.96582 15.4542 2.02042 15.1895C2.07503 14.9249 2.18424 14.7132 2.23885 14.4486L2.29345 15.1895C2.29345 15.4542 2.34806 15.6659 2.40266 15.9305C2.45727 16.4068 2.56648 16.8831 2.6757 17.3065C2.89412 18.2063 3.22176 19.0531 3.71321 19.847C4.20466 20.6408 4.75072 21.3818 5.4606 22.0698C5.78824 22.3874 6.17048 22.7049 6.55272 23.0225C6.71654 23.1812 6.93496 23.34 7.15339 23.4988L7.69945 24.028ZM7.53563 25.9334C7.37181 26.0392 7.15339 26.0921 6.93496 26.1451C6.71654 26.198 6.55272 26.2509 6.3343 26.2509C5.95206 26.3038 5.51521 26.3568 5.07836 26.3038C4.25927 26.2509 3.38557 26.0392 2.6757 25.6687C1.91121 25.2983 1.25594 24.7161 0.81909 24.028C0.600666 23.7105 0.382242 23.34 0.218424 22.9695C0.163818 22.8108 0.109212 22.5991 0.054606 22.3874C0.054606 22.2286 0 22.0698 0 21.8581C0.163818 22.0169 0.27303 22.1757 0.382242 22.2815C0.54606 22.4403 0.655272 22.5991 0.764484 22.7049C1.03751 22.9695 1.25594 23.2342 1.52897 23.4459C2.07503 23.9222 2.62109 24.3456 3.27636 24.6632C3.87703 24.9807 4.58691 25.2453 5.24218 25.457C5.56981 25.5629 5.95206 25.6158 6.3343 25.7217C6.49812 25.7746 6.71654 25.7746 6.88036 25.8275C7.15339 25.8804 7.31721 25.8804 7.53563 25.9334ZM19.8766 0.211701C20.1496 0.264626 20.368 0.370477 20.6411 0.476327C20.9141 0.582177 21.1325 0.688028 21.351 0.793878C21.8424 1.0585 22.2793 1.32313 22.7161 1.64068C23.5898 2.27578 24.2997 3.12259 24.7911 4.07524C25.2826 5.0279 25.5556 6.0864 25.5556 7.09198C25.5556 7.62123 25.501 8.09756 25.3918 8.62681C25.3372 8.89144 25.2826 9.10314 25.1734 9.36776C25.0642 9.63239 25.0096 9.84409 24.9003 10.0558L24.8457 9.31484C24.8457 9.05021 24.8457 8.83851 24.7911 8.57388L24.6273 7.1449C24.4635 6.24518 24.1359 5.34545 23.699 4.49864C23.2622 3.65184 22.7161 2.91089 22.0608 2.22286C21.7332 1.85238 21.351 1.53483 21.0233 1.16435C20.8595 1.00558 20.6411 0.846804 20.4227 0.688028L19.8766 0.211701ZM24.6273 0C24.8457 0.0529252 25.0096 0.10585 25.1734 0.211701C25.3372 0.264626 25.5556 0.370477 25.7194 0.476327C26.0471 0.688028 26.3747 0.899729 26.7023 1.16435C27.303 1.69361 27.7945 2.32871 28.0675 3.06966C28.3951 3.81062 28.5043 4.60449 28.3951 5.39837C28.3405 5.76885 28.2313 6.13932 28.1221 6.5098C28.0675 6.66858 27.9583 6.88028 27.9037 7.03905C27.7945 7.19783 27.7399 7.3566 27.576 7.51538V6.98613V6.45688C27.576 6.0864 27.5214 5.76885 27.5214 5.4513C27.4122 4.76327 27.303 4.12817 27.03 3.54599C26.757 2.91089 26.4293 2.38163 26.0471 1.79946C25.8286 1.53483 25.6102 1.21728 25.3918 0.952654C25.2826 0.793878 25.1734 0.688028 25.0096 0.529252C24.9003 0.264626 24.7365 0.10585 24.6273 0Z" fill="#2EE578"/>
<path id="Vector_2" d="M7.35676 11.0275C6.40878 11.4541 6.07698 12.5915 6.50358 13.5393L12.4759 26.0036L15.7938 24.4397L9.82151 11.928C9.39492 10.9801 8.30474 10.5536 7.35676 11.0275ZM23.0458 20.9326L26.5534 19.2739L19.7279 5.05603C19.2539 4.10818 18.1163 3.68164 17.121 4.15557C16.173 4.6295 15.7464 5.76693 16.2204 6.76217L23.0458 20.9326Z" fill="#F0C83D"/>
<path id="Vector_3" d="M17.1672 4.11548C17.0724 4.16287 16.9776 4.21026 16.8828 4.30504C17.7834 4.06809 18.7314 4.4946 19.158 5.34763L25.9834 19.5648L26.5996 19.2804L19.7741 5.06329C19.3002 4.06809 18.1626 3.64157 17.1672 4.11548Z" fill="#F5A143"/>
<path id="Vector_4" d="M15.7941 24.3883L19.4438 22.6348L12.4762 8.13334C12.0022 7.13814 10.7698 6.66423 9.77443 7.13814C8.77905 7.61204 8.35246 8.8442 8.82645 9.8394L15.7941 24.3883Z" fill="#F0C83D"/>
<path id="Vector_5" d="M9.77267 7.17698C9.67788 7.22437 9.58308 7.27176 9.48828 7.36654C10.3889 7.12959 11.4316 7.5561 11.8582 8.45652L16.1715 17.5081L17.2143 18.1242L12.4744 8.17218C12.0004 7.12959 10.8155 6.70307 9.77267 7.17698Z" fill="#F5A143"/>
<path id="Vector_6" d="M18.8722 21.4795L22.5219 19.726L15.5543 5.22453C15.0803 4.22933 13.8479 3.75543 12.8526 4.27672C11.8572 4.75063 11.4306 5.98278 11.9046 6.97798L18.8722 21.4795Z" fill="#F0C83D"/>
<path id="Vector_7" d="M12.853 4.24729C12.7582 4.29468 12.6634 4.38946 12.5686 4.43685C13.4692 4.1999 14.5119 4.62641 14.9385 5.52683L19.8206 15.7632L20.8634 16.3793L15.5547 5.24249C15.0807 4.1999 13.8484 3.77338 12.853 4.24729ZM7.35471 11.0241C7.25991 11.0715 7.16511 11.1189 7.07031 11.2137C7.92349 10.9767 8.82407 11.4033 9.20326 12.2563L12.7582 19.6966L13.801 20.3127L9.81945 11.9719C9.39286 10.9767 8.30268 10.5502 7.35471 11.0241Z" fill="#F5A143"/>
<path id="Vector_8" d="M31.4331 9.6031C30.1533 8.60785 28.0677 9.69788 27.025 13.1102C26.314 15.4798 26.2192 16.1907 24.7024 16.9016L23.8492 15.1481C23.8492 15.1481 10.3879 21.6409 10.9093 22.6835C10.9093 22.6835 12.5209 27.7071 15.27 30.0294C19.3463 33.5364 28.8735 29.7924 29.3001 20.7404C29.5371 15.4798 32.8076 10.6931 31.4331 9.6031Z" fill="#F0C83D"/>
<g id="Group">
<path id="Vector_9" d="M31.4341 9.58566C31.1971 9.39608 30.9127 9.3013 30.6283 9.25391C30.6757 9.3013 30.7705 9.3013 30.8179 9.34869C32.2399 10.4387 30.7705 12.9505 29.9647 15.2254C29.3011 17.0263 28.7323 18.8746 28.8271 20.6756C29.2063 28.5428 21.2907 32.2868 16.5508 30.865C21.1959 32.8081 29.8225 29.1115 29.4433 20.9125C29.3485 19.1116 29.8699 17.3581 30.5809 15.4624C31.3393 13.1875 32.8086 10.6757 31.4341 9.58566Z" fill="#F5A143"/>
<path id="Vector_10" d="M25.1287 16.707C22.19 17.0388 17.8767 21.2565 20.9102 25.8534C18.6824 21.2091 22.3322 18.0814 24.6547 16.9914C24.8917 16.8018 25.1287 16.707 25.1287 16.707Z" fill="#F5A143"/>
</g>
</g>
</svg>
