<svg width="15" height="18" viewBox="0 0 15 18" fill="none" xmlns="http://www.w3.org/2000/svg">
<path id="license" d="M7.50056 9.27621C6.82185 9.27621 6.24742 9.05172 5.77724 8.60276C5.30707 8.15379 5.07199 7.60525 5.07199 6.95716C5.07199 6.30906 5.30707 5.76052 5.77724 5.31156C6.24742 4.86259 6.82185 4.6381 7.50056 4.6381C8.17926 4.6381 8.7537 4.86259 9.22387 5.31156C9.69404 5.76052 9.92913 6.30906 9.92913 6.95716C9.92913 7.60525 9.69404 8.15379 9.22387 8.60276C8.7537 9.05172 8.17926 9.27621 7.50056 9.27621ZM7.50056 16.6793L3.30472 17.9476C3.01831 18.0439 2.75553 18.0074 2.5164 17.8382C2.27727 17.6689 2.1577 17.4431 2.1577 17.161V11.663C1.54246 11.0494 1.06484 10.3393 0.724844 9.53293C0.384844 8.72667 0.214844 7.86808 0.214844 6.95716C0.214844 5.01503 0.920506 3.36997 2.33183 2.02198C3.74315 0.673994 5.46558 0 7.4991 0C9.53263 0 11.2555 0.673994 12.6678 2.02198C14.0801 3.36997 14.7863 5.01503 14.7863 6.95716C14.7863 7.86808 14.6163 8.72667 14.2763 9.53293C13.9363 10.3393 13.4587 11.0494 12.8434 11.663V17.161C12.8434 17.4431 12.7238 17.6689 12.4847 17.8382C12.2456 18.0074 11.9828 18.0439 11.6964 17.9476L7.50056 16.6793ZM7.50056 12.5229C9.11961 12.5229 10.4958 11.9818 11.6291 10.8995C12.7625 9.81732 13.3291 8.50319 13.3291 6.95716C13.3291 5.41112 12.7625 4.09699 11.6291 3.01477C10.4958 1.93254 9.11961 1.39143 7.50056 1.39143C5.88151 1.39143 4.50532 1.93254 3.37199 3.01477C2.23865 4.09699 1.67199 5.41112 1.67199 6.95716C1.67199 8.50319 2.23865 9.81732 3.37199 10.8995C4.50532 11.9818 5.88151 12.5229 7.50056 12.5229ZM3.61484 16.2654L7.50056 15.27L11.3863 16.2654V12.819C10.8321 13.1639 10.2248 13.4327 9.5646 13.6254C8.90452 13.818 8.21585 13.9143 7.49862 13.9143C6.78138 13.9143 6.09328 13.818 5.43433 13.6254C4.77554 13.4327 4.16904 13.1639 3.61484 12.819V16.2654Z" fill="#1FB4FF"/>
</svg>
