<svg width="19" height="19" viewBox="0 0 19 19" fill="none" xmlns="http://www.w3.org/2000/svg">
<g id="hand-holding-usd 1" clip-path="url(#clip0_40001217_6128)">
<path id="Vector" d="M17.5355 7.16401C17.1054 6.77035 16.544 6.57352 15.9536 6.59539C15.3704 6.62455 14.8309 6.8797 14.4299 7.30981L12.0826 9.88318C11.6816 9.21979 10.9526 8.7751 10.1216 8.7751H3.66991C2.05882 8.7751 0.753906 10.08 0.753906 11.6911V15.3361C0.753906 16.9472 2.05882 18.2521 3.66991 18.2521H7.28575C9.3634 18.2521 11.3463 17.3627 12.7314 15.81L17.6959 10.2404C18.4905 9.34372 18.4176 7.96591 17.5355 7.15672V7.16401ZM16.6097 9.27811L11.6452 14.8477C10.5371 16.087 8.95516 16.8014 7.29304 16.8014H3.66991C2.86801 16.8014 2.21191 16.1453 2.21191 15.3434V11.6984C2.21191 10.8965 2.86801 10.2404 3.66991 10.2404H10.1288C10.5881 10.2404 10.9599 10.6122 10.9599 11.0715C10.9599 11.4797 10.6537 11.8369 10.2455 11.8952L6.48385 12.4347C6.0829 12.493 5.80588 12.8575 5.8642 13.2585C5.92252 13.6594 6.29431 13.9364 6.68797 13.8781L10.4496 13.3386C11.3098 13.2147 12.0024 12.6169 12.2794 11.8369L15.5089 8.29396C15.6401 8.14816 15.8223 8.06068 16.0192 8.05339C16.216 8.05339 16.4055 8.11171 16.5513 8.24293C16.8502 8.51266 16.8721 8.97922 16.6024 9.27811H16.6097Z" fill="#03963F"/>
<path id="Vector_2" d="M7.31473 8.04729H7.59175C8.6488 8.04729 9.50173 7.18707 9.50173 6.13731C9.50173 5.1969 8.83105 4.40229 7.90522 4.2492L5.5141 3.84825C5.2954 3.8118 5.13502 3.62226 5.13502 3.39627C5.13502 3.14841 5.33914 2.94429 5.587 2.94429H7.51156C7.774 2.94429 8.01457 3.0828 8.14579 3.30879C8.34262 3.65871 8.78731 3.77535 9.14452 3.57123C9.49444 3.36711 9.61108 2.92242 9.40696 2.5725C9.02059 1.90182 8.29159 1.479 7.51156 1.479H7.31473C7.31473 1.07805 6.98668 0.75 6.58573 0.75C6.18478 0.75 5.85673 1.07805 5.85673 1.479H5.57971C4.52266 1.479 3.66973 2.33922 3.66973 3.38898C3.66973 4.32939 4.34041 5.124 5.26624 5.27709L7.65736 5.67804C7.87606 5.71449 8.03644 5.90403 8.03644 6.13002C8.03644 6.37788 7.83232 6.582 7.58446 6.582H5.6599C5.39746 6.582 5.15689 6.44349 5.02567 6.2175C4.82155 5.86758 4.37686 5.75094 4.02694 5.95506C3.67702 6.15918 3.56038 6.60387 3.7645 6.95379C4.15087 7.62447 4.87987 8.04729 5.6599 8.04729H5.85673C5.85673 8.44824 6.18478 8.77629 6.58573 8.77629C6.98668 8.77629 7.31473 8.44824 7.31473 8.04729Z" fill="#03963F"/>
</g>
<defs>
<clipPath id="clip0_40001217_6128">
<rect width="17.496" height="17.496" fill="white" transform="translate(0.753906 0.753906)"/>
</clipPath>
</defs>
</svg>
