<svg width="15" height="15" viewBox="0 0 15 15" fill="none" xmlns="http://www.w3.org/2000/svg">
<path id="Vector" d="M10.625 6.27437C8.21313 6.27437 6.25 8.23687 6.25 10.6494C6.25 13.0481 8.21313 15 10.625 15C13.0369 15 15 13.0375 15 10.625C15 8.22625 13.0369 6.27437 10.625 6.27437ZM10.625 13.75C8.90187 13.75 7.5 12.3587 7.5 10.6494C7.5 8.92625 8.90187 7.52437 10.625 7.52437C12.3481 7.52437 13.75 8.91562 13.75 10.625C13.75 12.3481 12.3481 13.75 10.625 13.75ZM11.6919 10.8081C11.9363 11.0525 11.9363 11.4475 11.6919 11.6919C11.57 11.8138 11.41 11.875 11.25 11.875C11.09 11.875 10.93 11.8138 10.8081 11.6919L10.1831 11.0669C10.0656 10.9494 10 10.7906 10 10.625V9.375C10 9.03 10.2794 8.75 10.625 8.75C10.9706 8.75 11.25 9.03 11.25 9.375V10.3663L11.6919 10.8081ZM15 4.375V5.625C15 5.97 14.7206 6.25 14.375 6.25C14.0294 6.25 13.75 5.97 13.75 5.625V4.375C13.75 3.34125 12.9087 2.5 11.875 2.5H3.125C2.09125 2.5 1.25 3.34125 1.25 4.375V5H6.875C7.22 5 7.5 5.28 7.5 5.625C7.5 5.97 7.22 6.25 6.875 6.25H1.25V11.875C1.25 12.9087 2.09125 13.75 3.125 13.75H5.625C5.97 13.75 6.25 14.03 6.25 14.375C6.25 14.72 5.97 15 5.625 15H3.125C1.40188 15 0 13.5981 0 11.875V4.375C0 2.65188 1.40188 1.25 3.125 1.25H3.75V0.625C3.75 0.28 4.03 0 4.375 0C4.72 0 5 0.28 5 0.625V1.25H10V0.625C10 0.28 10.2794 0 10.625 0C10.9706 0 11.25 0.28 11.25 0.625V1.25H11.875C13.5981 1.25 15 2.65188 15 4.375Z" fill="#8C76FB"/>
</svg>
