<svg width="24" height="25" viewBox="0 0 24 25" fill="none" xmlns="http://www.w3.org/2000/svg">
<g id="folder-open 1" clip-path="url(#clip0_40000599_3411)">
<path id="Vector" d="M23.493 11.391C23.006 10.737 22.259 10.361 21.443 10.361H21V8.374C21 5.617 18.757 3.374 16 3.374H10.944C10.79 3.374 10.634 3.337 10.497 3.269L7.342 1.691C6.928 1.484 6.464 1.375 6 1.375H4C1.794 1.374 0 3.168 0 5.374V18.374C0 21.131 2.243 23.374 5 23.374H17.558C19.784 23.374 21.708 21.942 22.36 19.767L23.892 13.651C24.126 12.869 23.98 12.046 23.493 11.391ZM2 18.374V5.374C2 4.271 2.897 3.374 4 3.374H6C6.154 3.374 6.31 3.411 6.447 3.479L9.602 5.057C10.016 5.264 10.48 5.373 10.944 5.373H16C17.654 5.373 19 6.719 19 8.373V10.36H8.615C6.915 10.36 5.397 11.439 4.826 13.08L2.636 20.218C2.238 19.709 2 19.069 2 18.374ZM21.964 13.121L20.432 19.236C20.048 20.515 18.893 21.374 17.558 21.374H5C4.792 21.374 4.589 21.353 4.393 21.312L6.727 13.703C7.006 12.9 7.766 12.361 8.616 12.361H21.444C21.686 12.361 21.827 12.501 21.889 12.585C21.951 12.669 22.045 12.844 21.964 13.121Z" fill="black"/>
</g>
<defs>
<clipPath id="clip0_40000599_3411">
<rect width="24" height="24" fill="white" transform="translate(0 0.375)"/>
</clipPath>
</defs>
</svg>
