<svg width="48" height="48" viewBox="0 0 48 48" fill="none" xmlns="http://www.w3.org/2000/svg">
<rect width="48" height="48" rx="24" fill="#FAFAFA" fill-opacity="0.980392"/>
<rect x="0.5" y="0.5" width="47" height="47" rx="23.5" stroke="black" stroke-opacity="0.05"/>
<g clip-path="url(#clip0_40003488_5408)">
<path d="M21 24C24.309 24 27 21.309 27 18C27 14.691 24.309 12 21 12C17.691 12 15 14.691 15 18C15 21.309 17.691 24 21 24ZM21 14C23.206 14 25 15.794 25 18C25 20.206 23.206 22 21 22C18.794 22 17 20.206 17 18C17 15.794 18.794 14 21 14ZM22.75 28.22C22.182 28.074 21.593 28 21 28C17.14 28 14 31.14 14 35C14 35.552 13.552 36 13 36C12.448 36 12 35.552 12 35C12 30.038 16.038 26 21 26C21.762 26 22.519 26.095 23.25 26.284C23.785 26.422 24.106 26.967 23.969 27.502C23.832 28.037 23.289 28.358 22.751 28.221L22.75 28.22ZM35.121 23.879C33.987 22.745 32.011 22.745 30.878 23.879L24.171 30.586C23.416 31.341 22.999 32.346 22.999 33.415V35.001C22.999 35.553 23.447 36.001 23.999 36.001H25.585C26.654 36.001 27.658 35.584 28.413 34.829L35.12 28.122C35.687 27.555 35.999 26.802 35.999 26C35.999 25.198 35.687 24.445 35.121 23.879ZM33.706 26.707L26.998 33.414C26.621 33.792 26.119 34 25.584 34H24.998V33.414C24.998 32.88 25.206 32.378 25.584 32L32.292 25.293C32.669 24.915 33.328 24.915 33.706 25.293C33.895 25.481 33.999 25.732 33.999 26C33.999 26.268 33.895 26.518 33.706 26.707Z" fill="black"/>
</g>
<defs>
<clipPath id="clip0_40003488_5408">
<rect width="24" height="24" fill="white" transform="translate(12 12)"/>
</clipPath>
</defs>
</svg>
