<svg width="54" height="48" viewBox="0 0 54 48" fill="none" xmlns="http://www.w3.org/2000/svg">
<g clip-path="url(#clip0_40003488_5493)">
<path d="M48 24C48 10.7452 37.2548 0 24 0C10.7452 0 0 10.7452 0 24C0 37.2548 10.7452 48 24 48C37.2548 48 48 37.2548 48 24Z" fill="#FAFAFA" fill-opacity="0.980392"/>
<path d="M47.5 24C47.5 11.0213 36.9787 0.5 24 0.5C11.0213 0.5 0.5 11.0213 0.5 24C0.5 36.9787 11.0213 47.5 24 47.5C36.9787 47.5 47.5 36.9787 47.5 24Z" stroke="black" stroke-opacity="0.05"/>
<mask id="mask0_40003488_5493" style="mask-type:luminance" maskUnits="userSpaceOnUse" x="12" y="12" width="24" height="24">
<path d="M36 12H12V36H36V12Z" fill="white"/>
</mask>
<g mask="url(#mask0_40003488_5493)">
<path d="M19 26C21.206 26 23 24.206 23 22C23 19.794 21.206 18 19 18C16.794 18 15 19.794 15 22C15 24.206 16.794 26 19 26ZM19 20C20.103 20 21 20.897 21 22C21 23.103 20.103 24 19 24C17.897 24 17 23.103 17 22C17 20.897 17.897 20 19 20ZM26 35C26 35.553 25.552 36 25 36C24.448 36 24 35.553 24 35C24 32.243 21.757 30 19 30C16.243 30 14 32.243 14 35C14 35.553 13.552 36 13 36C12.448 36 12 35.553 12 35C12 31.141 15.14 28 19 28C22.86 28 26 31.141 26 35ZM36 17V25C36 27.757 33.757 30 31 30H27C26.448 30 26 29.553 26 29V27C26 26.447 26.448 26 27 26H30C30.552 26 31 26.447 31 27V28C32.654 28 34 26.654 34 25V17C34 15.346 32.654 14 31 14H21.465C20.397 14 19.401 14.575 18.866 15.501C18.589 15.979 17.978 16.144 17.5 15.865C17.021 15.589 16.858 14.977 17.135 14.499C18.027 12.958 19.686 12 21.466 12H31.001C33.758 12 36 14.243 36 17Z" fill="black"/>
</g>
<path fill-rule="evenodd" clip-rule="evenodd" d="M38.0937 40.3039C37.9573 40.3039 37.8378 40.273 37.735 40.2111C37.6324 40.1492 37.5525 40.0677 37.4954 39.9664C37.4329 39.8664 37.4048 39.7539 37.411 39.6289C37.4173 39.5039 37.4516 39.3852 37.5141 39.2727L44.4141 27.7602C44.4766 27.6477 44.5612 27.5664 44.6678 27.5164C44.7743 27.4664 44.8837 27.4414 44.9959 27.4414C45.1081 27.4414 45.2173 27.4664 45.3235 27.5164C45.4298 27.5664 45.5141 27.6477 45.5766 27.7602L52.4766 39.2727C52.5391 39.3852 52.5735 39.5039 52.5798 39.6289C52.586 39.7539 52.5579 39.8664 52.4954 39.9664C52.4329 40.0664 52.3516 40.1477 52.2516 40.2102C52.1516 40.2727 52.0334 40.3039 51.8971 40.3039H38.0937ZM45.4735 37.861C45.3423 37.9896 45.1816 38.0539 44.9914 38.0539C44.8013 38.0539 44.6419 37.9883 44.5133 37.857C44.3847 37.7258 44.3204 37.5651 44.3204 37.375C44.3204 37.1848 44.386 37.0255 44.5173 36.8968C44.6485 36.7682 44.8092 36.7039 44.9993 36.7039C45.1894 36.7039 45.3488 36.7695 45.4774 36.9008C45.6061 37.032 45.6704 37.1927 45.6704 37.3828C45.6704 37.573 45.6048 37.7323 45.4735 37.861ZM45.4735 35.6098C45.3423 35.7392 45.1816 35.8039 44.9914 35.8039C44.8013 35.8039 44.6419 35.7392 44.5133 35.6098C44.3847 35.4805 44.3204 35.3202 44.3204 35.1289V32.8789C44.3204 32.6877 44.386 32.5273 44.5173 32.398C44.6485 32.2686 44.8092 32.2039 44.9993 32.2039C45.1894 32.2039 45.3488 32.2686 45.4774 32.398C45.6061 32.5273 45.6704 32.6877 45.6704 32.8789V35.1289C45.6704 35.3202 45.6048 35.4805 45.4735 35.6098Z" fill="#D48A0C"/>
<path d="M44.9913 38.0531C45.1815 38.0531 45.3422 37.9888 45.4734 37.8602C45.6047 37.7315 45.6703 37.5722 45.6703 37.382C45.6703 37.1919 45.606 37.0312 45.4773 36.9C45.3487 36.7687 45.1893 36.7031 44.9992 36.7031C44.8091 36.7031 44.6484 36.7674 44.5172 36.896C44.3859 37.0247 44.3203 37.184 44.3203 37.3742C44.3203 37.5643 44.3846 37.725 44.5132 37.8562C44.6418 37.9875 44.8012 38.0531 44.9913 38.0531Z" fill="white"/>
<path d="M44.9913 35.8031C45.1815 35.8031 45.3422 35.7384 45.4734 35.609C45.6047 35.4797 45.6703 35.3194 45.6703 35.1281V32.8781C45.6703 32.6869 45.606 32.5265 45.4773 32.3972C45.3487 32.2678 45.1893 32.2031 44.9992 32.2031C44.8091 32.2031 44.6484 32.2678 44.5172 32.3972C44.3859 32.5265 44.3203 32.6869 44.3203 32.8781V35.1281C44.3203 35.3194 44.3846 35.4797 44.5132 35.609C44.6418 35.7384 44.8012 35.8031 44.9913 35.8031Z" fill="white"/>
<path d="M37.4771 40.6394C37.6679 40.7543 37.8791 40.8039 38.0937 40.8039H51.8971C52.1122 40.8039 52.3254 40.7537 52.5166 40.6342C52.681 40.5314 52.8166 40.3958 52.9194 40.2314C53.0395 40.0393 53.0902 39.8244 53.0791 39.6039C53.069 39.4003 53.0123 39.2073 52.9137 39.0298L52.9097 39.0227M52.9097 39.0227L52.9055 39.0156ZM52.9097 39.0227L52.9055 39.0156Z" stroke="#FAFAFA"/>
</g>
<defs>
<clipPath id="clip0_40003488_5493">
<rect width="54" height="48" fill="white"/>
</clipPath>
</defs>
</svg>
