<svg width="247" height="187" viewBox="0 0 247 187" fill="none" xmlns="http://www.w3.org/2000/svg">
<g id="image 135.png (SVG)" clip-path="url(#clip0_40001368_9363)">
<rect id="Rectangle 4365" x="29.9961" y="29.375" width="188.005" height="188.512" rx="14.1891" fill="white"/>
<rect id="Rectangle 4366" x="37.9883" y="37.5273" width="171.02" height="171.481" rx="12.9071" fill="#FCF9D3"/>
<path id="Rectangle 4367" fill-rule="evenodd" clip-rule="evenodd" d="M37.9883 169.778V196.101C37.9883 203.229 43.767 209.008 50.8954 209.008H196.101C203.229 209.008 209.008 203.229 209.008 196.101V50.4345C209.008 43.3061 203.229 37.5273 196.101 37.5273H186.27C180.205 48.9086 169.573 74.1194 175.558 83.9131C177.616 87.2805 180.677 91.394 183.999 95.8572C192.753 107.62 203.315 121.814 202.083 131.181C201.693 134.143 201.786 137.48 201.879 140.862C202.195 152.237 202.525 164.128 184.57 163.997C175.491 163.931 163.979 166.835 152.224 169.8C133.816 174.444 114.814 179.237 103.635 173.009C77.9684 158.708 46.1169 161.715 37.9883 169.778Z" fill="#FCEFB5"/>
<path id="Vector" d="M20.1842 72.5646C21.1467 69.6509 23.2975 68.9409 29.3767 69.5236L34.41 70.0035C34.41 87.0104 34.302 91.9465 34.1645 91.9465C34.0319 91.9465 31.0463 88.6313 27.5353 84.5816C19.9632 75.8357 19.4034 74.9249 20.1842 72.5646Z" fill="#4C77FC"/>
<path id="Vector_2" d="M100 91.4582V69.9118C111.604 69.1773 112.831 69.5446 113.966 72.135C115.242 75.0585 114.177 76.841 105.279 86.6642L100.491 91.9479L100 91.4582Z" fill="#4C77FC"/>
<path id="Polygon 29" d="M65.5 48.241C66.4282 47.7051 67.5718 47.7051 68.5 48.241L99.275 66.009C100.203 66.5449 100.775 67.5353 100.775 68.6071V104.143C100.775 105.215 100.203 106.205 99.275 106.741L68.5 124.509C67.5718 125.045 66.4282 125.045 65.5 124.509L34.725 106.741C33.7968 106.205 33.225 105.215 33.225 104.143V68.6071C33.225 67.5353 33.7968 66.5449 34.725 66.009L65.5 48.241Z" fill="#FCB549"/>
<path id="Polygon 31" fill-rule="evenodd" clip-rule="evenodd" d="M68.5016 48.2418C67.5733 47.7059 66.4298 47.7059 65.5016 48.2418L34.7266 66.0097C33.7984 66.5456 33.2266 67.536 33.2266 68.6078V104.144C33.2266 104.774 33.4245 105.377 33.7765 105.875L100.512 67.375C100.257 66.8109 99.8303 66.3294 99.2766 66.0097L68.5016 48.2418Z" fill="url(#paint0_linear_40001368_9363)"/>
<path id="Polygon 30" d="M65.75 59.674C66.5235 59.2275 67.4765 59.2275 68.25 59.674L89.4987 71.942C90.2722 72.3886 90.7487 73.2139 90.7487 74.1071V98.6429C90.7487 99.5361 90.2722 100.361 89.4987 100.808L68.25 113.076C67.4765 113.523 66.5235 113.523 65.75 113.076L44.5013 100.808C43.7278 100.361 43.2513 99.5361 43.2513 98.6429V74.1071C43.2513 73.2139 43.7278 72.3886 44.5013 71.942L65.75 59.674Z" stroke="#FF7500"/>
<path id="Vector_3" d="M140.931 188.906L141.56 188.539C141.938 188.318 142.134 187.442 141.913 184.499L140.44 169.318L139.949 156.586L141.3 156.346C147.394 155.274 153.802 149.378 156.616 142.253C159.807 134.158 163.77 130.486 171.46 128.463C175.492 127.406 175.86 127.21 175.305 125.246L178.374 128.062C184.944 134.09 186.884 141.161 185.126 160.994L184.635 161.973L184.512 160.871C184.429 160.141 183.83 161.15 182.725 163.868C176.867 178.314 165.941 185.635 140.931 188.906Z" fill="#4C77FC"/>
<path id="Vector_4" d="M122.763 145.323L121.658 143.222C116.894 134.167 108.772 114.095 109.013 109.085L109.136 107.352C109.205 106.397 109.426 105.516 109.995 105.168L128.655 108.106L130.006 112.146C132.318 119.07 138.221 121.803 149.279 118.879L153.331 119.697C160.854 121.21 163.564 122.621 164.993 125.74C166.162 128.296 166.28 128.399 167.385 127.846C171.004 126.043 163.736 116.705 157.627 115.309C157.136 115.197 157.2 115.114 157.824 115.05C158.334 115.001 159.925 115.623 161.354 116.431C162.788 117.239 164.522 117.9 166.466 117.9L170.518 120.96C172.747 122.645 174.736 124.295 175.305 125.245C175.86 127.209 175.492 127.405 171.46 128.463C163.77 130.485 159.808 134.158 156.616 142.252C153.802 149.377 147.394 155.273 141.3 156.346L139.949 156.585L136.684 156.174C131.538 155.533 128.095 153.363 122.763 145.323Z" fill="#0047BA"/>
<path id="Vector_5" d="M117.363 200.658C112.84 188.631 111.47 184.053 111.102 181.643L110.488 177.642L113.435 180.581L116.013 183.396C119.612 187.324 121.085 188.063 131.604 189.395L140.934 188.905C165.943 185.634 176.869 178.313 182.727 163.867C183.832 161.15 184.431 160.141 184.515 160.871L184.637 161.972C181.961 184.288 182.285 191.344 184.515 198.65L185.128 200.658H117.854H117.363Z" fill="#0047BA"/>
<path id="Vector_6" d="M131.602 102.719C122.743 97.2292 125.626 83.3416 135.408 72.113L139.459 67.4609L139.95 68.93L140.441 71.3785L139.95 71.5009C139.017 71.731 139.464 72.3481 141.536 73.6996C143.559 75.0218 143.603 75.0267 142.896 72.8475L145.351 72.3578C149.103 73.0532 150.738 73.822 151.858 74.7475L153.699 76.2754L154.127 76.8875C154.357 77.2254 154.691 77.9942 155.172 79.7032L159.101 84.6001L158.733 86.9163C158.379 89.1493 158.256 89.2865 155.418 90.7115C151.887 92.4841 149.972 95.4859 151.165 97.3859C151.784 98.3751 152.059 98.4045 157.593 98.0862C163.943 97.7189 164.964 98.0715 163.913 100.285C163.569 101.005 163.584 101.465 164.502 102.229C160.525 103.39 160.166 103.355 158.846 102.474C157.731 101.729 157.294 101.641 157.014 102.107L156.646 102.719L156.523 102.263C156.243 101.23 155.673 101.328 152.481 102.964C148.283 105.113 141.094 105.417 131.602 102.719ZM133.291 90.5841C132.702 91.1718 133.871 92.5968 135.84 93.6937C137.018 94.345 138.374 94.8689 138.845 94.8493C139.316 94.8297 140.092 94.6633 140.564 94.4772C142.071 93.8798 141.492 93.4145 139.228 93.4145C137.475 93.4145 136.689 93.1109 135.285 91.8818C134.322 91.0346 133.424 90.4519 133.291 90.5841ZM148.077 89.2228C145.597 87.6019 142.985 90.0112 144.831 92.2099C145.386 92.871 146.186 93.4145 146.613 93.4145C147.036 93.4145 147.807 93.1844 148.332 92.9053C149.682 92.1854 149.545 90.1826 148.077 89.2228ZM137.436 83.229C134.759 82.9156 133.767 85.3738 135.776 87.3228C136.453 87.979 137.342 88.5176 137.755 88.5176C138.182 88.5176 138.619 87.9251 138.781 87.1318C139.277 84.6393 138.85 83.3906 137.436 83.229ZM148.298 84.6001C147.291 84.6001 147.134 84.8156 147.561 85.6138C147.699 85.8635 148.136 86.0692 148.543 86.0692C148.951 86.0692 149.28 85.9615 149.28 85.8243V85.0898C149.28 84.8205 148.838 84.6001 148.298 84.6001ZM150.699 80.1929C149.918 80.1929 150.232 81.0499 151.49 82.3524C152.167 83.0478 153.046 83.6207 153.454 83.6207C153.861 83.6207 154.19 83.4885 154.19 83.3269C154.19 82.8813 151.2 80.1929 150.699 80.1929ZM132.938 78.9932C131.68 79.4779 131.528 80.7071 132.579 81.9558C133.237 82.7393 133.89 83.0429 134.548 82.8666C135.172 82.7001 135.53 82.1908 135.53 81.4759C135.53 80.0803 133.979 78.5965 132.938 78.9932ZM138.015 76.5006C137.73 76.6769 137.603 77.0295 137.74 77.2841C137.873 77.5388 138.207 77.7444 138.477 77.7444C138.747 77.7444 138.968 77.4898 138.968 77.1715C138.968 76.3635 138.629 76.1236 138.015 76.5006Z" fill="#F8DCC2"/>
<path id="Vector_7" d="M128.656 108.106C129.987 107.641 130.65 106.647 130.989 105.604L131.603 103.699L131.735 104.253C132.334 106.789 140.771 109.11 146.334 108.268C150.744 107.597 151.245 107.871 151.245 110.937C151.245 112.93 151.397 113.224 154.191 114.472L149.281 118.88C138.222 121.803 132.32 119.071 130.007 112.146L128.656 108.106Z" fill="#FCC6AA"/>
<path id="Vector_8" d="M66.8828 124.923C68.6506 124.732 72.225 122.198 76.5954 119.842L84.4388 115.305L85.812 116.876C86.0133 117.121 85.0214 118.507 83.6022 119.952C80.2238 123.399 80.2533 124.197 83.8821 126.656C89.7109 130.603 90.9288 133.046 88.3949 135.715C86.9218 137.257 86.9218 137.257 90.3542 141.405C85.2178 138.56 80.0225 134.922 75.4998 131.489L66.8828 124.923Z" fill="#FCC6AA"/>
<path id="Vector_9" d="M90.3544 141.408C86.9219 137.26 86.9219 137.26 88.395 135.718C90.9289 133.049 89.7111 130.605 83.8823 126.658C80.2534 124.2 80.2239 123.402 83.6024 119.954C85.0215 118.51 86.0134 117.124 85.8121 116.879L84.4348 115.312L90.6638 111.699C91.172 112.536 91.4687 112.939 91.8275 114.475L91.2137 116.556C90.7079 118.265 90.7521 120.714 92.3186 141.898L90.3544 141.408Z" fill="#FCB596"/>
<path id="Vector_10" d="M131.602 103.702V102.722C141.094 105.421 148.283 105.117 152.481 102.967C155.673 101.332 156.243 101.234 156.523 102.267L156.645 102.722C155.501 106.865 155.536 107.507 156.277 109.598L157.136 112.027L154.19 114.475C151.396 113.226 151.244 112.932 151.244 110.939C151.244 107.874 150.743 107.6 146.333 108.271C140.77 109.113 132.333 106.792 131.734 104.255L131.602 103.702Z" fill="#FCB596"/>
<path id="Vector_11" d="M35.8363 60.9535C35.9787 60.8703 37.3635 59.9888 38.9152 58.9899L41.7387 57.178C43 56.3731 44.9355 57.1046 45.5444 57.3053L46.6493 57.6677C45.4757 64.2785 44.5967 65.3314 40.4669 67.251C32.998 70.7278 30.3758 69.3126 33.3761 63.4216C34.2199 62.3388 34.7493 61.7959 35.8363 60.9535Z" fill="#FCC6AA"/>
<path id="Vector_12" d="M159.103 84.6016C161.867 85.3459 162.187 86.2959 161.347 88.6905C160.281 91.7315 160.9 93.1956 163.768 94.4248C166.621 95.649 167.289 97.0936 166.248 99.782L165.487 101.741L164.504 102.23C163.586 101.467 163.571 101.006 163.915 100.286C164.966 98.073 163.945 97.7204 157.595 98.0876C152.061 98.4059 151.786 98.3766 151.167 97.3874C149.974 95.4874 151.889 92.4856 155.42 90.7129C158.258 89.2879 158.381 89.1508 158.735 86.9178L159.103 84.6016Z" fill="#FCC6AA"/>
<path id="Vector_13" d="M92.3179 141.895C90.7515 120.711 90.7073 118.263 91.2131 116.554L91.8269 114.473C94.4344 117.112 94.5031 117.46 94.9254 124.511C95.166 128.551 95.6718 134.555 96.0499 137.855L96.7374 143.854L92.3179 141.895Z" fill="#0047BA"/>
<path id="Vector_14" d="M149.281 118.879L154.192 114.472L157.138 112.023L166.468 117.9C164.524 117.9 162.79 117.239 161.356 116.431C159.927 115.623 158.336 115.001 157.826 115.05C157.202 115.113 157.138 115.197 157.629 115.309C163.738 116.705 171.005 126.043 167.386 127.845C166.282 128.399 166.164 128.296 164.995 125.74C163.566 122.62 160.855 121.21 153.332 119.697L149.281 118.879Z" fill="#4C77FC"/>
<path id="Vector_15" d="M79.06 36.6121C80.7296 30.8239 81.4956 30.2461 84.7267 30.2461C86.9905 30.2461 87.02 30.2657 86.6615 31.5927C86.4602 32.3322 86.2146 33.3262 86.1164 33.7964L85.9347 34.6533C86.357 44.2023 86.357 44.2023 84.6924 44.6773C81.6724 45.5342 78.8636 41.9644 79.0305 37.469L79.06 36.6121Z" fill="#FF2600"/>
<path id="Vector_16" d="M34.865 145.324L41.2487 147.283C41.725 148.723 41.838 150.045 41.8036 151.152L41.7398 153.159C38.1256 152.263 36.4659 152.043 35.7244 152.092L34.374 152.18C29.2375 152.865 27.6711 153.086 27.5778 153.11C27.4845 153.14 27.4845 151.803 27.5778 150.148C27.7693 146.725 28.1818 146.348 32.4687 145.691L34.865 145.324Z" fill="#FF2600"/>
<path id="Vector_17" d="M84.7319 171.447C89.2201 171.956 89.9714 172.563 90.2513 175.932C90.487 178.763 90.487 178.763 89.0728 178.435C85.935 177.71 81.5548 177.553 79.124 178.072C77.7147 178.376 76.4576 178.621 76.3349 178.621C76.2121 178.621 75.9813 177.828 75.8143 176.863C75.117 172.74 78.4267 170.732 84.7319 171.447Z" fill="#FCB549"/>
<path id="Vector_18" d="M112.874 45.7539C116.081 42.3897 117.033 42.1498 120.063 43.9567C122.661 45.5042 122.661 45.5042 120.49 46.9389C118.29 48.3884 114.804 53.1237 114.215 55.4547C114.048 56.1353 113.689 56.6887 113.424 56.6887C113.159 56.6887 112.172 55.9933 111.224 55.1413C108.538 52.7173 109.059 49.7596 112.874 45.7539Z" fill="#FC9B3F"/>
<path id="Vector_19" d="M138.967 52.7726L138.447 53.7862C138.162 54.3494 138.005 55.03 138.093 55.3043C138.186 55.5834 138.53 55.2357 139.458 53.2623C144.03 48.855 147.217 47.386 147.683 48.5514L147.806 48.855C142.758 52.4151 139.821 56.1074 139.581 57.7919L139.458 58.6489L138.967 63.5458C135.456 63.9326 135.682 54.178 138.108 53.1398L138.967 52.7726Z" fill="#0A027C"/>
<path id="Vector_20" d="M41.7378 131.123L40.3134 129.672C37.2816 125.592 36.9059 124.41 37.7755 123.71C39.1209 123.007 40.0075 122.309 41.7378 122.309C43.7658 122.573 44.1292 123.219 45.0524 126.358C46.9675 132.881 46.4814 134.159 42.9507 131.902L41.7378 131.123Z" fill="#FC9B3F"/>
<path id="Vector_21" d="M148.079 89.2257C149.548 90.1855 149.685 92.1884 148.335 92.9082C147.809 93.1873 147.038 93.4175 146.616 93.4175C146.189 93.4175 145.388 92.8739 144.834 92.2129C142.987 90.0141 145.6 87.6049 148.079 89.2257Z" fill="#FCC6AA"/>
<path id="Vector_22" d="M137.435 83.2303C138.849 83.3919 139.276 84.6406 138.78 87.1332C138.618 87.9265 138.181 88.519 137.754 88.519C137.341 88.519 136.453 87.9803 135.775 87.3241C133.767 85.3752 134.759 82.9169 137.435 83.2303Z" fill="#FCC6AA"/>
<path id="Vector_23" d="M167.449 101.741C167.798 101.173 169.674 100.071 171.849 98.9249L175.797 96.8438C175.385 99.1061 171.441 101.466 169.246 101.618L167.449 101.741Z" fill="#0A027C"/>
<path id="Vector_24" d="M132.938 78.995C133.979 78.5983 135.531 80.0821 135.531 81.4777C135.531 82.1926 135.172 82.7019 134.549 82.8684C133.891 83.0447 133.238 82.7411 132.58 81.9576C131.529 80.7089 131.681 79.4798 132.938 78.995Z" fill="#FCC6AA"/>
<path id="Vector_25" d="M133.294 90.5851C133.426 90.4529 134.325 91.0356 135.287 91.8828C136.692 93.1119 137.477 93.4155 139.23 93.4155C141.494 93.4155 142.074 93.8807 140.566 94.4782C140.095 94.6642 139.319 94.8307 138.847 94.8503C138.376 94.8699 137.021 94.3459 135.842 93.6947C133.873 92.5977 132.704 91.1727 133.294 90.5851Z" fill="#FCC6AA"/>
<path id="Vector_26" d="M140.44 71.3781L139.949 68.9297C141.034 69.8797 142.247 70.6485 143.352 71.2557L145.351 72.3575L142.896 72.8472L140.44 71.3781Z" fill="#FCC6AA"/>
<path id="Vector_27" d="M150.698 80.1953C151.199 80.1953 154.19 82.8837 154.19 83.3293C154.19 83.4909 153.861 83.6231 153.453 83.6231C153.045 83.6231 152.166 83.0502 151.489 82.3549C150.232 81.0523 149.917 80.1953 150.698 80.1953Z" fill="#383389"/>
<path id="Vector_28" d="M140.439 71.3828L142.895 72.8519C143.602 75.031 143.558 75.0261 141.535 73.7039C139.462 72.3524 139.015 71.7354 139.948 71.5052L140.439 71.3828Z" fill="#383389"/>
<path id="Vector_29" d="M138.969 63.5453L139.46 58.6484L139.951 65.5041L138.969 63.5453Z" fill="#383389"/>
<path id="Vector_30" d="M148.299 84.6016C148.839 84.6016 149.281 84.8219 149.281 85.0913V85.8258C149.281 85.9629 148.952 86.0706 148.545 86.0706C148.137 86.0706 147.7 85.865 147.563 85.6152C147.135 84.817 147.292 84.6016 148.299 84.6016Z" fill="#0047BA"/>
<path id="Vector_31" d="M153.699 76.2773C154.951 76.2773 155.172 76.7964 155.172 77.9913V79.7052C154.691 77.9962 154.357 77.2273 154.126 76.8895L153.699 76.2773Z" fill="#FCB596"/>
<path id="Vector_32" d="M138.969 52.7734L139.46 53.2631C138.532 55.2366 138.188 55.5843 138.095 55.3051C138.007 55.0309 138.164 54.3502 138.448 53.7871L138.969 52.7734Z" fill="#FCE0C6"/>
<path id="Vector_33" d="M138.014 76.5024C138.628 76.1253 138.967 76.3653 138.967 77.1732C138.967 77.4915 138.746 77.7462 138.476 77.7462C138.206 77.7462 137.872 77.5405 137.739 77.2859C137.602 77.0312 137.729 76.6787 138.014 76.5024Z" fill="#0047BA"/>
<path id="Vector_34" d="M164.504 102.232L165.486 101.742H167.45L164.504 102.232Z" fill="#FCE0C6"/>
<path id="Vector_35" d="M165.487 101.738L166.248 99.7797C167.289 97.0913 166.621 95.6467 163.768 94.4225C160.9 93.1934 160.282 91.7292 161.347 88.6882C162.187 86.2936 161.868 85.3436 159.103 84.5993C155.994 82.7068 155.147 81.6344 155.175 79.7024V77.9885C155.175 76.7936 154.954 76.2746 153.701 76.2746L151.86 74.7467C150.74 73.8212 149.105 73.0524 145.354 72.357L143.355 71.2552C142.25 70.648 141.037 69.8792 139.952 68.9292L139.461 67.4601L139.952 65.5014L139.461 58.6457L139.584 57.7887C139.824 56.1042 142.761 52.4119 147.809 48.8519L151.246 47.3828H158.121C163.557 49.2436 164.667 50.6442 163.96 52.696C162.948 55.6145 163.488 56.4421 167.613 58.347C170.289 59.581 172.219 60.9277 174.321 63.0333L177.272 65.9911C180.926 74.3942 180.955 74.5655 180.832 80.0256L180.709 85.5787C179.747 89.9957 178.686 92.4246 177.64 94.0259L175.799 96.8416L171.851 98.9228C169.675 100.069 167.8 101.17 167.451 101.738H165.487Z" fill="#0A027C"/>
<g id="Vector_36">
<path d="M113.432 180.581C113.824 179.215 114.355 179.137 116.501 179.411C118.426 179.651 119.835 179.514 121.696 178.897C123.94 178.152 124.564 178.128 126.774 178.691C128.923 179.239 129.235 179.319 130.541 178.162C130.763 177.965 131.013 177.733 131.306 177.462C132.411 176.429 134.92 174.176 136.879 172.452L140.44 169.318L141.707 182.375L141.913 184.499L138.598 185.948C136.776 186.742 134.743 187.403 134.085 187.417C133.422 187.427 132.597 187.878 131.601 189.396C121.082 188.064 119.609 187.324 116.01 183.397L113.432 180.581Z" fill="#FCB596"/>
<path d="M131.601 189.396C132.597 187.878 133.422 187.427 134.085 187.417C134.743 187.403 136.776 186.742 138.598 185.948L141.913 184.499C142.134 187.442 141.937 188.318 141.559 188.538L140.931 188.905L131.601 189.396Z" fill="#F99977"/>
<path d="M121.657 143.222C116.894 134.168 108.772 114.096 109.012 109.086L109.135 107.352C109.204 106.397 109.425 105.516 109.994 105.168L110.201 101.618C110.525 95.9814 109.832 94.8306 106.984 96.2899C104.721 97.4455 104.721 97.4455 103.675 95.379C103.1 94.2429 102.629 93.004 102.629 91.9463L102.138 91.4566C98.3319 83.4061 97.9882 83.2102 95.4937 84.8017L94.2808 85.5803L92.8076 86.5597C91.7622 87.9002 90.9279 88.9804 90.2611 89.875C90.65 94.4664 92.2409 104.194 95.4937 106.375C99.5596 109.101 102.455 123.012 103.675 128.375C108.206 148.307 120.09 169.213 130.541 178.162C130.763 177.965 131.013 177.733 131.306 177.462C132.411 176.429 134.92 174.176 136.879 172.452L140.44 169.318L139.949 156.585L136.683 156.174C131.537 155.533 128.095 153.364 122.762 145.323L121.657 143.222Z" fill="#FCC6AA"/>
<path d="M113.432 180.581C113.824 179.215 114.355 179.137 116.501 179.411C118.426 179.651 119.835 179.514 121.696 178.897C123.94 178.152 124.564 178.128 126.774 178.691C128.923 179.239 129.235 179.319 130.541 178.162C120.09 169.213 108.206 148.307 103.675 128.375C102.455 123.012 99.5596 109.101 95.4937 106.375C92.2409 104.194 90.65 94.4664 90.2611 89.875C87.783 93.1995 87.6178 93.9605 87.5288 95.9862L87.406 98.802C87.1801 104.894 87.3471 105.496 89.2524 109.085L91.3344 113.003L91.8255 114.472C94.433 117.112 94.5017 117.459 94.924 124.511C95.1646 128.551 95.6704 134.554 96.0485 137.855L96.736 143.854L99.5596 153.402C101.111 158.652 103.1 164.494 105.575 169.807L110.486 177.642L113.432 180.581Z" fill="#FCB596"/>
</g>
<path id="Star 9" d="M66.1288 75.9206C66.5114 75.2419 67.4886 75.2419 67.8712 75.9206L70.5841 80.7339C70.7268 80.987 70.9726 81.1656 71.2575 81.2231L76.6735 82.3159C77.4372 82.47 77.7392 83.3994 77.2119 83.9729L73.4726 88.0405C73.2759 88.2544 73.182 88.5434 73.2154 88.8321L73.8497 94.3208C73.9392 95.0946 73.1485 95.6691 72.4402 95.3449L67.4162 93.0455C67.1519 92.9245 66.8481 92.9245 66.5838 93.0455L61.5598 95.3449C60.8515 95.6691 60.0608 95.0946 60.1503 94.3208L60.7846 88.8321C60.818 88.5434 60.7241 88.2544 60.5274 88.0405L56.7881 83.9729C56.2608 83.3994 56.5628 82.47 57.3265 82.3159L62.7425 81.2231C63.0274 81.1656 63.2732 80.987 63.4159 80.7339L66.1288 75.9206Z" fill="#FF7500"/>
</g>
<defs>
<linearGradient id="paint0_linear_40001368_9363" x1="40.502" y1="70.375" x2="89.002" y2="82.875" gradientUnits="userSpaceOnUse">
<stop stop-color="#FCB549"/>
<stop offset="1" stop-color="#FC9B3F"/>
</linearGradient>
<clipPath id="clip0_40001368_9363">
<rect width="247" height="237.5" fill="white" transform="translate(0 0.375)"/>
</clipPath>
</defs>
</svg>
