<svg width="24" height="25" viewBox="0 0 24 25" fill="none" xmlns="http://www.w3.org/2000/svg">
<g id="puzzle-piece 1" clip-path="url(#clip0_40000599_3404)">
<path id="Vector" d="M18 24.375H10.437L10.728 23.145C10.8777 22.5656 10.9688 21.9726 11 21.375C11 20.8446 10.7893 20.3359 10.4142 19.9608C10.0391 19.5857 9.53043 19.375 9 19.375C8.46957 19.375 7.96086 19.5857 7.58579 19.9608C7.21071 20.3359 7 20.8446 7 21.375C7.03122 21.9726 7.12235 22.5656 7.272 23.145L7.563 24.375H0V9.375C0 8.57935 0.31607 7.81629 0.87868 7.25368C1.44129 6.69107 2.20435 6.375 3 6.375H5.272C5.11363 5.7193 5.02249 5.04918 5 4.375C5 3.31413 5.42143 2.29672 6.17157 1.54657C6.92172 0.796427 7.93913 0.375 9 0.375C10.0609 0.375 11.0783 0.796427 11.8284 1.54657C12.5786 2.29672 13 3.31413 13 4.375C12.9775 5.04918 12.8864 5.7193 12.728 6.375H15C15.7956 6.375 16.5587 6.69107 17.1213 7.25368C17.6839 7.81629 18 8.57935 18 9.375V11.147C18.6558 10.9892 19.3259 10.8981 20 10.875C21.0609 10.875 22.0783 11.2964 22.8284 12.0466C23.5786 12.7967 24 13.8141 24 14.875C24 15.9359 23.5786 16.9533 22.8284 17.7034C22.0783 18.4536 21.0609 18.875 20 18.875C19.3259 18.8519 18.6558 18.7608 18 18.603V24.375ZM12.914 22.375H16V15.957L17.291 16.349C18.1689 16.6351 19.0788 16.8118 20 16.875C20.5304 16.875 21.0391 16.6643 21.4142 16.2892C21.7893 15.9141 22 15.4054 22 14.875C22 14.3446 21.7893 13.8359 21.4142 13.4608C21.0391 13.0857 20.5304 12.875 20 12.875C19.0788 12.9382 18.1689 13.1149 17.291 13.401L16 13.793V9.375C16 9.10978 15.8946 8.85543 15.7071 8.66789C15.5196 8.48036 15.2652 8.375 15 8.375H10.082L10.474 7.084C10.7603 6.20614 10.937 5.29623 11 4.375C11 3.84457 10.7893 3.33586 10.4142 2.96079C10.0391 2.58571 9.53043 2.375 9 2.375C8.46957 2.375 7.96086 2.58571 7.58579 2.96079C7.21071 3.33586 7 3.84457 7 4.375C7.06299 5.29623 7.23967 6.20614 7.526 7.084L7.918 8.375H3C2.73478 8.375 2.48043 8.48036 2.29289 8.66789C2.10536 8.85543 2 9.10978 2 9.375V22.375H5.086C5.03394 22.0441 5.0052 21.7099 5 21.375C5 20.3141 5.42143 19.2967 6.17157 18.5466C6.92172 17.7964 7.93913 17.375 9 17.375C10.0609 17.375 11.0783 17.7964 11.8284 18.5466C12.5786 19.2967 13 20.3141 13 21.375C12.9948 21.7099 12.9661 22.0441 12.914 22.375Z" fill="black"/>
</g>
<defs>
<clipPath id="clip0_40000599_3404">
<rect width="24" height="24" fill="white" transform="translate(0 0.375)"/>
</clipPath>
</defs>
</svg>
