<svg width="191" height="138" viewBox="0 0 191 138" fill="none" xmlns="http://www.w3.org/2000/svg">
<g clip-path="url(#clip0_40000631_4647)">
<rect width="191" height="138" fill="white"/>
<g filter="url(#filter0_f_40000631_4647)">
<circle cx="145.951" cy="43.5797" r="30.4" fill="#7DFDB1"/>
</g>
<path d="M0.9646 138.82L224.577 138.82L224.577 -84.7922M224.577 118.248L0.9646 118.248M224.577 97.6756L0.964599 97.6756M224.577 77.1032L0.964598 77.1033M224.577 56.5309L0.964597 56.5309M224.577 35.9585L0.964596 35.9586M224.577 15.3862L0.964595 15.3862M224.577 -5.18617L0.964594 -5.18616M224.577 -25.7585L0.964593 -25.7585M224.577 -46.3309L0.964592 -46.3309M224.577 -66.9032L0.964591 -66.9032M224.577 -87.4756L0.964591 -87.4755M204.005 -84.7922L204.005 138.82M183.432 -84.7922L183.432 138.82M162.86 -84.7922L162.86 138.82M142.288 -84.7922L142.288 138.82M121.715 -84.7922L121.715 138.82M101.143 -84.7922L101.143 138.82M80.5706 -84.7922L80.5707 138.82M59.9983 -84.7922L59.9983 138.82M39.4259 -84.7922L39.426 138.82M18.8536 -84.7922L18.8536 138.82M-1.71876 -84.7922L-1.71874 138.82" stroke="url(#paint0_radial_40000631_4647)" stroke-opacity="0.4" stroke-width="0.250329"/>
<g opacity="0.7">
<rect x="52.5039" y="14.6328" width="41.5357" height="42.3911" rx="20.7678" transform="rotate(-1.21749 52.5039 14.6328)" fill="white"/>
<g opacity="0.7" filter="url(#filter1_d_40000631_4647)">
<path d="M62.7682 30.0567L72.0612 24.9244L82.1233 26.7265L82.9471 39.7288L75.6512 45.7895L66.4747 42.563L62.7682 30.0567Z" fill="#5AFA9A" fill-opacity="0.8" stroke="white" stroke-width="3.45909"/>
<path d="M75.558 45.8059L75.468 45.8214C75.4526 45.8018 75.4461 45.7798 75.4473 45.7545C74.997 43.1159 74.5466 40.4772 74.0963 37.8385C74.8418 37.7047 75.5916 37.5859 76.332 37.4279C76.6258 37.3653 76.7586 37.4592 76.8996 37.7028C77.3409 38.4599 77.8085 39.2024 78.27 39.9477C78.3532 40.0817 78.4084 40.2353 78.6412 40.1897C79.3064 40.0576 79.9773 39.9533 80.7048 39.8281C77.9033 35.6211 75.1328 31.4596 72.3625 27.2991C72.159 26.7568 72.0931 26.1852 71.9922 25.6206C71.9548 25.4083 71.93 25.1995 72.0706 25.0103C72.2046 25.0197 72.3403 25.0177 72.4722 25.0413C74.7562 25.4397 77.0397 25.8401 79.322 26.2443C80.3055 26.418 81.2879 26.6011 82.2714 26.7803L82.2869 26.8703C82.2232 26.9035 82.2227 26.9601 82.2261 27.0226C82.3576 29.2991 82.489 31.5747 82.6195 33.8505C82.7224 35.6379 82.8108 37.427 82.9349 39.2137C82.9663 39.6651 82.8659 39.9854 82.4759 40.237C82.1476 40.4491 81.8561 40.7189 81.5496 40.9662C79.5513 42.5787 77.5541 44.1919 75.556 45.8053L75.558 45.8059Z" fill="#FF878F"/>
<path d="M74.0978 37.8379C74.5481 40.4765 74.9984 43.1152 75.4487 45.7539C75.3897 45.7446 75.3268 45.7452 75.2715 45.7251C72.4411 44.7395 69.6128 43.75 66.7797 42.7705C66.562 42.6949 66.483 42.5639 66.4239 42.36C65.4072 38.8782 64.3888 35.3966 63.3555 31.9205C63.1861 31.35 63.1029 30.7481 62.7967 30.2225L62.7658 30.0425C63.3513 29.8676 63.8379 29.4994 64.3614 29.2054C66.8705 27.7961 69.3736 26.3738 71.8785 24.9559C71.9387 24.9455 71.9981 24.9353 72.0583 24.9249C72.0631 24.9528 72.0679 24.9807 72.072 25.0097C71.9312 25.1979 71.9561 25.4068 71.9937 25.62C72.0945 26.1846 72.1606 26.757 72.3641 27.2993C72.2339 27.3875 72.2478 27.5381 72.2158 27.664C71.2994 31.2598 70.387 34.8567 69.4735 38.4528C69.1837 39.5934 68.8938 40.734 68.5939 41.9125C69.307 41.7898 69.963 41.6639 70.6227 41.5699C70.8694 41.5348 70.8957 41.3811 70.9339 41.1994C71.1187 40.3253 71.3091 39.452 71.4908 38.5765C71.5299 38.389 71.5614 38.2437 71.8045 38.2093C72.5709 38.1006 73.3336 37.9647 74.0979 37.8388L74.0978 37.8379Z" fill="#FFCDD0"/>
<path d="M74.0975 37.8407C73.3331 37.9667 72.5713 38.1024 71.804 38.2113C71.5609 38.2457 71.5294 38.391 71.4904 38.5784C71.3087 39.4539 71.118 40.3263 70.9335 41.2014C70.8954 41.384 70.8681 41.537 70.6222 41.5719C69.9617 41.6661 69.3065 41.7918 68.5934 41.9145C68.8932 40.7351 69.1832 39.5954 69.473 38.4548C70.3865 34.8586 71.299 31.2617 72.2153 27.666C72.2473 27.54 72.2335 27.3895 72.3637 27.3013C75.1341 31.4628 77.9046 35.6242 80.7059 39.8304C79.9784 39.9555 79.3075 40.0598 78.6424 40.1919C78.4087 40.2386 78.3535 40.0841 78.2711 39.95C77.8096 39.2046 77.3421 38.4622 76.9007 37.705C76.7588 37.4616 76.626 37.3677 76.3331 37.4301C75.5927 37.5881 74.8438 37.7068 74.0975 37.8407ZM73.1762 31.8997C73.0176 31.5915 73.0343 31.9306 73.0287 31.952C72.844 32.7297 72.6661 33.5091 72.4902 34.2891C72.347 34.9263 72.2068 35.5639 72.0619 36.218L75.5833 35.6121C74.7617 34.3458 73.9698 33.1226 73.1762 31.8997Z" fill="white"/>
<path d="M73.7696 35.9194L72.0637 36.2129C72.2095 35.5586 72.3487 34.9203 72.492 34.284C72.6679 33.504 72.8449 32.7248 73.0305 31.9469C73.0361 31.9255 73.0185 31.5866 73.178 31.8946C73.3683 33.0277 73.5593 34.1597 73.7497 35.2927C73.7854 35.5006 73.8397 35.7081 73.7696 35.9194Z" fill="#FF878F"/>
<path d="M73.7697 35.922C73.8398 35.7107 73.7847 35.5033 73.7498 35.2953C73.5595 34.1622 73.3684 33.0302 73.1781 31.8972C73.9709 33.1203 74.7646 34.3432 75.5861 35.6095L73.7706 35.9218L73.7697 35.922Z" fill="#FF878F"/>
</g>
</g>
<g opacity="0.7">
<rect x="52.5039" y="14.6328" width="41.5357" height="42.3911" rx="20.7678" transform="rotate(-1.21749 52.5039 14.6328)" fill="#FF878F"/>
<g opacity="0.7" filter="url(#filter2_d_40000631_4647)">
<path d="M62.7682 30.0567L72.0612 24.9244L82.1233 26.7265L82.9471 39.7288L75.6512 45.7895L66.4747 42.563L62.7682 30.0567Z" fill="#5AFA9A" fill-opacity="0.8" stroke="white" stroke-width="3.45909"/>
<path d="M75.558 45.8059L75.468 45.8214C75.4526 45.8018 75.4461 45.7798 75.4473 45.7545C74.997 43.1159 74.5466 40.4772 74.0963 37.8385C74.8418 37.7047 75.5916 37.5859 76.332 37.4279C76.6258 37.3653 76.7586 37.4592 76.8996 37.7028C77.3409 38.4599 77.8085 39.2024 78.27 39.9477C78.3532 40.0817 78.4084 40.2353 78.6412 40.1897C79.3064 40.0576 79.9773 39.9533 80.7048 39.8281C77.9033 35.6211 75.1328 31.4596 72.3625 27.2991C72.159 26.7568 72.0931 26.1852 71.9922 25.6206C71.9548 25.4083 71.93 25.1995 72.0706 25.0103C72.2046 25.0197 72.3403 25.0177 72.4722 25.0413C74.7562 25.4397 77.0397 25.8401 79.322 26.2443C80.3055 26.418 81.2879 26.6011 82.2714 26.7803L82.2869 26.8703C82.2232 26.9035 82.2227 26.9601 82.2261 27.0226C82.3576 29.2991 82.489 31.5747 82.6195 33.8505C82.7224 35.6379 82.8108 37.427 82.9349 39.2137C82.9663 39.6651 82.8659 39.9854 82.4759 40.237C82.1476 40.4491 81.8561 40.7189 81.5496 40.9662C79.5513 42.5787 77.5541 44.1919 75.556 45.8053L75.558 45.8059Z" fill="#FF878F"/>
<path d="M74.0978 37.8379C74.5481 40.4765 74.9984 43.1152 75.4487 45.7539C75.3897 45.7446 75.3268 45.7452 75.2715 45.7251C72.4411 44.7395 69.6128 43.75 66.7797 42.7705C66.562 42.6949 66.483 42.5639 66.4239 42.36C65.4072 38.8782 64.3888 35.3966 63.3555 31.9205C63.1861 31.35 63.1029 30.7481 62.7967 30.2225L62.7658 30.0425C63.3513 29.8676 63.8379 29.4994 64.3614 29.2054C66.8705 27.7961 69.3736 26.3738 71.8785 24.9559C71.9387 24.9455 71.9981 24.9353 72.0583 24.9249C72.0631 24.9528 72.0679 24.9807 72.072 25.0097C71.9312 25.1979 71.9561 25.4068 71.9937 25.62C72.0945 26.1846 72.1606 26.757 72.3641 27.2993C72.2339 27.3875 72.2478 27.5381 72.2158 27.664C71.2994 31.2598 70.387 34.8567 69.4735 38.4528C69.1837 39.5934 68.8938 40.734 68.5939 41.9125C69.307 41.7898 69.963 41.6639 70.6227 41.5699C70.8694 41.5348 70.8957 41.3811 70.9339 41.1994C71.1187 40.3253 71.3091 39.452 71.4908 38.5765C71.5299 38.389 71.5614 38.2437 71.8045 38.2093C72.5709 38.1006 73.3336 37.9647 74.0979 37.8388L74.0978 37.8379Z" fill="#FFCDD0"/>
<path d="M74.0975 37.8407C73.3331 37.9667 72.5713 38.1024 71.804 38.2113C71.5609 38.2457 71.5294 38.391 71.4904 38.5784C71.3087 39.4539 71.118 40.3263 70.9335 41.2014C70.8954 41.384 70.8681 41.537 70.6222 41.5719C69.9617 41.6661 69.3065 41.7918 68.5934 41.9145C68.8932 40.7351 69.1832 39.5954 69.473 38.4548C70.3865 34.8586 71.299 31.2617 72.2153 27.666C72.2473 27.54 72.2335 27.3895 72.3637 27.3013C75.1341 31.4628 77.9046 35.6242 80.7059 39.8304C79.9784 39.9555 79.3075 40.0598 78.6424 40.1919C78.4087 40.2386 78.3535 40.0841 78.2711 39.95C77.8096 39.2046 77.3421 38.4622 76.9007 37.705C76.7588 37.4616 76.626 37.3677 76.3331 37.4301C75.5927 37.5881 74.8438 37.7068 74.0975 37.8407ZM73.1762 31.8997C73.0176 31.5915 73.0343 31.9306 73.0287 31.952C72.844 32.7297 72.6661 33.5091 72.4902 34.2891C72.347 34.9263 72.2068 35.5639 72.0619 36.218L75.5833 35.6121C74.7617 34.3458 73.9698 33.1226 73.1762 31.8997Z" fill="white"/>
<path d="M73.7696 35.9194L72.0637 36.2129C72.2095 35.5586 72.3487 34.9203 72.492 34.284C72.6679 33.504 72.8449 32.7248 73.0305 31.9469C73.0361 31.9255 73.0185 31.5866 73.178 31.8946C73.3683 33.0277 73.5593 34.1597 73.7497 35.2927C73.7854 35.5006 73.8397 35.7081 73.7696 35.9194Z" fill="#FF878F"/>
<path d="M73.7697 35.922C73.8398 35.7107 73.7847 35.5033 73.7498 35.2953C73.5595 34.1622 73.3684 33.0302 73.1781 31.8972C73.9709 33.1203 74.7646 34.3432 75.5861 35.6095L73.7706 35.9218L73.7697 35.922Z" fill="#FF878F"/>
</g>
</g>
<g filter="url(#filter3_b_40000631_4647)">
<rect x="87.3809" y="32.4609" width="64" height="64" rx="12.5446" transform="rotate(-29.2589 87.3809 32.4609)" fill="url(#paint1_linear_40000631_4647)"/>
<rect x="87.7323" y="32.56" width="63.4837" height="63.4837" rx="12.2864" transform="rotate(-29.2589 87.7323 32.56)" stroke="url(#paint2_linear_40000631_4647)" stroke-width="0.516328"/>
<path d="M122.997 60.3274C122.794 59.9652 122.736 59.6168 122.823 59.2822C122.91 58.9477 123.097 58.7 123.384 58.5391C123.535 58.4543 123.701 58.3931 123.881 58.3555C124.061 58.3178 124.246 58.3092 124.436 58.3295C124.797 58.3273 125.152 58.2985 125.502 58.243C125.852 58.1875 126.194 58.0658 126.529 57.8782C127.513 57.327 128.154 56.5022 128.451 55.4038C128.749 54.3053 128.621 53.2609 128.066 52.2705C127.511 51.2801 126.693 50.6347 125.611 50.3342C124.53 50.0336 123.498 50.1589 122.514 50.7102C122.207 50.8818 121.933 51.0924 121.691 51.342C121.448 51.5919 121.253 51.8722 121.105 52.1829C120.991 52.3737 120.862 52.5346 120.718 52.6656C120.574 52.7969 120.426 52.9049 120.275 52.9897C119.988 53.1506 119.678 53.1782 119.344 53.0726C119.011 52.9669 118.751 52.7475 118.564 52.4143L116.045 47.9173C115.833 47.5396 115.783 47.1528 115.893 46.7569C116.003 46.3609 116.246 46.0578 116.621 45.8476L122.679 42.4536C122.784 42.3945 122.818 42.3251 122.779 42.2453C122.741 42.1657 122.662 42.1088 122.542 42.0746C122.112 41.8222 121.713 41.5202 121.346 41.1689C120.979 40.8172 120.642 40.3668 120.335 39.8178C119.396 38.1416 119.179 36.3962 119.684 34.5816C120.189 32.7671 121.274 31.3933 122.939 30.4604C124.604 29.5275 126.343 29.3194 128.154 29.8364C129.965 30.3533 131.34 31.4499 132.279 33.1261C132.587 33.6751 132.795 34.1979 132.903 34.6943C133.011 35.1906 133.061 35.6882 133.051 36.1872C133.018 36.3073 133.025 36.4045 133.073 36.4787C133.121 36.5532 133.197 36.5609 133.303 36.5018L139.361 33.1078C139.736 32.8976 140.121 32.849 140.517 32.962C140.912 33.0746 141.215 33.3197 141.427 33.6975L143.768 37.8762C143.98 38.254 144.071 38.6625 144.042 39.1017C144.012 39.5409 143.824 39.8575 143.478 40.0515C143.269 40.1683 143.08 40.239 142.91 40.2635C142.74 40.288 142.558 40.2911 142.364 40.2729C142.051 40.2207 141.736 40.2259 141.421 40.2886C141.105 40.3515 140.775 40.4795 140.43 40.6726C139.446 41.2239 138.8 42.039 138.492 43.1181C138.183 44.1973 138.307 45.2321 138.861 46.2225C139.416 47.2129 140.24 47.8679 141.332 48.1877C142.424 48.5075 143.462 48.3919 144.446 47.8406C144.791 47.6476 145.083 47.4237 145.322 47.1691C145.562 46.9147 145.753 46.6272 145.896 46.3068C145.966 46.1407 146.048 45.99 146.14 45.8549C146.233 45.7194 146.364 45.604 146.535 45.5085C146.853 45.3305 147.188 45.2938 147.541 45.3985C147.894 45.5033 148.173 45.7396 148.379 46.1076L150.883 50.5756C151.094 50.9534 151.145 51.3402 151.034 51.736C150.924 52.132 150.682 52.4351 150.306 52.6454L127.566 65.3851C127.191 65.5953 126.806 65.644 126.411 65.531C126.015 65.4184 125.712 65.1732 125.5 64.7955L122.997 60.3274ZM127.222 62.6161L148.125 50.9057L147.076 49.0327C146.878 49.242 146.67 49.4329 146.45 49.6056C146.229 49.7782 145.983 49.9413 145.709 50.0946C144.105 50.9932 142.416 51.1853 140.641 50.6709C138.866 50.1562 137.527 49.0915 136.622 47.4769C135.718 45.8623 135.515 44.1736 136.013 42.4106C136.512 40.648 137.564 39.3173 139.168 38.4187C139.441 38.2653 139.709 38.1399 139.971 38.0424C140.234 37.9449 140.506 37.8666 140.787 37.8076L139.705 35.8768L132.912 39.6827C132.489 39.9197 132.058 39.983 131.62 39.8725C131.183 39.7621 130.849 39.5017 130.619 39.0914C130.501 38.8815 130.42 38.6461 130.374 38.3853C130.329 38.1248 130.353 37.8858 130.448 37.6683C130.703 37.1307 130.772 36.58 130.656 36.0162C130.54 35.4519 130.334 34.9068 130.04 34.3808C129.45 33.3288 128.591 32.6417 127.463 32.3196C126.334 31.9975 125.247 32.1292 124.202 32.7147C123.157 33.3002 122.477 34.1583 122.162 35.289C121.848 36.4197 121.985 37.5111 122.574 38.5631C122.869 39.0891 123.227 39.5489 123.647 39.9425C124.067 40.336 124.573 40.5645 125.165 40.6281C125.379 40.6472 125.585 40.7375 125.782 40.8991C125.98 41.0607 126.135 41.2416 126.247 41.442C126.485 41.8678 126.542 42.3049 126.418 42.7533C126.293 43.2017 126.019 43.5444 125.596 43.7814L118.802 47.5873L119.884 49.5181C120.081 49.3089 120.29 49.1179 120.51 48.9452C120.73 48.7726 120.977 48.6096 121.251 48.4562C122.855 47.5576 124.539 47.3558 126.302 47.851C128.066 48.3464 129.401 49.4014 130.305 51.016C131.21 52.6306 131.418 54.329 130.93 56.1112C130.442 57.8932 129.396 59.2335 127.792 60.1321C127.518 60.2855 127.25 60.4109 126.988 60.5084C126.726 60.606 126.454 60.6842 126.173 60.7432L127.222 62.6161Z" fill="#DBFFEA"/>
</g>
<g opacity="0.7">
<rect x="133.774" y="68.1931" width="42.466" height="42.466" rx="21.233" transform="rotate(-16.9889 133.774 68.1931)" fill="white"/>
<rect x="133.774" y="68.1931" width="42.466" height="42.466" rx="21.233" transform="rotate(-16.9889 133.774 68.1931)" stroke="#589BFF" stroke-width="0.463945"/>
<g clip-path="url(#clip1_40000631_4647)">
<path d="M160.656 96.3856L159.906 96.3856C159.039 96.2138 158.309 95.7874 157.692 95.1414C157.046 94.4661 156.551 93.6851 156.162 92.8351C155.875 92.2076 155.627 91.5609 155.36 90.9149C154.904 90.9847 154.44 91.0691 153.972 91.1256C152.803 91.268 151.639 91.2746 150.495 90.9355C148.438 90.3263 147.493 88.6431 148.003 86.5086C148.274 85.376 148.821 84.3836 149.483 83.4536C149.814 82.9897 150.174 82.5478 150.525 82.0906C150.373 81.8975 150.217 81.7089 150.07 81.5136C149.224 80.3891 148.496 79.2007 148.2 77.7848C147.816 75.9512 148.558 74.4545 150.242 73.7367C151.48 73.2089 152.78 73.2045 154.088 73.3498C154.537 73.3998 154.983 73.4739 155.405 73.5333C155.679 72.8889 155.91 72.2517 156.211 71.6528C157.023 70.035 158.01 68.5993 159.906 68.1992L160.656 68.1992C162.207 68.5024 163.19 69.5638 163.931 70.8865C164.361 71.652 164.687 72.48 165.03 73.2941C165.122 73.5135 165.202 73.5473 165.416 73.5077C166.804 73.2522 168.195 73.1465 169.587 73.4849C171.79 74.0207 172.845 75.7369 172.324 77.9712C172.057 79.1214 171.488 80.127 170.816 81.0732C170.565 81.4255 170.297 81.7646 170.038 82.1082C170.285 82.4172 170.531 82.7086 170.76 83.0125C171.569 84.0849 172.263 85.2219 172.573 86.5622C173.049 88.6226 172.155 90.247 170.194 90.8937C169.201 91.221 168.178 91.2695 167.15 91.1777C166.495 91.1197 165.844 91.0126 165.173 90.9252C165.139 91.014 165.102 91.1153 165.061 91.2152C164.827 91.7892 164.628 92.3815 164.351 92.932C163.538 94.5476 162.554 95.987 160.656 96.3849L160.656 96.3856ZM164.808 82.1779C164.771 81.4439 164.732 80.5924 164.677 79.7424C164.67 79.6353 164.598 79.4973 164.513 79.4371C163.217 78.5239 161.855 77.7253 160.431 77.042C160.349 77.0031 160.22 77.0031 160.138 77.042C158.705 77.7268 157.337 78.532 156.032 79.4495C155.959 79.5009 155.896 79.6184 155.887 79.7101C155.739 81.3206 155.747 82.9332 155.856 84.5451C155.864 84.6604 155.947 84.8064 156.04 84.8732C157.328 85.8003 158.685 86.6062 160.095 87.319C160.242 87.3938 160.35 87.3784 160.489 87.308C161.877 86.6106 163.205 85.8084 164.483 84.9173C164.651 84.7998 164.716 84.6655 164.722 84.4666C164.744 83.7428 164.775 83.0191 164.808 82.1764L164.808 82.1779ZM154.886 89.3155C154.7 88.0985 154.522 86.9153 154.333 85.7342C154.321 85.6601 154.236 85.5896 154.171 85.5338C153.567 85.0186 152.957 84.5113 152.357 83.9931C152.113 83.7832 151.887 83.5505 151.639 83.3156C151.438 83.5681 151.244 83.7957 151.065 84.035C150.41 84.9107 149.815 85.8216 149.555 86.916C149.26 88.1594 149.711 88.9654 150.898 89.3412C150.966 89.3625 151.035 89.3823 151.104 89.3992C152.376 89.706 153.636 89.5423 154.886 89.3162L154.886 89.3155ZM165.636 89.3023C166.662 89.5108 167.679 89.6502 168.704 89.5181C169.184 89.4564 169.672 89.3346 170.116 89.1423C170.865 88.8193 171.196 88.1337 171.073 87.3087C170.836 85.7122 169.888 84.5216 168.931 83.3208C168.879 83.3597 168.85 83.3795 168.824 83.4022C168.002 84.1201 167.178 84.8351 166.362 85.5595C166.285 85.6278 166.227 85.7496 166.211 85.8546C166.103 86.5321 166.016 87.2133 165.906 87.8908C165.83 88.3576 165.728 88.82 165.635 89.3023L165.636 89.3023ZM156.966 90.5164C157.335 91.6879 157.9 92.8381 158.482 93.5765C158.639 93.7754 158.808 93.9685 158.995 94.1366C159.889 94.9447 160.743 94.941 161.609 94.0984C162.622 93.1126 163.138 91.8288 163.602 90.5237C163.564 90.4943 163.552 90.4789 163.536 90.4731C162.484 90.0723 161.433 89.6708 160.378 89.2773C160.306 89.2502 160.205 89.2663 160.13 89.2964C159.79 89.433 159.458 89.593 159.116 89.7229C158.407 89.9923 157.693 90.2484 156.965 90.5171L156.966 90.5164ZM163.543 73.8974C163.231 72.9953 162.864 72.1108 162.308 71.3298C162.053 70.9709 161.761 70.6237 161.431 70.3389C160.654 69.6695 159.887 69.6775 159.11 70.3506C158.02 71.2946 157.499 72.5967 157.003 73.9304C157.107 73.9679 157.181 73.9943 157.255 74.0215C158.119 74.3364 158.99 74.6329 159.842 74.9772C160.155 75.1041 160.408 75.1041 160.72 74.9772C161.644 74.5984 162.584 74.2615 163.544 73.8982L163.543 73.8974ZM154.925 75.1188C154.435 75.0616 153.907 74.9845 153.376 74.9427C152.571 74.8788 151.77 74.9214 150.997 75.1959C150.028 75.5402 149.632 76.1788 149.731 77.2137C149.746 77.3679 149.78 77.5213 149.819 77.671C150.104 78.7456 150.695 79.6477 151.35 80.5124C151.452 80.6467 151.563 80.773 151.641 80.8684C152.524 80.1388 153.387 79.429 154.245 78.7133C154.308 78.6612 154.368 78.5739 154.381 78.4946C154.564 77.3847 154.74 76.2742 154.925 75.1188ZM168.925 80.8699C169.006 80.77 169.117 80.6409 169.22 80.5043C169.873 79.6382 170.466 78.7361 170.746 77.66C171.087 76.3542 170.637 75.5196 169.376 75.1342C168.658 74.9148 167.918 74.881 167.176 74.9434C166.648 74.9882 166.124 75.0638 165.638 75.121C165.823 76.2764 165.998 77.3781 166.18 78.4784C166.194 78.5592 166.244 78.6517 166.305 78.703C167.17 79.4246 168.04 80.1395 168.925 80.8691L168.925 80.8699ZM158.35 88.2783C157.588 87.8218 156.872 87.3931 156.101 86.9314C156.237 87.6265 156.362 88.2578 156.493 88.9257C157.125 88.7055 157.718 88.4985 158.351 88.2776L158.35 88.2783ZM162.212 88.2798C162.848 88.5007 163.443 88.707 164.071 88.925C164.202 88.2541 164.325 87.6214 164.46 86.9321C163.688 87.3946 162.971 87.824 162.212 88.2791L162.212 88.2798ZM167.822 82.1243C167.332 81.6846 166.88 81.2802 166.401 80.8508L166.401 83.4397C166.893 82.9839 167.34 82.5699 167.822 82.1236L167.822 82.1243ZM154.173 80.8361C153.671 81.2897 153.221 81.6964 152.744 82.128C153.225 82.5721 153.676 82.9875 154.173 83.4463L154.173 80.8361ZM156.147 77.3752C156.883 76.9414 157.569 76.5377 158.311 76.1009C157.688 75.8918 157.127 75.7038 156.531 75.5042C156.402 76.1332 156.28 76.7278 156.147 77.3752ZM162.25 76.1017C163.003 76.5436 163.684 76.9436 164.416 77.3723C164.282 76.7234 164.159 76.1288 164.03 75.5049C163.434 75.7046 162.873 75.8925 162.25 76.1017Z" fill="#E5F0FF"/>
<path d="M162.758 82.289C162.762 83.7071 161.66 84.8412 160.28 84.8405C158.901 84.8405 157.8 83.7049 157.805 82.2875C157.808 80.8797 158.899 79.7574 160.269 79.75C161.65 79.7434 162.754 80.8701 162.758 82.289Z" fill="#E5F0FF"/>
</g>
</g>
<g opacity="0.7">
<rect x="133.774" y="68.1931" width="42.466" height="42.466" rx="21.233" transform="rotate(-16.9889 133.774 68.1931)" fill="url(#paint3_linear_40000631_4647)" fill-opacity="0.7"/>
<rect x="133.774" y="68.1931" width="42.466" height="42.466" rx="21.233" transform="rotate(-16.9889 133.774 68.1931)" stroke="#589BFF" stroke-width="0.463945"/>
<g clip-path="url(#clip2_40000631_4647)">
<path d="M160.656 96.3856L159.906 96.3856C159.039 96.2138 158.309 95.7874 157.692 95.1414C157.046 94.4661 156.551 93.6851 156.162 92.8351C155.875 92.2076 155.627 91.5609 155.36 90.9149C154.904 90.9847 154.44 91.0691 153.972 91.1256C152.803 91.268 151.639 91.2746 150.495 90.9355C148.438 90.3263 147.493 88.6431 148.003 86.5086C148.274 85.376 148.821 84.3836 149.483 83.4536C149.814 82.9897 150.174 82.5478 150.525 82.0906C150.373 81.8975 150.217 81.7089 150.07 81.5136C149.224 80.3891 148.496 79.2007 148.2 77.7848C147.816 75.9512 148.558 74.4545 150.242 73.7367C151.48 73.2089 152.78 73.2045 154.088 73.3498C154.537 73.3998 154.983 73.4739 155.405 73.5333C155.679 72.8889 155.91 72.2517 156.211 71.6528C157.023 70.035 158.01 68.5993 159.906 68.1992L160.656 68.1992C162.207 68.5024 163.19 69.5638 163.931 70.8865C164.361 71.652 164.687 72.48 165.03 73.2941C165.122 73.5135 165.202 73.5473 165.416 73.5077C166.804 73.2522 168.195 73.1465 169.587 73.4849C171.79 74.0207 172.845 75.7369 172.324 77.9712C172.057 79.1214 171.488 80.127 170.816 81.0732C170.565 81.4255 170.297 81.7646 170.038 82.1082C170.285 82.4172 170.531 82.7086 170.76 83.0125C171.569 84.0849 172.263 85.2219 172.573 86.5622C173.049 88.6226 172.155 90.247 170.194 90.8937C169.201 91.221 168.178 91.2695 167.15 91.1777C166.495 91.1197 165.844 91.0126 165.173 90.9252C165.139 91.014 165.102 91.1153 165.061 91.2152C164.827 91.7892 164.628 92.3815 164.351 92.932C163.538 94.5476 162.554 95.987 160.656 96.3849L160.656 96.3856ZM164.808 82.1779C164.771 81.4439 164.732 80.5924 164.677 79.7424C164.67 79.6353 164.598 79.4973 164.513 79.4371C163.217 78.5239 161.855 77.7253 160.431 77.042C160.349 77.0031 160.22 77.0031 160.138 77.042C158.705 77.7268 157.337 78.532 156.032 79.4495C155.959 79.5009 155.896 79.6184 155.887 79.7101C155.739 81.3206 155.747 82.9332 155.856 84.5451C155.864 84.6604 155.947 84.8064 156.04 84.8732C157.328 85.8003 158.685 86.6062 160.095 87.319C160.242 87.3938 160.35 87.3784 160.489 87.308C161.877 86.6106 163.205 85.8084 164.483 84.9173C164.651 84.7998 164.716 84.6655 164.722 84.4666C164.744 83.7428 164.775 83.0191 164.808 82.1764L164.808 82.1779ZM154.886 89.3155C154.7 88.0985 154.522 86.9153 154.333 85.7342C154.321 85.6601 154.236 85.5896 154.171 85.5338C153.567 85.0186 152.957 84.5113 152.357 83.9931C152.113 83.7832 151.887 83.5505 151.639 83.3156C151.438 83.5681 151.244 83.7957 151.065 84.035C150.41 84.9107 149.815 85.8216 149.555 86.916C149.26 88.1594 149.711 88.9654 150.898 89.3412C150.966 89.3625 151.035 89.3823 151.104 89.3992C152.376 89.706 153.636 89.5423 154.886 89.3162L154.886 89.3155ZM165.636 89.3023C166.662 89.5108 167.679 89.6502 168.704 89.5181C169.184 89.4564 169.672 89.3346 170.116 89.1423C170.865 88.8193 171.196 88.1337 171.073 87.3087C170.836 85.7122 169.888 84.5216 168.931 83.3208C168.879 83.3597 168.85 83.3795 168.824 83.4022C168.002 84.1201 167.178 84.8351 166.362 85.5595C166.285 85.6278 166.227 85.7496 166.211 85.8546C166.103 86.5321 166.016 87.2133 165.906 87.8908C165.83 88.3576 165.728 88.82 165.635 89.3023L165.636 89.3023ZM156.966 90.5164C157.335 91.6879 157.9 92.8381 158.482 93.5765C158.639 93.7754 158.808 93.9685 158.995 94.1366C159.889 94.9447 160.743 94.941 161.609 94.0984C162.622 93.1126 163.138 91.8288 163.602 90.5237C163.564 90.4943 163.552 90.4789 163.536 90.4731C162.484 90.0723 161.433 89.6708 160.378 89.2773C160.306 89.2502 160.205 89.2663 160.13 89.2964C159.79 89.433 159.458 89.593 159.116 89.7229C158.407 89.9923 157.693 90.2484 156.965 90.5171L156.966 90.5164ZM163.543 73.8974C163.231 72.9953 162.864 72.1108 162.308 71.3298C162.053 70.9709 161.761 70.6237 161.431 70.3389C160.654 69.6695 159.887 69.6775 159.11 70.3506C158.02 71.2946 157.499 72.5967 157.003 73.9304C157.107 73.9679 157.181 73.9943 157.255 74.0215C158.119 74.3364 158.99 74.6329 159.842 74.9772C160.155 75.1041 160.408 75.1041 160.72 74.9772C161.644 74.5984 162.584 74.2615 163.544 73.8982L163.543 73.8974ZM154.925 75.1188C154.435 75.0616 153.907 74.9845 153.376 74.9427C152.571 74.8788 151.77 74.9214 150.997 75.1959C150.028 75.5402 149.632 76.1788 149.731 77.2137C149.746 77.3679 149.78 77.5213 149.819 77.671C150.104 78.7456 150.695 79.6477 151.35 80.5124C151.452 80.6467 151.563 80.773 151.641 80.8684C152.524 80.1388 153.387 79.429 154.245 78.7133C154.308 78.6612 154.368 78.5739 154.381 78.4946C154.564 77.3847 154.74 76.2742 154.925 75.1188ZM168.925 80.8699C169.006 80.77 169.117 80.6409 169.22 80.5043C169.873 79.6382 170.466 78.7361 170.746 77.66C171.087 76.3542 170.637 75.5196 169.376 75.1342C168.658 74.9148 167.918 74.881 167.176 74.9434C166.648 74.9882 166.124 75.0638 165.638 75.121C165.823 76.2764 165.998 77.3781 166.18 78.4784C166.194 78.5592 166.244 78.6517 166.305 78.703C167.17 79.4246 168.04 80.1395 168.925 80.8691L168.925 80.8699ZM158.35 88.2783C157.588 87.8218 156.872 87.3931 156.101 86.9314C156.237 87.6265 156.362 88.2578 156.493 88.9257C157.125 88.7055 157.718 88.4985 158.351 88.2776L158.35 88.2783ZM162.212 88.2798C162.848 88.5007 163.443 88.707 164.071 88.925C164.202 88.2541 164.325 87.6214 164.46 86.9321C163.688 87.3946 162.971 87.824 162.212 88.2791L162.212 88.2798ZM167.822 82.1243C167.332 81.6846 166.88 81.2802 166.401 80.8508L166.401 83.4397C166.893 82.9839 167.34 82.5699 167.822 82.1236L167.822 82.1243ZM154.173 80.8361C153.671 81.2897 153.221 81.6964 152.744 82.128C153.225 82.5721 153.676 82.9875 154.173 83.4463L154.173 80.8361ZM156.147 77.3752C156.883 76.9414 157.569 76.5377 158.311 76.1009C157.688 75.8918 157.127 75.7038 156.531 75.5042C156.402 76.1332 156.28 76.7278 156.147 77.3752ZM162.25 76.1017C163.003 76.5436 163.684 76.9436 164.416 77.3723C164.282 76.7234 164.159 76.1288 164.03 75.5049C163.434 75.7046 162.873 75.8925 162.25 76.1017Z" fill="#E5F0FF"/>
<path d="M162.758 82.289C162.762 83.7071 161.66 84.8412 160.28 84.8405C158.901 84.8405 157.8 83.7049 157.805 82.2875C157.808 80.8797 158.899 79.7574 160.269 79.75C161.65 79.7434 162.754 80.8701 162.758 82.289Z" fill="#E5F0FF"/>
</g>
</g>
</g>
<defs>
<filter id="filter0_f_40000631_4647" x="-12.4492" y="-114.82" width="316.801" height="316.801" filterUnits="userSpaceOnUse" color-interpolation-filters="sRGB">
<feFlood flood-opacity="0" result="BackgroundImageFix"/>
<feBlend mode="normal" in="SourceGraphic" in2="BackgroundImageFix" result="shape"/>
<feGaussianBlur stdDeviation="64" result="effect1_foregroundBlur_40000631_4647"/>
</filter>
<filter id="filter1_d_40000631_4647" x="52.7828" y="20.847" width="39.8777" height="40.4969" filterUnits="userSpaceOnUse" color-interpolation-filters="sRGB">
<feFlood flood-opacity="0" result="BackgroundImageFix"/>
<feColorMatrix in="SourceAlpha" type="matrix" values="0 0 0 0 0 0 0 0 0 0 0 0 0 0 0 0 0 0 127 0" result="hardAlpha"/>
<feMorphology radius="1.13315" operator="erode" in="SourceAlpha" result="effect1_dropShadow_40000631_4647"/>
<feOffset dy="5.66574"/>
<feGaussianBlur stdDeviation="4.53259"/>
<feComposite in2="hardAlpha" operator="out"/>
<feColorMatrix type="matrix" values="0 0 0 0 0.585425 0 0 0 0 0.590284 0 0 0 0 0.6 0 0 0 0.16 0"/>
<feBlend mode="normal" in2="BackgroundImageFix" result="effect1_dropShadow_40000631_4647"/>
<feBlend mode="normal" in="SourceGraphic" in2="effect1_dropShadow_40000631_4647" result="shape"/>
</filter>
<filter id="filter2_d_40000631_4647" x="52.7828" y="20.847" width="39.8777" height="40.4969" filterUnits="userSpaceOnUse" color-interpolation-filters="sRGB">
<feFlood flood-opacity="0" result="BackgroundImageFix"/>
<feColorMatrix in="SourceAlpha" type="matrix" values="0 0 0 0 0 0 0 0 0 0 0 0 0 0 0 0 0 0 127 0" result="hardAlpha"/>
<feMorphology radius="1.13315" operator="erode" in="SourceAlpha" result="effect1_dropShadow_40000631_4647"/>
<feOffset dy="5.66574"/>
<feGaussianBlur stdDeviation="4.53259"/>
<feComposite in2="hardAlpha" operator="out"/>
<feColorMatrix type="matrix" values="0 0 0 0 0.585425 0 0 0 0 0.590284 0 0 0 0 0.6 0 0 0 0.16 0"/>
<feBlend mode="normal" in2="BackgroundImageFix" result="effect1_dropShadow_40000631_4647"/>
<feBlend mode="normal" in="SourceGraphic" in2="effect1_dropShadow_40000631_4647" result="shape"/>
</filter>
<filter id="filter3_b_40000631_4647" x="84.1809" y="-2.02031" width="93.5152" height="93.5172" filterUnits="userSpaceOnUse" color-interpolation-filters="sRGB">
<feFlood flood-opacity="0" result="BackgroundImageFix"/>
<feGaussianBlur in="BackgroundImageFix" stdDeviation="1.6"/>
<feComposite in2="SourceAlpha" operator="in" result="effect1_backgroundBlur_40000631_4647"/>
<feBlend mode="normal" in="SourceGraphic" in2="effect1_backgroundBlur_40000631_4647" result="shape"/>
</filter>
<radialGradient id="paint0_radial_40000631_4647" cx="0" cy="0" r="1" gradientUnits="userSpaceOnUse" gradientTransform="translate(115.007 25.2252) rotate(-2.79411) scale(190.159)">
<stop stop-color="#001630"/>
<stop offset="1" stop-color="white" stop-opacity="0"/>
</radialGradient>
<linearGradient id="paint1_linear_40000631_4647" x1="88.2156" y1="33.1009" x2="156.932" y2="86.879" gradientUnits="userSpaceOnUse">
<stop stop-color="#14CC5F" stop-opacity="0.8"/>
<stop offset="1" stop-color="#10B754" stop-opacity="0.2"/>
</linearGradient>
<linearGradient id="paint2_linear_40000631_4647" x1="89.3287" y1="32.4609" x2="159.759" y2="86.6587" gradientUnits="userSpaceOnUse">
<stop stop-color="#7DFDB1" stop-opacity="0.4"/>
<stop offset="1" stop-color="#1FD167" stop-opacity="0.2"/>
</linearGradient>
<linearGradient id="paint3_linear_40000631_4647" x1="154.949" y1="68.0391" x2="154.949" y2="110.969" gradientUnits="userSpaceOnUse">
<stop stop-color="#689FF2"/>
<stop offset="1" stop-color="#1C67D8"/>
</linearGradient>
<clipPath id="clip0_40000631_4647">
<rect width="191" height="138" fill="white"/>
</clipPath>
<clipPath id="clip1_40000631_4647">
<rect width="24.8309" height="28.1864" fill="white" transform="translate(147.867 68.2031)"/>
</clipPath>
<clipPath id="clip2_40000631_4647">
<rect width="24.8309" height="28.1864" fill="white" transform="translate(147.867 68.2031)"/>
</clipPath>
</defs>
</svg>
