<svg width="54" height="48" viewBox="0 0 54 48" fill="none" xmlns="http://www.w3.org/2000/svg">
<rect width="48" height="48" rx="24" fill="#FAFAFA" fill-opacity="0.980392"/>
<rect x="0.5" y="0.5" width="47" height="47" rx="23.5" stroke="black" stroke-opacity="0.05"/>
<g clip-path="url(#clip0_40003488_5411)">
<path d="M30 36H22.437L22.728 34.77C22.8777 34.1906 22.9688 33.5976 23 33C23 32.4696 22.7893 31.9609 22.4142 31.5858C22.0391 31.2107 21.5304 31 21 31C20.4696 31 19.9609 31.2107 19.5858 31.5858C19.2107 31.9609 19 32.4696 19 33C19.0312 33.5976 19.1223 34.1906 19.272 34.77L19.563 36H12V21C12 20.2044 12.3161 19.4413 12.8787 18.8787C13.4413 18.3161 14.2044 18 15 18H17.272C17.1136 17.3443 17.0225 16.6742 17 16C17 14.9391 17.4214 13.9217 18.1716 13.1716C18.9217 12.4214 19.9391 12 21 12C22.0609 12 23.0783 12.4214 23.8284 13.1716C24.5786 13.9217 25 14.9391 25 16C24.9775 16.6742 24.8864 17.3443 24.728 18H27C27.7956 18 28.5587 18.3161 29.1213 18.8787C29.6839 19.4413 30 20.2044 30 21V22.772C30.6558 22.6142 31.3259 22.5231 32 22.5C33.0609 22.5 34.0783 22.9214 34.8284 23.6716C35.5786 24.4217 36 25.4391 36 26.5C36 27.5609 35.5786 28.5783 34.8284 29.3284C34.0783 30.0786 33.0609 30.5 32 30.5C31.3259 30.4769 30.6558 30.3858 30 30.228V36ZM24.914 34H28V27.582L29.291 27.974C30.1689 28.2601 31.0788 28.4368 32 28.5C32.5304 28.5 33.0391 28.2893 33.4142 27.9142C33.7893 27.5391 34 27.0304 34 26.5C34 25.9696 33.7893 25.4609 33.4142 25.0858C33.0391 24.7107 32.5304 24.5 32 24.5C31.0788 24.5632 30.1689 24.7399 29.291 25.026L28 25.418V21C28 20.7348 27.8946 20.4804 27.7071 20.2929C27.5196 20.1054 27.2652 20 27 20H22.082L22.474 18.709C22.7603 17.8311 22.937 16.9212 23 16C23 15.4696 22.7893 14.9609 22.4142 14.5858C22.0391 14.2107 21.5304 14 21 14C20.4696 14 19.9609 14.2107 19.5858 14.5858C19.2107 14.9609 19 15.4696 19 16C19.063 16.9212 19.2397 17.8311 19.526 18.709L19.918 20H15C14.7348 20 14.4804 20.1054 14.2929 20.2929C14.1054 20.4804 14 20.7348 14 21V34H17.086C17.0339 33.6691 17.0052 33.3349 17 33C17 31.9391 17.4214 30.9217 18.1716 30.1716C18.9217 29.4214 19.9391 29 21 29C22.0609 29 23.0783 29.4214 23.8284 30.1716C24.5786 30.9217 25 31.9391 25 33C24.9948 33.3349 24.9661 33.6691 24.914 34Z" fill="black"/>
</g>
<path d="M44.7679 34.7742L43.6364 33.606C43.5398 33.5053 43.4203 33.4539 43.2777 33.4516C43.1351 33.4493 43.0097 33.5044 42.9016 33.6171C42.8006 33.7224 42.7501 33.8501 42.7501 34C42.7501 34.1499 42.8006 34.2776 42.9016 34.3829L44.3268 35.8684C44.4529 35.9997 44.5999 36.0653 44.7679 36.0653C44.936 36.0653 45.083 35.9997 45.2091 35.8684L48.0984 32.857C48.2021 32.7488 48.2532 32.6223 48.2518 32.4775C48.2505 32.3326 48.1994 32.2038 48.0984 32.0911C47.9903 31.9785 47.866 31.9203 47.7256 31.9165C47.5854 31.9128 47.4611 31.9673 47.353 32.08L44.7679 34.7742ZM42.9969 40.6726L42.0329 38.9832L40.2093 38.575C40.0529 38.5434 39.928 38.4577 39.8346 38.3179C39.7412 38.1782 39.7039 38.0268 39.7227 37.8638L39.901 35.9089L38.6609 34.4304C38.5536 34.3112 38.5 34.1677 38.5 34C38.5 33.8323 38.5536 33.6888 38.6609 33.5696L39.901 32.0911L39.7227 30.1362C39.7039 29.9732 39.7412 29.8218 39.8346 29.6821C39.928 29.5423 40.0529 29.4566 40.2093 29.425L42.0329 29.0168L42.9969 27.3274C43.0809 27.184 43.1953 27.0862 43.3401 27.034C43.4849 26.9818 43.6319 26.9897 43.7812 27.0578L45.5 27.8151L47.2188 27.0578C47.3681 26.9897 47.5151 26.9818 47.6599 27.034C47.8047 27.0862 47.9191 27.184 48.0031 27.3274L48.9671 29.0168L50.7907 29.425C50.9471 29.4566 51.072 29.5423 51.1654 29.6821C51.2588 29.8218 51.2961 29.9732 51.2773 30.1362L51.099 32.0911L52.3391 33.5696C52.4464 33.6888 52.5 33.8323 52.5 34C52.5 34.1677 52.4464 34.3112 52.3391 34.4304L51.099 35.9089L51.2773 37.8638C51.2961 38.0268 51.2588 38.1782 51.1654 38.3179C51.072 38.4577 50.9471 38.5434 50.7907 38.575L48.9671 38.9832L48.0031 40.6726C47.9191 40.816 47.8047 40.9138 47.6599 40.966C47.5151 41.0182 47.3681 41.0103 47.2188 40.9422L45.5 40.1849L43.7812 40.9422C43.6319 41.0103 43.4849 41.0182 43.3401 40.966C43.1953 40.9138 43.0809 40.816 42.9969 40.6726Z" fill="#10B754"/>
<path d="M44.7679 34.7742L43.6364 33.606C43.5398 33.5053 43.4203 33.4539 43.2777 33.4516C43.1351 33.4493 43.0097 33.5044 42.9016 33.6171C42.8006 33.7224 42.7501 33.8501 42.7501 34C42.7501 34.1499 42.8006 34.2776 42.9016 34.3829L44.3268 35.8684C44.4529 35.9997 44.5999 36.0653 44.7679 36.0653C44.936 36.0653 45.083 35.9997 45.2091 35.8684L48.0984 32.857C48.2021 32.7488 48.2532 32.6223 48.2518 32.4775C48.2505 32.3326 48.1994 32.2038 48.0984 32.0911C47.9903 31.9785 47.866 31.9203 47.7256 31.9165C47.5854 31.9128 47.4611 31.9673 47.353 32.08L44.7679 34.7742Z" fill="white"/>
<path d="M42.5626 40.9204L42.5626 40.9205L42.5655 40.9254C42.7036 41.161 42.9066 41.3412 43.1705 41.4364C43.4457 41.5356 43.7268 41.5156 43.9854 41.3987L45.5 40.7313L47.0146 41.3987C47.2732 41.5156 47.5543 41.5356 47.8295 41.4364C48.0934 41.3412 48.2964 41.161 48.4345 40.9254L48.4345 40.9254L48.4374 40.9204L49.2919 39.4228L50.8955 39.0639C51.1861 39.0036 51.4197 38.8372 51.5811 38.5958C51.7374 38.3619 51.8057 38.0946 51.7747 37.8131L51.6158 36.0708L52.7174 34.7574C52.9069 34.5433 53 34.2817 53 34C53 33.7183 52.9069 33.4567 52.7174 33.2426L51.6158 31.9292L51.7747 30.1869C51.8057 29.9054 51.7374 29.6381 51.5811 29.4042C51.4197 29.1628 51.1861 28.9964 50.8955 28.9361L49.2919 28.5772L48.4374 27.0796L48.4374 27.0795L48.4345 27.0746C48.2964 26.839 48.0934 26.6588 47.8295 26.5636C47.5543 26.4644 47.2732 26.4844 47.0146 26.6013L45.5 27.2687L43.9854 26.6013C43.7268 26.4844 43.4457 26.4644 43.1705 26.5636C42.9066 26.6588 42.7036 26.839 42.5655 27.0746L42.5655 27.0746L42.5626 27.0796L41.7081 28.5772L40.1045 28.9361C39.8139 28.9964 39.5803 29.1628 39.4189 29.4042C39.2626 29.6381 39.1943 29.9054 39.2252 30.1869L39.3842 31.9292L38.2826 33.2426C38.0931 33.4567 38 33.7183 38 34C38 34.2817 38.0931 34.5433 38.2826 34.7575L39.3842 36.0708L39.2252 37.8131C39.1943 38.0946 39.2626 38.3619 39.4189 38.5958C39.5803 38.8372 39.8139 39.0036 40.1045 39.0639L41.7081 39.4228L42.5626 40.9204Z" stroke="#FAFAFA"/>
<defs>
<clipPath id="clip0_40003488_5411">
<rect width="24" height="24" fill="white" transform="translate(12 12)"/>
</clipPath>
</defs>
</svg>
