<svg width="54" height="48" viewBox="0 0 54 48" fill="none" xmlns="http://www.w3.org/2000/svg">
<g clip-path="url(#clip0_40003488_5517)">
<path d="M48 24C48 10.7452 37.2548 0 24 0C10.7452 0 0 10.7452 0 24C0 37.2548 10.7452 48 24 48C37.2548 48 48 37.2548 48 24Z" fill="#FAFAFA" fill-opacity="0.980392"/>
<path d="M47.5 24C47.5 11.0213 36.9787 0.5 24 0.5C11.0213 0.5 0.5 11.0213 0.5 24C0.5 36.9787 11.0213 47.5 24 47.5C36.9787 47.5 47.5 36.9787 47.5 24Z" stroke="black" stroke-opacity="0.05"/>
<mask id="mask0_40003488_5517" style="mask-type:luminance" maskUnits="userSpaceOnUse" x="12" y="12" width="24" height="24">
<path d="M36 12H12V36H36V12Z" fill="white"/>
</mask>
<g mask="url(#mask0_40003488_5517)">
<path d="M30 36H22.437L22.728 34.77C22.8777 34.1906 22.9688 33.5976 23 33C23 32.4696 22.7893 31.9609 22.4142 31.5858C22.0391 31.2107 21.5304 31 21 31C20.4696 31 19.9609 31.2107 19.5858 31.5858C19.2107 31.9609 19 32.4696 19 33C19.0312 33.5976 19.1223 34.1906 19.272 34.77L19.563 36H12V21C12 20.2044 12.3161 19.4413 12.8787 18.8787C13.4413 18.3161 14.2044 18 15 18H17.272C17.1136 17.3443 17.0225 16.6742 17 16C17 14.9391 17.4214 13.9217 18.1716 13.1716C18.9217 12.4214 19.9391 12 21 12C22.0609 12 23.0783 12.4214 23.8284 13.1716C24.5786 13.9217 25 14.9391 25 16C24.9775 16.6742 24.8864 17.3443 24.728 18H27C27.7956 18 28.5587 18.3161 29.1213 18.8787C29.6839 19.4413 30 20.2044 30 21V22.772C30.6558 22.6142 31.3259 22.5231 32 22.5C33.0609 22.5 34.0783 22.9214 34.8284 23.6716C35.5786 24.4217 36 25.4391 36 26.5C36 27.5609 35.5786 28.5783 34.8284 29.3284C34.0783 30.0786 33.0609 30.5 32 30.5C31.3259 30.4769 30.6558 30.3858 30 30.228V36ZM24.914 34H28V27.582L29.291 27.974C30.1689 28.2601 31.0788 28.4368 32 28.5C32.5304 28.5 33.0391 28.2893 33.4142 27.9142C33.7893 27.5391 34 27.0304 34 26.5C34 25.9696 33.7893 25.4609 33.4142 25.0858C33.0391 24.7107 32.5304 24.5 32 24.5C31.0788 24.5632 30.1689 24.7399 29.291 25.026L28 25.418V21C28 20.7348 27.8946 20.4804 27.7071 20.2929C27.5196 20.1054 27.2652 20 27 20H22.082L22.474 18.709C22.7603 17.8311 22.937 16.9212 23 16C23 15.4696 22.7893 14.9609 22.4142 14.5858C22.0391 14.2107 21.5304 14 21 14C20.4696 14 19.9609 14.2107 19.5858 14.5858C19.2107 14.9609 19 15.4696 19 16C19.063 16.9212 19.2397 17.8311 19.526 18.709L19.918 20H15C14.7348 20 14.4804 20.1054 14.2929 20.2929C14.1054 20.4804 14 20.7348 14 21V34H17.086C17.0339 33.6691 17.0052 33.3349 17 33C17 31.9391 17.4214 30.9217 18.1716 30.1716C18.9217 29.4214 19.9391 29 21 29C22.0609 29 23.0783 29.4214 23.8284 30.1716C24.5786 30.9217 25 31.9391 25 33C24.9948 33.3349 24.9661 33.6691 24.914 34Z" fill="black"/>
</g>
<path fill-rule="evenodd" clip-rule="evenodd" d="M38.0976 40.3C37.9612 40.3 37.8417 40.2691 37.7389 40.2072C37.6363 40.1453 37.5564 40.0637 37.4993 39.9625C37.4368 39.8625 37.4087 39.75 37.4149 39.625C37.4212 39.5 37.4555 39.3813 37.518 39.2688L44.418 27.7563C44.4805 27.6438 44.5651 27.5625 44.6717 27.5125C44.7782 27.4625 44.8876 27.4375 44.9999 27.4375C45.112 27.4375 45.2212 27.4625 45.3274 27.5125C45.4337 27.5625 45.518 27.6438 45.5805 27.7563L52.4805 39.2688C52.543 39.3813 52.5774 39.5 52.5837 39.625C52.5899 39.75 52.5618 39.8625 52.4993 39.9625C52.4368 40.0625 52.3555 40.1437 52.2555 40.2062C52.1555 40.2687 52.0374 40.3 51.901 40.3H38.0976ZM45.4774 37.8571C45.3462 37.9857 45.1855 38.05 44.9954 38.05C44.8052 38.05 44.6459 37.9844 44.5172 37.8531C44.3886 37.7219 44.3243 37.5612 44.3243 37.3711C44.3243 37.1809 44.3899 37.0216 44.5212 36.8929C44.6524 36.7643 44.8131 36.7 45.0032 36.7C45.1934 36.7 45.3527 36.7656 45.4814 36.8969C45.61 37.0281 45.6743 37.1888 45.6743 37.3789C45.6743 37.5691 45.6087 37.7284 45.4774 37.8571ZM45.4774 35.6059C45.3462 35.7353 45.1855 35.8 44.9954 35.8C44.8052 35.8 44.6459 35.7353 44.5172 35.6059C44.3886 35.4766 44.3243 35.3162 44.3243 35.125V32.875C44.3243 32.6838 44.3899 32.5234 44.5212 32.3941C44.6524 32.2647 44.8131 32.2 45.0032 32.2C45.1934 32.2 45.3527 32.2647 45.4814 32.3941C45.61 32.5234 45.6743 32.6838 45.6743 32.875V35.125C45.6743 35.3162 45.6087 35.4766 45.4774 35.6059Z" fill="#D48A0C"/>
<path d="M44.9953 38.0492C45.1854 38.0492 45.3461 37.9849 45.4773 37.8563C45.6086 37.7276 45.6742 37.5683 45.6742 37.3781C45.6742 37.188 45.6099 37.0273 45.4813 36.8961C45.3526 36.7648 45.1933 36.6992 45.0031 36.6992C44.813 36.6992 44.6523 36.7635 44.5211 36.8921C44.3898 37.0208 44.3242 37.1801 44.3242 37.3703C44.3242 37.5604 44.3885 37.7211 44.5171 37.8523C44.6458 37.9836 44.8051 38.0492 44.9953 38.0492Z" fill="white"/>
<path d="M44.9953 35.7992C45.1854 35.7992 45.3461 35.7345 45.4773 35.6051C45.6086 35.4758 45.6742 35.3154 45.6742 35.1242V32.8742C45.6742 32.683 45.6099 32.5226 45.4813 32.3933C45.3526 32.2639 45.1933 32.1992 45.0031 32.1992C44.813 32.1992 44.6523 32.2639 44.5211 32.3933C44.3898 32.5226 44.3242 32.683 44.3242 32.8742V35.1242C44.3242 35.3154 44.3885 35.4758 44.5171 35.6051C44.6458 35.7345 44.8051 35.7992 44.9953 35.7992Z" fill="white"/>
<path d="M37.481 40.6355C37.6718 40.7504 37.883 40.8 38.0976 40.8H51.901C52.1161 40.8 52.3293 40.7498 52.5205 40.6302C52.6849 40.5275 52.8205 40.3919 52.9233 40.2275C53.0434 40.0354 53.0941 39.8205 53.083 39.6C53.0729 39.3964 53.0162 39.2034 52.9176 39.0259L52.9136 39.0188M52.9136 39.0188L52.9094 39.0117ZM52.9136 39.0188L52.9094 39.0117Z" stroke="#FAFAFA"/>
</g>
<defs>
<clipPath id="clip0_40003488_5517">
<rect width="54" height="48" fill="white"/>
</clipPath>
</defs>
</svg>
