<svg width="20" height="21" viewBox="0 0 20 21" fill="none" xmlns="http://www.w3.org/2000/svg">
<path id="Subtract" fill-rule="evenodd" clip-rule="evenodd" d="M1.53111 0.375C0.719998 0.375 0.0625 1.01664 0.0625 1.80768V18.9423C0.0625 19.7336 0.719998 20.375 1.53111 20.375H18.4673C19.2784 20.375 19.9359 19.7336 19.9359 18.9423V1.80768C19.9359 1.01664 19.2784 0.375 18.4673 0.375H1.53111ZM6.08665 8.08017V17.1113H3.08495V8.08017H6.08665ZM6.28406 5.28698C6.28406 6.15364 5.63254 6.84713 4.58578 6.84713H4.56622C3.55888 6.84713 2.90751 6.15364 2.90751 5.28698C2.90751 4.40081 3.57885 3.72656 4.60564 3.72656C5.63254 3.72656 6.26455 4.40081 6.28406 5.28698ZM10.7492 17.1113H7.74754C7.74754 17.1113 7.78702 8.92759 7.74763 8.08017H10.7493V9.35881L10.7293 9.38992H10.7493V9.35881C11.1482 8.74343 11.8622 7.86825 13.4544 7.86825C15.4293 7.86825 16.9102 9.15902 16.9102 11.933V17.1113H13.9088V12.2799C13.9088 11.0658 13.4743 10.2376 12.3881 10.2376C11.5589 10.2376 11.065 10.7961 10.848 11.3354C10.7687 11.5284 10.7492 11.798 10.7492 12.0679V17.1113Z" fill="#414447"/>
</svg>
