<svg width="24" height="25" viewBox="0 0 24 25" fill="none" xmlns="http://www.w3.org/2000/svg">
<g id="upload">
<mask id="mask0_40000499_6597" style="mask-type:alpha" maskUnits="userSpaceOnUse" x="0" y="0" width="24" height="25">
<rect id="Bounding box" y="0.375" width="24" height="24" fill="#D9D9D9"/>
</mask>
<g mask="url(#mask0_40000499_6597)">
<path id="upload_2" d="M6 20.3758C5.45 20.3758 4.97917 20.1799 4.5875 19.7883C4.19583 19.3966 4 18.9258 4 18.3758V16.3758C4 16.0924 4.09583 15.8549 4.2875 15.6633C4.47917 15.4716 4.71667 15.3758 5 15.3758C5.28333 15.3758 5.52083 15.4716 5.7125 15.6633C5.90417 15.8549 6 16.0924 6 16.3758V18.3758H18V16.3758C18 16.0924 18.0958 15.8549 18.2875 15.6633C18.4792 15.4716 18.7167 15.3758 19 15.3758C19.2833 15.3758 19.5208 15.4716 19.7125 15.6633C19.9042 15.8549 20 16.0924 20 16.3758V18.3758C20 18.9258 19.8042 19.3966 19.4125 19.7883C19.0208 20.1799 18.55 20.3758 18 20.3758H6ZM11 8.22578L9.125 10.1008C8.925 10.3008 8.6875 10.3966 8.4125 10.3883C8.1375 10.3799 7.9 10.2758 7.7 10.0758C7.51667 9.87578 7.42083 9.64245 7.4125 9.37578C7.40417 9.10911 7.5 8.87578 7.7 8.67578L11.3 5.07578C11.4 4.97578 11.5083 4.90495 11.625 4.86328C11.7417 4.82161 11.8667 4.80078 12 4.80078C12.1333 4.80078 12.2583 4.82161 12.375 4.86328C12.4917 4.90495 12.6 4.97578 12.7 5.07578L16.3 8.67578C16.5 8.87578 16.5958 9.10911 16.5875 9.37578C16.5792 9.64245 16.4833 9.87578 16.3 10.0758C16.1 10.2758 15.8625 10.3799 15.5875 10.3883C15.3125 10.3966 15.075 10.3008 14.875 10.1008L13 8.22578V15.3758C13 15.6591 12.9042 15.8966 12.7125 16.0883C12.5208 16.2799 12.2833 16.3758 12 16.3758C11.7167 16.3758 11.4792 16.2799 11.2875 16.0883C11.0958 15.8966 11 15.6591 11 15.3758V8.22578Z" fill="#414447"/>
</g>
</g>
</svg>
