<svg xmlns="http://www.w3.org/2000/svg" width="28" height="28" viewBox="0 0 28 28" fill="none">
  <path d="M12.5359 15.5485L10.2728 13.212C10.0797 13.0107 9.84054 12.9077 9.55539 12.9031C9.27024 12.8985 9.01948 13.0089 8.80312 13.2341C8.60116 13.4448 8.50019 13.7001 8.50019 14C8.50019 14.2999 8.60116 14.5552 8.80312 14.7659L11.6536 17.7368C11.9057 17.9994 12.1998 18.1306 12.5359 18.1306C12.8719 18.1306 13.166 17.9994 13.4182 17.7368L19.1969 11.714C19.4042 11.4977 19.5064 11.2447 19.5036 10.955C19.5011 10.6653 19.3988 10.4077 19.1969 10.1822C18.9805 9.95693 18.732 9.84054 18.4512 9.83303C18.1707 9.82553 17.9223 9.93452 17.7059 10.16L12.5359 15.5485ZM8.9938 27.3453L7.06571 23.9664L3.41869 23.15C3.10588 23.0867 2.85605 22.9154 2.66921 22.6359C2.48236 22.3563 2.40776 22.0536 2.44541 21.7275L2.80202 17.8178L0.321755 14.8607C0.107252 14.6224 0 14.3355 0 14C0 13.6645 0.107252 13.3776 0.321755 13.1393L2.80202 10.1822L2.44541 6.27246C2.40776 5.94643 2.48236 5.64366 2.66921 5.36415C2.85605 5.08463 3.10588 4.91326 3.41869 4.85004L7.06571 4.03365L8.9938 0.654737C9.16182 0.367953 9.39062 0.172362 9.68019 0.0679673C9.96976 -0.0364279 10.2639 -0.0205628 10.5625 0.115563L14 1.63026L17.4375 0.115563C17.7361 -0.0205628 18.0302 -0.0364279 18.3198 0.0679673C18.6094 0.172362 18.8382 0.367953 19.0062 0.654737L20.9343 4.03365L24.5813 4.85004C24.8941 4.91326 25.1439 5.08463 25.3308 5.36415C25.5176 5.64366 25.5922 5.94643 25.5546 6.27246L25.198 10.1822L27.6782 13.1393C27.8927 13.3776 28 13.6645 28 14C28 14.3355 27.8927 14.6224 27.6782 14.8607L25.198 17.8178L25.5546 21.7275C25.5922 22.0536 25.5176 22.3563 25.3308 22.6359C25.1439 22.9154 24.8941 23.0867 24.5813 23.15L20.9343 23.9664L19.0062 27.3453C18.8382 27.632 18.6094 27.8276 18.3198 27.932C18.0302 28.0364 17.7361 28.0206 17.4375 27.8844L14 26.3697L10.5625 27.8844C10.2639 28.0206 9.96976 28.0364 9.68019 27.932C9.39062 27.8276 9.16182 27.632 8.9938 27.3453Z" fill="#10B754"/>
  <path d="M12.5359 15.5485L10.2728 13.212C10.0797 13.0107 9.84054 12.9077 9.55539 12.9031C9.27024 12.8985 9.01948 13.0089 8.80312 13.2341C8.60116 13.4448 8.50019 13.7001 8.50019 14C8.50019 14.2999 8.60116 14.5552 8.80312 14.7659L11.6536 17.7368C11.9057 17.9994 12.1998 18.1306 12.5359 18.1306C12.8719 18.1306 13.166 17.9994 13.4182 17.7368L19.1969 11.714C19.4042 11.4977 19.5064 11.2447 19.5036 10.955C19.5011 10.6653 19.3988 10.4077 19.1969 10.1822C18.9805 9.95693 18.732 9.84054 18.4512 9.83303C18.1707 9.82553 17.9223 9.93452 17.7059 10.16L12.5359 15.5485ZM8.9938 27.3453L7.06571 23.9664L3.41869 23.15C3.10588 23.0867 2.85605 22.9154 2.66921 22.6359C2.48236 22.3563 2.40776 22.0536 2.44541 21.7275L2.80202 17.8178L0.321755 14.8607C0.107252 14.6224 0 14.3355 0 14C0 13.6645 0.107252 13.3776 0.321755 13.1393L2.80202 10.1822L2.44541 6.27246C2.40776 5.94643 2.48236 5.64366 2.66921 5.36415C2.85605 5.08463 3.10588 4.91326 3.41869 4.85004L7.06571 4.03365L8.9938 0.654737C9.16182 0.367953 9.39062 0.172362 9.68019 0.0679673C9.96976 -0.0364279 10.2639 -0.0205628 10.5625 0.115563L14 1.63026L17.4375 0.115563C17.7361 -0.0205628 18.0302 -0.0364279 18.3198 0.0679673C18.6094 0.172362 18.8382 0.367953 19.0062 0.654737L20.9343 4.03365L24.5813 4.85004C24.8941 4.91326 25.1439 5.08463 25.3308 5.36415C25.5176 5.64366 25.5922 5.94643 25.5546 6.27246L25.198 10.1822L27.6782 13.1393C27.8927 13.3776 28 13.6645 28 14C28 14.3355 27.8927 14.6224 27.6782 14.8607L25.198 17.8178L25.5546 21.7275C25.5922 22.0536 25.5176 22.3563 25.3308 22.6359C25.1439 22.9154 24.8941 23.0867 24.5813 23.15L20.9343 23.9664L19.0062 27.3453C18.8382 27.632 18.6094 27.8276 18.3198 27.932C18.0302 28.0364 17.7361 28.0206 17.4375 27.8844L14 26.3697L10.5625 27.8844C10.2639 28.0206 9.96976 28.0364 9.68019 27.932C9.39062 27.8276 9.16182 27.632 8.9938 27.3453Z" stroke="#10B754"/>
</svg>