<svg width="19" height="18" viewBox="0 0 19 18" fill="none" xmlns="http://www.w3.org/2000/svg">
<path id="work" d="M1.80775 17.5C1.30258 17.5 0.875 17.325 0.525 16.975C0.175 16.625 0 16.1974 0 15.6923V5.30775C0 4.80258 0.175 4.375 0.525 4.025C0.875 3.675 1.30258 3.5 1.80775 3.5H6V1.80775C6 1.30258 6.175 0.875 6.525 0.525C6.875 0.175 7.30258 0 7.80775 0H11.1923C11.6974 0 12.125 0.175 12.475 0.525C12.825 0.875 13 1.30258 13 1.80775V3.5H17.1923C17.6974 3.5 18.125 3.675 18.475 4.025C18.825 4.375 19 4.80258 19 5.30775V15.6923C19 16.1974 18.825 16.625 18.475 16.975C18.125 17.325 17.6974 17.5 17.1923 17.5H1.80775ZM1.80775 16H17.1923C17.2693 16 17.3398 15.9679 17.4038 15.9038C17.4679 15.8398 17.5 15.7692 17.5 15.6923V5.30775C17.5 5.23075 17.4679 5.16025 17.4038 5.09625C17.3398 5.03208 17.2693 5 17.1923 5H1.80775C1.73075 5 1.66025 5.03208 1.59625 5.09625C1.53208 5.16025 1.5 5.23075 1.5 5.30775V15.6923C1.5 15.7692 1.53208 15.8398 1.59625 15.9038C1.66025 15.9679 1.73075 16 1.80775 16ZM7.5 3.5H11.5V1.80775C11.5 1.73075 11.4679 1.66025 11.4038 1.59625C11.3398 1.53208 11.2692 1.5 11.1923 1.5H7.80775C7.73075 1.5 7.66025 1.53208 7.59625 1.59625C7.53208 1.66025 7.5 1.73075 7.5 1.80775V3.5Z" fill="#414447"/>
</svg>
