<svg width="20" height="20" viewBox="0 0 20 20" fill="none" xmlns="http://www.w3.org/2000/svg">
<g id="id-badge 1" clip-path="url(#clip0_40000881_9435)">
<path id="Vector" d="M15.8333 3.33333H12.5V2.5C12.5 1.83696 12.2366 1.20107 11.7678 0.732233C11.2989 0.263392 10.663 0 10 0C9.33696 0 8.70107 0.263392 8.23223 0.732233C7.76339 1.20107 7.5 1.83696 7.5 2.5V3.33333H4.16667C3.062 3.33466 2.00296 3.77407 1.22185 4.55518C0.440735 5.3363 0.00132321 6.39534 0 7.5L0 15.8333C0.00132321 16.938 0.440735 17.997 1.22185 18.7782C2.00296 19.5593 3.062 19.9987 4.16667 20H15.8333C16.938 19.9987 17.997 19.5593 18.7782 18.7782C19.5593 17.997 19.9987 16.938 20 15.8333V7.5C19.9987 6.39534 19.5593 5.3363 18.7782 4.55518C17.997 3.77407 16.938 3.33466 15.8333 3.33333ZM9.16667 2.5C9.16667 2.27899 9.25446 2.06702 9.41074 1.91074C9.56702 1.75446 9.77899 1.66667 10 1.66667C10.221 1.66667 10.433 1.75446 10.5893 1.91074C10.7455 2.06702 10.8333 2.27899 10.8333 2.5V4.16667C10.8333 4.38768 10.7455 4.59964 10.5893 4.75592C10.433 4.9122 10.221 5 10 5C9.77899 5 9.56702 4.9122 9.41074 4.75592C9.25446 4.59964 9.16667 4.38768 9.16667 4.16667V2.5ZM18.3333 15.8333C18.3333 16.4964 18.0699 17.1323 17.6011 17.6011C17.1323 18.0699 16.4964 18.3333 15.8333 18.3333H4.16667C3.50363 18.3333 2.86774 18.0699 2.3989 17.6011C1.93006 17.1323 1.66667 16.4964 1.66667 15.8333V7.5C1.66667 6.83696 1.93006 6.20107 2.3989 5.73223C2.86774 5.26339 3.50363 5 4.16667 5H7.65333C7.82304 5.48712 8.14013 5.90936 8.56062 6.20814C8.98111 6.50693 9.48416 6.66745 10 6.66745C10.5158 6.66745 11.0189 6.50693 11.4394 6.20814C11.8599 5.90936 12.177 5.48712 12.3467 5H15.8333C16.4964 5 17.1323 5.26339 17.6011 5.73223C18.0699 6.20107 18.3333 6.83696 18.3333 7.5V15.8333ZM8.33333 8.33333H4.16667C3.94565 8.33333 3.73369 8.42113 3.57741 8.57741C3.42113 8.73369 3.33333 8.94565 3.33333 9.16667V15.8333C3.33333 16.0543 3.42113 16.2663 3.57741 16.4226C3.73369 16.5789 3.94565 16.6667 4.16667 16.6667H8.33333C8.55435 16.6667 8.76631 16.5789 8.92259 16.4226C9.07887 16.2663 9.16667 16.0543 9.16667 15.8333V9.16667C9.16667 8.94565 9.07887 8.73369 8.92259 8.57741C8.76631 8.42113 8.55435 8.33333 8.33333 8.33333ZM7.5 15H5V10H7.5V15ZM16.6667 12.5C16.6667 12.721 16.5789 12.933 16.4226 13.0893C16.2663 13.2455 16.0543 13.3333 15.8333 13.3333H11.6667C11.4457 13.3333 11.2337 13.2455 11.0774 13.0893C10.9211 12.933 10.8333 12.721 10.8333 12.5C10.8333 12.279 10.9211 12.067 11.0774 11.9107C11.2337 11.7545 11.4457 11.6667 11.6667 11.6667H15.8333C16.0543 11.6667 16.2663 11.7545 16.4226 11.9107C16.5789 12.067 16.6667 12.279 16.6667 12.5ZM16.6667 9.16667C16.6667 9.38768 16.5789 9.59964 16.4226 9.75592C16.2663 9.9122 16.0543 10 15.8333 10H11.6667C11.4457 10 11.2337 9.9122 11.0774 9.75592C10.9211 9.59964 10.8333 9.38768 10.8333 9.16667C10.8333 8.94565 10.9211 8.73369 11.0774 8.57741C11.2337 8.42113 11.4457 8.33333 11.6667 8.33333H15.8333C16.0543 8.33333 16.2663 8.42113 16.4226 8.57741C16.5789 8.73369 16.6667 8.94565 16.6667 9.16667ZM15 15.8333C15 16.0543 14.9122 16.2663 14.7559 16.4226C14.5996 16.5789 14.3877 16.6667 14.1667 16.6667H11.6667C11.4457 16.6667 11.2337 16.5789 11.0774 16.4226C10.9211 16.2663 10.8333 16.0543 10.8333 15.8333C10.8333 15.6123 10.9211 15.4004 11.0774 15.2441C11.2337 15.0878 11.4457 15 11.6667 15H14.1667C14.3877 15 14.5996 15.0878 14.7559 15.2441C14.9122 15.4004 15 15.6123 15 15.8333Z" fill="black"/>
</g>
<defs>
<clipPath id="clip0_40000881_9435">
<rect width="20" height="20" fill="white"/>
</clipPath>
</defs>
</svg>
