<svg width="24" height="24" viewBox="0 0 24 24" fill="none" xmlns="http://www.w3.org/2000/svg">
<mask id="mask0_40003952_6951" style="mask-type:alpha" maskUnits="userSpaceOnUse" x="0" y="0" width="24" height="24">
<rect width="24" height="24" fill="#D9D9D9"/>
</mask>
<g mask="url(#mask0_40003952_6951)">
<path d="M18.723 12.839L4.7655 18.7235C4.46417 18.844 4.17792 18.8181 3.90675 18.6458C3.63558 18.4733 3.5 18.2229 3.5 17.8948L3.5 6.10625C3.5 5.77809 3.63558 5.52775 3.90675 5.35525C4.17792 5.18292 4.46417 5.157 4.7655 5.2775L18.723 11.162C19.0948 11.3262 19.2807 11.6057 19.2807 12.0005C19.2807 12.3953 19.0948 12.6748 18.723 12.839ZM5 17.0005L16.85 12.0005L5 7.0005L5 10.6928L10.423 12.0005L5 13.3083L5 17.0005Z" fill="#001630"/>
</g>
</svg>
