<svg xmlns="http://www.w3.org/2000/svg" width="20" height="19" viewBox="0 0 20 19" fill="none">
	<path d="M17.5 2.01953H1.5V13.7118C1.5 13.8016 1.52883 13.8754 1.5865 13.933C1.64417 13.9907 1.71792 14.0195 1.80775 14.0195H10C10.2128 14.0195 10.3911 14.0914 10.5348 14.235C10.6783 14.3785 10.75 14.5567 10.75 14.7695C10.75 14.9824 10.6783 15.1605 10.5348 15.304C10.3911 15.4477 10.2128 15.5195 10 15.5195H1.80775C1.30258 15.5195 0.875 15.3445 0.525 14.9945C0.175 14.6445 0 14.2169 0 13.7118V2.32728C0 1.82211 0.175 1.39453 0.525 1.04453C0.875 0.694531 1.30258 0.519531 1.80775 0.519531H17.1923C17.6974 0.519531 18.125 0.694531 18.475 1.04453C18.825 1.39453 19 1.82211 19 2.32728V8.51953C19 8.73236 18.9282 8.91062 18.7845 9.05428C18.641 9.19778 18.4628 9.26953 18.25 9.26953C18.0372 9.26953 17.859 9.19778 17.7155 9.05428C17.5718 8.91062 17.5 8.73236 17.5 8.51953V2.01953ZM1.5 2.01953V14.0195V9.26953V9.39253V2.01953ZM9.5 7.01953L17.5 2.01953V3.46178L9.977 8.17528C9.82317 8.26878 9.66417 8.31553 9.5 8.31553C9.33583 8.31553 9.17683 8.26878 9.023 8.17528L1.5 3.53878V2.01953L9.5 7.01953ZM17.079 15.5195H13.3077C13.0949 15.5195 12.9167 15.4477 12.773 15.304C12.6295 15.1605 12.5577 14.9824 12.5577 14.7695C12.5577 14.5567 12.6295 14.3785 12.773 14.235C12.9167 14.0914 13.0949 14.0195 13.3077 14.0195H17.0885L15.7655 12.6965C15.6167 12.5477 15.5433 12.372 15.5452 12.1695C15.5471 11.967 15.6256 11.7914 15.7807 11.6425C15.9294 11.5042 16.1051 11.434 16.3078 11.432C16.5103 11.43 16.6858 11.5034 16.8345 11.6523L19.3193 14.1368C19.4128 14.2304 19.4813 14.3292 19.525 14.433C19.5685 14.5369 19.5903 14.649 19.5903 14.7695C19.5903 14.8837 19.5685 14.9943 19.525 15.1013C19.4813 15.2083 19.4128 15.3086 19.3193 15.4023L16.825 17.8965C16.6865 18.0349 16.515 18.105 16.3105 18.107C16.106 18.1089 15.9294 18.0354 15.7807 17.8868C15.6422 17.7483 15.573 17.5759 15.573 17.3695C15.573 17.163 15.6422 16.9906 15.7807 16.8523L17.079 15.5195Z" fill="#3896F4" />
</svg>
