<svg
  xmlns="http://www.w3.org/2000/svg"
  width="20"
  height="20"
  viewBox="0 0 20 20"
  fill="none"
>
  <path
    d="M1.90289 19.0195C1.37114 19.0195 0.921053 18.8295 0.552632 18.4495C0.184211 18.0695 0 17.6053 0 17.0568V5.78223C0 5.23377 0.184211 4.76953 0.552632 4.38953C0.921053 4.00953 1.37114 3.81953 1.90289 3.81953H6.31579V1.98223C6.31579 1.43376 6.5 0.969531 6.86842 0.589531C7.23684 0.209531 7.68693 0.0195312 8.21869 0.0195312H11.7813C12.3131 0.0195312 12.7632 0.209531 13.1316 0.589531C13.5 0.969531 13.6842 1.43376 13.6842 1.98223V3.81953H18.0971C18.6289 3.81953 19.0789 4.00953 19.4474 4.38953C19.8158 4.76953 20 5.23377 20 5.78223V17.0568C20 17.6053 19.8158 18.0695 19.4474 18.4495C19.0789 18.8295 18.6289 19.0195 18.0971 19.0195H1.90289ZM1.90289 17.391H18.0971C18.1782 17.391 18.2524 17.3561 18.3197 17.2865C18.3873 17.217 18.4211 17.1404 18.4211 17.0568V5.78223C18.4211 5.69863 18.3873 5.62209 18.3197 5.5526C18.2524 5.48294 18.1782 5.4481 18.0971 5.4481H1.90289C1.82184 5.4481 1.74763 5.48294 1.68026 5.5526C1.61272 5.62209 1.57895 5.69863 1.57895 5.78223V17.0568C1.57895 17.1404 1.61272 17.217 1.68026 17.2865C1.74763 17.3561 1.82184 17.391 1.90289 17.391ZM7.89474 3.81953H12.1053V1.98223C12.1053 1.89863 12.0715 1.82209 12.0039 1.7526C11.9366 1.68294 11.8624 1.6481 11.7813 1.6481H8.21869C8.13763 1.6481 8.06342 1.68294 7.99605 1.7526C7.92851 1.82209 7.89474 1.89863 7.89474 1.98223V3.81953Z"
    fill="#5E87FF"
  />
</svg>
