<svg xmlns="http://www.w3.org/2000/svg" width="19" height="18" viewBox="0 0 19 18" fill="none">
	<path d="M1.5 15.5195V1.51953V5.85028V5.32728V15.5195ZM4.5 9.26953H8.275C8.4875 9.26953 8.66567 9.19761 8.8095 9.05378C8.95317 8.90995 9.025 8.73178 9.025 8.51928C9.025 8.30661 8.95317 8.12853 8.8095 7.98503C8.66567 7.84136 8.4875 7.76953 8.275 7.76953H4.5C4.2875 7.76953 4.10942 7.84145 3.96575 7.98528C3.82192 8.12912 3.75 8.30728 3.75 8.51978C3.75 8.73245 3.82192 8.91053 3.96575 9.05403C4.10942 9.1977 4.2875 9.26953 4.5 9.26953ZM4.5 13.2695H8.275C8.4875 13.2695 8.66567 13.1976 8.8095 13.0538C8.95317 12.9099 9.025 12.7318 9.025 12.5193C9.025 12.3066 8.95317 12.1285 8.8095 11.985C8.66567 11.8414 8.4875 11.7695 8.275 11.7695H4.5C4.2875 11.7695 4.10942 11.8414 3.96575 11.9853C3.82192 12.1291 3.75 12.3073 3.75 12.5198C3.75 12.7324 3.82192 12.9105 3.96575 13.054C4.10942 13.1977 4.2875 13.2695 4.5 13.2695ZM4.5 5.26953H12.5C12.7125 5.26953 12.8906 5.19761 13.0343 5.05378C13.1781 4.90995 13.25 4.73178 13.25 4.51928C13.25 4.30661 13.1781 4.12853 13.0343 3.98503C12.8906 3.84136 12.7125 3.76953 12.5 3.76953H4.5C4.2875 3.76953 4.10942 3.84145 3.96575 3.98528C3.82192 4.12911 3.75 4.30728 3.75 4.51978C3.75 4.73245 3.82192 4.91053 3.96575 5.05403C4.10942 5.1977 4.2875 5.26953 4.5 5.26953ZM1.80775 17.0195C1.30258 17.0195 0.875 16.8445 0.525 16.4945C0.175 16.1445 0 15.7169 0 15.2118V1.82728C0 1.32211 0.175 0.894531 0.525 0.544531C0.875 0.194531 1.30258 0.0195312 1.80775 0.0195312H15.1923C15.6974 0.0195312 16.125 0.194531 16.475 0.544531C16.825 0.894531 17 1.32211 17 1.82728V5.79653C17 6.00903 16.9281 6.18711 16.7843 6.33078C16.6404 6.47461 16.4623 6.54653 16.2498 6.54653C16.0371 6.54653 15.859 6.47461 15.7155 6.33078C15.5718 6.18711 15.5 6.00903 15.5 5.79653V1.82728C15.5 1.75028 15.4679 1.67978 15.4038 1.61578C15.3398 1.55161 15.2693 1.51953 15.1923 1.51953H1.80775C1.73075 1.51953 1.66025 1.55161 1.59625 1.61578C1.53208 1.67978 1.5 1.75028 1.5 1.82728V15.2118C1.5 15.2888 1.53208 15.3593 1.59625 15.4233C1.66025 15.4874 1.73075 15.5195 1.80775 15.5195H5.75C5.9625 15.5195 6.14067 15.5914 6.2845 15.7353C6.42817 15.8791 6.5 16.0573 6.5 16.2698C6.5 16.4824 6.42817 16.6605 6.2845 16.804C6.14067 16.9477 5.9625 17.0195 5.75 17.0195H1.80775ZM13.4423 12.0195C12.8193 12.0195 12.2885 11.8003 11.85 11.3618C11.4115 10.9233 11.1923 10.3925 11.1923 9.76953C11.1923 9.14636 11.4115 8.61561 11.85 8.17728C12.2885 7.73878 12.8193 7.51953 13.4423 7.51953C14.0654 7.51953 14.5962 7.73878 15.0345 8.17728C15.473 8.61561 15.6923 9.14636 15.6923 9.76953C15.6923 10.3925 15.473 10.9233 15.0345 11.3618C14.5962 11.8003 14.0654 12.0195 13.4423 12.0195ZM13.4423 13.5195C14.0729 13.5195 14.6995 13.5804 15.322 13.7023C15.9445 13.8241 16.5526 14.0068 17.1463 14.2503C17.4804 14.3806 17.7383 14.5943 17.9198 14.8913C18.1014 15.1883 18.1923 15.5144 18.1923 15.8695V16.1155C18.1923 16.3717 18.1057 16.5864 17.9325 16.7595C17.7592 16.9329 17.5445 17.0195 17.2885 17.0195H9.59625C9.34008 17.0195 9.12542 16.9329 8.95225 16.7595C8.77892 16.5864 8.69225 16.3717 8.69225 16.1155V15.8695C8.69225 15.5144 8.78308 15.1883 8.96475 14.8913C9.14642 14.5943 9.40433 14.3806 9.7385 14.2503C10.3202 14.0068 10.922 13.8241 11.544 13.7023C12.166 13.5804 12.7988 13.5195 13.4423 13.5195Z" fill="#F0A422" />
</svg>
