<svg xmlns="http://www.w3.org/2000/svg" width="70" height="56" viewBox="0 0 70 56" fill="none">
	<path d="M5.87608 55.8975C4.40869 55.8975 3.16667 55.3934 2.15 54.3854C1.13333 53.3773 0.625 52.146 0.625 50.6915V23.8281C0.625 23.2151 0.833659 22.7019 1.25098 22.2886C1.66781 21.8748 2.18534 21.6679 2.80357 21.6679C3.4218 21.6679 3.93933 21.8748 4.35617 22.2886C4.77348 22.7019 4.98214 23.2151 4.98214 23.8281V50.6915C4.98214 50.9128 5.07534 51.1159 5.26173 51.3007C5.44763 51.485 5.65242 51.5772 5.87608 51.5772H50.006C50.6242 51.5772 51.1417 51.7841 51.5586 52.1979C51.9759 52.6117 52.1845 53.1248 52.1845 53.7373C52.1845 54.3503 51.9759 54.8637 51.5586 55.2775C51.1417 55.6908 50.6242 55.8975 50.006 55.8975H5.87608ZM16.0428 45.8168C14.5754 45.8168 13.3333 45.313 12.3167 44.3054C11.3 43.2974 10.7917 42.0659 10.7917 40.6109V13.8583C10.7917 13.1162 11.0422 12.4967 11.5433 11.9999C12.0439 11.5035 12.6684 11.2553 13.4168 11.2553H25.7621V6.10411C25.7621 4.64914 26.2704 3.41762 27.2871 2.40956C28.3038 1.40149 29.5458 0.897461 31.0132 0.897461H41.4035C42.8704 0.897461 44.1122 1.40149 45.1289 2.40956C46.1455 3.41762 46.6539 4.64914 46.6539 6.10411V11.2553H58.9991C59.748 11.2553 60.3728 11.5035 60.8734 11.9999C61.3745 12.4967 61.625 13.1162 61.625 13.8583V40.6109C61.625 42.0659 61.1167 43.2974 60.1 44.3054C59.0833 45.313 57.8413 45.8168 56.3739 45.8168H16.0428ZM30.1192 11.2553H42.2974V6.10411C42.2974 5.88234 42.2043 5.67929 42.0179 5.49495C41.8315 5.31014 41.6267 5.21774 41.4035 5.21774H31.0132C30.79 5.21774 30.5852 5.31014 30.3988 5.49495C30.2124 5.67929 30.1192 5.88234 30.1192 6.10411V11.2553Z" fill="#03963F" fill-opacity="0.2" />
	<mask id="mask0_40006978_22930" style="mask-type:alpha" maskUnits="userSpaceOnUse" x="45" y="11" width="25" height="25">
		<rect x="45.375" y="11.2949" width="24" height="24" fill="#D9D9D9" />
	</mask>
	<g mask="url(#mask0_40006978_22930)">
		<path d="M57.375 28.0257C57.6038 28.0257 57.7957 27.9483 57.9505 27.7934C58.1053 27.6386 58.1827 27.4468 58.1827 27.2179C58.1827 26.9891 58.1053 26.7973 57.9505 26.6424C57.7957 26.4878 57.6038 26.4104 57.375 26.4104C57.1462 26.4104 56.9543 26.4878 56.7995 26.6424C56.6447 26.7973 56.5673 26.9891 56.5673 27.2179C56.5673 27.4468 56.6447 27.6386 56.7995 27.7934C56.9543 27.9483 57.1462 28.0257 57.375 28.0257ZM57.3753 24.3719C57.5879 24.3719 57.766 24.3 57.9095 24.1562C58.0532 24.0125 58.125 23.8344 58.125 23.6219V19.1219C58.125 18.9094 58.0531 18.7313 57.9093 18.5874C57.7654 18.4438 57.5872 18.3719 57.3748 18.3719C57.1621 18.3719 56.984 18.4438 56.8405 18.5874C56.6968 18.7313 56.625 18.9094 56.625 19.1219V23.6219C56.625 23.8344 56.6969 24.0125 56.8408 24.1562C56.9846 24.3 57.1628 24.3719 57.3753 24.3719ZM57.3767 32.7949C56.0627 32.7949 54.8277 32.5456 53.6715 32.0469C52.5153 31.5483 51.5097 30.8715 50.6545 30.0167C49.7993 29.1618 49.1222 28.1566 48.6232 27.0009C48.1244 25.8453 47.875 24.6105 47.875 23.2967C47.875 21.9827 48.1243 20.7476 48.623 19.5914C49.1217 18.4353 49.7984 17.4296 50.6533 16.5744C51.5081 15.7193 52.5133 15.0422 53.669 14.5432C54.8247 14.0443 56.0594 13.7949 57.3733 13.7949C58.6873 13.7949 59.9223 14.0443 61.0785 14.5429C62.2347 15.0416 63.2403 15.7183 64.0955 16.5732C64.9507 17.428 65.6278 18.4333 66.1268 19.5889C66.6256 20.7446 66.875 21.9793 66.875 23.2932C66.875 24.6072 66.6257 25.8423 66.127 26.9984C65.6283 28.1546 64.9516 29.1603 64.0968 30.0154C63.2419 30.8706 62.2367 31.5477 61.081 32.0467C59.9253 32.5455 58.6906 32.7949 57.3767 32.7949ZM57.375 31.2949C59.6083 31.2949 61.5 30.5199 63.05 28.9699C64.6 27.4199 65.375 25.5283 65.375 23.2949C65.375 21.0616 64.6 19.1699 63.05 17.6199C61.5 16.0699 59.6083 15.2949 57.375 15.2949C55.1417 15.2949 53.25 16.0699 51.7 17.6199C50.15 19.1699 49.375 21.0616 49.375 23.2949C49.375 25.5283 50.15 27.4199 51.7 28.9699C53.25 30.5199 55.1417 31.2949 57.375 31.2949Z" fill="#003D19" />
	</g>
</svg>
