<svg xmlns="http://www.w3.org/2000/svg" width="22" height="21" viewBox="0 0 22 21" fill="none">
	<path d="M0 16.4423V14.0048C0 13.4397 0.142466 12.9355 0.427398 12.4919C0.712329 12.0484 1.09286 11.7034 1.569 11.4569C2.58697 10.9472 3.61056 10.5542 4.63978 10.2779C5.66918 10.0017 6.80043 9.86368 8.03352 9.86368C8.82316 9.86368 9.57298 9.92235 10.283 10.0397C10.993 10.157 11.6893 10.3317 12.3718 10.5638C12.1488 10.7568 11.9454 10.967 11.7617 11.1945C11.578 11.4221 11.412 11.6602 11.2636 11.9089C10.7555 11.7698 10.2354 11.6683 9.70321 11.6043C9.17102 11.5404 8.61446 11.5084 8.03352 11.5084C6.96521 11.5084 5.96411 11.6282 5.03022 11.8678C4.09634 12.1075 3.18861 12.46 2.30704 12.9253C2.06388 13.0589 1.88633 13.215 1.7744 13.3935C1.66246 13.5721 1.60649 13.7758 1.60649 14.0048V14.7978H10.2048C10.176 15.0696 10.1617 15.3413 10.1617 15.6131C10.1617 15.8848 10.1727 16.1612 10.1946 16.4423H0ZM8.03352 8.09233C7.00252 8.09233 6.11996 7.7166 5.38585 6.96515C4.65174 6.21351 4.28469 5.31002 4.28469 4.25466C4.28469 3.1993 4.65174 2.2959 5.38585 1.54444C6.11996 0.792809 7.00252 0.416992 8.03352 0.416992C9.06453 0.416992 9.94717 0.792809 10.6815 1.54444C11.4156 2.2959 11.7826 3.1993 11.7826 4.25466C11.7826 5.31002 11.4156 6.21351 10.6815 6.96515C9.94717 7.7166 9.06453 8.09233 8.03352 8.09233ZM8.03352 6.44761C8.62267 6.44761 9.12701 6.23288 9.54655 5.80343C9.9661 5.37398 10.1759 4.85772 10.1759 4.25466C10.1759 3.6516 9.9661 3.13534 9.54655 2.70589C9.12701 2.27643 8.62267 2.06171 8.03352 2.06171C7.44438 2.06171 6.94004 2.27643 6.52049 2.70589C6.10095 3.13534 5.89118 3.6516 5.89118 4.25466C5.89118 4.85772 6.10095 5.37398 6.52049 5.80343C6.94004 6.23288 7.44438 6.44761 8.03352 6.44761ZM17.2826 4.25466C17.2826 5.31002 16.9155 6.21351 16.1814 6.96515C15.4473 7.7166 14.5647 8.09233 13.5337 8.09233C13.4129 8.09233 13.2591 8.07825 13.0723 8.05011C12.8854 8.02197 12.7316 7.99108 12.6109 7.95746C13.0447 7.4359 13.3722 6.85852 13.5934 6.2253C13.8145 5.59209 13.925 4.93457 13.925 4.25274C13.925 3.57091 13.811 2.91577 13.583 2.28731C13.355 1.65903 13.031 1.08063 12.6109 0.552133C12.7646 0.495847 12.9184 0.459298 13.0723 0.442485C13.226 0.42549 13.3798 0.416992 13.5337 0.416992C14.5647 0.416992 15.4473 0.792809 16.1814 1.54444C16.9155 2.2959 17.2826 3.1993 17.2826 4.25466ZM17.1355 20.417C15.7943 20.417 14.6509 19.9332 13.7054 18.9655C12.7601 17.9979 12.2874 16.8276 12.2874 15.4546C12.2874 14.065 12.7601 12.8877 13.7054 11.9226C14.6509 10.9575 15.7943 10.475 17.1355 10.475C18.4929 10.475 19.643 10.9575 20.5858 11.9226C21.5286 12.8877 22 14.065 22 15.4546C22 16.8276 21.5286 17.9979 20.5858 18.9655C19.643 19.9332 18.4929 20.417 17.1355 20.417ZM16.4505 18.0239L19.8349 14.5426L19.1676 13.8699L16.4505 16.6407L15.0786 15.2364L14.4113 15.9362L16.4505 18.0239Z" fill="#10B754" />
</svg>
