<svg width="21" height="21" viewBox="0 0 21 21" fill="none" xmlns="http://www.w3.org/2000/svg">
<g id="check_circle">
<mask id="mask0_1375_442" style="mask-type:alpha" maskUnits="userSpaceOnUse" x="0" y="0" width="21" height="21">
<rect id="Bounding box" x="0.0419922" y="0.851562" width="20" height="20" fill="#D9D9D9"/>
</mask>
<g mask="url(#mask0_1375_442)">
<path id="check_circle_2" d="M8.85945 12.6398L6.92361 10.7037C6.8082 10.5885 6.66313 10.5294 6.48841 10.5267C6.31382 10.524 6.16611 10.583 6.04528 10.7037C5.92459 10.8246 5.86424 10.971 5.86424 11.1429C5.86424 11.3148 5.92459 11.4612 6.04528 11.5821L8.33216 13.8689C8.48285 14.0195 8.65861 14.0948 8.85945 14.0948C9.06028 14.0948 9.23604 14.0195 9.38674 13.8689L14.023 9.2327C14.1383 9.11728 14.1973 8.97221 14.2001 8.79749C14.2027 8.6229 14.1437 8.4752 14.023 8.35436C13.9022 8.23367 13.7558 8.17332 13.5838 8.17332C13.4119 8.17332 13.2655 8.23367 13.1447 8.35436L8.85945 12.6398ZM10.0436 18.7679C8.94861 18.7679 7.91938 18.5601 6.9559 18.1446C5.99243 17.729 5.15438 17.1651 4.44174 16.4527C3.7291 15.7403 3.16486 14.9026 2.74903 13.9396C2.33334 12.9765 2.12549 11.9476 2.12549 10.8527C2.12549 9.7577 2.33327 8.72846 2.74882 7.76499C3.16438 6.80151 3.72834 5.96346 4.4407 5.25082C5.15306 4.53818 5.99077 3.97395 6.95382 3.55811C7.91688 3.14242 8.94584 2.93457 10.0407 2.93457C11.1357 2.93457 12.1649 3.14235 13.1284 3.5579C14.0919 3.97346 14.9299 4.53742 15.6426 5.24978C16.3552 5.96214 16.9194 6.79985 17.3353 7.7629C17.751 8.72596 17.9588 9.75492 17.9588 10.8498C17.9588 11.9448 17.751 12.974 17.3355 13.9375C16.9199 14.901 16.356 15.739 15.6436 16.4517C14.9313 17.1643 14.0935 17.7285 13.1305 18.1444C12.1674 18.5601 11.1385 18.7679 10.0436 18.7679Z" fill="#08A358"/>
</g>
</g>
</svg>
