<svg width="47" height="47" viewBox="0 0 47 47" fill="none" xmlns="http://www.w3.org/2000/svg">
<rect x="0.958496" y="0.351562" width="46" height="46" rx="23" fill="white"/>
<rect x="1.35505" y="0.748114" width="45.2069" height="45.2069" rx="22.6034" stroke="black" stroke-opacity="0.1" stroke-width="0.793103"/>
<path d="M14.1011 28.4916V16.0229C14.1011 15.4696 14.2927 15.0013 14.6761 14.618C15.0594 14.2346 15.5277 14.043 16.081 14.043H32.9307C33.484 14.043 33.9523 14.2346 34.3356 14.618C34.7189 15.0013 34.9106 15.4696 34.9106 16.0229V28.4916C34.9106 29.0361 34.7167 29.5023 34.329 29.89C33.9413 30.2777 33.4752 30.4715 32.9307 30.4715H30.8035C30.5707 30.4715 30.3756 30.3928 30.2181 30.2352C30.0607 30.0777 29.982 29.8826 29.982 29.6498C29.982 29.4169 30.0607 29.2219 30.2181 29.0647C30.3756 28.9074 30.5707 28.8287 30.8035 28.8287H32.9307C33.015 28.8287 33.0922 28.7935 33.1623 28.7233C33.2326 28.6532 33.2677 28.576 33.2677 28.4916V16.0229C33.2677 15.9386 33.2326 15.8613 33.1623 15.7912C33.0922 15.721 33.015 15.6858 32.9307 15.6858H16.081C15.9967 15.6858 15.9194 15.721 15.8493 15.7912C15.7791 15.8613 15.7439 15.9386 15.7439 16.0229V28.4916C15.7439 28.576 15.7791 28.6532 15.8493 28.7233C15.9194 28.7935 15.9967 28.8287 16.081 28.8287H18.2082C18.441 28.8287 18.6361 28.9074 18.7936 29.065C18.951 29.2225 19.0296 29.4176 19.0296 29.6504C19.0296 29.8833 18.951 30.0784 18.7936 30.2355C18.6361 30.3929 18.441 30.4715 18.2082 30.4715H16.081C15.5365 30.4715 15.0704 30.2777 14.6826 29.89C14.2949 29.5023 14.1011 29.0361 14.1011 28.4916ZM20.4956 32.662C20.2631 32.662 20.0803 32.5831 19.9472 32.4252C19.8143 32.2673 19.7478 32.097 19.7478 31.9142C19.7478 31.833 19.7646 31.7477 19.798 31.6582C19.8314 31.569 19.8898 31.4837 19.9732 31.4025L23.8128 27.5629C23.9154 27.4603 24.0253 27.3852 24.1425 27.3375C24.2597 27.2897 24.3825 27.2658 24.511 27.2658C24.6395 27.2658 24.7607 27.2897 24.8744 27.3375C24.9881 27.3852 25.0963 27.4603 25.1988 27.5629L29.0385 31.4025C29.1219 31.4839 29.1803 31.5693 29.2137 31.6588C29.2471 31.7484 29.2638 31.8339 29.2638 31.9153C29.2638 32.0944 29.1974 32.2636 29.0645 32.423C28.9314 32.5823 28.7486 32.662 28.5161 32.662H20.4956Z" fill="#25DE84"/>
<path d="M14.1011 28.4916V16.0229C14.1011 15.4696 14.2927 15.0013 14.6761 14.618C15.0594 14.2346 15.5277 14.043 16.081 14.043H32.9307C33.484 14.043 33.9523 14.2346 34.3356 14.618C34.7189 15.0013 34.9106 15.4696 34.9106 16.0229V28.4916C34.9106 29.0361 34.7167 29.5023 34.329 29.89C33.9413 30.2777 33.4752 30.4715 32.9307 30.4715H30.8035C30.5707 30.4715 30.3756 30.3928 30.2181 30.2352C30.0607 30.0777 29.982 29.8826 29.982 29.6498C29.982 29.4169 30.0607 29.2219 30.2181 29.0647C30.3756 28.9074 30.5707 28.8287 30.8035 28.8287H32.9307C33.015 28.8287 33.0922 28.7935 33.1623 28.7233C33.2326 28.6532 33.2677 28.576 33.2677 28.4916V16.0229C33.2677 15.9386 33.2326 15.8613 33.1623 15.7912C33.0922 15.721 33.015 15.6858 32.9307 15.6858H16.081C15.9967 15.6858 15.9194 15.721 15.8493 15.7912C15.7791 15.8613 15.7439 15.9386 15.7439 16.0229V28.4916C15.7439 28.576 15.7791 28.6532 15.8493 28.7233C15.9194 28.7935 15.9967 28.8287 16.081 28.8287H18.2082C18.441 28.8287 18.6361 28.9074 18.7936 29.065C18.951 29.2225 19.0296 29.4176 19.0296 29.6504C19.0296 29.8833 18.951 30.0784 18.7936 30.2355C18.6361 30.3929 18.441 30.4715 18.2082 30.4715H16.081C15.5365 30.4715 15.0704 30.2777 14.6826 29.89C14.2949 29.5023 14.1011 29.0361 14.1011 28.4916Z" fill="#001A38"/>
</svg>
