<svg width="1359" height="928" viewBox="0 0 1359 928" fill="none" xmlns="http://www.w3.org/2000/svg">
<g clip-path="url(#clip0_40001628_6489)">
<rect width="1359" height="928" rx="8" fill="white"/>
<g opacity="0.04">
<path fill-rule="evenodd" clip-rule="evenodd" d="M1259.97 79.8199C1277.06 59.6677 1290.05 35.2097 1288.11 7.90702C1280.32 -102.06 1139.97 -114.605 1096.09 -24.7337C1073.61 21.3117 1065.45 86.9633 1070.82 146.49C1044.15 158.905 1017.84 169.884 994.659 178.943C982.004 183.889 975.755 198.156 980.701 210.81C985.647 223.464 999.914 229.713 1012.57 224.768C1032.87 216.833 1055.61 207.429 1079.04 196.844C1084.73 220.042 1093.07 241.832 1104.55 260.031C1121.4 286.771 1146.67 307.964 1181.18 310.216C1214.59 312.396 1250.03 296.275 1286.82 264.448C1310.65 243.822 1336.24 215.607 1363.68 178.726C1349.37 170.18 1334.49 162.618 1319.14 156.097C1295.34 187.37 1273.84 210.617 1254.62 227.241C1222.34 255.173 1199.29 262.093 1184.38 261.12C1170.57 260.219 1157.69 252.066 1146.17 233.794C1136.72 218.813 1129.34 198.566 1124.57 175.063C1176.73 148.576 1229.36 115.909 1259.97 79.8199ZM1222.45 47.9931C1200.94 73.3561 1162.59 99.1373 1118.62 122.681C1117.21 80.7958 1118.63 -16.1305 1169.96 -34.1275C1199.07 -44.3342 1236.83 -19.743 1239.04 11.3863C1239.68 20.4127 1235.6 32.4933 1222.45 47.9931Z" fill="#001630"/>
<path d="M1396.64 68.3191C1396.99 62.2359 1389.73 58.8478 1385.29 63.024L1382.78 65.39C1353.45 92.997 1319.79 115.603 1283.14 132.308L1276.33 135.411C1272.48 137.165 1273.29 142.856 1277.48 143.46L1278.58 143.618C1324.08 150.179 1366.29 171.119 1399.04 203.377C1401.96 206.251 1406.84 203.66 1406.09 199.633L1403.64 186.36C1396.65 148.55 1394.24 110.037 1396.45 71.6512L1396.64 68.3191Z" fill="#01FF85" stroke="#EBFBF3" stroke-width="2.00723"/>
</g>
<g opacity="0.04">
<path fill-rule="evenodd" clip-rule="evenodd" d="M136.97 780.82C154.064 760.668 167.05 736.21 165.114 708.907C157.318 598.94 16.968 586.395 -26.9086 676.266C-49.3886 722.312 -57.5519 787.963 -52.1844 847.49C-78.8504 859.905 -105.163 870.884 -128.341 879.943C-140.996 884.889 -147.245 899.156 -142.299 911.81C-137.353 924.464 -123.086 930.713 -110.432 925.768C-90.1309 917.833 -67.3887 908.429 -43.9605 897.844C-38.2726 921.042 -29.9256 942.832 -18.4533 961.031C-1.59664 987.771 23.6665 1008.96 58.1769 1011.22C91.5883 1013.4 127.031 997.275 163.817 965.448C187.655 944.822 213.239 916.607 240.68 879.726C226.37 871.18 211.487 863.618 196.136 857.097C172.343 888.37 150.839 911.617 131.625 928.241C99.3418 956.173 76.2902 963.093 61.3804 962.12C47.5697 961.219 34.6852 953.066 23.1672 934.794C13.7233 919.813 6.34371 899.566 1.57283 876.063C53.7254 849.576 106.357 816.909 136.97 780.82ZM99.4504 748.993C77.9355 774.356 39.5877 800.137 -4.38339 823.681C-5.79117 781.796 -4.37208 684.87 46.9556 666.873C76.0651 656.666 113.83 681.257 116.037 712.386C116.677 721.413 112.598 733.493 99.4504 748.993Z" fill="#001630"/>
<path d="M273.641 769.319C273.992 763.236 266.731 759.848 262.294 764.024L259.78 766.39C230.45 793.997 196.788 816.603 160.136 833.308L153.328 836.411C149.479 838.165 150.294 843.856 154.481 844.46L155.578 844.618C201.078 851.179 243.287 872.119 276.038 904.377C278.955 907.251 283.838 904.66 283.094 900.633L280.64 887.36C273.652 849.55 271.238 811.037 273.449 772.651L273.641 769.319Z" fill="#01FF85" stroke="#EBFBF3" stroke-width="2.00723"/>
</g>
</g>
<defs>
<clipPath id="clip0_40001628_6489">
<rect width="1359" height="928" rx="8" fill="white"/>
</clipPath>
</defs>
</svg>
