<svg xmlns="http://www.w3.org/2000/svg" width="40" height="40" viewBox="0 0 40 40" fill="none">
  <rect width="40" height="40" rx="20" fill="#DBFFEA"/>
  <path d="M13.8667 26.9333H15.1967L24.32 17.81L22.99 16.48L13.8667 25.6033V26.9333ZM12.9333 28.8C12.6689 28.8 12.4472 28.7106 12.2683 28.5317C12.0894 28.3528 12 28.1311 12 27.8667V25.6033C12 25.3544 12.0467 25.1172 12.14 24.8917C12.2333 24.6661 12.3656 24.4678 12.5367 24.2967L24.32 12.5367C24.5067 12.3656 24.7128 12.2333 24.9383 12.14C25.1639 12.0467 25.4011 12 25.65 12C25.8989 12 26.14 12.0467 26.3733 12.14C26.6067 12.2333 26.8089 12.3733 26.98 12.56L28.2633 13.8667C28.45 14.0378 28.5861 14.24 28.6717 14.4733C28.7572 14.7067 28.8 14.94 28.8 15.1733C28.8 15.4222 28.7572 15.6594 28.6717 15.885C28.5861 16.1106 28.45 16.3167 28.2633 16.5033L16.5033 28.2633C16.3322 28.4344 16.1339 28.5667 15.9083 28.66C15.6828 28.7533 15.4456 28.8 15.1967 28.8H12.9333ZM23.6433 17.1567L22.99 16.48L24.32 17.81L23.6433 17.1567Z" fill="#10B754"/>
</svg>