<svg width="447" height="100" viewBox="0 0 447 100" fill="none" xmlns="http://www.w3.org/2000/svg">
<g clip-path="url(#clip0_40001346_6588)">
<rect x="0.5" width="446" height="100" rx="12" fill="#FCFCFC"/>
<g clip-path="url(#clip1_40001346_6588)">
<rect width="138" height="134" transform="translate(0.5 -17)" fill="#AEFDCE"/>
<g filter="url(#filter0_f_40001346_6588)">
<ellipse cx="77.4456" cy="64.3703" rx="18.1175" ry="18.675" fill="#629477"/>
</g>
<path d="M52.917 74.9655L77.4453 59.9141C66.9215 59.9141 49.2622 60.7503 49.8636 60.7503C50.4649 60.7503 52.0808 69.6696 52.917 74.9655Z" fill="url(#paint0_linear_40001346_6588)"/>
<path d="M52.8147 75.2424L74.9336 61.8633C67.8489 61.8633 51.6803 62.1495 52.0851 62.1495C52.49 62.1495 53.3061 68.4105 52.8147 75.2424Z" fill="url(#paint1_linear_40001346_6588)"/>
<path d="M35.918 37.6592C35.918 30.0917 42.0526 23.957 49.6201 23.957H69.3054C76.8729 23.957 83.0076 30.0917 83.0076 37.6592V53.3817C83.0076 59.8834 77.7369 65.1541 71.2352 65.1541H59.4628H47.6904C41.1887 65.1541 35.918 59.8834 35.918 53.3817V37.6592Z" fill="url(#paint2_linear_40001346_6588)"/>
<rect x="38.4453" y="23.957" width="47.0896" height="41.197" rx="11.5223" fill="url(#paint3_linear_40001346_6588)"/>
<path fill-rule="evenodd" clip-rule="evenodd" d="M65.7087 44.3384C66.9282 43.1772 67.9165 41.7154 67.9785 39.9724C68.2282 32.9524 59.4193 31.2086 56.0311 36.606C54.2951 39.3713 53.3338 43.4756 53.2714 47.2833C51.4976 47.8896 49.756 48.4073 48.2259 48.8246C47.3906 49.0523 46.8981 49.914 47.1259 50.7492C47.3538 51.5844 48.2156 52.0768 49.0509 51.849C50.391 51.4836 51.8958 51.0415 53.452 50.5293C53.6555 52.0375 54.0371 53.4745 54.641 54.7052C55.5283 56.5133 56.9859 58.0269 59.1575 58.4029C61.26 58.767 63.615 57.9853 66.1613 56.2175C67.8084 55.074 69.6169 53.463 71.601 51.3177C70.7516 50.6798 69.8592 50.1004 68.9301 49.5838C67.2158 51.3979 65.6999 52.7213 64.373 53.6425C62.1383 55.1939 60.6308 55.4764 59.6926 55.314C58.8235 55.1635 58.0622 54.5598 57.4558 53.3243C56.9587 52.3113 56.628 50.9785 56.4846 49.4572C59.9686 48.1317 63.5247 46.4178 65.7087 44.3384ZM63.5464 42.0682C62.0115 43.5296 59.4071 44.9038 56.4615 46.0981C56.6555 43.4349 57.401 37.3034 60.7752 36.5102C62.6889 36.0604 64.9157 37.8738 64.845 39.861C64.8245 40.4372 64.4844 41.1751 63.5464 42.0682Z" fill="white"/>
<path d="M66.347 48.9379L66.4723 48.446L66.347 48.9379C69.0938 49.6378 71.5447 51.1978 73.3417 53.3897C73.7821 53.9269 74.6525 53.578 74.5994 52.8851L74.5337 52.0276C74.3494 49.6204 74.4553 47.1998 74.8491 44.818L74.8838 44.6082C75.0126 43.8293 74.1238 43.2933 73.495 43.7701L73.3197 43.903C71.3133 45.4244 69.0708 46.6062 66.6816 47.4014L66.2293 47.5519C65.5534 47.7769 65.5882 48.7445 66.2785 48.9204L66.347 48.9379Z" fill="white" stroke="#43EA86" stroke-width="1.01509"/>
<g filter="url(#filter1_b_40001346_6588)">
<path d="M72.6001 41.793C69.1189 41.793 66.2969 44.3996 66.2969 47.6151V64.8586C66.2969 68.0741 69.1189 70.6807 72.6001 70.6807H87.8803L103.19 81.3001C104.045 81.8932 105.183 81.0928 104.922 80.0853C103.952 76.3397 103.052 72.6306 102.426 70.6807H105.705C109.187 70.6807 112.009 68.0741 112.009 64.8586V47.6151C112.009 44.3996 109.187 41.793 105.705 41.793H72.6001Z" fill="url(#paint4_radial_40001346_6588)"/>
<path d="M88.0788 70.3944L87.9893 70.3323H87.8803H72.6001C69.2848 70.3323 66.6453 67.8561 66.6453 64.8586V47.6151C66.6453 44.6176 69.2848 42.1414 72.6001 42.1414H105.705C109.021 42.1414 111.66 44.6176 111.66 47.6151V64.8586C111.66 67.8561 109.021 70.3323 105.705 70.3323H102.426H101.948L102.094 70.7872C102.555 72.2248 103.168 74.6274 103.85 77.307C104.088 78.2384 104.334 79.2033 104.585 80.1727C104.766 80.8717 103.974 81.4203 103.388 81.0138L88.0788 70.3944Z" stroke="url(#paint5_linear_40001346_6588)" stroke-opacity="0.7" stroke-width="0.696827"/>
</g>
<path d="M72.9883 48.9102L105.324 48.9358" stroke="white" stroke-width="1.8392" stroke-linecap="round"/>
<path d="M82.1914 55.2422L105.326 55.2422" stroke="white" stroke-width="1.8392" stroke-linecap="round"/>
<path d="M91.1094 61.3086L105.325 61.3086" stroke="white" stroke-width="1.8392" stroke-linecap="round"/>
</g>
<path d="M174.64 45.04C173.213 45.04 172.12 45.4867 171.36 46.38C170.613 47.26 170.24 48.4867 170.24 50.06C170.24 50.8067 170.327 51.4933 170.5 52.12C170.687 52.7333 170.953 53.26 171.3 53.7C171.66 54.14 172.1 54.4867 172.62 54.74C173.153 54.98 173.773 55.1 174.48 55.1C174.92 55.1 175.3 55.0867 175.62 55.06C175.94 55.02 176.193 54.9733 176.38 54.92V49.94H178.9V56.6C178.553 56.7333 177.967 56.88 177.14 57.04C176.313 57.2 175.36 57.28 174.28 57.28C173.28 57.28 172.367 57.12 171.54 56.8C170.713 56.48 170.007 56.0133 169.42 55.4C168.847 54.7867 168.4 54.0333 168.08 53.14C167.76 52.2467 167.6 51.22 167.6 50.06C167.6 48.9 167.773 47.8733 168.12 46.98C168.48 46.0867 168.967 45.3333 169.58 44.72C170.193 44.0933 170.913 43.62 171.74 43.3C172.567 42.98 173.447 42.82 174.38 42.82C175.02 42.82 175.587 42.8667 176.08 42.96C176.587 43.04 177.02 43.1333 177.38 43.24C177.74 43.3467 178.033 43.46 178.26 43.58C178.5 43.7 178.667 43.7867 178.76 43.84L178 45.9C177.6 45.66 177.1 45.46 176.5 45.3C175.913 45.1267 175.293 45.04 174.64 45.04ZM180.912 51.82C180.912 50.9 181.046 50.0933 181.312 49.4C181.592 48.7067 181.959 48.1333 182.412 47.68C182.866 47.2133 183.386 46.8667 183.972 46.64C184.559 46.4 185.159 46.28 185.772 46.28C187.212 46.28 188.332 46.7267 189.132 47.62C189.946 48.5133 190.352 49.8467 190.352 51.62C190.352 51.7533 190.346 51.9067 190.332 52.08C190.332 52.24 190.326 52.3867 190.312 52.52H183.412C183.479 53.36 183.772 54.0133 184.292 54.48C184.826 54.9333 185.592 55.16 186.592 55.16C187.179 55.16 187.712 55.1067 188.192 55C188.686 54.8933 189.072 54.78 189.352 54.66L189.672 56.64C189.539 56.7067 189.352 56.78 189.112 56.86C188.886 56.9267 188.619 56.9867 188.312 57.04C188.019 57.1067 187.699 57.16 187.352 57.2C187.006 57.24 186.652 57.26 186.292 57.26C185.372 57.26 184.572 57.1267 183.892 56.86C183.212 56.58 182.652 56.2 182.212 55.72C181.772 55.2267 181.446 54.6533 181.232 54C181.019 53.3333 180.912 52.6067 180.912 51.82ZM187.932 50.74C187.932 50.4067 187.886 50.0933 187.792 49.8C187.699 49.4933 187.559 49.2333 187.372 49.02C187.199 48.7933 186.979 48.62 186.712 48.5C186.459 48.3667 186.152 48.3 185.792 48.3C185.419 48.3 185.092 48.3733 184.812 48.52C184.532 48.6533 184.292 48.8333 184.092 49.06C183.906 49.2867 183.759 49.5467 183.652 49.84C183.546 50.1333 183.472 50.4333 183.432 50.74H187.932ZM192.598 43.78L195.018 43.38V46.54H198.738V48.56H195.018V52.82C195.018 53.66 195.151 54.26 195.418 54.62C195.685 54.98 196.138 55.16 196.778 55.16C197.218 55.16 197.605 55.1133 197.938 55.02C198.285 54.9267 198.558 54.84 198.758 54.76L199.158 56.68C198.878 56.8 198.511 56.92 198.058 57.04C197.605 57.1733 197.071 57.24 196.458 57.24C195.711 57.24 195.085 57.14 194.578 56.94C194.085 56.74 193.691 56.4533 193.398 56.08C193.105 55.6933 192.898 55.2333 192.778 54.7C192.658 54.1533 192.598 53.5333 192.598 52.84V43.78ZM209.025 55.3C209.772 55.3 210.339 55.26 210.725 55.18V52.5C210.592 52.46 210.399 52.42 210.145 52.38C209.892 52.34 209.612 52.32 209.305 52.32C209.039 52.32 208.765 52.34 208.485 52.38C208.219 52.42 207.972 52.4933 207.745 52.6C207.532 52.7067 207.359 52.86 207.225 53.06C207.092 53.2467 207.025 53.4867 207.025 53.78C207.025 54.3533 207.205 54.7533 207.565 54.98C207.925 55.1933 208.412 55.3 209.025 55.3ZM208.825 46.28C209.625 46.28 210.299 46.38 210.845 46.58C211.392 46.78 211.825 47.06 212.145 47.42C212.479 47.78 212.712 48.22 212.845 48.74C212.992 49.2467 213.065 49.8067 213.065 50.42V56.76C212.692 56.84 212.125 56.9333 211.365 57.04C210.619 57.16 209.772 57.22 208.825 57.22C208.199 57.22 207.625 57.16 207.105 57.04C206.585 56.92 206.139 56.7267 205.765 56.46C205.405 56.1933 205.119 55.8467 204.905 55.42C204.705 54.9933 204.605 54.4667 204.605 53.84C204.605 53.24 204.719 52.7333 204.945 52.32C205.185 51.9067 205.505 51.5733 205.905 51.32C206.305 51.0533 206.765 50.8667 207.285 50.76C207.819 50.64 208.372 50.58 208.945 50.58C209.212 50.58 209.492 50.6 209.785 50.64C210.079 50.6667 210.392 50.72 210.725 50.8V50.4C210.725 50.12 210.692 49.8533 210.625 49.6C210.559 49.3467 210.439 49.1267 210.265 48.94C210.105 48.74 209.885 48.5867 209.605 48.48C209.339 48.3733 208.999 48.32 208.585 48.32C208.025 48.32 207.512 48.36 207.045 48.44C206.579 48.52 206.199 48.6133 205.905 48.72L205.605 46.76C205.912 46.6533 206.359 46.5467 206.945 46.44C207.532 46.3333 208.159 46.28 208.825 46.28ZM224.337 43C226.35 43 227.89 43.3667 228.957 44.1C230.037 44.8333 230.577 45.98 230.577 47.54C230.577 48.3533 230.43 49.0533 230.137 49.64C229.857 50.2133 229.444 50.6867 228.897 51.06C228.35 51.42 227.684 51.6867 226.897 51.86C226.11 52.0333 225.21 52.12 224.197 52.12H222.937V57H220.417V43.34C221.004 43.2067 221.65 43.12 222.357 43.08C223.077 43.0267 223.737 43 224.337 43ZM224.517 45.18C223.877 45.18 223.35 45.2 222.937 45.24V49.96H224.157C225.37 49.96 226.304 49.7933 226.957 49.46C227.61 49.1133 227.937 48.4667 227.937 47.52C227.937 47.0667 227.85 46.6867 227.677 46.38C227.504 46.0733 227.264 45.8333 226.957 45.66C226.65 45.4867 226.284 45.3667 225.857 45.3C225.444 45.22 224.997 45.18 224.517 45.18ZM238.518 48.72C238.318 48.6533 238.038 48.5867 237.678 48.52C237.331 48.44 236.925 48.4 236.458 48.4C236.191 48.4 235.905 48.4267 235.598 48.48C235.305 48.5333 235.098 48.58 234.978 48.62V57H232.558V47.04C233.025 46.8667 233.605 46.7067 234.298 46.56C235.005 46.4 235.785 46.32 236.638 46.32C236.798 46.32 236.985 46.3333 237.198 46.36C237.411 46.3733 237.625 46.4 237.838 46.44C238.051 46.4667 238.258 46.5067 238.458 46.56C238.658 46.6 238.818 46.64 238.938 46.68L238.518 48.72ZM249.884 51.76C249.884 52.5867 249.764 53.34 249.524 54.02C249.284 54.7 248.944 55.28 248.504 55.76C248.064 56.24 247.531 56.6133 246.904 56.88C246.291 57.1467 245.611 57.28 244.864 57.28C244.118 57.28 243.438 57.1467 242.824 56.88C242.211 56.6133 241.684 56.24 241.244 55.76C240.804 55.28 240.458 54.7 240.204 54.02C239.964 53.34 239.844 52.5867 239.844 51.76C239.844 50.9333 239.964 50.1867 240.204 49.52C240.458 48.84 240.804 48.26 241.244 47.78C241.698 47.3 242.231 46.9333 242.844 46.68C243.458 46.4133 244.131 46.28 244.864 46.28C245.598 46.28 246.271 46.4133 246.884 46.68C247.511 46.9333 248.044 47.3 248.484 47.78C248.924 48.26 249.264 48.84 249.504 49.52C249.758 50.1867 249.884 50.9333 249.884 51.76ZM247.404 51.76C247.404 50.72 247.178 49.9 246.724 49.3C246.284 48.6867 245.664 48.38 244.864 48.38C244.064 48.38 243.438 48.6867 242.984 49.3C242.544 49.9 242.324 50.72 242.324 51.76C242.324 52.8133 242.544 53.6467 242.984 54.26C243.438 54.8733 244.064 55.18 244.864 55.18C245.664 55.18 246.284 54.8733 246.724 54.26C247.178 53.6467 247.404 52.8133 247.404 51.76ZM250.837 60.72C250.664 60.72 250.424 60.7 250.117 60.66C249.797 60.6333 249.517 60.5733 249.277 60.48L249.597 58.5C249.891 58.5933 250.244 58.64 250.657 58.64C251.217 58.64 251.611 58.4733 251.837 58.14C252.064 57.82 252.177 57.3333 252.177 56.68V46.54H254.597V56.72C254.597 58.08 254.271 59.0867 253.617 59.74C252.977 60.3933 252.051 60.72 250.837 60.72ZM254.857 43.48C254.857 43.9333 254.711 44.2933 254.417 44.56C254.124 44.8267 253.777 44.96 253.377 44.96C252.964 44.96 252.611 44.8267 252.317 44.56C252.024 44.2933 251.877 43.9333 251.877 43.48C251.877 43.0133 252.024 42.6467 252.317 42.38C252.611 42.1133 252.964 41.98 253.377 41.98C253.777 41.98 254.124 42.1133 254.417 42.38C254.711 42.6467 254.857 43.0133 254.857 43.48ZM256.905 51.82C256.905 50.9 257.039 50.0933 257.305 49.4C257.585 48.7067 257.952 48.1333 258.405 47.68C258.859 47.2133 259.379 46.8667 259.965 46.64C260.552 46.4 261.152 46.28 261.765 46.28C263.205 46.28 264.325 46.7267 265.125 47.62C265.939 48.5133 266.345 49.8467 266.345 51.62C266.345 51.7533 266.339 51.9067 266.325 52.08C266.325 52.24 266.319 52.3867 266.305 52.52H259.405C259.472 53.36 259.765 54.0133 260.285 54.48C260.819 54.9333 261.585 55.16 262.585 55.16C263.172 55.16 263.705 55.1067 264.185 55C264.679 54.8933 265.065 54.78 265.345 54.66L265.665 56.64C265.532 56.7067 265.345 56.78 265.105 56.86C264.879 56.9267 264.612 56.9867 264.305 57.04C264.012 57.1067 263.692 57.16 263.345 57.2C262.999 57.24 262.645 57.26 262.285 57.26C261.365 57.26 260.565 57.1267 259.885 56.86C259.205 56.58 258.645 56.2 258.205 55.72C257.765 55.2267 257.439 54.6533 257.225 54C257.012 53.3333 256.905 52.6067 256.905 51.82ZM263.925 50.74C263.925 50.4067 263.879 50.0933 263.785 49.8C263.692 49.4933 263.552 49.2333 263.365 49.02C263.192 48.7933 262.972 48.62 262.705 48.5C262.452 48.3667 262.145 48.3 261.785 48.3C261.412 48.3 261.085 48.3733 260.805 48.52C260.525 48.6533 260.285 48.8333 260.085 49.06C259.899 49.2867 259.752 49.5467 259.645 49.84C259.539 50.1333 259.465 50.4333 259.425 50.74H263.925ZM268.131 51.78C268.131 51.0067 268.251 50.2867 268.491 49.62C268.731 48.94 269.071 48.3533 269.511 47.86C269.964 47.3667 270.511 46.98 271.151 46.7C271.791 46.42 272.511 46.28 273.311 46.28C274.298 46.28 275.231 46.46 276.111 46.82L275.591 48.8C275.311 48.68 274.991 48.58 274.631 48.5C274.284 48.42 273.911 48.38 273.511 48.38C272.564 48.38 271.844 48.68 271.351 49.28C270.858 49.8667 270.611 50.7 270.611 51.78C270.611 52.82 270.844 53.6467 271.311 54.26C271.778 54.86 272.564 55.16 273.671 55.16C274.084 55.16 274.491 55.12 274.891 55.04C275.291 54.96 275.638 54.86 275.931 54.74L276.271 56.74C276.004 56.8733 275.598 56.9933 275.051 57.1C274.518 57.2067 273.964 57.26 273.391 57.26C272.498 57.26 271.718 57.1267 271.051 56.86C270.398 56.58 269.851 56.2 269.411 55.72C268.984 55.2267 268.664 54.6467 268.451 53.98C268.238 53.3 268.131 52.5667 268.131 51.78ZM277.825 43.78L280.245 43.38V46.54H283.965V48.56H280.245V52.82C280.245 53.66 280.378 54.26 280.645 54.62C280.911 54.98 281.365 55.16 282.005 55.16C282.445 55.16 282.831 55.1133 283.165 55.02C283.511 54.9267 283.785 54.84 283.985 54.76L284.385 56.68C284.105 56.8 283.738 56.92 283.285 57.04C282.831 57.1733 282.298 57.24 281.685 57.24C280.938 57.24 280.311 57.14 279.805 56.94C279.311 56.74 278.918 56.4533 278.625 56.08C278.331 55.6933 278.125 55.2333 278.005 54.7C277.885 54.1533 277.825 53.5333 277.825 52.84V43.78ZM294.832 41.48C295.392 41.48 295.885 41.5333 296.312 41.64C296.739 41.7333 297.059 41.82 297.272 41.9L296.812 43.9C296.585 43.7933 296.319 43.7067 296.012 43.64C295.719 43.5733 295.399 43.54 295.052 43.54C294.665 43.54 294.339 43.6 294.072 43.72C293.805 43.8267 293.592 43.98 293.432 44.18C293.272 44.38 293.159 44.6267 293.092 44.92C293.025 45.2 292.992 45.5067 292.992 45.84V46.54H296.792V48.56H292.992V57H290.572V45.8C290.572 44.4533 290.925 43.4 291.632 42.64C292.339 41.8667 293.405 41.48 294.832 41.48ZM304.34 48.72C304.14 48.6533 303.86 48.5867 303.5 48.52C303.153 48.44 302.747 48.4 302.28 48.4C302.013 48.4 301.727 48.4267 301.42 48.48C301.127 48.5333 300.92 48.58 300.8 48.62V57H298.38V47.04C298.847 46.8667 299.427 46.7067 300.12 46.56C300.827 46.4 301.607 46.32 302.46 46.32C302.62 46.32 302.807 46.3333 303.02 46.36C303.233 46.3733 303.447 46.4 303.66 46.44C303.873 46.4667 304.08 46.5067 304.28 46.56C304.48 46.6 304.64 46.64 304.76 46.68L304.34 48.72ZM315.706 51.76C315.706 52.5867 315.586 53.34 315.346 54.02C315.106 54.7 314.766 55.28 314.326 55.76C313.886 56.24 313.353 56.6133 312.726 56.88C312.113 57.1467 311.433 57.28 310.686 57.28C309.94 57.28 309.26 57.1467 308.646 56.88C308.033 56.6133 307.506 56.24 307.066 55.76C306.626 55.28 306.28 54.7 306.026 54.02C305.786 53.34 305.666 52.5867 305.666 51.76C305.666 50.9333 305.786 50.1867 306.026 49.52C306.28 48.84 306.626 48.26 307.066 47.78C307.52 47.3 308.053 46.9333 308.666 46.68C309.28 46.4133 309.953 46.28 310.686 46.28C311.42 46.28 312.093 46.4133 312.706 46.68C313.333 46.9333 313.866 47.3 314.306 47.78C314.746 48.26 315.086 48.84 315.326 49.52C315.58 50.1867 315.706 50.9333 315.706 51.76ZM313.226 51.76C313.226 50.72 313 49.9 312.546 49.3C312.106 48.6867 311.486 48.38 310.686 48.38C309.886 48.38 309.26 48.6867 308.806 49.3C308.366 49.9 308.146 50.72 308.146 51.76C308.146 52.8133 308.366 53.6467 308.806 54.26C309.26 54.8733 309.886 55.18 310.686 55.18C311.486 55.18 312.106 54.8733 312.546 54.26C313 53.6467 313.226 52.8133 313.226 51.76ZM323.959 51.5C323.959 50.4067 323.819 49.62 323.539 49.14C323.273 48.6467 322.766 48.4 322.019 48.4C321.753 48.4 321.459 48.42 321.139 48.46C320.819 48.5 320.579 48.5333 320.419 48.56V57H317.999V46.88C318.466 46.7467 319.073 46.62 319.819 46.5C320.579 46.38 321.379 46.32 322.219 46.32C322.939 46.32 323.526 46.4133 323.979 46.6C324.446 46.7867 324.833 47.0333 325.139 47.34C325.286 47.2333 325.473 47.12 325.699 47C325.926 46.88 326.179 46.7733 326.459 46.68C326.739 46.5733 327.033 46.4867 327.339 46.42C327.659 46.3533 327.979 46.32 328.299 46.32C329.113 46.32 329.779 46.44 330.299 46.68C330.833 46.9067 331.246 47.2333 331.539 47.66C331.846 48.0733 332.053 48.58 332.159 49.18C332.279 49.7667 332.339 50.4133 332.339 51.12V57H329.919V51.5C329.919 50.4067 329.786 49.62 329.519 49.14C329.253 48.6467 328.739 48.4 327.979 48.4C327.593 48.4 327.226 48.4667 326.879 48.6C326.533 48.72 326.273 48.84 326.099 48.96C326.206 49.2933 326.279 49.6467 326.319 50.02C326.359 50.3933 326.379 50.7933 326.379 51.22V57H323.959V51.5ZM342.712 43.14C343.005 43.6467 343.332 44.2667 343.692 45C344.052 45.7333 344.419 46.5067 344.792 47.32C345.165 48.12 345.532 48.94 345.892 49.78C346.265 50.6067 346.605 51.3733 346.912 52.08C347.219 51.3733 347.552 50.6067 347.912 49.78C348.272 48.94 348.639 48.12 349.012 47.32C349.385 46.5067 349.752 45.7333 350.112 45C350.472 44.2667 350.799 43.6467 351.092 43.14H353.372C353.492 44.1533 353.605 45.2333 353.712 46.38C353.819 47.5133 353.912 48.68 353.992 49.88C354.085 51.0667 354.165 52.2667 354.232 53.48C354.312 54.68 354.379 55.8533 354.432 57H351.952C351.899 55.3867 351.832 53.7267 351.752 52.02C351.685 50.3133 351.579 48.66 351.432 47.06C351.285 47.3667 351.112 47.7333 350.912 48.16C350.712 48.5867 350.499 49.0533 350.272 49.56C350.045 50.0533 349.812 50.5667 349.572 51.1C349.345 51.6333 349.119 52.1533 348.892 52.66C348.679 53.1533 348.479 53.62 348.292 54.06C348.105 54.4867 347.945 54.8533 347.812 55.16H345.932C345.799 54.8533 345.639 54.48 345.452 54.04C345.265 53.6 345.059 53.1333 344.832 52.64C344.619 52.1333 344.392 51.6133 344.152 51.08C343.925 50.5467 343.699 50.0333 343.472 49.54C343.245 49.0467 343.032 48.5867 342.832 48.16C342.632 47.72 342.459 47.3533 342.312 47.06C342.165 48.66 342.052 50.3133 341.972 52.02C341.905 53.7267 341.845 55.3867 341.792 57H339.312C339.365 55.8533 339.425 54.6667 339.492 53.44C339.572 52.2133 339.652 51 339.732 49.8C339.825 48.5867 339.925 47.4133 340.032 46.28C340.139 45.1467 340.252 44.1 340.372 43.14H342.712ZM356.468 51.82C356.468 50.9 356.601 50.0933 356.868 49.4C357.148 48.7067 357.514 48.1333 357.968 47.68C358.421 47.2133 358.941 46.8667 359.528 46.64C360.114 46.4 360.714 46.28 361.328 46.28C362.768 46.28 363.888 46.7267 364.688 47.62C365.501 48.5133 365.908 49.8467 365.908 51.62C365.908 51.7533 365.901 51.9067 365.888 52.08C365.888 52.24 365.881 52.3867 365.868 52.52H358.968C359.034 53.36 359.328 54.0133 359.848 54.48C360.381 54.9333 361.148 55.16 362.148 55.16C362.734 55.16 363.268 55.1067 363.748 55C364.241 54.8933 364.628 54.78 364.908 54.66L365.228 56.64C365.094 56.7067 364.908 56.78 364.668 56.86C364.441 56.9267 364.174 56.9867 363.868 57.04C363.574 57.1067 363.254 57.16 362.908 57.2C362.561 57.24 362.208 57.26 361.848 57.26C360.928 57.26 360.128 57.1267 359.448 56.86C358.768 56.58 358.208 56.2 357.768 55.72C357.328 55.2267 357.001 54.6533 356.788 54C356.574 53.3333 356.468 52.6067 356.468 51.82ZM363.488 50.74C363.488 50.4067 363.441 50.0933 363.348 49.8C363.254 49.4933 363.114 49.2333 362.928 49.02C362.754 48.7933 362.534 48.62 362.268 48.5C362.014 48.3667 361.708 48.3 361.348 48.3C360.974 48.3 360.648 48.3733 360.368 48.52C360.088 48.6533 359.848 48.8333 359.648 49.06C359.461 49.2867 359.314 49.5467 359.208 49.84C359.101 50.1333 359.028 50.4333 358.988 50.74H363.488ZM368.274 46.88C368.74 46.7467 369.347 46.62 370.094 46.5C370.84 46.38 371.667 46.32 372.574 46.32C373.427 46.32 374.14 46.44 374.714 46.68C375.287 46.9067 375.74 47.2333 376.074 47.66C376.42 48.0733 376.66 48.58 376.794 49.18C376.94 49.7667 377.014 50.4133 377.014 51.12V57H374.594V51.5C374.594 50.94 374.554 50.4667 374.474 50.08C374.407 49.68 374.287 49.36 374.114 49.12C373.954 48.8667 373.727 48.6867 373.434 48.58C373.154 48.46 372.807 48.4 372.394 48.4C372.087 48.4 371.767 48.42 371.434 48.46C371.1 48.5 370.854 48.5333 370.694 48.56V57H368.274V46.88ZM379.653 43.78L382.073 43.38V46.54H385.793V48.56H382.073V52.82C382.073 53.66 382.206 54.26 382.473 54.62C382.739 54.98 383.193 55.16 383.833 55.16C384.273 55.16 384.659 55.1133 384.993 55.02C385.339 54.9267 385.613 54.84 385.813 54.76L386.213 56.68C385.933 56.8 385.566 56.92 385.113 57.04C384.659 57.1733 384.126 57.24 383.513 57.24C382.766 57.24 382.139 57.14 381.633 56.94C381.139 56.74 380.746 56.4533 380.453 56.08C380.159 55.6933 379.953 55.2333 379.833 54.7C379.713 54.1533 379.653 53.5333 379.653 52.84V43.78ZM397.158 51.76C397.158 52.5867 397.038 53.34 396.798 54.02C396.558 54.7 396.218 55.28 395.778 55.76C395.338 56.24 394.804 56.6133 394.178 56.88C393.564 57.1467 392.884 57.28 392.138 57.28C391.391 57.28 390.711 57.1467 390.098 56.88C389.484 56.6133 388.958 56.24 388.518 55.76C388.078 55.28 387.731 54.7 387.478 54.02C387.238 53.34 387.118 52.5867 387.118 51.76C387.118 50.9333 387.238 50.1867 387.478 49.52C387.731 48.84 388.078 48.26 388.518 47.78C388.971 47.3 389.504 46.9333 390.118 46.68C390.731 46.4133 391.404 46.28 392.138 46.28C392.871 46.28 393.544 46.4133 394.158 46.68C394.784 46.9333 395.318 47.3 395.758 47.78C396.198 48.26 396.538 48.84 396.778 49.52C397.031 50.1867 397.158 50.9333 397.158 51.76ZM394.678 51.76C394.678 50.72 394.451 49.9 393.998 49.3C393.558 48.6867 392.938 48.38 392.138 48.38C391.338 48.38 390.711 48.6867 390.258 49.3C389.818 49.9 389.598 50.72 389.598 51.76C389.598 52.8133 389.818 53.6467 390.258 54.26C390.711 54.8733 391.338 55.18 392.138 55.18C392.938 55.18 393.558 54.8733 393.998 54.26C394.451 53.6467 394.678 52.8133 394.678 51.76ZM405.411 48.72C405.211 48.6533 404.931 48.5867 404.571 48.52C404.224 48.44 403.818 48.4 403.351 48.4C403.084 48.4 402.798 48.4267 402.491 48.48C402.198 48.5333 401.991 48.58 401.871 48.62V57H399.451V47.04C399.918 46.8667 400.498 46.7067 401.191 46.56C401.898 46.4 402.678 46.32 403.531 46.32C403.691 46.32 403.878 46.3333 404.091 46.36C404.304 46.3733 404.518 46.4 404.731 46.44C404.944 46.4667 405.151 46.5067 405.351 46.56C405.551 46.6 405.711 46.64 405.831 46.68L405.411 48.72Z" fill="#333333"/>
</g>
<rect x="1" y="0.5" width="445" height="99" rx="11.5" stroke="black" stroke-opacity="0.1"/>
<defs>
<filter id="filter0_f_40001346_6588" x="3.58198" y="-10.0508" width="147.727" height="148.844" filterUnits="userSpaceOnUse" color-interpolation-filters="sRGB">
<feFlood flood-opacity="0" result="BackgroundImageFix"/>
<feBlend mode="normal" in="SourceGraphic" in2="BackgroundImageFix" result="shape"/>
<feGaussianBlur stdDeviation="27.8731" result="effect1_foregroundBlur_40001346_6588"/>
</filter>
<filter id="filter1_b_40001346_6588" x="64.6245" y="40.1206" width="49.0557" height="43.0557" filterUnits="userSpaceOnUse" color-interpolation-filters="sRGB">
<feFlood flood-opacity="0" result="BackgroundImageFix"/>
<feGaussianBlur in="BackgroundImageFix" stdDeviation="0.836192"/>
<feComposite in2="SourceAlpha" operator="in" result="effect1_backgroundBlur_40001346_6588"/>
<feBlend mode="normal" in="SourceGraphic" in2="effect1_backgroundBlur_40001346_6588" result="shape"/>
</filter>
<linearGradient id="paint0_linear_40001346_6588" x1="65.2671" y1="60.7503" x2="65.2671" y2="76.869" gradientUnits="userSpaceOnUse">
<stop stop-color="#5AFA9A"/>
<stop offset="1" stop-color="#069E44"/>
</linearGradient>
<linearGradient id="paint1_linear_40001346_6588" x1="75.9126" y1="48.1995" x2="59.0439" y2="76.734" gradientUnits="userSpaceOnUse">
<stop stop-color="#5AFA9A"/>
<stop offset="1" stop-color="#1FD167"/>
</linearGradient>
<linearGradient id="paint2_linear_40001346_6588" x1="59.4628" y1="9.94443" x2="31.0999" y2="87.0248" gradientUnits="userSpaceOnUse">
<stop stop-color="#41FA8B"/>
<stop offset="1" stop-color="#069E44"/>
</linearGradient>
<linearGradient id="paint3_linear_40001346_6588" x1="62.831" y1="14.4285" x2="40.4362" y2="80.6902" gradientUnits="userSpaceOnUse">
<stop stop-color="#5AFA9A"/>
<stop offset="0.976725" stop-color="#1FD167"/>
</linearGradient>
<radialGradient id="paint4_radial_40001346_6588" cx="0" cy="0" r="1" gradientUnits="userSpaceOnUse" gradientTransform="translate(89.1528 60.4679) rotate(90) scale(18.675 22.8559)">
<stop stop-color="#FAFAFA" stop-opacity="0.4"/>
<stop offset="1" stop-color="#FAFAFA" stop-opacity="0.8"/>
</radialGradient>
<linearGradient id="paint5_linear_40001346_6588" x1="91.6644" y1="41.793" x2="91.6644" y2="79.1429" gradientUnits="userSpaceOnUse">
<stop stop-color="white" stop-opacity="0.8"/>
<stop offset="1" stop-color="white" stop-opacity="0.2"/>
</linearGradient>
<clipPath id="clip0_40001346_6588">
<rect x="0.5" width="446" height="100" rx="12" fill="white"/>
</clipPath>
<clipPath id="clip1_40001346_6588">
<rect width="138" height="134" fill="white" transform="translate(0.5 -17)"/>
</clipPath>
</defs>
</svg>
