<svg width="447" height="100" viewBox="0 0 447 100" fill="none" xmlns="http://www.w3.org/2000/svg">
<g clip-path="url(#clip0_40001346_6573)">
<rect x="0.5" width="446" height="100" rx="12" fill="#FCFCFC"/>
<g clip-path="url(#clip1_40001346_6573)">
<rect width="138" height="134" transform="translate(0.5 -17)" fill="#DED8FB"/>
<g filter="url(#filter0_f_40001346_6573)">
<ellipse cx="72.61" cy="67.6251" rx="20.2975" ry="20.922" fill="#8C76FB"/>
</g>
<path d="M86.4244 34.703C86.4295 33.6761 85.6012 32.8397 84.5744 32.8346L46.7815 32.6486C45.7547 32.6435 44.9182 33.4718 44.9132 34.4986L44.7464 68.3744C44.7414 69.4012 45.5697 70.2377 46.5965 70.2427L84.3893 70.4288C85.4161 70.4338 86.2526 69.6055 86.2577 68.5787L86.4244 34.703Z" fill="#FFCC75"/>
<path d="M48.8134 20.0596C48.8474 18.9221 49.7971 18.0276 50.9346 18.0616L75.7426 18.8039L82.0792 18.9935C83.2167 19.0275 84.1112 19.9772 84.0771 21.1147L82.6675 68.2272C82.6335 69.3647 81.6838 70.2592 80.5463 70.2252L49.4017 69.2933C48.2642 69.2593 47.3697 68.3096 47.4037 67.1721L48.8134 20.0596Z" fill="url(#paint0_linear_40001346_6573)"/>
<path d="M49.1566 20.0698C49.185 19.122 49.9764 18.3765 50.9243 18.4049L75.7324 19.1472L82.0689 19.3368C83.0168 19.3651 83.7622 20.1565 83.7339 21.1044L82.3242 68.217C82.2959 69.1649 81.5045 69.9103 80.5566 69.8819L49.412 68.9501C48.4641 68.9217 47.7186 68.1303 47.747 67.1824L49.1566 20.0698Z" stroke="#EEEBFF" stroke-opacity="0.5" stroke-width="0.686834"/>
<path d="M90.7392 69.5334L94.383 33.9394C94.4822 32.9703 93.7243 32.1268 92.7502 32.122L68.293 30.8223C67.4644 30.7783 66.6799 31.1977 66.2562 31.9112L63.161 37.124C62.899 37.5652 62.4282 37.8402 61.9153 37.8516L41.602 38.3052C40.5432 38.3288 39.7179 39.2309 39.7884 40.2877L41.7131 69.1366C41.7779 70.108 42.5811 70.8649 43.5546 70.872L88.8761 71.2032C89.8348 71.2102 90.6416 70.4871 90.7392 69.5334Z" fill="url(#paint1_linear_40001346_6573)"/>
<path d="M53.1211 23.5117L77.6899 24.2216" stroke="white" stroke-width="2.0605" stroke-linecap="round"/>
<path d="M53.1758 27.6562L63.0013 27.7851" stroke="white" stroke-width="2.0605" stroke-linecap="round"/>
<path d="M53.2305 31.7891L58.4034 31.9793" stroke="white" stroke-width="2.0605" stroke-linecap="round"/>
<g filter="url(#filter1_b_40001346_6573)">
<path d="M93.0624 40.377C91.9288 39.3159 90.353 38.7148 88.7046 38.7148C87.0563 38.7148 85.4805 39.3159 84.3468 40.377L70.8404 53.0192C68.5603 55.1533 68.663 58.5225 71.0698 60.5443C73.4765 62.5662 77.2759 62.4751 79.556 60.3409L82.7018 57.3965L82.7018 76.6414C82.7018 79.5812 85.3893 81.9644 88.7046 81.9644C92.0199 81.9644 94.7075 79.5812 94.7075 76.6414V57.3964L97.8533 60.3409C100.133 62.4751 103.933 62.5662 106.34 60.5443C108.746 58.5225 108.849 55.1533 106.569 53.0192L93.0624 40.377Z" fill="url(#paint2_radial_40001346_6573)"/>
<path d="M83.0921 57.3965V56.4965L82.435 57.1115L79.2892 60.056C77.1548 62.0538 73.5778 62.1415 71.3208 60.2454C69.0911 58.3723 69 55.2764 71.1071 53.3041L84.6136 40.662C85.6701 39.673 87.1487 39.1052 88.7046 39.1052C90.2606 39.1052 91.7391 39.673 92.7957 40.662L106.302 53.3041C108.409 55.2764 108.318 58.3723 106.088 60.2454C103.831 62.1415 100.254 62.0538 98.12 60.056L94.9742 57.1115L94.3171 56.4964V57.3964V76.6414C94.3171 79.3229 91.8498 81.5741 88.7046 81.5741C85.5595 81.5741 83.0921 79.3229 83.0921 76.6414L83.0921 57.3965Z" stroke="url(#paint3_linear_40001346_6573)" stroke-opacity="0.7" stroke-width="0.780672" stroke-linecap="round"/>
</g>
</g>
<path d="M173.5 57.3C172.553 57.3 171.74 57.1667 171.06 56.9C170.38 56.62 169.813 56.2333 169.36 55.74C168.92 55.2467 168.593 54.6667 168.38 54C168.167 53.3333 168.06 52.6 168.06 51.8V43.14H170.6V51.56C170.6 52.1867 170.667 52.7267 170.8 53.18C170.947 53.62 171.147 53.98 171.4 54.26C171.667 54.54 171.973 54.7467 172.32 54.88C172.68 55.0133 173.08 55.08 173.52 55.08C173.96 55.08 174.36 55.0133 174.72 54.88C175.08 54.7467 175.387 54.54 175.64 54.26C175.907 53.98 176.107 53.62 176.24 53.18C176.387 52.7267 176.46 52.1867 176.46 51.56V43.14H179V51.8C179 52.6 178.887 53.3333 178.66 54C178.447 54.6667 178.113 55.2467 177.66 55.74C177.22 56.2333 176.653 56.62 175.96 56.9C175.267 57.1667 174.447 57.3 173.5 57.3ZM188.843 51.82C188.843 50.74 188.596 49.9 188.103 49.3C187.623 48.7 186.843 48.4 185.763 48.4C185.536 48.4 185.296 48.4133 185.043 48.44C184.803 48.4533 184.563 48.4933 184.323 48.56V54.54C184.536 54.6867 184.816 54.8267 185.163 54.96C185.523 55.08 185.903 55.14 186.303 55.14C187.183 55.14 187.823 54.84 188.223 54.24C188.636 53.64 188.843 52.8333 188.843 51.82ZM191.323 51.78C191.323 52.58 191.216 53.3133 191.003 53.98C190.803 54.6467 190.509 55.22 190.123 55.7C189.736 56.18 189.249 56.5533 188.663 56.82C188.089 57.0867 187.436 57.22 186.703 57.22C186.209 57.22 185.756 57.16 185.343 57.04C184.929 56.92 184.589 56.7867 184.323 56.64V60.7H181.903V46.88C182.396 46.7467 183.003 46.62 183.723 46.5C184.443 46.38 185.203 46.32 186.003 46.32C186.829 46.32 187.569 46.4467 188.223 46.7C188.876 46.9533 189.429 47.32 189.883 47.8C190.349 48.2667 190.703 48.84 190.943 49.52C191.196 50.1867 191.323 50.94 191.323 51.78ZM197.257 57.2C196.537 57.1867 195.937 57.1067 195.457 56.96C194.99 56.8133 194.617 56.6067 194.337 56.34C194.057 56.06 193.857 55.72 193.737 55.32C193.63 54.9067 193.577 54.44 193.577 53.92V41.88L195.997 41.48V53.46C195.997 53.7533 196.017 54 196.057 54.2C196.11 54.4 196.197 54.5733 196.317 54.72C196.437 54.8533 196.597 54.96 196.797 55.04C197.01 55.1067 197.277 55.16 197.597 55.2L197.257 57.2ZM208.814 51.76C208.814 52.5867 208.694 53.34 208.454 54.02C208.214 54.7 207.874 55.28 207.434 55.76C206.994 56.24 206.461 56.6133 205.834 56.88C205.221 57.1467 204.541 57.28 203.794 57.28C203.047 57.28 202.367 57.1467 201.754 56.88C201.141 56.6133 200.614 56.24 200.174 55.76C199.734 55.28 199.387 54.7 199.134 54.02C198.894 53.34 198.774 52.5867 198.774 51.76C198.774 50.9333 198.894 50.1867 199.134 49.52C199.387 48.84 199.734 48.26 200.174 47.78C200.627 47.3 201.161 46.9333 201.774 46.68C202.387 46.4133 203.061 46.28 203.794 46.28C204.527 46.28 205.201 46.4133 205.814 46.68C206.441 46.9333 206.974 47.3 207.414 47.78C207.854 48.26 208.194 48.84 208.434 49.52C208.687 50.1867 208.814 50.9333 208.814 51.76ZM206.334 51.76C206.334 50.72 206.107 49.9 205.654 49.3C205.214 48.6867 204.594 48.38 203.794 48.38C202.994 48.38 202.367 48.6867 201.914 49.3C201.474 49.9 201.254 50.72 201.254 51.76C201.254 52.8133 201.474 53.6467 201.914 54.26C202.367 54.8733 202.994 55.18 203.794 55.18C204.594 55.18 205.214 54.8733 205.654 54.26C206.107 53.6467 206.334 52.8133 206.334 51.76ZM214.787 55.3C215.534 55.3 216.101 55.26 216.487 55.18V52.5C216.354 52.46 216.161 52.42 215.907 52.38C215.654 52.34 215.374 52.32 215.067 52.32C214.801 52.32 214.527 52.34 214.247 52.38C213.981 52.42 213.734 52.4933 213.507 52.6C213.294 52.7067 213.121 52.86 212.987 53.06C212.854 53.2467 212.787 53.4867 212.787 53.78C212.787 54.3533 212.967 54.7533 213.327 54.98C213.687 55.1933 214.174 55.3 214.787 55.3ZM214.587 46.28C215.387 46.28 216.061 46.38 216.607 46.58C217.154 46.78 217.587 47.06 217.907 47.42C218.241 47.78 218.474 48.22 218.607 48.74C218.754 49.2467 218.827 49.8067 218.827 50.42V56.76C218.454 56.84 217.887 56.9333 217.127 57.04C216.381 57.16 215.534 57.22 214.587 57.22C213.961 57.22 213.387 57.16 212.867 57.04C212.347 56.92 211.901 56.7267 211.527 56.46C211.167 56.1933 210.881 55.8467 210.667 55.42C210.467 54.9933 210.367 54.4667 210.367 53.84C210.367 53.24 210.481 52.7333 210.707 52.32C210.947 51.9067 211.267 51.5733 211.667 51.32C212.067 51.0533 212.527 50.8667 213.047 50.76C213.581 50.64 214.134 50.58 214.707 50.58C214.974 50.58 215.254 50.6 215.547 50.64C215.841 50.6667 216.154 50.72 216.487 50.8V50.4C216.487 50.12 216.454 49.8533 216.387 49.6C216.321 49.3467 216.201 49.1267 216.027 48.94C215.867 48.74 215.647 48.5867 215.367 48.48C215.101 48.3733 214.761 48.32 214.347 48.32C213.787 48.32 213.274 48.36 212.807 48.44C212.341 48.52 211.961 48.6133 211.667 48.72L211.367 46.76C211.674 46.6533 212.121 46.5467 212.707 46.44C213.294 46.3333 213.921 46.28 214.587 46.28ZM223.491 51.74C223.491 52.8067 223.744 53.6467 224.251 54.26C224.757 54.86 225.457 55.16 226.351 55.16C226.737 55.16 227.064 55.1467 227.331 55.12C227.611 55.08 227.837 55.04 228.011 55V49C227.797 48.8533 227.511 48.72 227.151 48.6C226.804 48.4667 226.431 48.4 226.031 48.4C225.151 48.4 224.504 48.7 224.091 49.3C223.691 49.9 223.491 50.7133 223.491 51.74ZM230.431 56.68C229.951 56.8267 229.344 56.96 228.611 57.08C227.891 57.2 227.131 57.26 226.331 57.26C225.504 57.26 224.764 57.1333 224.111 56.88C223.457 56.6267 222.897 56.2667 222.431 55.8C221.977 55.32 221.624 54.7467 221.371 54.08C221.131 53.4 221.011 52.64 221.011 51.8C221.011 50.9733 221.111 50.2267 221.311 49.56C221.524 48.88 221.831 48.3 222.231 47.82C222.631 47.34 223.117 46.9733 223.691 46.72C224.264 46.4533 224.924 46.32 225.671 46.32C226.177 46.32 226.624 46.38 227.011 46.5C227.397 46.62 227.731 46.7533 228.011 46.9V41.88L230.431 41.48V56.68ZM242.553 49.28C243.153 48.28 243.739 47.2667 244.313 46.24C244.886 45.2133 245.406 44.18 245.873 43.14H248.673C247.926 44.5533 247.146 45.96 246.333 47.36C245.533 48.7467 244.673 50.1467 243.753 51.56V57H241.233V51.6C240.313 50.1733 239.446 48.76 238.633 47.36C237.819 45.96 237.039 44.5533 236.293 43.14H239.253C239.719 44.18 240.233 45.2133 240.793 46.24C241.353 47.2667 241.939 48.28 242.553 49.28ZM258.517 51.76C258.517 52.5867 258.397 53.34 258.157 54.02C257.917 54.7 257.577 55.28 257.137 55.76C256.697 56.24 256.164 56.6133 255.537 56.88C254.924 57.1467 254.244 57.28 253.497 57.28C252.751 57.28 252.071 57.1467 251.457 56.88C250.844 56.6133 250.317 56.24 249.877 55.76C249.437 55.28 249.091 54.7 248.837 54.02C248.597 53.34 248.477 52.5867 248.477 51.76C248.477 50.9333 248.597 50.1867 248.837 49.52C249.091 48.84 249.437 48.26 249.877 47.78C250.331 47.3 250.864 46.9333 251.477 46.68C252.091 46.4133 252.764 46.28 253.497 46.28C254.231 46.28 254.904 46.4133 255.517 46.68C256.144 46.9333 256.677 47.3 257.117 47.78C257.557 48.26 257.897 48.84 258.137 49.52C258.391 50.1867 258.517 50.9333 258.517 51.76ZM256.037 51.76C256.037 50.72 255.811 49.9 255.357 49.3C254.917 48.6867 254.297 48.38 253.497 48.38C252.697 48.38 252.071 48.6867 251.617 49.3C251.177 49.9 250.957 50.72 250.957 51.76C250.957 52.8133 251.177 53.6467 251.617 54.26C252.071 54.8733 252.697 55.18 253.497 55.18C254.297 55.18 254.917 54.8733 255.357 54.26C255.811 53.6467 256.037 52.8133 256.037 51.76ZM269.39 56.68C268.924 56.8 268.317 56.92 267.57 57.04C266.824 57.1733 266.004 57.24 265.11 57.24C264.27 57.24 263.564 57.12 262.99 56.88C262.43 56.64 261.977 56.3067 261.63 55.88C261.297 55.4533 261.057 54.9467 260.91 54.36C260.764 53.76 260.69 53.1067 260.69 52.4V46.54H263.11V52.02C263.11 53.14 263.27 53.94 263.59 54.42C263.924 54.9 264.497 55.14 265.31 55.14C265.604 55.14 265.91 55.1267 266.23 55.1C266.564 55.0733 266.81 55.04 266.97 55V46.54H269.39V56.68ZM278.23 48.72C278.03 48.6533 277.75 48.5867 277.39 48.52C277.044 48.44 276.637 48.4 276.17 48.4C275.904 48.4 275.617 48.4267 275.31 48.48C275.017 48.5333 274.81 48.58 274.69 48.62V57H272.27V47.04C272.737 46.8667 273.317 46.7067 274.01 46.56C274.717 46.4 275.497 46.32 276.35 46.32C276.51 46.32 276.697 46.3333 276.91 46.36C277.124 46.3733 277.337 46.4 277.55 46.44C277.764 46.4667 277.97 46.5067 278.17 46.56C278.37 46.6 278.53 46.64 278.65 46.68L278.23 48.72ZM288.645 43C290.658 43 292.198 43.3667 293.265 44.1C294.345 44.8333 294.885 45.98 294.885 47.54C294.885 48.3533 294.738 49.0533 294.445 49.64C294.165 50.2133 293.752 50.6867 293.205 51.06C292.658 51.42 291.992 51.6867 291.205 51.86C290.418 52.0333 289.518 52.12 288.505 52.12H287.245V57H284.725V43.34C285.312 43.2067 285.958 43.12 286.665 43.08C287.385 43.0267 288.045 43 288.645 43ZM288.825 45.18C288.185 45.18 287.658 45.2 287.245 45.24V49.96H288.465C289.678 49.96 290.612 49.7933 291.265 49.46C291.918 49.1133 292.245 48.4667 292.245 47.52C292.245 47.0667 292.158 46.6867 291.985 46.38C291.812 46.0733 291.572 45.8333 291.265 45.66C290.958 45.4867 290.592 45.3667 290.165 45.3C289.752 45.22 289.305 45.18 288.825 45.18ZM302.826 48.72C302.626 48.6533 302.346 48.5867 301.986 48.52C301.639 48.44 301.232 48.4 300.766 48.4C300.499 48.4 300.212 48.4267 299.906 48.48C299.612 48.5333 299.406 48.58 299.286 48.62V57H296.866V47.04C297.332 46.8667 297.912 46.7067 298.606 46.56C299.312 46.4 300.092 46.32 300.946 46.32C301.106 46.32 301.292 46.3333 301.506 46.36C301.719 46.3733 301.932 46.4 302.146 46.44C302.359 46.4667 302.566 46.5067 302.766 46.56C302.966 46.6 303.126 46.64 303.246 46.68L302.826 48.72ZM314.192 51.76C314.192 52.5867 314.072 53.34 313.832 54.02C313.592 54.7 313.252 55.28 312.812 55.76C312.372 56.24 311.839 56.6133 311.212 56.88C310.599 57.1467 309.919 57.28 309.172 57.28C308.426 57.28 307.746 57.1467 307.132 56.88C306.519 56.6133 305.992 56.24 305.552 55.76C305.112 55.28 304.766 54.7 304.512 54.02C304.272 53.34 304.152 52.5867 304.152 51.76C304.152 50.9333 304.272 50.1867 304.512 49.52C304.766 48.84 305.112 48.26 305.552 47.78C306.006 47.3 306.539 46.9333 307.152 46.68C307.766 46.4133 308.439 46.28 309.172 46.28C309.906 46.28 310.579 46.4133 311.192 46.68C311.819 46.9333 312.352 47.3 312.792 47.78C313.232 48.26 313.572 48.84 313.812 49.52C314.066 50.1867 314.192 50.9333 314.192 51.76ZM311.712 51.76C311.712 50.72 311.486 49.9 311.032 49.3C310.592 48.6867 309.972 48.38 309.172 48.38C308.372 48.38 307.746 48.6867 307.292 49.3C306.852 49.9 306.632 50.72 306.632 51.76C306.632 52.8133 306.852 53.6467 307.292 54.26C307.746 54.8733 308.372 55.18 309.172 55.18C309.972 55.18 310.592 54.8733 311.032 54.26C311.486 53.6467 311.712 52.8133 311.712 51.76ZM315.145 60.72C314.972 60.72 314.732 60.7 314.425 60.66C314.105 60.6333 313.825 60.5733 313.585 60.48L313.905 58.5C314.199 58.5933 314.552 58.64 314.965 58.64C315.525 58.64 315.919 58.4733 316.145 58.14C316.372 57.82 316.485 57.3333 316.485 56.68V46.54H318.905V56.72C318.905 58.08 318.579 59.0867 317.925 59.74C317.285 60.3933 316.359 60.72 315.145 60.72ZM319.165 43.48C319.165 43.9333 319.019 44.2933 318.725 44.56C318.432 44.8267 318.085 44.96 317.685 44.96C317.272 44.96 316.919 44.8267 316.625 44.56C316.332 44.2933 316.185 43.9333 316.185 43.48C316.185 43.0133 316.332 42.6467 316.625 42.38C316.919 42.1133 317.272 41.98 317.685 41.98C318.085 41.98 318.432 42.1133 318.725 42.38C319.019 42.6467 319.165 43.0133 319.165 43.48ZM321.213 51.82C321.213 50.9 321.346 50.0933 321.613 49.4C321.893 48.7067 322.26 48.1333 322.713 47.68C323.166 47.2133 323.686 46.8667 324.273 46.64C324.86 46.4 325.46 46.28 326.073 46.28C327.513 46.28 328.633 46.7267 329.433 47.62C330.246 48.5133 330.653 49.8467 330.653 51.62C330.653 51.7533 330.646 51.9067 330.633 52.08C330.633 52.24 330.626 52.3867 330.613 52.52H323.713C323.78 53.36 324.073 54.0133 324.593 54.48C325.126 54.9333 325.893 55.16 326.893 55.16C327.48 55.16 328.013 55.1067 328.493 55C328.986 54.8933 329.373 54.78 329.653 54.66L329.973 56.64C329.84 56.7067 329.653 56.78 329.413 56.86C329.186 56.9267 328.92 56.9867 328.613 57.04C328.32 57.1067 328 57.16 327.653 57.2C327.306 57.24 326.953 57.26 326.593 57.26C325.673 57.26 324.873 57.1267 324.193 56.86C323.513 56.58 322.953 56.2 322.513 55.72C322.073 55.2267 321.746 54.6533 321.533 54C321.32 53.3333 321.213 52.6067 321.213 51.82ZM328.233 50.74C328.233 50.4067 328.186 50.0933 328.093 49.8C328 49.4933 327.86 49.2333 327.673 49.02C327.5 48.7933 327.28 48.62 327.013 48.5C326.76 48.3667 326.453 48.3 326.093 48.3C325.72 48.3 325.393 48.3733 325.113 48.52C324.833 48.6533 324.593 48.8333 324.393 49.06C324.206 49.2867 324.06 49.5467 323.953 49.84C323.846 50.1333 323.773 50.4333 323.733 50.74H328.233ZM332.439 51.78C332.439 51.0067 332.559 50.2867 332.799 49.62C333.039 48.94 333.379 48.3533 333.819 47.86C334.272 47.3667 334.819 46.98 335.459 46.7C336.099 46.42 336.819 46.28 337.619 46.28C338.606 46.28 339.539 46.46 340.419 46.82L339.899 48.8C339.619 48.68 339.299 48.58 338.939 48.5C338.592 48.42 338.219 48.38 337.819 48.38C336.872 48.38 336.152 48.68 335.659 49.28C335.166 49.8667 334.919 50.7 334.919 51.78C334.919 52.82 335.152 53.6467 335.619 54.26C336.086 54.86 336.872 55.16 337.979 55.16C338.392 55.16 338.799 55.12 339.199 55.04C339.599 54.96 339.946 54.86 340.239 54.74L340.579 56.74C340.312 56.8733 339.906 56.9933 339.359 57.1C338.826 57.2067 338.272 57.26 337.699 57.26C336.806 57.26 336.026 57.1267 335.359 56.86C334.706 56.58 334.159 56.2 333.719 55.72C333.292 55.2267 332.972 54.6467 332.759 53.98C332.546 53.3 332.439 52.5667 332.439 51.78ZM342.132 43.78L344.552 43.38V46.54H348.272V48.56H344.552V52.82C344.552 53.66 344.686 54.26 344.952 54.62C345.219 54.98 345.672 55.16 346.312 55.16C346.752 55.16 347.139 55.1133 347.472 55.02C347.819 54.9267 348.092 54.84 348.292 54.76L348.692 56.68C348.412 56.8 348.046 56.92 347.592 57.04C347.139 57.1733 346.606 57.24 345.992 57.24C345.246 57.24 344.619 57.14 344.112 56.94C343.619 56.74 343.226 56.4533 342.932 56.08C342.639 55.6933 342.432 55.2333 342.312 54.7C342.192 54.1533 342.132 53.5333 342.132 52.84V43.78Z" fill="#333333"/>
</g>
<rect x="1" y="0.5" width="445" height="99" rx="11.5" stroke="black" stroke-opacity="0.1"/>
<defs>
<filter id="filter0_f_40001346_6573" x="-10.1413" y="-15.7507" width="165.501" height="166.751" filterUnits="userSpaceOnUse" color-interpolation-filters="sRGB">
<feFlood flood-opacity="0" result="BackgroundImageFix"/>
<feBlend mode="normal" in="SourceGraphic" in2="BackgroundImageFix" result="shape"/>
<feGaussianBlur stdDeviation="31.2269" result="effect1_foregroundBlur_40001346_6573"/>
</filter>
<filter id="filter1_b_40001346_6573" x="66.6972" y="36.2167" width="44.0158" height="48.2463" filterUnits="userSpaceOnUse" color-interpolation-filters="sRGB">
<feFlood flood-opacity="0" result="BackgroundImageFix"/>
<feGaussianBlur in="BackgroundImageFix" stdDeviation="1.24908"/>
<feComposite in2="SourceAlpha" operator="in" result="effect1_backgroundBlur_40001346_6573"/>
<feBlend mode="normal" in="SourceGraphic" in2="effect1_backgroundBlur_40001346_6573" result="shape"/>
</filter>
<linearGradient id="paint0_linear_40001346_6573" x1="66.7624" y1="-0.708102" x2="64.7309" y2="60.8465" gradientUnits="userSpaceOnUse">
<stop offset="0.207698" stop-color="#D3CBFB"/>
<stop offset="1" stop-color="#8C76FB"/>
</linearGradient>
<linearGradient id="paint1_linear_40001346_6573" x1="66.6825" y1="12.9927" x2="65.5691" y2="71.0967" gradientUnits="userSpaceOnUse">
<stop stop-color="#FFF0D6"/>
<stop offset="0.719716" stop-color="#FECA70"/>
</linearGradient>
<radialGradient id="paint2_radial_40001346_6573" cx="0" cy="0" r="1" gradientUnits="userSpaceOnUse" gradientTransform="translate(88.8541 53.8948) rotate(71.3581) scale(32.0506 27.5315)">
<stop stop-color="#FAFAFA" stop-opacity="0.8"/>
<stop offset="1" stop-color="#FAFAFA" stop-opacity="0.4"/>
</radialGradient>
<linearGradient id="paint3_linear_40001346_6573" x1="80.5757" y1="42.6794" x2="93.0394" y2="80.7772" gradientUnits="userSpaceOnUse">
<stop stop-color="white" stop-opacity="0.8"/>
<stop offset="1" stop-color="white" stop-opacity="0.2"/>
</linearGradient>
<clipPath id="clip0_40001346_6573">
<rect x="0.5" width="446" height="100" rx="12" fill="white"/>
</clipPath>
<clipPath id="clip1_40001346_6573">
<rect width="138" height="134" fill="white" transform="translate(0.5 -17)"/>
</clipPath>
</defs>
</svg>
