<svg xmlns="http://www.w3.org/2000/svg" width="22" height="17" viewBox="0 0 22 17" fill="none">
	<path d="M0 14.1081C0 13.544 0.143407 13.0405 0.43022 12.5977C0.717034 12.1549 1.10008 11.8104 1.57936 11.5643C2.60406 11.0554 3.63441 10.663 4.67042 10.3872C5.70662 10.1115 6.84534 9.97362 8.08658 9.97362C9.328 9.97362 10.4667 10.1115 11.5027 10.3872C12.5389 10.663 13.5694 11.0554 14.5941 11.5643C15.0733 11.8104 15.4564 12.1549 15.7432 12.5977C16.03 13.0405 16.1734 13.544 16.1734 14.1081V14.8788C16.1734 15.3195 16.0141 15.7068 15.6955 16.0409C15.3769 16.375 14.9901 16.542 14.5353 16.542H1.63786C1.1832 16.542 0.796555 16.3802 0.477933 16.0568C0.159311 15.7331 0 15.3404 0 14.8788V14.1081ZM20.3621 16.542H17.9132C18.0487 16.2908 18.152 16.0234 18.2232 15.7398C18.2943 15.4563 18.3299 15.1693 18.3299 14.8788V13.9735C18.3299 13.255 18.1567 12.5701 17.8102 11.919C17.4635 11.268 16.9719 10.7094 16.3352 10.2432C17.0581 10.3527 17.7445 10.5221 18.3943 10.7514C19.044 10.981 19.664 11.2522 20.2543 11.5651C20.8114 11.8669 21.2416 12.2226 21.545 12.6322C21.8483 13.0416 22 13.4887 22 13.9735V14.8788C22 15.3404 21.8407 15.7331 21.5221 16.0568C21.2034 16.3802 20.8168 16.542 20.3621 16.542ZM8.08658 8.20509C7.04877 8.20509 6.16038 7.82996 5.42142 7.07971C4.68246 6.32927 4.31299 5.42722 4.31299 4.37354C4.31299 3.31986 4.68246 2.4179 5.42142 1.66765C6.16038 0.91721 7.04877 0.541992 8.08658 0.541992C9.12439 0.541992 10.0129 0.91721 10.752 1.66765C11.491 2.4179 11.8604 3.31986 11.8604 4.37354C11.8604 5.42722 11.491 6.32927 10.752 7.07971C10.0129 7.82996 9.12439 8.20509 8.08658 8.20509ZM17.3967 4.37354C17.3967 5.42722 17.0272 6.32927 16.2883 7.07971C15.5493 7.82996 14.6609 8.20509 13.6231 8.20509C13.5014 8.20509 13.3466 8.19104 13.1587 8.16294C12.9705 8.13484 12.8157 8.10401 12.6942 8.07044C13.1194 7.55135 13.4462 6.97553 13.6746 6.34296C13.9028 5.71039 14.0169 5.05355 14.0169 4.37245C14.0169 3.69116 13.9005 3.03679 13.6676 2.40932C13.4347 1.78204 13.1102 1.20458 12.6942 0.676917C12.8489 0.620721 13.0037 0.58423 13.1587 0.567444C13.3134 0.550476 13.4682 0.541992 13.6231 0.541992C14.6609 0.541992 15.5493 0.91721 16.2883 1.66765C17.0272 2.4179 17.3967 3.31986 17.3967 4.37354ZM1.6171 14.8999H14.5561V14.1081C14.5561 13.8795 14.4997 13.6761 14.387 13.4978C14.2745 13.3196 14.0959 13.1638 13.8512 13.0304C12.9638 12.5658 12.05 12.2139 11.11 11.9745C10.1699 11.7353 9.16213 11.6157 8.08658 11.6157C7.01121 11.6157 6.0035 11.7353 5.06344 11.9745C4.12339 12.2139 3.20967 12.5658 2.32227 13.0304C2.07751 13.1638 1.89879 13.3196 1.78612 13.4978C1.67344 13.6761 1.6171 13.8795 1.6171 14.1081V14.8999ZM8.08658 6.563C8.67961 6.563 9.18729 6.34861 9.6096 5.91984C10.0319 5.49108 10.2431 4.97564 10.2431 4.37354C10.2431 3.77144 10.0319 3.25601 9.6096 2.82724C9.18729 2.39847 8.67961 2.18408 8.08658 2.18408C7.49354 2.18408 6.98587 2.39847 6.56356 2.82724C6.14124 3.25601 5.93009 3.77144 5.93009 4.37354C5.93009 4.97564 6.14124 5.49108 6.56356 5.91984C6.98587 6.34861 7.49354 6.563 8.08658 6.563Z" fill="#68696B" />
</svg>
