<svg width="16" height="17" viewBox="0 0 16 17" fill="none" xmlns="http://www.w3.org/2000/svg">
<path id="space_dashboard" d="M1.70141 16.6914C1.22596 16.6914 0.823529 16.5267 0.494118 16.1973C0.164706 15.8679 0 15.4654 0 14.99V2.39282C0 1.91737 0.164706 1.51494 0.494118 1.18552C0.823529 0.856112 1.22596 0.691406 1.70141 0.691406H14.2986C14.774 0.691406 15.1765 0.856112 15.5059 1.18552C15.8353 1.51494 16 1.91737 16 2.39282V14.99C16 15.4654 15.8353 15.8679 15.5059 16.1973C15.1765 16.5267 14.774 16.6914 14.2986 16.6914H1.70141ZM1.70141 15.2796H7.29412V2.10317H1.70141C1.62894 2.10317 1.56259 2.13337 1.50235 2.19376C1.44196 2.25399 1.41176 2.32035 1.41176 2.39282V14.99C1.41176 15.0625 1.44196 15.1288 1.50235 15.1891C1.56259 15.2494 1.62894 15.2796 1.70141 15.2796ZM8.70588 15.2796H14.2986C14.3711 15.2796 14.4374 15.2494 14.4976 15.1891C14.558 15.1288 14.5882 15.0625 14.5882 14.99V8.69141H8.70588V15.2796ZM8.70588 7.27964H14.5882V2.39282C14.5882 2.32035 14.558 2.25399 14.4976 2.19376C14.4374 2.13337 14.3711 2.10317 14.2986 2.10317H8.70588V7.27964Z" fill="#10B754"/>
</svg>
