<svg width="16" height="17" viewBox="0 0 16 17" fill="none" xmlns="http://www.w3.org/2000/svg">
<path id="duo" d="M8.00147 16.6914C6.89495 16.6914 5.85488 16.4814 4.88126 16.0615C3.90765 15.6416 3.06077 15.0717 2.34063 14.3518C1.62049 13.632 1.05032 12.7854 0.630105 11.8122C0.210035 10.8391 0 9.79927 0 8.69288C0 7.58635 0.210035 6.54628 0.630105 5.57267C1.05003 4.59906 1.62 3.75218 2.34 3.03204C3.06 2.3119 3.90667 1.74172 4.88 1.32151C5.85333 0.901441 6.89333 0.691406 8 0.691406H14.4777C14.9031 0.691406 15.2632 0.838775 15.5579 1.13351C15.8526 1.42825 16 1.78832 16 2.21372V8.69141C16 9.79807 15.79 10.8381 15.3701 11.8114C14.9502 12.7847 14.3803 13.6314 13.6604 14.3514C12.9406 15.0714 12.094 15.6414 11.1208 16.0613C10.1476 16.4814 9.10786 16.6914 8.00147 16.6914ZM8 15.4282C9.8807 15.4282 11.4737 14.7756 12.7789 13.4704C14.0842 12.1651 14.7368 10.5721 14.7368 8.69141V2.21372C14.7368 2.13807 14.7126 2.07597 14.664 2.02741C14.6154 1.97885 14.5533 1.95456 14.4777 1.95456H8C6.1193 1.95456 4.52632 2.6072 3.22105 3.91246C1.91579 5.21772 1.26316 6.8107 1.26316 8.69141C1.26316 10.5721 1.91579 12.1651 3.22105 13.4704C4.52632 14.7756 6.1193 15.4282 8 15.4282ZM4.11347 9.94235C4.11347 10.4946 4.56119 10.9424 5.11347 10.9424H9.58695V9.25814L11.3359 10.4241C11.6682 10.6456 12.1133 10.4074 12.1133 10.0081V7.24503C12.1133 6.84569 11.6682 6.60749 11.3359 6.82901L9.58695 7.99498V6.31077H5.11347C4.56119 6.31077 4.11347 6.75849 4.11347 7.31077V9.94235Z" fill="#68696B"/>
</svg>
