<svg width="18" height="17" viewBox="0 0 18 17" fill="none" xmlns="http://www.w3.org/2000/svg">
<path id="work" d="M1.74742 16.9414C1.27112 16.9414 0.867969 16.7764 0.537969 16.4464C0.207969 16.1164 0.0429688 15.7133 0.0429688 15.237V5.44586C0.0429688 4.96956 0.207969 4.56641 0.537969 4.23641C0.867969 3.90641 1.27112 3.74141 1.74742 3.74141H5.70011V2.14586C5.70011 1.66956 5.86511 1.26641 6.19511 0.936406C6.52511 0.606406 6.92826 0.441406 7.40456 0.441406H10.5957C11.072 0.441406 11.4751 0.606406 11.8051 0.936406C12.1351 1.26641 12.3001 1.66956 12.3001 2.14586V3.74141H16.2528C16.7291 3.74141 17.1323 3.90641 17.4623 4.23641C17.7923 4.56641 17.9573 4.96956 17.9573 5.44586V15.237C17.9573 15.7133 17.7923 16.1164 17.4623 16.4464C17.1323 16.7764 16.7291 16.9414 16.2528 16.9414H1.74742ZM1.74742 15.5271H16.2528C16.3254 15.5271 16.3919 15.4969 16.4522 15.4364C16.5127 15.376 16.543 15.3096 16.543 15.237V5.44586C16.543 5.37326 16.5127 5.30678 16.4522 5.24644C16.3919 5.18594 16.3254 5.15569 16.2528 5.15569H1.74742C1.67482 5.15569 1.60835 5.18594 1.548 5.24644C1.4875 5.30678 1.45725 5.37326 1.45725 5.44586V15.237C1.45725 15.3096 1.4875 15.376 1.548 15.4364C1.60835 15.4969 1.67482 15.5271 1.74742 15.5271ZM7.1144 3.74141H10.8858V2.14586C10.8858 2.07326 10.8556 2.00678 10.7951 1.94644C10.7347 1.88594 10.6683 1.85569 10.5957 1.85569H7.40456C7.33196 1.85569 7.26549 1.88594 7.20515 1.94644C7.14465 2.00678 7.1144 2.07326 7.1144 2.14586V3.74141Z" fill="#68696B"/>
</svg>
