<svg width="24" height="24" viewBox="0 0 24 24" fill="none" xmlns="http://www.w3.org/2000/svg">
<g id="left_panel_close">
<mask id="mask0_40000782_4751" style="mask-type:alpha" maskUnits="userSpaceOnUse" x="0" y="0" width="24" height="24">
<rect id="Bounding box" width="24" height="24" fill="#D9D9D9"/>
</mask>
<g mask="url(#mask0_40000782_4751)">
<path id="left_panel_close_2" d="M16.048 14.502V9.498C16.048 9.29033 15.956 9.14808 15.772 9.07125C15.588 8.99425 15.4223 9.0295 15.275 9.177L13.0845 11.3672C12.9038 11.5481 12.8135 11.759 12.8135 12C12.8135 12.241 12.9038 12.4519 13.0845 12.6328L15.275 14.823C15.4223 14.9705 15.588 15.0058 15.772 14.9288C15.956 14.8519 16.048 14.7097 16.048 14.502ZM5.30775 20.5C4.80908 20.5 4.38308 20.3234 4.02975 19.9703C3.67658 19.6169 3.5 19.1909 3.5 18.6923V5.30775C3.5 4.80908 3.67658 4.38308 4.02975 4.02975C4.38308 3.67658 4.80908 3.5 5.30775 3.5H18.6923C19.1909 3.5 19.6169 3.67658 19.9703 4.02975C20.3234 4.38308 20.5 4.80908 20.5 5.30775V18.6923C20.5 19.1909 20.3234 19.6169 19.9703 19.9703C19.6169 20.3234 19.1909 20.5 18.6923 20.5H5.30775ZM8 19V5H5.30775C5.23075 5 5.16025 5.03208 5.09625 5.09625C5.03208 5.16025 5 5.23075 5 5.30775V18.6923C5 18.7693 5.03208 18.8398 5.09625 18.9038C5.16025 18.9679 5.23075 19 5.30775 19H8ZM9.5 19H18.6923C18.7693 19 18.8398 18.9679 18.9038 18.9038C18.9679 18.8398 19 18.7693 19 18.6923V5.30775C19 5.23075 18.9679 5.16025 18.9038 5.09625C18.8398 5.03208 18.7693 5 18.6923 5H9.5V19Z" fill="#909091"/>
</g>
</g>
</svg>
