<svg width="24" height="24" viewBox="0 0 24 24" fill="none" xmlns="http://www.w3.org/2000/svg">
<g id="left_panel_open">
<mask id="mask0_40000782_4793" style="mask-type:alpha" maskUnits="userSpaceOnUse" x="0" y="0" width="24" height="24">
<rect id="Bounding box" width="24" height="24" fill="#D9D9D9"/>
</mask>
<g mask="url(#mask0_40000782_4793)">
<path id="left_panel_open_2" d="M12.952 9.74945V14.5461C12.952 14.7452 13.044 14.8815 13.228 14.9552C13.4118 15.029 13.5775 14.9952 13.725 14.8538L15.9152 12.7543C16.0961 12.581 16.1865 12.3788 16.1865 12.1478C16.1865 11.9168 16.0961 11.7146 15.9152 11.5412L13.725 9.44176C13.5775 9.30037 13.4118 9.26658 13.228 9.34039C13.044 9.41404 12.952 9.55039 12.952 9.74945ZM5.80775 20.2956C5.30908 20.2956 4.88308 20.1263 4.52975 19.7878C4.17658 19.4491 4 19.0407 4 18.5627V5.73284C4 5.25484 4.17658 4.84649 4.52975 4.5078C4.88308 4.16927 5.30908 4 5.80775 4H19.1923C19.6909 4 20.1169 4.16927 20.4703 4.5078C20.8234 4.84649 21 5.25484 21 5.73284V18.5627C21 19.0407 20.8234 19.4491 20.4703 19.7878C20.1169 20.1263 19.6909 20.2956 19.1923 20.2956H5.80775ZM8.5 18.8577V5.43784H5.80775C5.73075 5.43784 5.66025 5.4686 5.59625 5.5301C5.53208 5.59145 5.5 5.65903 5.5 5.73284V18.5627C5.5 18.6365 5.53208 18.7041 5.59625 18.7654C5.66025 18.827 5.73075 18.8577 5.80775 18.8577H8.5ZM10 18.8577H19.1923C19.2692 18.8577 19.3398 18.827 19.4038 18.7654C19.4679 18.7041 19.5 18.6365 19.5 18.5627V5.73284C19.5 5.65903 19.4679 5.59145 19.4038 5.5301C19.3398 5.4686 19.2692 5.43784 19.1923 5.43784H10V18.8577Z" fill="#909091"/>
</g>
</g>
</svg>
