<svg width="33" height="30" viewBox="0 0 33 30" fill="none" xmlns="http://www.w3.org/2000/svg">
<g id="Group 1">
<g id="Group 749">
<path id="Subtract" fill-rule="evenodd" clip-rule="evenodd" d="M21.7128 12.7012C23.1336 11.3482 24.2849 9.64497 24.3571 7.6142C24.6479 -0.565162 14.3859 -2.59703 10.4388 3.69174C8.41657 6.91376 7.2967 11.6959 7.22395 16.1325C5.15761 16.8389 3.12871 17.4422 1.34624 17.9283C0.373135 18.1937 -0.200582 19.1977 0.0648107 20.1708C0.330204 21.1439 1.33421 21.7176 2.30732 21.4522C3.86847 21.0264 5.62143 20.5114 7.43432 19.9146C7.67144 21.6719 8.11595 23.3462 8.81947 24.7801C9.85318 26.8869 11.5512 28.6504 14.081 29.0885C16.5303 29.5127 19.2738 28.6019 22.2401 26.5422C24.1626 25.2072 26.2739 23.3256 28.5905 20.8187C27.6015 20.075 26.5625 19.3995 25.4806 18.7971C23.4774 20.9189 21.7064 22.4659 20.1568 23.5419C17.5535 25.3495 15.7973 25.6787 14.7043 25.4895C13.6919 25.3141 12.805 24.6107 12.0987 23.1712C11.5195 21.9908 11.1343 20.438 10.9673 18.6654C15.0259 17.121 19.1686 15.1241 21.7128 12.7012ZM19.1939 10.0561C17.4058 11.7589 14.3718 13.36 10.9403 14.7516C11.1663 11.6484 12.0347 4.5044 15.9656 3.58023C18.1949 3.0561 20.7891 5.16899 20.7067 7.48439C20.6829 8.15577 20.2866 9.01544 19.1939 10.0561Z" fill="#001630"/>
<path id="Polygon 19" d="M22.5228 17.4653L22.3914 17.981C21.6444 17.7906 21.6068 16.7434 22.3382 16.4999L22.8652 16.3245C25.655 15.396 28.2735 14.0158 30.6163 12.2392M22.5228 17.4653L30.6163 12.2392M22.5228 17.4653L22.3914 17.981L22.4712 18.0013C25.6837 18.82 28.5503 20.6446 30.6519 23.2085C31.1284 23.7898 32.07 23.412 32.0126 22.6626L31.9361 21.6634C31.7209 18.8538 31.8445 16.0285 32.3042 13.2485L31.7791 13.1616L32.3042 13.2484L32.3446 13.004C32.4859 12.1494 31.5107 11.561 30.8205 12.0843L31.1421 12.5084M22.5228 17.4653L31.1421 12.5084M30.6163 12.2392L30.8205 12.0843L31.1421 12.5084M30.6163 12.2392L31.1421 12.5084" fill="#01FF85" stroke="white" stroke-width="1.06437"/>
</g>
</g>
</svg>
