<svg width="14" height="19" viewBox="0 0 14 19" fill="none" xmlns="http://www.w3.org/2000/svg">
<g id="emoji_objects">
<path fill-rule="evenodd" clip-rule="evenodd" d="M5.98877 18.1404C6.28135 18.3411 6.61805 18.4414 6.99888 18.4414C7.37971 18.4414 7.71641 18.3411 8.00899 18.1404C8.30157 17.9395 8.50622 17.6761 8.62294 17.3502H8.8967C9.2848 17.3502 9.61905 17.21 9.89945 16.9296C10.1799 16.6492 10.3201 16.3149 10.3201 15.9268V12.8137C11.2775 12.2334 12.0309 11.4603 12.5801 10.4943C13.1294 9.52831 13.404 8.47906 13.404 7.34654C13.404 5.56069 12.7829 4.04671 11.5408 2.80459C10.2987 1.56247 8.78472 0.941406 6.99888 0.941406C5.21303 0.941406 3.69905 1.56247 2.45693 2.80459C1.21481 4.04671 0.59375 5.56069 0.59375 7.34654C0.59375 8.45961 0.86838 9.50404 1.41764 10.4798C1.9669 11.4555 2.72025 12.2334 3.6777 12.8137V15.9268C3.6777 16.3149 3.8179 16.6492 4.0983 16.9296C4.37871 17.21 4.71296 17.3502 5.10106 17.3502H5.37482C5.49154 17.6761 5.69619 17.9395 5.98877 18.1404ZM8.8967 15.9268H5.10106V15.0363H8.8967V15.9268ZM8.8967 14.1969H5.10106V13.2772H8.8967V14.1969ZM6.43309 11.8538H4.91128C4.05726 11.4427 3.3614 10.8377 2.82368 10.0391C2.28597 9.2404 2.01711 8.34289 2.01711 7.34654C2.01711 5.9548 2.49947 4.77658 3.4642 3.81185C4.42892 2.84713 5.60715 2.36477 6.99888 2.36477C8.39061 2.36477 9.56884 2.84713 10.5336 3.81185C11.4983 4.77658 11.9806 5.9548 11.9806 7.34654C11.9806 8.34289 11.7118 9.2404 11.1741 10.0391C10.6364 10.8377 9.94049 11.4427 9.08648 11.8538H7.56467H6.43309Z" fill="#68696B"/>
<path d="M5.10106 15.0363H8.89669V15.9268H5.10106V15.0363ZM5.10106 15.0363V14.1969M5.10106 14.1969H8.89669V13.2772H5.10106V14.1969ZM6.99888 18.4414C6.61805 18.4414 6.28135 18.3411 5.98877 18.1404C5.69619 17.9395 5.49154 17.6761 5.37482 17.3502H5.10106C4.71296 17.3502 4.37871 17.21 4.0983 16.9296C3.8179 16.6492 3.6777 16.3149 3.6777 15.9268V12.8137C2.72025 12.2334 1.9669 11.4555 1.41764 10.4798C0.86838 9.50404 0.59375 8.45961 0.59375 7.34654C0.59375 5.56069 1.21481 4.04671 2.45693 2.80459C3.69905 1.56247 5.21303 0.941406 6.99888 0.941406C8.78472 0.941406 10.2987 1.56247 11.5408 2.80459C12.7829 4.04671 13.404 5.56069 13.404 7.34654C13.404 8.47906 13.1294 9.52831 12.5801 10.4943C12.0309 11.4603 11.2775 12.2334 10.3201 12.8137V15.9268C10.3201 16.3149 10.1799 16.6492 9.89945 16.9296C9.61905 17.21 9.2848 17.3502 8.89669 17.3502H8.62294C8.50622 17.6761 8.30157 17.9395 8.00899 18.1404C7.71641 18.3411 7.37971 18.4414 6.99888 18.4414ZM4.91128 11.8538H6.43309H7.56467H9.08648C9.94049 11.4427 10.6364 10.8377 11.1741 10.0391C11.7118 9.2404 11.9806 8.34289 11.9806 7.34654C11.9806 5.9548 11.4983 4.77658 10.5336 3.81185C9.56884 2.84713 8.39061 2.36477 6.99888 2.36477C5.60715 2.36477 4.42892 2.84713 3.4642 3.81185C2.49947 4.77658 2.01711 5.9548 2.01711 7.34654C2.01711 8.34289 2.28597 9.2404 2.82368 10.0391C3.3614 10.8377 4.05726 11.4427 4.91128 11.8538Z" stroke="#68696B" stroke-width="0.25"/>
</g>
</svg>
