<svg width="16" height="17" viewBox="0 0 16 17" fill="none" xmlns="http://www.w3.org/2000/svg">
<path id="layers" d="M0.371048 11.647C0.115953 11.4692 -0.00760939 11.2359 0.000362352 10.947C0.00833409 10.6581 0.139868 10.4247 0.394963 10.247C0.570342 10.1284 0.761663 10.0692 0.968928 10.0692C1.17619 10.0692 1.36752 10.1284 1.54289 10.247L8 14.8914L14.4571 10.247C14.6325 10.1284 14.8238 10.0692 15.0311 10.0692C15.2383 10.0692 15.4297 10.1284 15.605 10.247C15.8601 10.4247 15.9917 10.6581 15.9996 10.947C16.0076 11.2359 15.884 11.4692 15.629 11.647L9.17185 16.3136C8.82109 16.5655 8.43047 16.6914 8 16.6914C7.56953 16.6914 7.17891 16.5655 6.82816 16.3136L0.371048 11.647ZM6.82816 11.8247L1.32766 7.84696C0.833409 7.49141 0.586285 7.02474 0.586285 6.44696C0.586285 5.86918 0.833409 5.40252 1.32766 5.04696L6.82816 1.06918C7.17891 0.817332 7.56953 0.691406 8 0.691406C8.43047 0.691406 8.82109 0.817332 9.17185 1.06918L14.6723 5.04696C15.1666 5.40252 15.4137 5.86918 15.4137 6.44696C15.4137 7.02474 15.1666 7.49141 14.6723 7.84696L9.17185 11.8247C8.82109 12.0766 8.43047 12.2025 8 12.2025C7.56953 12.2025 7.17891 12.0766 6.82816 11.8247ZM8 10.4025L13.5005 6.44696L8 2.49141L2.4995 6.44696L8 10.4025Z" fill="#68696B"/>
</svg>
