<svg width="14" height="17" viewBox="0 0 14 17" fill="none" xmlns="http://www.w3.org/2000/svg">
<path id="toys_and_games" d="M0 13.4428C0 13.2398 0.0575784 13.0774 0.172735 12.9554C0.287755 12.8334 0.424461 12.7725 0.582853 12.7725C0.666304 12.7725 0.750235 12.7859 0.834647 12.8129C0.919059 12.8398 0.998735 12.8803 1.07368 12.9344C1.22575 13.0197 1.38175 13.0923 1.54165 13.1522C1.70169 13.2122 1.87408 13.2421 2.05882 13.2421C2.60153 13.2421 3.06449 13.0435 3.44771 12.6461C3.83106 12.2488 4.02274 11.7727 4.02274 11.2177C4.02274 10.6628 3.83106 10.192 3.44771 9.80551C3.06449 9.41899 2.60153 9.22572 2.05882 9.22572C1.88986 9.22572 1.72516 9.25 1.56471 9.29856C1.40425 9.34727 1.25643 9.42018 1.12124 9.5173C1.02831 9.57134 0.936216 9.60909 0.844941 9.63056C0.753667 9.65218 0.666304 9.66299 0.582853 9.66299C0.424461 9.66299 0.287755 9.60067 0.172735 9.47604C0.0575784 9.35127 0 9.19555 0 9.00888V6.48909C0 6.27744 0.0697256 6.10039 0.209177 5.95793C0.34849 5.81534 0.521637 5.74404 0.728618 5.74404H4.07009C4.12828 5.74404 4.15869 5.72242 4.16129 5.6792C4.1639 5.63611 4.14407 5.59295 4.10179 5.54972C3.98046 5.3392 3.88411 5.1152 3.81274 4.87772C3.7415 4.64011 3.70588 4.36748 3.70588 4.05983C3.70588 3.1206 4.02527 2.32439 4.66406 1.6712C5.30284 1.018 6.08149 0.691406 7 0.691406C7.91851 0.691406 8.69716 1.018 9.33594 1.6712C9.97473 2.32439 10.2941 3.1206 10.2941 4.05983C10.2941 4.36748 10.2585 4.64011 10.1873 4.87772C10.1159 5.1152 10.0195 5.3392 9.89821 5.54972C9.85593 5.59295 9.8361 5.63611 9.83871 5.6792C9.84131 5.72242 9.87172 5.74404 9.92991 5.74404H13.2714C13.4784 5.74404 13.6515 5.81534 13.7908 5.95793C13.9303 6.10039 14 6.27744 14 6.48909V8.83056C14 9.04221 13.9422 9.23821 13.8266 9.41856C13.7109 9.59877 13.5576 9.68888 13.3665 9.68888C13.2515 9.68888 13.1554 9.67379 13.0783 9.64362C13.0011 9.61344 12.9241 9.57134 12.8471 9.5173C12.7278 9.42018 12.5945 9.34727 12.4472 9.29856C12.3 9.25 12.1313 9.22572 11.9412 9.22572C11.3985 9.22572 10.9355 9.41899 10.5523 9.80551C10.1689 10.192 9.97726 10.6628 9.97726 11.2177C9.97726 11.7727 10.1689 12.2488 10.5523 12.6461C10.9355 13.0435 11.3985 13.2421 11.9412 13.2421C12.1313 13.2421 12.3065 13.2165 12.467 13.1651C12.6275 13.1139 12.7753 13.037 12.9105 12.9344C12.9791 12.8803 13.0488 12.8355 13.1194 12.8C13.1901 12.7644 13.2725 12.7466 13.3665 12.7466C13.5418 12.7466 13.6912 12.8111 13.8147 12.94C13.9382 13.069 14 13.2366 14 13.4428V15.9464C14 16.158 13.9303 16.3351 13.7908 16.4775C13.6515 16.6201 13.4784 16.6914 13.2714 16.6914H0.728618C0.521637 16.6914 0.34849 16.6201 0.209177 16.4775C0.0697256 16.3351 0 16.158 0 15.9464V13.4428ZM1.23529 15.4282H12.7647V14.3788C12.6327 14.4209 12.5001 14.4525 12.3671 14.4735C12.2341 14.4946 12.0922 14.5051 11.9412 14.5051C11.0564 14.5051 10.3021 14.1834 9.67812 13.54C9.05416 12.8965 8.74218 12.1224 8.74218 11.2177C8.74218 10.313 9.05416 9.54432 9.67812 8.91162C10.3021 8.27906 11.0564 7.96278 11.9412 7.96278C12.0922 7.96278 12.2341 7.9733 12.3671 7.99435C12.5001 8.01541 12.6327 8.04699 12.7647 8.08909V7.0072H9.01765C8.78431 7.0072 8.58873 6.93134 8.43088 6.77962C8.27304 6.6279 8.19412 6.43709 8.19412 6.2072C8.19412 6.08958 8.21526 5.96972 8.25753 5.84762C8.29967 5.72565 8.36617 5.62958 8.45703 5.55941C8.69036 5.39099 8.84896 5.17267 8.93282 4.90446C9.01682 4.63611 9.05882 4.35456 9.05882 4.05983C9.05882 3.47035 8.8598 2.97211 8.46177 2.56509C8.06373 2.15807 7.57647 1.95456 7 1.95456C6.42353 1.95456 5.93627 2.15807 5.53824 2.56509C5.1402 2.97211 4.94118 3.47035 4.94118 4.05983C4.94118 4.35456 4.98318 4.63611 5.06718 4.90446C5.15104 5.17267 5.30964 5.39099 5.54297 5.55941C5.62848 5.61877 5.69368 5.70649 5.73856 5.82256C5.78344 5.93863 5.80588 6.05281 5.80588 6.16509C5.80588 6.40369 5.72696 6.60369 5.56912 6.76509C5.41127 6.92649 5.21569 7.0072 4.98235 7.0072H1.23529V8.08909C1.36733 8.04699 1.49985 8.01541 1.63285 7.99435C1.76585 7.9733 1.90784 7.96278 2.05882 7.96278C2.94357 7.96278 3.69792 8.27906 4.32188 8.91162C4.94584 9.54432 5.25782 10.313 5.25782 11.2177C5.25782 12.1224 4.94584 12.8965 4.32188 13.54C3.69792 14.1834 2.94357 14.5051 2.05882 14.5051C1.90784 14.5051 1.76585 14.4946 1.63285 14.4735C1.49985 14.4525 1.36733 14.4209 1.23529 14.3788V15.4282Z" fill="#68696B"/>
</svg>
