<svg xmlns="http://www.w3.org/2000/svg" width="22" height="23" viewBox="0 0 22 23" fill="none">
  <path d="M20.2887 22.236C17.8297 22.236 15.4003 21.7003 13.0005 20.6289C10.6005 19.5575 8.41432 18.0368 6.44207 16.0669C4.46963 14.0968 2.94781 11.9111 1.87661 9.50968C0.805226 7.10829 0.269531 4.67734 0.269531 2.21684C0.269531 1.80112 0.407392 1.45462 0.683115 1.17734C0.959031 0.90026 1.30388 0.761719 1.71766 0.761719H6.43566C6.81482 0.761719 7.13925 0.873817 7.40895 1.09801C7.67864 1.32221 7.84693 1.60959 7.91382 1.96018L8.66516 5.8968C8.72252 6.27772 8.71396 6.60069 8.63949 6.86572C8.56482 7.13075 8.42181 7.36194 8.21045 7.5593L5.33928 10.3619C5.7097 11.0302 6.14827 11.6812 6.65499 12.3149C7.16191 12.9486 7.72686 13.5672 8.34986 14.1708C8.9295 14.7502 9.52664 15.2814 10.1413 15.7642C10.7557 16.247 11.3999 16.6836 12.0739 17.0741L14.8642 14.3047C15.0904 14.083 15.3677 13.9239 15.6961 13.8272C16.0245 13.7304 16.3597 13.7106 16.7017 13.768L20.5383 14.564C20.9084 14.6696 21.2006 14.8488 21.4151 15.1018C21.6295 15.3548 21.7368 15.6566 21.7368 16.0071V20.7808C21.7368 21.1966 21.598 21.5431 21.3206 21.8203C21.0431 22.0974 20.6991 22.236 20.2887 22.236ZM4.07053 7.88714L5.98882 6.02514L5.5067 3.41589H2.95986C3.04775 4.18064 3.1756 4.93547 3.34341 5.68039C3.51121 6.4253 3.75359 7.16089 4.07053 7.88714ZM14.5402 18.3638C15.2707 18.6804 16.0169 18.9335 16.7787 19.1233C17.5408 19.3131 18.3087 19.4418 19.0826 19.5095V16.9778L16.4804 16.4376L14.5402 18.3638Z" fill="#666666"/>
</svg>