<svg width="58" height="59" viewBox="0 0 58 59" fill="none" xmlns="http://www.w3.org/2000/svg">
<rect x="0.5" y="1" width="57" height="57" rx="28.5" stroke="black" stroke-opacity="0.1"/>
<path fill-rule="evenodd" clip-rule="evenodd" d="M16 29.3431C16 27.2897 17.9873 25.625 20.4387 25.625H37.5613C40.0127 25.625 42 27.2897 42 29.3431V38.3736C42 40.427 40.0127 42.0917 37.5613 42.0917H20.4387C17.9873 42.0917 16 40.427 16 38.3736V29.3431ZM20.4387 27.7496C19.3881 27.7496 18.5364 28.4631 18.5364 29.3431V38.3736C18.5364 39.2536 19.3881 39.967 20.4387 39.967H37.5613C38.6119 39.967 39.4636 39.2536 39.4636 38.3736V29.3431C39.4636 28.4631 38.6119 27.7496 37.5613 27.7496H20.4387Z" fill="#666666"/>
<path fill-rule="evenodd" clip-rule="evenodd" d="M29.0016 19.5061C24.6936 19.5061 21.2014 22.9984 21.2014 27.3062H18.6016C18.6016 21.5624 23.2578 16.9062 29.0016 16.9062C34.7453 16.9062 39.4016 21.5624 39.4016 27.3062H36.8018C36.8018 22.9984 33.3095 19.5061 29.0016 19.5061Z" fill="#666666"/>
<path fill-rule="evenodd" clip-rule="evenodd" d="M22.6758 31.7383C22.9733 31.7383 23.2145 31.9795 23.2145 32.277V33.1586L24.3052 32.8314C24.5901 32.746 24.8904 32.9077 24.9759 33.1926C25.0614 33.4776 24.8997 33.7779 24.6147 33.8634L23.5278 34.1895L24.1945 35.1895C24.3595 35.437 24.2926 35.7715 24.0451 35.9365C23.7976 36.1015 23.4631 36.0346 23.2981 35.7871L22.6758 34.8537L22.0535 35.7871C21.8885 36.0346 21.554 36.1015 21.3065 35.9365C21.059 35.7715 20.9921 35.437 21.1571 35.1895L21.8364 34.1706L20.8997 33.8585C20.6175 33.7644 20.465 33.4593 20.559 33.1771C20.6531 32.8948 20.9582 32.7423 21.2404 32.8364L22.1371 33.1352V32.277C22.1371 31.9795 22.3783 31.7383 22.6758 31.7383Z" fill="#666666"/>
<path fill-rule="evenodd" clip-rule="evenodd" d="M28.7578 31.7383C29.0553 31.7383 29.2965 31.9795 29.2965 32.277V33.1586L30.3872 32.8314C30.6722 32.746 30.9725 32.9077 31.0579 33.1926C31.1434 33.4776 30.9817 33.7779 30.6968 33.8634L29.6098 34.1895L30.2765 35.1895C30.4416 35.437 30.3747 35.7715 30.1271 35.9365C29.8796 36.1015 29.5451 36.0346 29.3801 35.7871L28.7578 34.8537L28.1356 35.7871C27.9705 36.0346 27.6361 36.1015 27.3885 35.9365C27.141 35.7715 27.0741 35.437 27.2391 35.1895L27.9184 34.1706L26.9818 33.8585C26.6995 33.7644 26.547 33.4593 26.6411 33.1771C26.7351 32.8948 27.0402 32.7423 27.3225 32.8364L28.2191 33.1352V32.277C28.2191 31.9795 28.4603 31.7383 28.7578 31.7383Z" fill="#666666"/>
<path fill-rule="evenodd" clip-rule="evenodd" d="M34.8438 31.7383C35.1413 31.7383 35.3825 31.9795 35.3825 32.277V33.1586L36.4731 32.8314C36.7581 32.746 37.0584 32.9077 37.1439 33.1926C37.2294 33.4776 37.0677 33.7779 36.7827 33.8634L35.6958 34.1895L36.3625 35.1895C36.5275 35.437 36.4606 35.7715 36.2131 35.9365C35.9655 36.1015 35.6311 36.0346 35.466 35.7871L34.8438 34.8537L34.2215 35.7871C34.0565 36.0346 33.722 36.1015 33.4745 35.9365C33.2269 35.7715 33.1601 35.437 33.3251 35.1895L34.0043 34.1706L33.0677 33.8585C32.7855 33.7644 32.6329 33.4593 32.727 33.1771C32.8211 32.8948 33.1262 32.7423 33.4084 32.8364L34.3051 33.1352V32.277C34.3051 31.9795 34.5463 31.7383 34.8438 31.7383Z" fill="#666666"/>
</svg>
