<svg width="17" height="14" viewBox="0 0 17 14" fill="none" xmlns="http://www.w3.org/2000/svg">
<path id="checklist" d="M3.24871 11.7891L6.83328 8.15298C6.97658 8.00761 7.14572 7.93591 7.34069 7.93786C7.53566 7.93965 7.7048 8.01632 7.84809 8.16787C7.98129 8.31535 8.04788 8.48748 8.04788 8.68428C8.04788 8.88092 7.98129 9.05184 7.84809 9.19704L3.882 13.2353C3.70789 13.4118 3.50482 13.5 3.27278 13.5C3.04074 13.5 2.83767 13.4118 2.66356 13.2353L0.695314 11.2388C0.562124 11.1035 0.497053 10.9335 0.500102 10.7287C0.503151 10.5241 0.571351 10.3541 0.704701 10.2189C0.838052 10.0836 1.00614 10.016 1.20898 10.016C1.41181 10.016 1.57886 10.0836 1.71012 10.2189L3.24871 11.7891ZM3.24871 4.35129L6.83328 0.715144C6.97658 0.569946 7.14572 0.498242 7.34069 0.500033C7.53566 0.501986 7.7048 0.578736 7.84809 0.730283C7.98129 0.87776 8.04788 1.04982 8.04788 1.24645C8.04788 1.44325 7.98129 1.61425 7.84809 1.75945L3.882 5.79749C3.70789 5.97411 3.50482 6.06241 3.27278 6.06241C3.04074 6.06241 2.83767 5.97411 2.66356 5.79749L0.695314 3.80093C0.562124 3.66583 0.497053 3.49589 0.500102 3.29111C0.503151 3.08634 0.571351 2.9164 0.704701 2.78129C0.838052 2.64602 1.00614 2.57839 1.20898 2.57839C1.41181 2.57839 1.57886 2.64602 1.71012 2.78129L3.24871 4.35129ZM11.0382 12.0033C10.8336 12.0033 10.6621 11.933 10.5238 11.7925C10.3853 11.6521 10.316 11.478 10.316 11.2703C10.316 11.0627 10.3853 10.8888 10.5238 10.7485C10.6621 10.6083 10.8336 10.5382 11.0382 10.5382H15.7779C15.9825 10.5382 16.154 10.6085 16.2925 10.749C16.4308 10.8894 16.5 11.0635 16.5 11.271C16.5 11.4787 16.4308 11.6526 16.2925 11.7928C16.154 11.9331 15.9825 12.0033 15.7779 12.0033H11.0382ZM11.0382 4.56542C10.8336 4.56542 10.6621 4.49518 10.5238 4.35471C10.3853 4.21423 10.316 4.04022 10.316 3.83268C10.316 3.62497 10.3853 3.45104 10.5238 3.31089C10.6621 3.17057 10.8336 3.10042 11.0382 3.10042H15.7779C15.9825 3.10042 16.154 3.17066 16.2925 3.31113C16.4308 3.45161 16.5 3.6257 16.5 3.83341C16.5 4.04095 16.4308 4.21488 16.2925 4.35519C16.154 4.49535 15.9825 4.56542 15.7779 4.56542H11.0382Z" fill="#5991FF"/>
</svg>
