<svg width="13" height="14" viewBox="0 0 13 14" fill="none" xmlns="http://www.w3.org/2000/svg">
<path id="event" d="M8.40041 11.1197C7.947 11.1197 7.56218 10.9674 7.24594 10.6627C6.92971 10.3579 6.77159 9.98708 6.77159 9.55023C6.77159 9.11339 6.92971 8.74263 7.24594 8.43796C7.56218 8.13328 7.947 7.98094 8.40041 7.98094C8.85382 7.98094 9.23871 8.13328 9.55506 8.43796C9.87129 8.74263 10.0294 9.11339 10.0294 9.55023C10.0294 9.98708 9.87129 10.3579 9.55506 10.6627C9.23871 10.9674 8.85382 11.1197 8.40041 11.1197ZM1.77606 13.5C1.41947 13.5 1.11765 13.381 0.870588 13.143C0.623529 12.9049 0.5 12.6141 0.5 12.2706V3.16797C0.5 2.82442 0.623529 2.53362 0.870588 2.2956C1.11765 2.05757 1.41947 1.93855 1.77606 1.93855H2.75335V1.02299C2.75335 0.873934 2.80518 0.749478 2.90882 0.649619C3.01247 0.549873 3.14165 0.5 3.29635 0.5C3.45118 0.5 3.58035 0.549873 3.68388 0.649619C3.78753 0.749478 3.83935 0.873934 3.83935 1.02299V1.93855H9.18782V1.01006C9.18782 0.865319 9.23847 0.744094 9.33976 0.646388C9.44118 0.548796 9.567 0.5 9.71724 0.5C9.86747 0.5 9.99323 0.548796 10.0945 0.646388C10.1959 0.744094 10.2466 0.865319 10.2466 1.01006V1.93855H11.2239C11.5805 1.93855 11.8824 2.05757 12.1294 2.2956C12.3765 2.53362 12.5 2.82442 12.5 3.16797V12.2706C12.5 12.6141 12.3765 12.9049 12.1294 13.143C11.8824 13.381 11.5805 13.5 11.2239 13.5H1.77606ZM1.77606 12.4799H11.2239C11.2783 12.4799 11.3281 12.4581 11.3732 12.4144C11.4185 12.3709 11.4412 12.3229 11.4412 12.2706V5.88832H1.55882V12.2706C1.55882 12.3229 1.58147 12.3709 1.62676 12.4144C1.67194 12.4581 1.72171 12.4799 1.77606 12.4799ZM1.55882 4.86819H11.4412V3.16797C11.4412 3.11561 11.4185 3.06766 11.3732 3.02414C11.3281 2.9805 11.2783 2.95868 11.2239 2.95868H1.77606C1.72171 2.95868 1.67194 2.9805 1.62676 3.02414C1.58147 3.06766 1.55882 3.11561 1.55882 3.16797V4.86819Z" fill="#FD5964"/>
</svg>
