<svg xmlns="http://www.w3.org/2000/svg" width="24" height="24" viewBox="0 0 24 24" fill="none">
	<mask id="mask0_40004816_7667" style="mask-type:alpha" maskUnits="userSpaceOnUse" x="0" y="0" width="24" height="24">
		<rect width="24" height="24" fill="#D9D9D9" />
	</mask>
	<g mask="url(#mask0_40004816_7667)">
		<path d="M7.85234 6.53906L10.6023 2.98906C10.7825 2.74823 10.9966 2.57131 11.2446 2.45831C11.4924 2.34548 11.7515 2.28906 12.0218 2.28906C12.2922 2.28906 12.5482 2.3474 12.7898 2.46406C13.0315 2.58073 13.244 2.75573 13.4273 2.98906L16.1773 6.53906L20.3773 7.91406C20.7607 8.0474 21.0607 8.2699 21.2773 8.58156C21.494 8.89306 21.6023 9.23723 21.6023 9.61406C21.6023 9.79273 21.5771 9.97148 21.5266 10.1503C21.4759 10.329 21.3928 10.5002 21.2773 10.6641L18.5773 14.4391L18.6773 18.4891C18.6773 19.0057 18.5023 19.4432 18.1523 19.8016C17.8023 20.1599 17.3842 20.3391 16.8978 20.3391C16.8675 20.3391 16.7107 20.3141 16.4273 20.2641L12.0023 19.0391L7.57609 20.2651C7.49359 20.2977 7.41484 20.3182 7.33984 20.3266C7.26484 20.3349 7.18959 20.3391 7.11409 20.3391C6.63093 20.3391 6.20818 20.1599 5.84584 19.8016C5.48351 19.4432 5.31068 19.0057 5.32734 18.4891L5.42734 14.4391L2.72734 10.6641C2.61068 10.4974 2.52734 10.3307 2.47734 10.1641C2.42734 9.9974 2.40234 9.82215 2.40234 9.63831C2.40234 9.25548 2.51218 8.90556 2.73184 8.58856C2.95151 8.27156 3.25834 8.04673 3.65234 7.91406L7.85234 6.53906ZM8.90234 8.08906L4.20234 9.63906L7.22484 13.9151L7.12734 18.5391L12.0023 17.1641L16.9023 18.5141L16.7773 13.8891L19.8023 9.61406L15.0773 8.08906L12.0023 4.13906L8.90234 8.08906Z" fill="#1C1B1F" />
	</g>
</svg>
