<svg width="44" height="45" viewBox="0 0 44 45" fill="none" xmlns="http://www.w3.org/2000/svg">
<circle cx="22" cy="22.3281" r="20" fill="#D9D9D9"/>
<rect x="1" y="1.32812" width="42" height="42" rx="21" fill="white"/>
<rect x="0.637931" y="0.966056" width="42.7241" height="42.7241" rx="21.3621" stroke="black" stroke-opacity="0.1" stroke-width="0.724138"/>
<path d="M22.4508 25.3281C21.7521 25.3281 21.1608 25.0861 20.6768 24.6021C20.1928 24.1181 19.9508 23.5268 19.9508 22.8281V16.8281C19.9508 16.1295 20.1928 15.5381 20.6768 15.0541C21.1608 14.5701 21.7521 14.3281 22.4508 14.3281C23.1495 14.3281 23.7408 14.5701 24.2248 15.0541C24.7088 15.5381 24.9508 16.1295 24.9508 16.8281V22.8281C24.9508 23.5268 24.7088 24.1181 24.2248 24.6021C23.7408 25.0861 23.1495 25.3281 22.4508 25.3281ZM21.7008 31.8281V29.2819C20.2123 29.11 18.9366 28.4985 17.8738 27.4474C16.8111 26.396 16.1887 25.1146 16.0065 23.6031C15.9797 23.3903 16.0355 23.208 16.1738 23.0561C16.3123 22.9041 16.488 22.8281 16.7008 22.8281C16.9136 22.8281 17.0918 22.9015 17.2353 23.0484C17.379 23.195 17.4745 23.3748 17.522 23.5876C17.704 24.8121 18.264 25.825 19.2018 26.6261C20.1396 27.4275 21.2226 27.8281 22.4508 27.8281C23.6956 27.8281 24.7828 27.4233 25.7123 26.6136C26.6418 25.8041 27.1975 24.7955 27.3795 23.5876C27.427 23.3748 27.5226 23.195 27.6663 23.0484C27.8098 22.9015 27.988 22.8281 28.2008 22.8281C28.4136 22.8281 28.5893 22.9041 28.7278 23.0561C28.8661 23.208 28.9219 23.3903 28.895 23.6031C28.7129 25.0813 28.0946 26.3528 27.0403 27.4176C25.9858 28.4823 24.706 29.1037 23.2008 29.2819V31.8281C23.2008 32.041 23.129 32.2191 22.9853 32.3626C22.8418 32.5063 22.6636 32.5781 22.4508 32.5781C22.238 32.5781 22.0598 32.5063 21.9163 32.3626C21.7726 32.2191 21.7008 32.041 21.7008 31.8281Z" fill="#001A38"/>
<path d="M22.4512 25.3281C21.7525 25.3281 21.1612 25.0861 20.6772 24.6021C20.1932 24.1181 19.9512 23.5268 19.9512 22.8281V16.8281C19.9512 16.1295 20.1932 15.5381 20.6772 15.0541C21.1612 14.5701 21.7525 14.3281 22.4512 14.3281C23.1498 14.3281 23.7412 14.5701 24.2252 15.0541C24.7092 15.5381 24.9512 16.1295 24.9512 16.8281V22.8281C24.9512 23.5268 24.7092 24.1181 24.2252 24.6021C23.7412 25.0861 23.1498 25.3281 22.4512 25.3281Z" fill="#25DE84"/>
</svg>
