<svg width="15" height="14" viewBox="0 0 15 14" fill="none" xmlns="http://www.w3.org/2000/svg">
<path id="pace" d="M7.5 14C6.53167 14 5.62167 13.8162 4.77 13.4487C3.91833 13.0812 3.1775 12.5825 2.5475 11.9525C1.9175 11.3225 1.41875 10.5817 1.05125 9.73C0.68375 8.87833 0.5 7.96833 0.5 7C0.5 6.03167 0.68375 5.12167 1.05125 4.27C1.41875 3.41833 1.9175 2.6775 2.5475 2.0475C3.1775 1.4175 3.91833 0.91875 4.77 0.55125C5.62167 0.18375 6.53167 0 7.5 0C8.48 0 9.39292 0.18375 10.2388 0.55125C11.0846 0.91875 11.8225 1.4175 12.4525 2.0475C13.0825 2.6775 13.5812 3.41542 13.9487 4.26125C14.3162 5.10708 14.5 6.02 14.5 7C14.5 7.11667 14.4971 7.23042 14.4913 7.34125C14.4854 7.45208 14.4767 7.56 14.465 7.665C14.4417 7.86333 14.3571 8.015 14.2112 8.12C14.0654 8.225 13.8933 8.26 13.695 8.225C13.4967 8.19 13.3392 8.09083 13.2225 7.9275C13.1058 7.76417 13.0592 7.58333 13.0825 7.385C13.0825 7.32667 13.0854 7.2625 13.0913 7.1925C13.0971 7.1225 13.1 7.05833 13.1 7C13.1 6.21833 12.9571 5.48917 12.6713 4.8125C12.3854 4.13583 11.9858 3.54083 11.4725 3.0275C10.9592 2.51417 10.3642 2.11458 9.6875 1.82875C9.01083 1.54292 8.28167 1.4 7.5 1.4C5.93667 1.4 4.6125 1.9425 3.5275 3.0275C2.4425 4.1125 1.9 5.43667 1.9 7C1.9 8.56333 2.4425 9.8875 3.5275 10.9725C4.6125 12.0575 5.93667 12.6 7.5 12.6C8.025 12.6 8.52958 12.5329 9.01375 12.3987C9.49792 12.2646 9.95583 12.0633 10.3875 11.795C10.5508 11.7017 10.7287 11.6667 10.9212 11.69C11.1137 11.7133 11.2625 11.8067 11.3675 11.97C11.4842 12.1333 11.5221 12.3113 11.4812 12.5038C11.4404 12.6963 11.3383 12.845 11.175 12.95C10.6267 13.2883 10.0463 13.5479 9.43375 13.7288C8.82125 13.9096 8.17667 14 7.5 14ZM12.575 11.2C12.33 11.2 12.1229 11.1154 11.9538 10.9462C11.7846 10.7771 11.7 10.57 11.7 10.325C11.7 10.08 11.7846 9.87292 11.9538 9.70375C12.1229 9.53458 12.33 9.45 12.575 9.45C12.82 9.45 13.0271 9.53458 13.1962 9.70375C13.3654 9.87292 13.45 10.08 13.45 10.325C13.45 10.57 13.3654 10.7771 13.1962 10.9462C13.0271 11.1154 12.82 11.2 12.575 11.2ZM8.2 6.72L10.3 8.82C10.4283 8.94833 10.4925 9.11167 10.4925 9.31C10.4925 9.50833 10.4283 9.67167 10.3 9.8C10.1717 9.92833 10.0083 9.9925 9.81 9.9925C9.61167 9.9925 9.44833 9.92833 9.32 9.8L7.01 7.49C6.94 7.42 6.8875 7.34125 6.8525 7.25375C6.8175 7.16625 6.8 7.07583 6.8 6.9825V4.2C6.8 4.00167 6.86708 3.83542 7.00125 3.70125C7.13542 3.56708 7.30167 3.5 7.5 3.5C7.69833 3.5 7.86458 3.56708 7.99875 3.70125C8.13292 3.83542 8.2 4.00167 8.2 4.2V6.72Z" fill="#A561FF"/>
</svg>
