<svg width="15" height="12" viewBox="0 0 15 12" fill="none" xmlns="http://www.w3.org/2000/svg">
<path id="video_camera_front" d="M3.4075 8.67942H8.93202V8.41725C8.93202 7.95464 8.67542 7.57716 8.16224 7.2848C7.64905 6.99232 6.98493 6.84608 6.16985 6.84608C5.35465 6.84608 4.69046 6.99232 4.17728 7.2848C3.66409 7.57716 3.4075 7.95464 3.4075 8.41725V8.67942ZM6.16985 5.88725C6.53713 5.88725 6.84942 5.7624 7.1067 5.5127C7.36411 5.26312 7.49282 4.96019 7.49282 4.60392C7.49282 4.24752 7.36411 3.94453 7.1067 3.69495C6.84942 3.44537 6.53713 3.32058 6.16985 3.32058C5.80245 3.32058 5.4901 3.44537 5.23282 3.69495C4.97553 3.94453 4.84689 4.24752 4.84689 4.60392C4.84689 4.96019 4.97553 5.26312 5.23282 5.5127C5.4901 5.7624 5.80245 5.88725 6.16985 5.88725ZM1.86643 11.5C1.48466 11.5 1.16148 11.3717 0.89689 11.115C0.632296 10.8583 0.5 10.5448 0.5 10.1743V1.82568C0.5 1.45523 0.632296 1.14167 0.89689 0.885C1.16148 0.628333 1.48466 0.5 1.86643 0.5H10.4731C10.8549 0.5 11.178 0.628333 11.4426 0.885C11.7072 1.14167 11.8395 1.45523 11.8395 1.82568V5.18215L13.9156 3.16823C14.0271 3.06007 14.1524 3.03306 14.2914 3.0872C14.4305 3.14122 14.5 3.24438 14.5 3.39667V8.60333C14.5 8.75562 14.4305 8.85878 14.2914 8.9128C14.1524 8.96694 14.0271 8.93993 13.9156 8.83177L11.8395 6.81785V10.1743C11.8395 10.5448 11.7072 10.8583 11.4426 11.115C11.178 11.3717 10.8549 11.5 10.4731 11.5H1.86643ZM1.86643 10.4H10.4731C10.5409 10.4 10.5966 10.3789 10.6402 10.3366C10.6839 10.2943 10.7057 10.2402 10.7057 10.1743V1.82568C10.7057 1.75981 10.6839 1.70572 10.6402 1.66343C10.5966 1.62114 10.5409 1.6 10.4731 1.6H1.86643C1.79865 1.6 1.74296 1.62114 1.69936 1.66343C1.65577 1.70572 1.63397 1.75981 1.63397 1.82568V10.1743C1.63397 10.2402 1.65577 10.2943 1.69936 10.3366C1.74296 10.3789 1.79865 10.4 1.86643 10.4Z" fill="#F0A422"/>
</svg>
