<svg xmlns="http://www.w3.org/2000/svg" width="20" height="20" viewBox="0 0 20 20" fill="none">
	<path d="M8.50605 12.2592L6.06079 9.81369C5.915 9.66807 5.73175 9.59351 5.51105 9.59C5.29053 9.58667 5.10395 9.66123 4.95132 9.81369C4.79886 9.96632 4.72263 10.1512 4.72263 10.3684C4.72263 10.5856 4.79886 10.7705 4.95132 10.9232L7.84 13.8118C8.03035 14.002 8.25237 14.0971 8.50605 14.0971C8.75974 14.0971 8.98175 14.002 9.1721 13.8118L15.0284 7.95553C15.174 7.80974 15.2486 7.62649 15.2521 7.40579C15.2554 7.18526 15.1809 6.99869 15.0284 6.84605C14.8758 6.6936 14.6909 6.61737 14.4737 6.61737C14.2565 6.61737 14.0716 6.6936 13.9189 6.84605L8.50605 12.2592ZM10.0018 20C8.61868 20 7.3186 19.7375 6.10158 19.2126C4.88456 18.6877 3.82596 17.9754 2.92579 17.0755C2.02561 16.1757 1.31289 15.1175 0.787631 13.9011C0.262544 12.6846 0 11.3848 0 10.0018C0 8.61868 0.262456 7.3186 0.787368 6.10158C1.31228 4.88456 2.02465 3.82596 2.92447 2.92579C3.8243 2.02561 4.88246 1.31289 6.09895 0.787631C7.31544 0.262544 8.61518 0 9.99816 0C11.3813 0 12.6814 0.262456 13.8984 0.787368C15.1154 1.31228 16.174 2.02465 17.0742 2.92447C17.9744 3.8243 18.6871 4.88246 19.2124 6.09895C19.7375 7.31544 20 8.61518 20 9.99816C20 11.3813 19.7375 12.6814 19.2126 13.8984C18.6877 15.1154 17.9754 16.174 17.0755 17.0742C16.1757 17.9744 15.1175 18.6871 13.9011 19.2124C12.6846 19.7375 11.3848 20 10.0018 20Z" fill="#10B754" />
</svg>
