<svg xmlns="http://www.w3.org/2000/svg" width="39" height="51" viewBox="0 0 39 51" fill="none">
	<path d="M37.7914 50.3463L2.00181 50.3521C1.38375 50.3522 0.883144 49.8516 0.883047 49.2335L0.875 1.37328C0.874904 0.755215 1.37555 0.254621 1.99361 0.254524L24.0402 0.250817L38.9054 15.2338L38.9107 49.2272C38.9108 49.8453 38.4094 50.3462 37.7914 50.3463Z" fill="#EBEBEB" />
	<path d="M38.9054 15.2338L24.0411 0.250003L22.8711 0.25L22.8738 18.5197L38.9062 18.5172L38.9054 15.2338Z" fill="#E0E0E0" />
	<path d="M38.9054 15.1103L24.0431 15.1128L24.0411 0.250003L38.9054 15.1103Z" fill="#F5F5F5" />
	<path d="M33.9278 38.5731C25.1045 38.5745 16.2812 38.5758 7.45784 38.5772C5.67646 38.5774 5.40647 41.3519 7.19927 41.3513C16.0226 41.35 24.8459 41.3486 33.6692 41.3472C35.4506 41.347 35.7209 38.5731 33.9278 38.5731Z" fill="#FAFAFA" />
	<path d="M7.19645 24.5744C16.0198 24.573 24.8431 24.5716 33.6664 24.5703C35.4478 24.57 35.7178 21.7955 33.925 21.7961C25.1017 21.7975 16.2783 21.7989 7.45502 21.8002C5.67296 21.8008 5.40297 24.5753 7.19645 24.5744Z" fill="#FAFAFA" />
	<path d="M7.12752 33.2203C15.9508 33.2189 24.7742 33.2176 33.5982 33.2159C35.3795 33.2156 35.6495 30.4411 33.8567 30.4417C25.0334 30.4431 16.2101 30.4444 7.38609 30.4461C5.60472 30.4464 5.33473 33.2209 7.12752 33.2203Z" fill="#FAFAFA" />
</svg>
