<svg xmlns="http://www.w3.org/2000/svg" width="14" height="15" viewBox="0 0 14 15" fill="none">
	<path d="M11.0526 12.5905V13.9395C11.0526 14.0963 10.9997 14.2276 10.8938 14.3333C10.7881 14.4392 10.6568 14.4921 10.5 14.4921C10.3432 14.4921 10.2119 14.4392 10.1062 14.3333C10.0003 14.2276 9.94737 14.0963 9.94737 13.9395V11.5901C9.94737 11.3398 10.0336 11.1284 10.206 10.956C10.3784 10.7836 10.5898 10.6974 10.8401 10.6974H13.1895C13.3463 10.6974 13.4776 10.7503 13.5833 10.8562C13.6892 10.9619 13.7421 11.0932 13.7421 11.25C13.7421 11.4068 13.6892 11.5381 13.5833 11.6438C13.4776 11.7497 13.3463 11.8026 13.1895 11.8026H11.8221L13.7988 13.7794C13.9008 13.8813 13.9517 14.0076 13.9517 14.1583C13.9517 14.309 13.9008 14.4392 13.7988 14.5488C13.6892 14.6631 13.5578 14.719 13.4048 14.7167C13.2518 14.7143 13.1205 14.6584 13.011 14.5488L11.0526 12.5905ZM7 14.75C6.03265 14.75 5.1232 14.566 4.27166 14.1981C3.41999 13.8302 2.6791 13.3312 2.04897 12.701C1.41885 12.0709 0.919825 11.33 0.551895 10.4783C0.183965 9.6268 0 8.71735 0 7.75C0 6.78265 0.183965 5.8732 0.551895 5.02166C0.919825 4.16999 1.41885 3.4291 2.04897 2.79897C2.6791 2.16885 3.41999 1.66982 4.27166 1.3019C5.1232 0.933965 6.03265 0.75 7 0.75C7.96735 0.75 8.8768 0.933965 9.72834 1.3019C10.58 1.66982 11.3209 2.16885 11.951 2.79897C12.5812 3.4291 13.0802 4.16999 13.4481 5.02166C13.816 5.8732 14 6.78265 14 7.75C14 7.87747 13.9969 8.01489 13.9908 8.16226C13.9846 8.30963 13.973 8.44711 13.956 8.57471C13.9362 8.73154 13.8703 8.85526 13.7583 8.9459C13.6464 9.03665 13.5083 9.08203 13.3438 9.08203C13.1993 9.08203 13.0761 9.01964 12.9741 8.89487C12.8721 8.77022 12.831 8.63329 12.8509 8.48408C12.8755 8.35648 12.8889 8.23411 12.8912 8.11695C12.8936 7.99979 12.8947 7.87747 12.8947 7.75C12.8947 7.48081 12.8771 7.21278 12.8417 6.94592C12.8062 6.67894 12.7507 6.41325 12.6752 6.14884H9.93595C9.98225 6.41325 10.0158 6.67894 10.0367 6.94592C10.0575 7.21278 10.0678 7.48081 10.0678 7.75C10.0678 7.87747 10.0667 8.01305 10.0643 8.15674C10.0619 8.3003 10.0545 8.43582 10.0422 8.56329C10.0225 8.72011 9.95775 8.84575 9.84808 8.94018C9.73853 9.03475 9.60535 9.08203 9.44853 9.08203C9.30398 9.08203 9.17767 9.02345 9.0696 8.90629C8.96141 8.78913 8.9172 8.65595 8.93697 8.50674C8.94925 8.37914 8.95662 8.25302 8.95908 8.12837C8.96141 8.0036 8.96258 7.87747 8.96258 7.75C8.96258 7.48081 8.9522 7.21278 8.93145 6.94592C8.91057 6.67894 8.87704 6.41325 8.83087 6.14884H5.16913C5.12296 6.41325 5.08943 6.67894 5.06855 6.94592C5.0478 7.21278 5.03742 7.48081 5.03742 7.75C5.03742 8.01919 5.0478 8.28722 5.06855 8.55408C5.08943 8.82106 5.12296 9.08675 5.16913 9.35116H7.32587C7.48269 9.35116 7.61404 9.40409 7.71989 9.50995C7.82563 9.61568 7.8785 9.74697 7.8785 9.90379C7.8785 10.0606 7.82563 10.192 7.71989 10.2978C7.61404 10.4036 7.48269 10.4564 7.32587 10.4564H5.42279C5.5844 11.0364 5.79483 11.5926 6.05408 12.125C6.31345 12.6574 6.62875 13.1587 7 13.6291C7.13226 13.6291 7.26453 13.6298 7.39679 13.6313C7.52905 13.6326 7.65892 13.6248 7.78639 13.6079C7.93855 13.588 8.0656 13.6272 8.16753 13.7254C8.26958 13.8237 8.32061 13.9489 8.32061 14.101C8.32061 14.2653 8.27836 14.4023 8.19387 14.512C8.10925 14.6215 7.98854 14.6862 7.83171 14.706C7.70424 14.723 7.56682 14.7346 7.41945 14.7408C7.27208 14.7469 7.13226 14.75 7 14.75ZM1.32484 9.35116H4.06405C4.01775 9.08675 3.98417 8.82106 3.96329 8.55408C3.94253 8.28722 3.93216 8.01919 3.93216 7.75C3.93216 7.48081 3.94253 7.21278 3.96329 6.94592C3.98417 6.67894 4.01775 6.41325 4.06405 6.14884H1.32484C1.24932 6.41325 1.19381 6.67894 1.15832 6.94592C1.12295 7.21278 1.10526 7.48081 1.10526 7.75C1.10526 8.01919 1.12295 8.28722 1.15832 8.55408C1.19381 8.82106 1.24932 9.08675 1.32484 9.35116ZM5.57311 13.4406C5.27653 12.9806 5.0217 12.5007 4.80863 12.001C4.59556 11.5013 4.42197 10.9865 4.28787 10.4564H1.78832C2.1727 11.215 2.69414 11.855 3.35263 12.3764C4.01112 12.898 4.75128 13.2527 5.57311 13.4406ZM1.78832 5.04358H4.28787C4.41252 4.50888 4.58021 3.99167 4.79095 3.49197C5.00156 2.99215 5.26228 2.51461 5.57311 2.05937C4.74649 2.2426 4.00517 2.59493 3.34913 3.11637C2.69297 3.63781 2.1727 4.28021 1.78832 5.04358ZM5.42279 5.04358H8.57721C8.42039 4.46356 8.20873 3.90976 7.94224 3.38218C7.67587 2.85448 7.36179 2.35073 7 1.87092C6.63342 2.34127 6.31811 2.84263 6.05408 3.375C5.79004 3.90737 5.57961 4.46356 5.42279 5.04358ZM9.71213 5.04358H12.2117C11.8273 4.28021 11.307 3.63664 10.6509 3.11287C9.99483 2.58897 9.25351 2.23781 8.4269 2.05937C8.72347 2.5194 8.97474 3.00044 9.18068 3.50247C9.38663 4.00463 9.56378 4.51833 9.71213 5.04358Z" fill="#414447" />
</svg>
