<svg xmlns="http://www.w3.org/2000/svg" width="13" height="15" viewBox="0 0 13 15" fill="none">
	<g clip-path="url(#clip0_40006470_15303)">
		<path d="M10.2917 3.08333H9.69583C9.57011 2.42499 9.23749 1.83345 8.75401 1.40842C8.27054 0.983386 7.66578 0.750848 7.04167 0.75L5.95833 0.75C5.33422 0.750848 4.72946 0.983386 4.24599 1.40842C3.76251 1.83345 3.42989 2.42499 3.30417 3.08333H2.70833C1.9903 3.08426 1.30193 3.39185 0.794202 3.93863C0.286478 4.48541 0.00086009 5.22674 0 6L0 11.8333C0.00086009 12.6066 0.286478 13.3479 0.794202 13.8947C1.30193 14.4415 1.9903 14.7491 2.70833 14.75H10.2917C11.0097 14.7491 11.6981 14.4415 12.2058 13.8947C12.7135 13.3479 12.9991 12.6066 13 11.8333V6C12.9991 5.22674 12.7135 4.48541 12.2058 3.93863C11.6981 3.39185 11.0097 3.08426 10.2917 3.08333ZM5.95833 1.91667H7.04167C7.37656 1.91816 7.70284 2.03105 7.97588 2.23988C8.24892 2.44872 8.45537 2.7433 8.567 3.08333H4.433C4.54463 2.7433 4.75108 2.44872 5.02412 2.23988C5.29716 2.03105 5.62344 1.91816 5.95833 1.91667ZM2.70833 4.25H10.2917C10.7226 4.25 11.136 4.43437 11.4407 4.76256C11.7455 5.09075 11.9167 5.53587 11.9167 6V7.75H1.08333V6C1.08333 5.53587 1.25454 5.09075 1.55928 4.76256C1.86403 4.43437 2.27736 4.25 2.70833 4.25ZM10.2917 13.5833H2.70833C2.27736 13.5833 1.86403 13.399 1.55928 13.0708C1.25454 12.7426 1.08333 12.2975 1.08333 11.8333V8.91667H5.95833V9.5C5.95833 9.65471 6.0154 9.80308 6.11698 9.91248C6.21857 10.0219 6.35634 10.0833 6.5 10.0833C6.64366 10.0833 6.78143 10.0219 6.88302 9.91248C6.9846 9.80308 7.04167 9.65471 7.04167 9.5V8.91667H11.9167V11.8333C11.9167 12.2975 11.7455 12.7426 11.4407 13.0708C11.136 13.399 10.7226 13.5833 10.2917 13.5833Z" fill="#414447" />
	</g>
	<defs>
		<clipPath id="clip0_40006470_15303">
			<rect width="13" height="14" fill="white" transform="translate(0 0.75)" />
		</clipPath>
	</defs>
</svg>
