<svg xmlns="http://www.w3.org/2000/svg" width="16" height="13" viewBox="0 0 16 13" fill="none">
	<path d="M0.8 12.75C0.573333 12.75 0.383333 12.6679 0.23 12.5036C0.0766667 12.3393 0 12.1357 0 11.8929C0 11.65 0.0766667 11.4464 0.23 11.2821C0.383333 11.1179 0.573333 11.0357 0.8 11.0357H4.8V6.75C4.8 6.50714 4.87667 6.30357 5.03 6.13929C5.18333 5.975 5.37333 5.89286 5.6 5.89286H9.6V1.60714C9.6 1.36429 9.67667 1.16071 9.83 0.996429C9.98333 0.832143 10.1733 0.75 10.4 0.75H15.2C15.4267 0.75 15.6167 0.832143 15.77 0.996429C15.9233 1.16071 16 1.36429 16 1.60714C16 1.85 15.9233 2.05357 15.77 2.21786C15.6167 2.38214 15.4267 2.46429 15.2 2.46429H11.2V6.75C11.2 6.99286 11.1233 7.19643 10.97 7.36071C10.8167 7.525 10.6267 7.60714 10.4 7.60714H6.4V11.8929C6.4 12.1357 6.32333 12.3393 6.17 12.5036C6.01667 12.6679 5.82667 12.75 5.6 12.75H0.8Z" fill="#414447" />
</svg>
