<svg xmlns="http://www.w3.org/2000/svg" width="12" height="15" viewBox="0 0 12 15" fill="none">
	<path d="M6 13.3192C7.525 11.9669 8.65625 10.7384 9.39375 9.63357C10.1313 8.52878 10.5 7.54776 10.5 6.69049C10.5 5.37441 10.0656 4.29679 9.19687 3.45763C8.32812 2.61848 7.2625 2.1989 6 2.1989C4.7375 2.1989 3.67188 2.61848 2.80312 3.45763C1.93438 4.29679 1.5 5.37441 1.5 6.69049C1.5 7.54776 1.86875 8.52878 2.60625 9.63357C3.34375 10.7384 4.475 11.9669 6 13.3192ZM6 14.75C5.825 14.75 5.65 14.7198 5.475 14.6594C5.3 14.5991 5.14375 14.5085 5.00625 14.3878C4.19375 13.6633 3.475 12.957 2.85 12.2688C2.225 11.5805 1.70312 10.9134 1.28437 10.2675C0.865625 9.6215 0.546875 8.99968 0.328125 8.402C0.109375 7.80433 0 7.23383 0 6.69049C0 4.87937 0.603125 3.4365 1.80938 2.3619C3.01563 1.2873 4.4125 0.75 6 0.75C7.5875 0.75 8.98438 1.2873 10.1906 2.3619C11.3969 3.4365 12 4.87937 12 6.69049C12 7.23383 11.8906 7.80433 11.6719 8.402C11.4531 8.99968 11.1344 9.6215 10.7156 10.2675C10.2969 10.9134 9.775 11.5805 9.15 12.2688C8.525 12.957 7.80625 13.6633 6.99375 14.3878C6.85625 14.5085 6.7 14.5991 6.525 14.6594C6.35 14.7198 6.175 14.75 6 14.75ZM6 7.9945C6.4125 7.9945 6.76563 7.85263 7.05938 7.56889C7.35313 7.28514 7.5 6.94405 7.5 6.5456C7.5 6.14715 7.35313 5.80606 7.05938 5.52232C6.76563 5.23857 6.4125 5.0967 6 5.0967C5.5875 5.0967 5.23438 5.23857 4.94063 5.52232C4.64687 5.80606 4.5 6.14715 4.5 6.5456C4.5 6.94405 4.64687 7.28514 4.94063 7.56889C5.23438 7.85263 5.5875 7.9945 6 7.9945Z" fill="#414447" />
</svg>
