<svg xmlns="http://www.w3.org/2000/svg" width="24" height="24" viewBox="0 0 24 24" fill="none">
	<mask id="mask0_40006657_15578" style="mask-type:alpha" maskUnits="userSpaceOnUse" x="0" y="0" width="24" height="24">
		<rect width="24" height="24" fill="#D9D9D9" />
	</mask>
	<g mask="url(#mask0_40006657_15578)">
		<path d="M6 19.9969C5.45 19.9969 4.97917 19.801 4.5875 19.4094C4.19583 19.0177 4 18.5469 4 17.9969V15.9969C4 15.7135 4.09583 15.476 4.2875 15.2844C4.47917 15.0927 4.71667 14.9969 5 14.9969C5.28333 14.9969 5.52083 15.0927 5.7125 15.2844C5.90417 15.476 6 15.7135 6 15.9969V17.9969H18V15.9969C18 15.7135 18.0958 15.476 18.2875 15.2844C18.4792 15.0927 18.7167 14.9969 19 14.9969C19.2833 14.9969 19.5208 15.0927 19.7125 15.2844C19.9042 15.476 20 15.7135 20 15.9969V17.9969C20 18.5469 19.8042 19.0177 19.4125 19.4094C19.0208 19.801 18.55 19.9969 18 19.9969H6ZM11 7.84687L9.125 9.72188C8.925 9.92188 8.6875 10.0177 8.4125 10.0094C8.1375 10.001 7.9 9.89687 7.7 9.69688C7.51667 9.49688 7.42083 9.26354 7.4125 8.99688C7.40417 8.73021 7.5 8.49687 7.7 8.29688L11.3 4.69688C11.4 4.59688 11.5083 4.52604 11.625 4.48438C11.7417 4.44271 11.8667 4.42188 12 4.42188C12.1333 4.42188 12.2583 4.44271 12.375 4.48438C12.4917 4.52604 12.6 4.59688 12.7 4.69688L16.3 8.29688C16.5 8.49687 16.5958 8.73021 16.5875 8.99688C16.5792 9.26354 16.4833 9.49688 16.3 9.69688C16.1 9.89687 15.8625 10.001 15.5875 10.0094C15.3125 10.0177 15.075 9.92188 14.875 9.72188L13 7.84687V14.9969C13 15.2802 12.9042 15.5177 12.7125 15.7094C12.5208 15.901 12.2833 15.9969 12 15.9969C11.7167 15.9969 11.4792 15.901 11.2875 15.7094C11.0958 15.5177 11 15.2802 11 14.9969V7.84687Z" fill="#414447" />
	</g>
</svg>
