<svg xmlns="http://www.w3.org/2000/svg" width="15" height="15" viewBox="0 0 15 15" fill="none">
	<path d="M1.18247 14.75C0.854222 14.75 0.575082 14.6318 0.345049 14.3954C0.115016 14.1589 0 13.8719 0 13.5346V1.9652C0 1.62787 0.115016 1.341 0.345049 1.1046C0.575082 0.8682 0.854222 0.75 1.18247 0.75H6.21263C6.54088 0.75 6.82002 0.8682 7.05005 1.1046C7.28009 1.341 7.3951 1.62787 7.3951 1.9652V3.95H13.8175C14.1458 3.95 14.4249 4.0682 14.655 4.3046C14.885 4.541 15 4.82787 15 5.1652V13.5346C15 13.8719 14.885 14.1589 14.655 14.3954C14.4249 14.6318 14.1458 14.75 13.8175 14.75H1.18247ZM1.16748 13.55H6.22762V11.55H1.16748V13.55ZM1.16748 10.35H6.22762V8.35H1.16748V10.35ZM1.16748 7.15H6.22762V5.15H1.16748V7.15ZM1.16748 3.95H6.22762V1.95H1.16748V3.95ZM7.3951 13.55H13.8325V5.15H7.3951V13.55ZM9.6857 8.35C9.52028 8.35 9.38158 8.29247 9.26962 8.1774C9.15778 8.06233 9.10186 7.91973 9.10186 7.7496C9.10186 7.5796 9.15778 7.43713 9.26962 7.3222C9.38158 7.2074 9.52028 7.15 9.6857 7.15H11.3923C11.5577 7.15 11.6963 7.20753 11.8081 7.3226C11.9201 7.43753 11.9761 7.58007 11.9761 7.7502C11.9761 7.92033 11.9201 8.0628 11.8081 8.1776C11.6963 8.29253 11.5577 8.35 11.3923 8.35H9.6857ZM9.6857 11.55C9.52028 11.55 9.38158 11.4925 9.26962 11.3774C9.15778 11.2623 9.10186 11.1197 9.10186 10.9496C9.10186 10.7796 9.15778 10.6371 9.26962 10.5222C9.38158 10.4074 9.52028 10.35 9.6857 10.35H11.3923C11.5577 10.35 11.6963 10.4075 11.8081 10.5226C11.9201 10.6375 11.9761 10.7801 11.9761 10.9502C11.9761 11.1203 11.9201 11.2628 11.8081 11.3776C11.6963 11.4925 11.5577 11.55 11.3923 11.55H9.6857Z" fill="#414447" />
</svg>
