<svg xmlns="http://www.w3.org/2000/svg" width="18" height="20" viewBox="0 0 18 20" fill="none">
	<path d="M7.89273 19.5C7.55173 19.5 7.25723 19.3868 7.00923 19.1605C6.76107 18.9343 6.61007 18.6558 6.55623 18.325L6.31198 16.4538C6.04415 16.3641 5.76948 16.2385 5.48798 16.077C5.20665 15.9153 4.95507 15.7422 4.73323 15.5577L3.00048 16.2943C2.68632 16.4328 2.37065 16.4462 2.05348 16.3345C1.73615 16.223 1.48965 16.0205 1.31398 15.727L0.186982 13.773C0.0113158 13.4795 -0.0392676 13.1689 0.0352324 12.8413C0.109566 12.5138 0.280066 12.2436 0.546733 12.0308L2.04473 10.9058C2.02173 10.7571 2.0054 10.6077 1.99573 10.4578C1.98607 10.3078 1.98123 10.1583 1.98123 10.0095C1.98123 9.86733 1.98607 9.72283 1.99573 9.576C2.0054 9.42917 2.02173 9.26858 2.04473 9.09425L0.546733 7.96925C0.280066 7.75642 0.111149 7.48458 0.0399825 7.15375C-0.0311842 6.82308 0.0210657 6.51092 0.196732 6.21725L1.31398 4.29225C1.48965 4.00508 1.73615 3.80417 2.05348 3.6895C2.37065 3.57467 2.68632 3.5865 3.00048 3.725L4.72348 4.452C4.96465 4.261 5.22207 4.08633 5.49573 3.928C5.7694 3.76967 6.03832 3.64242 6.30248 3.54625L6.55623 1.675C6.61007 1.34417 6.76107 1.06567 7.00923 0.8395C7.25723 0.613167 7.55173 0.5 7.89273 0.5H10.1082C10.4492 0.5 10.7437 0.613167 10.9917 0.8395C11.2399 1.06567 11.3909 1.34417 11.4447 1.675L11.689 3.55575C11.989 3.66475 12.2604 3.792 12.5032 3.9375C12.7462 4.083 12.9915 4.2545 13.239 4.452L15.0102 3.725C15.3242 3.5865 15.6399 3.57467 15.9572 3.6895C16.2746 3.80417 16.521 4.00508 16.6965 4.29225L17.814 6.227C17.9896 6.5205 18.0402 6.83108 17.9657 7.15875C17.8914 7.48625 17.7209 7.75642 17.4542 7.96925L15.9177 9.123C15.9536 9.2845 15.9731 9.4355 15.9765 9.576C15.9796 9.71633 15.9812 9.85767 15.9812 10C15.9812 10.1358 15.978 10.274 15.9715 10.4145C15.9651 10.5548 15.9422 10.7154 15.9025 10.8963L17.41 12.0308C17.6766 12.2436 17.8488 12.5138 17.9265 12.8413C18.004 13.1689 17.9549 13.4795 17.7792 13.773L16.6465 15.7172C16.471 16.0109 16.223 16.2135 15.9025 16.325C15.582 16.4365 15.2646 16.423 14.9505 16.2845L13.239 15.548C12.9915 15.7455 12.7389 15.9202 12.4812 16.072C12.2236 16.224 11.9595 16.3481 11.689 16.4443L11.4447 18.325C11.3909 18.6558 11.2399 18.9343 10.9917 19.1605C10.7437 19.3868 10.4492 19.5 10.1082 19.5H7.89273ZM8.00048 18H9.96598L10.3255 15.3212C10.8358 15.1879 11.3021 14.9985 11.7245 14.753C12.147 14.5073 12.5544 14.1916 12.9467 13.8057L15.4312 14.85L16.416 13.15L14.2467 11.5155C14.3301 11.2565 14.3867 11.0026 14.4167 10.7537C14.4469 10.5051 14.462 10.2538 14.462 10C14.462 9.73967 14.4469 9.48842 14.4167 9.24625C14.3867 9.00392 14.3301 8.75642 14.2467 8.50375L16.435 6.85L15.4505 5.15L12.937 6.2095C12.6023 5.85183 12.2014 5.53583 11.7342 5.2615C11.2669 4.98717 10.7941 4.79292 10.316 4.67875L10.0005 2H8.01598L7.68498 4.66925C7.17482 4.78975 6.70373 4.97433 6.27173 5.223C5.83957 5.47183 5.42732 5.79233 5.03498 6.1845L2.55048 5.15L1.56598 6.85L3.72548 8.4595C3.64215 8.69683 3.58382 8.94367 3.55048 9.2C3.51715 9.45633 3.50048 9.72617 3.50048 10.0095C3.50048 10.2698 3.51715 10.525 3.55048 10.775C3.58382 11.025 3.63898 11.2718 3.71598 11.5155L1.56598 13.15L2.55048 14.85L5.02548 13.8C5.40498 14.1897 5.81073 14.5089 6.24273 14.7578C6.6749 15.0064 7.15248 15.1974 7.67548 15.3307L8.00048 18ZM9.01198 13C9.84398 13 10.552 12.708 11.136 12.124C11.72 11.54 12.012 10.832 12.012 10C12.012 9.168 11.72 8.46 11.136 7.876C10.552 7.292 9.84398 7 9.01198 7C8.16965 7 7.45907 7.292 6.88023 7.876C6.3014 8.46 6.01198 9.168 6.01198 10C6.01198 10.832 6.3014 11.54 6.88023 12.124C7.45907 12.708 8.16965 13 9.01198 13Z" fill="#909091" />
</svg>
