<svg width="20" height="20" viewBox="0 0 20 20" fill="none" xmlns="http://www.w3.org/2000/svg">
<g id="hand-holding-usd 1" clip-path="url(#clip0_40000881_9445)">
<path id="Vector" d="M19.1833 7.32375C18.6917 6.87375 18.05 6.64875 17.375 6.67375C16.7083 6.70709 16.0917 6.99875 15.6333 7.49042L12.95 10.4321C12.4917 9.67375 11.6583 9.16542 10.7083 9.16542H3.33333C1.49167 9.16542 0 10.6571 0 12.4988V16.6654C0 18.5071 1.49167 19.9988 3.33333 19.9988H7.46667C9.84167 19.9988 12.1083 18.9821 13.6917 17.2071L19.3667 10.8404C20.275 9.81542 20.1917 8.24042 19.1833 7.31542V7.32375ZM18.125 9.74042L12.45 16.1071C11.1833 17.5238 9.375 18.3404 7.475 18.3404H3.33333C2.41667 18.3404 1.66667 17.5904 1.66667 16.6738V12.5071C1.66667 11.5904 2.41667 10.8404 3.33333 10.8404H10.7167C11.2417 10.8404 11.6667 11.2654 11.6667 11.7904C11.6667 12.2571 11.3167 12.6654 10.85 12.7321L6.55 13.3488C6.09167 13.4154 5.775 13.8321 5.84167 14.2904C5.90833 14.7488 6.33333 15.0654 6.78333 14.9988L11.0833 14.3821C12.0667 14.2404 12.8583 13.5571 13.175 12.6654L16.8667 8.61542C17.0167 8.44875 17.225 8.34875 17.45 8.34042C17.675 8.34042 17.8917 8.40709 18.0583 8.55709C18.4 8.86542 18.425 9.39875 18.1167 9.74042H18.125Z" fill="black"/>
<path id="Vector_2" d="M7.50127 8.33385H7.81794C9.02627 8.33385 10.0013 7.35052 10.0013 6.15052C10.0013 5.07552 9.23461 4.16719 8.17627 3.99219L5.44294 3.53385C5.19294 3.49219 5.00961 3.27552 5.00961 3.01719C5.00961 2.73385 5.24294 2.50052 5.52627 2.50052H7.72627C8.02627 2.50052 8.30127 2.65885 8.45127 2.91719C8.67627 3.31719 9.18461 3.45052 9.59294 3.21719C9.99294 2.98385 10.1263 2.47552 9.89294 2.07552C9.45127 1.30885 8.61794 0.825521 7.72627 0.825521H7.50127C7.50127 0.367187 7.12627 -0.0078125 6.66794 -0.0078125C6.20961 -0.0078125 5.83461 0.367187 5.83461 0.825521H5.51794C4.30961 0.825521 3.33461 1.80885 3.33461 3.00885C3.33461 4.08385 4.10127 4.99219 5.15961 5.16719L7.89294 5.62552C8.14294 5.66719 8.32627 5.88385 8.32627 6.14219C8.32627 6.42552 8.09294 6.65885 7.80961 6.65885H5.60961C5.30961 6.65885 5.03461 6.50052 4.88461 6.24219C4.65127 5.84219 4.14294 5.70885 3.74294 5.94219C3.34294 6.17552 3.20961 6.68385 3.44294 7.08385C3.88461 7.85052 4.71794 8.33385 5.60961 8.33385H5.83461C5.83461 8.79219 6.20961 9.16719 6.66794 9.16719C7.12627 9.16719 7.50127 8.79219 7.50127 8.33385Z" fill="black"/>
</g>
<defs>
<clipPath id="clip0_40000881_9445">
<rect width="20" height="20" fill="white"/>
</clipPath>
</defs>
</svg>
