<svg width="17" height="16" viewBox="0 0 17 16" fill="none" xmlns="http://www.w3.org/2000/svg">
<g id="bars-filter 1" clip-path="url(#clip0_40000536_3845)">
<path id="Vector" d="M16.5 2.33594C16.5 2.88927 16.0533 3.33594 15.5 3.33594H1.5C0.946667 3.33594 0.5 2.88927 0.5 2.33594C0.5 1.7826 0.946667 1.33594 1.5 1.33594H15.5C16.0533 1.33594 16.5 1.7826 16.5 2.33594ZM10.1667 13.3359H6.83333C6.28 13.3359 5.83333 13.7826 5.83333 14.3359C5.83333 14.8893 6.28 15.3359 6.83333 15.3359H10.1667C10.72 15.3359 11.1667 14.8893 11.1667 14.3359C11.1667 13.7826 10.72 13.3359 10.1667 13.3359ZM12.8333 7.33594H4.16667C3.61333 7.33594 3.16667 7.7826 3.16667 8.33594C3.16667 8.88927 3.61333 9.33594 4.16667 9.33594H12.8333C13.3867 9.33594 13.8333 8.88927 13.8333 8.33594C13.8333 7.7826 13.3867 7.33594 12.8333 7.33594Z" fill="black"/>
</g>
<defs>
<clipPath id="clip0_40000536_3845">
<rect width="16" height="16" fill="white" transform="translate(0.5)"/>
</clipPath>
</defs>
</svg>
