<svg width="25" height="24" viewBox="0 0 25 24" fill="none" xmlns="http://www.w3.org/2000/svg">
<g id="radio-button 1" clip-path="url(#clip0_40000831_6606)">
<path id="Vector" d="M5.5 11C2.743 11 0.5 8.757 0.5 6C0.5 3.243 2.743 1 5.5 1C8.257 1 10.5 3.243 10.5 6C10.5 8.757 8.257 11 5.5 11ZM5.5 3C3.846 3 2.5 4.346 2.5 6C2.5 7.654 3.846 9 5.5 9C7.154 9 8.5 7.654 8.5 6C8.5 4.346 7.154 3 5.5 3ZM5.5 23C2.743 23 0.5 20.757 0.5 18C0.5 15.243 2.743 13 5.5 13C8.257 13 10.5 15.243 10.5 18C10.5 20.757 8.257 23 5.5 23ZM5.5 15C3.846 15 2.5 16.346 2.5 18C2.5 19.654 3.846 21 5.5 21C7.154 21 8.5 19.654 8.5 18C8.5 16.346 7.154 15 5.5 15ZM24.5 6C24.5 5.447 24.053 5 23.5 5H14.5C13.947 5 13.5 5.447 13.5 6C13.5 6.553 13.947 7 14.5 7H23.5C24.053 7 24.5 6.553 24.5 6ZM24.5 18C24.5 17.447 24.053 17 23.5 17H14.5C13.947 17 13.5 17.447 13.5 18C13.5 18.553 13.947 19 14.5 19H23.5C24.053 19 24.5 18.553 24.5 18ZM5.5 7.5C6.328 7.5 7 6.828 7 6C7 5.172 6.328 4.5 5.5 4.5C4.672 4.5 4 5.172 4 6C4 6.828 4.672 7.5 5.5 7.5Z" fill="black"/>
</g>
<defs>
<clipPath id="clip0_40000831_6606">
<rect width="24" height="24" fill="white" transform="translate(0.5)"/>
</clipPath>
</defs>
</svg>
