<svg width="20" height="20" viewBox="0 0 20 20" fill="none" xmlns="http://www.w3.org/2000/svg">
<g id="marker (1) 1" clip-path="url(#clip0_40000881_9438)">
<path id="Vector" d="M10.0013 5C9.34203 5 8.69757 5.1955 8.1494 5.56177C7.60124 5.92804 7.174 6.44863 6.92171 7.05772C6.66941 7.66681 6.6034 8.33703 6.73202 8.98363C6.86064 9.63024 7.17811 10.2242 7.64428 10.6904C8.11046 11.1565 8.7044 11.474 9.351 11.6026C9.99761 11.7312 10.6678 11.6652 11.2769 11.4129C11.886 11.1606 12.4066 10.7334 12.7729 10.1852C13.1391 9.63707 13.3346 8.9926 13.3346 8.33333C13.3346 7.44928 12.9834 6.60143 12.3583 5.97631C11.7332 5.35119 10.8854 5 10.0013 5ZM10.0013 10C9.67167 10 9.34944 9.90225 9.07535 9.71912C8.80127 9.53598 8.58765 9.27568 8.4615 8.97114C8.33536 8.6666 8.30235 8.33148 8.36666 8.00818C8.43097 7.68488 8.58971 7.38791 8.82279 7.15482C9.05588 6.92173 9.35285 6.763 9.67615 6.69869C9.99946 6.63438 10.3346 6.66739 10.6391 6.79353C10.9437 6.91968 11.204 7.1333 11.3871 7.40738C11.5702 7.68147 11.668 8.0037 11.668 8.33333C11.668 8.77536 11.4924 9.19928 11.1798 9.51184C10.8673 9.82441 10.4433 10 10.0013 10Z" fill="black"/>
<path id="Vector_2" d="M10.0003 20.0017C9.29855 20.0053 8.60619 19.8407 7.98115 19.5217C7.35611 19.2027 6.81659 18.7387 6.40776 18.1683C3.23193 13.7875 1.62109 10.4942 1.62109 8.37917C1.62109 6.15687 2.5039 4.0256 4.07529 2.4542C5.64669 0.882803 7.77797 0 10.0003 0C12.2226 0 14.3538 0.882803 15.9252 2.4542C17.4966 4.0256 18.3794 6.15687 18.3794 8.37917C18.3794 10.4942 16.7686 13.7875 13.5928 18.1683C13.1839 18.7387 12.6444 19.2027 12.0194 19.5217C11.3943 19.8407 10.702 20.0053 10.0003 20.0017ZM10.0003 1.81917C8.26061 1.82115 6.59277 2.51311 5.36265 3.74323C4.13253 4.97335 3.44058 6.64118 3.43859 8.38083C3.43859 10.0558 5.01609 13.1533 7.87943 17.1025C8.12251 17.4373 8.4414 17.7098 8.81002 17.8977C9.17864 18.0856 9.58651 18.1836 10.0003 18.1836C10.414 18.1836 10.8219 18.0856 11.1905 17.8977C11.5591 17.7098 11.878 17.4373 12.1211 17.1025C14.9844 13.1533 16.5619 10.0558 16.5619 8.38083C16.5599 6.64118 15.868 4.97335 14.6379 3.74323C13.4077 2.51311 11.7399 1.82115 10.0003 1.81917Z" fill="black"/>
</g>
<defs>
<clipPath id="clip0_40000881_9438">
<rect width="20" height="20" fill="white"/>
</clipPath>
</defs>
</svg>
