<svg width="17" height="16" viewBox="0 0 17 16" fill="none" xmlns="http://www.w3.org/2000/svg">
<g id="search 1" clip-path="url(#clip0_40000544_3848)">
<g id="Group">
<path id="Vector" d="M16.2067 14.2968L13.1099 11.1987C15.4271 8.10222 14.7953 3.71356 11.6987 1.39641C8.60222 -0.920736 4.21356 -0.288925 1.89641 2.80759C-0.420736 5.90411 0.211075 10.2928 3.30759 12.6099C5.79497 14.4712 9.21133 14.4712 11.6987 12.6099L14.7968 15.708C15.1861 16.0973 15.8174 16.0973 16.2067 15.708C16.596 15.3187 16.596 14.6874 16.2067 14.2982L16.2067 14.2968ZM7.52898 12.012C4.77695 12.012 2.54601 9.78102 2.54601 7.02898C2.54601 4.27695 4.77695 2.046 7.52898 2.046C10.281 2.046 12.512 4.27695 12.512 7.02898C12.509 9.77977 10.2798 12.009 7.52898 12.012Z" fill="black"/>
</g>
</g>
<defs>
<clipPath id="clip0_40000544_3848">
<rect width="16" height="16" fill="white" transform="translate(0.5)"/>
</clipPath>
</defs>
</svg>
