<svg width="25" height="24" viewBox="0 0 25 24" fill="none" xmlns="http://www.w3.org/2000/svg">
<g id="video-duration 1" clip-path="url(#clip0_40000831_6604)">
<path id="Vector" d="M18.5 12C15.191 12 12.5 14.691 12.5 18C12.5 21.309 15.191 24 18.5 24C21.809 24 24.5 21.309 24.5 18C24.5 14.691 21.809 12 18.5 12ZM18.5 22C16.294 22 14.5 20.206 14.5 18C14.5 15.794 16.294 14 18.5 14C20.706 14 22.5 15.794 22.5 18C22.5 20.206 20.706 22 18.5 22ZM20.207 18.293C20.598 18.684 20.598 19.316 20.207 19.707C20.012 19.902 19.756 20 19.5 20C19.244 20 18.988 19.902 18.793 19.707L17.793 18.707C17.605 18.519 17.5 18.265 17.5 18V16C17.5 15.448 17.947 15 18.5 15C19.053 15 19.5 15.448 19.5 16V17.586L20.207 18.293ZM24.5 5V10C24.5 10.552 24.053 11 23.5 11C22.947 11 22.5 10.552 22.5 10V5C22.5 3.346 21.154 2 19.5 2H5.5C3.846 2 2.5 3.346 2.5 5V15C2.5 16.654 3.846 18 5.5 18H9.5C10.053 18 10.5 18.448 10.5 19C10.5 19.552 10.053 20 9.5 20H5.5C2.743 20 0.5 17.757 0.5 15V5C0.5 2.243 2.743 0 5.5 0H19.5C22.257 0 24.5 2.243 24.5 5ZM15.392 11.144L11.255 13.442C10.468 13.879 9.5 13.31 9.5 12.409V7.812C9.5 6.911 10.468 6.342 11.255 6.779L15.392 9.078C16.202 9.528 16.202 10.693 15.392 11.143V11.144Z" fill="black"/>
</g>
<defs>
<clipPath id="clip0_40000831_6604">
<rect width="24" height="24" fill="white" transform="translate(0.5)"/>
</clipPath>
</defs>
</svg>
