<svg width="47" height="45" viewBox="0 0 47 45" fill="none" xmlns="http://www.w3.org/2000/svg">
<g id="Layer_1" clip-path="url(#clip0_40000507_5948)">
<path id="Vector" d="M17.12 39.0095C16.4 38.6695 15.75 38.3695 15.12 38.0495C14.89 37.9295 14.75 37.9295 14.56 38.1295C13.94 38.7695 13.31 39.3895 12.68 40.0195C11 41.6695 8.69 41.6695 7.01 40.0095C6.72 39.7295 6.43 39.4395 6.16 39.1395C4.87 37.6495 4.9 35.4695 6.24 34.0195C6.91 33.2995 7.61 32.6095 8.32 31.9295C8.53 31.7295 8.52 31.5795 8.4 31.3295C7.95 30.3095 7.52 29.2695 7.11 28.2295C7.01 27.9895 6.92 27.8795 6.65 27.8895C5.79 27.8995 4.93 27.8995 4.08 27.8895C1.6 27.8695 0 26.2595 0 23.7795C0 23.2395 0 22.6795 0.09 22.1495C0.39 20.4995 1.82 19.2295 3.5 19.1195C4.53 19.0595 5.56 19.0795 6.59 19.0895C6.92 19.0895 7.02 18.9695 7.14 18.6795C7.53 17.6495 7.97 16.6295 8.42 15.6295C8.53 15.3895 8.53 15.2595 8.34 15.0695C7.72 14.4795 7.12 13.8595 6.52 13.2595C4.78 11.5095 4.78 9.21953 6.54 7.45953C6.78 7.21953 7.02 6.96953 7.28 6.73953C8.8 5.37953 11.02 5.39953 12.5 6.79953C13.19 7.44953 13.86 8.12953 14.52 8.81953C14.72 9.02953 14.87 9.06953 15.15 8.93953C16.17 8.47953 17.21 8.05953 18.25 7.65953C18.5 7.55953 18.59 7.45953 18.59 7.19953C18.58 6.30953 18.58 5.41953 18.59 4.52953C18.61 2.11953 20.24 0.519531 22.64 0.519531C23.18 0.519531 23.74 0.519531 24.27 0.609531C25.96 0.909531 27.24 2.31953 27.34 4.02953C27.4 5.03953 27.38 6.05953 27.37 7.06953C27.37 7.38953 27.45 7.53953 27.78 7.66953C28.81 8.05953 29.83 8.49953 30.83 8.94953C31.07 9.05953 31.2 9.05953 31.39 8.86953C32.02 8.21953 32.66 7.57953 33.31 6.94953C34.94 5.34953 37.23 5.34953 38.88 6.92953C39.7 7.70953 40.51 8.50953 40.65 9.70953C40.71 10.2295 40.66 10.7595 40.66 11.3095C39.89 11.1195 39.21 10.9495 38.45 10.7595C38.71 9.74953 37.96 9.16953 37.31 8.53953C36.56 7.80953 35.64 7.80953 34.9 8.53953C34.02 9.39953 33.16 10.2795 32.28 11.1495C31.68 11.7495 31.25 11.7995 30.53 11.3595C29.2 10.5295 27.77 9.93953 26.24 9.56953C25.38 9.36953 25.13 9.03953 25.12 8.15953C25.12 6.98953 25.12 5.81953 25.12 4.64953C25.12 3.38953 24.51 2.77953 23.26 2.77953C23.04 2.77953 22.82 2.77953 22.6 2.77953C21.44 2.77953 20.81 3.40953 20.8 4.56953C20.8 5.68953 20.8 6.81953 20.8 7.93953C20.8 8.07953 20.8 8.21953 20.8 8.35953C20.76 9.00953 20.49 9.36953 19.85 9.51953C18.23 9.89953 16.71 10.5195 15.3 11.3995C14.68 11.7795 14.23 11.7095 13.7 11.1895C12.82 10.3195 11.96 9.44953 11.08 8.57953C10.27 7.77953 9.38 7.77953 8.57 8.57953C8.36 8.78953 8.15 8.98953 7.94 9.20953C7.26 9.92953 7.26 10.8495 7.94 11.5495C8.8 12.4295 9.68 13.2895 10.55 14.1695C11.19 14.8095 11.23 15.2295 10.76 15.9895C9.95 17.2995 9.36 18.6995 9.01 20.1995C8.8 21.1095 8.47 21.3595 7.54 21.3695C6.37 21.3695 5.2 21.3695 4.03 21.3695C2.83 21.3695 2.21 21.9895 2.21 23.1795C2.21 23.4095 2.21 23.6495 2.21 23.8795C2.21 25.0295 2.84 25.6695 4.01 25.6695C5.15 25.6695 6.29 25.6695 7.43 25.6695C7.57 25.6695 7.71 25.6695 7.85 25.6695C8.45 25.7095 8.82 25.9895 8.95 26.5695C9.33 28.2295 9.97 29.7695 10.87 31.2095C11.22 31.7695 11.15 32.2495 10.67 32.7295C9.79 33.6195 8.91 34.4895 8.03 35.3795C7.23 36.1895 7.23 37.0795 8.03 37.8895C8.24 38.0995 8.44 38.3095 8.66 38.5195C9.37 39.1995 10.3 39.1995 11 38.5195C11.88 37.6595 12.74 36.7795 13.62 35.9095C14.26 35.2695 14.66 35.2395 15.44 35.6995C15.9 35.9695 16.37 36.1995 16.83 36.4595C16.94 36.5295 17.09 36.6695 17.09 36.7795C17.11 37.4895 17.1 38.2095 17.1 39.0395L17.12 39.0095Z" fill="#001A38"/>
<path id="Vector_2" d="M38.2514 12.6798C39.1714 12.6898 40.0014 12.9998 40.7114 13.5698C42.3614 14.9198 44.0214 16.2698 45.6214 17.6798C46.6314 18.5698 47.2114 19.7098 46.8814 21.0998C46.7814 21.5298 46.5214 21.9698 46.2314 22.3198C41.3314 28.2198 36.4114 34.1098 31.5014 39.9998C30.8914 40.7298 30.2814 41.4598 29.6714 42.1898C29.3814 42.5398 29.0314 42.7498 28.5814 42.8398C25.9214 43.3698 23.2714 43.9098 20.6114 44.4498C19.7214 44.6298 19.1214 44.1898 19.0914 43.2898C19.0214 40.4498 18.9614 37.6198 18.9414 34.7798C18.9414 34.4198 19.1514 33.9898 19.3914 33.6998C22.5314 29.8998 25.6914 26.1298 28.8414 22.3398C31.1814 19.5398 33.5214 16.7498 35.8414 13.9298C36.4714 13.1598 37.2114 12.6698 38.2314 12.6798H38.2514ZM28.5014 40.0898C32.4914 35.3098 36.4514 30.5598 40.4414 25.7698C38.1614 23.8698 35.9214 21.9998 33.6414 20.0998C29.6314 24.9098 25.6514 29.6798 21.6514 34.4798C23.9414 36.3598 26.2014 38.1998 28.5014 40.0898ZM41.8814 24.0498C42.7214 23.0498 43.5114 22.0898 44.3114 21.1298C44.8514 20.4798 44.8514 20.1598 44.3014 19.5198C44.1814 19.3798 44.0414 19.2498 43.9014 19.1298C42.4514 17.9198 41.0114 16.6998 39.5514 15.5098C39.2614 15.2698 38.8914 15.0998 38.5314 14.9598C38.2214 14.8398 37.9414 14.9298 37.7114 15.2198C36.9314 16.1898 36.1214 17.1398 35.3214 18.0998C35.2514 18.1898 35.1814 18.2898 35.1014 18.3998C37.3614 20.2898 39.6014 22.1498 41.8714 24.0498H41.8814ZM26.1114 41.0398C24.4614 39.6898 22.8914 38.3998 21.3214 37.1198V42.0098C22.9414 41.6798 24.4714 41.3698 26.1114 41.0298V41.0398Z" fill="#25DE84"/>
<path id="Vector_3" d="M30.9913 16.8688C30.5113 17.4488 30.0413 18.0088 29.5413 18.5988C27.6613 16.2888 25.2713 15.1188 22.3013 15.3488C19.8713 15.5388 17.9013 16.6588 16.4313 18.5988C13.4813 22.5088 14.5813 28.3188 19.3413 30.8288C18.8613 31.4088 18.3913 31.9788 17.9213 32.5388C15.0313 31.0788 12.3613 27.4888 12.5613 23.0088C12.7513 18.6588 15.6913 14.8488 19.8513 13.5388C23.8713 12.2688 28.5213 13.6488 30.9913 16.8588V16.8688Z" fill="#001A38"/>
</g>
<defs>
<clipPath id="clip0_40000507_5948">
<rect width="46.98" height="43.96" fill="white" transform="translate(0 0.519531)"/>
</clipPath>
</defs>
</svg>
