<svg width="282" height="90" viewBox="0 0 282 90" fill="none" xmlns="http://www.w3.org/2000/svg">
<path d="M-24.6329 -69.6098L41.7678 349.628L461.005 283.227M80.3377 343.519L13.937 -75.7186M118.907 337.41L52.5068 -81.8275M157.477 331.301L91.0766 -87.9364M196.047 325.192L129.646 -94.0452M234.617 319.083L168.216 -100.154M273.187 312.974L206.786 -106.263M311.757 306.866L245.356 -112.372M350.327 300.757L283.926 -118.481M388.896 294.648L322.496 -124.59M427.466 288.539L361.066 -130.698M466.036 282.43L399.635 -136.807M454.896 244.657L35.6589 311.058M448.787 206.087L29.5501 272.488M442.679 167.517L23.4412 233.918M436.57 128.948L17.3324 195.348M430.461 90.3777L11.2235 156.778M424.352 51.8079L5.11464 118.209M418.243 13.2381L-0.994225 79.6387M412.134 -25.3318L-7.10309 41.0689M406.025 -63.9016L-13.2119 2.49908M399.917 -102.471L-19.3208 -36.0708M393.808 -141.041L-25.4297 -74.6406" stroke="url(#paint0_radial_40002022_7910)" stroke-opacity="0.5" stroke-width="0.91201"/>
<defs>
<radialGradient id="paint0_radial_40002022_7910" cx="0" cy="0" r="1" gradientUnits="userSpaceOnUse" gradientTransform="translate(222.204 110.47) rotate(81) scale(235.153)">
<stop stop-color="white"/>
<stop offset="1" stop-color="white" stop-opacity="0"/>
</radialGradient>
</defs>
</svg>
