<svg width="356" height="351" viewBox="0 0 356 351" fill="none" xmlns="http://www.w3.org/2000/svg">
<g filter="url(#filter0_d_40006356_7071)">
<rect x="129.361" y="105.992" width="97.6385" height="93.5388" rx="20" fill="url(#paint0_linear_40006356_7071)" fill-opacity="0.4" shape-rendering="crispEdges"/>
<rect x="130.361" y="106.992" width="95.6385" height="91.5388" rx="19" stroke="url(#paint1_linear_40006356_7071)" stroke-opacity="0.29" stroke-width="2" shape-rendering="crispEdges"/>
<path fill-rule="evenodd" clip-rule="evenodd" d="M185.615 149.833C187.878 147.678 189.712 144.965 189.827 141.73C190.29 128.702 173.945 125.466 167.658 135.483C164.437 140.615 162.653 148.232 162.537 155.298C159.246 156.423 156.015 157.384 153.176 158.158C151.626 158.581 150.712 160.18 151.134 161.73C151.557 163.28 153.156 164.194 154.706 163.771C157.193 163.093 159.985 162.273 162.872 161.322C163.25 164.121 163.958 166.788 165.079 169.072C166.725 172.427 169.43 175.236 173.459 175.934C177.36 176.61 181.73 175.159 186.455 171.878C189.1 170.041 191.97 167.555 195.081 164.337C193.508 163.139 191.853 162.05 190.13 161.078C187.542 163.682 185.214 165.657 183.137 167.1C178.99 169.979 176.193 170.503 174.452 170.202C172.839 169.922 171.427 168.802 170.302 166.509C169.379 164.629 168.766 162.156 168.5 159.332C174.964 156.872 181.563 153.692 185.615 149.833ZM181.603 145.62C178.755 148.332 173.922 150.882 168.457 153.098C168.817 148.156 170.2 136.777 176.461 135.305C180.012 134.47 184.144 137.836 184.012 141.523C183.974 142.593 183.343 143.962 181.603 145.62Z" fill="#B8B8B8"/>
<path d="M200.635 149.525C201.123 149.155 201.814 149.571 201.714 150.176L201.649 150.566C200.906 155.061 200.706 159.629 201.054 164.172L201.176 165.763C201.204 166.13 200.743 166.315 200.51 166.031C197.047 161.807 192.325 158.801 187.033 157.453L186.906 157.42C186.536 157.326 186.518 156.808 186.88 156.687L187.719 156.408C192.251 154.899 196.504 152.658 200.309 149.772L200.635 149.525Z" fill="#01FF85"/>
</g>
<defs>
<filter id="filter0_d_40006356_7071" x="0.711334" y="0.112194" width="354.939" height="350.839" filterUnits="userSpaceOnUse" color-interpolation-filters="sRGB">
<feFlood flood-opacity="0" result="BackgroundImageFix"/>
<feColorMatrix in="SourceAlpha" type="matrix" values="0 0 0 0 0 0 0 0 0 0 0 0 0 0 0 0 0 0 127 0" result="hardAlpha"/>
<feOffset dy="22.77"/>
<feGaussianBlur stdDeviation="64.325"/>
<feComposite in2="hardAlpha" operator="out"/>
<feColorMatrix type="matrix" values="0 0 0 0 0.142382 0 0 0 0 0.336538 0 0 0 0 0.242592 0 0 0 0.67 0"/>
<feBlend mode="normal" in2="BackgroundImageFix" result="effect1_dropShadow_40006356_7071"/>
<feBlend mode="normal" in="SourceGraphic" in2="effect1_dropShadow_40006356_7071" result="shape"/>
</filter>
<linearGradient id="paint0_linear_40006356_7071" x1="178.181" y1="105.992" x2="178.181" y2="199.531" gradientUnits="userSpaceOnUse">
<stop stop-color="#0F0F10"/>
<stop offset="1" stop-color="#191A1A"/>
</linearGradient>
<linearGradient id="paint1_linear_40006356_7071" x1="178.181" y1="105.992" x2="178.181" y2="199.531" gradientUnits="userSpaceOnUse">
<stop stop-color="#9DFFD0" stop-opacity="0.4"/>
<stop offset="1" stop-color="#9DFFD0" stop-opacity="0.7"/>
</linearGradient>
</defs>
</svg>
