<svg width="196" height="33" viewBox="0 0 196 33" fill="none" xmlns="http://www.w3.org/2000/svg">
<path fill-rule="evenodd" clip-rule="evenodd" d="M22.3151 14.5535C23.7752 13.1629 24.9584 11.4125 25.0326 9.32539C25.3316 0.919163 14.785 -1.16906 10.7284 5.29414C8.65001 8.60552 7.49908 13.5203 7.42431 18.08C5.30066 18.806 3.21549 19.4259 1.38358 19.9255C0.383484 20.1983 -0.206146 21.2301 0.0666083 22.2302C0.339362 23.2303 1.37121 23.82 2.37131 23.5472C3.97577 23.1096 5.77734 22.5803 7.64052 21.9669C7.88422 23.773 8.34105 25.4938 9.06409 26.9674C10.1265 29.1326 11.8716 30.9451 14.4716 31.3953C16.9888 31.8313 19.8084 30.8952 22.857 28.7783C24.5642 27.5929 26.4163 25.9879 28.4242 23.9114C27.4089 23.1383 26.3415 22.4355 25.2294 21.8081C23.5592 23.4894 22.0569 24.7637 20.7159 25.6949C18.0404 27.5526 16.2355 27.891 15.1122 27.6964C14.0717 27.5162 13.1602 26.7933 12.4342 25.3138C11.839 24.1008 11.4431 22.5049 11.2715 20.6831C15.4427 19.0959 19.7003 17.0436 22.3151 14.5535ZM19.7262 11.835C17.8885 13.585 14.7704 15.2305 11.2437 16.6607C11.476 13.4715 12.3685 6.12933 16.4084 5.17953C18.6996 4.64086 21.3657 6.81236 21.2811 9.19197C21.2565 9.88198 20.8493 10.7655 19.7262 11.835Z" fill="white"/>
<path d="M32.0056 14.3556C32.3209 14.1165 32.7664 14.3853 32.7018 14.7757L32.6603 15.0269C32.1807 17.9274 32.0517 20.875 32.2762 23.8063L32.3549 24.8332C32.373 25.0701 32.0754 25.1895 31.9248 25.0058C29.6909 22.2805 26.644 20.3411 23.2293 19.4708L23.1473 19.4499C22.9086 19.3891 22.8966 19.0546 23.1303 18.9768L23.6719 18.7965C26.5958 17.8233 29.3403 16.3768 31.7957 14.5147L32.0056 14.3556Z" fill="#01FF85"/>
<path d="M44.5487 23.5V9.64H53.4487V11.78H47.0687V15.2H52.7487V17.3H47.0687V21.36H53.9287V23.5H44.5487ZM61.9074 18C61.9074 16.9067 61.7674 16.12 61.4874 15.64C61.2208 15.1467 60.7141 14.9 59.9674 14.9C59.7008 14.9 59.4074 14.92 59.0874 14.96C58.7674 15 58.5274 15.0333 58.3674 15.06V23.5H55.9474V13.38C56.4141 13.2467 57.0208 13.12 57.7674 13C58.5274 12.88 59.3274 12.82 60.1674 12.82C60.8874 12.82 61.4741 12.9133 61.9274 13.1C62.3941 13.2867 62.7808 13.5333 63.0874 13.84C63.2341 13.7333 63.4208 13.62 63.6474 13.5C63.8741 13.38 64.1274 13.2733 64.4074 13.18C64.6874 13.0733 64.9808 12.9867 65.2874 12.92C65.6074 12.8533 65.9274 12.82 66.2474 12.82C67.0608 12.82 67.7274 12.94 68.2474 13.18C68.7808 13.4067 69.1941 13.7333 69.4874 14.16C69.7941 14.5733 70.0008 15.08 70.1074 15.68C70.2274 16.2667 70.2874 16.9133 70.2874 17.62V23.5H67.8674V18C67.8674 16.9067 67.7341 16.12 67.4674 15.64C67.2008 15.1467 66.6874 14.9 65.9274 14.9C65.5408 14.9 65.1741 14.9667 64.8274 15.1C64.4808 15.22 64.2208 15.34 64.0474 15.46C64.1541 15.7933 64.2274 16.1467 64.2674 16.52C64.3074 16.8933 64.3274 17.2933 64.3274 17.72V23.5H61.9074V18ZM79.9921 18.32C79.9921 17.24 79.7454 16.4 79.2521 15.8C78.7721 15.2 77.9921 14.9 76.9121 14.9C76.6854 14.9 76.4454 14.9133 76.1921 14.94C75.9521 14.9533 75.7121 14.9933 75.4721 15.06V21.04C75.6854 21.1867 75.9654 21.3267 76.3121 21.46C76.6721 21.58 77.0521 21.64 77.4521 21.64C78.3321 21.64 78.9721 21.34 79.3721 20.74C79.7854 20.14 79.9921 19.3333 79.9921 18.32ZM82.4721 18.28C82.4721 19.08 82.3654 19.8133 82.1521 20.48C81.9521 21.1467 81.6588 21.72 81.2721 22.2C80.8854 22.68 80.3988 23.0533 79.8121 23.32C79.2388 23.5867 78.5854 23.72 77.8521 23.72C77.3588 23.72 76.9054 23.66 76.4921 23.54C76.0788 23.42 75.7388 23.2867 75.4721 23.14V27.2H73.0521V13.38C73.5454 13.2467 74.1521 13.12 74.8721 13C75.5921 12.88 76.3521 12.82 77.1521 12.82C77.9788 12.82 78.7188 12.9467 79.3721 13.2C80.0254 13.4533 80.5788 13.82 81.0321 14.3C81.4988 14.7667 81.8521 15.34 82.0921 16.02C82.3454 16.6867 82.4721 17.44 82.4721 18.28ZM88.4062 23.7C87.6862 23.6867 87.0862 23.6067 86.6062 23.46C86.1395 23.3133 85.7662 23.1067 85.4862 22.84C85.2062 22.56 85.0062 22.22 84.8862 21.82C84.7795 21.4067 84.7262 20.94 84.7262 20.42V8.38L87.1462 7.98V19.96C87.1462 20.2533 87.1662 20.5 87.2062 20.7C87.2595 20.9 87.3462 21.0733 87.4662 21.22C87.5862 21.3533 87.7462 21.46 87.9462 21.54C88.1595 21.6067 88.4262 21.66 88.7462 21.7L88.4062 23.7ZM99.9637 18.26C99.9637 19.0867 99.8437 19.84 99.6037 20.52C99.3637 21.2 99.0237 21.78 98.5837 22.26C98.1437 22.74 97.6103 23.1133 96.9837 23.38C96.3703 23.6467 95.6903 23.78 94.9437 23.78C94.197 23.78 93.517 23.6467 92.9037 23.38C92.2903 23.1133 91.7637 22.74 91.3237 22.26C90.8837 21.78 90.537 21.2 90.2837 20.52C90.0437 19.84 89.9237 19.0867 89.9237 18.26C89.9237 17.4333 90.0437 16.6867 90.2837 16.02C90.537 15.34 90.8837 14.76 91.3237 14.28C91.777 13.8 92.3103 13.4333 92.9237 13.18C93.537 12.9133 94.2103 12.78 94.9437 12.78C95.677 12.78 96.3503 12.9133 96.9637 13.18C97.5903 13.4333 98.1237 13.8 98.5637 14.28C99.0037 14.76 99.3437 15.34 99.5837 16.02C99.837 16.6867 99.9637 17.4333 99.9637 18.26ZM97.4837 18.26C97.4837 17.22 97.257 16.4 96.8037 15.8C96.3637 15.1867 95.7437 14.88 94.9437 14.88C94.1437 14.88 93.517 15.1867 93.0637 15.8C92.6237 16.4 92.4037 17.22 92.4037 18.26C92.4037 19.3133 92.6237 20.1467 93.0637 20.76C93.517 21.3733 94.1437 21.68 94.9437 21.68C95.7437 21.68 96.3637 21.3733 96.8037 20.76C97.257 20.1467 97.4837 19.3133 97.4837 18.26ZM110.562 13.04C109.482 17.0133 108.229 20.6133 106.802 23.84C106.536 24.44 106.262 24.9533 105.982 25.38C105.702 25.8067 105.389 26.16 105.042 26.44C104.696 26.72 104.309 26.92 103.882 27.04C103.456 27.1733 102.962 27.24 102.402 27.24C102.029 27.24 101.656 27.2 101.282 27.12C100.922 27.04 100.649 26.9533 100.462 26.86L100.902 24.92C101.382 25.1067 101.856 25.2 102.322 25.2C102.949 25.2 103.436 25.0467 103.782 24.74C104.142 24.4467 104.456 23.9867 104.722 23.36C103.962 21.8933 103.229 20.2933 102.522 18.56C101.829 16.8267 101.209 14.9867 100.662 13.04H103.242C103.376 13.6 103.536 14.2067 103.722 14.86C103.922 15.5133 104.136 16.18 104.362 16.86C104.589 17.5267 104.829 18.1933 105.082 18.86C105.336 19.5267 105.589 20.1467 105.842 20.72C106.269 19.5333 106.669 18.2733 107.042 16.94C107.416 15.5933 107.756 14.2933 108.062 13.04H110.562Z" fill="white"/>
<path d="M121.514 23.5C121.327 22.9533 121.134 22.4133 120.934 21.88C120.734 21.3467 120.54 20.8 120.354 20.24H114.514C114.327 20.8 114.134 21.3533 113.934 21.9C113.747 22.4333 113.56 22.9667 113.374 23.5H110.754C111.274 22.02 111.767 20.6533 112.234 19.4C112.7 18.1467 113.154 16.96 113.594 15.84C114.047 14.72 114.494 13.6533 114.934 12.64C115.374 11.6267 115.827 10.6267 116.294 9.64H118.674C119.14 10.6267 119.594 11.6267 120.034 12.64C120.474 13.6533 120.914 14.72 121.354 15.84C121.807 16.96 122.267 18.1467 122.734 19.4C123.214 20.6533 123.714 22.02 124.234 23.5H121.514ZM117.434 12.32C117.127 13.0267 116.774 13.8867 116.374 14.9C115.987 15.9133 115.58 17.0133 115.154 18.2H119.714C119.287 17.0133 118.874 15.9067 118.474 14.88C118.074 13.8533 117.727 13 117.434 12.32ZM132.605 18.24C132.605 17.2133 132.399 16.4 131.985 15.8C131.585 15.2 130.945 14.9 130.065 14.9C129.665 14.9 129.285 14.96 128.925 15.08C128.579 15.2 128.299 15.3333 128.085 15.48V21.5C128.259 21.54 128.479 21.58 128.745 21.62C129.025 21.6467 129.359 21.66 129.745 21.66C130.639 21.66 131.339 21.36 131.845 20.76C132.352 20.1467 132.605 19.3067 132.605 18.24ZM135.085 18.28C135.085 19.12 134.959 19.88 134.705 20.56C134.465 21.2267 134.112 21.8 133.645 22.28C133.192 22.76 132.639 23.1267 131.985 23.38C131.332 23.6333 130.592 23.76 129.765 23.76C128.965 23.76 128.199 23.7 127.465 23.58C126.745 23.46 126.145 23.3267 125.665 23.18V8.38L128.085 7.98V13.4C128.365 13.2533 128.705 13.12 129.105 13C129.519 12.88 129.972 12.82 130.465 12.82C131.199 12.82 131.852 12.9533 132.425 13.22C133.012 13.4733 133.499 13.84 133.885 14.32C134.272 14.8 134.565 15.38 134.765 16.06C134.979 16.7267 135.085 17.4667 135.085 18.28ZM139.819 23.5H137.399V13.04H139.819V23.5ZM140.079 9.98C140.079 10.4333 139.933 10.7933 139.639 11.06C139.346 11.3267 138.999 11.46 138.599 11.46C138.186 11.46 137.833 11.3267 137.539 11.06C137.246 10.7933 137.099 10.4333 137.099 9.98C137.099 9.51333 137.246 9.14667 137.539 8.88C137.833 8.61333 138.186 8.48 138.599 8.48C138.999 8.48 139.346 8.61333 139.639 8.88C139.933 9.14667 140.079 9.51333 140.079 9.98ZM146.347 23.7C145.627 23.6867 145.027 23.6067 144.547 23.46C144.08 23.3133 143.707 23.1067 143.427 22.84C143.147 22.56 142.947 22.22 142.827 21.82C142.72 21.4067 142.667 20.94 142.667 20.42V8.38L145.087 7.98V19.96C145.087 20.2533 145.107 20.5 145.147 20.7C145.2 20.9 145.287 21.0733 145.407 21.22C145.527 21.3533 145.687 21.46 145.887 21.54C146.1 21.6067 146.367 21.66 146.687 21.7L146.347 23.7ZM150.884 23.5H148.464V13.04H150.884V23.5ZM151.144 9.98C151.144 10.4333 150.998 10.7933 150.704 11.06C150.411 11.3267 150.064 11.46 149.664 11.46C149.251 11.46 148.898 11.3267 148.604 11.06C148.311 10.7933 148.164 10.4333 148.164 9.98C148.164 9.51333 148.311 9.14667 148.604 8.88C148.898 8.61333 149.251 8.48 149.664 8.48C150.064 8.48 150.411 8.61333 150.704 8.88C150.998 9.14667 151.144 9.51333 151.144 9.98ZM153.652 10.28L156.072 9.88V13.04H159.792V15.06H156.072V19.32C156.072 20.16 156.205 20.76 156.472 21.12C156.738 21.48 157.192 21.66 157.832 21.66C158.272 21.66 158.658 21.6133 158.992 21.52C159.338 21.4267 159.612 21.34 159.812 21.26L160.212 23.18C159.932 23.3 159.565 23.42 159.112 23.54C158.658 23.6733 158.125 23.74 157.512 23.74C156.765 23.74 156.138 23.64 155.632 23.44C155.138 23.24 154.745 22.9533 154.452 22.58C154.158 22.1933 153.952 21.7333 153.832 21.2C153.712 20.6533 153.652 20.0333 153.652 19.34V10.28ZM170.471 13.04C169.391 17.0133 168.138 20.6133 166.711 23.84C166.444 24.44 166.171 24.9533 165.891 25.38C165.611 25.8067 165.298 26.16 164.951 26.44C164.604 26.72 164.218 26.92 163.791 27.04C163.364 27.1733 162.871 27.24 162.311 27.24C161.938 27.24 161.564 27.2 161.191 27.12C160.831 27.04 160.558 26.9533 160.371 26.86L160.811 24.92C161.291 25.1067 161.764 25.2 162.231 25.2C162.858 25.2 163.344 25.0467 163.691 24.74C164.051 24.4467 164.364 23.9867 164.631 23.36C163.871 21.8933 163.138 20.2933 162.431 18.56C161.738 16.8267 161.118 14.9867 160.571 13.04H163.151C163.284 13.6 163.444 14.2067 163.631 14.86C163.831 15.5133 164.044 16.18 164.271 16.86C164.498 17.5267 164.738 18.1933 164.991 18.86C165.244 19.5267 165.498 20.1467 165.751 20.72C166.178 19.5333 166.578 18.2733 166.951 16.94C167.324 15.5933 167.664 14.2933 167.971 13.04H170.471ZM174.822 22.18C174.822 22.6467 174.662 23.0267 174.342 23.32C174.035 23.6133 173.662 23.76 173.222 23.76C172.769 23.76 172.389 23.6133 172.082 23.32C171.775 23.0267 171.622 22.6467 171.622 22.18C171.622 21.7133 171.775 21.3333 172.082 21.04C172.389 20.7333 172.769 20.58 173.222 20.58C173.662 20.58 174.035 20.7333 174.342 21.04C174.662 21.3333 174.822 21.7133 174.822 22.18ZM186.984 23.5C186.797 22.9533 186.604 22.4133 186.404 21.88C186.204 21.3467 186.01 20.8 185.824 20.24H179.984C179.797 20.8 179.604 21.3533 179.404 21.9C179.217 22.4333 179.03 22.9667 178.844 23.5H176.224C176.744 22.02 177.237 20.6533 177.704 19.4C178.17 18.1467 178.624 16.96 179.064 15.84C179.517 14.72 179.964 13.6533 180.404 12.64C180.844 11.6267 181.297 10.6267 181.764 9.64H184.144C184.61 10.6267 185.064 11.6267 185.504 12.64C185.944 13.6533 186.384 14.72 186.824 15.84C187.277 16.96 187.737 18.1467 188.204 19.4C188.684 20.6533 189.184 22.02 189.704 23.5H186.984ZM182.904 12.32C182.597 13.0267 182.244 13.8867 181.844 14.9C181.457 15.9133 181.05 17.0133 180.624 18.2H185.184C184.757 17.0133 184.344 15.9067 183.944 14.88C183.544 13.8533 183.197 13 182.904 12.32ZM191.256 9.64H193.776V23.5H191.256V9.64Z" fill="#0AD472"/>
</svg>
