<svg width="25" height="25" viewBox="0 0 25 25" fill="none" xmlns="http://www.w3.org/2000/svg">
<mask id="mask0_40005026_4417" style="mask-type:alpha" maskUnits="userSpaceOnUse" x="0" y="0" width="25" height="25">
<rect width="24" height="24" transform="matrix(-1 0 0 1 24.627 0.4375)" fill="#D9D9D9"/>
</mask>
<g mask="url(#mask0_40005026_4417)">
<path d="M12.627 22.437C13.877 22.437 15.0478 22.1995 16.1395 21.7245C17.2311 21.2495 18.1811 20.6079 18.9895 19.7995C19.7978 18.9912 20.4395 18.0412 20.9145 16.9495C21.3895 15.8579 21.627 14.687 21.627 13.437C21.627 12.187 21.3895 11.0162 20.9145 9.92452C20.4395 8.83286 19.7978 7.88286 18.9895 7.07452C18.1811 6.26619 17.2311 5.62452 16.1395 5.14952C15.0478 4.67452 13.877 4.43702 12.627 4.43702H12.477L13.327 3.58702C13.527 3.38702 13.6228 3.15369 13.6145 2.88702C13.6061 2.62036 13.5103 2.38702 13.327 2.18702C13.127 1.98702 12.8895 1.88286 12.6145 1.87452C12.3395 1.86619 12.102 1.96202 11.902 2.16202L9.32695 4.73702C9.12695 4.93702 9.02695 5.17036 9.02695 5.43702C9.02695 5.70369 9.12695 5.93702 9.32695 6.13702L11.902 8.71202C12.102 8.91202 12.3395 9.00786 12.6145 8.99952C12.8895 8.99119 13.127 8.88702 13.327 8.68702C13.5103 8.48702 13.6061 8.25369 13.6145 7.98702C13.6228 7.72036 13.527 7.48702 13.327 7.28702L12.477 6.43702H12.627C14.577 6.43702 16.2311 7.11619 17.5895 8.47452C18.9478 9.83286 19.627 11.487 19.627 13.437C19.627 15.387 18.9478 17.0412 17.5895 18.3995C16.2311 19.7579 14.577 20.437 12.627 20.437C10.677 20.437 9.02279 19.7579 7.66445 18.3995C6.30612 17.0412 5.62695 15.387 5.62695 13.437C5.62695 13.1537 5.53112 12.9162 5.33945 12.7245C5.14779 12.5329 4.91029 12.437 4.62695 12.437C4.34362 12.437 4.10612 12.5329 3.91445 12.7245C3.72279 12.9162 3.62695 13.1537 3.62695 13.437C3.62695 14.687 3.86445 15.8579 4.33945 16.9495C4.81445 18.0412 5.45612 18.9912 6.26445 19.7995C7.07279 20.6079 8.02279 21.2495 9.11445 21.7245C10.2061 22.1995 11.377 22.437 12.627 22.437Z" fill="white"/>
<path d="M11.377 16.4365H14.127C14.4103 16.4365 14.6478 16.3407 14.8395 16.149C15.0311 15.9574 15.127 15.7199 15.127 15.4365V13.6865C15.127 13.4699 15.0561 13.2907 14.9145 13.149C14.7728 13.0074 14.5936 12.9365 14.377 12.9365H12.127V11.9365H14.377C14.5936 11.9365 14.7728 11.8657 14.9145 11.724C15.0561 11.5824 15.127 11.4032 15.127 11.1865C15.127 10.9699 15.0561 10.7907 14.9145 10.649C14.7728 10.5074 14.5936 10.4365 14.377 10.4365H11.377C11.1603 10.4365 10.9811 10.5074 10.8395 10.649C10.6978 10.7907 10.627 10.9699 10.627 11.1865V13.1865C10.627 13.4032 10.6978 13.5824 10.8395 13.724C10.9811 13.8657 11.1603 13.9365 11.377 13.9365H13.627V14.9365H11.377C11.1603 14.9365 10.9811 15.0074 10.8395 15.149C10.6978 15.2907 10.627 15.4699 10.627 15.6865C10.627 15.9032 10.6978 16.0824 10.8395 16.224C10.9811 16.3657 11.1603 16.4365 11.377 16.4365Z" fill="white"/>
</g>
</svg>
