<svg width="25" height="25" viewBox="0 0 25 25" fill="none" xmlns="http://www.w3.org/2000/svg">
<mask id="mask0_40005026_4420" style="mask-type:alpha" maskUnits="userSpaceOnUse" x="0" y="0" width="25" height="25">
<rect x="0.626953" y="0.4375" width="24" height="24" fill="#D9D9D9"/>
</mask>
<g mask="url(#mask0_40005026_4420)">
<path d="M12.627 22.437C11.377 22.437 10.2061 22.1995 9.11445 21.7245C8.02279 21.2495 7.07279 20.6079 6.26445 19.7995C5.45612 18.9912 4.81445 18.0412 4.33945 16.9495C3.86445 15.8579 3.62695 14.687 3.62695 13.437C3.62695 12.187 3.86445 11.0162 4.33945 9.92452C4.81445 8.83286 5.45612 7.88286 6.26445 7.07452C7.07279 6.26619 8.02279 5.62452 9.11445 5.14952C10.2061 4.67452 11.377 4.43702 12.627 4.43702H12.777L11.927 3.58702C11.727 3.38702 11.6311 3.15369 11.6395 2.88702C11.6478 2.62036 11.7436 2.38702 11.927 2.18702C12.127 1.98702 12.3645 1.88286 12.6395 1.87452C12.9145 1.86619 13.152 1.96202 13.352 2.16202L15.927 4.73702C16.127 4.93702 16.227 5.17036 16.227 5.43702C16.227 5.70369 16.127 5.93702 15.927 6.13702L13.352 8.71202C13.152 8.91202 12.9145 9.00786 12.6395 8.99952C12.3645 8.99119 12.127 8.88702 11.927 8.68702C11.7436 8.48702 11.6478 8.25369 11.6395 7.98702C11.6311 7.72036 11.727 7.48702 11.927 7.28702L12.777 6.43702H12.627C10.677 6.43702 9.02279 7.11619 7.66445 8.47452C6.30612 9.83286 5.62695 11.487 5.62695 13.437C5.62695 15.387 6.30612 17.0412 7.66445 18.3995C9.02279 19.7579 10.677 20.437 12.627 20.437C14.577 20.437 16.2311 19.7579 17.5895 18.3995C18.9478 17.0412 19.627 15.387 19.627 13.437C19.627 13.1537 19.7228 12.9162 19.9145 12.7245C20.1061 12.5329 20.3436 12.437 20.627 12.437C20.9103 12.437 21.1478 12.5329 21.3395 12.7245C21.5311 12.9162 21.627 13.1537 21.627 13.437C21.627 14.687 21.3895 15.8579 20.9145 16.9495C20.4395 18.0412 19.7978 18.9912 18.9895 19.7995C18.1811 20.6079 17.2311 21.2495 16.1395 21.7245C15.0478 22.1995 13.877 22.437 12.627 22.437ZM13.627 16.437H10.877C10.6603 16.437 10.4811 16.3662 10.3395 16.2245C10.1978 16.0829 10.127 15.9037 10.127 15.687C10.127 15.4704 10.1978 15.2912 10.3395 15.1495C10.4811 15.0079 10.6603 14.937 10.877 14.937H13.127V13.937H10.877C10.6603 13.937 10.4811 13.8662 10.3395 13.7245C10.1978 13.5829 10.127 13.4037 10.127 13.187V11.187C10.127 10.9704 10.1978 10.7912 10.3395 10.6495C10.4811 10.5079 10.6603 10.437 10.877 10.437H13.877C14.0936 10.437 14.2728 10.5079 14.4145 10.6495C14.5561 10.7912 14.627 10.9704 14.627 11.187C14.627 11.4037 14.5561 11.5829 14.4145 11.7245C14.2728 11.8662 14.0936 11.937 13.877 11.937H11.627V12.937H13.877C14.0936 12.937 14.2728 13.0079 14.4145 13.1495C14.5561 13.2912 14.627 13.4704 14.627 13.687V15.437C14.627 15.7204 14.5311 15.9579 14.3395 16.1495C14.1478 16.3412 13.9103 16.437 13.627 16.437Z" fill="white"/>
</g>
</svg>
