<svg width="22" height="10" viewBox="0 0 22 10" fill="none" xmlns="http://www.w3.org/2000/svg">
<path id="groups" d="M1.29024 10C1.06639 10 0.878685 9.92089 0.72712 9.76266C0.575707 9.60428 0.5 9.40812 0.5 9.1742V8.83668C0.5 8.20186 0.817207 7.68043 1.45162 7.27238C2.08618 6.86449 2.91325 6.66055 3.93282 6.66055C4.10127 6.66055 4.27095 6.66603 4.44184 6.677C4.61273 6.68798 4.78484 6.70936 4.95816 6.74117C4.78027 7.03854 4.64826 7.34712 4.56213 7.66691C4.47615 7.98687 4.43316 8.31501 4.43316 8.65134V10H1.29024ZM6.80708 10C6.56938 10 6.37186 9.91731 6.21451 9.75193C6.05701 9.5867 5.97826 9.38188 5.97826 9.13747V8.68807C5.97826 8.24138 6.09825 7.83309 6.33823 7.46321C6.57821 7.09316 6.9241 6.77059 7.3759 6.49548C7.82771 6.22021 8.36153 6.0138 8.97738 5.87625C9.59308 5.73854 10.2661 5.66968 10.9966 5.66968C11.741 5.66968 12.4211 5.73854 13.0368 5.87625C13.6525 6.0138 14.1862 6.22021 14.638 6.49548C15.09 6.77059 15.4336 7.09316 15.6688 7.46321C15.9041 7.83309 16.0217 8.24138 16.0217 8.68807V9.13747C16.0217 9.38188 15.9426 9.5867 15.7843 9.75193C15.6262 9.91731 15.4302 10 15.1963 10H6.80708ZM17.5668 10V8.65253C17.5668 8.2933 17.5262 7.9553 17.4449 7.63853C17.3635 7.32176 17.2415 7.02264 17.0788 6.74117C17.2579 6.70936 17.4291 6.68798 17.5924 6.677C17.7557 6.66603 17.9169 6.66055 18.0761 6.66055C19.0957 6.66055 19.9212 6.86211 20.5527 7.26522C21.1842 7.66819 21.5 8.192 21.5 8.83668V9.1742C21.5 9.40812 21.4243 9.60428 21.2729 9.76266C21.1213 9.92089 20.9336 10 20.7098 10H17.5668ZM7.41813 8.56881H14.596V8.46791C14.5024 8.0826 14.1138 7.75843 13.4301 7.49541C12.7465 7.23239 11.9365 7.10088 11 7.10088C10.0635 7.10088 9.2535 7.23239 8.56993 7.49541C7.88622 7.75843 7.50228 8.0826 7.41813 8.46791V8.56881ZM3.9303 5.73385C3.49996 5.73385 3.1323 5.57395 2.82735 5.25416C2.52239 4.93436 2.36991 4.54993 2.36991 4.10085C2.36991 3.64589 2.523 3.26154 2.82917 2.94779C3.1352 2.63404 3.50308 2.47716 3.93282 2.47716C4.36819 2.47716 4.73743 2.63404 5.04057 2.94779C5.34385 3.26154 5.49549 3.64685 5.49549 4.10371C5.49549 4.54707 5.34545 4.92959 5.04536 5.25129C4.74542 5.573 4.37374 5.73385 3.9303 5.73385ZM18.0761 5.73385C17.65 5.73385 17.283 5.573 16.9752 5.25129C16.6673 4.92959 16.5134 4.54707 16.5134 4.10371C16.5134 3.64685 16.6673 3.26154 16.9752 2.94779C17.283 2.63404 17.6505 2.47716 18.0777 2.47716C18.5179 2.47716 18.8882 2.63404 19.1884 2.94779C19.4886 3.26154 19.6388 3.64589 19.6388 4.10085C19.6388 4.54993 19.489 4.93436 19.1895 5.25416C18.8901 5.57395 18.5189 5.73385 18.0761 5.73385ZM11.0032 4.95408C10.3455 4.95408 9.7855 4.71324 9.3232 4.23157C8.86089 3.75005 8.62974 3.16525 8.62974 2.47716C8.62974 1.77524 8.86013 1.18694 9.32091 0.712258C9.78185 0.237419 10.3415 0 11 0C11.6715 0 12.2345 0.237102 12.6889 0.711304C13.1431 1.18535 13.3703 1.77285 13.3703 2.47382C13.3703 3.16095 13.1434 3.74615 12.6898 4.22942C12.236 4.71253 11.6738 4.95408 11.0032 4.95408ZM11.0043 3.52289C11.2836 3.52289 11.5194 3.42079 11.7119 3.21661C11.9046 3.01227 12.0009 2.7642 12.0009 2.47239C12.0009 2.18074 11.905 1.93426 11.7131 1.73294C11.5212 1.53178 11.2835 1.4312 11 1.4312C10.7238 1.4312 10.4879 1.53146 10.2924 1.73198C10.0968 1.93235 9.99908 2.18074 9.99908 2.47716C9.99908 2.76578 10.0968 3.01227 10.2924 3.21661C10.4879 3.42079 10.7253 3.52289 11.0043 3.52289Z" fill="#909091"/>
</svg>
