<svg width="20" height="18" viewBox="0 0 20 18" fill="none" xmlns="http://www.w3.org/2000/svg">
<path id="corporate_fare" d="M1.99779 18C1.58201 18 1.22844 17.848 0.937062 17.5441C0.645687 17.24 0.5 16.8711 0.5 16.4373V1.5624C0.5 1.12869 0.645687 0.759857 0.937062 0.455914C1.22844 0.151971 1.58201 0 1.99779 0H8.36934C8.78512 0 9.13869 0.151971 9.43007 0.455914C9.72144 0.759857 9.86713 1.12869 9.86713 1.5624V4.11429H18.0022C18.418 4.11429 18.7716 4.26626 19.0629 4.5702C19.3543 4.87414 19.5 5.24297 19.5 5.67669V16.4373C19.5 16.8711 19.3543 17.24 19.0629 17.5441C18.7716 17.848 18.418 18 18.0022 18H1.99779ZM1.97881 16.4571H8.38832V13.8857H1.97881V16.4571ZM1.97881 12.3429H8.38832V9.77143H1.97881V12.3429ZM1.97881 8.22857H8.38832V5.65714H1.97881V8.22857ZM1.97881 4.11429H8.38832V1.54286H1.97881V4.11429ZM9.86713 16.4571H18.0212V5.65714H9.86713V16.4571ZM12.7686 9.77143C12.559 9.77143 12.3833 9.69746 12.2415 9.54951C12.0999 9.40157 12.029 9.21823 12.029 8.99949C12.029 8.78091 12.0999 8.59774 12.2415 8.44997C12.3833 8.30237 12.559 8.22857 12.7686 8.22857H14.9302C15.1397 8.22857 15.3153 8.30254 15.457 8.45049C15.5988 8.59826 15.6697 8.78151 15.6697 9.00026C15.6697 9.219 15.5988 9.40217 15.457 9.54977C15.3153 9.69754 15.1397 9.77143 14.9302 9.77143H12.7686ZM12.7686 13.8857C12.559 13.8857 12.3833 13.8117 12.2415 13.6638C12.0999 13.5159 12.029 13.3325 12.029 13.1138C12.029 12.8952 12.0999 12.712 12.2415 12.5643C12.3833 12.4167 12.559 12.3429 12.7686 12.3429H14.9302C15.1397 12.3429 15.3153 12.4168 15.457 12.5648C15.5988 12.7125 15.6697 12.8958 15.6697 13.1145C15.6697 13.3333 15.5988 13.5165 15.457 13.6641C15.3153 13.8118 15.1397 13.8857 14.9302 13.8857H12.7686Z" fill="#909091"/>
</svg>
