<svg width="16" height="20" viewBox="0 0 16 20" fill="none" xmlns="http://www.w3.org/2000/svg">
<path id="location_on" d="M7.99917 17.7934C9.95551 16.0421 11.4526 14.3622 12.4904 12.7539C13.5283 11.1456 14.0472 9.73691 14.0472 8.52791C14.0472 6.70491 13.468 5.20624 12.3097 4.03191C11.1513 2.85757 9.71451 2.27041 7.99917 2.27041C6.28384 2.27041 4.847 2.85757 3.68867 4.03191C2.53034 5.20624 1.95117 6.70491 1.95117 8.52791C1.95117 9.73691 2.47009 11.1456 3.50792 12.7539C4.54576 14.3622 6.04284 16.0421 7.99917 17.7934ZM7.99917 19.2202C7.80434 19.2202 7.6095 19.1866 7.41467 19.1194C7.21967 19.0521 7.04334 18.9479 6.88567 18.8069C5.98834 17.9799 5.14859 17.1282 4.36642 16.2519C3.58442 15.3757 2.90467 14.4998 2.32717 13.6242C1.74951 12.7485 1.29242 11.8806 0.955922 11.0204C0.619422 10.1601 0.451172 9.32924 0.451172 8.52791C0.451172 6.22024 1.19759 4.35199 2.69042 2.92316C4.18342 1.49432 5.953 0.779907 7.99917 0.779907C10.0453 0.779907 11.8149 1.49432 13.3079 2.92316C14.8008 4.35199 15.5472 6.22024 15.5472 8.52791C15.5472 9.32924 15.3789 10.1584 15.0424 11.0154C14.7059 11.8726 14.2505 12.7406 13.6762 13.6194C13.1017 14.4982 12.4234 15.3742 11.6414 16.2472C10.8594 17.1203 10.0197 17.9703 9.12217 18.7972C8.96684 18.9382 8.79026 19.0439 8.59242 19.1144C8.39476 19.1849 8.19701 19.2202 7.99917 19.2202ZM8.00092 10.1452C8.49842 10.1452 8.92375 9.96799 9.27692 9.61366C9.63025 9.25933 9.80692 8.83341 9.80692 8.33591C9.80692 7.83841 9.62975 7.41299 9.27542 7.05966C8.92109 6.70649 8.49509 6.52991 7.99742 6.52991C7.49992 6.52991 7.07459 6.70707 6.72142 7.06141C6.36809 7.41574 6.19142 7.84174 6.19142 8.33941C6.19142 8.83691 6.36859 9.26224 6.72292 9.61541C7.07726 9.96857 7.50325 10.1452 8.00092 10.1452Z" fill="#909091"/>
</svg>
