<svg width="28" height="28" viewBox="0 0 28 28" fill="none" xmlns="http://www.w3.org/2000/svg">
<path d="M2.97747 28C2.14543 28 1.44118 27.7118 0.864706 27.1353C0.288235 26.5588 0 25.8546 0 25.0225V2.97747C0 2.14543 0.288235 1.44118 0.864706 0.864706C1.44118 0.288235 2.14543 0 2.97747 0H14.0951C14.4451 0 14.7384 0.118451 14.9751 0.355353C15.212 0.592255 15.3304 0.885706 15.3304 1.23571C15.3304 1.58598 15.212 1.87929 14.9751 2.11565C14.7384 2.35227 14.4451 2.47059 14.0951 2.47059H2.97747C2.82951 2.47059 2.70804 2.51808 2.61306 2.61306C2.51808 2.70804 2.47059 2.82951 2.47059 2.97747V25.0225C2.47059 25.1705 2.51808 25.292 2.61306 25.3869C2.70804 25.4819 2.82951 25.5294 2.97747 25.5294H25.0225C25.1705 25.5294 25.292 25.4819 25.3869 25.3869C25.4819 25.292 25.5294 25.1705 25.5294 25.0225V13.9049C25.5294 13.5549 25.6479 13.2616 25.8848 13.0249C26.1217 12.788 26.4151 12.6696 26.7651 12.6696C27.1154 12.6696 27.4087 12.788 27.6451 13.0249C27.8817 13.2616 28 13.5549 28 13.9049V25.0225C28 25.8546 27.7118 26.5588 27.1353 27.1353C26.5588 27.7118 25.8546 28 25.0225 28H2.97747Z" fill="#001630"/>
<path d="M4.42188 22.4652H22.9192L17.1705 14.8002L12.2293 21.2143L8.72935 16.7639L4.42188 22.4652ZM21.9058 6.50152H19.847C19.497 6.50152 19.2035 6.38307 18.9666 6.14617C18.73 5.90927 18.6117 5.61582 18.6117 5.26582C18.6117 4.91554 18.73 4.62223 18.9666 4.38587C19.2035 4.14925 19.497 4.03093 19.847 4.03093H21.9058V1.97211C21.9058 1.62211 22.0243 1.3288 22.2612 1.09217C22.4981 0.855268 22.7915 0.736816 23.1415 0.736816C23.4918 0.736816 23.7851 0.855268 24.0215 1.09217C24.2581 1.3288 24.3764 1.62211 24.3764 1.97211V4.03093H26.4352C26.7852 4.03093 27.0785 4.14939 27.3152 4.38629C27.5521 4.62319 27.6705 4.91664 27.6705 5.26664C27.6705 5.61691 27.5521 5.91023 27.3152 6.14658C27.0785 6.38321 26.7852 6.50152 26.4352 6.50152H24.3764V8.56035C24.3764 8.91035 24.258 9.2038 24.0211 9.4407C23.7841 9.67733 23.4907 9.79564 23.1407 9.79564C22.7904 9.79564 22.4971 9.67733 22.2608 9.4407C22.0241 9.2038 21.9058 8.91035 21.9058 8.56035V6.50152Z" fill="#1FD167"/>
</svg>
