<svg xmlns="http://www.w3.org/2000/svg" width="20" height="20" viewBox="0 0 20 20" fill="none">
	<path d="M10.0018 20C8.61868 20 7.3186 19.7375 6.10158 19.2126C4.88456 18.6877 3.82596 17.9754 2.92579 17.0755C2.02561 16.1757 1.31289 15.1175 0.787631 13.9011C0.262544 12.6846 0 11.3848 0 10.0018C0 8.61868 0.262544 7.3186 0.787631 6.10158C1.31254 4.88456 2.025 3.82596 2.925 2.92579C3.825 2.02561 4.88333 1.31289 6.1 0.787631C7.31667 0.262544 8.61667 0 10 0H18.0971C18.6289 0 19.0789 0.184211 19.4474 0.552632C19.8158 0.921053 20 1.37114 20 1.90289V10C20 11.3833 19.7375 12.6833 19.2126 13.9C18.6877 15.1167 17.9754 16.175 17.0755 17.075C16.1757 17.975 15.1175 18.6875 13.9011 19.2124C12.6846 19.7375 11.3848 20 10.0018 20ZM10 18.4211C12.3509 18.4211 14.3421 17.6053 15.9737 15.9737C17.6053 14.3421 18.4211 12.3509 18.4211 10V1.90289C18.4211 1.80833 18.3907 1.7307 18.33 1.67C18.2693 1.6093 18.1917 1.57895 18.0971 1.57895H10C7.64912 1.57895 5.6579 2.39474 4.02632 4.02632C2.39474 5.6579 1.57895 7.64912 1.57895 10C1.57895 12.3509 2.39474 14.3421 4.02632 15.9737C5.6579 17.6053 7.64912 18.4211 10 18.4211ZM5.14184 11.8137C5.14184 12.366 5.58956 12.8137 6.14184 12.8137H11.9837V10.7084L14.3642 12.2955C14.6965 12.517 15.1416 12.2788 15.1416 11.8794V7.95847C15.1416 7.55912 14.6965 7.32093 14.3642 7.54244L11.9837 9.12947V7.02421H6.14184C5.58956 7.02421 5.14184 7.47193 5.14184 8.02421V11.8137Z" fill="#2D96FF" />
</svg>
