<svg xmlns="http://www.w3.org/2000/svg" width="18" height="17" viewBox="0 0 18 17" fill="none">
	<path d="M13.2922 12.7228L14.7153 14.1458C14.8024 14.233 14.9098 14.2782 15.0375 14.2813C15.165 14.2845 15.2755 14.2393 15.369 14.1458C15.4627 14.0522 15.5095 13.9432 15.5095 13.8188C15.5095 13.6945 15.4627 13.5855 15.369 13.4918L13.9615 12.0843L15.3845 10.6611C15.4717 10.5739 15.5168 10.4666 15.52 10.3391C15.5233 10.2116 15.4782 10.101 15.3845 10.0073C15.2908 9.91366 15.1818 9.86683 15.0575 9.86683C14.9332 9.86683 14.8243 9.91366 14.7308 10.0073L13.3075 11.4303L11.8845 10.0073C11.7973 9.92016 11.69 9.87499 11.5625 9.87183C11.4348 9.86849 11.3243 9.91366 11.2308 10.0073C11.1371 10.101 11.0903 10.21 11.0903 10.3343C11.0903 10.4587 11.1371 10.5676 11.2308 10.6611L12.6538 12.0843L11.2153 13.5228C11.1281 13.61 11.0829 13.7122 11.0797 13.8293C11.0766 13.9467 11.1218 14.0522 11.2153 14.1458C11.3089 14.2393 11.4179 14.2861 11.5422 14.2861C11.6666 14.2861 11.7755 14.2393 11.869 14.1458L13.2922 12.7228ZM0 13.1838V1.33383C0 0.999494 0.133 0.744495 0.399 0.568828C0.665 0.393328 0.948667 0.368995 1.25 0.495828L11.0615 4.65158C11.3015 4.75208 11.4467 4.89966 11.4972 5.09433C11.5477 5.289 11.5355 5.47441 11.4605 5.65058C11.3855 5.82675 11.2605 5.96516 11.0855 6.06583C10.9105 6.16666 10.6999 6.16641 10.4537 6.06508L1.5 2.27658V5.96883L4.1865 6.61883C4.357 6.66416 4.48483 6.74733 4.57 6.86833C4.65533 6.98933 4.698 7.12541 4.698 7.27658C4.698 7.42774 4.65533 7.56383 4.57 7.68483C4.48483 7.80583 4.357 7.88899 4.1865 7.93433L1.5 8.58433V12.2766L5.927 10.4036C6.16033 10.3022 6.36175 10.2984 6.53125 10.3921C6.70075 10.4857 6.82317 10.6201 6.8985 10.7951C6.97383 10.9699 6.98625 11.1547 6.93575 11.3493C6.88525 11.544 6.74 11.6915 6.5 11.7918L1.26525 14.0188C0.964083 14.1458 0.677916 14.1219 0.40675 13.9471C0.135583 13.7724 0 13.518 0 13.1838ZM13.3075 16.5843C12.0588 16.5843 10.9967 16.1465 10.121 15.2708C9.2455 14.3952 8.80775 13.333 8.80775 12.0843C8.80775 10.8355 9.2455 9.77333 10.121 8.89783C10.9967 8.02216 12.0588 7.58433 13.3075 7.58433C14.5563 7.58433 15.6185 8.02216 16.494 8.89783C17.3697 9.77333 17.8075 10.8355 17.8075 12.0843C17.8075 13.333 17.3697 14.3952 16.494 15.2708C15.6185 16.1465 14.5563 16.5843 13.3075 16.5843Z" fill="#414447" />
</svg>
