<svg xmlns="http://www.w3.org/2000/svg" width="20" height="18" viewBox="0 0 20 18" fill="none">
	<path fill-rule="evenodd" clip-rule="evenodd" d="M0.5 2.30775V13.6923C0.5 14.1894 0.677 14.615 1.031 14.969C1.385 15.323 1.81058 15.5 2.30775 15.5H4.25C4.4625 15.5 4.64067 15.4282 4.7845 15.2845C4.92817 15.141 5 14.9629 5 14.7503C5 14.5378 4.92817 14.3596 4.7845 14.2158C4.64067 14.0719 4.4625 14 4.25 14H2.30775C2.23075 14 2.16025 13.9679 2.09625 13.9038C2.03208 13.8398 2 13.7692 2 13.6923V2.30775C2 2.23075 2.03208 2.16025 2.09625 2.09625C2.16025 2.03208 2.23075 2 2.30775 2H17.6923C17.7693 2 17.8398 2.03208 17.9038 2.09625C17.9679 2.16025 18 2.23075 18 2.30775V13.6923C18 13.7692 17.9679 13.8398 17.9038 13.9038C17.8398 13.9679 17.7693 14 17.6923 14H15.75C15.5375 14 15.3593 14.0718 15.2155 14.2155C15.0718 14.359 15 14.5371 15 14.7498C15 14.9622 15.0718 15.1404 15.2155 15.2843C15.3593 15.4281 15.5375 15.5 15.75 15.5H17.6923C18.1894 15.5 18.615 15.323 18.969 14.969C19.323 14.615 19.5 14.1894 19.5 13.6923V2.30775C19.5 1.80258 19.325 1.375 18.975 1.025C18.625 0.675 18.1974 0.5 17.6923 0.5H2.30775C1.80258 0.5 1.375 0.675 1.025 1.025C0.675 1.375 0.5 1.80258 0.5 2.30775ZM5.83775 17.2838C5.95925 17.4279 6.12617 17.5 6.3385 17.5H13.6615C13.8738 17.5 14.0407 17.4273 14.1622 17.2818C14.2836 17.1363 14.3443 16.9818 14.3443 16.8183C14.3443 16.7439 14.329 16.6658 14.2985 16.584C14.268 16.5023 14.2147 16.4243 14.1385 16.35L10.6726 12.8841C11.4463 12.6079 12 11.8686 12 11C12 9.89543 11.1046 9 10 9C8.89543 9 8 9.89543 8 11C8 11.8686 8.55371 12.6079 9.32741 12.8841L5.8615 16.35C5.78533 16.4242 5.732 16.502 5.7015 16.5835C5.671 16.6652 5.65575 16.7431 5.65575 16.8173C5.65575 16.9841 5.71642 17.1396 5.83775 17.2838Z" fill="#8A73FF" />
</svg>
