<svg xmlns="http://www.w3.org/2000/svg" width="17" height="17" viewBox="0 0 17 17" fill="none">
	<path d="M11.8277 13.0166L10.7274 11.9162C10.6618 11.8506 10.5793 11.8171 10.48 11.8155C10.3807 11.814 10.2968 11.8476 10.2281 11.9162C10.1595 11.9848 10.1252 12.0681 10.1252 12.1658C10.1252 12.2635 10.1595 12.3467 10.2281 12.4154L11.528 13.7153C11.6137 13.8009 11.7136 13.8437 11.8277 13.8437C11.9419 13.8437 12.0418 13.8009 12.1274 13.7153L14.7628 11.08C14.8283 11.0144 14.8619 10.9319 14.8634 10.8326C14.8649 10.7334 14.8314 10.6494 14.7628 10.5807C14.6941 10.5121 14.6109 10.4778 14.5132 10.4778C14.4154 10.4778 14.3322 10.5121 14.2635 10.5807L11.8277 13.0166ZM12.5008 16.5C11.8784 16.5 11.2934 16.3819 10.7457 16.1457C10.1981 15.9095 9.72168 15.5889 9.31661 15.184C8.91153 14.7791 8.5908 14.3029 8.35443 13.7555C8.11814 13.2081 8 12.6232 8 12.0008C8 11.3784 8.11811 10.7934 8.35432 10.2457C8.59053 9.69805 8.91109 9.22168 9.31601 8.81661C9.72093 8.41153 10.1971 8.0908 10.7445 7.85443C11.2919 7.61814 11.8768 7.5 12.4992 7.5C13.1216 7.5 13.7066 7.61811 14.2543 7.85432C14.8019 8.09053 15.2783 8.41109 15.6834 8.81601C16.0885 9.22093 16.4092 9.69711 16.6456 10.2445C16.8819 10.7919 17 11.3768 17 11.9992C17 12.6216 16.8819 13.2066 16.6457 13.7543C16.4095 14.3019 16.0889 14.7783 15.684 15.1834C15.2791 15.5885 14.8029 15.9092 14.2555 16.1456C13.7081 16.3819 13.1232 16.5 12.5008 16.5Z" fill="#10B754" />
	<path d="M0 13.2678V1.41781C0 1.08348 0.133 0.828479 0.399 0.652812C0.665 0.477312 0.948667 0.45298 1.25 0.579813L11.0615 4.73556C11.3015 4.83606 11.4467 4.98365 11.4972 5.17831C11.5477 5.37298 11.5355 5.5584 11.4605 5.73456C11.3855 5.91073 11.2605 6.04915 11.0855 6.14981C10.9105 6.25065 10.6999 6.2504 10.4537 6.14906L1.5 2.36056V6.05281L4.1865 6.70281C4.357 6.74815 4.48483 6.83131 4.57 6.95231C4.65533 7.07331 4.698 7.2094 4.698 7.36056C4.698 7.51173 4.65533 7.64781 4.57 7.76881C4.48483 7.88981 4.357 7.97298 4.1865 8.01831L1.5 8.66831V12.3606L5.927 10.4876C6.16033 10.3862 6.36175 10.3824 6.53125 10.4761C6.70075 10.5697 6.82317 10.7041 6.8985 10.8791C6.97383 11.0539 6.98625 11.2386 6.93575 11.4333C6.88525 11.628 6.74 11.7755 6.5 11.8758L1.26525 14.1028C0.964083 14.2298 0.677916 14.2059 0.40675 14.0311C0.135583 13.8564 0 13.602 0 13.2678Z" fill="#10B754" />
</svg>
