<svg width="400" height="322" viewBox="0 0 400 322" fill="none" xmlns="http://www.w3.org/2000/svg">
<ellipse cx="210.734" cy="171.328" rx="189" ry="33" fill="#E1F2EA"/>
<path fill-rule="evenodd" clip-rule="evenodd" d="M258.428 129.419C259.462 129.968 260.815 130.17 262.486 130.024L302.016 126.565L317.625 125.2V150.285C317.625 150.291 317.625 150.297 317.625 150.304C317.629 152.998 318.458 154.793 320.11 155.689C321.149 156.251 322.512 156.458 324.201 156.31L339.377 154.983C343.761 154.599 345.953 152.207 345.953 147.806V122.721L358.296 121.641C362.613 121.264 364.771 118.874 364.771 114.474V102.49C364.771 98.0888 362.579 96.0801 358.195 96.4637L345.953 97.5347V14.7646C345.953 12.0976 345.136 10.3102 343.501 9.40249L342.871 9.11162C341.902 8.744 340.703 8.62262 339.276 8.7475L324.404 10.0487C320.626 10.3791 317.49 12.4138 314.995 16.1529L258.945 100.272C258.481 100.966 258.069 101.681 257.711 102.419C257.68 102.485 257.648 102.55 257.617 102.616C256.479 105.039 255.91 107.697 255.91 110.592V123.998C255.91 126.721 256.749 128.528 258.428 129.419ZM317.625 60.71V100.013L302.016 101.379L284.137 102.943L302.016 76.058L317.625 52.5853L318.03 52.5499C317.76 55.2817 317.625 58.0018 317.625 60.71Z" fill="white"/>
<path d="M243.336 93.0721C242.871 93.7657 242.46 94.4814 242.102 95.2192L257.711 102.419C258.069 101.681 258.481 100.966 258.945 100.272L314.995 16.1529C317.49 12.4138 320.626 10.3791 324.404 10.0487L308.794 2.84865C305.017 3.1791 301.881 5.21384 299.385 8.95287L243.336 93.0721Z" fill="#24D680" fill-opacity="0.1"/>
<path d="M317.625 100.013V60.71C317.625 58.0018 317.76 55.2817 318.03 52.5499L317.625 52.5853L302.016 76.058V101.379L317.625 100.013Z" fill="#24D680" fill-opacity="0.1"/>
<path d="M320.11 155.689C318.458 154.793 317.629 152.998 317.625 150.304C317.625 150.297 317.625 150.291 317.625 150.285V125.2L302.016 126.565V143.085C302.101 145.619 302.701 147.419 304.501 148.489L320.11 155.689Z" fill="#24D680" fill-opacity="0.1"/>
<path d="M240.301 103.392V116.798C240.432 119.709 240.896 120.968 242.819 122.219L258.428 129.419C256.749 128.528 255.91 126.721 255.91 123.998V110.592C255.91 107.697 256.479 105.039 257.617 102.616C257.648 102.55 257.68 102.485 257.711 102.419L242.102 95.2192C240.901 97.6946 240.301 100.419 240.301 103.392Z" fill="#24D680" fill-opacity="0.1"/>
<path d="M323.666 1.5475L308.794 2.84865L324.404 10.0487L339.276 8.7475C340.703 8.62262 341.902 8.744 342.871 9.11162L327.543 2.02793C326.527 1.57041 325.235 1.41027 323.666 1.5475Z" fill="#24D680" fill-opacity="0.1"/>
<path d="M240.301 103.392V116.798C240.432 119.709 240.896 120.968 242.819 122.219L258.428 129.419M240.301 103.392C240.301 99.5327 241.313 96.0928 243.336 93.0721M240.301 103.392C240.301 100.419 240.901 97.6946 242.102 95.2192M243.336 93.0721L299.385 8.95287C301.881 5.21384 305.017 3.1791 308.794 2.84865M243.336 93.0721C242.871 93.7657 242.46 94.4814 242.102 95.2192M308.794 2.84865L323.666 1.5475C325.235 1.41027 326.527 1.57041 327.543 2.02793L342.871 9.11162M308.794 2.84865L324.404 10.0487M262.486 130.024C258.102 130.407 255.91 128.398 255.91 123.998M262.486 130.024L302.016 126.565M262.486 130.024C260.815 130.17 259.462 129.968 258.428 129.419M255.91 123.998V110.592C255.91 107.697 256.479 105.039 257.617 102.616M255.91 123.998C255.91 126.721 256.749 128.528 258.428 129.419M258.945 100.272L314.995 16.1529C317.49 12.4138 320.626 10.3791 324.404 10.0487M258.945 100.272C258.481 100.966 258.069 101.681 257.711 102.419M258.945 100.272C258.439 101.027 257.997 101.809 257.617 102.616M324.404 10.0487L339.276 8.7475C340.703 8.62262 341.902 8.744 342.871 9.11162M324.201 156.31L339.377 154.983C343.761 154.599 345.953 152.207 345.953 147.806V122.721L358.296 121.641C362.613 121.264 364.771 118.874 364.771 114.474V102.49C364.771 98.0888 362.579 96.0801 358.195 96.4637L345.953 97.5347V14.7646C345.953 12.0976 345.136 10.3102 343.501 9.40249M324.201 156.31C322.512 156.458 321.149 156.251 320.11 155.689M324.201 156.31C319.824 156.693 317.631 154.691 317.625 150.304M343.501 9.40249L342.871 9.11162M343.501 9.40249C343.303 9.29265 343.093 9.19569 342.871 9.11162M320.11 155.689L304.501 148.489C302.701 147.419 302.101 145.619 302.016 143.084V126.565M320.11 155.689C318.458 154.793 317.629 152.998 317.625 150.304M242.102 95.2192L257.711 102.419M257.711 102.419C257.68 102.485 257.648 102.55 257.617 102.616M302.016 126.565L317.625 125.2V150.284C317.625 150.291 317.625 150.297 317.625 150.304M302.016 101.379L284.137 102.943L302.016 76.058M302.016 101.379L317.625 100.013V60.71C317.625 58.0018 317.76 55.2817 318.03 52.5499L317.625 52.5853L302.016 76.058M302.016 101.379V76.058" stroke="#909091" stroke-width="2.4"/>
<path d="M139.074 101.008C139.074 73.5874 143.323 53.7502 151.822 41.4968C160.32 29.2433 173.338 22.3495 190.874 20.8152C199.931 20.0228 207.783 20.871 214.429 23.3597C220.651 25.6897 225.817 29.4576 229.927 34.6635C238.425 45.4299 242.674 64.5235 242.674 91.9443C242.674 119.365 238.425 139.202 229.927 151.456C221.428 163.709 208.411 170.603 190.874 172.137C173.338 173.671 160.32 169.055 151.822 158.289C143.323 147.522 139.074 128.429 139.074 101.008Z" fill="white"/>
<path fill-rule="evenodd" clip-rule="evenodd" d="M125.97 125.368C125.663 123.732 125.383 122.04 125.132 120.293C124.126 118.561 122.213 117.819 119.394 118.065L107.152 119.136V36.3662C107.152 33.6991 106.335 31.9118 104.7 31.004L104.071 30.7132C103.101 30.3456 101.902 30.2242 100.475 30.3491L85.6028 31.6502C81.8257 31.9807 78.6894 34.0154 76.1938 37.7544L20.1445 121.874C19.6799 122.567 19.2686 123.283 18.9107 124.021C18.8789 124.086 18.8476 124.152 18.8167 124.218C17.6785 126.64 17.1094 129.299 17.1094 132.193V145.599C17.1094 148.322 17.9487 150.129 19.6272 151.021C20.6614 151.57 22.0142 151.771 23.6856 151.625L63.2149 148.167L78.8242 146.801V171.886C78.8242 173.088 78.9877 174.111 79.3146 174.956C79.5863 175.658 79.9709 176.237 80.4683 176.693C80.7197 176.924 81.0003 177.123 81.3094 177.29C82.3478 177.853 83.7111 178.06 85.4004 177.912L100.576 176.584C104.96 176.201 107.152 173.809 107.152 169.408V144.323L119.495 143.243C123.812 142.865 125.97 140.476 125.97 136.075V125.368ZM78.8242 82.3115V121.615L63.2149 122.98L45.3363 124.544L63.2149 97.6595L78.8242 74.1869L79.229 74.1515C78.9592 76.8833 78.8242 79.6033 78.8242 82.3115Z" fill="white"/>
<path d="M136.212 34.2968C127.714 46.5503 123.465 66.3874 123.465 93.8081C123.465 103.726 124.021 112.554 125.132 120.293C125.691 121.254 125.97 122.52 125.97 124.091V125.368C128.068 136.522 131.482 145.096 136.212 151.089C139.674 155.474 142.5 158.221 147.9 160.72L163.509 167.92C158.957 165.603 155.061 162.392 151.822 158.289C143.323 147.522 139.074 128.429 139.074 101.008C139.074 73.5874 143.323 53.7502 151.822 41.4968C160.32 29.2433 173.338 22.3495 190.874 20.8152C199.931 20.0228 207.783 20.871 214.429 23.3597L199.401 16.3823C192.633 13.7217 184.587 12.7996 175.265 13.6152C157.728 15.1495 144.711 22.0433 136.212 34.2968Z" fill="#24D680" fill-opacity="0.1"/>
<path d="M78.8242 121.615V82.3115C78.8242 79.6033 78.9592 76.8833 79.229 74.1515L78.8242 74.1869L63.2149 97.6595V122.98L78.8242 121.615Z" fill="#24D680" fill-opacity="0.1"/>
<path d="M4.53516 114.674C4.07054 115.367 3.65926 116.083 3.30133 116.821L18.9107 124.021C19.2686 123.283 19.6799 122.567 20.1445 121.874L76.1938 37.7544C78.6894 34.0154 81.8257 31.9807 85.6028 31.6502L69.9934 24.4502C66.2163 24.7807 63.08 26.8154 60.5844 30.5544L4.53516 114.674Z" fill="#24D680" fill-opacity="0.1"/>
<path d="M84.8657 23.1491L69.9934 24.4502L85.6028 31.6502L100.475 30.3491C101.902 30.2242 103.101 30.3456 104.071 30.7132L88.7423 23.6295C87.7264 23.172 86.4342 23.0118 84.8657 23.1491Z" fill="#24D680" fill-opacity="0.1"/>
<path d="M1.5 124.993V138.399C1.63075 141.31 2.09482 142.57 4.01782 143.821L19.6272 151.021C17.9487 150.129 17.1094 148.322 17.1094 145.599V132.193C17.1094 129.299 17.6785 126.64 18.8167 124.218C18.8476 124.152 18.8789 124.086 18.9107 124.021L3.30133 116.821C2.10044 119.296 1.5 122.02 1.5 124.993Z" fill="#24D680" fill-opacity="0.1"/>
<path d="M81.3094 177.29C81.0003 177.123 80.7197 176.924 80.4683 176.693C79.9709 176.237 79.5863 175.658 79.3146 174.956C78.9877 174.111 78.8242 173.088 78.8242 171.886V146.801L63.2149 148.167V164.686C63.3 167.221 63.9 169.021 65.7 170.09L81.3094 177.29Z" fill="#24D680" fill-opacity="0.1"/>
<path d="M1.5 124.993V138.399C1.63075 141.31 2.09482 142.57 4.01782 143.821L19.6272 151.021M1.5 124.993C1.5 121.134 2.51172 117.694 4.53516 114.674M1.5 124.993C1.5 122.02 2.10044 119.296 3.30133 116.821M4.53516 114.674L60.5844 30.5544C63.08 26.8154 66.2163 24.7807 69.9934 24.4502M4.53516 114.674C4.07054 115.367 3.65926 116.083 3.30133 116.821M69.9934 24.4502L84.8657 23.1491C86.4342 23.0118 87.7264 23.172 88.7423 23.6295L104.071 30.7132M69.9934 24.4502L85.6028 31.6502M23.6856 151.625C19.3014 152.009 17.1094 150 17.1094 145.599M23.6856 151.625L63.2149 148.167M23.6856 151.625C22.0142 151.771 20.6614 151.57 19.6272 151.021M17.1094 145.599V132.193C17.1094 129.299 17.6785 126.64 18.8167 124.218M17.1094 145.599C17.1094 148.322 17.9487 150.129 19.6272 151.021M20.1445 121.874L76.1938 37.7544C78.6894 34.0154 81.8257 31.9807 85.6028 31.6502M20.1445 121.874C19.6799 122.567 19.2686 123.283 18.9107 124.021M20.1445 121.874C19.6387 122.629 19.196 123.41 18.8167 124.218M85.6028 31.6502L100.475 30.3491C101.902 30.2242 103.101 30.3456 104.071 30.7132M85.4004 177.912L100.576 176.584C104.96 176.201 107.152 173.809 107.152 169.408V144.323L119.495 143.243C123.812 142.865 125.97 140.476 125.97 136.075V125.368M85.4004 177.912C83.7111 178.06 82.3478 177.853 81.3094 177.29M85.4004 177.912C83.2084 178.104 81.5643 177.697 80.4683 176.693M151.822 158.289C160.32 169.055 173.338 173.671 190.874 172.137C208.411 170.603 221.428 163.709 229.927 151.456C238.425 139.202 242.674 119.365 242.674 91.9443C242.674 64.5235 238.425 45.4299 229.927 34.6635C225.817 29.4576 220.651 25.6897 214.429 23.3597M151.822 158.289C143.323 147.522 139.074 128.429 139.074 101.008C139.074 73.5874 143.323 53.7502 151.822 41.4968C160.32 29.2433 173.338 22.3495 190.874 20.8152C199.931 20.0228 207.783 20.871 214.429 23.3597M151.822 158.289C155.061 162.392 158.957 165.603 163.509 167.92L147.9 160.72C142.5 158.221 139.674 155.474 136.212 151.089C131.482 145.096 128.068 136.522 125.97 125.368M104.7 31.004C106.335 31.9118 107.152 33.6991 107.152 36.3662V119.136L119.394 118.065C122.213 117.819 124.126 118.561 125.132 120.293M104.7 31.004L104.071 30.7132M104.7 31.004C104.502 30.8942 104.292 30.7973 104.071 30.7132M81.3094 177.29L65.7 170.09C63.9 169.021 63.3 167.221 63.2149 164.686V148.167M81.3094 177.29C81.0003 177.123 80.7197 176.924 80.4683 176.693M3.30133 116.821L18.9107 124.021M18.9107 124.021C18.8789 124.086 18.8476 124.152 18.8167 124.218M63.2149 148.167L78.8242 146.801V171.886C78.8242 173.088 78.9877 174.111 79.3146 174.956C79.5863 175.658 79.9709 176.237 80.4683 176.693M63.2149 122.98L45.3363 124.544L63.2149 97.6595M63.2149 122.98L78.8242 121.615V82.3115C78.8242 79.6033 78.9592 76.8833 79.229 74.1515L78.8242 74.1869L63.2149 97.6595M63.2149 122.98V97.6595M215.01 23.6295L214.429 23.3597M125.97 125.368C125.663 123.732 125.383 122.04 125.132 120.293M125.97 125.368V124.091C125.97 122.52 125.691 121.254 125.132 120.293M125.132 120.293C124.021 112.554 123.465 103.726 123.465 93.8081C123.465 66.3874 127.714 46.5503 136.212 34.2968C144.711 22.0433 157.728 15.1495 175.265 13.6152C184.587 12.7996 192.633 13.7217 199.401 16.3823L214.429 23.3597" stroke="#909091" stroke-width="2.4"/>
<path d="M173.512 115.465C179.452 94.3519 205.192 91.0514 214.432 110.845" stroke="#909091" stroke-width="3.96" stroke-linecap="round"/>
<circle cx="220.634" cy="80.7515" r="2.904" fill="#909091" stroke="#909091" stroke-width="1.32"/>
<circle cx="166.513" cy="83.3921" r="2.904" fill="#909091" stroke="#909091" stroke-width="1.32"/>
<path d="M225.217 38.3841C221.788 34.0396 217.524 30.9283 212.325 28.9817C206.718 26.8822 199.805 26.0599 191.397 26.7955C175.281 28.2054 164.047 34.4009 156.752 44.9193C151.626 52.3103 148.013 63.3173 146.266 78.3328C178.937 51.3328 208.337 80.7328 234.389 62.1328C232.433 51.3527 229.287 43.5408 225.217 38.3841Z" fill="#E1F2EA"/>
<path d="M323.671 250.767L313.609 259.764L303.532 268.741C302.864 269.336 301.938 269.532 301.101 269.257L288.471 265.107L275.85 260.932C275.014 260.655 274.394 259.949 274.224 259.078L271.655 245.931L269.112 232.779C268.943 231.907 269.25 231.004 269.917 230.408L279.978 221.411L290.056 212.434M323.671 250.767C324.337 250.171 324.644 249.268 324.475 248.396L321.932 235.244L319.363 222.097C319.273 221.637 319.058 221.222 318.751 220.893M323.671 250.767L332.382 243.3C333.049 242.704 333.356 241.801 333.187 240.929L330.643 227.777L328.075 214.63C327.972 214.1 327.702 213.631 327.318 213.283M290.056 212.434C290.08 212.412 290.105 212.391 290.13 212.371M290.056 212.434L290.13 212.371M318.751 220.893C318.477 220.599 318.131 220.373 317.737 220.243L305.116 216.068L292.486 211.917C291.68 211.653 290.791 211.826 290.13 212.371M318.751 220.893L327.318 213.283M327.318 213.283C327.071 213.059 326.777 212.884 326.449 212.776L313.828 208.601L301.198 204.45C300.361 204.175 299.435 204.372 298.767 204.967L290.13 212.371" stroke="#909091" stroke-width="2.4"/>
<path d="M269.246 264.596C269.823 265.131 270.353 265.693 270.836 266.276C274.991 271.304 275.59 277.901 271.962 281.818C267.913 286.189 260.132 285.566 254.583 280.426C249.035 275.286 247.819 267.576 251.868 263.204C252.151 262.899 252.452 262.618 252.769 262.362C256.993 258.942 264.085 259.815 269.246 264.596Z" fill="white"/>
<path d="M271.962 281.818L283.299 271.21C286.967 267.251 286.315 260.552 282.036 255.506L270.836 266.276C274.991 271.304 275.59 277.901 271.962 281.818Z" fill="#E1F2EA"/>
<path d="M283.299 271.21L294.482 260.876C298.144 256.922 297.5 250.237 293.237 245.193L282.036 255.506C286.315 260.552 286.967 267.251 283.299 271.21Z" fill="#E1F2EA"/>
<path d="M294.482 260.876L304.666 251.297C308.285 247.391 307.699 240.819 303.574 235.797L293.237 245.193C297.5 250.237 298.144 256.922 294.482 260.876Z" fill="#E1F2EA"/>
<path d="M275.254 241.448C279.474 237.996 286.591 238.86 291.767 243.654C292.297 244.145 292.787 244.66 293.237 245.193L303.574 235.797C303.083 235.199 302.541 234.623 301.951 234.076C296.402 228.936 288.622 228.313 284.573 232.684L275.254 241.448Z" fill="white"/>
<path d="M264.189 251.688C268.423 248.346 275.456 249.239 280.584 253.989C281.107 254.473 281.591 254.98 282.036 255.506L293.237 245.193C292.787 244.66 292.297 244.145 291.767 243.654C286.591 238.86 279.474 237.996 275.254 241.448L274.388 242.262L264.189 251.688Z" fill="white"/>
<path d="M252.769 262.362C256.993 258.942 264.085 259.815 269.246 264.596C269.823 265.131 270.353 265.693 270.836 266.276L282.036 255.506C281.591 254.98 281.107 254.473 280.584 253.989C275.456 249.239 268.423 248.346 264.189 251.688L263.205 252.597L252.769 262.362Z" fill="white"/>
<path d="M271.962 281.818C267.913 286.189 260.132 285.566 254.583 280.426C249.035 275.286 247.819 267.576 251.868 263.204M271.962 281.818L283.299 271.21M271.962 281.818C275.59 277.901 274.991 271.304 270.836 266.276M251.868 263.204L252.769 262.362M251.868 263.204C252.151 262.899 252.452 262.618 252.769 262.362M283.299 271.21L294.482 260.876M283.299 271.21C286.967 267.251 286.315 260.552 282.036 255.506M263.205 252.597L264.189 251.688M263.205 252.597C263.513 252.265 263.841 251.962 264.189 251.688M263.205 252.597L252.769 262.362M294.482 260.876L304.666 251.297C308.285 247.391 307.699 240.819 303.574 235.797M294.482 260.876C298.144 256.922 297.5 250.237 293.237 245.193M274.388 242.262L275.254 241.448M274.388 242.262C274.661 241.968 274.95 241.697 275.254 241.448M274.388 242.262L264.189 251.688M303.574 235.797C303.083 235.199 302.541 234.623 301.951 234.076C296.402 228.936 288.622 228.313 284.573 232.684L275.254 241.448M303.574 235.797L293.237 245.193M293.237 245.193C292.787 244.66 292.297 244.145 291.767 243.654C286.591 238.86 279.474 237.996 275.254 241.448M293.237 245.193L282.036 255.506M282.036 255.506C281.591 254.98 281.107 254.473 280.584 253.989C275.456 249.239 268.423 248.346 264.189 251.688M282.036 255.506L270.836 266.276M270.836 266.276C270.353 265.693 269.823 265.131 269.246 264.596C264.085 259.815 256.993 258.942 252.769 262.362" stroke="#909091" stroke-width="2.4"/>
<path d="M38.1887 226.752C39.9873 222.385 44.9862 220.302 49.3541 222.1L116.728 249.843L110.215 265.66L42.8409 237.918C38.473 236.119 36.3902 231.12 38.1887 226.752Z" fill="#E1F2EA" stroke="#909091" stroke-width="2.4"/>
<path d="M103.884 254.412C106.815 247.294 114.962 243.9 122.08 246.831L171.633 267.235L161.018 293.012L111.466 272.608C104.348 269.677 100.953 261.53 103.884 254.412Z" fill="#E1F2EA" stroke="#909091" stroke-width="2.4"/>
<path d="M182.445 283.841C181.899 284.94 181.436 286.055 181.055 287.173C177.771 296.814 180.55 306.778 188.016 310.488C196.348 314.628 207.363 309.41 212.618 298.833C217.874 288.257 215.38 276.326 207.048 272.186C206.466 271.897 205.871 271.654 205.266 271.455C197.206 268.801 187.334 274.002 182.445 283.841Z" fill="white"/>
<path d="M188.016 310.488L165.59 301.277C158.043 297.527 155.286 287.387 158.738 277.649C159.097 276.636 159.524 275.627 160.019 274.63C164.876 264.856 174.651 259.659 182.682 262.193L184.622 262.976L205.266 271.455C197.206 268.801 187.334 274.002 182.445 283.841C181.899 284.94 181.436 286.055 181.055 287.173C177.771 296.814 180.55 306.778 188.016 310.488Z" fill="#E1F2EA"/>
<path d="M188.016 310.488C196.348 314.628 207.363 309.41 212.618 298.833C217.874 288.257 215.38 276.326 207.048 272.186M188.016 310.488L165.59 301.277C158.043 297.527 155.286 287.387 158.738 277.649C159.097 276.636 159.524 275.627 160.019 274.63C164.876 264.856 174.651 259.659 182.682 262.193M188.016 310.488C180.55 306.778 177.771 296.814 181.055 287.173C181.436 286.055 181.899 284.94 182.445 283.841C187.334 274.002 197.206 268.801 205.266 271.455M207.048 272.186L205.266 271.455M207.048 272.186C206.466 271.897 205.871 271.654 205.266 271.455M184.622 262.976L182.682 262.193M184.622 262.976C183.989 262.662 183.342 262.401 182.682 262.193M184.622 262.976L205.266 271.455" stroke="#909091" stroke-width="2.4"/>
</svg>
