<svg xmlns="http://www.w3.org/2000/svg" width="39" height="51" viewBox="0 0 39 51" fill="none">
	<path d="M37.2914 50.8463L1.50181 50.8521C0.883748 50.8522 0.383144 50.3516 0.383047 49.7335L0.375 1.87328C0.374904 1.25521 0.875546 0.754621 1.49361 0.754524L23.5402 0.750817L38.4054 15.7338L38.4107 49.7272C38.4108 50.3453 37.9094 50.8462 37.2914 50.8463Z" fill="#EBEBEB" />
	<path d="M38.4054 15.7338L23.5411 0.750003L22.3711 0.75L22.3738 19.0197L38.4062 19.0172L38.4054 15.7338Z" fill="#E0E0E0" />
	<path d="M38.4054 15.6103L23.5431 15.6128L23.5411 0.750003L38.4054 15.6103Z" fill="#F5F5F5" />
	<path d="M33.4278 39.0731C24.6045 39.0745 15.7812 39.0758 6.95784 39.0772C5.17646 39.0774 4.90647 41.8519 6.69927 41.8513C15.5226 41.85 24.3459 41.8486 33.1692 41.8472C34.9506 41.847 35.2209 39.0731 33.4278 39.0731Z" fill="#FAFAFA" />
	<path d="M6.69645 25.0744C15.5198 25.073 24.3431 25.0716 33.1664 25.0703C34.9478 25.07 35.2178 22.2955 33.425 22.2961C24.6017 22.2975 15.7783 22.2989 6.95502 22.3002C5.17296 22.3008 4.90297 25.0753 6.69645 25.0744Z" fill="#FAFAFA" />
	<path d="M6.62752 33.7203C15.4508 33.7189 24.2742 33.7176 33.0982 33.7159C34.8795 33.7156 35.1495 30.9411 33.3567 30.9417C24.5334 30.9431 15.7101 30.9444 6.88609 30.9461C5.10472 30.9464 4.83473 33.7209 6.62752 33.7203Z" fill="#FAFAFA" />
</svg>
