<svg xmlns="http://www.w3.org/2000/svg" width="40" height="35" viewBox="0 0 40 35" fill="none">
	<path fill-rule="evenodd" clip-rule="evenodd" d="M26.0225 15.2222C27.7252 13.6006 29.105 11.5593 29.1916 9.1255C29.5402 -0.677338 17.2413 -3.1125 12.5108 4.4245C10.0871 8.28604 8.74498 14.0174 8.65779 19.3346C6.18132 20.1812 3.74971 20.9042 1.61345 21.4868C0.447196 21.8048 -0.240395 23.0081 0.0776746 24.1744C0.395744 25.3406 1.59903 26.0282 2.76528 25.7102C4.63631 25.1999 6.73719 24.5826 8.90992 23.8673C9.19411 25.9734 9.72684 27.9801 10.57 29.6986C11.8089 32.2235 13.8439 34.3371 16.8759 34.8622C19.8114 35.3705 23.0993 34.279 26.6544 31.8104C28.9587 30.2104 31.4892 27.9551 34.2658 24.9504C33.0804 24.0592 31.8351 23.2497 30.5384 22.5277C28.1375 25.0708 26.0149 26.925 24.1576 28.2146C21.0377 30.381 18.9329 30.7756 17.6229 30.5487C16.4095 30.3386 15.3466 29.4956 14.5001 27.7703C13.806 26.3557 13.3443 24.4947 13.1441 22.3702C18.0083 20.5193 22.9733 18.126 26.0225 15.2222ZM23.0035 12.052C20.8606 14.0929 17.2243 16.0117 13.1117 17.6795C13.3827 13.9605 14.4235 5.39845 19.1345 4.29085C21.8064 3.66269 24.9154 6.19495 24.8167 8.96992C24.7881 9.77457 24.3132 10.8049 23.0035 12.052Z" fill="#001630" />
	<path d="M38.7639 15.5866C38.9332 14.5624 37.7644 13.8571 36.9373 14.4844L36.6926 14.67C33.8847 16.7993 30.7465 18.4533 27.403 19.5662L26.7714 19.7764C25.8947 20.0682 25.9398 21.3232 26.8351 21.5514L26.9308 21.5758C30.7809 22.557 34.2164 24.7437 36.7352 27.8165C37.3063 28.5132 38.4348 28.0605 38.366 27.1623L38.2743 25.9648C38.0164 22.5975 38.1645 19.2114 38.7154 15.8795L38.7639 15.5866Z" fill="#01FF85" stroke="white" stroke-width="1.27564" />
</svg>
