<svg width="192" height="26" viewBox="0 0 192 26" fill="none" xmlns="http://www.w3.org/2000/svg">
<path fill-rule="evenodd" clip-rule="evenodd" d="M18.9987 11.1135C20.2419 9.92967 21.2492 8.43935 21.3124 6.66242C21.567 -0.494517 12.5877 -2.2724 9.13399 3.23027C7.3645 6.04954 6.38461 10.2339 6.32095 14.116C4.51291 14.7341 2.73762 15.2619 1.17796 15.6872C0.326493 15.9195 -0.17551 16.798 0.0567094 17.6494C0.288928 18.5009 1.16743 19.0029 2.0189 18.7707C3.38491 18.3981 4.91875 17.9475 6.50503 17.4253C6.71251 18.9629 7.10146 20.428 7.71704 21.6826C8.62153 23.526 10.1073 25.0691 12.3209 25.4525C14.464 25.8236 16.8646 25.0267 19.4601 23.2244C21.1423 22.0563 22.9897 20.4098 25.0168 18.2162C24.1514 17.5655 23.2422 16.9745 22.2956 16.4474C20.5428 18.304 18.9931 19.6576 17.6372 20.5992C15.3594 22.1809 13.8227 22.4689 12.8663 22.3033C11.9804 22.1499 11.2044 21.5344 10.5863 20.2748C10.0796 19.242 9.7425 17.8833 9.59636 16.3322C13.1477 14.9809 16.7725 13.2336 18.9987 11.1135ZM16.7946 8.79906C15.2301 10.289 12.5753 11.69 9.57273 12.9076C9.77055 10.1924 10.5304 3.94135 13.9699 3.1327C15.9206 2.67409 18.1904 4.52287 18.1184 6.54884C18.0975 7.1363 17.7508 7.88851 16.7946 8.79906Z" fill="#001630"/>
<path d="M26.9694 10.5758L27.1715 10.8422L26.9694 10.5758L26.7908 10.7113C24.7408 12.2658 22.4496 13.4734 20.0085 14.2859L19.5474 14.4394C18.9074 14.6524 18.9403 15.5687 19.5939 15.7353L19.6638 15.7531L19.7754 15.315L19.6638 15.7531C22.4747 16.4695 24.9829 18.066 26.8219 20.3094C27.2388 20.818 28.0627 20.4875 28.0125 19.8317L27.9455 18.9575C27.7572 16.499 27.8654 14.0269 28.2676 11.5943L28.303 11.3804C28.4266 10.6327 27.5733 10.1178 26.9694 10.5758Z" fill="#01FF85" stroke="white" stroke-width="0.931327"/>
<path d="M39.28 18.7695V7.68153H46.768V9.77753H41.776V11.9535H46.208V14.0015H41.776V16.6735H47.136V18.7695H39.28ZM53.4471 14.3055C53.4471 13.5375 53.3458 12.9935 53.1431 12.6735C52.9511 12.3535 52.6151 12.1935 52.1351 12.1935C51.9858 12.1935 51.8311 12.2042 51.6711 12.2255C51.5111 12.2362 51.3565 12.2522 51.2071 12.2735V18.7695H48.8231V10.6415C49.0258 10.5882 49.2605 10.5349 49.5271 10.4815C49.8045 10.4175 50.0925 10.3642 50.3911 10.3215C50.7005 10.2682 51.0151 10.2309 51.3351 10.2095C51.6551 10.1775 51.9698 10.1615 52.2791 10.1615C52.8871 10.1615 53.3778 10.2415 53.7511 10.4015C54.1351 10.5509 54.4498 10.7322 54.6951 10.9455C55.0365 10.7002 55.4258 10.5082 55.8631 10.3695C56.3111 10.2309 56.7218 10.1615 57.0951 10.1615C57.7671 10.1615 58.3165 10.2575 58.7431 10.4495C59.1805 10.6309 59.5271 10.8922 59.7831 11.2335C60.0391 11.5749 60.2151 11.9802 60.3111 12.4495C60.4071 12.9189 60.4551 13.4415 60.4551 14.0175V18.7695H58.0711V14.3055C58.0711 13.5375 57.9698 12.9935 57.7671 12.6735C57.5751 12.3535 57.2391 12.1935 56.7591 12.1935C56.6311 12.1935 56.4498 12.2255 56.2151 12.2895C55.9911 12.3535 55.8045 12.4335 55.6551 12.5295C55.7298 12.7749 55.7778 13.0362 55.7991 13.3135C55.8205 13.5802 55.8311 13.8682 55.8311 14.1775V18.7695H53.4471V14.3055ZM68.012 14.6255C68.012 13.8895 67.8467 13.3029 67.516 12.8655C67.1853 12.4175 66.6947 12.1935 66.044 12.1935C65.8307 12.1935 65.6333 12.2042 65.452 12.2255C65.2707 12.2362 65.1213 12.2522 65.004 12.2735V16.5775C65.1533 16.6735 65.3453 16.7535 65.58 16.8175C65.8253 16.8815 66.0707 16.9135 66.316 16.9135C67.4467 16.9135 68.012 16.1509 68.012 14.6255ZM70.444 14.5615C70.444 15.2122 70.364 15.8042 70.204 16.3375C70.044 16.8709 69.8093 17.3295 69.5 17.7135C69.1907 18.0975 68.8067 18.3962 68.348 18.6095C67.8893 18.8229 67.3613 18.9295 66.764 18.9295C66.4333 18.9295 66.124 18.8975 65.836 18.8335C65.548 18.7695 65.2707 18.6789 65.004 18.5615V21.7295H62.62V10.6415C62.8333 10.5775 63.0787 10.5189 63.356 10.4655C63.6333 10.4015 63.9213 10.3482 64.22 10.3055C64.5293 10.2629 64.8387 10.2309 65.148 10.2095C65.468 10.1775 65.772 10.1615 66.06 10.1615C66.7533 10.1615 67.372 10.2682 67.916 10.4815C68.46 10.6842 68.9187 10.9775 69.292 11.3615C69.6653 11.7349 69.948 12.1935 70.14 12.7375C70.3427 13.2815 70.444 13.8895 70.444 14.5615ZM75.6363 18.9295C74.9429 18.9189 74.3776 18.8442 73.9403 18.7055C73.5136 18.5669 73.1723 18.3749 72.9163 18.1295C72.6709 17.8735 72.5003 17.5695 72.4043 17.2175C72.3189 16.8549 72.2763 16.4495 72.2763 16.0015V6.73753L74.6603 6.35353V15.5215C74.6603 15.7349 74.6763 15.9269 74.7083 16.0975C74.7403 16.2682 74.7989 16.4122 74.8843 16.5295C74.9803 16.6469 75.1136 16.7429 75.2843 16.8175C75.4549 16.8922 75.6843 16.9402 75.9723 16.9615L75.6363 18.9295ZM85.2108 14.5455C85.2108 15.2069 85.1148 15.8149 84.9228 16.3695C84.7308 16.9135 84.4534 17.3829 84.0908 17.7775C83.7281 18.1615 83.2908 18.4602 82.7788 18.6735C82.2774 18.8869 81.7121 18.9935 81.0828 18.9935C80.4641 18.9935 79.8988 18.8869 79.3868 18.6735C78.8854 18.4602 78.4534 18.1615 78.0908 17.7775C77.7281 17.3829 77.4454 16.9135 77.2428 16.3695C77.0401 15.8149 76.9388 15.2069 76.9388 14.5455C76.9388 13.8842 77.0401 13.2815 77.2428 12.7375C77.4561 12.1935 77.7441 11.7295 78.1068 11.3455C78.4801 10.9615 78.9174 10.6629 79.4188 10.4495C79.9308 10.2362 80.4854 10.1295 81.0828 10.1295C81.6908 10.1295 82.2454 10.2362 82.7468 10.4495C83.2588 10.6629 83.6961 10.9615 84.0588 11.3455C84.4214 11.7295 84.7041 12.1935 84.9068 12.7375C85.1094 13.2815 85.2108 13.8842 85.2108 14.5455ZM82.7788 14.5455C82.7788 13.8095 82.6294 13.2335 82.3308 12.8175C82.0428 12.3909 81.6268 12.1775 81.0828 12.1775C80.5388 12.1775 80.1174 12.3909 79.8188 12.8175C79.5201 13.2335 79.3708 13.8095 79.3708 14.5455C79.3708 15.2815 79.5201 15.8682 79.8188 16.3055C80.1174 16.7322 80.5388 16.9455 81.0828 16.9455C81.6268 16.9455 82.0428 16.7322 82.3308 16.3055C82.6294 15.8682 82.7788 15.2815 82.7788 14.5455ZM94.3108 10.3535C93.8308 11.9749 93.3294 13.4949 92.8068 14.9135C92.2841 16.3322 91.7134 17.7082 91.0948 19.0415C90.8708 19.5215 90.6468 19.9269 90.4227 20.2575C90.1988 20.5989 89.9534 20.8762 89.6868 21.0895C89.4201 21.3135 89.1161 21.4735 88.7748 21.5695C88.4441 21.6762 88.0548 21.7295 87.6068 21.7295C87.2334 21.7295 86.8868 21.6922 86.5668 21.6175C86.2574 21.5535 86.0014 21.4789 85.7988 21.3935L86.2148 19.4895C86.4601 19.5749 86.6788 19.6335 86.8708 19.6655C87.0628 19.6975 87.2654 19.7135 87.4788 19.7135C87.9054 19.7135 88.2308 19.5962 88.4548 19.3615C88.6894 19.1375 88.8868 18.8229 89.0468 18.4175C88.5028 17.3509 87.9588 16.1562 87.4148 14.8335C86.8708 13.5002 86.3588 12.0069 85.8788 10.3535H88.4068C88.5134 10.7695 88.6361 11.2229 88.7748 11.7135C88.9241 12.1935 89.0788 12.6842 89.2388 13.1855C89.3988 13.6762 89.5588 14.1562 89.7188 14.6255C89.8894 15.0949 90.0494 15.5215 90.1988 15.9055C90.3374 15.5215 90.4814 15.0949 90.6308 14.6255C90.7801 14.1562 90.9241 13.6762 91.0628 13.1855C91.2121 12.6842 91.3508 12.1935 91.4788 11.7135C91.6174 11.2229 91.7401 10.7695 91.8468 10.3535H94.3108Z" fill="#001630"/>
<path d="M103.173 18.7695C103.055 18.3855 102.922 17.9909 102.773 17.5855C102.634 17.1802 102.495 16.7749 102.357 16.3695H98.0368C97.8981 16.7749 97.7541 17.1802 97.6048 17.5855C97.4661 17.9909 97.3381 18.3855 97.2208 18.7695H94.6288C95.0448 17.5749 95.4394 16.4709 95.8128 15.4575C96.1861 14.4442 96.5488 13.4895 96.9008 12.5935C97.2634 11.6975 97.6154 10.8495 97.9568 10.0495C98.3088 9.23886 98.6714 8.44953 99.0448 7.68153H101.429C101.791 8.44953 102.149 9.23886 102.501 10.0495C102.853 10.8495 103.205 11.6975 103.557 12.5935C103.919 13.4895 104.287 14.4442 104.661 15.4575C105.034 16.4709 105.429 17.5749 105.845 18.7695H103.173ZM100.181 10.1935C100.127 10.3535 100.047 10.5722 99.9408 10.8495C99.8341 11.1269 99.7114 11.4469 99.5728 11.8095C99.4341 12.1722 99.2794 12.5722 99.1088 13.0095C98.9488 13.4469 98.7834 13.9055 98.6128 14.3855H101.765C101.594 13.9055 101.429 13.4469 101.269 13.0095C101.109 12.5722 100.954 12.1722 100.805 11.8095C100.666 11.4469 100.543 11.1269 100.437 10.8495C100.33 10.5722 100.245 10.3535 100.181 10.1935ZM112.512 14.4975C112.512 12.9615 111.947 12.1935 110.816 12.1935C110.571 12.1935 110.325 12.2255 110.08 12.2895C109.845 12.3535 109.653 12.4335 109.504 12.5295V16.8655C109.621 16.8869 109.771 16.9082 109.952 16.9295C110.133 16.9402 110.331 16.9455 110.544 16.9455C111.195 16.9455 111.685 16.7215 112.016 16.2735C112.347 15.8255 112.512 15.2335 112.512 14.4975ZM114.944 14.5615C114.944 15.2335 114.843 15.8415 114.64 16.3855C114.448 16.9295 114.165 17.3935 113.792 17.7775C113.419 18.1615 112.96 18.4602 112.416 18.6735C111.872 18.8762 111.253 18.9775 110.56 18.9775C110.272 18.9775 109.968 18.9615 109.648 18.9295C109.339 18.9082 109.029 18.8762 108.72 18.8335C108.421 18.7909 108.133 18.7429 107.856 18.6895C107.579 18.6255 107.333 18.5615 107.12 18.4975V6.73753L109.504 6.35353V10.5455C109.771 10.4282 110.048 10.3375 110.336 10.2735C110.624 10.2095 110.933 10.1775 111.264 10.1775C111.861 10.1775 112.389 10.2842 112.848 10.4975C113.307 10.7002 113.691 10.9935 114 11.3775C114.309 11.7615 114.544 12.2255 114.704 12.7695C114.864 13.3029 114.944 13.9002 114.944 14.5615ZM119.16 18.7695H116.776V10.3535H119.16V18.7695ZM119.384 7.92153C119.384 8.35886 119.24 8.70553 118.952 8.96153C118.675 9.20686 118.344 9.32953 117.96 9.32953C117.576 9.32953 117.24 9.20686 116.952 8.96153C116.675 8.70553 116.536 8.35886 116.536 7.92153C116.536 7.4842 116.675 7.14286 116.952 6.89753C117.24 6.64153 117.576 6.51353 117.96 6.51353C118.344 6.51353 118.675 6.64153 118.952 6.89753C119.24 7.14286 119.384 7.4842 119.384 7.92153ZM124.761 18.9295C124.068 18.9189 123.503 18.8442 123.065 18.7055C122.639 18.5669 122.297 18.3749 122.041 18.1295C121.796 17.8735 121.625 17.5695 121.529 17.2175C121.444 16.8549 121.401 16.4495 121.401 16.0015V6.73753L123.785 6.35353V15.5215C123.785 15.7349 123.801 15.9269 123.833 16.0975C123.865 16.2682 123.924 16.4122 124.009 16.5295C124.105 16.6469 124.239 16.7429 124.409 16.8175C124.58 16.8922 124.809 16.9402 125.097 16.9615L124.761 18.9295ZM128.848 18.7695H126.464V10.3535H128.848V18.7695ZM129.072 7.92153C129.072 8.35886 128.928 8.70553 128.64 8.96153C128.362 9.20686 128.032 9.32953 127.648 9.32953C127.264 9.32953 126.928 9.20686 126.64 8.96153C126.362 8.70553 126.224 8.35886 126.224 7.92153C126.224 7.4842 126.362 7.14286 126.64 6.89753C126.928 6.64153 127.264 6.51353 127.648 6.51353C128.032 6.51353 128.362 6.64153 128.64 6.89753C128.928 7.14286 129.072 7.4842 129.072 7.92153ZM131.009 8.25753L133.393 7.87353V10.3535H136.257V12.3375H133.393V15.2975C133.393 15.7989 133.478 16.1989 133.649 16.4975C133.83 16.7962 134.187 16.9455 134.721 16.9455C134.977 16.9455 135.238 16.9242 135.505 16.8815C135.782 16.8282 136.033 16.7589 136.257 16.6735L136.593 18.5295C136.305 18.6469 135.985 18.7482 135.633 18.8335C135.281 18.9189 134.849 18.9615 134.337 18.9615C133.686 18.9615 133.147 18.8762 132.721 18.7055C132.294 18.5242 131.953 18.2789 131.697 17.9695C131.441 17.6495 131.259 17.2655 131.153 16.8175C131.057 16.3695 131.009 15.8735 131.009 15.3295V8.25753ZM145.826 10.3535C145.346 11.9749 144.845 13.4949 144.322 14.9135C143.8 16.3322 143.229 17.7082 142.61 19.0415C142.386 19.5215 142.162 19.9269 141.938 20.2575C141.714 20.5989 141.469 20.8762 141.202 21.0895C140.936 21.3135 140.632 21.4735 140.29 21.5695C139.96 21.6762 139.57 21.7295 139.122 21.7295C138.749 21.7295 138.402 21.6922 138.082 21.6175C137.773 21.5535 137.517 21.4789 137.314 21.3935L137.73 19.4895C137.976 19.5749 138.194 19.6335 138.386 19.6655C138.578 19.6975 138.781 19.7135 138.994 19.7135C139.421 19.7135 139.746 19.5962 139.97 19.3615C140.205 19.1375 140.402 18.8229 140.562 18.4175C140.018 17.3509 139.474 16.1562 138.93 14.8335C138.386 13.5002 137.874 12.0069 137.394 10.3535H139.922C140.029 10.7695 140.152 11.2229 140.29 11.7135C140.44 12.1935 140.594 12.6842 140.754 13.1855C140.914 13.6762 141.074 14.1562 141.234 14.6255C141.405 15.0949 141.565 15.5215 141.714 15.9055C141.853 15.5215 141.997 15.0949 142.146 14.6255C142.296 14.1562 142.44 13.6762 142.578 13.1855C142.728 12.6842 142.866 12.1935 142.994 11.7135C143.133 11.2229 143.256 10.7695 143.362 10.3535H145.826ZM148.55 17.5055C148.55 17.9855 148.395 18.3535 148.086 18.6095C147.787 18.8549 147.446 18.9775 147.062 18.9775C146.678 18.9775 146.331 18.8549 146.022 18.6095C145.723 18.3535 145.574 17.9855 145.574 17.5055C145.574 17.0255 145.723 16.6629 146.022 16.4175C146.331 16.1615 146.678 16.0335 147.062 16.0335C147.446 16.0335 147.787 16.1615 148.086 16.4175C148.395 16.6629 148.55 17.0255 148.55 17.5055ZM158.22 18.7695C158.102 18.3855 157.969 17.9909 157.82 17.5855C157.681 17.1802 157.542 16.7749 157.404 16.3695H153.084C152.945 16.7749 152.801 17.1802 152.652 17.5855C152.513 17.9909 152.385 18.3855 152.268 18.7695H149.676C150.092 17.5749 150.486 16.4709 150.86 15.4575C151.233 14.4442 151.596 13.4895 151.948 12.5935C152.31 11.6975 152.662 10.8495 153.004 10.0495C153.356 9.23886 153.718 8.44953 154.092 7.68153H156.476C156.838 8.44953 157.196 9.23886 157.548 10.0495C157.9 10.8495 158.252 11.6975 158.604 12.5935C158.966 13.4895 159.334 14.4442 159.708 15.4575C160.081 16.4709 160.476 17.5749 160.892 18.7695H158.22ZM155.228 10.1935C155.174 10.3535 155.094 10.5722 154.988 10.8495C154.881 11.1269 154.758 11.4469 154.62 11.8095C154.481 12.1722 154.326 12.5722 154.156 13.0095C153.996 13.4469 153.83 13.9055 153.66 14.3855H156.812C156.641 13.9055 156.476 13.4469 156.316 13.0095C156.156 12.5722 156.001 12.1722 155.852 11.8095C155.713 11.4469 155.59 11.1269 155.484 10.8495C155.377 10.5722 155.292 10.3535 155.228 10.1935ZM162.327 7.68153H164.823V18.7695H162.327V7.68153Z" fill="#0AD472"/>
</svg>
