<svg width="190" height="31" viewBox="0 0 190 31" fill="none" xmlns="http://www.w3.org/2000/svg">
<path fill-rule="evenodd" clip-rule="evenodd" d="M22.9058 13.3987C24.4046 11.9714 25.6191 10.1746 25.6953 8.03234C26.0022 -0.596198 15.1763 -2.73965 11.0124 3.89448C8.87899 7.29344 7.6976 12.3382 7.62085 17.0185C5.44098 17.7637 3.30061 18.4 1.42021 18.9128C0.393636 19.1928 -0.211603 20.2519 0.0683716 21.2785C0.348346 22.305 1.40751 22.9103 2.43409 22.6303C4.08102 22.1811 5.93028 21.6378 7.84278 21.0082C8.09293 22.862 8.56186 24.6283 9.30403 26.1409C10.3945 28.3634 12.1858 30.2238 14.8547 30.686C17.4385 31.1334 20.3327 30.1726 23.462 27.9997C25.4896 26.5919 27.7162 24.6077 30.1593 21.9642C29.1158 21.1798 28.0196 20.4673 26.8782 19.8319C24.7659 22.0689 22.8984 23.7 21.2643 24.8347C18.518 26.7416 16.6653 27.0889 15.5122 26.8892C14.4442 26.7043 13.5085 25.9622 12.7634 24.4436C12.1524 23.1985 11.746 21.5604 11.5698 19.6904C15.8515 18.0612 20.2218 15.9547 22.9058 13.3987ZM20.2484 10.6083C18.3621 12.4046 15.1614 14.0936 11.5413 15.5617C11.7798 12.2881 12.696 4.75176 16.8428 3.77684C19.1946 3.22393 21.9313 5.45285 21.8444 7.8954C21.8192 8.60365 21.4012 9.51053 20.2484 10.6083Z" fill="#001630"/>
<path d="M23.8452 18.4475L23.7073 18.9886L23.6232 18.9671L23.8452 18.4475ZM23.8452 18.4475L23.7073 18.9886C27.0964 19.8522 30.1204 21.777 32.3375 24.4818C32.8402 25.0949 33.8335 24.6965 33.7729 23.9059L33.6922 22.8518C33.4652 19.8879 33.5956 16.9075 34.0805 13.9747L34.1232 13.7168C34.2722 12.8153 33.2434 12.1946 32.5154 12.7467M23.8452 18.4475L32.5154 12.7467M23.5671 17.4048L23.5671 17.4048L24.123 17.2197M23.5671 17.4048L24.123 17.2197M23.5671 17.4048C22.7954 17.6616 22.8351 18.7663 23.6232 18.9671L23.5671 17.4048ZM24.123 17.2197C27.0661 16.2402 29.8284 14.7843 32.3 12.91L32.5154 12.7467M24.123 17.2197L32.5154 12.7467" fill="#01FF85" stroke="white" stroke-width="1.12281"/>
<path d="M43.0617 23.3965V7.80024H53.5942V10.7484H46.5725V13.8092H52.8065V16.6899H46.5725V20.4483H54.1118V23.3965H43.0617ZM62.989 17.1175C62.989 16.0372 62.8464 15.272 62.5614 14.8219C62.2913 14.3718 61.8187 14.1468 61.1435 14.1468C60.9335 14.1468 60.7159 14.1618 60.4909 14.1918C60.2658 14.2068 60.0483 14.2293 59.8382 14.2593V23.3965H56.4849V11.9637C56.77 11.8887 57.1001 11.8137 57.4751 11.7387C57.8652 11.6487 58.2703 11.5736 58.6904 11.5136C59.1255 11.4386 59.5682 11.3861 60.0183 11.3561C60.4684 11.3111 60.911 11.2886 61.3461 11.2886C62.2013 11.2886 62.8914 11.4011 63.4166 11.6262C63.9567 11.8362 64.3993 12.0913 64.7444 12.3913C65.2245 12.0463 65.7721 11.7762 66.3873 11.5811C67.0174 11.3861 67.5951 11.2886 68.1202 11.2886C69.0654 11.2886 69.8381 11.4236 70.4383 11.6937C71.0534 11.9487 71.541 12.3163 71.9011 12.7964C72.2612 13.2766 72.5088 13.8467 72.6438 14.5068C72.7788 15.167 72.8463 15.9022 72.8463 16.7124V23.3965H69.493V17.1175C69.493 16.0372 69.3505 15.272 69.0654 14.8219C68.7954 14.3718 68.3228 14.1468 67.6476 14.1468C67.4675 14.1468 67.2125 14.1918 66.8824 14.2818C66.5673 14.3718 66.3048 14.4843 66.0947 14.6194C66.1997 14.9645 66.2673 15.332 66.2973 15.7221C66.3273 16.0972 66.3423 16.5023 66.3423 16.9374V23.3965H62.989V17.1175ZM83.4757 17.5676C83.4757 16.5323 83.2432 15.7071 82.7781 15.092C82.313 14.4618 81.6228 14.1468 80.7076 14.1468C80.4075 14.1468 80.1299 14.1618 79.8749 14.1918C79.6198 14.2068 79.4098 14.2293 79.2447 14.2593V20.3132C79.4548 20.4483 79.7248 20.5608 80.0549 20.6508C80.4 20.7408 80.7451 20.7859 81.0902 20.7859C82.6806 20.7859 83.4757 19.7131 83.4757 17.5676ZM86.8966 17.4776C86.8966 18.3928 86.784 19.2255 86.559 19.9757C86.3339 20.7258 86.0039 21.371 85.5688 21.9111C85.1336 22.4513 84.5935 22.8714 83.9484 23.1714C83.3032 23.4715 82.5605 23.6215 81.7203 23.6215C81.2552 23.6215 80.8201 23.5765 80.415 23.4865C80.0099 23.3965 79.6198 23.269 79.2447 23.1039V27.56H75.8914V11.9637C76.1915 11.8737 76.5366 11.7912 76.9267 11.7162C77.3168 11.6262 77.7219 11.5511 78.142 11.4911C78.5771 11.4311 79.0122 11.3861 79.4473 11.3561C79.8974 11.3111 80.325 11.2886 80.7301 11.2886C81.7053 11.2886 82.5755 11.4386 83.3407 11.7387C84.1059 12.0238 84.7511 12.4363 85.2762 12.9765C85.8013 13.5016 86.1989 14.1468 86.469 14.9119C86.754 15.6771 86.8966 16.5323 86.8966 17.4776ZM94.1999 23.6215C93.2247 23.6065 92.4295 23.5015 91.8144 23.3065C91.2142 23.1114 90.7341 22.8414 90.374 22.4963C90.0289 22.1362 89.7889 21.7086 89.6538 21.2135C89.5338 20.7033 89.4738 20.1332 89.4738 19.503V6.47242L92.8271 5.93229V18.8279C92.8271 19.128 92.8496 19.398 92.8946 19.6381C92.9396 19.8781 93.0221 20.0807 93.1422 20.2457C93.2772 20.4108 93.4648 20.5458 93.7048 20.6508C93.9449 20.7558 94.2674 20.8234 94.6725 20.8534L94.1999 23.6215ZM107.667 17.4551C107.667 18.3853 107.532 19.2405 107.262 20.0207C106.992 20.7859 106.602 21.446 106.092 22.0011C105.582 22.5413 104.967 22.9614 104.246 23.2615C103.541 23.5615 102.746 23.7116 101.861 23.7116C100.991 23.7116 100.196 23.5615 99.4753 23.2615C98.7702 22.9614 98.1625 22.5413 97.6524 22.0011C97.1423 21.446 96.7447 20.7859 96.4596 20.0207C96.1745 19.2405 96.032 18.3853 96.032 17.4551C96.032 16.5248 96.1745 15.6771 96.4596 14.9119C96.7597 14.1468 97.1648 13.4941 97.6749 12.954C98.2 12.4138 98.8152 11.9937 99.5203 11.6937C100.241 11.3936 101.021 11.2436 101.861 11.2436C102.716 11.2436 103.496 11.3936 104.201 11.6937C104.922 11.9937 105.537 12.4138 106.047 12.954C106.557 13.4941 106.955 14.1468 107.24 14.9119C107.525 15.6771 107.667 16.5248 107.667 17.4551ZM104.246 17.4551C104.246 16.4198 104.036 15.6096 103.616 15.0245C103.211 14.4243 102.626 14.1243 101.861 14.1243C101.096 14.1243 100.503 14.4243 100.083 15.0245C99.6629 15.6096 99.4528 16.4198 99.4528 17.4551C99.4528 18.4903 99.6629 19.3155 100.083 19.9307C100.503 20.5308 101.096 20.8309 101.861 20.8309C102.626 20.8309 103.211 20.5308 103.616 19.9307C104.036 19.3155 104.246 18.4903 104.246 17.4551ZM120.467 11.5586C119.792 13.8392 119.087 15.9772 118.352 17.9727C117.617 19.9682 116.814 21.9036 115.944 23.7791C115.629 24.4542 115.314 25.0244 114.998 25.4895C114.683 25.9696 114.338 26.3597 113.963 26.6598C113.588 26.9748 113.16 27.1999 112.68 27.3349C112.215 27.485 111.668 27.56 111.037 27.56C110.512 27.56 110.025 27.5075 109.575 27.4024C109.14 27.3124 108.779 27.2074 108.494 27.0874L109.08 24.4092C109.425 24.5293 109.732 24.6118 110.002 24.6568C110.272 24.7018 110.557 24.7243 110.857 24.7243C111.458 24.7243 111.915 24.5593 112.23 24.2292C112.56 23.9141 112.838 23.4715 113.063 22.9014C112.298 21.401 111.533 19.7206 110.767 17.8602C110.002 15.9847 109.282 13.8842 108.607 11.5586H112.163C112.313 12.1438 112.485 12.7814 112.68 13.4716C112.89 14.1468 113.108 14.8369 113.333 15.5421C113.558 16.2323 113.783 16.9074 114.008 17.5676C114.248 18.2277 114.473 18.8279 114.683 19.368C114.878 18.8279 115.081 18.2277 115.291 17.5676C115.501 16.9074 115.704 16.2323 115.899 15.5421C116.109 14.8369 116.304 14.1468 116.484 13.4716C116.679 12.7814 116.851 12.1438 117.001 11.5586H120.467Z" fill="#001630"/>
<path d="M126.569 21.0559C126.899 21.0559 127.214 21.0484 127.514 21.0334C127.814 21.0184 128.054 20.9959 128.234 20.9659V18.4228C128.099 18.3928 127.897 18.3628 127.626 18.3328C127.356 18.3028 127.109 18.2878 126.884 18.2878C126.569 18.2878 126.269 18.3103 125.984 18.3553C125.713 18.3853 125.473 18.4528 125.263 18.5578C125.053 18.6628 124.888 18.8054 124.768 18.9854C124.648 19.1655 124.588 19.3905 124.588 19.6606C124.588 20.1857 124.761 20.5533 125.106 20.7634C125.466 20.9584 125.954 21.0559 126.569 21.0559ZM126.299 11.2436C127.289 11.2436 128.114 11.3561 128.774 11.5811C129.434 11.8062 129.96 12.1288 130.35 12.5489C130.755 12.969 131.04 13.4791 131.205 14.0792C131.37 14.6794 131.452 15.347 131.452 16.0822V23.0589C130.972 23.1639 130.305 23.284 129.449 23.419C128.594 23.569 127.559 23.644 126.344 23.644C125.578 23.644 124.881 23.5765 124.251 23.4415C123.635 23.3065 123.103 23.0889 122.653 22.7888C122.203 22.4738 121.858 22.0687 121.617 21.5735C121.377 21.0784 121.257 20.4708 121.257 19.7506C121.257 19.0604 121.392 18.4753 121.663 17.9952C121.948 17.5151 122.323 17.1325 122.788 16.8474C123.253 16.5623 123.786 16.3598 124.386 16.2398C124.986 16.1047 125.608 16.0372 126.254 16.0372C126.689 16.0372 127.071 16.0597 127.401 16.1047C127.746 16.1347 128.024 16.1797 128.234 16.2398V15.9247C128.234 15.3546 128.062 14.8969 127.716 14.5519C127.371 14.2068 126.771 14.0342 125.916 14.0342C125.346 14.0342 124.783 14.0792 124.228 14.1693C123.673 14.2443 123.193 14.3568 122.788 14.5068L122.36 11.8062C122.555 11.7462 122.795 11.6862 123.08 11.6262C123.38 11.5511 123.703 11.4911 124.048 11.4461C124.393 11.3861 124.753 11.3411 125.128 11.3111C125.518 11.2661 125.909 11.2436 126.299 11.2436ZM142.069 17.3875C142.069 15.227 141.274 14.1468 139.683 14.1468C139.338 14.1468 138.993 14.1918 138.648 14.2818C138.318 14.3718 138.048 14.4843 137.838 14.6194V20.7183C138.003 20.7483 138.213 20.7784 138.468 20.8084C138.723 20.8234 139.001 20.8309 139.301 20.8309C140.216 20.8309 140.906 20.5158 141.371 19.8856C141.836 19.2555 142.069 18.4228 142.069 17.3875ZM145.49 17.4776C145.49 18.4228 145.347 19.278 145.062 20.0432C144.792 20.8084 144.394 21.461 143.869 22.0011C143.344 22.5413 142.699 22.9614 141.934 23.2615C141.169 23.5465 140.299 23.6891 139.323 23.6891C138.918 23.6891 138.491 23.6665 138.04 23.6215C137.605 23.5915 137.17 23.5465 136.735 23.4865C136.315 23.4265 135.91 23.359 135.52 23.284C135.13 23.1939 134.785 23.1039 134.485 23.0139V6.47242L137.838 5.93229V11.8287C138.213 11.6637 138.603 11.5361 139.008 11.4461C139.413 11.3561 139.848 11.3111 140.314 11.3111C141.154 11.3111 141.896 11.4611 142.542 11.7612C143.187 12.0463 143.727 12.4589 144.162 12.999C144.597 13.5391 144.927 14.1918 145.152 14.957C145.377 15.7071 145.49 16.5473 145.49 17.4776ZM151.42 23.3965H148.067V11.5586H151.42V23.3965ZM151.735 8.13782C151.735 8.75296 151.533 9.24058 151.128 9.60067C150.738 9.94575 150.273 10.1183 149.732 10.1183C149.192 10.1183 148.72 9.94575 148.315 9.60067C147.924 9.24058 147.729 8.75296 147.729 8.13782C147.729 7.52267 147.924 7.04255 148.315 6.69747C148.72 6.33738 149.192 6.15734 149.732 6.15734C150.273 6.15734 150.738 6.33738 151.128 6.69747C151.533 7.04255 151.735 7.52267 151.735 8.13782ZM159.299 23.6215C158.323 23.6065 157.528 23.5015 156.913 23.3065C156.313 23.1114 155.833 22.8414 155.473 22.4963C155.128 22.1362 154.888 21.7086 154.752 21.2135C154.632 20.7033 154.572 20.1332 154.572 19.503V6.47242L157.926 5.93229V18.8279C157.926 19.128 157.948 19.398 157.993 19.6381C158.038 19.8781 158.121 20.0807 158.241 20.2457C158.376 20.4108 158.563 20.5458 158.803 20.6508C159.044 20.7558 159.366 20.8234 159.771 20.8534L159.299 23.6215ZM165.047 23.3965H161.693V11.5586H165.047V23.3965ZM165.362 8.13782C165.362 8.75296 165.159 9.24058 164.754 9.60067C164.364 9.94575 163.899 10.1183 163.359 10.1183C162.819 10.1183 162.346 9.94575 161.941 9.60067C161.551 9.24058 161.356 8.75296 161.356 8.13782C161.356 7.52267 161.551 7.04255 161.941 6.69747C162.346 6.33738 162.819 6.15734 163.359 6.15734C163.899 6.15734 164.364 6.33738 164.754 6.69747C165.159 7.04255 165.362 7.52267 165.362 8.13782ZM168.086 8.61043L171.44 8.0703V11.5586H175.468V14.3493H171.44V18.5128C171.44 19.218 171.56 19.7806 171.8 20.2007C172.055 20.6208 172.557 20.8309 173.307 20.8309C173.668 20.8309 174.035 20.8009 174.41 20.7408C174.8 20.6658 175.153 20.5683 175.468 20.4483L175.941 23.0589C175.536 23.2239 175.085 23.3665 174.59 23.4865C174.095 23.6065 173.488 23.6665 172.767 23.6665C171.852 23.6665 171.094 23.5465 170.494 23.3065C169.894 23.0514 169.414 22.7063 169.054 22.2712C168.694 21.8211 168.439 21.281 168.289 20.6508C168.154 20.0207 168.086 19.323 168.086 18.5578V8.61043ZM188.929 11.5586C188.253 13.8392 187.548 15.9772 186.813 17.9727C186.078 19.9682 185.275 21.9036 184.405 23.7791C184.09 24.4542 183.775 25.0244 183.46 25.4895C183.145 25.9696 182.8 26.3597 182.424 26.6598C182.049 26.9748 181.622 27.1999 181.142 27.3349C180.677 27.485 180.129 27.56 179.499 27.56C178.974 27.56 178.486 27.5075 178.036 27.4024C177.601 27.3124 177.241 27.2074 176.956 27.0874L177.541 24.4092C177.886 24.5293 178.193 24.6118 178.464 24.6568C178.734 24.7018 179.019 24.7243 179.319 24.7243C179.919 24.7243 180.376 24.5593 180.692 24.2292C181.022 23.9141 181.299 23.4715 181.524 22.9014C180.759 21.401 179.994 19.7206 179.229 17.8602C178.464 15.9847 177.743 13.8842 177.068 11.5586H180.624C180.774 12.1438 180.947 12.7814 181.142 13.4716C181.352 14.1468 181.569 14.8369 181.794 15.5421C182.019 16.2323 182.244 16.9074 182.469 17.5676C182.71 18.2277 182.935 18.8279 183.145 19.368C183.34 18.8279 183.542 18.2277 183.752 17.5676C183.962 16.9074 184.165 16.2323 184.36 15.5421C184.57 14.8369 184.765 14.1468 184.945 13.4716C185.14 12.7814 185.313 12.1438 185.463 11.5586H188.929Z" fill="#11DF7C"/>
</svg>
