<svg width="401" height="51" viewBox="0 0 401 51" fill="none" xmlns="http://www.w3.org/2000/svg">
<path d="M0.381282 24.8813C0.0395728 25.223 0.0395728 25.777 0.381282 26.1187L5.94975 31.6872C6.29146 32.0289 6.84548 32.0289 7.18718 31.6872C7.52889 31.3455 7.52889 30.7915 7.18718 30.4497L2.23744 25.5L7.18718 20.5503C7.52889 20.2085 7.52889 19.6545 7.18718 19.3128C6.84548 18.9711 6.29146 18.9711 5.94975 19.3128L0.381282 24.8813ZM1 26.375H13.5V24.625H1V26.375Z" fill="#666666"/>
<path d="M28.8516 30.5H24.5938V19.2266H28.8672C30.7969 19.2266 32.1016 20.3516 32.1016 22.0391C32.1016 23.2109 31.2422 24.3047 30.1562 24.5V24.5625C31.6875 24.7578 32.6719 25.8359 32.6719 27.3359C32.6719 29.3203 31.25 30.5 28.8516 30.5ZM26 20.4688V24.0859H28.1094C29.7734 24.0859 30.6797 23.4219 30.6797 22.2031C30.6797 21.0859 29.9141 20.4688 28.5469 20.4688H26ZM26 29.2578H28.6406C30.3359 29.2578 31.2266 28.5703 31.2266 27.2656C31.2266 25.9609 30.3047 25.2969 28.5078 25.2969H26V29.2578ZM36.7344 29.4844C38.0156 29.4844 39 28.5859 39 27.4141V26.75L36.8281 26.8828C35.7344 26.9531 35.1094 27.4375 35.1094 28.2031C35.1094 28.9766 35.7578 29.4844 36.7344 29.4844ZM36.4297 30.6406C34.8125 30.6406 33.7266 29.6641 33.7266 28.2031C33.7266 26.8125 34.7969 25.9375 36.6719 25.8281L39 25.6953V25.0156C39 24.0234 38.3438 23.4297 37.2188 23.4297C36.1719 23.4297 35.5156 23.9219 35.3438 24.7188H34.0312C34.125 23.3125 35.3281 22.2344 37.25 22.2344C39.1562 22.2344 40.3594 23.2656 40.3594 24.8828V30.5H39.0703V29.1016H39.0391C38.5547 30.0312 37.5234 30.6406 36.4297 30.6406ZM48.8359 25.0391H47.5078C47.3125 24.1562 46.625 23.4297 45.4297 23.4297C44.0234 23.4297 43.0703 24.5938 43.0703 26.4375C43.0703 28.3281 44.0391 29.4453 45.4453 29.4453C46.5547 29.4453 47.2812 28.8594 47.5156 27.8828H48.8516C48.6406 29.5 47.2812 30.6406 45.4375 30.6406C43.1875 30.6406 41.6875 29.0547 41.6875 26.4375C41.6875 23.875 43.1797 22.2344 45.4219 22.2344C47.4531 22.2344 48.6641 23.5781 48.8359 25.0391ZM51.5312 25.9844L55.125 22.375H56.7734L53.25 25.8828L56.8828 30.5H55.3047L52.2891 26.7188L51.5312 27.4375V30.5H50.1719V19.2266H51.5312V25.9844Z" fill="#666666"/>
</svg>
