<svg width="560" height="76" viewBox="0 0 560 76" fill="none" xmlns="http://www.w3.org/2000/svg">
<path d="M36.94 10.3238C37.196 11.1985 37.4733 12.1905 37.772 13.2998C38.092 14.3878 38.4227 15.5185 38.764 16.6918C39.1267 17.8652 39.4893 19.0385 39.852 20.2118C40.2147 21.3852 40.5667 22.4732 40.908 23.4758C41.1853 22.3878 41.4627 21.2038 41.74 19.9238C42.0387 18.6438 42.316 17.3212 42.572 15.9558C42.828 14.5905 43.0733 13.2358 43.308 11.8918C43.564 10.5265 43.7987 9.2145 44.012 7.95584H49.196C48.4493 11.6678 47.5853 15.4332 46.604 19.2518C45.644 23.0705 44.5987 26.6972 43.468 30.1318H38.892C38.1453 28.0838 37.42 25.9398 36.716 23.6998C36.012 21.4385 35.3187 19.1772 34.636 16.9158C33.9533 19.1772 33.2707 21.4385 32.588 23.6998C31.9053 25.9398 31.1907 28.0838 30.444 30.1318H25.868C24.7373 26.6972 23.6813 23.0705 22.7 19.2518C21.74 15.4332 20.8867 11.6678 20.14 7.95584H25.548C25.7613 9.2145 25.996 10.5265 26.252 11.8918C26.508 13.2358 26.7747 14.5905 27.052 15.9558C27.3293 17.3212 27.6067 18.6438 27.884 19.9238C28.1827 21.2038 28.4813 22.3878 28.78 23.4758C29.164 22.4305 29.5373 21.3212 29.9 20.1478C30.2627 18.9745 30.6147 17.8012 30.956 16.6278C31.2973 15.4545 31.6067 14.3238 31.884 13.2358C32.1827 12.1478 32.4493 11.1772 32.684 10.3238H36.94ZM52.0838 30.1318V6.06783L56.8518 5.29984V13.3638C57.1718 13.2572 57.5771 13.1612 58.0677 13.0758C58.5798 12.9692 59.0704 12.9158 59.5398 12.9158C60.9051 12.9158 62.0358 13.1078 62.9318 13.4918C63.8491 13.8545 64.5744 14.3772 65.1078 15.0598C65.6624 15.7425 66.0464 16.5532 66.2598 17.4918C66.4944 18.4305 66.6118 19.4758 66.6118 20.6278V30.1318H61.8438V21.2038C61.8438 19.6678 61.6411 18.5798 61.2358 17.9398C60.8518 17.2998 60.1264 16.9798 59.0598 16.9798C58.6331 16.9798 58.2278 17.0225 57.8438 17.1078C57.4811 17.1718 57.1504 17.2465 56.8518 17.3318V30.1318H52.0838ZM77.3595 26.8038C77.8288 26.8038 78.2768 26.7932 78.7035 26.7718C79.1302 26.7505 79.4715 26.7185 79.7275 26.6758V23.0598C79.5355 23.0172 79.2475 22.9745 78.8635 22.9318C78.4795 22.8892 78.1275 22.8678 77.8075 22.8678C77.3595 22.8678 76.9328 22.8998 76.5275 22.9638C76.1435 23.0065 75.8022 23.1025 75.5035 23.2518C75.2048 23.4012 74.9702 23.6038 74.7995 23.8598C74.6288 24.1158 74.5435 24.4358 74.5435 24.8198C74.5435 25.5665 74.7888 26.0892 75.2795 26.3878C75.7915 26.6652 76.4848 26.8038 77.3595 26.8038ZM76.9755 12.8518C78.3835 12.8518 79.5568 13.0118 80.4955 13.3318C81.4342 13.6518 82.1808 14.1105 82.7355 14.7078C83.3115 15.3052 83.7168 16.0305 83.9515 16.8838C84.1862 17.7372 84.3035 18.6865 84.3035 19.7318V29.6518C83.6208 29.8012 82.6715 29.9718 81.4555 30.1638C80.2395 30.3772 78.7675 30.4838 77.0395 30.4838C75.9515 30.4838 74.9595 30.3878 74.0635 30.1958C73.1888 30.0038 72.4315 29.6945 71.7915 29.2678C71.1515 28.8198 70.6608 28.2438 70.3195 27.5398C69.9782 26.8358 69.8075 25.9718 69.8075 24.9478C69.8075 23.9665 69.9995 23.1345 70.3835 22.4518C70.7888 21.7692 71.3222 21.2252 71.9835 20.8198C72.6448 20.4145 73.4022 20.1265 74.2555 19.9558C75.1088 19.7638 75.9942 19.6678 76.9115 19.6678C77.5302 19.6678 78.0742 19.6998 78.5435 19.7638C79.0342 19.8065 79.4288 19.8705 79.7275 19.9558V19.5078C79.7275 18.6972 79.4822 18.0465 78.9915 17.5558C78.5008 17.0652 77.6475 16.8198 76.4315 16.8198C75.6208 16.8198 74.8208 16.8838 74.0315 17.0118C73.2422 17.1185 72.5595 17.2785 71.9835 17.4918L71.3755 13.6518C71.6528 13.5665 71.9942 13.4812 72.3995 13.3958C72.8262 13.2892 73.2848 13.2038 73.7755 13.1398C74.2662 13.0545 74.7782 12.9905 75.3115 12.9478C75.8662 12.8838 76.4208 12.8518 76.9755 12.8518ZM88.455 9.10784L93.223 8.33983V13.2998H98.951V17.2678H93.223V23.1878C93.223 24.1905 93.3937 24.9905 93.735 25.5878C94.0977 26.1852 94.8123 26.4838 95.879 26.4838C96.391 26.4838 96.9137 26.4412 97.447 26.3558C98.0017 26.2492 98.503 26.1105 98.951 25.9398L99.623 29.6518C99.047 29.8865 98.407 30.0892 97.703 30.2598C96.999 30.4305 96.135 30.5158 95.111 30.5158C93.8097 30.5158 92.7323 30.3452 91.879 30.0038C91.0257 29.6412 90.343 29.1505 89.831 28.5318C89.319 27.8918 88.9563 27.1238 88.743 26.2278C88.551 25.3318 88.455 24.3398 88.455 23.2518V9.10784ZM121.305 21.5878C121.305 18.5158 120.175 16.9798 117.913 16.9798C117.423 16.9798 116.932 17.0438 116.441 17.1718C115.972 17.2998 115.588 17.4598 115.289 17.6518V26.3238C115.524 26.3665 115.823 26.4092 116.185 26.4518C116.548 26.4732 116.943 26.4838 117.369 26.4838C118.671 26.4838 119.652 26.0358 120.313 25.1398C120.975 24.2438 121.305 23.0598 121.305 21.5878ZM126.169 21.7158C126.169 23.0598 125.967 24.2758 125.561 25.3638C125.177 26.4518 124.612 27.3798 123.865 28.1478C123.119 28.9158 122.201 29.5132 121.113 29.9398C120.025 30.3452 118.788 30.5478 117.401 30.5478C116.825 30.5478 116.217 30.5158 115.577 30.4518C114.959 30.4092 114.34 30.3452 113.721 30.2598C113.124 30.1745 112.548 30.0785 111.993 29.9718C111.439 29.8438 110.948 29.7158 110.521 29.5878V6.06783L115.289 5.29984V13.6838C115.823 13.4492 116.377 13.2678 116.953 13.1398C117.529 13.0118 118.148 12.9478 118.809 12.9478C120.004 12.9478 121.06 13.1612 121.977 13.5878C122.895 13.9932 123.663 14.5798 124.281 15.3478C124.9 16.1158 125.369 17.0438 125.689 18.1318C126.009 19.1985 126.169 20.3932 126.169 21.7158ZM139.978 17.5238C139.551 17.4172 139.05 17.3105 138.474 17.2038C137.898 17.0758 137.279 17.0118 136.618 17.0118C136.319 17.0118 135.956 17.0438 135.53 17.1078C135.124 17.1505 134.815 17.2038 134.602 17.2678V30.1318H129.834V14.1958C130.687 13.8972 131.69 13.6198 132.842 13.3638C134.015 13.0865 135.316 12.9478 136.746 12.9478C137.002 12.9478 137.311 12.9692 137.674 13.0118C138.036 13.0332 138.399 13.0758 138.762 13.1398C139.124 13.1825 139.487 13.2465 139.85 13.3318C140.212 13.3958 140.522 13.4812 140.778 13.5878L139.978 17.5238ZM148.102 30.1318H143.334V13.2998H148.102V30.1318ZM148.55 8.43583C148.55 9.3105 148.262 10.0038 147.686 10.5158C147.131 11.0065 146.47 11.2518 145.702 11.2518C144.934 11.2518 144.262 11.0065 143.686 10.5158C143.131 10.0038 142.854 9.3105 142.854 8.43583C142.854 7.56117 143.131 6.8785 143.686 6.38783C144.262 5.87583 144.934 5.61983 145.702 5.61983C146.47 5.61983 147.131 5.87583 147.686 6.38783C148.262 6.8785 148.55 7.56117 148.55 8.43583ZM152.584 13.8758C153.394 13.6412 154.44 13.4278 155.72 13.2358C157 13.0225 158.344 12.9158 159.752 12.9158C161.181 12.9158 162.365 13.1078 163.304 13.4918C164.264 13.8545 165.021 14.3772 165.576 15.0598C166.13 15.7425 166.525 16.5532 166.76 17.4918C166.994 18.4305 167.112 19.4758 167.112 20.6278V30.1318H162.344V21.2038C162.344 19.6678 162.141 18.5798 161.736 17.9398C161.33 17.2998 160.573 16.9798 159.464 16.9798C159.122 16.9798 158.76 17.0012 158.376 17.0438C157.992 17.0652 157.65 17.0972 157.352 17.1398V30.1318H152.584V13.8758ZM175.492 21.1718C175.492 23.8385 176.569 25.1718 178.724 25.1718C179.214 25.1718 179.673 25.1078 180.1 24.9798C180.526 24.8518 180.889 24.7025 181.188 24.5318V16.9158C180.953 16.8732 180.676 16.8412 180.356 16.8198C180.036 16.7772 179.662 16.7558 179.236 16.7558C177.977 16.7558 177.038 17.1718 176.42 18.0038C175.801 18.8358 175.492 19.8918 175.492 21.1718ZM185.956 28.0198C185.956 30.7718 185.252 32.8092 183.844 34.1318C182.457 35.4758 180.302 36.1478 177.38 36.1478C176.356 36.1478 175.332 36.0518 174.308 35.8598C173.284 35.6892 172.334 35.4545 171.46 35.1558L172.292 31.1558C173.038 31.4545 173.817 31.6892 174.628 31.8598C175.46 32.0305 176.398 32.1158 177.444 32.1158C178.809 32.1158 179.769 31.8172 180.324 31.2198C180.9 30.6225 181.188 29.8545 181.188 28.9158V28.3078C180.676 28.5425 180.142 28.7238 179.588 28.8518C179.054 28.9585 178.468 29.0118 177.828 29.0118C175.502 29.0118 173.721 28.3292 172.484 26.9638C171.246 25.5772 170.628 23.6465 170.628 21.1718C170.628 19.9345 170.82 18.8145 171.204 17.8118C171.588 16.7878 172.142 15.9132 172.868 15.1878C173.614 14.4625 174.521 13.9078 175.588 13.5238C176.654 13.1185 177.86 12.9158 179.204 12.9158C179.78 12.9158 180.366 12.9478 180.964 13.0118C181.582 13.0545 182.19 13.1185 182.788 13.2038C183.385 13.2892 183.95 13.3958 184.484 13.5238C185.038 13.6305 185.529 13.7478 185.956 13.8758V28.0198ZM195.26 26.7078C196.134 26.7078 196.753 26.6225 197.116 26.4518C197.478 26.2812 197.66 25.9505 197.66 25.4598C197.66 25.0758 197.425 24.7452 196.956 24.4678C196.486 24.1692 195.772 23.8385 194.812 23.4758C194.065 23.1985 193.382 22.9105 192.764 22.6118C192.166 22.3132 191.654 21.9612 191.228 21.5558C190.801 21.1292 190.47 20.6278 190.236 20.0518C190.001 19.4758 189.884 18.7825 189.884 17.9718C189.884 16.3932 190.47 15.1452 191.644 14.2278C192.817 13.3105 194.428 12.8518 196.476 12.8518C197.5 12.8518 198.481 12.9478 199.42 13.1398C200.358 13.3105 201.105 13.5025 201.66 13.7158L200.828 17.4278C200.273 17.2358 199.665 17.0652 199.004 16.9158C198.364 16.7665 197.638 16.6918 196.828 16.6918C195.334 16.6918 194.588 17.1078 194.588 17.9398C194.588 18.1318 194.62 18.3025 194.684 18.4518C194.748 18.6012 194.876 18.7505 195.068 18.8998C195.26 19.0278 195.516 19.1772 195.836 19.3478C196.177 19.4972 196.604 19.6678 197.116 19.8598C198.161 20.2438 199.025 20.6278 199.708 21.0118C200.39 21.3745 200.924 21.7798 201.308 22.2278C201.713 22.6545 201.99 23.1345 202.14 23.6678C202.31 24.2012 202.396 24.8198 202.396 25.5238C202.396 27.1878 201.766 28.4465 200.508 29.2998C199.27 30.1532 197.51 30.5798 195.228 30.5798C193.734 30.5798 192.486 30.4518 191.484 30.1958C190.502 29.9398 189.82 29.7265 189.436 29.5558L190.236 25.6838C191.046 26.0038 191.878 26.2598 192.732 26.4518C193.585 26.6225 194.428 26.7078 195.26 26.7078ZM228.59 13.2998C227.63 16.5425 226.628 19.5825 225.582 22.4198C224.537 25.2572 223.396 28.0092 222.158 30.6758C221.71 31.6358 221.262 32.4465 220.814 33.1078C220.366 33.7905 219.876 34.3452 219.342 34.7718C218.809 35.2198 218.201 35.5398 217.518 35.7318C216.857 35.9452 216.078 36.0518 215.182 36.0518C214.436 36.0518 213.742 35.9772 213.102 35.8278C212.484 35.6998 211.972 35.5505 211.566 35.3798L212.398 31.5718C212.889 31.7425 213.326 31.8598 213.71 31.9238C214.094 31.9878 214.5 32.0198 214.926 32.0198C215.78 32.0198 216.43 31.7852 216.878 31.3158C217.348 30.8678 217.742 30.2385 218.062 29.4278C216.974 27.2945 215.886 24.9052 214.798 22.2598C213.71 19.5932 212.686 16.6065 211.726 13.2998H216.782C216.996 14.1318 217.241 15.0385 217.518 16.0198C217.817 16.9798 218.126 17.9612 218.446 18.9638C218.766 19.9452 219.086 20.9052 219.406 21.8438C219.748 22.7825 220.068 23.6358 220.366 24.4038C220.644 23.6358 220.932 22.7825 221.23 21.8438C221.529 20.9052 221.817 19.9452 222.094 18.9638C222.393 17.9612 222.67 16.9798 222.926 16.0198C223.204 15.0385 223.449 14.1318 223.662 13.2998H228.59ZM246.453 21.6838C246.453 23.0065 246.261 24.2225 245.877 25.3318C245.493 26.4198 244.938 27.3585 244.213 28.1478C243.487 28.9158 242.613 29.5132 241.589 29.9398C240.586 30.3665 239.455 30.5798 238.197 30.5798C236.959 30.5798 235.829 30.3665 234.805 29.9398C233.802 29.5132 232.938 28.9158 232.213 28.1478C231.487 27.3585 230.922 26.4198 230.517 25.3318C230.111 24.2225 229.909 23.0065 229.909 21.6838C229.909 20.3612 230.111 19.1558 230.517 18.0678C230.943 16.9798 231.519 16.0518 232.245 15.2838C232.991 14.5158 233.866 13.9185 234.869 13.4918C235.893 13.0652 237.002 12.8518 238.197 12.8518C239.413 12.8518 240.522 13.0652 241.525 13.4918C242.549 13.9185 243.423 14.5158 244.149 15.2838C244.874 16.0518 245.439 16.9798 245.845 18.0678C246.25 19.1558 246.453 20.3612 246.453 21.6838ZM241.589 21.6838C241.589 20.2118 241.29 19.0598 240.693 18.2278C240.117 17.3745 239.285 16.9478 238.197 16.9478C237.109 16.9478 236.266 17.3745 235.669 18.2278C235.071 19.0598 234.773 20.2118 234.773 21.6838C234.773 23.1558 235.071 24.3292 235.669 25.2038C236.266 26.0572 237.109 26.4838 238.197 26.4838C239.285 26.4838 240.117 26.0572 240.693 25.2038C241.29 24.3292 241.589 23.1558 241.589 21.6838ZM264.514 29.5558C263.704 29.7905 262.658 30.0038 261.378 30.1958C260.098 30.4092 258.754 30.5158 257.346 30.5158C255.917 30.5158 254.722 30.3238 253.762 29.9398C252.824 29.5558 252.077 29.0225 251.522 28.3398C250.968 27.6358 250.573 26.8038 250.338 25.8438C250.104 24.8838 249.986 23.8278 249.986 22.6758V13.2998H254.754V22.0998C254.754 23.6358 254.957 24.7452 255.362 25.4278C255.768 26.1105 256.525 26.4518 257.634 26.4518C257.976 26.4518 258.338 26.4412 258.722 26.4198C259.106 26.3772 259.448 26.3345 259.746 26.2918V13.2998H264.514V29.5558ZM276.518 9.10784L281.286 8.33983V13.2998H287.014V17.2678H281.286V23.1878C281.286 24.1905 281.456 24.9905 281.798 25.5878C282.16 26.1852 282.875 26.4838 283.942 26.4838C284.454 26.4838 284.976 26.4412 285.51 26.3558C286.064 26.2492 286.566 26.1105 287.014 25.9398L287.686 29.6518C287.11 29.8865 286.47 30.0892 285.766 30.2598C285.062 30.4305 284.198 30.5158 283.174 30.5158C281.872 30.5158 280.795 30.3452 279.942 30.0038C279.088 29.6412 278.406 29.1505 277.894 28.5318C277.382 27.8918 277.019 27.1238 276.806 26.2278C276.614 25.3318 276.518 24.3398 276.518 23.2518V9.10784ZM306.015 21.6838C306.015 23.0065 305.823 24.2225 305.439 25.3318C305.055 26.4198 304.501 27.3585 303.775 28.1478C303.05 28.9158 302.175 29.5132 301.151 29.9398C300.149 30.3665 299.018 30.5798 297.759 30.5798C296.522 30.5798 295.391 30.3665 294.367 29.9398C293.365 29.5132 292.501 28.9158 291.775 28.1478C291.05 27.3585 290.485 26.4198 290.079 25.3318C289.674 24.2225 289.471 23.0065 289.471 21.6838C289.471 20.3612 289.674 19.1558 290.079 18.0678C290.506 16.9798 291.082 16.0518 291.807 15.2838C292.554 14.5158 293.429 13.9185 294.431 13.4918C295.455 13.0652 296.565 12.8518 297.759 12.8518C298.975 12.8518 300.085 13.0652 301.087 13.4918C302.111 13.9185 302.986 14.5158 303.711 15.2838C304.437 16.0518 305.002 16.9798 305.407 18.0678C305.813 19.1558 306.015 20.3612 306.015 21.6838ZM301.151 21.6838C301.151 20.2118 300.853 19.0598 300.255 18.2278C299.679 17.3745 298.847 16.9478 297.759 16.9478C296.671 16.9478 295.829 17.3745 295.231 18.2278C294.634 19.0598 294.335 20.2118 294.335 21.6838C294.335 23.1558 294.634 24.3292 295.231 25.2038C295.829 26.0572 296.671 26.4838 297.759 26.4838C298.847 26.4838 299.679 26.0572 300.255 25.2038C300.853 24.3292 301.151 23.1558 301.151 21.6838Z" fill="#333333"/>
<path d="M317.716 30.1318V7.95584H332.692V12.1478H322.708V16.4998H331.572V20.5958H322.708V25.9398H333.428V30.1318H317.716ZM346.051 21.2038C346.051 19.6678 345.848 18.5798 345.443 17.9398C345.059 17.2998 344.387 16.9798 343.427 16.9798C343.128 16.9798 342.819 17.0012 342.499 17.0438C342.179 17.0652 341.869 17.0972 341.571 17.1398V30.1318H336.803V13.8758C337.208 13.7692 337.677 13.6625 338.211 13.5558C338.765 13.4278 339.341 13.3212 339.939 13.2358C340.557 13.1292 341.187 13.0545 341.827 13.0118C342.467 12.9478 343.096 12.9158 343.715 12.9158C344.931 12.9158 345.912 13.0758 346.659 13.3958C347.427 13.6945 348.056 14.0572 348.547 14.4838C349.229 13.9932 350.008 13.6092 350.883 13.3318C351.779 13.0545 352.6 12.9158 353.347 12.9158C354.691 12.9158 355.789 13.1078 356.643 13.4918C357.517 13.8545 358.211 14.3772 358.723 15.0598C359.235 15.7425 359.587 16.5532 359.779 17.4918C359.971 18.4305 360.067 19.4758 360.067 20.6278V30.1318H355.299V21.2038C355.299 19.6678 355.096 18.5798 354.691 17.9398C354.307 17.2998 353.635 16.9798 352.675 16.9798C352.419 16.9798 352.056 17.0438 351.587 17.1718C351.139 17.2998 350.765 17.4598 350.467 17.6518C350.616 18.1425 350.712 18.6652 350.755 19.2198C350.797 19.7532 350.819 20.3292 350.819 20.9478V30.1318H346.051V21.2038ZM375.18 21.8438C375.18 20.3718 374.85 19.1985 374.188 18.3238C373.527 17.4278 372.546 16.9798 371.244 16.9798C370.818 16.9798 370.423 17.0012 370.06 17.0438C369.698 17.0652 369.399 17.0972 369.164 17.1398V25.7478C369.463 25.9398 369.847 26.0998 370.316 26.2278C370.807 26.3558 371.298 26.4198 371.788 26.4198C374.05 26.4198 375.18 24.8945 375.18 21.8438ZM380.044 21.7158C380.044 23.0172 379.884 24.2012 379.564 25.2678C379.244 26.3345 378.775 27.2518 378.156 28.0198C377.538 28.7878 376.77 29.3852 375.852 29.8118C374.935 30.2385 373.879 30.4518 372.684 30.4518C372.023 30.4518 371.404 30.3878 370.828 30.2598C370.252 30.1318 369.698 29.9505 369.164 29.7158V36.0518H364.396V13.8758C364.823 13.7478 365.314 13.6305 365.868 13.5238C366.423 13.3958 366.999 13.2892 367.596 13.2038C368.215 13.1185 368.834 13.0545 369.452 13.0118C370.092 12.9478 370.7 12.9158 371.276 12.9158C372.663 12.9158 373.9 13.1292 374.988 13.5558C376.076 13.9612 376.994 14.5478 377.74 15.3158C378.487 16.0625 379.052 16.9798 379.436 18.0678C379.842 19.1558 380.044 20.3718 380.044 21.7158ZM390.429 30.4518C389.042 30.4305 387.911 30.2812 387.037 30.0038C386.183 29.7265 385.501 29.3425 384.989 28.8518C384.498 28.3398 384.157 27.7318 383.965 27.0278C383.794 26.3025 383.709 25.4918 383.709 24.5958V6.06783L388.477 5.29984V23.6358C388.477 24.0625 388.509 24.4465 388.573 24.7878C388.637 25.1292 388.754 25.4172 388.925 25.6518C389.117 25.8865 389.383 26.0785 389.725 26.2278C390.066 26.3772 390.525 26.4732 391.101 26.5158L390.429 30.4518ZM409.578 21.6838C409.578 23.0065 409.386 24.2225 409.002 25.3318C408.618 26.4198 408.063 27.3585 407.338 28.1478C406.612 28.9158 405.738 29.5132 404.714 29.9398C403.711 30.3665 402.58 30.5798 401.322 30.5798C400.084 30.5798 398.954 30.3665 397.93 29.9398C396.927 29.5132 396.063 28.9158 395.338 28.1478C394.612 27.3585 394.047 26.4198 393.642 25.3318C393.236 24.2225 393.034 23.0065 393.034 21.6838C393.034 20.3612 393.236 19.1558 393.642 18.0678C394.068 16.9798 394.644 16.0518 395.37 15.2838C396.116 14.5158 396.991 13.9185 397.994 13.4918C399.018 13.0652 400.127 12.8518 401.322 12.8518C402.538 12.8518 403.647 13.0652 404.65 13.4918C405.674 13.9185 406.548 14.5158 407.274 15.2838C407.999 16.0518 408.564 16.9798 408.97 18.0678C409.375 19.1558 409.578 20.3612 409.578 21.6838ZM404.714 21.6838C404.714 20.2118 404.415 19.0598 403.818 18.2278C403.242 17.3745 402.41 16.9478 401.322 16.9478C400.234 16.9478 399.391 17.3745 398.794 18.2278C398.196 19.0598 397.898 20.2118 397.898 21.6838C397.898 23.1558 398.196 24.3292 398.794 25.2038C399.391 26.0572 400.234 26.4838 401.322 26.4838C402.41 26.4838 403.242 26.0572 403.818 25.2038C404.415 24.3292 404.714 23.1558 404.714 21.6838ZM427.778 13.2998C426.818 16.5425 425.815 19.5825 424.77 22.4198C423.724 25.2572 422.583 28.0092 421.346 30.6758C420.898 31.6358 420.45 32.4465 420.002 33.1078C419.554 33.7905 419.063 34.3452 418.53 34.7718C417.996 35.2198 417.388 35.5398 416.706 35.7318C416.044 35.9452 415.266 36.0518 414.37 36.0518C413.623 36.0518 412.93 35.9772 412.29 35.8278C411.671 35.6998 411.159 35.5505 410.754 35.3798L411.586 31.5718C412.076 31.7425 412.514 31.8598 412.898 31.9238C413.282 31.9878 413.687 32.0198 414.114 32.0198C414.967 32.0198 415.618 31.7852 416.066 31.3158C416.535 30.8678 416.93 30.2385 417.25 29.4278C416.162 27.2945 415.074 24.9052 413.986 22.2598C412.898 19.5932 411.874 16.6065 410.914 13.2998H415.97C416.183 14.1318 416.428 15.0385 416.706 16.0198C417.004 16.9798 417.314 17.9612 417.634 18.9638C417.954 19.9452 418.274 20.9052 418.594 21.8438C418.935 22.7825 419.255 23.6358 419.554 24.4038C419.831 23.6358 420.119 22.7825 420.418 21.8438C420.716 20.9052 421.004 19.9452 421.282 18.9638C421.58 17.9612 421.858 16.9798 422.114 16.0198C422.391 15.0385 422.636 14.1318 422.85 13.2998H427.778ZM436.453 26.8038C436.923 26.8038 437.371 26.7932 437.797 26.7718C438.224 26.7505 438.565 26.7185 438.821 26.6758V23.0598C438.629 23.0172 438.341 22.9745 437.957 22.9318C437.573 22.8892 437.221 22.8678 436.901 22.8678C436.453 22.8678 436.027 22.8998 435.621 22.9638C435.237 23.0065 434.896 23.1025 434.597 23.2518C434.299 23.4012 434.064 23.6038 433.893 23.8598C433.723 24.1158 433.637 24.4358 433.637 24.8198C433.637 25.5665 433.883 26.0892 434.373 26.3878C434.885 26.6652 435.579 26.8038 436.453 26.8038ZM436.069 12.8518C437.477 12.8518 438.651 13.0118 439.589 13.3318C440.528 13.6518 441.275 14.1105 441.829 14.7078C442.405 15.3052 442.811 16.0305 443.045 16.8838C443.28 17.7372 443.397 18.6865 443.397 19.7318V29.6518C442.715 29.8012 441.765 29.9718 440.549 30.1638C439.333 30.3772 437.861 30.4838 436.133 30.4838C435.045 30.4838 434.053 30.3878 433.157 30.1958C432.283 30.0038 431.525 29.6945 430.885 29.2678C430.245 28.8198 429.755 28.2438 429.413 27.5398C429.072 26.8358 428.901 25.9718 428.901 24.9478C428.901 23.9665 429.093 23.1345 429.477 22.4518C429.883 21.7692 430.416 21.2252 431.077 20.8198C431.739 20.4145 432.496 20.1265 433.349 19.9558C434.203 19.7638 435.088 19.6678 436.005 19.6678C436.624 19.6678 437.168 19.6998 437.637 19.7638C438.128 19.8065 438.523 19.8705 438.821 19.9558V19.5078C438.821 18.6972 438.576 18.0465 438.085 17.5558C437.595 17.0652 436.741 16.8198 435.525 16.8198C434.715 16.8198 433.915 16.8838 433.125 17.0118C432.336 17.1185 431.653 17.2785 431.077 17.4918L430.469 13.6518C430.747 13.5665 431.088 13.4812 431.493 13.3958C431.92 13.2892 432.379 13.2038 432.869 13.1398C433.36 13.0545 433.872 12.9905 434.405 12.9478C434.96 12.8838 435.515 12.8518 436.069 12.8518ZM458.493 21.5878C458.493 18.5158 457.362 16.9798 455.101 16.9798C454.61 16.9798 454.119 17.0438 453.629 17.1718C453.159 17.2998 452.775 17.4598 452.477 17.6518V26.3238C452.711 26.3665 453.01 26.4092 453.373 26.4518C453.735 26.4732 454.13 26.4838 454.557 26.4838C455.858 26.4838 456.839 26.0358 457.501 25.1398C458.162 24.2438 458.493 23.0598 458.493 21.5878ZM463.357 21.7158C463.357 23.0598 463.154 24.2758 462.749 25.3638C462.365 26.4518 461.799 27.3798 461.053 28.1478C460.306 28.9158 459.389 29.5132 458.301 29.9398C457.213 30.3452 455.975 30.5478 454.589 30.5478C454.013 30.5478 453.405 30.5158 452.765 30.4518C452.146 30.4092 451.527 30.3452 450.909 30.2598C450.311 30.1745 449.735 30.0785 449.181 29.9718C448.626 29.8438 448.135 29.7158 447.709 29.5878V6.06783L452.477 5.29984V13.6838C453.01 13.4492 453.565 13.2678 454.141 13.1398C454.717 13.0118 455.335 12.9478 455.997 12.9478C457.191 12.9478 458.247 13.1612 459.165 13.5878C460.082 13.9932 460.85 14.5798 461.469 15.3478C462.087 16.1158 462.557 17.0438 462.877 18.1318C463.197 19.1985 463.357 20.3932 463.357 21.7158ZM471.789 30.1318H467.021V13.2998H471.789V30.1318ZM472.237 8.43583C472.237 9.3105 471.949 10.0038 471.373 10.5158C470.819 11.0065 470.157 11.2518 469.389 11.2518C468.621 11.2518 467.949 11.0065 467.373 10.5158C466.819 10.0038 466.541 9.3105 466.541 8.43583C466.541 7.56117 466.819 6.8785 467.373 6.38783C467.949 5.87583 468.621 5.61983 469.389 5.61983C470.157 5.61983 470.819 5.87583 471.373 6.38783C471.949 6.8785 472.237 7.56117 472.237 8.43583ZM482.991 30.4518C481.605 30.4305 480.474 30.2812 479.599 30.0038C478.746 29.7265 478.063 29.3425 477.551 28.8518C477.061 28.3398 476.719 27.7318 476.527 27.0278C476.357 26.3025 476.271 25.4918 476.271 24.5958V6.06783L481.039 5.29984V23.6358C481.039 24.0625 481.071 24.4465 481.135 24.7878C481.199 25.1292 481.317 25.4172 481.487 25.6518C481.679 25.8865 481.946 26.0785 482.287 26.2278C482.629 26.3772 483.087 26.4732 483.663 26.5158L482.991 30.4518ZM491.164 30.1318H486.396V13.2998H491.164V30.1318ZM491.612 8.43583C491.612 9.3105 491.324 10.0038 490.748 10.5158C490.194 11.0065 489.532 11.2518 488.764 11.2518C487.996 11.2518 487.324 11.0065 486.748 10.5158C486.194 10.0038 485.916 9.3105 485.916 8.43583C485.916 7.56117 486.194 6.8785 486.748 6.38783C487.324 5.87583 487.996 5.61983 488.764 5.61983C489.532 5.61983 490.194 5.87583 490.748 6.38783C491.324 6.8785 491.612 7.56117 491.612 8.43583ZM495.486 9.10784L500.254 8.33983V13.2998H505.982V17.2678H500.254V23.1878C500.254 24.1905 500.425 24.9905 500.766 25.5878C501.129 26.1852 501.844 26.4838 502.91 26.4838C503.422 26.4838 503.945 26.4412 504.478 26.3558C505.033 26.2492 505.534 26.1105 505.982 25.9398L506.654 29.6518C506.078 29.8865 505.438 30.0892 504.734 30.2598C504.03 30.4305 503.166 30.5158 502.142 30.5158C500.841 30.5158 499.764 30.3452 498.91 30.0038C498.057 29.6412 497.374 29.1505 496.862 28.5318C496.35 27.8918 495.988 27.1238 495.774 26.2278C495.582 25.3318 495.486 24.3398 495.486 23.2518V9.10784ZM525.122 13.2998C524.162 16.5425 523.159 19.5825 522.114 22.4198C521.068 25.2572 519.927 28.0092 518.69 30.6758C518.242 31.6358 517.794 32.4465 517.345 33.1078C516.898 33.7905 516.407 34.3452 515.874 34.7718C515.34 35.2198 514.732 35.5398 514.05 35.7318C513.388 35.9452 512.61 36.0518 511.714 36.0518C510.967 36.0518 510.274 35.9772 509.634 35.8278C509.015 35.6998 508.503 35.5505 508.098 35.3798L508.93 31.5718C509.42 31.7425 509.858 31.8598 510.242 31.9238C510.626 31.9878 511.031 32.0198 511.458 32.0198C512.311 32.0198 512.962 31.7852 513.41 31.3158C513.879 30.8678 514.274 30.2385 514.594 29.4278C513.506 27.2945 512.418 24.9052 511.33 22.2598C510.242 19.5932 509.218 16.6065 508.258 13.2998H513.314C513.527 14.1318 513.772 15.0385 514.05 16.0198C514.348 16.9798 514.658 17.9612 514.978 18.9638C515.298 19.9452 515.618 20.9052 515.938 21.8438C516.279 22.7825 516.599 23.6358 516.898 24.4038C517.175 23.6358 517.463 22.7825 517.762 21.8438C518.06 20.9052 518.348 19.9452 518.626 18.9638C518.924 17.9612 519.202 16.9798 519.458 16.0198C519.735 15.0385 519.98 14.1318 520.194 13.2998H525.122ZM531.87 11.5078C531.102 11.5078 530.376 11.6038 529.694 11.7958C529.011 11.9878 528.254 12.2972 527.422 12.7238L526.078 9.10784C526.91 8.5745 527.891 8.16917 529.022 7.89183C530.152 7.59317 531.262 7.44383 532.35 7.44383C533.715 7.44383 534.835 7.62517 535.71 7.98783C536.606 8.3505 537.31 8.80917 537.822 9.36383C538.334 9.9185 538.686 10.5265 538.878 11.1878C539.091 11.8492 539.198 12.4785 539.198 13.0758C539.198 13.6732 539.102 14.2278 538.91 14.7398C538.739 15.2305 538.515 15.6892 538.238 16.1158C537.96 16.5425 537.64 16.9478 537.278 17.3318C536.915 17.7158 536.563 18.0785 536.222 18.4198C535.966 18.6758 535.699 18.9532 535.422 19.2518C535.144 19.5292 534.888 19.8278 534.654 20.1478C534.44 20.4678 534.259 20.8092 534.11 21.1718C533.96 21.5132 533.885 21.8652 533.885 22.2278C533.885 22.3132 533.885 22.4412 533.885 22.6118C533.885 22.7825 533.896 22.9318 533.918 23.0598H529.694C529.651 22.8465 529.619 22.6118 529.598 22.3558C529.598 22.0785 529.598 21.8438 529.598 21.6518C529.598 21.0545 529.672 20.5212 529.822 20.0518C529.971 19.5612 530.163 19.1132 530.398 18.7078C530.654 18.2812 530.942 17.8865 531.262 17.5238C531.582 17.1612 531.912 16.8092 532.254 16.4678C532.744 15.9772 533.192 15.4972 533.598 15.0278C534.003 14.5372 534.206 13.9825 534.206 13.3638C534.206 12.8518 534.003 12.4145 533.598 12.0518C533.214 11.6892 532.638 11.5078 531.87 11.5078ZM534.845 27.6038C534.845 28.5425 534.536 29.2678 533.918 29.7798C533.32 30.2918 532.638 30.5478 531.87 30.5478C531.102 30.5478 530.408 30.2918 529.79 29.7798C529.192 29.2678 528.894 28.5425 528.894 27.6038C528.894 26.6652 529.192 25.9398 529.79 25.4278C530.408 24.9158 531.102 24.6598 531.87 24.6598C532.638 24.6598 533.32 24.9158 533.918 25.4278C534.536 25.9398 534.845 26.6652 534.845 27.6038Z" fill="#24D680"/>
<path d="M0.86 60.1518C0.86 58.7918 1.16667 57.5718 1.78 56.4918C2.39333 55.3985 3.22667 54.5452 4.28 53.9318C5.34667 53.3185 6.52667 53.0118 7.82 53.0118C9.34 53.0118 10.6667 53.3785 11.8 54.1118C12.9333 54.8452 13.76 55.8852 14.28 57.2318H12.1C11.7133 56.3918 11.1533 55.7452 10.42 55.2918C9.7 54.8385 8.83333 54.6118 7.82 54.6118C6.84667 54.6118 5.97333 54.8385 5.2 55.2918C4.42667 55.7452 3.82 56.3918 3.38 57.2318C2.94 58.0585 2.72 59.0318 2.72 60.1518C2.72 61.2585 2.94 62.2318 3.38 63.0718C3.82 63.8985 4.42667 64.5385 5.2 64.9918C5.97333 65.4452 6.84667 65.6718 7.82 65.6718C8.83333 65.6718 9.7 65.4518 10.42 65.0118C11.1533 64.5585 11.7133 63.9118 12.1 63.0718H14.28C13.76 64.4052 12.9333 65.4385 11.8 66.1718C10.6667 66.8918 9.34 67.2518 7.82 67.2518C6.52667 67.2518 5.34667 66.9518 4.28 66.3518C3.22667 65.7385 2.39333 64.8918 1.78 63.8118C1.16667 62.7318 0.86 61.5118 0.86 60.1518ZM22.4292 55.9718C23.2559 55.9718 24.0026 56.1518 24.6692 56.5118C25.3359 56.8585 25.8559 57.3852 26.2292 58.0918C26.6159 58.7985 26.8092 59.6585 26.8092 60.6718V67.1318H25.0092V60.9318C25.0092 59.8385 24.7359 59.0052 24.1892 58.4318C23.6426 57.8452 22.8959 57.5518 21.9492 57.5518C20.9892 57.5518 20.2226 57.8518 19.6492 58.4518C19.0892 59.0518 18.8092 59.9252 18.8092 61.0718V67.1318H16.9892V52.3318H18.8092V57.7318C19.1692 57.1718 19.6626 56.7385 20.2892 56.4318C20.9292 56.1252 21.6426 55.9718 22.4292 55.9718ZM34.5622 67.3118C33.5355 67.3118 32.6022 67.0785 31.7622 66.6118C30.9355 66.1452 30.2822 65.4852 29.8022 64.6318C29.3355 63.7652 29.1022 62.7652 29.1022 61.6318C29.1022 60.5118 29.3422 59.5252 29.8222 58.6718C30.3155 57.8052 30.9822 57.1452 31.8222 56.6918C32.6622 56.2252 33.6022 55.9918 34.6422 55.9918C35.6822 55.9918 36.6222 56.2252 37.4622 56.6918C38.3022 57.1452 38.9622 57.7985 39.4422 58.6518C39.9355 59.5052 40.1822 60.4985 40.1822 61.6318C40.1822 62.7652 39.9289 63.7652 39.4222 64.6318C38.9289 65.4852 38.2555 66.1452 37.4022 66.6118C36.5489 67.0785 35.6022 67.3118 34.5622 67.3118ZM34.5622 65.7118C35.2155 65.7118 35.8289 65.5585 36.4022 65.2518C36.9755 64.9452 37.4355 64.4852 37.7822 63.8718C38.1422 63.2585 38.3222 62.5118 38.3222 61.6318C38.3222 60.7518 38.1489 60.0052 37.8022 59.3918C37.4555 58.7785 37.0022 58.3252 36.4422 58.0318C35.8822 57.7252 35.2755 57.5718 34.6222 57.5718C33.9555 57.5718 33.3422 57.7252 32.7822 58.0318C32.2355 58.3252 31.7955 58.7785 31.4622 59.3918C31.1289 60.0052 30.9622 60.7518 30.9622 61.6318C30.9622 62.5252 31.1222 63.2785 31.4422 63.8918C31.7755 64.5052 32.2155 64.9652 32.7622 65.2718C33.3089 65.5652 33.9089 65.7118 34.5622 65.7118ZM47.3552 67.3118C46.3285 67.3118 45.3952 67.0785 44.5552 66.6118C43.7285 66.1452 43.0752 65.4852 42.5952 64.6318C42.1285 63.7652 41.8952 62.7652 41.8952 61.6318C41.8952 60.5118 42.1352 59.5252 42.6152 58.6718C43.1085 57.8052 43.7752 57.1452 44.6152 56.6918C45.4552 56.2252 46.3952 55.9918 47.4352 55.9918C48.4752 55.9918 49.4152 56.2252 50.2552 56.6918C51.0952 57.1452 51.7552 57.7985 52.2352 58.6518C52.7285 59.5052 52.9752 60.4985 52.9752 61.6318C52.9752 62.7652 52.7218 63.7652 52.2152 64.6318C51.7218 65.4852 51.0485 66.1452 50.1952 66.6118C49.3418 67.0785 48.3952 67.3118 47.3552 67.3118ZM47.3552 65.7118C48.0085 65.7118 48.6218 65.5585 49.1952 65.2518C49.7685 64.9452 50.2285 64.4852 50.5752 63.8718C50.9352 63.2585 51.1152 62.5118 51.1152 61.6318C51.1152 60.7518 50.9418 60.0052 50.5952 59.3918C50.2485 58.7785 49.7952 58.3252 49.2352 58.0318C48.6752 57.7252 48.0685 57.5718 47.4152 57.5718C46.7485 57.5718 46.1352 57.7252 45.5752 58.0318C45.0285 58.3252 44.5885 58.7785 44.2552 59.3918C43.9218 60.0052 43.7552 60.7518 43.7552 61.6318C43.7552 62.5252 43.9152 63.2785 44.2352 63.8918C44.5685 64.5052 45.0085 64.9652 45.5552 65.2718C46.1018 65.5652 46.7018 65.7118 47.3552 65.7118ZM59.2481 67.3118C58.4081 67.3118 57.6548 67.1718 56.9881 66.8918C56.3215 66.5985 55.7948 66.1985 55.4081 65.6918C55.0215 65.1718 54.8081 64.5785 54.7681 63.9118H56.6481C56.7015 64.4585 56.9548 64.9052 57.4081 65.2518C57.8748 65.5985 58.4815 65.7718 59.2281 65.7718C59.9215 65.7718 60.4681 65.6185 60.8681 65.3118C61.2681 65.0052 61.4681 64.6185 61.4681 64.1518C61.4681 63.6718 61.2548 63.3185 60.8281 63.0918C60.4015 62.8518 59.7415 62.6185 58.8481 62.3918C58.0348 62.1785 57.3681 61.9652 56.8481 61.7518C56.3415 61.5252 55.9015 61.1985 55.5281 60.7718C55.1681 60.3318 54.9881 59.7585 54.9881 59.0518C54.9881 58.4918 55.1548 57.9785 55.4881 57.5118C55.8215 57.0452 56.2948 56.6785 56.9081 56.4118C57.5215 56.1318 58.2215 55.9918 59.0081 55.9918C60.2215 55.9918 61.2015 56.2985 61.9481 56.9118C62.6948 57.5252 63.0948 58.3652 63.1481 59.4318H61.3281C61.2881 58.8585 61.0548 58.3985 60.6281 58.0518C60.2148 57.7052 59.6548 57.5318 58.9481 57.5318C58.2948 57.5318 57.7748 57.6718 57.3881 57.9518C57.0015 58.2318 56.8081 58.5985 56.8081 59.0518C56.8081 59.4118 56.9215 59.7118 57.1481 59.9518C57.3881 60.1785 57.6815 60.3652 58.0281 60.5118C58.3881 60.6452 58.8815 60.7985 59.5081 60.9718C60.2948 61.1852 60.9348 61.3985 61.4281 61.6118C61.9215 61.8118 62.3415 62.1185 62.6881 62.5318C63.0481 62.9452 63.2348 63.4852 63.2481 64.1518C63.2481 64.7518 63.0815 65.2918 62.7481 65.7718C62.4148 66.2518 61.9415 66.6318 61.3281 66.9118C60.7281 67.1785 60.0348 67.3118 59.2481 67.3118ZM75.8173 61.2318C75.8173 61.5785 75.7973 61.9452 75.7573 62.3318H66.9973C67.064 63.4118 67.4307 64.2585 68.0973 64.8718C68.7773 65.4718 69.5973 65.7718 70.5573 65.7718C71.344 65.7718 71.9973 65.5918 72.5173 65.2318C73.0507 64.8585 73.424 64.3652 73.6373 63.7518H75.5973C75.304 64.8052 74.7173 65.6652 73.8373 66.3318C72.9573 66.9852 71.864 67.3118 70.5573 67.3118C69.5173 67.3118 68.584 67.0785 67.7573 66.6118C66.944 66.1452 66.304 65.4852 65.8373 64.6318C65.3707 63.7652 65.1373 62.7652 65.1373 61.6318C65.1373 60.4985 65.364 59.5052 65.8173 58.6518C66.2707 57.7985 66.904 57.1452 67.7173 56.6918C68.544 56.2252 69.4907 55.9918 70.5573 55.9918C71.5973 55.9918 72.5173 56.2185 73.3173 56.6718C74.1173 57.1252 74.7307 57.7518 75.1573 58.5518C75.5973 59.3385 75.8173 60.2318 75.8173 61.2318ZM73.9373 60.8518C73.9373 60.1585 73.784 59.5652 73.4773 59.0718C73.1707 58.5652 72.7507 58.1852 72.2173 57.9318C71.6973 57.6652 71.1173 57.5318 70.4773 57.5318C69.5573 57.5318 68.7707 57.8252 68.1173 58.4118C67.4773 58.9985 67.1107 59.8118 67.0173 60.8518H73.9373ZM92.9917 56.1718L86.3917 72.2918H84.5117L86.6717 67.0118L82.2517 56.1718H84.2717L87.7117 65.0518L91.1117 56.1718H92.9917ZM99.6013 67.3118C98.5746 67.3118 97.6413 67.0785 96.8013 66.6118C95.9746 66.1452 95.3213 65.4852 94.8413 64.6318C94.3746 63.7652 94.1413 62.7652 94.1413 61.6318C94.1413 60.5118 94.3813 59.5252 94.8613 58.6718C95.3546 57.8052 96.0213 57.1452 96.8613 56.6918C97.7013 56.2252 98.6413 55.9918 99.6813 55.9918C100.721 55.9918 101.661 56.2252 102.501 56.6918C103.341 57.1452 104.001 57.7985 104.481 58.6518C104.975 59.5052 105.221 60.4985 105.221 61.6318C105.221 62.7652 104.968 63.7652 104.461 64.6318C103.968 65.4852 103.295 66.1452 102.441 66.6118C101.588 67.0785 100.641 67.3118 99.6013 67.3118ZM99.6013 65.7118C100.255 65.7118 100.868 65.5585 101.441 65.2518C102.015 64.9452 102.475 64.4852 102.821 63.8718C103.181 63.2585 103.361 62.5118 103.361 61.6318C103.361 60.7518 103.188 60.0052 102.841 59.3918C102.495 58.7785 102.041 58.3252 101.481 58.0318C100.921 57.7252 100.315 57.5718 99.6613 57.5718C98.9946 57.5718 98.3813 57.7252 97.8213 58.0318C97.2746 58.3252 96.8346 58.7785 96.5013 59.3918C96.1679 60.0052 96.0013 60.7518 96.0013 61.6318C96.0013 62.5252 96.1613 63.2785 96.4813 63.8918C96.8146 64.5052 97.2546 64.9652 97.8013 65.2718C98.3479 65.5652 98.9479 65.7118 99.6013 65.7118ZM117.334 56.1718V67.1318H115.514V65.5118C115.168 66.0718 114.681 66.5118 114.054 66.8318C113.441 67.1385 112.761 67.2918 112.014 67.2918C111.161 67.2918 110.394 67.1185 109.714 66.7718C109.034 66.4118 108.494 65.8785 108.094 65.1718C107.708 64.4652 107.514 63.6052 107.514 62.5918V56.1718H109.314V62.3518C109.314 63.4318 109.588 64.2652 110.134 64.8518C110.681 65.4252 111.428 65.7118 112.374 65.7118C113.348 65.7118 114.114 65.4118 114.674 64.8118C115.234 64.2118 115.514 63.3385 115.514 62.1918V56.1718H117.334ZM122.227 57.9518C122.547 57.3252 123.001 56.8385 123.587 56.4918C124.187 56.1452 124.914 55.9718 125.767 55.9718V57.8518H125.287C123.247 57.8518 122.227 58.9585 122.227 61.1718V67.1318H120.407V56.1718H122.227V57.9518ZM135.02 58.1918C135.38 57.5652 135.913 57.0452 136.62 56.6318C137.34 56.2052 138.173 55.9918 139.12 55.9918C140.093 55.9918 140.973 56.2252 141.76 56.6918C142.56 57.1585 143.187 57.8185 143.64 58.6718C144.093 59.5118 144.32 60.4918 144.32 61.6118C144.32 62.7185 144.093 63.7052 143.64 64.5718C143.187 65.4385 142.56 66.1118 141.76 66.5918C140.973 67.0718 140.093 67.3118 139.12 67.3118C138.187 67.3118 137.36 67.1052 136.64 66.6918C135.933 66.2652 135.393 65.7385 135.02 65.1118V72.3318H133.2V56.1718H135.02V58.1918ZM142.46 61.6118C142.46 60.7852 142.293 60.0652 141.96 59.4518C141.627 58.8385 141.173 58.3718 140.6 58.0518C140.04 57.7318 139.42 57.5718 138.74 57.5718C138.073 57.5718 137.453 57.7385 136.88 58.0718C136.32 58.3918 135.867 58.8652 135.52 59.4918C135.187 60.1052 135.02 60.8185 135.02 61.6318C135.02 62.4585 135.187 63.1852 135.52 63.8118C135.867 64.4252 136.32 64.8985 136.88 65.2318C137.453 65.5518 138.073 65.7118 138.74 65.7118C139.42 65.7118 140.04 65.5518 140.6 65.2318C141.173 64.8985 141.627 64.4252 141.96 63.8118C142.293 63.1852 142.46 62.4518 142.46 61.6118ZM146.036 61.6118C146.036 60.4918 146.262 59.5118 146.716 58.6718C147.169 57.8185 147.789 57.1585 148.576 56.6918C149.376 56.2252 150.262 55.9918 151.236 55.9918C152.196 55.9918 153.029 56.1985 153.736 56.6118C154.442 57.0252 154.969 57.5452 155.316 58.1718V56.1718H157.156V67.1318H155.316V65.0918C154.956 65.7318 154.416 66.2652 153.696 66.6918C152.989 67.1052 152.162 67.3118 151.216 67.3118C150.242 67.3118 149.362 67.0718 148.576 66.5918C147.789 66.1118 147.169 65.4385 146.716 64.5718C146.262 63.7052 146.036 62.7185 146.036 61.6118ZM155.316 61.6318C155.316 60.8052 155.149 60.0852 154.816 59.4718C154.482 58.8585 154.029 58.3918 153.456 58.0718C152.896 57.7385 152.276 57.5718 151.596 57.5718C150.916 57.5718 150.296 57.7318 149.736 58.0518C149.176 58.3718 148.729 58.8385 148.396 59.4518C148.062 60.0652 147.896 60.7852 147.896 61.6118C147.896 62.4518 148.062 63.1852 148.396 63.8118C148.729 64.4252 149.176 64.8985 149.736 65.2318C150.296 65.5518 150.916 65.7118 151.596 65.7118C152.276 65.7118 152.896 65.5518 153.456 65.2318C154.029 64.8985 154.482 64.4252 154.816 63.8118C155.149 63.1852 155.316 62.4585 155.316 61.6318ZM162.451 57.6718V64.1318C162.451 64.6652 162.565 65.0452 162.791 65.2718C163.018 65.4852 163.411 65.5918 163.971 65.5918H165.311V67.1318H163.671C162.658 67.1318 161.898 66.8985 161.391 66.4318C160.885 65.9652 160.631 65.1985 160.631 64.1318V57.6718H159.211V56.1718H160.631V53.4118H162.451V56.1718H165.311V57.6718H162.451ZM172.957 55.9718C173.783 55.9718 174.53 56.1518 175.197 56.5118C175.863 56.8585 176.383 57.3852 176.757 58.0918C177.143 58.7985 177.337 59.6585 177.337 60.6718V67.1318H175.537V60.9318C175.537 59.8385 175.263 59.0052 174.717 58.4318C174.17 57.8452 173.423 57.5518 172.477 57.5518C171.517 57.5518 170.75 57.8518 170.177 58.4518C169.617 59.0518 169.337 59.9252 169.337 61.0718V67.1318H167.517V52.3318H169.337V57.7318C169.697 57.1718 170.19 56.7385 170.817 56.4318C171.457 56.1252 172.17 55.9718 172.957 55.9718ZM184.962 61.6118C184.962 60.4918 185.188 59.5118 185.642 58.6718C186.095 57.8185 186.715 57.1585 187.502 56.6918C188.302 56.2252 189.188 55.9918 190.162 55.9918C191.122 55.9918 191.955 56.1985 192.662 56.6118C193.368 57.0252 193.895 57.5452 194.242 58.1718V56.1718H196.082V67.1318H194.242V65.0918C193.882 65.7318 193.342 66.2652 192.622 66.6918C191.915 67.1052 191.088 67.3118 190.142 67.3118C189.168 67.3118 188.288 67.0718 187.502 66.5918C186.715 66.1118 186.095 65.4385 185.642 64.5718C185.188 63.7052 184.962 62.7185 184.962 61.6118ZM194.242 61.6318C194.242 60.8052 194.075 60.0852 193.742 59.4718C193.408 58.8585 192.955 58.3918 192.382 58.0718C191.822 57.7385 191.202 57.5718 190.522 57.5718C189.842 57.5718 189.222 57.7318 188.662 58.0518C188.102 58.3718 187.655 58.8385 187.322 59.4518C186.988 60.0652 186.822 60.7852 186.822 61.6118C186.822 62.4518 186.988 63.1852 187.322 63.8118C187.655 64.4252 188.102 64.8985 188.662 65.2318C189.222 65.5518 189.842 65.7118 190.522 65.7118C191.202 65.7118 191.822 65.5518 192.382 65.2318C192.955 64.8985 193.408 64.4252 193.742 63.8118C194.075 63.1852 194.242 62.4585 194.242 61.6318ZM204.497 55.9718C205.831 55.9718 206.911 56.3785 207.737 57.1918C208.564 57.9918 208.977 59.1518 208.977 60.6718V67.1318H207.177V60.9318C207.177 59.8385 206.904 59.0052 206.357 58.4318C205.811 57.8452 205.064 57.5518 204.117 57.5518C203.157 57.5518 202.391 57.8518 201.817 58.4518C201.257 59.0518 200.977 59.9252 200.977 61.0718V67.1318H199.157V56.1718H200.977V57.7318C201.337 57.1718 201.824 56.7385 202.437 56.4318C203.064 56.1252 203.751 55.9718 204.497 55.9718ZM211.27 61.6118C211.27 60.4918 211.497 59.5118 211.95 58.6718C212.403 57.8185 213.023 57.1585 213.81 56.6918C214.61 56.2252 215.503 55.9918 216.49 55.9918C217.343 55.9918 218.137 56.1918 218.87 56.5918C219.603 56.9785 220.163 57.4918 220.55 58.1318V52.3318H222.39V67.1318H220.55V65.0718C220.19 65.7252 219.657 66.2652 218.95 66.6918C218.243 67.1052 217.417 67.3118 216.47 67.3118C215.497 67.3118 214.61 67.0718 213.81 66.5918C213.023 66.1118 212.403 65.4385 211.95 64.5718C211.497 63.7052 211.27 62.7185 211.27 61.6118ZM220.55 61.6318C220.55 60.8052 220.383 60.0852 220.05 59.4718C219.717 58.8585 219.263 58.3918 218.69 58.0718C218.13 57.7385 217.51 57.5718 216.83 57.5718C216.15 57.5718 215.53 57.7318 214.97 58.0518C214.41 58.3718 213.963 58.8385 213.63 59.4518C213.297 60.0652 213.13 60.7852 213.13 61.6118C213.13 62.4518 213.297 63.1852 213.63 63.8118C213.963 64.4252 214.41 64.8985 214.97 65.2318C215.53 65.5518 216.15 65.7118 216.83 65.7118C217.51 65.7118 218.13 65.5518 218.69 65.2318C219.263 64.8985 219.717 64.4252 220.05 63.8118C220.383 63.1852 220.55 62.4585 220.55 61.6318ZM232.618 52.3318V67.1318H230.798V52.3318H232.618ZM245.72 61.2318C245.72 61.5785 245.7 61.9452 245.66 62.3318H236.9C236.966 63.4118 237.333 64.2585 238 64.8718C238.68 65.4718 239.5 65.7718 240.46 65.7718C241.246 65.7718 241.9 65.5918 242.42 65.2318C242.953 64.8585 243.326 64.3652 243.54 63.7518H245.5C245.206 64.8052 244.62 65.6652 243.74 66.3318C242.86 66.9852 241.766 67.3118 240.46 67.3118C239.42 67.3118 238.486 67.0785 237.66 66.6118C236.846 66.1452 236.206 65.4852 235.74 64.6318C235.273 63.7652 235.04 62.7652 235.04 61.6318C235.04 60.4985 235.266 59.5052 235.72 58.6518C236.173 57.7985 236.806 57.1452 237.62 56.6918C238.446 56.2252 239.393 55.9918 240.46 55.9918C241.5 55.9918 242.42 56.2185 243.22 56.6718C244.02 57.1252 244.633 57.7518 245.06 58.5518C245.5 59.3385 245.72 60.2318 245.72 61.2318ZM243.84 60.8518C243.84 60.1585 243.686 59.5652 243.38 59.0718C243.073 58.5652 242.653 58.1852 242.12 57.9318C241.6 57.6652 241.02 57.5318 240.38 57.5318C239.46 57.5318 238.673 57.8252 238.02 58.4118C237.38 58.9985 237.013 59.8118 236.92 60.8518H243.84ZM250.342 57.6718V64.1318C250.342 64.6652 250.455 65.0452 250.682 65.2718C250.909 65.4852 251.302 65.5918 251.862 65.5918H253.202V67.1318H251.562C250.549 67.1318 249.789 66.8985 249.282 66.4318C248.775 65.9652 248.522 65.1985 248.522 64.1318V57.6718H247.102V56.1718H248.522V53.4118H250.342V56.1718H253.202V57.6718H250.342ZM270.459 56.1718V67.1318H268.639V65.5118C268.293 66.0718 267.806 66.5118 267.179 66.8318C266.566 67.1385 265.886 67.2918 265.139 67.2918C264.286 67.2918 263.519 67.1185 262.839 66.7718C262.159 66.4118 261.619 65.8785 261.219 65.1718C260.833 64.4652 260.639 63.6052 260.639 62.5918V56.1718H262.439V62.3518C262.439 63.4318 262.713 64.2652 263.259 64.8518C263.806 65.4252 264.553 65.7118 265.499 65.7118C266.473 65.7118 267.239 65.4118 267.799 64.8118C268.359 64.2118 268.639 63.3385 268.639 62.1918V56.1718H270.459ZM277.412 67.3118C276.572 67.3118 275.819 67.1718 275.152 66.8918C274.486 66.5985 273.959 66.1985 273.572 65.6918C273.186 65.1718 272.972 64.5785 272.932 63.9118H274.812C274.866 64.4585 275.119 64.9052 275.572 65.2518C276.039 65.5985 276.646 65.7718 277.392 65.7718C278.086 65.7718 278.632 65.6185 279.032 65.3118C279.432 65.0052 279.632 64.6185 279.632 64.1518C279.632 63.6718 279.419 63.3185 278.992 63.0918C278.566 62.8518 277.906 62.6185 277.012 62.3918C276.199 62.1785 275.532 61.9652 275.012 61.7518C274.506 61.5252 274.066 61.1985 273.692 60.7718C273.332 60.3318 273.152 59.7585 273.152 59.0518C273.152 58.4918 273.319 57.9785 273.652 57.5118C273.986 57.0452 274.459 56.6785 275.072 56.4118C275.686 56.1318 276.386 55.9918 277.172 55.9918C278.386 55.9918 279.366 56.2985 280.112 56.9118C280.859 57.5252 281.259 58.3652 281.312 59.4318H279.492C279.452 58.8585 279.219 58.3985 278.792 58.0518C278.379 57.7052 277.819 57.5318 277.112 57.5318C276.459 57.5318 275.939 57.6718 275.552 57.9518C275.166 58.2318 274.972 58.5985 274.972 59.0518C274.972 59.4118 275.086 59.7118 275.312 59.9518C275.552 60.1785 275.846 60.3652 276.192 60.5118C276.552 60.6452 277.046 60.7985 277.672 60.9718C278.459 61.1852 279.099 61.3985 279.592 61.6118C280.086 61.8118 280.506 62.1185 280.852 62.5318C281.212 62.9452 281.399 63.4852 281.412 64.1518C281.412 64.7518 281.246 65.2918 280.912 65.7718C280.579 66.2518 280.106 66.6318 279.492 66.9118C278.892 67.1785 278.199 67.3118 277.412 67.3118ZM288.633 61.6318C288.633 60.4985 288.86 59.5118 289.313 58.6718C289.767 57.8185 290.393 57.1585 291.193 56.6918C292.007 56.2252 292.933 55.9918 293.973 55.9918C295.32 55.9918 296.427 56.3185 297.293 56.9718C298.173 57.6252 298.753 58.5318 299.033 59.6918H297.073C296.887 59.0252 296.52 58.4985 295.973 58.1118C295.44 57.7252 294.773 57.5318 293.973 57.5318C292.933 57.5318 292.093 57.8918 291.453 58.6118C290.813 59.3185 290.493 60.3252 290.493 61.6318C290.493 62.9518 290.813 63.9718 291.453 64.6918C292.093 65.4118 292.933 65.7718 293.973 65.7718C294.773 65.7718 295.44 65.5852 295.973 65.2118C296.507 64.8385 296.873 64.3052 297.073 63.6118H299.033C298.74 64.7318 298.153 65.6318 297.273 66.3118C296.393 66.9785 295.293 67.3118 293.973 67.3118C292.933 67.3118 292.007 67.0785 291.193 66.6118C290.393 66.1452 289.767 65.4852 289.313 64.6318C288.86 63.7785 288.633 62.7785 288.633 61.6318ZM311.182 56.1718V67.1318H309.362V65.5118C309.015 66.0718 308.529 66.5118 307.902 66.8318C307.289 67.1385 306.609 67.2918 305.862 67.2918C305.009 67.2918 304.242 67.1185 303.562 66.7718C302.882 66.4118 302.342 65.8785 301.942 65.1718C301.555 64.4652 301.362 63.6052 301.362 62.5918V56.1718H303.162V62.3518C303.162 63.4318 303.435 64.2652 303.982 64.8518C304.529 65.4252 305.275 65.7118 306.222 65.7118C307.195 65.7118 307.962 65.4118 308.522 64.8118C309.082 64.2118 309.362 63.3385 309.362 62.1918V56.1718H311.182ZM318.135 67.3118C317.295 67.3118 316.542 67.1718 315.875 66.8918C315.208 66.5985 314.682 66.1985 314.295 65.6918C313.908 65.1718 313.695 64.5785 313.655 63.9118H315.535C315.588 64.4585 315.842 64.9052 316.295 65.2518C316.762 65.5985 317.368 65.7718 318.115 65.7718C318.808 65.7718 319.355 65.6185 319.755 65.3118C320.155 65.0052 320.355 64.6185 320.355 64.1518C320.355 63.6718 320.142 63.3185 319.715 63.0918C319.288 62.8518 318.628 62.6185 317.735 62.3918C316.922 62.1785 316.255 61.9652 315.735 61.7518C315.228 61.5252 314.788 61.1985 314.415 60.7718C314.055 60.3318 313.875 59.7585 313.875 59.0518C313.875 58.4918 314.042 57.9785 314.375 57.5118C314.708 57.0452 315.182 56.6785 315.795 56.4118C316.408 56.1318 317.108 55.9918 317.895 55.9918C319.108 55.9918 320.088 56.2985 320.835 56.9118C321.582 57.5252 321.982 58.3652 322.035 59.4318H320.215C320.175 58.8585 319.942 58.3985 319.515 58.0518C319.102 57.7052 318.542 57.5318 317.835 57.5318C317.182 57.5318 316.662 57.6718 316.275 57.9518C315.888 58.2318 315.695 58.5985 315.695 59.0518C315.695 59.4118 315.808 59.7118 316.035 59.9518C316.275 60.1785 316.568 60.3652 316.915 60.5118C317.275 60.6452 317.768 60.7985 318.395 60.9718C319.182 61.1852 319.822 61.3985 320.315 61.6118C320.808 61.8118 321.228 62.1185 321.575 62.5318C321.935 62.9452 322.122 63.4852 322.135 64.1518C322.135 64.7518 321.968 65.2918 321.635 65.7718C321.302 66.2518 320.828 66.6318 320.215 66.9118C319.615 67.1785 318.922 67.3118 318.135 67.3118ZM326.924 57.6718V64.1318C326.924 64.6652 327.037 65.0452 327.264 65.2718C327.491 65.4852 327.884 65.5918 328.444 65.5918H329.784V67.1318H328.144C327.131 67.1318 326.371 66.8985 325.864 66.4318C325.357 65.9652 325.104 65.1985 325.104 64.1318V57.6718H323.684V56.1718H325.104V53.4118H326.924V56.1718H329.784V57.6718H326.924ZM336.769 67.3118C335.743 67.3118 334.809 67.0785 333.969 66.6118C333.143 66.1452 332.489 65.4852 332.009 64.6318C331.543 63.7652 331.309 62.7652 331.309 61.6318C331.309 60.5118 331.549 59.5252 332.029 58.6718C332.523 57.8052 333.189 57.1452 334.029 56.6918C334.869 56.2252 335.809 55.9918 336.849 55.9918C337.889 55.9918 338.829 56.2252 339.669 56.6918C340.509 57.1452 341.169 57.7985 341.649 58.6518C342.143 59.5052 342.389 60.4985 342.389 61.6318C342.389 62.7652 342.136 63.7652 341.629 64.6318C341.136 65.4852 340.463 66.1452 339.609 66.6118C338.756 67.0785 337.809 67.3118 336.769 67.3118ZM336.769 65.7118C337.423 65.7118 338.036 65.5585 338.609 65.2518C339.183 64.9452 339.643 64.4852 339.989 63.8718C340.349 63.2585 340.529 62.5118 340.529 61.6318C340.529 60.7518 340.356 60.0052 340.009 59.3918C339.663 58.7785 339.209 58.3252 338.649 58.0318C338.089 57.7252 337.483 57.5718 336.829 57.5718C336.163 57.5718 335.549 57.7252 334.989 58.0318C334.443 58.3252 334.003 58.7785 333.669 59.3918C333.336 60.0052 333.169 60.7518 333.169 61.6318C333.169 62.5252 333.329 63.2785 333.649 63.8918C333.983 64.5052 334.423 64.9652 334.969 65.2718C335.516 65.5652 336.116 65.7118 336.769 65.7118ZM357.962 55.9718C358.816 55.9718 359.576 56.1518 360.242 56.5118C360.909 56.8585 361.436 57.3852 361.822 58.0918C362.209 58.7985 362.402 59.6585 362.402 60.6718V67.1318H360.602V60.9318C360.602 59.8385 360.329 59.0052 359.782 58.4318C359.249 57.8452 358.522 57.5518 357.602 57.5518C356.656 57.5518 355.902 57.8585 355.342 58.4718C354.782 59.0718 354.502 59.9452 354.502 61.0918V67.1318H352.702V60.9318C352.702 59.8385 352.429 59.0052 351.882 58.4318C351.349 57.8452 350.622 57.5518 349.702 57.5518C348.756 57.5518 348.002 57.8585 347.442 58.4718C346.882 59.0718 346.602 59.9452 346.602 61.0918V67.1318H344.782V56.1718H346.602V57.7518C346.962 57.1785 347.442 56.7385 348.042 56.4318C348.656 56.1252 349.329 55.9718 350.062 55.9718C350.982 55.9718 351.796 56.1785 352.502 56.5918C353.209 57.0052 353.736 57.6118 354.082 58.4118C354.389 57.6385 354.896 57.0385 355.602 56.6118C356.309 56.1852 357.096 55.9718 357.962 55.9718ZM366.328 54.3918C365.981 54.3918 365.688 54.2718 365.448 54.0318C365.208 53.7918 365.088 53.4985 365.088 53.1518C365.088 52.8052 365.208 52.5118 365.448 52.2718C365.688 52.0318 365.981 51.9118 366.328 51.9118C366.661 51.9118 366.941 52.0318 367.168 52.2718C367.408 52.5118 367.528 52.8052 367.528 53.1518C367.528 53.4985 367.408 53.7918 367.168 54.0318C366.941 54.2718 366.661 54.3918 366.328 54.3918ZM367.208 56.1718V67.1318H365.388V56.1718H367.208ZM371.67 65.6318H377.05V67.1318H369.59V65.6318L374.91 57.6518H369.63V56.1718H377.01V57.6518L371.67 65.6318ZM389.411 61.2318C389.411 61.5785 389.391 61.9452 389.351 62.3318H380.591C380.658 63.4118 381.024 64.2585 381.691 64.8718C382.371 65.4718 383.191 65.7718 384.151 65.7718C384.938 65.7718 385.591 65.5918 386.111 65.2318C386.644 64.8585 387.018 64.3652 387.231 63.7518H389.191C388.898 64.8052 388.311 65.6652 387.431 66.3318C386.551 66.9852 385.458 67.3118 384.151 67.3118C383.111 67.3118 382.178 67.0785 381.351 66.6118C380.538 66.1452 379.898 65.4852 379.431 64.6318C378.964 63.7652 378.731 62.7652 378.731 61.6318C378.731 60.4985 378.958 59.5052 379.411 58.6518C379.864 57.7985 380.498 57.1452 381.311 56.6918C382.138 56.2252 383.084 55.9918 384.151 55.9918C385.191 55.9918 386.111 56.2185 386.911 56.6718C387.711 57.1252 388.324 57.7518 388.751 58.5518C389.191 59.3385 389.411 60.2318 389.411 61.2318ZM387.531 60.8518C387.531 60.1585 387.378 59.5652 387.071 59.0718C386.764 58.5652 386.344 58.1852 385.811 57.9318C385.291 57.6652 384.711 57.5318 384.071 57.5318C383.151 57.5318 382.364 57.8252 381.711 58.4118C381.071 58.9985 380.704 59.8118 380.611 60.8518H387.531ZM406.585 56.1718L399.985 72.2918H398.105L400.265 67.0118L395.845 56.1718H397.865L401.305 65.0518L404.705 56.1718H406.585ZM413.195 67.3118C412.168 67.3118 411.235 67.0785 410.395 66.6118C409.568 66.1452 408.915 65.4852 408.435 64.6318C407.968 63.7652 407.735 62.7652 407.735 61.6318C407.735 60.5118 407.975 59.5252 408.455 58.6718C408.948 57.8052 409.615 57.1452 410.455 56.6918C411.295 56.2252 412.235 55.9918 413.275 55.9918C414.315 55.9918 415.255 56.2252 416.095 56.6918C416.935 57.1452 417.595 57.7985 418.075 58.6518C418.568 59.5052 418.815 60.4985 418.815 61.6318C418.815 62.7652 418.562 63.7652 418.055 64.6318C417.562 65.4852 416.888 66.1452 416.035 66.6118C415.182 67.0785 414.235 67.3118 413.195 67.3118ZM413.195 65.7118C413.848 65.7118 414.462 65.5585 415.035 65.2518C415.608 64.9452 416.068 64.4852 416.415 63.8718C416.775 63.2585 416.955 62.5118 416.955 61.6318C416.955 60.7518 416.782 60.0052 416.435 59.3918C416.088 58.7785 415.635 58.3252 415.075 58.0318C414.515 57.7252 413.908 57.5718 413.255 57.5718C412.588 57.5718 411.975 57.7252 411.415 58.0318C410.868 58.3252 410.428 58.7785 410.095 59.3918C409.762 60.0052 409.595 60.7518 409.595 61.6318C409.595 62.5252 409.755 63.2785 410.075 63.8918C410.408 64.5052 410.848 64.9652 411.395 65.2718C411.942 65.5652 412.542 65.7118 413.195 65.7118ZM430.928 56.1718V67.1318H429.108V65.5118C428.761 66.0718 428.275 66.5118 427.648 66.8318C427.035 67.1385 426.355 67.2918 425.608 67.2918C424.755 67.2918 423.988 67.1185 423.308 66.7718C422.628 66.4118 422.088 65.8785 421.688 65.1718C421.301 64.4652 421.108 63.6052 421.108 62.5918V56.1718H422.908V62.3518C422.908 63.4318 423.181 64.2652 423.728 64.8518C424.275 65.4252 425.021 65.7118 425.968 65.7118C426.941 65.7118 427.708 65.4118 428.268 64.8118C428.828 64.2118 429.108 63.3385 429.108 62.1918V56.1718H430.928ZM435.821 57.9518C436.141 57.3252 436.594 56.8385 437.181 56.4918C437.781 56.1452 438.508 55.9718 439.361 55.9718V57.8518H438.881C436.841 57.8518 435.821 58.9585 435.821 61.1718V67.1318H434.001V56.1718H435.821V57.9518ZM456.794 61.2318C456.794 61.5785 456.774 61.9452 456.734 62.3318H447.974C448.041 63.4118 448.407 64.2585 449.074 64.8718C449.754 65.4718 450.574 65.7718 451.534 65.7718C452.321 65.7718 452.974 65.5918 453.494 65.2318C454.027 64.8585 454.401 64.3652 454.614 63.7518H456.574C456.281 64.8052 455.694 65.6652 454.814 66.3318C453.934 66.9852 452.841 67.3118 451.534 67.3118C450.494 67.3118 449.561 67.0785 448.734 66.6118C447.921 66.1452 447.281 65.4852 446.814 64.6318C446.347 63.7652 446.114 62.7652 446.114 61.6318C446.114 60.4985 446.341 59.5052 446.794 58.6518C447.247 57.7985 447.881 57.1452 448.694 56.6918C449.521 56.2252 450.467 55.9918 451.534 55.9918C452.574 55.9918 453.494 56.2185 454.294 56.6718C455.094 57.1252 455.707 57.7518 456.134 58.5518C456.574 59.3385 456.794 60.2318 456.794 61.2318ZM454.914 60.8518C454.914 60.1585 454.761 59.5652 454.454 59.0718C454.147 58.5652 453.727 58.1852 453.194 57.9318C452.674 57.6652 452.094 57.5318 451.454 57.5318C450.534 57.5318 449.747 57.8252 449.094 58.4118C448.454 58.9985 448.087 59.8118 447.994 60.8518H454.914ZM464.916 67.1318L462.316 63.0518L459.816 67.1318H457.916L461.456 61.6918L457.916 56.1718H459.976L462.576 60.2318L465.056 56.1718H466.956L463.436 61.5918L466.976 67.1318H464.916ZM470.587 58.1918C470.947 57.5652 471.48 57.0452 472.187 56.6318C472.907 56.2052 473.74 55.9918 474.687 55.9918C475.66 55.9918 476.54 56.2252 477.327 56.6918C478.127 57.1585 478.753 57.8185 479.207 58.6718C479.66 59.5118 479.887 60.4918 479.887 61.6118C479.887 62.7185 479.66 63.7052 479.207 64.5718C478.753 65.4385 478.127 66.1118 477.327 66.5918C476.54 67.0718 475.66 67.3118 474.687 67.3118C473.753 67.3118 472.927 67.1052 472.207 66.6918C471.5 66.2652 470.96 65.7385 470.587 65.1118V72.3318H468.767V56.1718H470.587V58.1918ZM478.027 61.6118C478.027 60.7852 477.86 60.0652 477.527 59.4518C477.193 58.8385 476.74 58.3718 476.167 58.0518C475.607 57.7318 474.987 57.5718 474.307 57.5718C473.64 57.5718 473.02 57.7385 472.447 58.0718C471.887 58.3918 471.433 58.8652 471.087 59.4918C470.753 60.1052 470.587 60.8185 470.587 61.6318C470.587 62.4585 470.753 63.1852 471.087 63.8118C471.433 64.4252 471.887 64.8985 472.447 65.2318C473.02 65.5518 473.64 65.7118 474.307 65.7118C474.987 65.7118 475.607 65.5518 476.167 65.2318C476.74 64.8985 477.193 64.4252 477.527 63.8118C477.86 63.1852 478.027 62.4518 478.027 61.6118ZM492.282 61.2318C492.282 61.5785 492.262 61.9452 492.222 62.3318H483.462C483.529 63.4118 483.896 64.2585 484.562 64.8718C485.242 65.4718 486.062 65.7718 487.022 65.7718C487.809 65.7718 488.462 65.5918 488.982 65.2318C489.516 64.8585 489.889 64.3652 490.102 63.7518H492.062C491.769 64.8052 491.182 65.6652 490.302 66.3318C489.422 66.9852 488.329 67.3118 487.022 67.3118C485.982 67.3118 485.049 67.0785 484.222 66.6118C483.409 66.1452 482.769 65.4852 482.302 64.6318C481.836 63.7652 481.602 62.7652 481.602 61.6318C481.602 60.4985 481.829 59.5052 482.282 58.6518C482.736 57.7985 483.369 57.1452 484.182 56.6918C485.009 56.2252 485.956 55.9918 487.022 55.9918C488.062 55.9918 488.982 56.2185 489.782 56.6718C490.582 57.1252 491.196 57.7518 491.622 58.5518C492.062 59.3385 492.282 60.2318 492.282 61.2318ZM490.402 60.8518C490.402 60.1585 490.249 59.5652 489.942 59.0718C489.636 58.5652 489.216 58.1852 488.682 57.9318C488.162 57.6652 487.582 57.5318 486.942 57.5318C486.022 57.5318 485.236 57.8252 484.582 58.4118C483.942 58.9985 483.576 59.8118 483.482 60.8518H490.402ZM496.505 57.9518C496.825 57.3252 497.278 56.8385 497.865 56.4918C498.465 56.1452 499.191 55.9718 500.045 55.9718V57.8518H499.565C497.525 57.8518 496.505 58.9585 496.505 61.1718V67.1318H494.685V56.1718H496.505V57.9518ZM503.085 54.3918C502.739 54.3918 502.445 54.2718 502.205 54.0318C501.965 53.7918 501.845 53.4985 501.845 53.1518C501.845 52.8052 501.965 52.5118 502.205 52.2718C502.445 52.0318 502.739 51.9118 503.085 51.9118C503.419 51.9118 503.699 52.0318 503.925 52.2718C504.165 52.5118 504.285 52.8052 504.285 53.1518C504.285 53.4985 504.165 53.7918 503.925 54.0318C503.699 54.2718 503.419 54.3918 503.085 54.3918ZM503.965 56.1718V67.1318H502.145V56.1718H503.965ZM517.067 61.2318C517.067 61.5785 517.047 61.9452 517.007 62.3318H508.247C508.314 63.4118 508.681 64.2585 509.347 64.8718C510.027 65.4718 510.847 65.7718 511.807 65.7718C512.594 65.7718 513.247 65.5918 513.767 65.2318C514.301 64.8585 514.674 64.3652 514.887 63.7518H516.847C516.554 64.8052 515.967 65.6652 515.087 66.3318C514.207 66.9852 513.114 67.3118 511.807 67.3118C510.767 67.3118 509.834 67.0785 509.007 66.6118C508.194 66.1452 507.554 65.4852 507.087 64.6318C506.621 63.7652 506.387 62.7652 506.387 61.6318C506.387 60.4985 506.614 59.5052 507.067 58.6518C507.521 57.7985 508.154 57.1452 508.967 56.6918C509.794 56.2252 510.741 55.9918 511.807 55.9918C512.847 55.9918 513.767 56.2185 514.567 56.6718C515.367 57.1252 515.981 57.7518 516.407 58.5518C516.847 59.3385 517.067 60.2318 517.067 61.2318ZM515.187 60.8518C515.187 60.1585 515.034 59.5652 514.727 59.0718C514.421 58.5652 514.001 58.1852 513.467 57.9318C512.947 57.6652 512.367 57.5318 511.727 57.5318C510.807 57.5318 510.021 57.8252 509.367 58.4118C508.727 58.9985 508.361 59.8118 508.267 60.8518H515.187ZM524.81 55.9718C526.143 55.9718 527.223 56.3785 528.05 57.1918C528.876 57.9918 529.29 59.1518 529.29 60.6718V67.1318H527.49V60.9318C527.49 59.8385 527.216 59.0052 526.67 58.4318C526.123 57.8452 525.376 57.5518 524.43 57.5518C523.47 57.5518 522.703 57.8518 522.13 58.4518C521.57 59.0518 521.29 59.9252 521.29 61.0718V67.1318H519.47V56.1718H521.29V57.7318C521.65 57.1718 522.136 56.7385 522.75 56.4318C523.376 56.1252 524.063 55.9718 524.81 55.9718ZM531.583 61.6318C531.583 60.4985 531.809 59.5118 532.263 58.6718C532.716 57.8185 533.343 57.1585 534.143 56.6918C534.956 56.2252 535.883 55.9918 536.923 55.9918C538.269 55.9918 539.376 56.3185 540.243 56.9718C541.123 57.6252 541.703 58.5318 541.983 59.6918H540.023C539.836 59.0252 539.469 58.4985 538.923 58.1118C538.389 57.7252 537.723 57.5318 536.923 57.5318C535.883 57.5318 535.043 57.8918 534.403 58.6118C533.763 59.3185 533.443 60.3252 533.443 61.6318C533.443 62.9518 533.763 63.9718 534.403 64.6918C535.043 65.4118 535.883 65.7718 536.923 65.7718C537.723 65.7718 538.389 65.5852 538.923 65.2118C539.456 64.8385 539.823 64.3052 540.023 63.6118H541.983C541.689 64.7318 541.103 65.6318 540.223 66.3118C539.343 66.9785 538.243 67.3118 536.923 67.3118C535.883 67.3118 534.956 67.0785 534.143 66.6118C533.343 66.1452 532.716 65.4852 532.263 64.6318C531.809 63.7785 531.583 62.7785 531.583 61.6318ZM554.411 61.2318C554.411 61.5785 554.391 61.9452 554.351 62.3318H545.591C545.658 63.4118 546.024 64.2585 546.691 64.8718C547.371 65.4718 548.191 65.7718 549.151 65.7718C549.938 65.7718 550.591 65.5918 551.111 65.2318C551.644 64.8585 552.018 64.3652 552.231 63.7518H554.191C553.898 64.8052 553.311 65.6652 552.431 66.3318C551.551 66.9852 550.458 67.3118 549.151 67.3118C548.111 67.3118 547.178 67.0785 546.351 66.6118C545.538 66.1452 544.898 65.4852 544.431 64.6318C543.964 63.7652 543.731 62.7652 543.731 61.6318C543.731 60.4985 543.958 59.5052 544.411 58.6518C544.864 57.7985 545.498 57.1452 546.311 56.6918C547.138 56.2252 548.084 55.9918 549.151 55.9918C550.191 55.9918 551.111 56.2185 551.911 56.6718C552.711 57.1252 553.324 57.7518 553.751 58.5518C554.191 59.3385 554.411 60.2318 554.411 61.2318ZM552.531 60.8518C552.531 60.1585 552.378 59.5652 552.071 59.0718C551.764 58.5652 551.344 58.1852 550.811 57.9318C550.291 57.6652 549.711 57.5318 549.071 57.5318C548.151 57.5318 547.364 57.8252 546.711 58.4118C546.071 58.9985 545.704 59.8118 545.611 60.8518H552.531ZM557.393 67.2518C557.047 67.2518 556.753 67.1318 556.513 66.8918C556.273 66.6518 556.153 66.3585 556.153 66.0118C556.153 65.6652 556.273 65.3718 556.513 65.1318C556.753 64.8918 557.047 64.7718 557.393 64.7718C557.727 64.7718 558.007 64.8918 558.233 65.1318C558.473 65.3718 558.593 65.6652 558.593 66.0118C558.593 66.3585 558.473 66.6518 558.233 66.8918C558.007 67.1318 557.727 67.2518 557.393 67.2518Z" fill="#B3B3B3"/>
</svg>
