<svg width="58" height="59" viewBox="0 0 58 59" fill="none" xmlns="http://www.w3.org/2000/svg">
<rect x="0.5" y="1" width="57" height="57" rx="28.5" stroke="black" stroke-opacity="0.1"/>
<path fill-rule="evenodd" clip-rule="evenodd" d="M16 29.3441C16 27.2906 17.9873 25.626 20.4387 25.626H37.5613C40.0127 25.626 42 27.2906 42 29.3441V38.3745C42 40.428 40.0127 42.0926 37.5613 42.0926H20.4387C17.9873 42.0926 16 40.428 16 38.3745V29.3441ZM20.4387 27.7506C19.3881 27.7506 18.5364 28.464 18.5364 29.3441V38.3745C18.5364 39.2546 19.3881 39.968 20.4387 39.968H37.5613C38.6119 39.968 39.4636 39.2546 39.4636 38.3745V29.3441C39.4636 28.464 38.6119 27.7506 37.5613 27.7506H20.4387Z" fill="#666666"/>
<path fill-rule="evenodd" clip-rule="evenodd" d="M28.9999 19.5061C24.6919 19.5061 21.1996 22.9984 21.1996 27.3062H18.5999C18.5999 21.5624 23.2561 16.9062 28.9999 16.9062C34.7436 16.9062 39.3999 21.5624 39.3999 27.3062H36.8001C36.8001 22.9984 33.3078 19.5061 28.9999 19.5061Z" fill="#666666"/>
<path fill-rule="evenodd" clip-rule="evenodd" d="M22.6758 31.7383C22.9733 31.7383 23.2145 31.9795 23.2145 32.277V33.1586L24.3052 32.8314C24.5901 32.746 24.8904 32.9077 24.9759 33.1926C25.0614 33.4776 24.8997 33.7779 24.6147 33.8634L23.5278 34.1895L24.1945 35.1895C24.3595 35.437 24.2926 35.7715 24.0451 35.9365C23.7976 36.1015 23.4631 36.0346 23.2981 35.7871L22.6758 34.8537L22.0535 35.7871C21.8885 36.0346 21.554 36.1015 21.3065 35.9365C21.059 35.7715 20.9921 35.437 21.1571 35.1895L21.8364 34.1706L20.8997 33.8585C20.6175 33.7644 20.465 33.4593 20.559 33.1771C20.6531 32.8948 20.9582 32.7423 21.2404 32.8364L22.1371 33.1352V32.277C22.1371 31.9795 22.3783 31.7383 22.6758 31.7383Z" fill="#666666"/>
<path fill-rule="evenodd" clip-rule="evenodd" d="M28.7593 31.7383C29.0568 31.7383 29.298 31.9795 29.298 32.277V33.1586L30.3887 32.8314C30.6736 32.746 30.9739 32.9077 31.0594 33.1926C31.1449 33.4776 30.9832 33.7779 30.6982 33.8634L29.6113 34.1895L30.278 35.1895C30.443 35.437 30.3761 35.7715 30.1286 35.9365C29.8811 36.1015 29.5466 36.0346 29.3816 35.7871L28.7593 34.8537L28.137 35.7871C27.972 36.0346 27.6375 36.1015 27.39 35.9365C27.1425 35.7715 27.0756 35.437 27.2406 35.1895L27.9199 34.1706L26.9832 33.8585C26.701 33.7644 26.5485 33.4593 26.6425 33.1771C26.7366 32.8948 27.0417 32.7423 27.3239 32.8364L28.2206 33.1352V32.277C28.2206 31.9795 28.4618 31.7383 28.7593 31.7383Z" fill="#666666"/>
<path fill-rule="evenodd" clip-rule="evenodd" d="M34.843 31.7383C35.1406 31.7383 35.3817 31.9795 35.3817 32.277V33.1586L36.4724 32.8314C36.7574 32.746 37.0577 32.9077 37.1431 33.1926C37.2286 33.4776 37.0669 33.7779 36.782 33.8634L35.695 34.1895L36.3617 35.1895C36.5268 35.437 36.4599 35.7715 36.2123 35.9365C35.9648 36.1015 35.6303 36.0346 35.4653 35.7871L34.843 34.8537L34.2208 35.7871C34.0557 36.0346 33.7213 36.1015 33.4737 35.9365C33.2262 35.7715 33.1593 35.437 33.3244 35.1895L34.0036 34.1706L33.067 33.8585C32.7847 33.7644 32.6322 33.4593 32.7263 33.1771C32.8204 32.8948 33.1254 32.7423 33.4077 32.8364L34.3044 33.1352V32.277C34.3044 31.9795 34.5455 31.7383 34.843 31.7383Z" fill="#666666"/>
</svg>
