<svg width="58" height="59" viewBox="0 0 58 59" fill="none" xmlns="http://www.w3.org/2000/svg">
<rect x="0.5" y="1" width="57" height="57" rx="28.5" stroke="black" stroke-opacity="0.1"/>
<mask id="mask0_107_2672" style="mask-type:alpha" maskUnits="userSpaceOnUse" x="15" y="15" width="28" height="29">
<rect x="15" y="15.5" width="28" height="28" fill="#D9D9D9"/>
</mask>
<g mask="url(#mask0_107_2672)">
<path d="M38.2891 40.2369C35.8302 40.2369 33.4008 39.7013 31.001 38.6299C28.6009 37.5585 26.4148 36.0378 24.4426 34.0679C22.4701 32.0978 20.9483 29.912 19.8771 27.5107C18.8057 25.1093 18.27 22.6783 18.27 20.2178C18.27 19.8021 18.4079 19.4556 18.6836 19.1783C18.9595 18.9012 19.3044 18.7627 19.7181 18.7627H24.4361C24.8153 18.7627 25.1397 18.8748 25.4094 19.099C25.6791 19.3232 25.8474 19.6106 25.9143 19.9612L26.6656 23.8978C26.723 24.2787 26.7144 24.6017 26.64 24.8667C26.5653 25.1317 26.4223 25.3629 26.2109 25.5603L23.3398 28.3629C23.7102 29.0312 24.1488 29.6822 24.6555 30.3159C25.1624 30.9496 25.7274 31.5682 26.3504 32.1718C26.93 32.7512 27.5271 33.2823 28.1418 33.7652C28.7562 34.248 29.4004 34.6846 30.0744 35.075L32.8647 32.3057C33.0909 32.084 33.3681 31.9248 33.6966 31.8282C34.025 31.7314 34.3602 31.7116 34.7022 31.769L38.5388 32.5649C38.9088 32.6705 39.2011 32.8498 39.4156 33.1028C39.63 33.3558 39.7373 33.6575 39.7373 34.0081V38.7818C39.7373 39.1975 39.5985 39.544 39.3211 39.8213C39.0436 40.0984 38.6996 40.2369 38.2891 40.2369ZM22.071 25.8881L23.9893 24.0261L23.5072 21.4169H20.9604C21.0482 22.1816 21.1761 22.9364 21.3439 23.6814C21.5117 24.4263 21.7541 25.1619 22.071 25.8881ZM32.5407 36.3648C33.2712 36.6813 34.0174 36.9345 34.7792 37.1243C35.5413 37.3141 36.3092 37.4428 37.0831 37.5104V34.9788L34.4809 34.4386L32.5407 36.3648Z" fill="#666666"/>
</g>
</svg>
