<svg width="48" height="46" viewBox="0 0 48 46" fill="none" xmlns="http://www.w3.org/2000/svg">
<path fill-rule="evenodd" clip-rule="evenodd" d="M47.0561 1.25377C47.0099 0.393336 46.0496 -0.0944668 45.3275 0.375721L40.0601 3.80564C39.3381 4.27583 39.3957 5.35137 40.164 5.74161L41.7315 6.53784L39.2846 11.491L35.1765 10.242C34.5214 10.0428 33.818 10.3443 33.5106 10.9561L30.1162 17.7112C29.7674 18.4052 30.0473 19.2507 30.7414 19.5994C31.4355 19.9482 32.2809 19.6683 32.6297 18.9742L35.492 13.2781L39.608 14.5295C40.2666 14.7298 40.9733 14.4239 41.2782 13.8068L44.2396 7.81191L45.7681 8.58834C46.5363 8.97858 47.4389 8.39085 47.3928 7.53041L47.0561 1.25377Z" fill="#25DE84"/>
<g clip-path="url(#clip0_904_686)">
<path d="M12.3779 40.0133C11.3665 40.0133 10.3933 40.0326 9.42639 40.0133C6.69116 39.9489 4.3694 38.9249 2.51199 36.8835C0.883574 35.0867 0.0502841 32.9486 0.0184792 30.5207C-0.00060381 28.9429 -0.0769357 27.3586 0.368334 25.8066C1.49423 21.8524 5.08819 19.0639 9.15923 19.0445C12.0408 19.0317 14.9159 19.0381 17.7975 19.0445C21.5123 19.051 24.8518 21.305 26.2703 24.7891C26.423 25.169 26.6138 25.2527 26.9827 25.2527C30.5449 25.2399 34.1007 25.227 37.6628 25.2527C40.1245 25.2721 42.1028 27.5132 41.7911 29.9733C41.6575 31.0552 41.3141 32.1049 41.0405 33.1675C40.0673 36.9865 39.0813 40.799 38.1017 44.6179C37.841 45.629 37.542 45.8673 36.5051 45.8673C26.3339 45.8673 16.1627 45.8673 5.99145 45.8673C5.76246 45.8673 5.52074 45.8673 5.2981 45.8158C4.73834 45.6677 4.39484 45.1203 4.45845 44.5213C4.52206 43.9289 4.98642 43.4909 5.6416 43.4845C7.21912 43.4652 8.79665 43.478 10.3805 43.478C11.1269 43.478 11.5934 43.1153 11.78 42.3897C11.9771 41.6169 12.168 40.8505 12.3779 40.0197V40.0133ZM13.9809 43.4394C14.1462 43.4523 14.2671 43.4716 14.388 43.4716C21.4296 43.4716 28.4712 43.4716 35.5192 43.478C35.8436 43.478 35.9708 43.375 36.0535 43.0659C37.1349 38.809 38.229 34.5522 39.3167 30.2953C39.7174 28.7304 38.8905 27.642 37.3066 27.642C31.4545 27.642 25.6024 27.642 19.7566 27.642C18.5353 27.642 17.8929 28.1572 17.5875 29.3422C16.4426 33.8116 15.2912 38.2745 14.1462 42.7439C14.089 42.9693 14.0445 43.1947 13.9872 43.4459L13.9809 43.4394ZM23.834 25.2463C23.745 25.0531 23.6941 24.9243 23.6241 24.8148C22.2692 22.651 20.3291 21.4982 17.8038 21.466C14.9223 21.4274 12.0408 21.4274 9.16559 21.466C5.95329 21.5046 3.23078 23.6814 2.60104 26.8499C2.34024 28.1508 2.38477 29.5354 2.43566 30.8749C2.55652 34.1464 5.12 37.0509 8.3323 37.4695C9.79533 37.6627 11.2965 37.5725 12.7786 37.5854C12.8868 37.5854 13.0585 37.3793 13.0967 37.2377C13.4084 36.0913 13.6946 34.9386 13.9872 33.7858C14.0381 33.5862 14.089 33.3801 14.1462 33.1289C12.7723 33.1289 11.4746 33.1418 10.177 33.1289C8.28141 33.1096 6.79294 31.9053 6.47489 30.0828C6.36675 29.4452 6.40492 28.769 6.41764 28.1121C6.43036 27.4488 6.9456 26.9594 7.5817 26.9529C8.2178 26.9529 8.72668 27.4295 8.75848 28.0928C8.77757 28.4856 8.75848 28.8785 8.77121 29.2649C8.79665 30.2051 9.30553 30.7075 10.2342 30.7075C11.0675 30.7075 11.9072 30.7075 12.7405 30.7075C13.4147 30.7075 14.089 30.7075 14.7696 30.7075C14.9668 29.9347 15.1449 29.2069 15.3485 28.4792C15.8828 26.515 17.4985 25.2592 19.5149 25.2399C20.4754 25.227 21.4359 25.2399 22.3965 25.2399C22.8544 25.2399 23.3124 25.2399 23.834 25.2399V25.2463Z" fill="#001A38"/>
<path d="M13.504 0.131836C18.2875 0.131836 22.1359 4.05382 22.1295 8.90317C22.1168 13.7139 18.2366 17.6294 13.4913 17.623C8.75232 17.623 4.8594 13.6817 4.85304 8.88385C4.84667 4.05382 8.72688 0.131836 13.504 0.131836ZM13.5103 15.2015C16.9644 15.1951 19.7759 12.3421 19.7632 8.85809C19.7505 5.36759 16.9198 2.51465 13.4849 2.52753C10.0245 2.54041 7.23841 5.38047 7.24477 8.88385C7.24477 12.3872 10.05 15.2144 13.5103 15.2015Z" fill="#001A38"/>
<circle cx="27" cy="36" r="3" fill="#25DE84"/>
</g>
<defs>
<clipPath id="clip0_904_686">
<rect width="41.8172" height="45.7372" fill="white" transform="translate(0 0.131836)"/>
</clipPath>
</defs>
</svg>
