<svg width="33" height="34" viewBox="0 0 33 34" fill="none" xmlns="http://www.w3.org/2000/svg">
<rect x="1" y="1" width="31" height="32" rx="15.5" stroke="black" stroke-opacity="0.1"/>
<mask id="mask0_40000465_2601" style="mask-type:alpha" maskUnits="userSpaceOnUse" x="4" y="5" width="25" height="24">
<rect x="4.5" y="5" width="24" height="24" fill="#D9D9D9"/>
</mask>
<g mask="url(#mask0_40000465_2601)">
<path d="M7.75 23.4808C7.5375 23.4808 7.35942 23.4088 7.21575 23.265C7.07192 23.1212 7 22.943 7 22.7305C7 22.5178 7.07192 22.3398 7.21575 22.1962C7.35942 22.0526 7.5375 21.9808 7.75 21.9808H16.029C16.2415 21.9808 16.4196 22.0527 16.5633 22.1965C16.7069 22.3403 16.7788 22.5185 16.7788 22.731C16.7788 22.9437 16.7069 23.1217 16.5633 23.2653C16.4196 23.4089 16.2415 23.4808 16.029 23.4808H7.75ZM7.75 18.5865C7.5375 18.5865 7.35942 18.5146 7.21575 18.3707C7.07192 18.2269 7 18.0488 7 17.8363C7 17.6236 7.07192 17.4455 7.21575 17.302C7.35942 17.1583 7.5375 17.0865 7.75 17.0865H10.9808C11.1933 17.0865 11.3714 17.1584 11.5152 17.3022C11.6589 17.4461 11.7308 17.6242 11.7308 17.8368C11.7308 18.0494 11.6589 18.2276 11.5152 18.3713C11.3714 18.5148 11.1933 18.5865 10.9808 18.5865H7.75ZM7.75 13.6923C7.5375 13.6923 7.35942 13.6203 7.21575 13.4765C7.07192 13.3327 7 13.1545 7 12.942C7 12.7293 7.07192 12.5512 7.21575 12.4077C7.35942 12.2641 7.5375 12.1923 7.75 12.1923H10.9808C11.1933 12.1923 11.3714 12.2642 11.5152 12.408C11.6589 12.5518 11.7308 12.7301 11.7308 12.9428C11.7308 13.1553 11.6589 13.3333 11.5152 13.477C11.3714 13.6205 11.1933 13.6923 10.9808 13.6923H7.75ZM18.4615 20.5095C17.2085 20.5095 16.1405 20.0718 15.2575 19.1963C14.3743 18.3206 13.9328 17.2568 13.9328 16.0048C13.9328 14.7529 14.3745 13.6892 15.258 12.8135C16.1417 11.9378 17.2102 11.5 18.4637 11.5C19.7174 11.5 20.7853 11.9378 21.6673 12.8135C22.5493 13.6892 22.9902 14.7513 22.9902 16C22.9902 16.4642 22.9178 16.9209 22.773 17.3703C22.6282 17.8196 22.4141 18.2314 22.1307 18.6058L25.473 21.9192C25.6178 22.0556 25.6903 22.2291 25.6903 22.4397C25.6903 22.6504 25.6178 22.8282 25.473 22.973C25.3367 23.1115 25.1632 23.1807 24.9525 23.1807C24.7418 23.1807 24.5641 23.1115 24.4193 22.973L21.077 19.6595C20.6962 19.9365 20.2811 20.1474 19.8318 20.2923C19.3824 20.4371 18.9257 20.5095 18.4615 20.5095ZM18.4615 19.0095C19.3028 19.0095 20.018 18.7178 20.607 18.1345C21.196 17.5512 21.4905 16.8413 21.4905 16.0048C21.4905 15.1683 21.196 14.4583 20.607 13.875C20.018 13.2917 19.3028 13 18.4615 13C17.6202 13 16.905 13.2917 16.316 13.875C15.7272 14.4583 15.4327 15.1683 15.4327 16.0048C15.4327 16.8413 15.7272 17.5512 16.316 18.1345C16.905 18.7178 17.6202 19.0095 18.4615 19.0095Z" fill="#1C1B1F"/>
</g>
</svg>
