<svg xmlns="http://www.w3.org/2000/svg" width="18" height="18" viewBox="0 0 18 18" fill="none">
  <path d="M9.00157 17.5C7.82588 17.5 6.72081 17.2769 5.68634 16.8307C4.65188 16.3846 3.75207 15.779 2.98692 15.0142C2.22177 14.2493 1.61596 13.3499 1.16949 12.3159C0.723162 11.2819 0.5 10.1771 0.5 9.00157C0.5 7.82588 0.723088 6.72081 1.16926 5.68634C1.61544 4.65188 2.22095 3.75207 2.9858 2.98692C3.75065 2.22177 4.65009 1.61596 5.68411 1.16949C6.71812 0.723162 7.8229 0.5 8.99844 0.5C10.1741 0.5 11.2792 0.723087 12.3137 1.16926C13.3481 1.61544 14.2479 2.22095 15.0131 2.9858C15.7782 3.75065 16.384 4.65009 16.8305 5.68411C17.2768 6.71812 17.5 7.8229 17.5 8.99844C17.5 10.1741 17.2769 11.2792 16.8307 12.3137C16.3846 13.3481 15.779 14.2479 15.0142 15.0131C14.2493 15.7782 13.3499 16.384 12.3159 16.8305C11.2819 17.2768 10.1771 17.5 9.00157 17.5ZM9 16.1579C10.9982 16.1579 12.6908 15.4645 14.0776 14.0776C15.4645 12.6908 16.1579 10.9982 16.1579 9H9V1.84211C7.00175 1.84211 5.30921 2.53553 3.92237 3.92237C2.53553 5.30921 1.84211 7.00175 1.84211 9C1.84211 10.9982 2.53553 12.6908 3.92237 14.0776C5.30921 15.4645 7.00175 16.1579 9 16.1579Z" fill="#589BFF"/>
</svg>