<svg width="26" height="22" viewBox="0 0 26 22" fill="none" xmlns="http://www.w3.org/2000/svg">
<path fill-rule="evenodd" clip-rule="evenodd" d="M16.8058 9.57253C17.8765 8.55282 18.7442 7.26915 18.7987 5.73862C19.0179 -0.425947 11.2837 -1.95731 8.30888 2.78237C6.78475 5.21072 5.94073 8.81491 5.8859 12.1587C4.32856 12.6911 2.79943 13.1457 1.45603 13.5121C0.722628 13.7121 0.290233 14.4688 0.490252 15.2022C0.690272 15.9356 1.44696 16.368 2.18037 16.168C3.35697 15.8471 4.67812 15.4589 6.04445 15.0091C6.22317 16.3335 6.55818 17.5954 7.0884 18.6761C7.86748 20.2639 9.14721 21.593 11.0539 21.9232C12.8999 22.2429 14.9675 21.5565 17.2032 20.0041C18.6524 18.9978 20.2439 17.5793 21.9903 15.6894C21.2449 15.1289 20.4619 14.6198 19.6466 14.1657C18.1363 15.7654 16.8012 16.9317 15.633 17.7429C13.671 19.1053 12.3474 19.3534 11.5237 19.2107C10.7606 19.0786 10.0922 18.5484 9.55984 17.4635C9.12337 16.5739 8.83302 15.4036 8.70714 14.0676C11.766 12.9036 14.8883 11.3986 16.8058 9.57253ZM14.9073 7.57899C13.5597 8.86236 11.273 10.0691 8.68679 11.1179C8.85717 8.77912 9.51167 3.39484 12.4743 2.69832C14.1544 2.3033 16.1096 3.89573 16.0475 5.64078C16.0295 6.14679 15.7309 6.7947 14.9073 7.57899Z" fill="#001630"/>
<path d="M23.7533 9.53488L23.5154 9.22112L23.6693 9.10442C24.1895 8.70996 24.9244 9.15346 24.8179 9.79752L24.7875 9.98177C24.441 12.077 24.3479 14.2064 24.5101 16.3239L24.5677 17.077C24.611 17.6418 23.9013 17.9265 23.5422 17.4884C21.9583 15.5561 19.7978 14.1809 17.3766 13.5639L17.3165 13.5485L23.7533 9.53488ZM23.7533 9.53488L23.5154 9.22112C21.7497 10.5601 19.7762 11.6003 17.6736 12.3001L17.2764 12.4323C16.7251 12.6158 16.7535 13.4051 17.3165 13.5485L23.7533 9.53488ZM17.5146 12.7712L17.5133 12.7762L17.5133 12.7762L17.5146 12.7712ZM17.4155 13.1599L17.4152 13.1611L17.4155 13.1599Z" fill="#01FF85" stroke="white" stroke-width="0.80219"/>
</svg>
