<svg width="18" height="24" viewBox="0 0 18 24" fill="none" xmlns="http://www.w3.org/2000/svg">
<path d="M2.07646 20C1.76801 20 1.50953 19.8942 1.30103 19.6827C1.09253 19.4712 0.988281 19.2142 0.988281 18.9118V15.9868C0.988281 15.6846 1.04835 15.3986 1.16849 15.1289C1.28862 14.8594 1.44563 14.6277 1.63952 14.4338L11.4864 4.63949C11.9206 4.20835 12.4403 3.99521 13.0456 4.00008C13.6509 4.00472 14.1621 4.22412 14.5791 4.65828L16.4006 6.50833C16.8114 6.92811 17.0156 7.4395 17.0132 8.0425C17.0109 8.6455 16.7999 9.15249 16.3801 9.56346L6.56696 19.3602C6.3631 19.5613 6.127 19.7182 5.85867 19.8309C5.59033 19.9436 5.30576 20 5.00496 20H2.07646ZM2.73675 18.2515H5.21543L11.7129 11.7426L10.4873 10.5236L9.26168 9.31367L2.73675 15.7854V18.2515Z" fill="#1C1B1F"/>
</svg>
