<svg width="25" height="24" viewBox="0 0 25 24" fill="none" xmlns="http://www.w3.org/2000/svg">
<g clip-path="url(#clip0_40000499_6297)">
<path d="M21.8632 8.072C21.4332 8.024 20.9742 8 20.5012 8C17.6972 8 15.3872 10.69 14.9132 11.282C14.3482 11.094 13.7062 10.978 12.9792 11C11.5982 11.031 10.3942 11.489 9.41819 12.058C9.58319 10.808 9.55419 9.638 9.52419 8.664C9.50319 8.022 9.48519 7.406 9.53419 6.951L11.8242 6.222C12.2392 6.09 12.5212 5.704 12.5212 5.269V4.988L13.3102 4.701C13.7842 4.513 14.1672 4.134 14.3612 3.662C14.5532 3.193 14.5492 2.682 14.3472 2.221C13.7562 0.872 12.2462 0 10.5012 0C8.67619 0 7.27819 1.187 7.17819 1.278C1.19419 5.88 0.497193 12.035 0.492193 16.264C0.490193 17.617 1.04719 18.925 2.02019 19.856C3.65119 21.413 7.18219 24.024 12.5002 24.024C17.1862 24.024 20.4662 22.801 22.3932 21.775C23.6932 21.084 24.5002 19.732 24.5002 18.249V11.054C24.5002 9.524 23.3662 8.242 21.8622 8.074L21.8632 8.072ZM22.5012 18.248C22.5012 18.99 22.1002 19.665 21.4542 20.009C19.7282 20.928 16.7742 22.024 12.5012 22.024C7.87919 22.024 4.81619 19.759 3.40119 18.41C2.81319 17.848 2.49019 17.088 2.49219 16.267C2.49719 12.138 3.17219 6.883 8.44519 2.825C8.45419 2.817 9.41219 2.001 10.5012 2.001C11.4872 2.001 12.1632 2.428 12.4442 2.89L11.1782 3.35C10.7822 3.494 10.5202 3.869 10.5202 4.289V4.539L8.37719 5.221C8.07819 5.316 7.84219 5.545 7.73719 5.84C7.45819 6.628 7.48819 7.601 7.52319 8.727C7.57519 10.426 7.64719 12.551 6.61719 14.555C6.54819 14.691 6.50019 14.839 6.50019 15.002C6.50019 15.554 6.94819 16.002 7.50019 16.002C7.82019 16.002 8.09119 15.843 8.27419 15.609C8.29419 15.584 10.2802 13.062 13.0222 13.002C14.9722 13.002 16.1192 14.486 16.1722 14.564C16.4802 15.018 17.1002 15.139 17.5572 14.832C18.0152 14.524 18.1372 13.903 17.8292 13.444C17.7972 13.396 17.4162 12.834 16.7002 12.262C17.4452 11.414 19.0002 10.002 20.4992 10.002C20.8982 10.002 21.2822 10.023 21.6392 10.063C22.1292 10.118 22.4992 10.544 22.4992 11.055V18.25L22.5012 18.248Z" fill="black"/>
</g>
<defs>
<clipPath id="clip0_40000499_6297">
<rect width="24" height="24" fill="white" transform="translate(0.5)"/>
</clipPath>
</defs>
</svg>
