<svg width="25" height="24" viewBox="0 0 25 24" fill="none" xmlns="http://www.w3.org/2000/svg">
<mask id="mask0_40000465_2602" style="mask-type:alpha" maskUnits="userSpaceOnUse" x="0" y="0" width="25" height="24">
<rect x="0.5" width="24" height="24" fill="#D9D9D9"/>
</mask>
<g mask="url(#mask0_40000465_2602)">
<path d="M3.75 18.4808C3.5375 18.4808 3.35942 18.4088 3.21575 18.265C3.07192 18.1212 3 17.943 3 17.7305C3 17.5178 3.07192 17.3398 3.21575 17.1962C3.35942 17.0526 3.5375 16.9808 3.75 16.9808H12.029C12.2415 16.9808 12.4196 17.0527 12.5633 17.1965C12.7069 17.3403 12.7788 17.5185 12.7788 17.731C12.7788 17.9437 12.7069 18.1217 12.5633 18.2653C12.4196 18.4089 12.2415 18.4808 12.029 18.4808H3.75ZM3.75 13.5865C3.5375 13.5865 3.35942 13.5146 3.21575 13.3707C3.07192 13.2269 3 13.0488 3 12.8363C3 12.6236 3.07192 12.4455 3.21575 12.302C3.35942 12.1583 3.5375 12.0865 3.75 12.0865H6.98075C7.19325 12.0865 7.37142 12.1584 7.51525 12.3022C7.65892 12.4461 7.73075 12.6242 7.73075 12.8368C7.73075 13.0494 7.65892 13.2276 7.51525 13.3713C7.37142 13.5148 7.19325 13.5865 6.98075 13.5865H3.75ZM3.75 8.69225C3.5375 8.69225 3.35942 8.62033 3.21575 8.4765C3.07192 8.33267 3 8.1545 3 7.942C3 7.72933 3.07192 7.55125 3.21575 7.40775C3.35942 7.26408 3.5375 7.19225 3.75 7.19225H6.98075C7.19325 7.19225 7.37142 7.26417 7.51525 7.408C7.65892 7.55183 7.73075 7.73008 7.73075 7.94275C7.73075 8.15525 7.65892 8.33333 7.51525 8.477C7.37142 8.6205 7.19325 8.69225 6.98075 8.69225H3.75ZM14.4615 15.5095C13.2085 15.5095 12.1405 15.0718 11.2575 14.1963C10.3743 13.3206 9.93275 12.2568 9.93275 11.0048C9.93275 9.75292 10.3745 8.68917 11.258 7.8135C12.1417 6.93783 13.2102 6.5 14.4637 6.5C15.7174 6.5 16.7853 6.93783 17.6673 7.8135C18.5493 8.68917 18.9902 9.75133 18.9902 11C18.9902 11.4642 18.9178 11.9209 18.773 12.3703C18.6282 12.8196 18.4141 13.2314 18.1307 13.6058L21.473 16.9192C21.6178 17.0556 21.6903 17.2291 21.6903 17.4397C21.6903 17.6504 21.6178 17.8282 21.473 17.973C21.3367 18.1115 21.1632 18.1807 20.9525 18.1807C20.7418 18.1807 20.5641 18.1115 20.4193 17.973L17.077 14.6595C16.6962 14.9365 16.2811 15.1474 15.8318 15.2923C15.3824 15.4371 14.9257 15.5095 14.4615 15.5095ZM14.4615 14.0095C15.3028 14.0095 16.018 13.7178 16.607 13.1345C17.196 12.5512 17.4905 11.8413 17.4905 11.0048C17.4905 10.1683 17.196 9.45833 16.607 8.875C16.018 8.29167 15.3028 8 14.4615 8C13.6202 8 12.905 8.29167 12.316 8.875C11.7272 9.45833 11.4327 10.1683 11.4327 11.0048C11.4327 11.8413 11.7272 12.5512 12.316 13.1345C12.905 13.7178 13.6202 14.0095 14.4615 14.0095Z" fill="#1C1B1F"/>
</g>
</svg>
