<svg width="33" height="34" viewBox="0 0 33 34" fill="none" xmlns="http://www.w3.org/2000/svg">
<rect x="1" y="1" width="31" height="32" rx="15.5" stroke="black" stroke-opacity="0.1"/>
<g clip-path="url(#clip0_40000465_2593)">
<path d="M22.7395 14.3813C22.4529 14.3493 22.1469 14.3333 21.8315 14.3333C19.9622 14.3333 18.4222 16.1267 18.1062 16.5213C17.7295 16.396 17.3015 16.3187 16.8169 16.3333C15.8962 16.354 15.0935 16.6593 14.4429 17.0387C14.5529 16.2053 14.5335 15.4253 14.5135 14.776C14.4995 14.348 14.4875 13.9373 14.5202 13.634L16.0469 13.148C16.3235 13.06 16.5115 12.8027 16.5115 12.5127V12.3253L17.0375 12.134C17.3535 12.0087 17.6089 11.756 17.7382 11.4413C17.8662 11.1287 17.8635 10.788 17.7289 10.4807C17.3349 9.58133 16.3282 9 15.1649 9C13.9482 9 13.0162 9.79133 12.9495 9.852C8.96019 12.92 8.49552 17.0233 8.49219 19.8427C8.49086 20.7447 8.86219 21.6167 9.51086 22.2373C10.5982 23.2753 12.9522 25.016 16.4975 25.016C19.6215 25.016 21.8082 24.2007 23.0929 23.5167C23.9595 23.056 24.4975 22.1547 24.4975 21.166V16.3693C24.4975 15.3493 23.7415 14.4947 22.7389 14.3827L22.7395 14.3813ZM23.1649 21.1653C23.1649 21.66 22.8975 22.11 22.4669 22.3393C21.3162 22.952 19.3469 23.6827 16.4982 23.6827C13.4169 23.6827 11.3749 22.1727 10.4315 21.2733C10.0395 20.8987 9.82419 20.392 9.82552 19.8447C9.82886 17.092 10.2789 13.5887 13.7942 10.8833C13.8002 10.878 14.4389 10.334 15.1649 10.334C15.8222 10.334 16.2729 10.6187 16.4602 10.9267L15.6162 11.2333C15.3522 11.3293 15.1775 11.5793 15.1775 11.8593V12.026L13.7489 12.4807C13.5495 12.544 13.3922 12.6967 13.3222 12.8933C13.1362 13.4187 13.1562 14.0673 13.1795 14.818C13.2142 15.9507 13.2622 17.3673 12.5755 18.7033C12.5295 18.794 12.4975 18.8927 12.4975 19.0013C12.4975 19.3693 12.7962 19.668 13.1642 19.668C13.3775 19.668 13.5582 19.562 13.6802 19.406C13.6935 19.3893 15.0175 17.708 16.8455 17.668C18.1455 17.668 18.9102 18.6573 18.9455 18.7093C19.1509 19.012 19.5642 19.0927 19.8689 18.888C20.1742 18.6827 20.2555 18.2687 20.0502 17.9627C20.0289 17.9307 19.7749 17.556 19.2975 17.1747C19.7942 16.6093 20.8309 15.668 21.8302 15.668C22.0962 15.668 22.3522 15.682 22.5902 15.7087C22.9169 15.7453 23.1635 16.0293 23.1635 16.37V21.1667L23.1649 21.1653Z" fill="black"/>
</g>
<defs>
<clipPath id="clip0_40000465_2593">
<rect width="16" height="16" fill="white" transform="translate(8.5 9)"/>
</clipPath>
</defs>
</svg>
