<svg width="23" height="22" viewBox="0 0 23 22" fill="none" xmlns="http://www.w3.org/2000/svg">
<path d="M11.5 22C9.32441 22 7.19767 21.3549 5.38873 20.1462C3.57979 18.9375 2.16989 17.2195 1.33733 15.2095C0.504766 13.1995 0.286929 10.9878 0.711367 8.85401C1.1358 6.72022 2.18345 4.76021 3.72183 3.22183C5.26021 1.68345 7.22022 0.635804 9.35401 0.211367C11.4878 -0.213071 13.6995 0.00476615 15.7095 0.83733C17.7195 1.66989 19.4375 3.07979 20.6462 4.88873C21.8549 6.69767 22.5 8.82441 22.5 11C22.4969 13.9164 21.3369 16.7125 19.2747 18.7747C17.2125 20.8369 14.4164 21.9969 11.5 22ZM11.5 1.83334C9.68701 1.83334 7.91473 2.37095 6.40728 3.3782C4.89983 4.38545 3.72491 5.81708 3.03111 7.49207C2.33731 9.16706 2.15578 11.0102 2.50947 12.7883C2.86317 14.5665 3.73621 16.1998 5.01819 17.4818C6.30017 18.7638 7.93352 19.6368 9.71168 19.9905C11.4898 20.3442 13.3329 20.1627 15.0079 19.4689C16.6829 18.7751 18.1146 17.6002 19.1218 16.0927C20.1291 14.5853 20.6667 12.813 20.6667 11C20.664 8.56967 19.6974 6.23965 17.9789 4.52114C16.2604 2.80264 13.9303 1.83601 11.5 1.83334ZM16.6938 14.4338C16.8754 14.2722 16.9854 14.045 16.9995 13.8022C17.0136 13.5595 16.9307 13.3211 16.769 13.1395C16.6073 12.9579 16.3801 12.848 16.1374 12.8339C15.8947 12.8198 15.6563 12.9027 15.4747 13.0643C14.3541 14.0078 12.9617 14.5692 11.5 14.6667C10.0392 14.5692 8.64754 14.0086 7.52717 13.0662C7.34581 12.9043 7.10755 12.821 6.86482 12.8348C6.62208 12.8485 6.39475 12.9581 6.23284 13.1395C6.07092 13.3209 5.98769 13.5591 6.00144 13.8019C6.01519 14.0446 6.12481 14.2719 6.30617 14.4338C7.76172 15.6773 9.58804 16.4039 11.5 16.5C13.412 16.4039 15.2383 15.6773 16.6938 14.4338ZM6 9.16667C6 10.0833 6.82042 10.0833 7.83334 10.0833C8.84626 10.0833 9.66667 10.0833 9.66667 9.16667C9.66667 8.68044 9.47352 8.21413 9.1297 7.87031C8.78588 7.52649 8.31957 7.33334 7.83334 7.33334C7.34711 7.33334 6.88079 7.52649 6.53698 7.87031C6.19316 8.21413 6 8.68044 6 9.16667ZM13.3333 9.16667C13.3333 10.0833 14.1538 10.0833 15.1667 10.0833C16.1796 10.0833 17 10.0833 17 9.16667C17 8.68044 16.8069 8.21413 16.463 7.87031C16.1192 7.52649 15.6529 7.33334 15.1667 7.33334C14.6804 7.33334 14.2141 7.52649 13.8703 7.87031C13.5265 8.21413 13.3333 8.68044 13.3333 9.16667Z" fill="black"/>
</svg>
