<svg width="18" height="18" viewBox="0 0 18 18" fill="none" xmlns="http://www.w3.org/2000/svg">
<path d="M16.2911 17.5L13.9366 15.1455C13.2981 15.5712 12.6098 15.8971 11.8715 16.1232C11.1332 16.3494 10.3517 16.4624 9.52701 16.4624C8.42295 16.4624 7.38539 16.2529 6.41434 15.8339C5.44329 15.4149 4.59861 14.8462 3.8803 14.1279C3.16199 13.4096 2.59333 12.5649 2.17431 11.5939C1.7553 10.6228 1.54579 9.58529 1.54579 8.48122C1.54579 7.6565 1.65886 6.875 1.88499 6.13674C2.11113 5.39847 2.43703 4.71009 2.86269 4.0716L0.488281 1.69718L1.62561 0.559859L17.4284 16.3627L16.2911 17.5ZM9.52701 14.8662C10.1256 14.8662 10.6943 14.7864 11.233 14.6268C11.7717 14.4671 12.2805 14.2477 12.7594 13.9683L4.03992 5.24883C3.76058 5.7277 3.5411 6.2365 3.38147 6.77524C3.22185 7.31397 3.14204 7.88263 3.14204 8.48122C3.14204 10.2504 3.76391 11.7568 5.00765 13.0006C6.25139 14.2443 7.75784 14.8662 9.52701 14.8662ZM16.2113 12.8709L15.0341 11.6937C15.3134 11.2281 15.5296 10.7259 15.6825 10.1872C15.8355 9.64847 15.912 9.07981 15.912 8.48122C15.912 6.71205 15.2901 5.2056 14.0464 3.96185C12.8026 2.71811 11.2962 2.09624 9.52701 2.09624C8.92842 2.09624 8.35976 2.17273 7.82103 2.3257C7.2823 2.47868 6.78014 2.69484 6.31457 2.97418L5.13734 1.79695C5.77584 1.38459 6.46422 1.06534 7.20248 0.839202C7.94075 0.613067 8.71559 0.5 9.52701 0.5C10.6311 0.5 11.6686 0.709507 12.6397 1.12852C13.6107 1.54754 14.4554 2.1162 15.1737 2.83451C15.892 3.55282 16.4607 4.3975 16.8797 5.36854C17.2987 6.33959 17.5082 7.37715 17.5082 8.48122C17.5082 9.29265 17.3952 10.0675 17.169 10.8058C16.9429 11.544 16.6236 12.2324 16.2113 12.8709Z" fill="#D48A0C"/>
</svg>
