<svg width="25" height="24" viewBox="0 0 25 24" fill="none" xmlns="http://www.w3.org/2000/svg">
<g clip-path="url(#clip0_40000499_6290)">
<path d="M18.5 24H10.937L11.228 22.77C11.3777 22.1906 11.4688 21.5976 11.5 21C11.5 20.4696 11.2893 19.9609 10.9142 19.5858C10.5391 19.2107 10.0304 19 9.5 19C8.96957 19 8.46086 19.2107 8.08579 19.5858C7.71071 19.9609 7.5 20.4696 7.5 21C7.53122 21.5976 7.62235 22.1906 7.772 22.77L8.063 24H0.5V9C0.5 8.20435 0.81607 7.44129 1.37868 6.87868C1.94129 6.31607 2.70435 6 3.5 6H5.772C5.61363 5.3443 5.52249 4.67418 5.5 4C5.5 2.93913 5.92143 1.92172 6.67157 1.17157C7.42172 0.421427 8.43913 0 9.5 0C10.5609 0 11.5783 0.421427 12.3284 1.17157C13.0786 1.92172 13.5 2.93913 13.5 4C13.4775 4.67418 13.3864 5.3443 13.228 6H15.5C16.2956 6 17.0587 6.31607 17.6213 6.87868C18.1839 7.44129 18.5 8.20435 18.5 9V10.772C19.1558 10.6142 19.8259 10.5231 20.5 10.5C21.5609 10.5 22.5783 10.9214 23.3284 11.6716C24.0786 12.4217 24.5 13.4391 24.5 14.5C24.5 15.5609 24.0786 16.5783 23.3284 17.3284C22.5783 18.0786 21.5609 18.5 20.5 18.5C19.8259 18.4769 19.1558 18.3858 18.5 18.228V24ZM13.414 22H16.5V15.582L17.791 15.974C18.6689 16.2601 19.5788 16.4368 20.5 16.5C21.0304 16.5 21.5391 16.2893 21.9142 15.9142C22.2893 15.5391 22.5 15.0304 22.5 14.5C22.5 13.9696 22.2893 13.4609 21.9142 13.0858C21.5391 12.7107 21.0304 12.5 20.5 12.5C19.5788 12.5632 18.6689 12.7399 17.791 13.026L16.5 13.418V9C16.5 8.73478 16.3946 8.48043 16.2071 8.29289C16.0196 8.10536 15.7652 8 15.5 8H10.582L10.974 6.709C11.2603 5.83114 11.437 4.92123 11.5 4C11.5 3.46957 11.2893 2.96086 10.9142 2.58579C10.5391 2.21071 10.0304 2 9.5 2C8.96957 2 8.46086 2.21071 8.08579 2.58579C7.71071 2.96086 7.5 3.46957 7.5 4C7.56299 4.92123 7.73967 5.83114 8.026 6.709L8.418 8H3.5C3.23478 8 2.98043 8.10536 2.79289 8.29289C2.60536 8.48043 2.5 8.73478 2.5 9V22H5.586C5.53394 21.6691 5.5052 21.3349 5.5 21C5.5 19.9391 5.92143 18.9217 6.67157 18.1716C7.42172 17.4214 8.43913 17 9.5 17C10.5609 17 11.5783 17.4214 12.3284 18.1716C13.0786 18.9217 13.5 19.9391 13.5 21C13.4948 21.3349 13.4661 21.6691 13.414 22Z" fill="black"/>
</g>
<defs>
<clipPath id="clip0_40000499_6290">
<rect width="24" height="24" fill="white" transform="translate(0.5)"/>
</clipPath>
</defs>
</svg>
