<svg width="19" height="20" viewBox="0 0 19 20" fill="none" xmlns="http://www.w3.org/2000/svg">
<path d="M8.5065 10.5928L6.97083 9.00724C6.83978 8.87066 6.67751 8.80081 6.48401 8.79768C6.29052 8.79456 6.12036 8.86943 5.97354 9.02228C5.8365 9.16528 5.76798 9.33851 5.76798 9.54199C5.76798 9.74547 5.8365 9.91871 5.97354 10.0617L7.9078 12.0777C8.0789 12.2558 8.27847 12.3449 8.5065 12.3449C8.73453 12.3449 8.9341 12.2558 9.1052 12.0777L13.0265 7.99075C13.1671 7.84398 13.2365 7.6723 13.2346 7.47573C13.2329 7.27915 13.1635 7.10435 13.0265 6.95133C12.8796 6.79848 12.711 6.7195 12.5205 6.71441C12.3301 6.70931 12.1616 6.78328 12.0147 6.9363L8.5065 10.5928ZM6.10294 18.5977L4.79459 16.3049L2.31983 15.7509C2.10756 15.708 1.93804 15.5917 1.81125 15.402C1.68446 15.2124 1.63384 15.0069 1.65938 14.7857L1.90137 12.1326L0.218334 10.126C0.072778 9.96432 0 9.76963 0 9.54199C0 9.31435 0.072778 9.11967 0.218334 8.95794L1.90137 6.95133L1.65938 4.2983C1.63384 4.07707 1.68446 3.87162 1.81125 3.68195C1.93804 3.49228 2.10756 3.37599 2.31983 3.33309L4.79459 2.77911L6.10294 0.486278C6.21695 0.291675 6.37221 0.158952 6.5687 0.0881128C6.76519 0.0172733 6.96476 0.0280389 7.1674 0.12041L9.5 1.14824L11.8326 0.12041C12.0352 0.0280389 12.2348 0.0172733 12.4313 0.0881128C12.6278 0.158952 12.783 0.291675 12.8971 0.486278L14.2054 2.77911L16.6802 3.33309C16.8924 3.37599 17.062 3.49228 17.1888 3.68195C17.3155 3.87162 17.3662 4.07707 17.3406 4.2983L17.0986 6.95133L18.7817 8.95794C18.9272 9.11967 19 9.31435 19 9.54199C19 9.76963 18.9272 9.96432 18.7817 10.126L17.0986 12.1326L17.3406 14.7857C17.3662 15.0069 17.3155 15.2124 17.1888 15.402C17.062 15.5917 16.8924 15.708 16.6802 15.7509L14.2054 16.3049L12.8971 18.5977C12.783 18.7923 12.6278 18.925 12.4313 18.9959C12.2348 19.0667 12.0352 19.0559 11.8326 18.9636L9.5 17.9357L7.1674 18.9636C6.96476 19.0559 6.76519 19.0667 6.5687 18.9959C6.37221 18.925 6.21695 18.7923 6.10294 18.5977Z" fill="white"/>
<path d="M8.5065 10.5928L6.97083 9.00724C6.83978 8.87066 6.67751 8.80081 6.48401 8.79768C6.29052 8.79456 6.12036 8.86943 5.97354 9.02228C5.8365 9.16528 5.76798 9.33851 5.76798 9.54199C5.76798 9.74547 5.8365 9.91871 5.97354 10.0617L7.9078 12.0777C8.0789 12.2558 8.27847 12.3449 8.5065 12.3449C8.73453 12.3449 8.9341 12.2558 9.1052 12.0777L13.0265 7.99075C13.1671 7.84398 13.2365 7.6723 13.2346 7.47573C13.2329 7.27915 13.1635 7.10435 13.0265 6.95133C12.8796 6.79848 12.711 6.7195 12.5205 6.71441C12.3301 6.70931 12.1616 6.78328 12.0147 6.9363L8.5065 10.5928ZM6.10294 18.5977L4.79459 16.3049L2.31983 15.7509C2.10756 15.708 1.93804 15.5917 1.81125 15.402C1.68446 15.2124 1.63384 15.0069 1.65938 14.7857L1.90137 12.1326L0.218334 10.126C0.072778 9.96432 0 9.76963 0 9.54199C0 9.31435 0.072778 9.11967 0.218334 8.95794L1.90137 6.95133L1.65938 4.2983C1.63384 4.07707 1.68446 3.87162 1.81125 3.68195C1.93804 3.49228 2.10756 3.37599 2.31983 3.33309L4.79459 2.77911L6.10294 0.486278C6.21695 0.291675 6.37221 0.158952 6.5687 0.0881128C6.76519 0.0172733 6.96476 0.0280389 7.1674 0.12041L9.5 1.14824L11.8326 0.12041C12.0352 0.0280389 12.2348 0.0172733 12.4313 0.0881128C12.6278 0.158952 12.783 0.291675 12.8971 0.486278L14.2054 2.77911L16.6802 3.33309C16.8924 3.37599 17.062 3.49228 17.1888 3.68195C17.3155 3.87162 17.3662 4.07707 17.3406 4.2983L17.0986 6.95133L18.7817 8.95794C18.9272 9.11967 19 9.31435 19 9.54199C19 9.76963 18.9272 9.96432 18.7817 10.126L17.0986 12.1326L17.3406 14.7857C17.3662 15.0069 17.3155 15.2124 17.1888 15.402C17.062 15.5917 16.8924 15.708 16.6802 15.7509L14.2054 16.3049L12.8971 18.5977C12.783 18.7923 12.6278 18.925 12.4313 18.9959C12.2348 19.0667 12.0352 19.0559 11.8326 18.9636L9.5 17.9357L7.1674 18.9636C6.96476 19.0559 6.76519 19.0667 6.5687 18.9959C6.37221 18.925 6.21695 18.7923 6.10294 18.5977Z" stroke="white"/>
</svg>
