<svg width="23" height="22" viewBox="0 0 23 22" fill="none" xmlns="http://www.w3.org/2000/svg">
<g clip-path="url(#clip0_40000499_6311)">
<path d="M11.5 14.6667C13.3013 14.6667 14.7368 15.7199 14.7973 15.7648C15.2033 16.0664 15.2877 16.6412 14.9852 17.0463C14.8055 17.2883 14.5287 17.4158 14.2491 17.4158C14.0584 17.4158 13.8668 17.3571 13.7028 17.2343C13.6963 17.2297 12.6816 16.4991 11.5 16.4991C10.3184 16.4991 9.30367 17.2297 9.29358 17.237C8.88658 17.5331 8.31275 17.4478 8.01392 17.0417C7.71508 16.6357 7.7985 16.0655 8.20275 15.7639C8.26325 15.719 9.69875 14.6657 11.5 14.6657V14.6667ZM11.5 0C7.34658 0 3.59192 2.299 1.69992 5.99958C1.46983 6.44967 1.64858 7.00242 2.09958 7.23342C2.55058 7.46258 3.10242 7.28475 3.33342 6.83375C4.91008 3.74917 8.03958 1.83333 11.5009 1.83333C16.5554 1.83333 20.6676 5.9455 20.6676 11C20.6676 16.0545 16.5554 20.1667 11.5009 20.1667C9.1515 20.1667 6.91667 19.2784 5.20983 17.666C4.84225 17.3204 4.262 17.336 3.91367 17.7036C3.56625 18.0712 3.58275 18.6514 3.95125 18.9998C6 20.9339 8.68125 21.9991 11.5009 21.9991C17.5665 21.9991 22.5009 17.0647 22.5009 10.9991C22.5009 4.9335 17.5656 0 11.5 0ZM16.7488 8.21517C16.8332 8.23808 16.9175 8.25 17.0009 8.25C17.3997 8.25 17.7663 7.98783 17.8818 7.5845C18.0212 7.09775 17.7388 6.59083 17.2521 6.4515C16.3675 6.19942 15.4398 5.58892 14.9971 4.96742C14.7038 4.55675 14.1308 4.45867 13.7183 4.75475C13.3068 5.04808 13.2105 5.621 13.5048 6.0335C14.1886 6.99142 15.4618 7.84758 16.7498 8.21608L16.7488 8.21517ZM8.00383 4.96742C7.56017 5.58892 6.6325 6.19942 5.74883 6.4515C5.26208 6.59083 4.97975 7.09775 5.11908 7.5845C5.23367 7.98692 5.60125 8.25 6 8.25C6.08342 8.25 6.16775 8.23808 6.25208 8.21517C7.53908 7.84758 8.81233 6.9905 9.49708 6.03258C9.79133 5.621 9.69508 5.04808 9.2835 4.75383C8.871 4.45958 8.299 4.55492 8.00475 4.9665L8.00383 4.96742ZM8.29167 10.0833C7.53267 10.0833 6.91667 10.6993 6.91667 11.4583C6.91667 12.2173 7.53267 12.8333 8.29167 12.8333C9.05067 12.8333 9.66667 12.2173 9.66667 11.4583C9.66667 10.6993 9.05067 10.0833 8.29167 10.0833ZM14.7083 12.8333C15.4673 12.8333 16.0833 12.2173 16.0833 11.4583C16.0833 10.6993 15.4673 10.0833 14.7083 10.0833C13.9493 10.0833 13.3333 10.6993 13.3333 11.4583C13.3333 12.2173 13.9493 12.8333 14.7083 12.8333ZM5.08333 13.2917C5.08333 12.0056 3.998 10.2007 3.3215 9.40958C3.04375 9.08417 2.54325 9.086 2.26642 9.41325C1.58992 10.2144 0.5 12.0358 0.5 13.2917C0.5 14.5576 1.52575 15.5833 2.79167 15.5833C4.05758 15.5833 5.08333 14.5576 5.08333 13.2917Z" fill="black"/>
</g>
<defs>
<clipPath id="clip0_40000499_6311">
<rect width="22" height="22" fill="white" transform="translate(0.5)"/>
</clipPath>
</defs>
</svg>
