<svg xmlns="http://www.w3.org/2000/svg" width="33" height="32" viewBox="0 0 33 32" fill="none">
	<rect x="0.5" width="32" height="32" rx="16" fill="#03963F" fillOpacity="0.1" />
	<path d="M15.5 17H10.5C10.2167 17 9.97917 16.9042 9.7875 16.7125C9.59583 16.5208 9.5 16.2833 9.5 16C9.5 15.7167 9.59583 15.4792 9.7875 15.2875C9.97917 15.0958 10.2167 15 10.5 15H15.5V10C15.5 9.71667 15.5958 9.47917 15.7875 9.2875C15.9792 9.09583 16.2167 9 16.5 9C16.7833 9 17.0208 9.09583 17.2125 9.2875C17.4042 9.47917 17.5 9.71667 17.5 10V15H22.5C22.7833 15 23.0208 15.0958 23.2125 15.2875C23.4042 15.4792 23.5 15.7167 23.5 16C23.5 16.2833 23.4042 16.5208 23.2125 16.7125C23.0208 16.9042 22.7833 17 22.5 17H17.5V22C17.5 22.2833 17.4042 22.5208 17.2125 22.7125C17.0208 22.9042 16.7833 23 16.5 23C16.2167 23 15.9792 22.9042 15.7875 22.7125C15.5958 22.5208 15.5 22.2833 15.5 22V17Z" fill="#03963F" />
</svg>
