<svg xmlns="http://www.w3.org/2000/svg" width="27" height="26" viewBox="0 0 27 26" fill="none">
	<g clip-path="url(#clip0_40000918_6759)">
		<path d="M22.0315 8.80979C22.0345 7.42831 21.7021 6.06675 21.0627 4.84209C20.4234 3.61744 19.4963 2.56632 18.3611 1.77904C17.2259 0.991766 15.9165 0.491877 14.5455 0.322326C13.1744 0.152775 11.7827 0.318633 10.4899 0.805648C9.19713 1.29266 8.0419 2.08627 7.1235 3.11829C6.20511 4.15031 5.551 5.38987 5.21739 6.73047C4.88378 8.07107 4.88064 9.47263 5.20825 10.8147C5.53585 12.1568 6.18439 13.3993 7.09816 14.4354V23.2098C7.09815 23.7121 7.24003 24.2043 7.50747 24.6295C7.77491 25.0547 8.15702 25.3958 8.6098 25.6134C9.06257 25.831 9.5676 25.9162 10.0667 25.8594C10.5658 25.8025 11.0387 25.6058 11.431 25.2919L13.1654 23.9053C13.2599 23.8298 13.3772 23.7887 13.4982 23.7887C13.6191 23.7887 13.7365 23.8298 13.831 23.9053L15.5654 25.2919C15.9576 25.6058 16.4305 25.8025 16.9296 25.8594C17.4287 25.9162 17.9337 25.831 18.3865 25.6134C18.8393 25.3958 19.2214 25.0547 19.4888 24.6295C19.7563 24.2043 19.8982 23.7121 19.8982 23.2098V14.4354C21.2723 12.8836 22.0312 10.8826 22.0315 8.80979ZM13.4982 2.40979C14.764 2.40979 16.0013 2.78515 17.0538 3.48839C18.1063 4.19163 18.9266 5.19117 19.411 6.36062C19.8954 7.53007 20.0221 8.81689 19.7752 10.0584C19.5282 11.2998 18.9187 12.4402 18.0236 13.3353C17.1286 14.2303 15.9882 14.8399 14.7467 15.0868C13.5053 15.3338 12.2184 15.207 11.049 14.7226C9.87954 14.2382 8.87999 13.4179 8.17675 12.3654C7.47351 11.313 7.09816 10.0756 7.09816 8.80979C7.09985 7.11293 7.77468 5.48605 8.97455 4.28618C10.1744 3.08632 11.8013 2.41149 13.4982 2.40979ZM17.463 23.6877C17.3727 23.7324 17.2715 23.7501 17.1714 23.7388C17.0713 23.7274 16.9766 23.6875 16.8987 23.6237L15.1643 22.237C14.6922 21.8567 14.1043 21.6494 13.4982 21.6494C12.892 21.6494 12.3041 21.8567 11.832 22.237L10.0987 23.6237C10.0204 23.6865 9.92602 23.726 9.82632 23.7375C9.72662 23.7491 9.62569 23.7323 9.53511 23.6891C9.44453 23.6459 9.36799 23.5779 9.31428 23.4932C9.26057 23.4084 9.23187 23.3102 9.23149 23.2098V16.189C10.5264 16.9448 11.9988 17.3431 13.4982 17.3431C14.9975 17.3431 16.4699 16.9448 17.7648 16.189V23.2098C17.766 23.3101 17.7381 23.4086 17.6846 23.4934C17.631 23.5782 17.554 23.6457 17.463 23.6877Z" fill="black" />
	</g>
	<defs>
		<clipPath id="clip0_40000918_6759">
			<rect width="25.6" height="25.6" fill="white" transform="translate(0.699219 0.273438)" />
		</clipPath>
	</defs>
</svg>
