<svg xmlns="http://www.w3.org/2000/svg" width="21" height="21" viewBox="0 0 21 21" fill="none">
	<mask id="mask0_40000918_6729" style="mask-type:alpha" maskUnits="userSpaceOnUse" x="0" y="0" width="21" height="21">
		<rect x="0.5" y="0.0742188" width="20" height="20" fill="#D9D9D9" />
	</mask>
	<g mask="url(#mask0_40000918_6729)">
		<path d="M10.5 18.0742C9.40278 18.0742 8.36806 17.8659 7.39583 17.4492C6.42361 17.0326 5.57292 16.4596 4.84375 15.7305C4.11458 15.0013 3.54167 14.1506 3.125 13.1784C2.70833 12.2062 2.5 11.1714 2.5 10.0742C2.5 8.96311 2.70833 7.92491 3.125 6.95964C3.54167 5.99436 4.11458 5.14714 4.84375 4.41797C5.57292 3.6888 6.42361 3.11589 7.39583 2.69922C8.36806 2.28255 9.40278 2.07422 10.5 2.07422C11.6111 2.07422 12.6528 2.27908 13.625 2.6888C14.5972 3.09852 15.4444 3.67144 16.1667 4.40755C16.9028 5.12977 17.4757 5.977 17.8854 6.94922C18.2951 7.92144 18.5 8.96311 18.5 10.0742C18.5 10.2687 18.4931 10.4596 18.4792 10.6471C18.4653 10.8346 18.4444 11.0256 18.4167 11.2201C18.3889 11.4284 18.2847 11.5881 18.1042 11.6992C17.9236 11.8103 17.7361 11.8381 17.5417 11.7826C17.3472 11.727 17.1944 11.6089 17.0833 11.4284C16.9722 11.2478 16.9306 11.0534 16.9583 10.8451C16.9861 10.7201 17 10.5951 17 10.4701V10.0742C17 9.17144 16.8333 8.32422 16.5 7.53255C16.1667 6.74089 15.7014 6.05339 15.1042 5.47005C14.5208 4.87283 13.8333 4.40755 13.0417 4.07422C12.25 3.74089 11.4028 3.57422 10.5 3.57422C8.69444 3.57422 7.15972 4.20616 5.89583 5.47005C4.63194 6.73394 4 8.26866 4 10.0742C4 11.8798 4.63194 13.4145 5.89583 14.6784C7.15972 15.9423 8.69444 16.5742 10.5 16.5742C11.0833 16.5742 11.6528 16.5048 12.2083 16.3659C12.7639 16.227 13.3056 15.9978 13.8333 15.6784C14.0139 15.5673 14.2049 15.5291 14.4062 15.5638C14.6076 15.5985 14.7708 15.6992 14.8958 15.8659C15.0208 16.0326 15.066 16.2166 15.0312 16.418C14.9965 16.6194 14.8889 16.7756 14.7083 16.8867C14.0417 17.2895 13.3611 17.5881 12.6667 17.7826C11.9722 17.977 11.25 18.0742 10.5 18.0742ZM16.5 15.0742C16.2222 15.0742 15.9861 14.977 15.7917 14.7826C15.5972 14.5881 15.5 14.352 15.5 14.0742C15.5 13.7964 15.5972 13.5603 15.7917 13.3659C15.9861 13.1714 16.2222 13.0742 16.5 13.0742C16.7778 13.0742 17.0139 13.1714 17.2083 13.3659C17.4028 13.5603 17.5 13.7964 17.5 14.0742C17.5 14.352 17.4028 14.5881 17.2083 14.7826C17.0139 14.977 16.7778 15.0742 16.5 15.0742ZM11.25 9.44922L13.8333 12.0326C13.9861 12.1853 14.059 12.3624 14.0521 12.5638C14.0451 12.7652 13.9653 12.9423 13.8125 13.0951C13.6597 13.2478 13.4826 13.3242 13.2812 13.3242C13.0799 13.3242 12.9028 13.2478 12.75 13.0951L9.97917 10.3034C9.90972 10.2339 9.85417 10.1541 9.8125 10.0638C9.77083 9.97352 9.75 9.87283 9.75 9.76172V5.82422C9.75 5.61589 9.82292 5.4388 9.96875 5.29297C10.1146 5.14714 10.2917 5.07422 10.5 5.07422C10.7083 5.07422 10.8854 5.14714 11.0312 5.29297C11.1771 5.4388 11.25 5.61589 11.25 5.82422V9.44922Z" fill="#1C1B1F" />
	</g>
</svg>
