<svg xmlns="http://www.w3.org/2000/svg" width="33" height="32" viewBox="0 0 33 32" fill="none">
	<rect x="0.5" width="32" height="32" rx="15" fill="#03963F" fillOpacity="0.1" />
	<path d="M11 21.5H12.0625L19.875 13.6875L18.8125 12.625L11 20.4375V21.5ZM10.2537 23C10.0429 23 9.86458 22.9285 9.71875 22.7854C9.57292 22.6425 9.5 22.4653 9.5 22.2537V20.4444C9.5 20.2453 9.53472 20.0556 9.60417 19.875C9.67361 19.6944 9.78472 19.5278 9.9375 19.375L19.875 9.4375C20.0278 9.28472 20.1933 9.17361 20.3717 9.10417C20.5499 9.03472 20.7374 9 20.9342 9C21.1308 9 21.3194 9.03472 21.5 9.10417C21.6806 9.17361 21.8472 9.28472 22 9.4375L23.0625 10.5C23.2153 10.6528 23.3264 10.8194 23.3958 11C23.4653 11.1806 23.5 11.3649 23.5 11.5529C23.5 11.7536 23.4651 11.9449 23.3954 12.1267C23.3257 12.3085 23.2147 12.4746 23.0625 12.625L13.125 22.5625C12.9722 22.7153 12.8059 22.8264 12.626 22.8958C12.4462 22.9653 12.257 23 12.0585 23H10.2537ZM19.3344 13.1656L18.8125 12.625L19.875 13.6875L19.3344 13.1656Z" fill="#03963F" />
</svg>
