<svg xmlns="http://www.w3.org/2000/svg" width="24" height="24" viewBox="0 0 24 24" fill="none">
	<mask id="mask0_40004282_6941" style="mask-type:alpha" maskUnits="userSpaceOnUse" x="0" y="0" width="24" height="24">
		<rect width="24" height="24" fill="#D9D9D9" />
	</mask>
	<g mask="url(#mask0_40004282_6941)">
		<path d="M18.6911 20.5H10.7104C10.4979 20.5 10.3198 20.4281 10.1761 20.2843C10.0323 20.1404 9.96038 19.9622 9.96038 19.7498C9.96038 19.5371 10.0323 19.359 10.1761 19.2155C10.3198 19.0718 10.4979 19 10.7104 19H18.6911C18.7681 19 18.8386 18.9679 18.9026 18.9038C18.9668 18.8398 18.9989 18.7692 18.9989 18.6923V5.30775C18.9989 5.23075 18.9668 5.16025 18.9026 5.09625C18.8386 5.03208 18.7681 5 18.6911 5H5.30663C5.22963 5 5.15913 5.03208 5.09513 5.09625C5.03096 5.16025 4.99888 5.23075 4.99888 5.30775V8.4615C4.99888 8.674 4.92696 8.85217 4.78313 8.996C4.63929 9.13967 4.46113 9.2115 4.24863 9.2115C4.03596 9.2115 3.85787 9.13967 3.71438 8.996C3.57071 8.85217 3.49888 8.674 3.49888 8.4615V5.30775C3.49888 4.80258 3.67388 4.375 4.02388 4.025C4.37388 3.675 4.80146 3.5 5.30663 3.5H18.6911C19.1963 3.5 19.6239 3.675 19.9739 4.025C20.3239 4.375 20.4989 4.80258 20.4989 5.30775V18.6923C20.4989 19.1974 20.3239 19.625 19.9739 19.975C19.6239 20.325 19.1963 20.5 18.6911 20.5ZM6.92188 21.5C5.67454 21.5 4.61271 21.0628 3.73638 20.1883C2.86004 19.3139 2.42188 18.2543 2.42188 17.0095C2.42188 16.082 2.67254 15.2521 3.17388 14.5198C3.67521 13.7874 4.32588 13.2488 5.12588 12.9038H3.24888C3.03638 12.9038 2.85829 12.8318 2.71463 12.688C2.57079 12.5443 2.49888 12.3662 2.49888 12.1535C2.49888 11.941 2.57079 11.7629 2.71463 11.6193C2.85829 11.4758 3.03638 11.404 3.24888 11.404H6.86413C7.12029 11.404 7.33496 11.4906 7.50813 11.6637C7.68146 11.8369 7.76813 12.0516 7.76813 12.3077V15.923C7.76813 16.1355 7.69621 16.3137 7.55238 16.4575C7.40854 16.6012 7.23038 16.673 7.01788 16.673C6.80521 16.673 6.62713 16.6012 6.48363 16.4575C6.33996 16.3137 6.26813 16.1355 6.26813 15.923V14.075C5.58729 14.2207 5.02604 14.5667 4.58438 15.1132C4.14271 15.6597 3.92188 16.2883 3.92188 16.9988C3.92188 17.8368 4.21521 18.5465 4.80188 19.128C5.38838 19.7093 6.09504 20 6.92188 20C7.13438 20 7.31254 20.0719 7.45638 20.2157C7.60004 20.3596 7.67188 20.5378 7.67188 20.7502C7.67188 20.9629 7.60004 21.141 7.45638 21.2845C7.31254 21.4282 7.13438 21.5 6.92188 21.5ZM10.7104 16.75H12.9989C13.2114 16.75 13.3895 16.6781 13.5331 16.5343C13.677 16.3904 13.7489 16.2122 13.7489 15.9998C13.7489 15.7871 13.677 15.609 13.5331 15.4655C13.3895 15.3218 13.2114 15.25 12.9989 15.25H10.7104C10.4979 15.25 10.3198 15.3219 10.1761 15.4658C10.0323 15.6096 9.96038 15.7878 9.96038 16.0003C9.96038 16.2129 10.0323 16.391 10.1761 16.5345C10.3198 16.6782 10.4979 16.75 10.7104 16.75ZM10.7104 12.75H15.9989C16.2114 12.75 16.3895 12.6781 16.5331 12.5343C16.677 12.3904 16.7489 12.2122 16.7489 11.9998C16.7489 11.7871 16.677 11.609 16.5331 11.4655C16.3895 11.3218 16.2114 11.25 15.9989 11.25H10.7104C10.4979 11.25 10.3198 11.3219 10.1761 11.4658C10.0323 11.6096 9.96038 11.7878 9.96038 12.0003C9.96038 12.2129 10.0323 12.391 10.1761 12.5345C10.3198 12.6782 10.4979 12.75 10.7104 12.75ZM7.99888 8.75H15.9989C16.2114 8.75 16.3895 8.67808 16.5331 8.53425C16.677 8.39042 16.7489 8.21225 16.7489 7.99975C16.7489 7.78708 16.677 7.609 16.5331 7.4655C16.3895 7.32183 16.2114 7.25 15.9989 7.25H7.99888C7.78638 7.25 7.60829 7.32192 7.46463 7.46575C7.32079 7.60958 7.24888 7.78775 7.24888 8.00025C7.24888 8.21292 7.32079 8.391 7.46463 8.5345C7.60829 8.67817 7.78638 8.75 7.99888 8.75Z" fill="#1C1B1F" />
	</g>
</svg>
