<svg xmlns="http://www.w3.org/2000/svg" width="24" height="24" viewBox="0 0 24 24" fill="none">
	<mask id="mask0_40004282_6935" style="mask-type:alpha" maskUnits="userSpaceOnUse" x="0" y="0" width="24" height="24">
		<rect width="24" height="24" fill="#D9D9D9" />
	</mask>
	<g mask="url(#mask0_40004282_6935)">
		<path d="M4.5 18.4029V17.0837C4.5 16.594 4.633 16.1405 4.899 15.7232C5.165 15.3058 5.5205 14.985 5.9655 14.7607C6.95383 14.2762 7.95092 13.9127 8.95675 13.6704C9.96258 13.4281 10.977 13.3069 12 13.3069C12.5333 13.3069 13.0632 13.3396 13.5895 13.4049C14.1157 13.4702 14.6435 13.5702 15.173 13.7049L13.9212 14.9722C13.5927 14.925 13.2725 14.8857 12.9605 14.8542C12.6485 14.8227 12.3283 14.8069 12 14.8069C11.0883 14.8069 10.1848 14.9162 9.28925 15.1347C8.39392 15.3533 7.51542 15.6748 6.65375 16.0992C6.45258 16.2082 6.29333 16.3488 6.176 16.5212C6.05867 16.6937 6 16.8812 6 17.0837V17.8069H11.923V19.3069H5.404C5.14783 19.3069 4.93317 19.2202 4.76 19.0469C4.58667 18.8737 4.5 18.6591 4.5 18.4029ZM14.1155 19.5952V18.6049C14.1155 18.3611 14.1648 18.1287 14.2635 17.9077C14.3622 17.6867 14.4936 17.4941 14.6578 17.3299L19.5443 12.4529C19.6686 12.3286 19.8028 12.2411 19.947 12.1904C20.0912 12.1399 20.2353 12.1147 20.3795 12.1147C20.5367 12.1147 20.6888 12.1441 20.8358 12.2029C20.9827 12.2619 21.1163 12.3504 21.2365 12.4684L22.1615 13.4029C22.2692 13.5274 22.3525 13.6621 22.4115 13.8069C22.4705 13.9517 22.5 14.0966 22.5 14.2414C22.5 14.3862 22.4731 14.5337 22.4193 14.6837C22.3654 14.8337 22.2795 14.9708 22.1615 15.0952L17.2845 19.9722C17.1205 20.1363 16.928 20.2652 16.707 20.3587C16.486 20.4523 16.2535 20.4992 16.0095 20.4992H15.0193C14.7631 20.4992 14.5484 20.4125 14.3753 20.2392C14.2021 20.066 14.1155 19.8513 14.1155 19.5952ZM15.3077 19.3069H16.2578L19.5038 16.0452L19.0443 15.5702L18.5788 15.1012L15.3077 18.3569V19.3069ZM19.0443 15.5702L18.5788 15.1012L19.5038 16.0452L19.0443 15.5702ZM12 11.6914C11.0375 11.6914 10.2136 11.3487 9.52825 10.6634C8.84275 9.97791 8.5 9.15391 8.5 8.19141C8.5 7.22891 8.84275 6.40499 9.52825 5.71966C10.2136 5.03416 11.0375 4.69141 12 4.69141C12.9625 4.69141 13.7864 5.03416 14.4718 5.71966C15.1573 6.40499 15.5 7.22891 15.5 8.19141C15.5 9.15391 15.1573 9.97791 14.4718 10.6634C13.7864 11.3487 12.9625 11.6914 12 11.6914ZM12 10.1914C12.55 10.1914 13.0208 9.99557 13.4125 9.60391C13.8042 9.21224 14 8.74141 14 8.19141C14 7.64141 13.8042 7.17057 13.4125 6.77891C13.0208 6.38724 12.55 6.19141 12 6.19141C11.45 6.19141 10.9792 6.38724 10.5875 6.77891C10.1958 7.17057 10 7.64141 10 8.19141C10 8.74141 10.1958 9.21224 10.5875 9.60391C10.9792 9.99557 11.45 10.1914 12 10.1914Z" fill="#1C1B1F" />
	</g>
</svg>
