<svg width="287" height="181" viewBox="0 0 287 181" fill="none" xmlns="http://www.w3.org/2000/svg">
<rect width="286" height="181" transform="translate(0.5)" fill="white"/>
<g clip-path="url(#clip0_40004741_6878)">
<rect width="286" height="181" transform="translate(0.5)" fill="white"/>
<rect x="0.5" width="286" height="181" fill="#03963F" fill-opacity="0.05"/>
<rect width="98.56" height="7.04" rx="3.52" transform="matrix(1 0 0 -1 23.8203 21.4766)" fill="#03963F" fill-opacity="0.1"/>
<rect x="23.8203" y="24.9961" width="98.56" height="27.28" rx="3.52" fill="#03963F" fill-opacity="0.1"/>
<rect x="23.8203" y="55.7969" width="98.56" height="111.76" rx="3.52" fill="#03963F" fill-opacity="0.1"/>
<rect width="80" height="6" rx="3" transform="matrix(1 0 0 -1 30 68.8281)" fill="#03963F" fill-opacity="0.2"/>
<rect width="38" height="6" rx="3" transform="matrix(1 0 0 -1 30 84.8281)" fill="#03963F" fill-opacity="0.1"/>
<rect width="85" height="6" rx="3" transform="matrix(1 0 0 -1 30 129.828)" fill="#03963F" fill-opacity="0.1"/>
<rect width="38" height="6" rx="3" transform="matrix(1 0 0 -1 30 94.8281)" fill="#03963F" fill-opacity="0.1"/>
<rect width="85" height="6" rx="3" transform="matrix(1 0 0 -1 30 139.828)" fill="#03963F" fill-opacity="0.1"/>
<rect width="38" height="6" rx="3" transform="matrix(1 0 0 -1 30 104.828)" fill="#03963F" fill-opacity="0.1"/>
<rect width="85" height="6" rx="3" transform="matrix(1 0 0 -1 30 149.828)" fill="#03963F" fill-opacity="0.1"/>
<rect width="38" height="6" rx="3" transform="matrix(1 0 0 -1 30 114.828)" fill="#03963F" fill-opacity="0.1"/>
<rect width="85" height="6" rx="3" transform="matrix(1 0 0 -1 30 159.828)" fill="#03963F" fill-opacity="0.1"/>
<rect x="127.66" y="14.4375" width="135.52" height="87.12" rx="3.52" fill="#03963F" fill-opacity="0.1"/>
<rect x="127.66" y="107.719" width="135.52" height="59.84" rx="3.52" fill="#03963F" fill-opacity="0.1"/>
<g style="mix-blend-mode:luminosity" opacity="0.5" clip-path="url(#clip1_40004741_6878)">
<path d="M177.781 87.3984C169.209 90.3329 155.113 114.409 155.113 114.409C155.113 114.409 160.071 124.818 171.196 128.632L176.599 119.494L177.781 87.3984Z" fill="#6C85BD"/>
<path d="M217 85.3541L203.417 82.3281L190.599 82.7747L177.783 87.4031L166.113 183.561C179.767 190.727 232.079 186.239 233.261 183.666L217 85.3541Z" fill="#6C85BD"/>
<path d="M176.203 93.0595C175.792 97.1337 175.381 101.207 174.969 105.281C174.558 109.355 174.147 113.429 173.735 117.503C173.504 119.797 173.273 122.092 173.04 124.385C173.01 124.687 173.475 124.8 173.506 124.495L174.74 112.273C175.15 108.199 175.561 104.125 175.973 100.051C176.205 97.7574 176.436 95.4626 176.668 93.1688C176.698 92.8663 176.233 92.7544 176.203 93.0595Z" fill="#384259"/>
<path d="M196.522 91.3278C196.021 102.462 195.521 113.595 195.02 124.728C194.522 135.805 194.024 146.881 193.526 157.958C193.246 164.207 192.964 170.456 192.684 176.703C192.67 177.011 193.148 177.01 193.162 176.703C193.662 165.569 194.163 154.437 194.663 143.303L196.157 110.073C196.438 103.824 196.719 97.5756 197 91.327C197.013 91.0211 196.536 91.0211 196.522 91.3278Z" fill="#384259"/>
<path d="M198.68 100.512C197.758 100.512 197.757 101.945 198.68 101.945C199.602 101.945 199.604 100.512 198.68 100.512Z" fill="#384259"/>
<path d="M216.999 85.3555C229.413 88.0552 239.216 130.167 240.465 134.642C242.259 141.065 241.608 152.447 230.632 154.276C222.138 155.692 175.509 160.374 175.509 160.374L174.227 147.395L223.559 140.007L213.193 110.617L216.999 85.3555Z" fill="#8C583C"/>
<path d="M216.992 85.3555C231.784 89.3051 241.223 127.324 241.223 127.324C241.223 127.324 233.919 133.422 219.406 135.495L212.414 110.425L216.992 85.3555Z" fill="#6C85BD"/>
<path d="M210.635 63.7128C213.396 63.4281 215.96 61.6545 217.2 59.17C218.439 56.6855 218.316 53.5714 216.883 51.1928C219.789 49.6819 221.622 46.3237 221.32 43.0621C221.019 39.8006 218.6 36.8356 215.467 35.884C215.806 32.8173 214.291 29.6184 211.704 27.9372C209.117 26.256 205.579 26.1713 202.914 27.7271C201.358 25.0561 198.43 23.2359 195.346 23.0216C192.262 22.8072 189.11 24.2045 187.199 26.6348C185.506 25.0265 182.823 24.5638 180.688 25.5103C178.555 26.4577 177.098 28.7583 177.155 31.092C175.059 31.3844 173.191 32.941 172.524 34.9502C171.858 36.9584 172.425 39.3235 173.93 40.8115C171.928 42.0334 170.645 44.351 170.672 46.6957C170.699 49.0404 172.035 51.3275 174.064 52.5037C174.158 56.7126 176.259 60.8326 179.61 63.3798C182.962 65.9271 187.495 66.8482 191.575 65.811C191.664 65.7881 193.059 67.3701 193.25 67.5311C193.877 68.0616 194.557 68.5302 195.273 68.9327C196.724 69.7487 198.328 70.2953 199.976 70.5334C202.819 70.9436 206.456 70.4741 208.624 68.42C209.896 67.2125 210.72 65.4873 210.635 63.7128Z" fill="#381A08"/>
<path d="M208.413 62.7535C208.413 62.7535 203.634 72.4849 203.403 85.5006C200.644 91.3789 192.684 90.4273 190.768 85.121C190.912 80.1731 190.063 77.8454 188.504 76.1286C188.374 75.9845 188.245 75.8583 188.11 75.7202C188.018 75.6227 187.927 75.5363 187.822 75.4448C187.638 75.2727 187.426 75.1134 187.224 74.9363C186.938 74.7084 186.639 74.4813 186.328 74.2483H186.322C185.099 73.3339 183.667 72.3662 182.075 70.9299C179.757 68.853 178.036 66.0083 177.378 61.574C177.365 61.5206 177.357 61.468 177.35 61.4087C177.335 61.3443 177.328 61.2791 177.319 61.2138C177.303 61.0952 177.294 60.9893 177.284 60.8766C177.271 60.8232 177.269 60.7766 177.261 60.7291C176.772 56.3897 177.209 50.6012 178.954 42.6206C180.768 34.3467 200.953 31.3834 206.357 42.0274C208.581 46.4228 208.413 62.7535 208.413 62.7535Z" fill="#FFF8F8"/>
<path d="M178.34 43.0899C180.552 44.4669 183.568 44.4178 185.734 42.9696C188.318 45.066 192.156 45.4677 195.118 43.9526C195.217 45.3109 195.969 46.6074 197.099 47.3675C198.23 48.1276 199.713 48.3352 201.009 47.9149C200.791 49.3462 200.575 50.8282 200.955 52.2256C201.334 53.6229 202.476 54.9219 203.921 55.0058C203.388 56.5887 203.715 58.4335 204.76 59.7359C205.806 61.0383 207.537 61.7561 209.198 61.5764C210.446 56.2955 210.828 50.6655 209.135 45.5101C207.697 41.135 204.687 37.2557 200.692 34.9661C196.697 32.6756 191.736 32.0477 187.359 33.4772C182.982 34.9059 179.768 38.7124 178.34 43.0899Z" fill="#381A08"/>
<path d="M193.829 57.6182C193.854 58.3859 193.253 59.0291 192.485 59.0553C191.717 59.0807 191.074 58.4791 191.048 57.7114C191.022 56.9437 191.624 56.3005 192.392 56.2742C193.159 56.2488 193.803 56.8504 193.829 57.6182Z" fill="black"/>
<path d="M192.342 57.2238C192.349 57.4475 192.174 57.6347 191.95 57.6424C191.726 57.65 191.539 57.4746 191.531 57.2509C191.524 57.0272 191.699 56.8399 191.923 56.8323C192.147 56.8246 192.334 57.0001 192.342 57.2238Z" fill="white"/>
<path d="M183.68 57.3252C183.706 58.0929 183.104 58.7361 182.336 58.7624C181.569 58.7878 180.925 58.1861 180.899 57.4184C180.874 56.6507 181.475 56.0075 182.243 55.9812C183.012 55.9558 183.655 56.5575 183.68 57.3252Z" fill="black"/>
<path d="M182.193 56.9308C182.201 57.1545 182.025 57.3418 181.802 57.3494C181.578 57.357 181.391 57.1816 181.383 56.9579C181.375 56.7342 181.551 56.5469 181.775 56.5393C181.998 56.5317 182.186 56.7071 182.193 56.9308Z" fill="white"/>
<path d="M186.826 59.3662C186.535 59.2179 186.227 59.1289 185.9 59.1094C185.61 59.0916 185.289 59.1298 185.048 59.3052C184.789 59.4933 184.658 59.7848 184.633 60.0983C184.608 60.3983 184.706 60.694 184.817 60.9686C184.877 61.116 185.018 61.2389 185.189 61.1864C185.33 61.1423 185.471 60.9728 185.407 60.8144C185.326 60.6144 185.237 60.3966 185.239 60.1771C185.241 60.0644 185.27 59.95 185.337 59.8594C185.333 59.8653 185.329 59.8712 185.326 59.8763C185.388 59.7797 185.506 59.7441 185.613 59.7255C185.622 59.7238 185.63 59.7229 185.642 59.7212C185.665 59.7212 185.688 59.7179 185.711 59.717C185.772 59.7145 185.833 59.7153 185.893 59.7196C185.924 59.7212 185.955 59.7246 185.985 59.7272C186.001 59.7289 186.003 59.7289 186.008 59.7289C186.013 59.7297 186.013 59.7306 186.027 59.7331C186.217 59.7678 186.378 59.845 186.557 59.9085C186.692 59.9568 186.858 59.917 186.929 59.7856C187.005 59.6475 186.977 59.4442 186.826 59.3662Z" fill="#6E4129"/>
<path d="M180.097 51.7139C181.696 50.8487 183.636 50.7665 185.268 51.6114C185.667 51.8181 185.888 52.3478 185.662 52.7621C185.368 53.3002 184.843 53.2994 184.35 53.0765C183.91 52.8774 183.436 52.7554 182.954 52.7164C182.956 52.6901 182.997 52.7359 182.97 52.7342C182.353 52.7003 181.744 52.8257 181.181 53.0782C181.148 53.0935 181.115 53.1087 181.062 53.1341C180.668 53.3426 180.138 53.329 179.876 52.9096C179.65 52.5503 179.674 51.9419 180.097 51.7139Z" fill="black"/>
<path d="M190.463 51.7819C192.157 51.1218 194.093 51.2803 195.607 52.32C195.977 52.5742 196.132 53.1276 195.856 53.5106C195.589 53.8818 195.062 54.0326 194.666 53.7597C194.513 53.6547 194.355 53.5648 194.194 53.4733C194.178 53.4648 194.182 53.4665 194.172 53.4615C194.143 53.4479 194.113 53.4352 194.084 53.4225C194.021 53.3954 193.957 53.3699 193.893 53.3454C193.721 53.281 193.545 53.2267 193.367 53.1827C193.322 53.1717 193.035 53.0852 193.256 53.1556C193.182 53.1327 193.093 53.131 193.017 53.1217C192.845 53.1022 192.673 53.0911 192.501 53.0903C192.408 53.0895 192.317 53.0945 192.225 53.0971C192.215 53.0971 192.212 53.0971 192.205 53.0971C192.191 53.0988 192.173 53.1013 192.146 53.1047C191.975 53.1259 191.806 53.1564 191.638 53.1962C191.549 53.2174 191.46 53.242 191.372 53.2691C191.337 53.2801 191.302 53.2911 191.268 53.303C191.261 53.3055 191.264 53.3047 191.257 53.3072C191.254 53.3081 191.252 53.3081 191.249 53.3089C191.246 53.3098 191.244 53.3106 191.24 53.3115C191.244 53.3106 191.243 53.3106 191.246 53.3098C190.829 53.4682 190.306 53.3886 190.097 52.9403C189.917 52.5573 190.015 51.9565 190.463 51.7819Z" fill="black"/>
<path d="M191.033 63.8664C190.849 63.6596 190.566 63.6724 190.359 63.8266C189.191 64.6926 187.698 65.0282 186.268 64.8121C186.013 64.7731 185.777 65.0197 185.763 65.2604C185.746 65.5375 185.955 65.7264 186.211 65.7654C187.898 66.0205 189.628 65.5527 190.993 64.5409C191.201 64.3867 191.194 64.0469 191.033 63.8664Z" fill="#C16B5B"/>
<path d="M212.756 55.254C211.091 54.4117 209.057 54.5524 207.47 55.5141C205.774 56.5437 204.715 58.2995 204.517 60.2586C204.452 60.9009 205.112 61.4526 205.711 61.4526C206.411 61.4526 206.84 60.9026 206.905 60.2586C206.907 60.24 206.908 60.2273 206.909 60.2129C206.922 60.1383 206.936 60.0646 206.953 59.9909C206.984 59.8561 207.02 59.7231 207.063 59.5917C207.075 59.5562 207.147 59.3689 207.156 59.3367C207.223 59.1901 207.297 59.046 207.378 58.9071C207.627 58.4825 207.952 58.0978 208.338 57.8012C208.364 57.7834 208.462 57.7131 208.476 57.7038C208.541 57.6597 208.608 57.6173 208.675 57.5758C208.793 57.5038 208.917 57.4428 209.038 57.3767C209.051 57.3691 209.109 57.3428 209.135 57.3309C209.171 57.3174 209.207 57.303 209.243 57.2903C209.415 57.2292 209.59 57.1784 209.768 57.1394C210.273 57.0284 210.769 57.0632 211.352 57.236C211.461 57.2682 211.828 57.464 211.954 57.5572C211.975 57.5784 212.07 57.6614 212.082 57.6724C212.125 57.7139 212.168 57.7563 212.21 57.7995C212.253 57.8453 212.294 57.8936 212.335 57.9427C212.349 57.9656 212.406 58.0487 212.426 58.0792C212.501 58.1986 212.567 58.3215 212.631 58.4478C212.74 58.6664 212.671 58.5452 212.653 58.4961C212.681 58.5715 212.707 58.6486 212.73 58.7257C212.771 58.8613 212.803 58.9994 212.831 59.1392C212.834 59.157 212.835 59.1596 212.838 59.1689C212.849 59.274 212.856 59.3816 212.859 59.4867C212.862 59.629 212.856 59.7705 212.844 59.9121C212.844 59.9205 212.844 59.9197 212.844 59.9265C212.832 59.9968 212.817 60.0671 212.801 60.1375C212.764 60.2993 212.713 60.4569 212.66 60.6137C212.661 60.612 212.639 60.6637 212.626 60.6984C212.602 60.745 212.538 60.8781 212.528 60.895C212.236 61.4492 211.984 61.7449 211.478 62.1644C211.453 62.1847 211.404 62.2237 211.396 62.2288C211.311 62.289 211.224 62.3474 211.136 62.4025C210.967 62.5084 210.793 62.6008 210.616 62.6915C210.37 62.8177 209.986 62.9389 209.642 63.0228C208.911 63.2024 208.179 63.2245 207.355 63.1533C206.714 63.0982 206.164 63.738 206.161 64.3422C204.921 65.2861 203.247 65.5912 201.75 65.8522C201.042 65.9759 200.328 66.0573 199.613 66.1191C199.335 65.5666 198.768 65.1641 198.124 65.1768C197.169 65.1963 196.213 65.2158 195.258 65.2353C194.355 65.2539 193.586 65.9903 193.586 66.9072C193.586 67.7986 194.351 68.5977 195.258 68.5791C196.213 68.5596 197.169 68.5401 198.124 68.5206C198.78 68.507 199.361 68.1122 199.632 67.5478C200.542 67.4699 201.449 67.3597 202.35 67.1953C203.993 66.8953 205.693 66.4903 207.04 65.476C207.141 65.5073 207.247 65.5319 207.356 65.5412C209.201 65.7005 211.189 65.3302 212.704 64.2159C214.15 63.1507 215.171 61.5568 215.244 59.729C215.316 57.9504 214.375 56.0734 212.756 55.254Z" fill="#515D7C"/>
<path d="M212.802 63.2485C211.019 65.2492 208.285 65.7229 206.696 64.3077C205.108 62.8917 205.267 60.1217 207.051 58.121C208.835 56.1203 211.569 55.6458 213.157 57.0618C214.745 58.4777 214.586 61.2478 212.802 63.2485Z" fill="white"/>
<path d="M212.007 58.034C211.287 57.6247 210.31 57.6128 209.395 58.0051C208.939 58.2 208.605 58.4441 208.373 58.7508C208.067 59.1567 207.969 59.6762 208.119 60.105C208.253 60.4897 208.549 60.7464 208.811 60.9727C208.999 61.1362 209.178 61.2904 209.277 61.4718C209.427 61.7497 209.376 62.1319 209.155 62.3598C208.936 62.5869 208.556 62.6513 208.272 62.5098C208.106 62.4268 207.904 62.4946 207.821 62.6607C207.738 62.8267 207.805 63.0293 207.972 63.1123C208.154 63.203 208.353 63.2504 208.554 63.2564C208.954 63.2682 209.359 63.1182 209.639 62.8267C210.061 62.3887 210.157 61.6845 209.867 61.1498C209.711 60.8617 209.466 60.6498 209.25 60.4626C209.033 60.2753 208.829 60.0982 208.755 59.8821C208.679 59.666 208.74 59.3813 208.911 59.155C208.979 59.0644 209.072 58.983 209.173 58.9051C209.508 58.9118 209.922 59.0279 210.127 59.2652C210.356 59.533 210.458 59.9143 210.39 60.26C210.354 60.4422 210.473 60.6193 210.656 60.6549C210.674 60.6591 210.693 60.6608 210.711 60.6608C210.873 60.6659 211.019 60.5532 211.051 60.3888C211.159 59.838 211.005 59.2533 210.638 58.8263C210.502 58.6678 210.328 58.5576 210.145 58.467C210.706 58.3339 211.254 58.3805 211.674 58.6178C212.192 58.9118 212.568 59.6414 212.279 60.2185C212.196 60.3846 212.264 60.5871 212.43 60.6702C212.597 60.7532 212.797 60.6863 212.881 60.5193C213.301 59.6813 212.9 58.5424 212.007 58.034Z" fill="#6E4129"/>
<path d="M187.977 83.7458L190.502 80.4258L196.808 89.7012L192.002 94.1924L187.977 83.7458Z" fill="#384259"/>
<path d="M206.589 83.0391L203.742 80.4258L196.805 89.7012L201.501 94.1924L206.589 83.0391Z" fill="#384259"/>
</g>
<rect x="0.25" y="-0.25" width="57.5" height="14.5" rx="3.27" transform="matrix(1 0 0 -1 165.5 134.5)" stroke="#03963F" stroke-width="0.5"/>
<rect width="58" height="15" rx="3.52" transform="matrix(1 0 0 -1 165.5 153)" fill="#03963F" fill-opacity="0.2"/>
</g>
<defs>
<clipPath id="clip0_40004741_6878">
<rect width="286" height="181" fill="white" transform="translate(0.5)"/>
</clipPath>
<clipPath id="clip1_40004741_6878">
<rect width="120.421" height="78" fill="white" transform="translate(137.5 23)"/>
</clipPath>
</defs>
</svg>
