<svg xmlns="http://www.w3.org/2000/svg" width="23" height="22" viewBox="0 0 23 22" fill="none">
	<g clip-path="url(#clip0_40000365_1195)">
		<path d="M11.501 0C8.58455 0.00315432 5.78849 1.16309 3.72627 3.22531C1.66405 5.28753 0.504113 8.08359 0.500959 11C0.385459 19.7752 10.73 25.1432 17.826 19.9989C17.9279 19.9311 18.0153 19.8435 18.0828 19.7414C18.1504 19.6392 18.1968 19.5246 18.2193 19.4042C18.2418 19.2838 18.24 19.1601 18.2139 19.0405C18.1878 18.9208 18.138 18.8076 18.0675 18.7075C17.9969 18.6074 17.907 18.5225 17.803 18.4577C17.6991 18.3929 17.5832 18.3496 17.4623 18.3304C17.3413 18.3112 17.2178 18.3163 17.0988 18.3457C16.9799 18.375 16.8681 18.4278 16.77 18.5011C10.8593 22.7847 2.24263 18.3132 2.33429 11C2.83754 -1.1605 20.1662 -1.15775 20.6676 11V12.8333C20.6676 13.3196 20.4745 13.7859 20.1307 14.1297C19.7868 14.4735 19.3205 14.6667 18.8343 14.6667C18.3481 14.6667 17.8817 14.4735 17.5379 14.1297C17.1941 13.7859 17.001 13.3196 17.001 12.8333V11C16.77 3.73175 6.23104 3.73267 6.00096 11C6.01163 12.1147 6.35979 13.1999 6.99956 14.1128C7.63933 15.0256 8.54068 15.7232 9.58481 16.1135C10.6289 16.5039 11.7668 16.5687 12.8486 16.2995C13.9303 16.0302 14.905 15.4395 15.6443 14.6052C16.0419 15.3071 16.6599 15.8582 17.4025 16.1732C18.1451 16.4882 18.9709 16.5496 19.7519 16.3477C20.5329 16.1459 21.2255 15.6922 21.7225 15.0568C22.2195 14.4215 22.4931 13.6399 22.501 12.8333V11C22.4978 8.08359 21.3379 5.28753 19.2757 3.22531C17.2134 1.16309 14.4174 0.00315432 11.501 0ZM11.501 14.6667C10.5285 14.6667 9.59587 14.2804 8.90823 13.5927C8.2206 12.9051 7.83429 11.9725 7.83429 11C7.83429 10.0275 8.2206 9.09491 8.90823 8.40727C9.59587 7.71964 10.5285 7.33333 11.501 7.33333C12.4734 7.33333 13.4061 7.71964 14.0937 8.40727C14.7813 9.09491 15.1676 10.0275 15.1676 11C15.1676 11.9725 14.7813 12.9051 14.0937 13.5927C13.4061 14.2804 12.4734 14.6667 11.501 14.6667Z" fill="#0C0F12" />
	</g>
	<defs>
		<clipPath id="clip0_40000365_1195">
			<rect width="22" height="22" fill="white" transform="translate(0.5)" />
		</clipPath>
	</defs>
</svg>
