<svg width="82" height="66" viewBox="0 0 82 66" fill="none" xmlns="http://www.w3.org/2000/svg">
<rect x="1.15234" width="68.6985" height="46.9498" rx="2.87682" fill="#CDEAD9"/>
<mask id="path-2-inside-1_40003786_6405" fill="white">
<rect x="5.75391" y="4.94922" width="59.4927" height="37.1686" rx="2.87682"/>
</mask>
<rect x="5.75391" y="4.94922" width="59.4927" height="37.1686" rx="2.87682" fill="#CDEAD9" stroke="#BBDDC9" stroke-width="6.21394" mask="url(#path-2-inside-1_40003786_6405)"/>
<mask id="path-3-inside-2_40003786_6405" fill="white">
<rect x="5.75391" y="4.94922" width="59.4927" height="37.1686" rx="2.87682"/>
</mask>
<rect x="5.75391" y="4.94922" width="59.4927" height="37.1686" rx="2.87682" fill="#CDEAD9" stroke="#BBDDC9" stroke-width="6.21394" mask="url(#path-3-inside-2_40003786_6405)"/>
<path d="M4.94814 11.4498C5.80194 11.4498 6.64739 11.2816 7.4362 10.9549C8.22501 10.6281 8.94175 10.1492 9.54548 9.54548C10.1492 8.94175 10.6281 8.22501 10.9549 7.4362C11.2816 6.64739 11.4498 5.80194 11.4498 4.94814" stroke="#BBDDC9" stroke-width="3.10697"/>
<mask id="path-5-inside-3_40003786_6405" fill="white">
<path d="M9.89627 4.94814C9.89627 5.59793 9.76829 6.24137 9.51962 6.84171C9.27095 7.44204 8.90647 7.98752 8.447 8.447C7.98752 8.90647 7.44204 9.27095 6.84171 9.51962C6.24137 9.76829 5.59793 9.89627 4.94814 9.89627L4.94814 4.94814H9.89627Z"/>
</mask>
<path d="M9.89627 4.94814C9.89627 5.59793 9.76829 6.24137 9.51962 6.84171C9.27095 7.44204 8.90647 7.98752 8.447 8.447C7.98752 8.90647 7.44204 9.27095 6.84171 9.51962C6.24137 9.76829 5.59793 9.89627 4.94814 9.89627L4.94814 4.94814H9.89627Z" fill="#CDEAD9" stroke="#CDEAD9" stroke-width="6.21394" mask="url(#path-5-inside-3_40003786_6405)"/>
<path d="M4.94814 35.6166C5.80194 35.6166 6.64739 35.7848 7.4362 36.1116C8.22501 36.4383 8.94175 36.9172 9.54548 37.5209C10.1492 38.1247 10.6281 38.8414 10.9549 39.6302C11.2816 40.419 11.4498 41.2645 11.4498 42.1183" stroke="#BBDDC9" stroke-width="3.10697"/>
<mask id="path-7-inside-4_40003786_6405" fill="white">
<path d="M9.89627 42.1183C9.89627 41.4685 9.76829 40.825 9.51962 40.2247C9.27095 39.6244 8.90647 39.0789 8.447 38.6194C7.98752 38.1599 7.44204 37.7955 6.84171 37.5468C6.24137 37.2981 5.59793 37.1701 4.94814 37.1701L4.94814 42.1183H9.89627Z"/>
</mask>
<path d="M9.89627 42.1183C9.89627 41.4685 9.76829 40.825 9.51962 40.2247C9.27095 39.6244 8.90647 39.0789 8.447 38.6194C7.98752 38.1599 7.44204 37.7955 6.84171 37.5468C6.24137 37.2981 5.59793 37.1701 4.94814 37.1701L4.94814 42.1183H9.89627Z" fill="#CDEAD9" stroke="#CDEAD9" stroke-width="6.21394" mask="url(#path-7-inside-4_40003786_6405)"/>
<path d="M66.0519 11.4498C65.1981 11.4498 64.3526 11.2816 63.5638 10.9549C62.775 10.6281 62.0583 10.1492 61.4545 9.54548C60.8508 8.94175 60.3719 8.22501 60.0451 7.4362C59.7184 6.64739 59.5502 5.80194 59.5502 4.94814" stroke="#BBDDC9" stroke-width="3.10697"/>
<mask id="path-9-inside-5_40003786_6405" fill="white">
<path d="M61.1037 4.94814C61.1037 5.59793 61.2317 6.24137 61.4804 6.84171C61.729 7.44204 62.0935 7.98752 62.553 8.447C63.0125 8.90647 63.558 9.27095 64.1583 9.51962C64.7586 9.76829 65.4021 9.89627 66.0519 9.89627L66.0519 4.94814H61.1037Z"/>
</mask>
<path d="M61.1037 4.94814C61.1037 5.59793 61.2317 6.24137 61.4804 6.84171C61.729 7.44204 62.0935 7.98752 62.553 8.447C63.0125 8.90647 63.558 9.27095 64.1583 9.51962C64.7586 9.76829 65.4021 9.89627 66.0519 9.89627L66.0519 4.94814H61.1037Z" fill="#CDEAD9" stroke="#CDEAD9" stroke-width="6.21394" mask="url(#path-9-inside-5_40003786_6405)"/>
<path d="M66.0519 35.6166C65.1981 35.6166 64.3526 35.7848 63.5638 36.1116C62.775 36.4383 62.0583 36.9172 61.4545 37.5209C60.8508 38.1247 60.3719 38.8414 60.0451 39.6302C59.7184 40.419 59.5502 41.2645 59.5502 42.1183" stroke="#BBDDC9" stroke-width="3.10697"/>
<mask id="path-11-inside-6_40003786_6405" fill="white">
<path d="M61.1037 42.1183C61.1037 41.4685 61.2317 40.825 61.4804 40.2247C61.729 39.6244 62.0935 39.0789 62.553 38.6194C63.0125 38.1599 63.558 37.7955 64.1583 37.5468C64.7586 37.2981 65.4021 37.1701 66.0519 37.1701L66.0519 42.1183H61.1037Z"/>
</mask>
<path d="M61.1037 42.1183C61.1037 41.4685 61.2317 40.825 61.4804 40.2247C61.729 39.6244 62.0935 39.0789 62.553 38.6194C63.0125 38.1599 63.558 37.7955 64.1583 37.5468C64.7586 37.2981 65.4021 37.1701 66.0519 37.1701L66.0519 42.1183H61.1037Z" fill="#CDEAD9" stroke="#CDEAD9" stroke-width="6.21394" mask="url(#path-11-inside-6_40003786_6405)"/>
<rect x="4.20042" y="3.39573" width="62.5997" height="40.2755" rx="4.43031" stroke="#CDEAD9" stroke-width="3.10697"/>
<path d="M57.9949 47.1211C59.496 52.778 61.0076 56.3469 64.0938 62.9436L59.7785 61.6778L57.1318 65.4177C53.3285 58.9641 51.6332 55.0833 50.3425 47.1211H57.9949Z" fill="#BBDDC9"/>
<path d="M46.9504 47.1211C45.4493 52.778 43.9377 56.3469 40.8516 62.9436L45.1668 61.6778L47.8135 65.4177C51.6168 58.9641 53.3121 55.0833 54.6028 47.1211H46.9504Z" fill="#CDEAD9"/>
<g filter="url(#filter0_d_40003786_6405)">
<path d="M51.6432 28.7218C51.9401 28.538 52.3154 28.538 52.6122 28.7218L54.6426 29.9785C54.7963 30.0736 54.9746 30.1214 55.1553 30.1159L57.542 30.0427C57.891 30.032 58.216 30.2196 58.3812 30.5272L59.5112 32.6307C59.5967 32.79 59.7272 32.9205 59.8865 33.006L61.99 34.136C62.2976 34.3012 62.4852 34.6262 62.4745 34.9752L62.4013 37.3619C62.3958 37.5426 62.4436 37.7209 62.5387 37.8746L63.7954 39.905C63.9792 40.2018 63.9792 40.5771 63.7954 40.874L62.5387 42.9043C62.4436 43.058 62.3958 43.2363 62.4013 43.417L62.4745 45.8037C62.4852 46.1527 62.2976 46.4777 61.99 46.6429L59.8865 47.7729C59.7272 47.8584 59.5967 47.989 59.5112 48.1482L58.3812 50.2517C58.216 50.5593 57.891 50.7469 57.542 50.7362L55.1553 50.6631C54.9746 50.6575 54.7963 50.7053 54.6426 50.8004L52.6122 52.0572C52.3154 52.2409 51.9401 52.2409 51.6432 52.0572L49.6129 50.8004C49.4592 50.7053 49.2809 50.6575 49.1002 50.6631L46.7135 50.7362C46.3645 50.7469 46.0395 50.5593 45.8743 50.2517L44.7443 48.1482C44.6588 47.989 44.5282 47.8584 44.369 47.7729L42.2655 46.6429C41.9579 46.4777 41.7703 46.1527 41.781 45.8037L41.8541 43.417C41.8597 43.2363 41.8119 43.058 41.7168 42.9043L40.4601 40.874C40.2763 40.5771 40.2763 40.2018 40.4601 39.905L41.7168 37.8746C41.8119 37.7209 41.8597 37.5426 41.8541 37.3619L41.781 34.9752C41.7703 34.6262 41.9579 34.3012 42.2655 34.136L44.369 33.006C44.5282 32.9205 44.6588 32.79 44.7443 32.6307L45.8743 30.5272C46.0395 30.2196 46.3645 30.032 46.7135 30.0427L49.1002 30.1159C49.2809 30.1214 49.4592 30.0736 49.6129 29.9785L51.6432 28.7218Z" fill="#CDEAD9"/>
</g>
<path d="M58.6868 40.4469C58.6868 44.0377 55.776 46.9486 52.1852 46.9486C48.5945 46.9486 45.6836 44.0377 45.6836 40.4469C45.6836 36.8562 48.5945 33.9453 52.1852 33.9453C55.776 33.9453 58.6868 36.8562 58.6868 40.4469ZM48.6143 40.4469C48.6143 42.4191 50.2131 44.0178 52.1852 44.0178C54.1574 44.0178 55.7561 42.4191 55.7561 40.4469C55.7561 38.4748 54.1574 36.876 52.1852 36.876C50.2131 36.876 48.6143 38.4748 48.6143 40.4469Z" fill="#BBDDC9"/>
<mask id="mask0_40003786_6405" style="mask-type:alpha" maskUnits="userSpaceOnUse" x="57" y="9" width="25" height="25">
<rect x="57.875" y="9.45703" width="24" height="24" fill="#D9D9D9"/>
</mask>
<g mask="url(#mask0_40003786_6405)">
<path d="M69.875 26.1878C70.1038 26.1878 70.2957 26.1104 70.4505 25.9555C70.6053 25.8007 70.6827 25.6089 70.6827 25.38C70.6827 25.1512 70.6053 24.9594 70.4505 24.8045C70.2957 24.6499 70.1038 24.5725 69.875 24.5725C69.6462 24.5725 69.4543 24.6499 69.2995 24.8045C69.1447 24.9594 69.0673 25.1512 69.0673 25.38C69.0673 25.6089 69.1447 25.8007 69.2995 25.9555C69.4543 26.1104 69.6462 26.1878 69.875 26.1878ZM69.8753 22.534C70.0879 22.534 70.266 22.4621 70.4095 22.3183C70.5532 22.1746 70.625 21.9965 70.625 21.784V17.284C70.625 17.0715 70.5531 16.8934 70.4093 16.7495C70.2654 16.6059 70.0873 16.534 69.8748 16.534C69.6621 16.534 69.484 16.6059 69.3405 16.7495C69.1968 16.8934 69.125 17.0715 69.125 17.284V21.784C69.125 21.9965 69.1969 22.1746 69.3408 22.3183C69.4846 22.4621 69.6628 22.534 69.8753 22.534ZM69.8767 30.957C68.5627 30.957 67.3277 30.7077 66.1715 30.209C65.0153 29.7104 64.0097 29.0336 63.1545 28.1788C62.2993 27.3239 61.6222 26.3187 61.1232 25.163C60.6244 24.0074 60.375 22.7726 60.375 21.4588C60.375 20.1448 60.6243 18.9097 61.123 17.7535C61.6217 16.5974 62.2984 15.5917 63.1533 14.7365C64.0081 13.8814 65.0133 13.2043 66.169 12.7053C67.3247 12.2064 68.5594 11.957 69.8733 11.957C71.1873 11.957 72.4223 12.2064 73.5785 12.705C74.7347 13.2037 75.7403 13.8804 76.5955 14.7353C77.4507 15.5901 78.1278 16.5954 78.6268 17.751C79.1256 18.9067 79.375 20.1414 79.375 21.4553C79.375 22.7693 79.1257 24.0044 78.627 25.1605C78.1283 26.3167 77.4516 27.3224 76.5968 28.1775C75.7419 29.0327 74.7367 29.7098 73.581 30.2088C72.4253 30.7076 71.1906 30.957 69.8767 30.957ZM69.875 29.457C72.1083 29.457 74 28.682 75.55 27.132C77.1 25.582 77.875 23.6904 77.875 21.457C77.875 19.2237 77.1 17.332 75.55 15.782C74 14.232 72.1083 13.457 69.875 13.457C67.6417 13.457 65.75 14.232 64.2 15.782C62.65 17.332 61.875 19.2237 61.875 21.457C61.875 23.6904 62.65 25.582 64.2 27.132C65.75 28.682 67.6417 29.457 69.875 29.457Z" fill="#003D19"/>
</g>
<defs>
<filter id="filter0_d_40003786_6405" x="35.6599" y="24.3819" width="32.9342" height="32.9342" filterUnits="userSpaceOnUse" color-interpolation-filters="sRGB">
<feFlood flood-opacity="0" result="BackgroundImageFix"/>
<feColorMatrix in="SourceAlpha" type="matrix" values="0 0 0 0 0 0 0 0 0 0 0 0 0 0 0 0 0 0 127 0" result="hardAlpha"/>
<feOffset dy="0.460292"/>
<feGaussianBlur stdDeviation="2.33023"/>
<feComposite in2="hardAlpha" operator="out"/>
<feColorMatrix type="matrix" values="0 0 0 0 0 0 0 0 0 0 0 0 0 0 0 0 0 0 0.1 0"/>
<feBlend mode="normal" in2="BackgroundImageFix" result="effect1_dropShadow_40003786_6405"/>
<feBlend mode="normal" in="SourceGraphic" in2="effect1_dropShadow_40003786_6405" result="shape"/>
</filter>
</defs>
</svg>
