<svg width="96" height="55" viewBox="0 0 96 55" fill="none" xmlns="http://www.w3.org/2000/svg">
<path d="M22.5156 20.668V45.3473C22.5156 48.1676 42.351 54.1823 48.0028 54.1823C53.6547 54.1823 73.4888 48.1676 73.4888 45.3473V20.668H22.5156Z" fill="#CDEAD9"/>
<path d="M22.5156 32.1069L48.0004 41.7263L73.4888 32.1069V23.1562H22.5156V32.1069Z" fill="#BBDDC9"/>
<path d="M47.9988 0L0 18.1164L47.9988 36.234L96 18.1164L47.9988 0Z" fill="#CDEAD9"/>
<path d="M47.9988 36.2348L0 18.1172V20.6031L47.9988 38.7208L96 20.6031V18.1172L47.9988 36.2348Z" fill="#90B49F"/>
<path d="M76.5143 40.6641H76.3415H74.5491H74.3751C74.3751 40.6641 69.6767 47.2991 72.7679 53.954C73.4901 53.954 74.0656 53.954 74.528 53.954H74.5355C74.5727 53.954 74.8425 53.954 76.3552 53.954H76.3614C76.8238 53.954 77.3993 53.954 78.1214 53.954C81.2127 47.2991 76.5143 40.6641 76.5143 40.6641Z" fill="#BBDDC9"/>
<path d="M77.1363 52.859C77.2482 52.2536 77.1922 51.5203 77.2295 50.7546C77.2482 50.3693 77.2419 49.9753 77.1922 49.5763C77.1587 49.1773 77.1239 48.7708 77.0878 48.3656C77.0679 47.9617 76.9735 47.5676 76.9113 47.1761C76.8417 46.7895 76.7733 46.4079 76.7062 46.0388C76.5123 45.3203 76.3818 44.6354 76.1867 44.0823C75.8535 42.9512 75.5391 42.2539 75.5391 42.2539C75.5391 42.2539 75.8026 42.986 76.0499 44.1407C76.2028 44.7063 76.2836 45.4011 76.4203 46.1233C76.4589 46.49 76.4986 46.8716 76.5397 47.2569C76.572 47.6435 76.6366 48.0313 76.6267 48.4265C76.6316 48.8181 76.6379 49.2133 76.6428 49.5986C76.664 49.984 76.6403 50.3618 76.5968 50.726C76.5061 51.4457 76.516 52.1368 76.3656 52.6874C76.2476 53.2082 76.1519 53.6358 76.0798 53.9553C76.1705 53.9553 76.2513 53.9553 76.3532 53.9553H76.3594C76.5397 53.9553 76.7522 53.9553 76.971 53.9553C77.0182 53.6458 77.0717 53.289 77.1363 52.859Z" fill="#90B49F"/>
<path d="M74.5176 52.6874C74.3684 52.1368 74.3771 51.4457 74.2876 50.726C74.2429 50.3618 74.2205 49.984 74.2404 49.5986C74.2453 49.2121 74.2503 48.8181 74.2565 48.4265C74.2466 48.0313 74.3112 47.6422 74.3435 47.2569C74.3846 46.8703 74.4243 46.49 74.4641 46.1233C74.5996 45.4011 74.6829 44.7063 74.8345 44.1407C75.0806 42.986 75.3441 42.2539 75.3441 42.2539C75.3441 42.2539 75.0284 42.9512 74.6966 44.0823C74.5014 44.6354 74.3697 45.3203 74.177 46.0388C74.1099 46.4079 74.0415 46.7895 73.9719 47.1761C73.9098 47.5676 73.8153 47.9592 73.7954 48.3656C73.7594 48.7708 73.7245 49.176 73.6897 49.5763C73.6413 49.9753 73.6363 50.3705 73.6537 50.7546C73.691 51.5203 73.6338 52.2536 73.7469 52.859C73.8116 53.289 73.865 53.6458 73.911 53.9553C74.1273 53.9553 74.3411 53.9553 74.5213 53.9553H74.5288C74.5449 53.9553 74.6133 53.9553 74.8022 53.9553C74.7326 53.6346 74.6356 53.2082 74.5176 52.6874Z" fill="#90B49F"/>
<path d="M78.6484 51.8982C78.7143 51.5153 78.7466 51.1089 78.7392 50.6863C78.764 50.2624 78.7292 49.8311 78.6832 49.3948C78.6634 48.956 78.5515 48.5309 78.4807 48.0984C78.1115 46.388 77.3719 44.8903 76.7616 43.8598C76.1389 42.8344 75.6367 42.2539 75.6367 42.2539C75.6367 42.2539 76.0991 42.8866 76.6435 43.9655C77.1768 45.0444 77.7933 46.5869 78.0295 48.2326C78.068 48.6453 78.1475 49.0505 78.1363 49.4569C78.15 49.8634 78.1562 50.2587 78.1065 50.639C78.0879 51.0206 78.0357 51.3798 77.9511 51.713C77.889 52.051 77.8206 52.3655 77.71 52.639C77.5434 53.2058 77.3371 53.6358 77.1792 53.9279C77.173 53.9404 77.1718 53.9453 77.1656 53.954C77.4515 53.954 77.7672 53.954 78.1202 53.954C78.1848 53.8148 78.2283 53.6744 78.2855 53.5339C78.3414 53.3512 78.3986 53.1797 78.4458 52.9646C78.5478 52.6464 78.6049 52.2847 78.6484 51.8982Z" fill="#90B49F"/>
<path d="M75.4429 42.2539L75.0078 53.9553C75.2067 53.9553 75.4814 53.9553 75.8766 53.9553L75.4429 42.2539Z" fill="#90B49F"/>
<path d="M73.7078 53.9279C73.5499 53.6358 73.3436 53.2058 73.177 52.639C73.0676 52.3655 72.9968 52.051 72.9359 51.713C72.8514 51.3786 72.7979 51.0194 72.7805 50.639C72.7308 50.2574 72.7358 49.8634 72.7507 49.4569C72.7395 49.0505 72.8203 48.6453 72.8576 48.2326C73.0937 46.5882 73.7115 45.0456 74.2435 43.9655C74.7879 42.8866 75.2503 42.2539 75.2503 42.2539C75.2503 42.2539 74.7481 42.8344 74.1254 43.8598C73.5151 44.8903 72.7768 46.388 72.4076 48.0984C72.3368 48.5309 72.2249 48.956 72.2038 49.3948C72.1578 49.8323 72.1242 50.2624 72.1491 50.6863C72.1416 51.1101 72.1739 51.5166 72.241 51.8982C72.2846 52.286 72.3417 52.6477 72.4399 52.9646C72.4884 53.1809 72.5456 53.3549 72.6003 53.5364C72.6587 53.6756 72.701 53.8148 72.7643 53.954C73.1174 53.954 73.4331 53.954 73.7189 53.954C73.7152 53.9441 73.714 53.9391 73.7078 53.9279Z" fill="#90B49F"/>
<path d="M73.0273 40.6662C73.0273 39.3287 74.1112 38.2461 75.4474 38.2461C76.7849 38.2461 77.8687 39.3287 77.8687 40.6662C77.8687 42.0036 76.7849 43.0862 75.4474 43.0862C74.1112 43.0862 73.0273 42.0036 73.0273 40.6662Z" fill="#90B49F"/>
<path opacity="0.3" d="M48.0044 22.6376C52.218 22.6376 55.6338 20.6131 55.6338 18.1157C55.6338 15.6183 52.218 13.5938 48.0044 13.5938C43.7908 13.5938 40.375 15.6183 40.375 18.1157C40.375 20.6131 43.7908 22.6376 48.0044 22.6376Z" fill="#90B49F"/>
<path d="M55.4763 19.0273C55.219 19.7694 54.6535 20.4456 53.8654 21.0062L53.8281 21.1317L74.2067 27.1552V40.6613H76.6927V25.2982L55.4763 19.0273Z" fill="#BBDDC9"/>
<path d="M40.375 17.4867C40.375 15.3364 43.3159 13.5938 46.9429 13.5938C50.5699 13.5938 53.5108 15.3352 53.5108 17.4867C53.5108 19.6359 50.5699 21.3785 46.9429 21.3785C43.3159 21.3785 40.375 19.6371 40.375 17.4867Z" fill="#90B49F"/>
<mask id="mask0_40003786_6384" style="mask-type:alpha" maskUnits="userSpaceOnUse" x="66" y="2" width="25" height="25">
<rect x="66.7461" y="2.07422" width="24" height="24" fill="#D9D9D9"/>
</mask>
<g mask="url(#mask0_40003786_6384)">
<path d="M78.7461 18.805C78.9749 18.805 79.1668 18.7276 79.3216 18.5727C79.4764 18.4179 79.5538 18.2261 79.5538 17.9972C79.5538 17.7684 79.4764 17.5766 79.3216 17.4217C79.1668 17.2671 78.9749 17.1897 78.7461 17.1897C78.5173 17.1897 78.3254 17.2671 78.1706 17.4217C78.0158 17.5766 77.9383 17.7684 77.9383 17.9972C77.9383 18.2261 78.0158 18.4179 78.1706 18.5727C78.3254 18.7276 78.5173 18.805 78.7461 18.805ZM78.7463 15.1512C78.959 15.1512 79.1371 15.0793 79.2806 14.9355C79.4243 14.7918 79.4961 14.6137 79.4961 14.4012V9.90122C79.4961 9.68872 79.4242 9.51055 79.2803 9.36672C79.1365 9.22305 78.9583 9.15122 78.7458 9.15122C78.5332 9.15122 78.3551 9.22305 78.2116 9.36672C78.0679 9.51055 77.9961 9.68872 77.9961 9.90122V14.4012C77.9961 14.6137 78.068 14.7918 78.2118 14.9355C78.3557 15.0793 78.5338 15.1512 78.7463 15.1512ZM78.7478 23.5742C77.4338 23.5742 76.1988 23.3249 75.0426 22.8262C73.8864 22.3276 72.8808 21.6508 72.0256 20.796C71.1704 19.9411 70.4933 18.9359 69.9943 17.7802C69.4955 16.6246 69.2461 15.3898 69.2461 14.076C69.2461 12.762 69.4954 11.5269 69.9941 10.3707C70.4928 9.21455 71.1695 8.20889 72.0243 7.35372C72.8792 6.49855 73.8844 5.82147 75.0401 5.32247C76.1958 4.82364 77.4305 4.57422 78.7443 4.57422C80.0583 4.57422 81.2934 4.82355 82.4496 5.32222C83.6058 5.82089 84.6114 6.49764 85.4666 7.35247C86.3218 8.2073 86.9988 9.21255 87.4978 10.3682C87.9967 11.5239 88.2461 12.7586 88.2461 14.0725C88.2461 15.3865 87.9968 16.6216 87.4981 17.7777C86.9994 18.9339 86.3227 19.9396 85.4678 20.7947C84.613 21.6499 83.6078 22.327 82.4521 22.826C81.2964 23.3248 80.0617 23.5742 78.7478 23.5742ZM78.7461 22.0742C80.9794 22.0742 82.8711 21.2992 84.4211 19.7492C85.9711 18.1992 86.7461 16.3076 86.7461 14.0742C86.7461 11.8409 85.9711 9.94922 84.4211 8.39922C82.8711 6.84922 80.9794 6.07422 78.7461 6.07422C76.5128 6.07422 74.6211 6.84922 73.0711 8.39922C71.5211 9.94922 70.7461 11.8409 70.7461 14.0742C70.7461 16.3076 71.5211 18.1992 73.0711 19.7492C74.6211 21.2992 76.5128 22.0742 78.7461 22.0742Z" fill="#003D19"/>
</g>
</svg>
