<svg xmlns="http://www.w3.org/2000/svg" width="76" height="67" viewBox="0 0 76 67" fill="none">
	<path fill-rule="evenodd" clip-rule="evenodd" d="M54.6964 19.2289L65.0482 27.2415C66.4013 28.2886 66.6491 30.2347 65.6011 31.5878L58.2032 41.1453C57.8427 41.6113 57.1389 41.5975 56.7937 41.1205C56.1806 40.2734 55.3995 39.5181 54.4608 38.9079C50.991 36.6523 45.7006 37.4454 43.0368 40.6124C39.8201 44.4365 40.4594 50.125 44.3689 53.1507C45.0427 53.6721 45.7694 54.0799 46.5247 54.3764C47.0757 54.5927 47.271 55.2702 46.9086 55.7381L39.5088 65.2984C38.4612 66.6511 36.5155 66.8989 35.1624 65.8518L1.45157 39.7587C0.0988997 38.7112 -0.148906 36.7655 0.898186 35.4124L26.991 1.70177C28.0385 0.349105 29.9842 0.100822 31.3374 1.14838L41.6882 9.16023C40.5804 12.5681 41.6546 16.4505 44.651 18.7696C47.6473 21.0891 51.6752 21.1556 54.6964 19.2289ZM54.6964 19.2289L41.6882 9.16023C41.9909 8.22919 42.4564 7.33358 43.0901 6.51495C46.0433 2.69999 51.5299 2.00098 55.3449 4.95411C59.1603 7.90677 59.8584 13.3938 56.9057 17.2088C56.2721 18.0274 55.5218 18.7025 54.6964 19.2289Z" fill="#03963F" fill-opacity="0.2" />
	<path d="M41.6882 9.16023C40.5804 12.5681 41.6546 16.4505 44.651 18.7696C47.6473 21.0891 51.6752 21.1556 54.6964 19.2289L41.6882 9.16023Z" fill="#03963F" fill-opacity="0.2" />
	<mask id="mask0_40000631_5880" style="mask-type:alpha" maskUnits="userSpaceOnUse" x="51" y="16" width="25" height="24">
		<rect x="51.75" y="16" width="24" height="24" fill="#D9D9D9" />
	</mask>
	<g mask="url(#mask0_40000631_5880)">
		<path d="M63.75 32.7308C63.9788 32.7308 64.1707 32.6533 64.3255 32.4985C64.4803 32.3437 64.5577 32.1518 64.5577 31.923C64.5577 31.6942 64.4803 31.5023 64.3255 31.3475C64.1707 31.1928 63.9788 31.1155 63.75 31.1155C63.5212 31.1155 63.3293 31.1928 63.1745 31.3475C63.0197 31.5023 62.9423 31.6942 62.9423 31.923C62.9423 32.1518 63.0197 32.3437 63.1745 32.4985C63.3293 32.6533 63.5212 32.7308 63.75 32.7308ZM63.7503 29.077C63.9629 29.077 64.141 29.0051 64.2845 28.8613C64.4282 28.7176 64.5 28.5395 64.5 28.327V23.827C64.5 23.6145 64.4281 23.4363 64.2843 23.2925C64.1404 23.1488 63.9622 23.077 63.7498 23.077C63.5371 23.077 63.359 23.1488 63.2155 23.2925C63.0718 23.4363 63 23.6145 63 23.827V28.327C63 28.5395 63.0719 28.7176 63.2158 28.8613C63.3596 29.0051 63.5378 29.077 63.7503 29.077ZM63.7517 37.5C62.4377 37.5 61.2027 37.2507 60.0465 36.752C58.8903 36.2533 57.8847 35.5766 57.0295 34.7218C56.1743 33.8669 55.4972 32.8617 54.9982 31.706C54.4994 30.5503 54.25 29.3156 54.25 28.0017C54.25 26.6877 54.4993 25.4527 54.998 24.2965C55.4967 23.1403 56.1734 22.1347 57.0283 21.2795C57.8831 20.4243 58.8883 19.7472 60.044 19.2482C61.1997 18.7494 62.4344 18.5 63.7483 18.5C65.0623 18.5 66.2973 18.7493 67.4535 19.248C68.6097 19.7467 69.6153 20.4234 70.4705 21.2783C71.3257 22.1331 72.0028 23.1383 72.5018 24.294C73.0006 25.4497 73.25 26.6844 73.25 27.9983C73.25 29.3123 73.0007 30.5473 72.502 31.7035C72.0033 32.8597 71.3266 33.8653 70.4718 34.7205C69.6169 35.5757 68.6117 36.2528 67.456 36.7518C66.3003 37.2506 65.0656 37.5 63.7517 37.5ZM63.75 36C65.9833 36 67.875 35.225 69.425 33.675C70.975 32.125 71.75 30.2333 71.75 28C71.75 25.7667 70.975 23.875 69.425 22.325C67.875 20.775 65.9833 20 63.75 20C61.5167 20 59.625 20.775 58.075 22.325C56.525 23.875 55.75 25.7667 55.75 28C55.75 30.2333 56.525 32.125 58.075 33.675C59.625 35.225 61.5167 36 63.75 36Z" fill="#003D19" />
	</g>
</svg>


