<svg xmlns="http://www.w3.org/2000/svg" width="79" height="66" viewBox="0 0 79 66" fill="none">
	<g filter="url(#filter0_d_40000631_5881)">
		<path d="M7.54688 8.05292C7.54688 7.19527 8.24214 6.5 9.09979 6.5L58.794 6.5C59.6516 6.5 60.3469 7.19527 60.3469 8.05292V52.9471C60.3469 53.8047 59.6516 54.5 58.794 54.5H9.0998C8.24214 54.5 7.54688 53.8047 7.54688 52.9471L7.54688 8.05292Z" fill="#BBDDC9" />
		<path d="M7.25 53.3166L7.25 3.68573C7.25 2.82808 7.94526 2.13281 8.80292 2.13281L32.1245 2.13281C32.9179 2.13281 33.6243 2.63513 33.8847 3.38452L38.34 16.2028C38.5093 16.6901 38.9622 17.022 39.4778 17.0368L65.7306 17.7905C66.5705 17.8146 67.2389 18.5025 67.2389 19.3428V53.3166C67.2389 54.1743 66.5437 54.8695 65.686 54.8695H8.80292C7.94527 54.8695 7.25 54.1743 7.25 53.3166Z" fill="#CDEAD9" />
	</g>
	<mask id="mask0_40000631_5881" style="mask-type:alpha" maskUnits="userSpaceOnUse" x="54" y="12" width="25" height="24">
		<rect x="54.7461" y="12" width="24" height="24" fill="#D9D9D9" />
	</mask>
	<g mask="url(#mask0_40000631_5881)">
		<path d="M66.7461 28.7308C66.9749 28.7308 67.1668 28.6533 67.3216 28.4985C67.4764 28.3437 67.5538 28.1518 67.5538 27.923C67.5538 27.6942 67.4764 27.5023 67.3216 27.3475C67.1668 27.1928 66.9749 27.1155 66.7461 27.1155C66.5173 27.1155 66.3254 27.1928 66.1706 27.3475C66.0158 27.5023 65.9383 27.6942 65.9383 27.923C65.9383 28.1518 66.0158 28.3437 66.1706 28.4985C66.3254 28.6533 66.5173 28.7308 66.7461 28.7308ZM66.7463 25.077C66.959 25.077 67.1371 25.0051 67.2806 24.8613C67.4243 24.7176 67.4961 24.5395 67.4961 24.327V19.827C67.4961 19.6145 67.4242 19.4363 67.2803 19.2925C67.1365 19.1488 66.9583 19.077 66.7458 19.077C66.5332 19.077 66.3551 19.1488 66.2116 19.2925C66.0679 19.4363 65.9961 19.6145 65.9961 19.827V24.327C65.9961 24.5395 66.068 24.7176 66.2118 24.8613C66.3557 25.0051 66.5338 25.077 66.7463 25.077ZM66.7478 33.5C65.4338 33.5 64.1988 33.2507 63.0426 32.752C61.8864 32.2533 60.8808 31.5766 60.0256 30.7218C59.1704 29.8669 58.4933 28.8617 57.9943 27.706C57.4955 26.5503 57.2461 25.3156 57.2461 24.0017C57.2461 22.6877 57.4954 21.4527 57.9941 20.2965C58.4928 19.1403 59.1695 18.1347 60.0243 17.2795C60.8792 16.4243 61.8844 15.7472 63.0401 15.2482C64.1958 14.7494 65.4305 14.5 66.7443 14.5C68.0583 14.5 69.2934 14.7493 70.4496 15.248C71.6058 15.7467 72.6114 16.4234 73.4666 17.2783C74.3218 18.1331 74.9988 19.1383 75.4978 20.294C75.9967 21.4497 76.2461 22.6844 76.2461 23.9983C76.2461 25.3123 75.9968 26.5473 75.4981 27.7035C74.9994 28.8597 74.3227 29.8653 73.4678 30.7205C72.613 31.5757 71.6078 32.2528 70.4521 32.7518C69.2964 33.2506 68.0617 33.5 66.7478 33.5ZM66.7461 32C68.9794 32 70.8711 31.225 72.4211 29.675C73.9711 28.125 74.7461 26.2333 74.7461 24C74.7461 21.7667 73.9711 19.875 72.4211 18.325C70.8711 16.775 68.9794 16 66.7461 16C64.5128 16 62.6211 16.775 61.0711 18.325C59.5211 19.875 58.7461 21.7667 58.7461 24C58.7461 26.2333 59.5211 28.125 61.0711 29.675C62.6211 31.225 64.5128 32 66.7461 32Z" fill="#003D19" />
	</g>
	<defs>
		<filter id="filter0_d_40000631_5881" x="0.824787" y="0.297037" width="72.8387" height="65.5887" filterUnits="userSpaceOnUse" color-interpolation-filters="sRGB">
			<feFlood flood-opacity="0" result="BackgroundImageFix" />
			<feColorMatrix in="SourceAlpha" type="matrix" values="0 0 0 0 0 0 0 0 0 0 0 0 0 0 0 0 0 0 127 0" result="hardAlpha" />
			<feMorphology radius="0.917888" operator="erode" in="SourceAlpha" result="effect1_dropShadow_40000631_5881" />
			<feOffset dy="4.58944" />
			<feGaussianBlur stdDeviation="3.67155" />
			<feComposite in2="hardAlpha" operator="out" />
			<feColorMatrix type="matrix" values="0 0 0 0 0.585425 0 0 0 0 0.590284 0 0 0 0 0.6 0 0 0 0.16 0" />
			<feBlend mode="normal" in2="BackgroundImageFix" result="effect1_dropShadow_40000631_5881" />
			<feBlend mode="normal" in="SourceGraphic" in2="effect1_dropShadow_40000631_5881" result="shape" />
		</filter>
	</defs>
</svg>
