<svg xmlns="http://www.w3.org/2000/svg" width="18" height="24" viewBox="0 0 18 24" fill="none">
	<g filter="url(#filter0_if_40000123_1854)">
		<path fill-rule="evenodd" clip-rule="evenodd" d="M2.5 1C1.669 1 1 1.669 1 2.5V21.5C1 22.331 1.669 23 2.5 23H15.5C16.331 23 17 22.331 17 21.5V7L11 1H2.5Z" fill="#F44336" />
	</g>
	<path fill-rule="evenodd" clip-rule="evenodd" d="M11 1V5.5C11 5.94762 11.1952 6.34696 11.5042 6.62134L17 12.1172V7L11 1Z" fill="url(#paint0_linear_40000123_1854)" />
	<mask id="mask0_40000123_1854" style="mask-type:luminance" maskUnits="userSpaceOnUse" x="1" y="1" width="16" height="22">
		<path d="M2.5 1C1.669 1 1 1.669 1 2.5V21.5C1 22.331 1.669 23 2.5 23H15.5C16.331 23 17 22.331 17 21.5V7L11 1H2.5Z" fill="white" />
	</mask>
	<g mask="url(#mask0_40000123_1854)">
		<g filter="url(#filter1_f_40000123_1854)">
			<path fill-rule="evenodd" clip-rule="evenodd" d="M17 7H12.5C11.669 7 11 6.331 11 5.5V1L17 7Z" fill="#E57373" />
		</g>
	</g>
	<path opacity="0.2" fill-rule="evenodd" clip-rule="evenodd" d="M1 21.375V21.5C1 22.331 1.669 23 2.5 23H15.5C16.331 23 17 22.331 17 21.5V21.375C17 22.206 16.331 22.875 15.5 22.875H2.5C1.669 22.875 1 22.206 1 21.375Z" fill="#3E2723" />
	<path opacity="0.2" fill-rule="evenodd" clip-rule="evenodd" d="M2.5 1C1.669 1 1 1.669 1 2.5V2.625C1 1.794 1.669 1.125 2.5 1.125H11L16.875 7H17L11 1H2.5Z" fill="white" />
	<path opacity="0.2" fill-rule="evenodd" clip-rule="evenodd" d="M11 5.5V5.625C11 6.456 11.669 7.125 12.5 7.125H17V7H12.5C11.669 7 11 6.331 11 5.5Z" fill="#3E2723" />
	<path d="M7.5 12.5V17.5H9C9.825 17.5 10.5 16.825 10.5 16V14C10.5 13.175 9.825 12.5 9 12.5H7.5ZM9 16.5H8.5V13.5H9C9.275 13.5 9.5 13.725 9.5 14V16C9.5 16.275 9.275 16.5 9 16.5ZM14.5 13.5V12.5H11.5V17.5H12.5V15.5H14V14.5H12.5V13.5H14.5ZM3.5 12.5V17.5H4.5V15.5H5.5C6.05 15.5 6.5 15.05 6.5 14.5V13.5C6.5 12.95 6.05 12.5 5.5 12.5H3.5ZM5.5 14.5H4.5V13.5H5.5V14.5Z" fill="#FAFAFA" />
	<defs>
		<filter id="filter0_if_40000123_1854" x="0.75" y="0.75" width="16.5" height="22.5" filterUnits="userSpaceOnUse" color-interpolation-filters="sRGB">
			<feFlood flood-opacity="0" result="BackgroundImageFix" />
			<feBlend mode="normal" in="SourceGraphic" in2="BackgroundImageFix" result="shape" />
			<feColorMatrix in="SourceAlpha" type="matrix" values="0 0 0 0 0 0 0 0 0 0 0 0 0 0 0 0 0 0 127 0" result="hardAlpha" />
			<feOffset />
			<feGaussianBlur stdDeviation="0.25" />
			<feComposite in2="hardAlpha" operator="arithmetic" k2="-1" k3="1" />
			<feColorMatrix type="matrix" values="0 0 0 0 0 0 0 0 0 0 0 0 0 0 0 0 0 0 1 0" />
			<feBlend mode="normal" in2="shape" result="effect1_innerShadow_40000123_1854" />
			<feGaussianBlur stdDeviation="0.125" result="effect2_foregroundBlur_40000123_1854" />
		</filter>
		<filter id="filter1_f_40000123_1854" x="10" y="0" width="8" height="8" filterUnits="userSpaceOnUse" color-interpolation-filters="sRGB">
			<feFlood flood-opacity="0" result="BackgroundImageFix" />
			<feBlend mode="normal" in="SourceGraphic" in2="BackgroundImageFix" result="shape" />
			<feGaussianBlur stdDeviation="0.5" result="effect1_foregroundBlur_40000123_1854" />
		</filter>
		<linearGradient id="paint0_linear_40000123_1854" x1="11" y1="3.5" x2="17" y2="9.49999" gradientUnits="userSpaceOnUse">
			<stop stop-color="#3E2723" stop-opacity="0.2" />
			<stop offset="1" stop-color="#3E2723" stop-opacity="0" />
		</linearGradient>
	</defs>
</svg>
