<svg xmlns="http://www.w3.org/2000/svg" width="23" height="22" viewBox="0 0 23 22" fill="none">
	<g clip-path="url(#clip0_40000365_1187)">
		<path d="M20.8221 1.66604L19.8596 0.831875C18.7505 -0.277292 16.9538 -0.277292 15.8446 0.831875C15.8171 0.859375 14.1213 3.06854 14.1213 3.06854C13.0763 4.16854 13.0763 5.90104 14.1213 6.99188L15.1846 8.33021C13.8463 11.3644 11.7655 13.4544 8.83212 14.701L7.49379 13.6285C6.40296 12.5744 4.66129 12.5744 3.57046 13.6285C3.57046 13.6285 1.36129 15.3244 1.33379 15.3519C0.224622 16.461 0.224622 18.2577 1.28796 19.321L2.20462 20.3752C3.25879 21.4294 4.67962 22.0069 6.21962 22.0069C13.223 22.0069 22.4996 12.721 22.4996 5.72688C22.4996 4.19604 21.9221 2.76604 20.8221 1.67521V1.66604ZM6.21962 20.1644C5.17462 20.1644 4.21212 19.7794 3.55212 19.1102L2.63546 18.056C2.25962 17.6802 2.24129 17.066 2.59879 16.6719C2.59879 16.6719 4.78962 14.9852 4.81712 14.9577C5.19296 14.5819 5.85296 14.5819 6.23796 14.9577C6.26546 14.9852 8.10796 16.461 8.10796 16.461C8.36462 16.6627 8.70379 16.7177 9.00629 16.5985C12.8013 15.1502 15.5238 12.4369 17.0913 8.52271C17.2105 8.22021 17.1646 7.87188 16.9538 7.60604C16.9538 7.60604 15.478 5.75438 15.4596 5.73604C15.0655 5.34188 15.0655 4.70938 15.4596 4.31521C15.4871 4.28771 17.1738 2.09688 17.1738 2.09688C17.568 1.73938 18.1821 1.74854 18.6038 2.17021L19.5663 3.00438C20.2721 3.71021 20.6663 4.67271 20.6663 5.71771C20.6663 12.0977 11.7105 20.1644 6.21962 20.1644Z" fill="#0C0F12" />
	</g>
	<defs>
		<clipPath id="clip0_40000365_1187">
			<rect width="22" height="22" fill="white" transform="translate(0.5)" />
		</clipPath>
	</defs>
</svg>
