<svg xmlns="http://www.w3.org/2000/svg" width="23" height="22" viewBox="0 0 23 22" fill="none">
	<path d="M7.68324 14.8211C7.47241 14.6103 7.27441 14.3793 7.09566 14.1355C6.79774 13.7266 6.88757 13.1528 7.29732 12.8549C7.70616 12.557 8.27907 12.6468 8.57791 13.0556C8.69616 13.2188 8.82907 13.3755 8.97849 13.524C9.71457 14.2601 10.6927 14.6653 11.7331 14.6653C12.7735 14.6653 13.7525 14.2601 14.4877 13.524L19.5293 8.48238C21.0482 6.96346 21.0482 4.49121 19.5293 2.97229C18.0104 1.45337 15.5382 1.45337 14.0192 2.97229L13.0494 3.94213C12.691 4.30054 12.1117 4.30054 11.7532 3.94213C11.3948 3.58371 11.3948 3.00437 11.7532 2.64596L12.7231 1.67613C14.957 -0.558708 18.5916 -0.558708 20.8255 1.67613C23.0594 3.91004 23.0594 7.54462 20.8255 9.77854L15.7838 14.8202C14.7022 15.9028 13.263 16.4986 11.7331 16.4986C10.2032 16.4986 8.76399 15.9028 7.68324 14.8211ZM6.23307 21.9986C7.76391 21.9986 9.20216 21.4028 10.2838 20.3202L11.2537 19.3504C11.6121 18.9929 11.6121 18.4126 11.2537 18.0542C10.8962 17.6958 10.3159 17.6967 9.95749 18.0542L8.98674 19.024C8.25066 19.7601 7.27257 20.1653 6.23216 20.1653C5.19174 20.1653 4.21366 19.7601 3.47757 19.024C2.74149 18.288 2.33632 17.3099 2.33632 16.2695C2.33632 15.229 2.74149 14.25 3.47757 13.5149L8.51924 8.47321C9.25532 7.73712 10.2334 7.33196 11.2738 7.33196C12.3142 7.33196 13.2932 7.73712 14.0284 8.47321C14.1751 8.62079 14.3089 8.77754 14.4281 8.94071C14.7251 9.35046 15.298 9.44213 15.7087 9.14329C16.1184 8.84538 16.2092 8.27246 15.9112 7.86271C15.7371 7.62254 15.54 7.39246 15.3255 7.17796C14.2429 6.09446 12.8037 5.49862 11.2738 5.49862C9.74391 5.49862 8.30474 6.09446 7.22307 7.17704L2.18232 12.2187C1.09974 13.3004 0.503906 14.7395 0.503906 16.2695C0.503906 17.7994 1.09974 19.2385 2.18232 20.3202C3.26399 21.4028 4.70224 21.9986 6.23307 21.9986Z" fill="black" />
</svg>