<svg xmlns="http://www.w3.org/2000/svg" width="25" height="24" viewBox="0 0 25 24" fill="none">
	<mask id="mask0_40000636_3432" style="mask-type:alpha" maskUnits="userSpaceOnUse" x="0" y="0" width="25" height="24">
		<rect x="0.5" y="24" width="24" height="24" transform="rotate(-90 0.5 24)" fill="#D9D9D9" />
	</mask>
	<g mask="url(#mask0_40000636_3432)">
		<path d="M15.2962 12.7502L6.5 12.7502C6.28717 12.7502 6.109 12.6784 5.9655 12.5347C5.82183 12.3912 5.75 12.2131 5.75 12.0002C5.75 11.7874 5.82183 11.6092 5.9655 11.4657C6.109 11.3221 6.28717 11.2502 6.5 11.2502L15.2962 11.2502L11.973 7.92724C11.8347 7.78874 11.7638 7.61466 11.7605 7.40499C11.7573 7.19549 11.8282 7.01824 11.973 6.87324C12.118 6.72841 12.2937 6.65599 12.5 6.65599C12.7063 6.65599 12.882 6.72841 13.027 6.87324L17.5212 11.3675C17.7019 11.5483 17.7922 11.7592 17.7922 12.0002C17.7922 12.2412 17.7019 12.4522 17.5212 12.633L13.027 17.1272C12.8885 17.2656 12.7144 17.3364 12.5047 17.3397C12.2952 17.3429 12.118 17.2721 11.973 17.1272C11.8282 16.9822 11.7557 16.8066 11.7557 16.6002C11.7557 16.3939 11.8282 16.2182 11.973 16.0732L15.2962 12.7502Z" fill="#414447" />
	</g>
</svg>
