<svg xmlns="http://www.w3.org/2000/svg" width="25" height="25" viewBox="0 0 25 25" fill="none">
	<mask id="mask0_40004312_6318" style="mask-type:alpha" maskUnits="userSpaceOnUse" x="0" y="0" width="25" height="25">
		<rect x="0.5" y="0.351562" width="24" height="24" fill="#D9D9D9" />
	</mask>
	<g mask="url(#mask0_40004312_6318)">
		<path d="M17.3055 21.8516C16.557 21.8516 15.9215 21.5898 15.399 21.0663C14.8767 20.5428 14.6155 19.9071 14.6155 19.1593C14.6155 19.0593 14.6501 18.8163 14.7193 18.4303L7.60775 14.2438C7.36675 14.4938 7.08042 14.6896 6.74875 14.8313C6.41708 14.973 6.06175 15.0438 5.68275 15.0438C4.93758 15.0438 4.30417 14.781 3.7825 14.2553C3.26083 13.7296 3 13.0951 3 12.3516C3 11.6081 3.26083 10.9735 3.7825 10.4478C4.30417 9.92215 4.93758 9.65931 5.68275 9.65931C6.06175 9.65931 6.41708 9.73015 6.74875 9.87181C7.08042 10.0135 7.36675 10.2093 7.60775 10.4593L14.7193 6.28231C14.6796 6.15931 14.6523 6.03881 14.6375 5.92081C14.6228 5.80281 14.6155 5.67715 14.6155 5.54381C14.6155 4.79598 14.8774 4.16031 15.4012 3.63681C15.9253 3.11331 16.5615 2.85156 17.31 2.85156C18.0585 2.85156 18.6939 3.11356 19.2163 3.63756C19.7388 4.1614 20 4.79756 20 5.54606C20 6.29456 19.7383 6.93006 19.2148 7.45256C18.6912 7.9749 18.0556 8.23606 17.3077 8.23606C16.9269 8.23606 16.5728 8.16365 16.2452 8.01881C15.9176 7.87398 15.6333 7.67656 15.3923 7.42656L8.28075 11.6131C8.32042 11.7362 8.34767 11.8567 8.3625 11.9746C8.37717 12.0926 8.3845 12.2182 8.3845 12.3516C8.3845 12.4849 8.37717 12.6106 8.3625 12.7286C8.34767 12.8464 8.32042 12.9669 8.28075 13.0901L15.3923 17.2766C15.6333 17.0266 15.9176 16.8291 16.2452 16.6843C16.5728 16.5395 16.9269 16.4671 17.3077 16.4671C18.0556 16.4671 18.6912 16.729 19.2148 17.2528C19.7383 17.7768 20 18.4131 20 19.1616C20 19.9101 19.738 20.5455 19.214 21.0678C18.6902 21.5903 18.054 21.8516 17.3055 21.8516ZM17.3077 20.3516C17.6456 20.3516 17.9287 20.2373 18.1572 20.0088C18.3857 19.7803 18.5 19.4971 18.5 19.1593C18.5 18.8215 18.3857 18.5383 18.1572 18.3098C17.9287 18.0811 17.6456 17.9668 17.3077 17.9668C16.9699 17.9668 16.6868 18.0811 16.4583 18.3098C16.2296 18.5383 16.1152 18.8215 16.1152 19.1593C16.1152 19.4971 16.2296 19.7803 16.4583 20.0088C16.6868 20.2373 16.9699 20.3516 17.3077 20.3516ZM5.68275 13.5438C6.02325 13.5438 6.30867 13.4296 6.539 13.2011C6.7695 12.9726 6.88475 12.6894 6.88475 12.3516C6.88475 12.0137 6.7695 11.7306 6.539 11.5021C6.30867 11.2736 6.02325 11.1593 5.68275 11.1593C5.34758 11.1593 5.06667 11.2736 4.84 11.5021C4.61333 11.7306 4.5 12.0137 4.5 12.3516C4.5 12.6894 4.61333 12.9726 4.84 13.2011C5.06667 13.4296 5.34758 13.5438 5.68275 13.5438ZM17.3077 6.73631C17.6456 6.73631 17.9287 6.62198 18.1572 6.39331C18.3857 6.16481 18.5 5.88165 18.5 5.54381C18.5 5.20598 18.3857 4.92281 18.1572 4.69431C17.9287 4.46581 17.6456 4.35156 17.3077 4.35156C16.9699 4.35156 16.6868 4.46581 16.4583 4.69431C16.2296 4.92281 16.1152 5.20598 16.1152 5.54381C16.1152 5.88165 16.2296 6.16481 16.4583 6.39331C16.6868 6.62198 16.9699 6.73631 17.3077 6.73631Z" fill="#1C1B1F" />
	</g>
</svg>
