<svg xmlns="http://www.w3.org/2000/svg" width="25" height="24" viewBox="0 0 25 24" fill="none">
	<mask id="mask0_40001327_6768" style="mask-type:alpha" maskUnits="userSpaceOnUse" x="0" y="0" width="25" height="24">
		<rect x="0.5" width="24" height="24" fill="#D9D9D9" />
	</mask>
	<g mask="url(#mask0_40001327_6768)">
		<path d="M12.5 19.269C12.0875 19.269 11.7344 19.1221 11.4408 18.8282C11.1469 18.5346 11 18.1815 11 17.769C11 17.3565 11.1469 17.0033 11.4408 16.7095C11.7344 16.4158 12.0875 16.269 12.5 16.269C12.9125 16.269 13.2656 16.4158 13.5592 16.7095C13.8531 17.0033 14 17.3565 14 17.769C14 18.1815 13.8531 18.5346 13.5592 18.8282C13.2656 19.1221 12.9125 19.269 12.5 19.269ZM12.5 13.4997C12.0875 13.4997 11.7344 13.3528 11.4408 13.059C11.1469 12.7653 11 12.4122 11 11.9997C11 11.5872 11.1469 11.2341 11.4408 10.9405C11.7344 10.6466 12.0875 10.4997 12.5 10.4997C12.9125 10.4997 13.2656 10.6466 13.5592 10.9405C13.8531 11.2341 14 11.5872 14 11.9997C14 12.4122 13.8531 12.7653 13.5592 13.059C13.2656 13.3528 12.9125 13.4997 12.5 13.4997ZM12.5 7.73047C12.0875 7.73047 11.7344 7.58364 11.4408 7.28997C11.1469 6.99614 11 6.64297 11 6.23047C11 5.81797 11.1469 5.46489 11.4408 5.17122C11.7344 4.87739 12.0875 4.73047 12.5 4.73047C12.9125 4.73047 13.2656 4.87739 13.5592 5.17122C13.8531 5.46489 14 5.81797 14 6.23047C14 6.64297 13.8531 6.99614 13.5592 7.28997C13.2656 7.58364 12.9125 7.73047 12.5 7.73047Z" fill="#1C1B1F" />
	</g>
</svg>
