<svg xmlns="http://www.w3.org/2000/svg" width="25" height="25" viewBox="0 0 25 25" fill="none">
	<g clip-path="url(#clip0_40000918_6743)">
		<path d="M18.5 24.0742H10.937L11.228 22.8442C11.3777 22.2648 11.4688 21.6718 11.5 21.0742C11.5 20.5438 11.2893 20.0351 10.9142 19.66C10.5391 19.2849 10.0304 19.0742 9.5 19.0742C8.96957 19.0742 8.46086 19.2849 8.08579 19.66C7.71071 20.0351 7.5 20.5438 7.5 21.0742C7.53122 21.6718 7.62235 22.2648 7.772 22.8442L8.063 24.0742H0.5V9.07422C0.5 8.27857 0.81607 7.51551 1.37868 6.9529C1.94129 6.39029 2.70435 6.07422 3.5 6.07422H5.772C5.61363 5.41852 5.52249 4.74839 5.5 4.07422C5.5 3.01335 5.92143 1.99594 6.67157 1.24579C7.42172 0.495646 8.43913 0.0742188 9.5 0.0742188C10.5609 0.0742188 11.5783 0.495646 12.3284 1.24579C13.0786 1.99594 13.5 3.01335 13.5 4.07422C13.4775 4.74839 13.3864 5.41852 13.228 6.07422H15.5C16.2956 6.07422 17.0587 6.39029 17.6213 6.9529C18.1839 7.51551 18.5 8.27857 18.5 9.07422V10.8462C19.1558 10.6885 19.8259 10.5973 20.5 10.5742C21.5609 10.5742 22.5783 10.9956 23.3284 11.7458C24.0786 12.4959 24.5 13.5134 24.5 14.5742C24.5 15.6351 24.0786 16.6525 23.3284 17.4026C22.5783 18.1528 21.5609 18.5742 20.5 18.5742C19.8259 18.5511 19.1558 18.46 18.5 18.3022V24.0742ZM13.414 22.0742H16.5V15.6562L17.791 16.0482C18.6689 16.3343 19.5788 16.511 20.5 16.5742C21.0304 16.5742 21.5391 16.3635 21.9142 15.9884C22.2893 15.6134 22.5 15.1047 22.5 14.5742C22.5 14.0438 22.2893 13.5351 21.9142 13.16C21.5391 12.7849 21.0304 12.5742 20.5 12.5742C19.5788 12.6375 18.6689 12.8141 17.791 13.1002L16.5 13.4922V9.07422C16.5 8.809 16.3946 8.55465 16.2071 8.36711C16.0196 8.17958 15.7652 8.07422 15.5 8.07422H10.582L10.974 6.78322C11.2603 5.90535 11.437 4.99545 11.5 4.07422C11.5 3.54379 11.2893 3.03508 10.9142 2.66001C10.5391 2.28493 10.0304 2.07422 9.5 2.07422C8.96957 2.07422 8.46086 2.28493 8.08579 2.66001C7.71071 3.03508 7.5 3.54379 7.5 4.07422C7.56299 4.99545 7.73967 5.90535 8.026 6.78322L8.418 8.07422H3.5C3.23478 8.07422 2.98043 8.17958 2.79289 8.36711C2.60536 8.55465 2.5 8.809 2.5 9.07422V22.0742H5.586C5.53394 21.7433 5.5052 21.4092 5.5 21.0742C5.5 20.0134 5.92143 18.9959 6.67157 18.2458C7.42172 17.4956 8.43913 17.0742 9.5 17.0742C10.5609 17.0742 11.5783 17.4956 12.3284 18.2458C13.0786 18.9959 13.5 20.0134 13.5 21.0742C13.4948 21.4092 13.4661 21.7433 13.414 22.0742Z" fill="black" />
	</g>
	<defs>
		<clipPath id="clip0_40000918_6743">
			<rect width="24" height="24" fill="white" transform="translate(0.5 0.0742188)" />
		</clipPath>
	</defs>
</svg>
