<svg xmlns="http://www.w3.org/2000/svg" width="25" height="24" viewBox="0 0 25 24" fill="none">
	<path d="M24.4719 11.0505C23.9646 10.3693 23.1865 9.97761 22.3365 9.97761H21.875V7.90781C21.875 5.03594 19.5385 2.69948 16.6667 2.69948H11.4C11.2396 2.69948 11.0771 2.66094 10.9344 2.5901L7.64792 0.946355C7.21667 0.73073 6.73333 0.617188 6.25 0.617188H4.16667C1.86875 0.616146 0 2.4849 0 4.78281V18.3245C0 21.1964 2.33646 23.5328 5.20833 23.5328H18.2896C20.6083 23.5328 22.6125 22.0411 23.2917 19.7755L24.8875 13.4047C25.1312 12.5901 24.9792 11.7328 24.4719 11.0505ZM2.08333 18.3245V4.78281C2.08333 3.63385 3.01771 2.69948 4.16667 2.69948H6.25C6.41042 2.69948 6.57292 2.73802 6.71562 2.80885L10.0021 4.4526C10.4333 4.66823 10.9167 4.78177 11.4 4.78177H16.6667C18.3896 4.78177 19.7917 6.18386 19.7917 7.90677V9.97656H8.97396C7.20312 9.97656 5.62187 11.1005 5.02708 12.8099L2.74583 20.2453C2.33125 19.7151 2.08333 19.0484 2.08333 18.3245ZM22.8792 12.8526L21.2833 19.2224C20.8833 20.5547 19.6802 21.4495 18.2896 21.4495H5.20833C4.99167 21.4495 4.78021 21.4276 4.57604 21.3849L7.00729 13.4589C7.29792 12.6224 8.08958 12.0609 8.975 12.0609H22.3375C22.5896 12.0609 22.7365 12.2068 22.801 12.2943C22.8656 12.3818 22.9635 12.5641 22.8792 12.8526Z" fill="black" />
</svg>
