<svg xmlns="http://www.w3.org/2000/svg" width="25" height="26" viewBox="0 0 25 26" fill="none">
	<g clip-path="url(#clip0_40000918_6751)">
		<path d="M24.4719 12.0505C23.9646 11.3693 23.1865 10.9776 22.3365 10.9776H21.875V8.90781C21.875 6.03594 19.5385 3.69948 16.6667 3.69948H11.4C11.2396 3.69948 11.0771 3.66094 10.9344 3.5901L7.64792 1.94635C7.21667 1.73073 6.73333 1.61719 6.25 1.61719H4.16667C1.86875 1.61615 0 3.4849 0 5.78281V19.3245C0 22.1964 2.33646 24.5328 5.20833 24.5328H18.2896C20.6083 24.5328 22.6125 23.0411 23.2917 20.7755L24.8875 14.4047C25.1312 13.5901 24.9792 12.7328 24.4719 12.0505ZM2.08333 19.3245V5.78281C2.08333 4.63385 3.01771 3.69948 4.16667 3.69948H6.25C6.41042 3.69948 6.57292 3.73802 6.71562 3.80885L10.0021 5.4526C10.4333 5.66823 10.9167 5.78177 11.4 5.78177H16.6667C18.3896 5.78177 19.7917 7.18386 19.7917 8.90677V10.9766H8.97396C7.20312 10.9766 5.62187 12.1005 5.02708 13.8099L2.74583 21.2453C2.33125 20.7151 2.08333 20.0484 2.08333 19.3245ZM22.8792 13.8526L21.2833 20.2224C20.8833 21.5547 19.6802 22.4495 18.2896 22.4495H5.20833C4.99167 22.4495 4.78021 22.4276 4.57604 22.3849L7.00729 14.4589C7.29792 13.6224 8.08958 13.0609 8.975 13.0609H22.3375C22.5896 13.0609 22.7365 13.2068 22.801 13.2943C22.8656 13.3818 22.9635 13.5641 22.8792 13.8526Z" fill="black" />
	</g>
	<defs>
		<clipPath id="clip0_40000918_6751">
			<rect width="25" height="25" fill="white" transform="translate(0 0.574219)" />
		</clipPath>
	</defs>
</svg>
