<svg width="24" height="19" viewBox="0 0 24 19" fill="none" xmlns="http://www.w3.org/2000/svg">
<g id="Group 710">
<path id="video_camera_front" d="M3.10641 18.0752C2.50085 18.0752 1.98821 17.8717 1.56851 17.4645C1.14881 17.0574 0.938965 16.56 0.938965 15.9724V2.72976C0.938965 2.14214 1.14881 1.64477 1.56851 1.23764C1.98821 0.830516 2.50085 0.626953 3.10641 0.626953H16.7583C17.3639 0.626953 17.8765 0.830516 18.2962 1.23764C18.7159 1.64477 18.9258 2.14214 18.9258 2.72976V8.05381L22.2189 4.85932C22.3958 4.68775 22.5945 4.6449 22.8149 4.73079C23.0355 4.81648 23.1459 4.9801 23.1459 5.22166V13.4805C23.1459 13.7221 23.0355 13.8857 22.8149 13.9714C22.5945 14.0573 22.3958 14.0144 22.2189 13.8429L18.9258 10.6484V15.9724C18.9258 16.56 18.7159 17.0574 18.2962 17.4645C17.8765 17.8717 17.3639 18.0752 16.7583 18.0752H3.10641ZM3.10641 16.3304H16.7583C16.8659 16.3304 16.9542 16.2969 17.0233 16.2298C17.0927 16.1627 17.1274 16.0769 17.1274 15.9724V2.72976C17.1274 2.62526 17.0927 2.53948 17.0233 2.4724C16.9542 2.40532 16.8659 2.37178 16.7583 2.37178H3.10641C2.99889 2.37178 2.91055 2.40532 2.8414 2.4724C2.77225 2.53948 2.73768 2.62526 2.73768 2.72976V15.9724C2.73768 16.0769 2.77225 16.1627 2.8414 16.2298C2.91055 16.2969 2.99889 16.3304 3.10641 16.3304Z" fill="#001A38"/>
<path id="video_camera_front_2" d="M5.69727 13.2267C5.69727 13.4459 5.87499 13.6236 6.09421 13.6236H13.4374C13.6566 13.6236 13.8344 13.4459 13.8344 13.2267C13.8344 12.5262 13.4564 11.9547 12.7006 11.512C11.9447 11.0692 10.9665 10.8478 9.76595 10.8478C8.56524 10.8478 7.58695 11.0692 6.83108 11.512C6.0752 11.9547 5.69727 12.5262 5.69727 13.2267ZM9.76595 9.39597C10.3069 9.39597 10.7669 9.20694 11.1458 8.82887C11.525 8.45098 11.7146 7.99231 11.7146 7.45287C11.7146 6.91324 11.525 6.45449 11.1458 6.0766C10.7669 5.69871 10.3069 5.50977 9.76595 5.50977C9.2248 5.50977 8.76474 5.69871 8.38578 6.0766C8.00683 6.45449 7.81735 6.91324 7.81735 7.45287C7.81735 7.99231 8.00683 8.45098 8.38578 8.82887C8.76474 9.20694 9.2248 9.39597 9.76595 9.39597Z" fill="#25DE84"/>
</g>
</svg>
