<svg width="15" height="21" viewBox="0 0 15 21" fill="none" xmlns="http://www.w3.org/2000/svg">
<g id="Group 711">
<path id="mic" d="M7.45236 12.6375C6.68715 12.6375 6.0395 12.3724 5.50941 11.8423C4.97931 11.3122 4.71426 10.6646 4.71426 9.89937V3.32794C4.71426 2.56273 4.97931 1.91508 5.50941 1.38499C6.0395 0.854891 6.68715 0.589844 7.45236 0.589844C8.21756 0.589844 8.86521 0.854891 9.39531 1.38499C9.92541 1.91508 10.1905 2.56273 10.1905 3.32794V9.89937C10.1905 10.6646 9.92541 11.3122 9.39531 11.8423C8.86521 12.3724 8.21756 12.6375 7.45236 12.6375ZM6.63093 19.7565V16.9678C5.00067 16.7796 3.60351 16.1098 2.43945 14.9585C1.27558 13.8071 0.593885 12.4036 0.394369 10.7482C0.36498 10.5151 0.42604 10.3154 0.577548 10.1491C0.729238 9.9826 0.921635 9.89937 1.15474 9.89937C1.38784 9.89937 1.58298 9.97978 1.74014 10.1406C1.89749 10.3012 2.00218 10.4981 2.0542 10.7312C2.25354 12.0723 2.86678 13.1816 3.89393 14.0591C4.92108 14.9367 6.10722 15.3756 7.45236 15.3756C8.81575 15.3756 10.0065 14.9322 11.0245 14.0454C12.0425 13.1588 12.6512 12.0541 12.8505 10.7312C12.9025 10.4981 13.0072 10.3012 13.1646 10.1406C13.3217 9.97978 13.5169 9.89937 13.75 9.89937C13.9831 9.89937 14.1755 9.9826 14.3272 10.1491C14.4787 10.3154 14.5397 10.5151 14.5103 10.7482C14.3108 12.3671 13.6337 13.7597 12.479 14.926C11.324 16.092 9.9223 16.7726 8.27379 16.9678V19.7565C8.27379 19.9896 8.19511 20.1847 8.03776 20.3419C7.8806 20.4993 7.68546 20.5779 7.45236 20.5779C7.21925 20.5779 7.02412 20.4993 6.86695 20.3419C6.7096 20.1847 6.63093 19.9896 6.63093 19.7565Z" fill="#001A38"/>
<path id="mic_2" d="M7.45196 12.6375C6.68676 12.6375 6.03911 12.3724 5.50901 11.8423C4.97892 11.3122 4.71387 10.6646 4.71387 9.89937V3.32794C4.71387 2.56273 4.97892 1.91508 5.50901 1.38499C6.03911 0.854891 6.68676 0.589844 7.45196 0.589844C8.21717 0.589844 8.86482 0.854891 9.39492 1.38499C9.92501 1.91508 10.1901 2.56273 10.1901 3.32794V9.89937C10.1901 10.6646 9.92501 11.3122 9.39492 11.8423C8.86482 12.3724 8.21717 12.6375 7.45196 12.6375Z" fill="#25DE84"/>
</g>
</svg>
