<svg width="21" height="19" viewBox="0 0 21 19" fill="none" xmlns="http://www.w3.org/2000/svg">
<path d="M0.101074 14.4916V2.02289C0.101074 1.46961 0.292741 1.0013 0.676074 0.617969C1.05941 0.234635 1.52771 0.0429688 2.08099 0.0429688H18.9307C19.484 0.0429688 19.9523 0.234635 20.3356 0.617969C20.7189 1.0013 20.9106 1.46961 20.9106 2.02289V14.4916C20.9106 15.0361 20.7167 15.5023 20.329 15.89C19.9413 16.2777 19.4752 16.4715 18.9307 16.4715H16.8035C16.5707 16.4715 16.3756 16.3928 16.2181 16.2352C16.0607 16.0777 15.982 15.8826 15.982 15.6498C15.982 15.4169 16.0607 15.2219 16.2181 15.0647C16.3756 14.9074 16.5707 14.8287 16.8035 14.8287H18.9307C19.015 14.8287 19.0922 14.7935 19.1623 14.7233C19.2326 14.6532 19.2677 14.576 19.2677 14.4916V2.02289C19.2677 1.93855 19.2326 1.86134 19.1623 1.79124C19.0922 1.72096 19.015 1.68583 18.9307 1.68583H2.08099C1.99666 1.68583 1.91944 1.72096 1.84935 1.79124C1.77907 1.86134 1.74393 1.93855 1.74393 2.02289V14.4916C1.74393 14.576 1.77907 14.6532 1.84935 14.7233C1.91944 14.7935 1.99666 14.8287 2.08099 14.8287H4.20822C4.44096 14.8287 4.63609 14.9074 4.79362 15.065C4.95097 15.2225 5.02965 15.4176 5.02965 15.6504C5.02965 15.8833 4.95097 16.0783 4.79362 16.2355C4.63609 16.3929 4.44096 16.4715 4.20822 16.4715H2.08099C1.53647 16.4715 1.07036 16.2777 0.682646 15.89C0.294931 15.5023 0.101074 15.0361 0.101074 14.4916ZM6.49562 18.662C6.26307 18.662 6.08025 18.5831 5.94718 18.4252C5.81429 18.2673 5.74785 18.097 5.74785 17.9142C5.74785 17.833 5.76455 17.7477 5.79796 17.6582C5.83136 17.569 5.88977 17.4837 5.97319 17.4025L9.81282 13.5629C9.91541 13.4603 10.0253 13.3852 10.1425 13.3375C10.2597 13.2897 10.3825 13.2658 10.511 13.2658C10.6395 13.2658 10.7607 13.2897 10.8744 13.3375C10.9881 13.3852 11.0963 13.4603 11.1988 13.5629L15.0385 17.4025C15.1219 17.4839 15.1803 17.5693 15.2137 17.6588C15.2471 17.7484 15.2638 17.8339 15.2638 17.9153C15.2638 18.0944 15.1974 18.2636 15.0645 18.423C14.9314 18.5823 14.7486 18.662 14.5161 18.662H6.49562Z" fill="#25DE84"/>
<path d="M0.101074 14.4916V2.02289C0.101074 1.46961 0.292741 1.0013 0.676074 0.617969C1.05941 0.234635 1.52771 0.0429688 2.08099 0.0429688H18.9307C19.484 0.0429688 19.9523 0.234635 20.3356 0.617969C20.7189 1.0013 20.9106 1.46961 20.9106 2.02289V14.4916C20.9106 15.0361 20.7167 15.5023 20.329 15.89C19.9413 16.2777 19.4752 16.4715 18.9307 16.4715H16.8035C16.5707 16.4715 16.3756 16.3928 16.2181 16.2352C16.0607 16.0777 15.982 15.8826 15.982 15.6498C15.982 15.4169 16.0607 15.2219 16.2181 15.0647C16.3756 14.9074 16.5707 14.8287 16.8035 14.8287H18.9307C19.015 14.8287 19.0922 14.7935 19.1623 14.7233C19.2326 14.6532 19.2677 14.576 19.2677 14.4916V2.02289C19.2677 1.93855 19.2326 1.86134 19.1623 1.79124C19.0922 1.72096 19.015 1.68583 18.9307 1.68583H2.08099C1.99666 1.68583 1.91944 1.72096 1.84935 1.79124C1.77907 1.86134 1.74393 1.93855 1.74393 2.02289V14.4916C1.74393 14.576 1.77907 14.6532 1.84935 14.7233C1.91944 14.7935 1.99666 14.8287 2.08099 14.8287H4.20822C4.44096 14.8287 4.63609 14.9074 4.79362 15.065C4.95097 15.2225 5.02965 15.4176 5.02965 15.6504C5.02965 15.8833 4.95097 16.0783 4.79362 16.2355C4.63609 16.3929 4.44096 16.4715 4.20822 16.4715H2.08099C1.53647 16.4715 1.07036 16.2777 0.682646 15.89C0.294931 15.5023 0.101074 15.0361 0.101074 14.4916Z" fill="#001A38"/>
</svg>
